<svg version="1.1" xmlns="http://www.w3.org/2000/svg" xmlns:xlink="http://www.w3.org/1999/xlink" width="658" height="515"><defs><clipPath id="nTiycnpgrZDN"><path fill="none" stroke="none" d=" M 0 0 L 658 0 L 658 515 L 0 515 L 0 0 Z"/></clipPath></defs><g transform="scale(1,1)" clip-path="url(#nTiycnpgrZDN)"><g><rect fill="rgb(255,255,255)" stroke="none" x="0" y="0" width="659" height="515" fill-opacity="1"/><path fill="none" stroke="rgb(37,37,37)" paint-order="fill stroke markers" d=" M 433.5 2.5 L 433.5 515.5" stroke-opacity="1" stroke-miterlimit="10"/><path fill="none" stroke="rgb(37,37,37)" paint-order="fill stroke markers" d=" M 433.5 1.5 L 429.5 5.5" stroke-opacity="1" stroke-miterlimit="10"/><path fill="none" stroke="rgb(37,37,37)" paint-order="fill stroke markers" d=" M 433.5 1.5 L 437.5 5.5" stroke-opacity="1" stroke-miterlimit="10"/><path fill="none" stroke="rgb(37,37,37)" paint-order="fill stroke markers" d=" M 0.5 476.5 L 656.5 476.5" stroke-opacity="1" stroke-miterlimit="10"/><path fill="none" stroke="rgb(37,37,37)" paint-order="fill stroke markers" d=" M 657.5 476.5 L 653.5 472.5" stroke-opacity="1" stroke-miterlimit="10"/><path fill="none" stroke="rgb(37,37,37)" paint-order="fill stroke markers" d=" M 657.5 476.5 L 653.5 480.5" stroke-opacity="1" stroke-miterlimit="10"/><text fill="rgb(37,37,37)" stroke="none" font-family="geogebra-sans-serif, sans-serif" font-size="12px" font-style="normal" font-weight="normal" text-decoration="normal" x="52" y="492" text-anchor="start" dominant-baseline="alphabetic" fill-opacity="1">–5</text><text fill="none" stroke="rgb(255,255,255)" font-family="geogebra-sans-serif, sans-serif" font-size="12px" font-style="normal" font-weight="normal" text-decoration="normal" x="52" y="492" text-anchor="start" dominant-baseline="alphabetic" stroke-opacity="1" stroke-linejoin="bevel" stroke-miterlimit="10" stroke-width="3">–5</text><text fill="rgb(37,37,37)" stroke="none" font-family="geogebra-sans-serif, sans-serif" font-size="12px" font-style="normal" font-weight="normal" text-decoration="normal" x="52" y="492" text-anchor="start" dominant-baseline="alphabetic" fill-opacity="1">–5</text><path fill="none" stroke="rgb(37,37,37)" paint-order="fill stroke markers" d=" M 57.5 476.5 L 57.5 479.5" stroke-opacity="1" stroke-miterlimit="10"/><text fill="rgb(37,37,37)" stroke="none" font-family="geogebra-sans-serif, sans-serif" font-size="12px" font-style="normal" font-weight="normal" text-decoration="normal" x="127" y="492" text-anchor="start" dominant-baseline="alphabetic" fill-opacity="1">–4</text><text fill="none" stroke="rgb(255,255,255)" font-family="geogebra-sans-serif, sans-serif" font-size="12px" font-style="normal" font-weight="normal" text-decoration="normal" x="127" y="492" text-anchor="start" dominant-baseline="alphabetic" stroke-opacity="1" stroke-linejoin="bevel" stroke-miterlimit="10" stroke-width="3">–4</text><text fill="rgb(37,37,37)" stroke="none" font-family="geogebra-sans-serif, sans-serif" font-size="12px" font-style="normal" font-weight="normal" text-decoration="normal" x="127" y="492" text-anchor="start" dominant-baseline="alphabetic" fill-opacity="1">–4</text><path fill="none" stroke="rgb(37,37,37)" paint-order="fill stroke markers" d=" M 132.5 476.5 L 132.5 479.5" stroke-opacity="1" stroke-miterlimit="10"/><text fill="rgb(37,37,37)" stroke="none" font-family="geogebra-sans-serif, sans-serif" font-size="12px" font-style="normal" font-weight="normal" text-decoration="normal" x="202" y="492" text-anchor="start" dominant-baseline="alphabetic" fill-opacity="1">–3</text><text fill="none" stroke="rgb(255,255,255)" font-family="geogebra-sans-serif, sans-serif" font-size="12px" font-style="normal" font-weight="normal" text-decoration="normal" x="202" y="492" text-anchor="start" dominant-baseline="alphabetic" stroke-opacity="1" stroke-linejoin="bevel" stroke-miterlimit="10" stroke-width="3">–3</text><text fill="rgb(37,37,37)" stroke="none" font-family="geogebra-sans-serif, sans-serif" font-size="12px" font-style="normal" font-weight="normal" text-decoration="normal" x="202" y="492" text-anchor="start" dominant-baseline="alphabetic" fill-opacity="1">–3</text><path fill="none" stroke="rgb(37,37,37)" paint-order="fill stroke markers" d=" M 207.5 476.5 L 207.5 479.5" stroke-opacity="1" stroke-miterlimit="10"/><text fill="rgb(37,37,37)" stroke="none" font-family="geogebra-sans-serif, sans-serif" font-size="12px" font-style="normal" font-weight="normal" text-decoration="normal" x="277" y="492" text-anchor="start" dominant-baseline="alphabetic" fill-opacity="1">–2</text><text fill="none" stroke="rgb(255,255,255)" font-family="geogebra-sans-serif, sans-serif" font-size="12px" font-style="normal" font-weight="normal" text-decoration="normal" x="277" y="492" text-anchor="start" dominant-baseline="alphabetic" stroke-opacity="1" stroke-linejoin="bevel" stroke-miterlimit="10" stroke-width="3">–2</text><text fill="rgb(37,37,37)" stroke="none" font-family="geogebra-sans-serif, sans-serif" font-size="12px" font-style="normal" font-weight="normal" text-decoration="normal" x="277" y="492" text-anchor="start" dominant-baseline="alphabetic" fill-opacity="1">–2</text><path fill="none" stroke="rgb(37,37,37)" paint-order="fill stroke markers" d=" M 282.5 476.5 L 282.5 479.5" stroke-opacity="1" stroke-miterlimit="10"/><text fill="rgb(37,37,37)" stroke="none" font-family="geogebra-sans-serif, sans-serif" font-size="12px" font-style="normal" font-weight="normal" text-decoration="normal" x="352" y="492" text-anchor="start" dominant-baseline="alphabetic" fill-opacity="1">–1</text><text fill="none" stroke="rgb(255,255,255)" font-family="geogebra-sans-serif, sans-serif" font-size="12px" font-style="normal" font-weight="normal" text-decoration="normal" x="352" y="492" text-anchor="start" dominant-baseline="alphabetic" stroke-opacity="1" stroke-linejoin="bevel" stroke-miterlimit="10" stroke-width="3">–1</text><text fill="rgb(37,37,37)" stroke="none" font-family="geogebra-sans-serif, sans-serif" font-size="12px" font-style="normal" font-weight="normal" text-decoration="normal" x="352" y="492" text-anchor="start" dominant-baseline="alphabetic" fill-opacity="1">–1</text><path fill="none" stroke="rgb(37,37,37)" paint-order="fill stroke markers" d=" M 357.5 476.5 L 357.5 479.5" stroke-opacity="1" stroke-miterlimit="10"/><path fill="none" stroke="rgb(37,37,37)" paint-order="fill stroke markers" d=" M 433.5 476.5 L 433.5 479.5" stroke-opacity="1" stroke-miterlimit="10"/><text fill="rgb(37,37,37)" stroke="none" font-family="geogebra-sans-serif, sans-serif" font-size="12px" font-style="normal" font-weight="normal" text-decoration="normal" x="506" y="492" text-anchor="start" dominant-baseline="alphabetic" fill-opacity="1">1</text><text fill="none" stroke="rgb(255,255,255)" font-family="geogebra-sans-serif, sans-serif" font-size="12px" font-style="normal" font-weight="normal" text-decoration="normal" x="506" y="492" text-anchor="start" dominant-baseline="alphabetic" stroke-opacity="1" stroke-linejoin="bevel" stroke-miterlimit="10" stroke-width="3">1</text><text fill="rgb(37,37,37)" stroke="none" font-family="geogebra-sans-serif, sans-serif" font-size="12px" font-style="normal" font-weight="normal" text-decoration="normal" x="506" y="492" text-anchor="start" dominant-baseline="alphabetic" fill-opacity="1">1</text><path fill="none" stroke="rgb(37,37,37)" paint-order="fill stroke markers" d=" M 508.5 476.5 L 508.5 479.5" stroke-opacity="1" stroke-miterlimit="10"/><text fill="rgb(37,37,37)" stroke="none" font-family="geogebra-sans-serif, sans-serif" font-size="12px" font-style="normal" font-weight="normal" text-decoration="normal" x="581" y="492" text-anchor="start" dominant-baseline="alphabetic" fill-opacity="1">2</text><text fill="none" stroke="rgb(255,255,255)" font-family="geogebra-sans-serif, sans-serif" font-size="12px" font-style="normal" font-weight="normal" text-decoration="normal" x="581" y="492" text-anchor="start" dominant-baseline="alphabetic" stroke-opacity="1" stroke-linejoin="bevel" stroke-miterlimit="10" stroke-width="3">2</text><text fill="rgb(37,37,37)" stroke="none" font-family="geogebra-sans-serif, sans-serif" font-size="12px" font-style="normal" font-weight="normal" text-decoration="normal" x="581" y="492" text-anchor="start" dominant-baseline="alphabetic" fill-opacity="1">2</text><path fill="none" stroke="rgb(37,37,37)" paint-order="fill stroke markers" d=" M 583.5 476.5 L 583.5 479.5" stroke-opacity="1" stroke-miterlimit="10"/><path fill="none" stroke="rgb(37,37,37)" paint-order="fill stroke markers" d=" M 430.5 401.5 L 433.5 401.5" stroke-opacity="1" stroke-miterlimit="10"/><path fill="none" stroke="rgb(37,37,37)" paint-order="fill stroke markers" d=" M 430.5 326.5 L 433.5 326.5" stroke-opacity="1" stroke-miterlimit="10"/><path fill="none" stroke="rgb(37,37,37)" paint-order="fill stroke markers" d=" M 430.5 251.5 L 433.5 251.5" stroke-opacity="1" stroke-miterlimit="10"/><path fill="none" stroke="rgb(37,37,37)" paint-order="fill stroke markers" d=" M 430.5 176.5 L 433.5 176.5" stroke-opacity="1" stroke-miterlimit="10"/><path fill="none" stroke="rgb(37,37,37)" paint-order="fill stroke markers" d=" M 430.5 100.5 L 433.5 100.5" stroke-opacity="1" stroke-miterlimit="10"/><path fill="none" stroke="rgb(37,37,37)" paint-order="fill stroke markers" d=" M 430.5 25.5 L 433.5 25.5" stroke-opacity="1" stroke-miterlimit="10"/><text fill="rgb(37,37,37)" stroke="none" font-family="geogebra-sans-serif, sans-serif" font-size="12px" font-style="normal" font-weight="normal" text-decoration="normal" x="418" y="406" text-anchor="start" dominant-baseline="alphabetic" fill-opacity="1">1</text><text fill="none" stroke="rgb(255,255,255)" font-family="geogebra-sans-serif, sans-serif" font-size="12px" font-style="normal" font-weight="normal" text-decoration="normal" x="418" y="406" text-anchor="start" dominant-baseline="alphabetic" stroke-opacity="1" stroke-linejoin="bevel" stroke-miterlimit="10" stroke-width="3">1</text><text fill="rgb(37,37,37)" stroke="none" font-family="geogebra-sans-serif, sans-serif" font-size="12px" font-style="normal" font-weight="normal" text-decoration="normal" x="418" y="406" text-anchor="start" dominant-baseline="alphabetic" fill-opacity="1">1</text><text fill="rgb(37,37,37)" stroke="none" font-family="geogebra-sans-serif, sans-serif" font-size="12px" font-style="normal" font-weight="normal" text-decoration="normal" x="418" y="331" text-anchor="start" dominant-baseline="alphabetic" fill-opacity="1">2</text><text fill="none" stroke="rgb(255,255,255)" font-family="geogebra-sans-serif, sans-serif" font-size="12px" font-style="normal" font-weight="normal" text-decoration="normal" x="418" y="331" text-anchor="start" dominant-baseline="alphabetic" stroke-opacity="1" stroke-linejoin="bevel" stroke-miterlimit="10" stroke-width="3">2</text><text fill="rgb(37,37,37)" stroke="none" font-family="geogebra-sans-serif, sans-serif" font-size="12px" font-style="normal" font-weight="normal" text-decoration="normal" x="418" y="331" text-anchor="start" dominant-baseline="alphabetic" fill-opacity="1">2</text><text fill="rgb(37,37,37)" stroke="none" font-family="geogebra-sans-serif, sans-serif" font-size="12px" font-style="normal" font-weight="normal" text-decoration="normal" x="418" y="256" text-anchor="start" dominant-baseline="alphabetic" fill-opacity="1">3</text><text fill="none" stroke="rgb(255,255,255)" font-family="geogebra-sans-serif, sans-serif" font-size="12px" font-style="normal" font-weight="normal" text-decoration="normal" x="418" y="256" text-anchor="start" dominant-baseline="alphabetic" stroke-opacity="1" stroke-linejoin="bevel" stroke-miterlimit="10" stroke-width="3">3</text><text fill="rgb(37,37,37)" stroke="none" font-family="geogebra-sans-serif, sans-serif" font-size="12px" font-style="normal" font-weight="normal" text-decoration="normal" x="418" y="256" text-anchor="start" dominant-baseline="alphabetic" fill-opacity="1">3</text><text fill="rgb(37,37,37)" stroke="none" font-family="geogebra-sans-serif, sans-serif" font-size="12px" font-style="normal" font-weight="normal" text-decoration="normal" x="418" y="181" text-anchor="start" dominant-baseline="alphabetic" fill-opacity="1">4</text><text fill="none" stroke="rgb(255,255,255)" font-family="geogebra-sans-serif, sans-serif" font-size="12px" font-style="normal" font-weight="normal" text-decoration="normal" x="418" y="181" text-anchor="start" dominant-baseline="alphabetic" stroke-opacity="1" stroke-linejoin="bevel" stroke-miterlimit="10" stroke-width="3">4</text><text fill="rgb(37,37,37)" stroke="none" font-family="geogebra-sans-serif, sans-serif" font-size="12px" font-style="normal" font-weight="normal" text-decoration="normal" x="418" y="181" text-anchor="start" dominant-baseline="alphabetic" fill-opacity="1">4</text><text fill="rgb(37,37,37)" stroke="none" font-family="geogebra-sans-serif, sans-serif" font-size="12px" font-style="normal" font-weight="normal" text-decoration="normal" x="418" y="105" text-anchor="start" dominant-baseline="alphabetic" fill-opacity="1">5</text><text fill="none" stroke="rgb(255,255,255)" font-family="geogebra-sans-serif, sans-serif" font-size="12px" font-style="normal" font-weight="normal" text-decoration="normal" x="418" y="105" text-anchor="start" dominant-baseline="alphabetic" stroke-opacity="1" stroke-linejoin="bevel" stroke-miterlimit="10" stroke-width="3">5</text><text fill="rgb(37,37,37)" stroke="none" font-family="geogebra-sans-serif, sans-serif" font-size="12px" font-style="normal" font-weight="normal" text-decoration="normal" x="418" y="105" text-anchor="start" dominant-baseline="alphabetic" fill-opacity="1">5</text><text fill="rgb(37,37,37)" stroke="none" font-family="geogebra-sans-serif, sans-serif" font-size="12px" font-style="normal" font-weight="normal" text-decoration="normal" x="418" y="30" text-anchor="start" dominant-baseline="alphabetic" fill-opacity="1">6</text><text fill="none" stroke="rgb(255,255,255)" font-family="geogebra-sans-serif, sans-serif" font-size="12px" font-style="normal" font-weight="normal" text-decoration="normal" x="418" y="30" text-anchor="start" dominant-baseline="alphabetic" stroke-opacity="1" stroke-linejoin="bevel" stroke-miterlimit="10" stroke-width="3">6</text><text fill="rgb(37,37,37)" stroke="none" font-family="geogebra-sans-serif, sans-serif" font-size="12px" font-style="normal" font-weight="normal" text-decoration="normal" x="418" y="30" text-anchor="start" dominant-baseline="alphabetic" fill-opacity="1">6</text><text fill="rgb(37,37,37)" stroke="none" font-family="geogebra-sans-serif, sans-serif" font-size="12px" font-style="normal" font-weight="normal" text-decoration="normal" x="418" y="492" text-anchor="start" dominant-baseline="alphabetic" fill-opacity="1">0</text><text fill="none" stroke="rgb(255,255,255)" font-family="geogebra-sans-serif, sans-serif" font-size="12px" font-style="normal" font-weight="normal" text-decoration="normal" x="418" y="492" text-anchor="start" dominant-baseline="alphabetic" stroke-opacity="1" stroke-linejoin="bevel" stroke-miterlimit="10" stroke-width="3">0</text><text fill="rgb(37,37,37)" stroke="none" font-family="geogebra-sans-serif, sans-serif" font-size="12px" font-style="normal" font-weight="normal" text-decoration="normal" x="418" y="492" text-anchor="start" dominant-baseline="alphabetic" fill-opacity="1">0</text><path fill="none" stroke="rgb(0,100,0)" paint-order="fill stroke markers" d=" M 1 476.75600822935525 L 1 476.75918542619 L 1 476.75600822935525 L 2.000000000000057 476.7527885036179 L 2.000000000000057 476.7527885036179 L 3 476.7495256797002 L 3 476.7495256797002 L 4 476.7462191807042 L 4 476.7462191807042 L 5 476.7428684220098 L 5 476.7428684220098 L 6.000000000000057 476.7394728111713 L 6.000000000000057 476.7394728111713 L 7.000000000000057 476.7360317478129 L 7.000000000000057 476.7360317478129 L 8 476.7325446235222 L 8 476.7325446235222 L 9 476.7290108217428 L 9 476.7290108217428 L 10.000000000000057 476.72542971766535 L 10.000000000000057 476.72542971766535 L 11.000000000000057 476.721800678117 L 11.000000000000057 476.721800678117 L 12 476.71812306144943 L 12 476.71812306144943 L 13 476.7143962174255 L 13 476.7143962174255 L 14.000000000000057 476.710619487104 L 14.000000000000057 476.710619487104 L 15.000000000000057 476.70679220272365 L 15.000000000000057 476.70679220272365 L 16 476.70291368758456 L 16 476.70291368758456 L 17 476.69898325592874 L 17 476.69898325592874 L 18.000000000000057 476.695000212819 L 18.000000000000057 476.695000212819 L 19.000000000000057 476.6909638540158 L 19.000000000000057 476.6909638540158 L 20 476.68687346585307 L 20 476.68687346585307 L 21 476.6827283251116 L 21 476.6827283251116 L 22 476.67852769889157 L 22 476.67852769889157 L 23.000000000000057 476.67427084448286 L 23.000000000000057 476.67427084448286 L 24 476.6699570092335 L 24 476.6699570092335 L 25 476.66558543041685 L 25 476.66558543041685 L 26 476.6611553350968 L 26 476.6611553350968 L 27.000000000000057 476.6566659399908 L 27.000000000000057 476.6566659399908 L 28.000000000000057 476.6521164513315 L 28.000000000000057 476.6521164513315 L 29 476.6475060647266 L 29 476.6475060647266 L 30.000000000000057 476.64283396501645 L 30.000000000000057 476.64283396501645 L 31.000000000000057 476.63809932612986 L 31.000000000000057 476.63809932612986 L 32.00000000000006 476.6333013109382 L 32.00000000000006 476.6333013109382 L 33 476.6284390711072 L 33 476.6284390711072 L 34 476.6235117469472 L 34 476.6235117469472 L 35 476.618518467261 L 35 476.618518467261 L 36.00000000000006 476.6134583491898 L 36.00000000000006 476.6134583491898 L 37 476.60833049805706 L 37 476.60833049805706 L 38 476.6031340072106 L 38 476.6031340072106 L 39.00000000000006 476.597867957862 L 39.00000000000006 476.597867957862 L 40.00000000000006 476.5925314189241 L 40.00000000000006 476.5925314189241 L 41 476.5871234468468 L 41 476.5871234468468 L 42 476.5816430854497 L 42 476.5816430854497 L 43 476.57608936575343 L 43 476.57608936575343 L 44 476.5704613058081 L 44 476.5704613058081 L 45.00000000000006 476.5647579105199 L 45.00000000000006 476.5647579105199 L 46 476.5589781714748 L 46 476.5589781714748 L 47.00000000000006 476.5531210667607 L 47.00000000000006 476.5531210667607 L 48.00000000000006 476.5471855607864 L 48.00000000000006 476.5471855607864 L 49.00000000000006 476.54117060409857 L 49.00000000000006 476.54117060409857 L 50 476.5350751331964 L 50 476.5350751331964 L 51 476.5288980703433 L 51 476.5288980703433 L 52 476.52263832337655 L 52 476.52263832337655 L 53.00000000000006 476.516294785514 L 53.00000000000006 476.516294785514 L 54 476.5098663351585 L 54 476.5098663351585 L 55 476.5033518356996 L 55 476.5033518356996 L 56.00000000000006 476.4967501353126 L 56.00000000000006 476.4967501353126 L 57.00000000000006 476.4900600667547 L 57.00000000000006 476.4900600667547 L 58 476.4832804471591 L 58 476.4832804471591 L 59 476.4764100778251 L 59 476.4764100778251 L 60 476.4694477440069 L 60 476.4694477440069 L 61 476.46239221469847 L 61 476.46239221469847 L 62 476.4552422424158 L 62 476.4552422424158 L 63 476.4479965629767 L 63 476.4479965629767 L 64.00000000000006 476.44065389527685 L 64.00000000000006 476.4406538952769 L 65.00000000000006 476.43321294106363 L 65.00000000000006 476.43321294106363 L 66.00000000000006 476.42567238470633 L 66.00000000000006 476.42567238470633 L 67 476.4180308929637 L 67 476.4180308929637 L 68 476.4102871147482 L 68 476.4102871147482 L 69 476.402439680887 L 69 476.402439680887 L 70.00000000000006 476.3944872038801 L 70.00000000000006 476.3944872038801 L 71 476.3864282776548 L 71 476.3864282776548 L 72.00000000000006 476.37826147731704 L 72.00000000000006 476.37826147731704 L 73.00000000000006 476.36998535889984 L 73.00000000000006 476.36998535889984 L 74.00000000000006 476.3615984591077 L 74.00000000000006 476.3615984591077 L 75 476.3530992950579 L 75 476.3530992950579 L 76 476.3444863640183 L 76 476.3444863640183 L 77 476.3357581431417 L 77 476.3357581431417 L 78 476.3269130891966 L 78 476.3269130891966 L 79 476.3179496382943 L 79 476.3179496382943 L 80 476.3088662056125 L 80 476.3088662056125 L 81.00000000000006 476.29966118511487 L 81.00000000000006 476.29966118511487 L 82.00000000000006 476.2903329492672 L 82.00000000000006 476.2903329492672 L 83 476.28087984874986 L 83 476.28087984874986 L 84 476.2713002121656 L 84 476.2713002121656 L 85 476.26159234574476 L 85 476.26159234574476 L 86 476.2517545330452 L 86 476.2517545330452 L 87.00000000000006 476.24178503464924 L 87.00000000000006 476.24178503464924 L 88 476.2316820878558 L 88 476.2316820878558 L 89.00000000000006 476.2214439063689 L 89.00000000000006 476.2214439063689 L 90.00000000000006 476.21106867998185 L 90.00000000000006 476.21106867998185 L 91.00000000000006 476.200554574257 L 91.00000000000006 476.200554574257 L 92 476.1898997302018 L 92 476.1898997302018 L 93 476.17910226393946 L 93 476.17910226393946 L 94 476.1681602663765 L 94 476.1681602663765 L 95 476.15707180286495 L 95 476.15707180286495 L 96 476.14583491286015 L 96 476.14583491286015 L 97 476.1344476095744 L 97 476.1344476095744 L 98.00000000000006 476.1229078796253 L 98.00000000000006 476.1229078796253 L 99.00000000000006 476.1112136826802 L 99.00000000000006 476.1112136826802 L 100 476.0993629510952 L 100 476.0993629510952 L 101 476.0873535895494 L 101 476.0873535895494 L 102 476.07518347467493 L 102 476.07518347467493 L 103 476.062850454681 L 103 476.062850454681 L 104.00000000000006 476.05035234897366 L 104.00000000000006 476.05035234897366 L 105 476.0376869477705 L 105 476.0376869477705 L 106.00000000000006 476.0248520117094 L 106.00000000000006 476.0248520117094 L 107.00000000000006 476.01184527145307 L 107.00000000000006 476.01184527145307 L 108.00000000000006 475.9986644272875 L 108.00000000000006 475.9986644272875 L 109 475.98530714871555 L 109 475.98530714871555 L 110 475.97177107404485 L 110 475.97177107404485 L 111 475.9580538099701 L 111 475.9580538099701 L 111.99999999999994 475.9441529311501 L 111.99999999999994 475.9441529311501 L 113 475.9300659797787 L 113 475.9300659797787 L 114 475.9157904651506 L 114 475.9157904651506 L 115.00000000000006 475.90132386322057 L 115.00000000000006 475.90132386322057 L 116.00000000000006 475.8866636161573 L 116.00000000000006 475.8866636161573 L 117 475.87180713189144 L 117 475.87180713189144 L 118 475.8567517836568 L 118 475.8567517836568 L 119 475.8414949095263 L 119 475.8414949095263 L 120 475.8260338119413 L 120 475.8260338119413 L 121 475.81036575723414 L 121 475.81036575723414 L 122 475.79448797514567 L 122 475.79448797514567 L 123.00000000000006 475.7783976583347 L 123.00000000000006 475.7783976583347 L 124.00000000000006 475.76209196188194 L 124.00000000000006 475.76209196188194 L 125.00000000000006 475.74556800278697 L 125.00000000000006 475.74556800278697 L 126 475.7288228594585 L 126 475.7288228594585 L 127 475.71185357119776 L 127 475.71185357119776 L 128 475.69465713767505 L 128 475.69465713767505 L 128.99999999999994 475.6772305183993 L 128.99999999999994 475.6772305183993 L 130 475.6595706321804 L 130 475.6595706321804 L 131 475.6416743565844 L 131 475.6416743565844 L 132.00000000000006 475.6235385273816 L 132.00000000000006 475.6235385273816 L 133 475.60515993798685 L 133 475.60515993798685 L 134 475.5865353388928 L 134 475.5865353388928 L 135 475.56766143709524 L 135 475.56766143709524 L 136 475.54853489551095 L 136 475.54853489551095 L 137 475.5291523323875 L 137 475.5291523323875 L 138 475.50951032070554 L 138 475.50951032070554 L 139 475.4896053875728 L 139 475.4896053875728 L 140 475.46943401360994 L 140 475.46943401360994 L 141 475.44899263232844 L 141 475.44899263232844 L 142.00000000000006 475.42827762949986 L 142.00000000000006 475.42827762949986 L 143 475.40728534251707 L 143 475.40728534251707 L 144.00000000000006 475.3860120597463 L 144.00000000000006 475.3860120597463 L 145 475.36445401987123 L 145 475.36445401987123 L 146.00000000000006 475.34260741122773 L 146.00000000000006 475.34260741122773 L 147 475.32046837113 L 147 475.32046837113 L 148 475.29803298518766 L 148 475.29803298518766 L 149 475.2752972866135 L 149 475.2752972866135 L 150 475.2522572555224 L 150 475.2522572555224 L 151 475.22890881822013 L 151 475.22890881822013 L 152 475.20524784648364 L 152 475.20524784648364 L 153 475.1812701568305 L 153 475.1812701568305 L 154 475.15697150977996 L 154 475.15697150977996 L 155 475.1323476091027 L 155 475.1323476091027 L 156 475.10739410106163 L 156 475.10739410106163 L 157 475.08210657364185 L 157 475.08210657364185 L 158 475.056480555771 L 158 475.056480555771 L 159 475.03051151652795 L 159 475.03051151652795 L 160 475.00419486434265 L 160 475.00419486434265 L 161 474.97752594618356 L 161 474.97752594618356 L 162 474.95050004673516 L 162 474.95050004673516 L 163.00000000000006 474.9231123875644 L 163.00000000000006 474.9231123875644 L 164 474.8953581262757 L 164 474.8953581262757 L 165 474.8672323556547 L 165 474.8672323556547 L 166 474.83873010280087 L 166 474.83873010280087 L 167 474.80984632824783 L 167 474.80984632824783 L 168 474.78057592507275 L 168 474.78057592507275 L 169 474.7509137179932 L 169 474.7509137179932 L 170 474.72085446245217 L 170 474.72085446245217 L 171 474.69039284369063 L 171 474.69039284369063 L 172 474.65952347580804 L 172 474.65952347580804 L 173 474.62824090080994 L 173 474.62824090080994 L 174 474.59653958764306 L 174 474.59653958764306 L 175 474.5644139312172 L 175 474.5644139312172 L 176 474.53185825141423 L 176 474.53185825141423 L 177 474.49886679208396 L 177 474.49886679208396 L 178.00000000000003 474.4654337200262 L 178.00000000000003 474.4654337200262 L 179 474.43155312395965 L 179 474.43155312395965 L 180.00000000000003 474.3972190134763 L 180.00000000000003 474.3972190134763 L 181 474.3624253179826 L 181 474.3624253179826 L 182 474.3271658856263 L 182 474.3271658856263 L 183 474.2914344822081 L 183 474.2914344822081 L 184.00000000000003 474.25522479008004 L 184.00000000000003 474.25522479008004 L 185.00000000000003 474.2185304070282 L 185.00000000000003 474.2185304070282 L 186 474.18134484514064 L 186 474.18134484514064 L 187.00000000000003 474.14366152966045 L 187.00000000000003 474.14366152966045 L 188.00000000000003 474.10547379782327 L 188.00000000000003 474.10547379782327 L 189.00000000000003 474.06677489767907 L 189.00000000000003 474.06677489767907 L 190 474.0275579868985 L 190 474.0275579868985 L 191.00000000000003 473.9878161315631 L 191.00000000000003 473.9878161315631 L 192 473.94754230493913 L 192 473.94754230493913 L 193.00000000000003 473.9067293862356 L 193.00000000000003 473.9067293862356 L 194 473.86537015934476 L 194 473.86537015934476 L 195 473.8234573115665 L 195 473.8234573115665 L 196 473.7809834323152 L 196 473.7809834323152 L 197.00000000000003 473.7379410118099 L 197.00000000000003 473.7379410118099 L 198 473.69432243974586 L 198 473.69432243974586 L 199 473.65012000394967 L 199 473.65012000394967 L 200 473.605325889015 L 200 473.605325889015 L 201.00000000000003 473.5599321749213 L 201.00000000000003 473.5599321749213 L 202 473.5139308356331 L 202 473.5139308356331 L 203 473.4673137376813 L 203 473.4673137376813 L 204.00000000000003 473.4200726387247 L 204.00000000000003 473.4200726387247 L 205.00000000000003 473.37219918609287 L 205.00000000000003 473.37219918609287 L 206.00000000000003 473.3236849153094 L 206.00000000000003 473.3236849153094 L 207 473.274521248595 L 207 473.274521248595 L 208.00000000000003 473.2246994933514 L 208.00000000000003 473.2246994933514 L 209.00000000000003 473.17421084062386 L 209.00000000000003 473.17421084062386 L 210.00000000000003 473.1230463635439 L 210.00000000000003 473.1230463635439 L 211 473.071197015751 L 211 473.071197015751 L 212 473.01865362979305 L 212 473.01865362979305 L 213 472.9654069155055 L 213 472.9654069155055 L 214.00000000000003 472.9114474583687 L 214.00000000000003 472.9114474583687 L 215 472.85676571784336 L 215 472.85676571784336 L 216 472.8013520256837 L 216 472.8013520256837 L 217 472.745196584228 L 217 472.745196584228 L 218.00000000000003 472.6882894646663 L 218.00000000000003 472.6882894646663 L 219 472.63062060528495 L 219 472.63062060528495 L 220 472.5721798096875 L 220 472.5721798096875 L 221 472.5129567449918 L 221 472.5129567449918 L 222.00000000000003 472.4529409400034 L 222.00000000000003 472.4529409400034 L 223 472.3921217833637 L 223 472.3921217833637 L 224 472.330488521674 L 224 472.330488521674 L 225.00000000000003 472.2680302575944 L 225.00000000000003 472.2680302575944 L 226.00000000000003 472.2047359479165 L 226.00000000000003 472.2047359479165 L 227.00000000000003 472.14059440161145 L 227.00000000000003 472.14059440161145 L 228 472.0755942778509 L 228 472.0755942778509 L 228.99999999999997 472.0097240840018 L 228.99999999999997 472.0097240840018 L 230 471.94297217359474 L 230 471.94297217359474 L 231.00000000000003 471.8753267442644 L 231.00000000000003 471.8753267442644 L 232 471.806775835663 L 232 471.806775835663 L 233 471.73730732734543 L 233 471.73730732734543 L 234 471.66690893662644 L 234 471.66690893662644 L 235.00000000000003 471.59556821640865 L 235.00000000000003 471.59556821640865 L 236 471.5232725529821 L 236 471.5232725529821 L 237 471.45000916379394 L 237 471.45000916379394 L 238 471.37576509518817 L 238 471.37576509518817 L 239.00000000000003 471.3005272201155 L 239.00000000000003 471.3005272201155 L 240 471.2242822358124 L 240 471.2242822358124 L 241 471.14701666144873 L 241 471.14701666144873 L 242 471.0687168357448 L 242 471.0687168357448 L 243.00000000000003 470.9893689145552 L 243.00000000000003 470.9893689145552 L 244.00000000000003 470.90895886842156 L 244.00000000000003 470.90895886842156 L 245 470.8274724800919 L 245 470.8274724800919 L 246.00000000000003 470.7448953420066 L 246.00000000000003 470.7448953420066 L 247 470.66121285375146 L 247 470.66121285375146 L 248.00000000000003 470.57641021947586 L 248.00000000000003 470.57641021947586 L 249 470.4904724452768 L 249 470.4904724452768 L 250 470.403384336548 L 250 470.403384336548 L 251 470.3151304952931 L 251 470.3151304952931 L 252.00000000000003 470.22569531740334 L 252.00000000000003 470.22569531740334 L 253 470.13506298989853 L 253 470.13506298989853 L 254 470.04321748813106 L 254 470.04321748813106 L 255 469.9501425729529 L 255 469.9501425729529 L 256 469.8558217878441 L 256 469.8558217878441 L 257 469.76023845600304 L 257 469.76023845600304 L 258 469.6633756773982 L 258 469.6633756773982 L 259 469.5652163257797 L 259 469.5652163257797 L 260 469.4657430456515 L 260 469.4657430456515 L 261 469.3649382492024 L 261 469.3649382492024 L 262 469.26278411319686 L 262 469.26278411319686 L 263 469.1592625758232 L 263 469.1592625758233 L 264 469.0543553335006 L 264 469.0543553335006 L 265 468.94804383764233 L 265 468.94804383764233 L 266 468.84030929137646 L 266 468.84030929137646 L 267 468.73113264622253 L 267 468.73113264622253 L 268 468.62049459872327 L 268 468.62049459872327 L 269 468.50837558703176 L 269 468.50837558703176 L 270 468.3947557874529 L 270 468.3947557874529 L 271 468.2796151109378 L 271 468.2796151109378 L 272 468.16293319953263 L 272 468.16293319953263 L 273 468.04468942277845 L 273 468.04468942277845 L 274 467.92486287406405 L 274 467.92486287406405 L 275 467.80343236692903 L 275 467.80343236692903 L 276 467.6803764313183 L 276 467.6803764313183 L 277 467.55567330978556 L 277 467.55567330978556 L 278 467.4293009536467 L 278 467.4293009536467 L 279 467.3012370190811 L 279 467.3012370190811 L 280 467.1714588631813 L 280 467.1714588631813 L 281 467.0399435399492 L 281 467.0399435399492 L 282 466.90666779623945 L 282 466.90666779623945 L 283 466.7716080676476 L 283 466.7716080676476 L 284 466.634740474344 L 284 466.634740474344 L 285 466.4960408168515 L 285 466.4960408168515 L 286 466.3554845717668 L 286 466.3554845717668 L 287 466.2130468874244 L 287 466.2130468874244 L 288 466.0687025795027 L 288 466.0687025795027 L 289 465.9224261265711 L 289 465.9224261265711 L 290 465.7741916655777 L 290 465.7741916655777 L 291 465.62397298727615 L 291 465.62397298727615 L 292 465.47174353159204 L 292 465.4717435315921 L 293 465.3174763829266 L 293 465.3174763829266 L 294 465.16114426539764 L 294 465.16114426539764 L 295 465.0027195380171 L 295 465.0027195380171 L 296 464.84217418980404 L 296 464.84217418980404 L 297 464.67947983483145 L 297 464.67947983483145 L 298 464.5146077072081 L 298 464.5146077072081 L 299 464.3475286559918 L 299 464.3475286559918 L 300 464.17821314003567 L 300 464.17821314003567 L 301 464.0066312227648 L 301 464.0066312227648 L 302 463.83275256688324 L 302 463.83275256688324 L 303 463.65654642901 L 303 463.65654642901 L 304 463.4779816542435 L 304 463.4779816542435 L 305 463.2970266706528 L 305 463.2970266706528 L 306 463.11364948369584 L 306 463.11364948369584 L 307 462.92781767056204 L 307 462.92781767056204 L 308 462.73949837443985 L 308 462.73949837443985 L 309 462.5486582987074 L 309 462.5486582987074 L 310 462.35526370104526 L 310 462.35526370104526 L 311 462.1592803874705 L 311 462.1592803874705 L 312 461.960673706291 L 312 461.960673706291 L 313 461.7594085419783 L 313 461.7594085419783 L 314 461.55544930895945 L 314 461.55544930895945 L 315 461.3487599453247 L 315 461.3487599453247 L 316 461.1393039064514 L 316 461.1393039064514 L 317 460.9270441585429 L 317 460.9270441585429 L 318 460.71194317208045 L 318 460.71194317208045 L 319 460.49396291518747 L 319 460.49396291518747 L 320 460.27306484690536 L 320 460.27306484690536 L 321 460.04920991037903 L 321 460.04920991037903 L 322 459.8223585259514 L 322 459.8223585259514 L 323 459.592470584165 L 323 459.592470584165 L 324 459.35950543867074 L 324 459.3595054386708 L 325 459.1234218990408 L 325 459.1234218990408 L 326 458.884178223486 L 326 458.884178223486 L 327 458.64173211147545 L 327 458.64173211147545 L 328 458.3960406962574 L 328 458.3960406962574 L 329 458.1470605372799 L 329 458.1470605372799 L 330 457.89474761251034 L 330 457.89474761251034 L 331 457.63905731065165 L 331 457.63905731065165 L 332 457.37994442325476 L 332 457.37994442325476 L 333 457.1173631367254 L 333 457.1173631367254 L 334 456.85126702422355 L 334 456.85126702422355 L 335 456.5816090374551 L 335 456.58160903745517 L 336 456.30834149835306 L 336 456.30834149835306 L 337 456.0314160906475 L 337 456.0314160906475 L 338 455.7507838513231 L 338 455.7507838513231 L 339 455.46639516196177 L 339 455.46639516196177 L 340 455.1781997399698 L 340 455.1781997399698 L 341 454.8861466296873 L 341 454.8861466296873 L 342 454.59018419337883 L 342 454.59018419337883 L 343 454.2902601021035 L 343 454.2902601021035 L 344 453.9863213264624 L 344 453.9863213264624 L 345 453.6783141272228 L 345 453.6783141272228 L 346 453.3661840458163 L 346 453.3661840458163 L 347 453.04987589471034 L 347 453.04987589471034 L 348 452.72933374765023 L 348 452.72933374765023 L 349 452.404500929771 L 349 452.404500929771 L 350 452.0753200075769 L 350 452.0753200075769 L 351 451.7417327787863 L 351 451.7417327787863 L 352 451.4036802620412 L 352 451.4036802620412 L 353 451.0611026864786 L 353 451.0611026864786 L 354 450.7139394811628 L 354 450.7139394811628 L 355 450.3621292643754 L 355 450.3621292643754 L 356 450.00560983276296 L 356 450.00560983276296 L 357 449.6443181503383 L 357 449.6443181503383 L 358 449.2781903373355 L 358 449.27819033733556 L 359 448.9071616589155 L 359 448.9071616589155 L 360 448.53116651372 L 360 448.53116651372005 L 361 448.1501384222727 L 361 448.1501384222727 L 362 447.764010015225 L 362 447.764010015225 L 363 447.3727130214447 L 363 447.3727130214447 L 364 446.9761782559449 L 364 446.9761782559449 L 365 446.5743356076512 L 365 446.5743356076512 L 366 446.1671140270059 L 366 446.1671140270059 L 367 445.7544415134053 L 367 445.7544415134053 L 368 445.3362451024696 L 368 445.3362451024696 L 369 444.912450853142 L 369 444.912450853142 L 370 444.4829838346152 L 370 444.4829838346152 L 371 444.04776811308307 L 371 444.04776811308307 L 372 443.6067267383147 L 372 443.6067267383147 L 373 443.1597817300489 L 373 443.15978173004896 L 374 442.70685406420665 L 374 442.70685406420665 L 375 442.24786365891873 L 375 442.24786365891873 L 376 441.78272936036666 L 376 441.78272936036666 L 377 441.3113689284338 L 377 441.31136892843386 L 378 440.8336990221648 L 378 440.8336990221648 L 379 440.3496351850297 L 379 440.3496351850297 L 380 439.8590918299915 L 380 439.8590918299915 L 381 439.3619822243736 L 381 439.3619822243736 L 382 438.85821847452456 L 382 438.85821847452456 L 383 438.34771151027763 L 383 438.3477115102777 L 384 437.83037106920244 L 384 437.8303710692025 L 385 437.30610568064566 L 385 437.30610568064566 L 386 436.774822649558 L 386 436.774822649558 L 387 436.23642804010524 L 387 436.2364280401053 L 388 435.6908266590591 L 388 435.6908266590591 L 389 435.1379220389663 L 389 435.1379220389663 L 390 434.57761642109233 L 390 434.5776164210924 L 391 434.00981073813676 L 391 434.00981073813676 L 392 433.43440459671694 L 392 433.43440459671694 L 393 432.85129625961787 L 393 432.8512962596179 L 394 432.26038262780395 L 394 432.260382627804 L 395 431.66155922219 L 395 431.6615592221901 L 396 431.05472016516865 L 396 431.05472016516865 L 397 430.43975816188976 L 397 430.43975816188976 L 398 429.81656448129013 L 398 429.81656448129013 L 399 429.1850289368685 L 399 429.18502893686855 L 400 428.5450398672038 L 400 428.5450398672038 L 401 427.8964841162121 L 401 427.8964841162121 L 402 427.2392470131398 L 402 427.2392470131398 L 403 426.57321235228846 L 403 426.57321235228846 L 404 425.89826237246893 L 404 425.89826237246893 L 405 425.2142777361797 L 405 425.2142777361797 L 406 424.5211375085072 L 406 424.5211375085072 L 407 423.8187191357431 L 407 423.8187191357431 L 408 423.10689842371585 L 408 423.10689842371585 L 409 422.38554951583194 L 409 422.38554951583194 L 410 421.65454487082326 L 410 421.6545448708233 L 411 420.9137552401966 L 411 420.9137552401967 L 412 420.16304964538136 L 412 420.1630496453814 L 413 419.40229535457115 L 413 419.40229535457115 L 414 418.6313578592557 L 414 418.6313578592557 L 415 417.8501008504385 L 415 417.8501008504385 L 416 417.0583861945359 L 416 417.05838619453596 L 417 416.25607390895425 L 417 416.25607390895425 L 418 415.44302213733897 L 418 415.44302213733897 L 419 414.61908712449366 L 419 414.61908712449366 L 420 413.7841231909624 L 420 413.7841231909624 L 421 412.93798270727257 L 421 412.93798270727257 L 422 412.0805160678322 L 422 412.0805160678322 L 423 411.2115716644787 L 423 411.2115716644787 L 424 410.33099585967284 L 424 410.3309958596729 L 425 409.4386329593343 L 425 409.4386329593343 L 426 408.53432518531343 L 426 408.53432518531343 L 427 407.6179126474946 L 427 407.6179126474947 L 428 406.6892333155263 L 428 406.6892333155263 L 429 405.7481229901722 L 429 405.7481229901722 L 430 404.7944152742798 L 430 404.7944152742798 L 431 403.8279415433593 L 431 403.8279415433593 L 432 402.84853091576963 L 432 402.84853091576963 L 433 401.85601022250455 L 433 401.85601022250455 L 434 400.85020397657513 L 434 400.8502039765752 L 435 399.8309343419818 L 435 399.83093434198184 L 436 398.79802110227126 L 436 398.79802110227126 L 437 397.7512816286726 L 437 397.75128162867264 L 438 396.6905308478068 L 438 396.6905308478068 L 439 395.615581208964 L 439 395.61558120896404 L 440 394.52624265094266 L 440 394.5262426509427 L 441 393.4223225684452 L 441 393.4223225684453 L 442 392.30362577802345 L 442 392.3036257780235 L 443 391.1699544835683 L 443 391.1699544835683 L 444 390.0211082413374 L 444 390.0211082413374 L 445 388.8568839245153 L 445 388.85688392451533 L 446 387.67707568729816 L 446 387.67707568729816 L 447 386.48147492849864 L 447 386.48147492849864 L 448 385.26987025466303 L 448 385.26987025466303 L 449 384.04204744269504 L 449 384.0420474426951 L 450 382.7977894019791 L 450 382.7977894019791 L 451 381.5368761359967 L 451 381.53687613599675 L 452 380.2590847034289 L 452 380.2590847034289 L 453 378.9641891787383 L 453 378.9641891787383 L 454 377.6519606122231 L 454 377.65196061222315 L 455 376.3221669895369 L 455 376.322166989537 L 456 374.9745731906662 L 456 374.9745731906662 L 457 373.60894094835896 L 457 373.60894094835896 L 458 372.22502880599677 L 458 372.2250288059968 L 459 370.82259207490324 L 459 370.82259207490324 L 460 369.40138279108027 L 460 369.40138279108027 L 461 367.96114967136606 L 461 367.9611496713661 L 462 366.5016380690059 L 462 366.50163806900593 L 463 365.022589928628 L 463 365.022589928628 L 464 363.52374374061696 L 464 363.523743740617 L 465 362.0048344948766 L 465 362.0048344948766 L 466 360.46559363397336 L 466 360.4655936339734 L 467 358.9057490056531 L 467 358.90574900565315 L 468 357.3250248147218 L 468 357.32502481472187 L 469 355.72314157428264 L 469 355.72314157428264 L 470 354.09981605631975 L 470 354.0998160563198 L 471 352.4547612416212 L 471 352.4547612416212 L 472 350.787686269031 L 472 350.78768626903104 L 473 349.0982963840223 L 473 349.0982963840223 L 474 347.38629288658194 L 474 347.386292886582 L 475 345.65137307839757 L 475 345.65137307839757 L 476 343.89323020933745 L 476 343.8932302093375 L 477 342.1115534232147 L 477 342.1115534232147 L 478 340.3060277028243 L 478 340.3060277028243 L 479 338.4763338142458 L 479 338.4763338142458 L 480 336.62214825039916 L 480 336.62214825039916 L 481 334.74314317384597 L 481 334.74314317384597 L 482 332.8389863588248 L 482 332.83898635882485 L 483 330.9093411325102 L 483 330.90934113251024 L 484 328.9538663154862 L 484 328.95386631548627 L 485 326.9722161614221 L 485 326.97221616142224 L 486 324.964040295942 L 486 324.9640402959421 L 487 322.9289836546743 L 487 322.92898365467437 L 488 320.866686420474 L 488 320.86668642047414 L 489 318.7767839598029 L 489 318.77678395980297 L 490 316.6589067582595 L 490 316.6589067582595 L 491 314.5126803552447 L 491 314.5126803552448 L 492 312.3377252777547 L 492 312.33772527775477 L 493 310.13365697328544 L 493 310.1336569732855 L 494 307.90008574184094 L 494 307.90008574184105 L 495 305.63661666703035 L 495 305.63661666703035 L 496 303.34284954624275 L 496 303.34284954624286 L 497 301.0183788198884 L 497 301.01837881988854 L 498 298.662793499691 L 498 298.66279349969113 L 499 296.2756770960219 L 499 296.275677096022 L 500 293.8566075442601 L 500 293.85660754426016 L 501 291.40515713016805 L 501 291.40515713016805 L 502 288.92089241426686 L 502 288.920892414267 L 503 286.4033741552012 L 503 286.4033741552013 L 504 283.85215723207614 L 504 283.8521572320762 L 505 281.26679056575654 L 505 281.26679056575665 L 506 278.6468170391113 L 506 278.6468170391114 L 507 275.99177341619145 L 507 275.99177341619156 L 508 273.301190260325 L 508 273.30119026032503 L 509 270.5745918511167 L 509 270.57459185111674 L 510 267.81149610033555 L 510 267.8114961003356 L 511 265.01141446667805 L 511 265.0114144666781 L 512 262.17385186938833 L 512 262.1738518693884 L 513 259.2983066007241 L 513 259.2983066007241 L 514 256.3842702372497 L 514 256.3842702372498 L 515 253.43122754994198 L 515 253.43122754994207 L 516 250.43865641309318 L 516 250.43865641309324 L 517 247.4060277119938 L 517 247.40602771199386 L 518 244.33280524938078 L 518 244.33280524938084 L 519 241.218445650632 L 519 241.21844565063205 L 520 238.06239826769337 L 520 238.06239826769345 L 521 234.8641050817183 L 521 234.86410508171838 L 522 231.6230006044054 L 522 231.6230006044055 L 523 228.33851177801418 L 523 228.33851177801424 L 524 225.01005787404372 L 524 225.0100578740438 L 525 221.63705039055378 L 525 221.63705039055384 L 526 218.21889294811274 L 526 218.2188929481128 L 527 214.75498118435144 L 527 214.75498118435155 L 528 211.24470264710698 L 528 211.24470264710703 L 529 207.68743668613456 L 529 207.68743668613462 L 530 204.08255434337167 L 530 204.08255434337173 L 531 200.42941824173147 L 531 200.42941824173153 L 532 196.72738247240898 L 532 196.72738247240903 L 533 192.9757924806786 L 533 192.97579248067865 L 534 189.17398495016187 L 534 189.17398495016192 L 535 185.32128768554793 L 535 185.321287685548 L 536 181.41701949374198 L 536 181.41701949374203 L 537 177.46049006342503 L 537 177.46049006342508 L 538 173.45099984299924 L 538 173.4509998429994 L 539 169.3878399169019 L 539 169.38783991690207 L 540 165.27029188026108 L 540 165.27029188026125 L 541 161.09762771187638 L 541 161.0976277118765 L 542 156.86910964549634 L 542 156.8691096454965 L 543 152.58399003937603 L 543 152.5839900393762 L 544 148.24151124408564 L 544 148.2415112440858 L 545 143.8409054685519 L 545 143.84090546855202 L 546 139.38139464430463 L 546 139.3813946443048 L 547 134.8621902879077 L 547 134.86219028790782 L 548 130.2824933615468 L 548 130.28249336154693 L 549 125.64149413175329 L 549 125.6414941317534 L 550 120.93837202623428 L 550 120.93837202623439 L 551 116.17229548878873 L 551 116.1722954887889 L 552 111.34242183228065 L 552 111.34242183228076 L 553 106.44789708964271 L 553 106.44789708964282 L 554 101.48785586288881 L 554 101.48785586288892 L 555 96.4614211701018 L 555 96.46142117010191 L 556 91.36770429037608 L 556 91.3677042903762 L 557 86.20580460668236 L 557 86.20580460668248 L 558 80.97480944663147 L 558 80.97480944663158 L 559 75.67379392110348 L 559 75.6737939211036 L 560 70.30182076072049 L 560 70.3018207607206 L 561 64.85794015012698 L 561 64.85794015012709 L 562 59.34118956005494 L 562 59.34118956005506 L 563 53.750593577138204 L 563 53.75059357713832 L 564 48.0851637314517 L 564 48.085163731451814 L 565 42.34389832173929 L 565 42.3438983217394 L 566 36.52578223830477 L 566 36.52578223830494 L 567 30.62978678352988 L 567 30.62978678353005 L 568 24.654869489991597 L 568 24.65486948999171 L 569 18.599973936144067 L 569 18.59997393614418 L 570 12.464029559532605 L 570 12.464029559532719 L 571 6.245951467509542 L 571 6.2459514675097125 L 572 -0.055359754586561394 L 572 -0.055359754586390864 L 573 -6.441018237816309 L 573 -6.441018237816195 L 574 -12.912153026629767 L 574 -12.912153026629653 L 575 -19.46990827849055 L 575 -19.469908278490436 L 576 -26.11544346617518 L 576 -26.115443466175066 L 577 -32.84993358277734 L 577 -32.84993358277717 L 578 -39.674569349459034 L 578 -39.67456934945881 L 579 -46.59055742597991 L 579 -46.590557425979796 L 580 -53.599120624047714 L 580 -53.5991206240476 L 581 -60.70149812352099 L 581 -60.70149812352088 L 582 -67.89894569150954 L 582 -67.89894569150931 L 583 -75.19273590440412 L 583 -75.192735904404 L 584 -82.58415837288169 L 584 -82.58415837288146 L 585 -90.07451996991904 L 585 -90.07451996991881 L 586 -97.66514506186138 L 586 -97.66514506186127 L 587 -105.35737574258292 L 587 -105.35737574258269 L 588 -113.15257207077968 L 588 -113.15257207077957 L 589 -121.05211231044359 L 589 -121.05211231044348 L 590 -129.05739317455016 L 590 -129.05739317454993 L 591 -137.1698300720119 L 591 -137.16983007201156 L 592 -145.39085735793435 L 592 -145.39085735793412 L 593 -153.7219285872261 L 593 -153.72192858722588 L 594 -162.16451677159773 L 594 -162.1645167715975 L 595 -170.72011464000764 L 595 -170.7201146400074 L 596 -179.39023490258683 L 596 -179.3902349025866 L 597 -188.17641051810392 L 597 -188.17641051810358 L 598 -197.08019496500344 L 598 -197.08019496500322 L 599 -206.10316251607833 L 599 -206.1031625160781 L 600 -215.24690851681328 L 600 -215.24690851681305 L 601 -224.51304966745977 L 601 -224.51304966745954 L 602 -233.90322430888102 L 602 -233.90322430888068 L 603 -243.4190927122288 L 603 -243.41909271222846 L 604 -253.06233737249192 L 604 -253.0623373724917 L 605 -262.83466330598037 L 605 -262.83466330598003 L 606 -272.7377983517864 L 606 -272.7377983517862 L 607 -282.77349347728205 L 607 -282.7734934772818 L 608 -292.94352308770897 L 608 -292.94352308770874 L 609 -303.2496853399074 L 609 -303.24968533990705 L 610 -313.69380246024934 L 610 -313.693802460249 L 611 -324.27772106682323 L 611 -324.277721066823 L 612 -335.00331249593614 L 612 -335.0033124959358 L 613 -345.8724731329801 L 613 -345.87247313297985 L 614 -356.8871247477347 L 614 -356.88712474773445 L 615 -368.04921483415 L 615 -368.0492148341498 L 616 -379.36071695468627 L 616 -379.3607169546859 L 617 -390.8236310892536 L 617 -390.82363108925324 L 618 -402.4399839888313 L 618 -402.43998398883093 L 619 -414.21182953381356 L 619 -414.21182953381333 L 620 -426.14124909715747 L 620 -426.14124909715724 L 621 -438.23035191238625 L 621 -438.2303519123859 L 622 -450.48127544652414 L 622 -450.4812754465238 L 623 -462.8961857780198 L 623 -462.89618577801957 L 624 -475.47727797972857 L 624 -475.47727797972834 L 625 -488.2267765070235 L 625 -488.22677650702326 L 626 -501.1469355910981 L 626 -501.1469355910979 L 627 -514.2400396375382 L 627 -514.240039637538 L 628 -527.5084036302228 L 628 -527.5084036302226 L 629 -540.954373540639 L 629 -540.9543735406387 L 630 -554.5803267426678 L 630 -554.5803267426676 L 631 -568.3886724329299 L 631 -568.3886724329296 L 632 -582.3818520567523 L 632 -582.3818520567521 L 633 -596.5623397398371 L 633 -596.5623397398368 L 634 -610.9326427257139 L 634 -610.9326427257134 L 635 -625.4953018190421 L 635 -625.4953018190419 L 636 -640.25289183485 L 636 -640.2528918348497 L 637 -655.2080220537824 L 637 -655.208022053782 L 638 -670.3633366834518 L 638 -670.3633366834516 L 639 -685.7215153259559 L 639 -685.7215153259557 L 640 -701.2852734516567 L 640 -701.2852734516565 L 641 -717.0573628793026 L 641 -717.0573628793023 L 642 -733.0405722625709 L 642 -733.0405722625702 L 643 -749.2377275831356 L 643 -749.2377275831349 L 644 -765.6516926503222 L 644 -765.6516926503217 L 645 -782.2853696074591 L 645 -782.2853696074584 L 646 -799.1416994449986 L 646 -799.1416994449982 L 647 -816.2236625205184 L 647 -816.2236625205179 L 648 -833.5342790856738 L 648 -833.5342790856733 L 649 -851.0766098202063 L 649 -851.0766098202058 L 650 -868.8537563730985 L 650 -868.853756373098 L 651 -886.86886191098 L 651 -886.8688619109793 L 652 -905.1251116738646 L 652 -905.1251116738639 L 653 -923.625733538334 L 653 -923.6257335383335 L 654 -942.3739985882504 L 654 -942.37399858825 L 655 -961.3732216931234 L 655 -961.3732216931229 L 656 -980.6267620942039 L 656 -980.6267620942034 L 657 -1000.1380239984336 L 657 -1000.1380239984331 L 658 -1019.9104571803344" stroke-opacity="0.6980392156862745" stroke-linecap="round" stroke-linejoin="round" stroke-miterlimit="10" stroke-width="2.5"/><text fill="rgb(0,100,0)" stroke="none" font-family="geogebra-sans-serif, sans-serif" font-size="16px" font-style="normal" font-weight="normal" text-decoration="normal" x="86" y="457" text-anchor="start" dominant-baseline="alphabetic" fill-opacity="1">exp</text><text fill="none" stroke="rgb(255,255,255)" font-family="geogebra-sans-serif, sans-serif" font-size="16px" font-style="normal" font-weight="normal" text-decoration="normal" x="86" y="457" text-anchor="start" dominant-baseline="alphabetic" stroke-opacity="1" stroke-linejoin="bevel" stroke-miterlimit="10" stroke-width="3">exp</text><text fill="rgb(0,100,0)" stroke="none" font-family="geogebra-sans-serif, sans-serif" font-size="16px" font-style="normal" font-weight="normal" text-decoration="normal" x="86" y="457" text-anchor="start" dominant-baseline="alphabetic" fill-opacity="1">exp</text><path fill="none" stroke="rgb(204,0,0)" paint-order="fill stroke markers" d=" M 0 476.99654353125004 L 5.140625 476.99654353125004 L 10.28125 476.99654353125004 L 15.421875 476.99654353125004 L 20.5625 476.99654353125004 L 25.703125 476.99654353125004 L 30.843750000000057 476.99654353125004 L 35.984375 476.99654353125004 L 41.125 476.99654353125004 L 46.265625 476.99654353125004 L 51.40625 476.99654353125004 L 56.546875 476.99654353125004 L 61.6875 476.99654353125004 L 66.828125 476.99654353125004 L 71.96875000000006 476.99654353125004 L 77.109375 476.99654353125004 L 82.25 476.99654353125004 L 87.390625 476.99654353125004 L 92.53125 476.99654353125004 L 97.671875 476.99654353125004 L 102.8125 476.99654353125004 L 107.953125 476.99654353125004 L 113.09375000000006 476.99654353125004 L 118.234375 476.99654353125004 L 123.375 476.99654353125004 L 128.515625 476.99654353125004 L 133.65625 476.99654353125004 L 138.796875 476.99654353125004 L 143.9375 476.99654353125004 L 149.078125 476.99654353125004 L 154.21875 476.99654353125004 L 159.359375 476.99654353125004 L 164.5 476.99654353125004 M 164.5 476.99654353125004 L 169.640625 476.99654353125004 M 169.640625 476.99654353125004 L 169.84534571669354 476.99654353125004" stroke-opacity="0.6980392156862745" stroke-linejoin="round" stroke-miterlimit="10" stroke-width="6.5" stroke-dasharray="14.5,4,6.5,4"/><text fill="rgb(204,0,0)" stroke="none" font-family="geogebra-sans-serif, sans-serif" font-size="16px" font-style="normal" font-weight="normal" text-decoration="normal" x="18" y="501" text-anchor="start" dominant-baseline="alphabetic" fill-opacity="1">asymptote y=0 en -∞</text><text fill="none" stroke="rgb(255,255,255)" font-family="geogebra-sans-serif, sans-serif" font-size="16px" font-style="normal" font-weight="normal" text-decoration="normal" x="18" y="501" text-anchor="start" dominant-baseline="alphabetic" stroke-opacity="1" stroke-linejoin="bevel" stroke-miterlimit="10" stroke-width="3">asymptote y=0 en -∞</text><text fill="rgb(204,0,0)" stroke="none" font-family="geogebra-sans-serif, sans-serif" font-size="16px" font-style="normal" font-weight="normal" text-decoration="normal" x="18" y="501" text-anchor="start" dominant-baseline="alphabetic" fill-opacity="1">asymptote y=0 en -∞</text><path fill="none" stroke="rgb(0,0,0)" paint-order="fill stroke markers" d=" M 508.27081365625037 272.5663662549068 L 508.27081365625037 476.99654353125004" stroke-opacity="0.6980392156862745" stroke-linecap="round" stroke-linejoin="round" stroke-miterlimit="10" stroke-width="2.5"/><path fill="none" stroke="rgb(0,0,0)" paint-order="fill stroke markers" d=" M 433.06515428125033 272.5663662549068 L 508.27081365625037 272.5663662549068" stroke-opacity="0.6980392156862745" stroke-linecap="round" stroke-linejoin="round" stroke-miterlimit="10" stroke-width="2.5"/><path fill="rgb(68,68,68)" stroke="none" paint-order="stroke fill markers" d=" M 437.06515428125033 272.5663662549068 C 437.06515428125033 274.77550525423 435.2742932805735 276.5663662549068 433.06515428125033 276.5663662549068 C 430.85601528192717 276.5663662549068 429.06515428125033 274.77550525423 429.06515428125033 272.5663662549068 C 429.06515428125033 270.35722725558367 430.85601528192717 268.5663662549068 433.06515428125033 268.5663662549068 C 435.2742932805735 268.5663662549068 437.06515428125033 270.35722725558367 437.06515428125033 272.5663662549068 Z" fill-opacity="1"/><path fill="none" stroke="rgb(0,0,0)" paint-order="fill stroke markers" d=" M 437.06515428125033 272.5663662549068 C 437.06515428125033 274.77550525423 435.2742932805735 276.5663662549068 433.06515428125033 276.5663662549068 C 430.85601528192717 276.5663662549068 429.06515428125033 274.77550525423 429.06515428125033 272.5663662549068 C 429.06515428125033 270.35722725558367 430.85601528192717 268.5663662549068 433.06515428125033 268.5663662549068 C 435.2742932805735 268.5663662549068 437.06515428125033 270.35722725558367 437.06515428125033 272.5663662549068 Z" stroke-opacity="1" stroke-linecap="round" stroke-linejoin="round" stroke-miterlimit="10"/><text fill="rgb(68,68,68)" stroke="none" font-family="geogebra-sans-serif, sans-serif" font-size="16px" font-style="normal" font-weight="normal" text-decoration="normal" x="416" y="278" text-anchor="start" dominant-baseline="alphabetic" fill-opacity="1">e</text><text fill="none" stroke="rgb(255,255,255)" font-family="geogebra-sans-serif, sans-serif" font-size="16px" font-style="normal" font-weight="normal" text-decoration="normal" x="416" y="278" text-anchor="start" dominant-baseline="alphabetic" stroke-opacity="1" stroke-linejoin="bevel" stroke-miterlimit="10" stroke-width="3">e</text><text fill="rgb(68,68,68)" stroke="none" font-family="geogebra-sans-serif, sans-serif" font-size="16px" font-style="normal" font-weight="normal" text-decoration="normal" x="416" y="278" text-anchor="start" dominant-baseline="alphabetic" fill-opacity="1">e</text><path fill="rgb(68,68,68)" stroke="none" paint-order="stroke fill markers" d=" M 437.06515428125033 401.79088415625 C 437.06515428125033 404.00002315557316 435.2742932805735 405.79088415625 433.06515428125033 405.79088415625 C 430.85601528192717 405.79088415625 429.06515428125033 404.00002315557316 429.06515428125033 401.79088415625 C 429.06515428125033 399.58174515692684 430.85601528192717 397.79088415625 433.06515428125033 397.79088415625 C 435.2742932805735 397.79088415625 437.06515428125033 399.58174515692684 437.06515428125033 401.79088415625 Z" fill-opacity="1"/><path fill="none" stroke="rgb(0,0,0)" paint-order="fill stroke markers" d=" M 437.06515428125033 401.79088415625 C 437.06515428125033 404.00002315557316 435.2742932805735 405.79088415625 433.06515428125033 405.79088415625 C 430.85601528192717 405.79088415625 429.06515428125033 404.00002315557316 429.06515428125033 401.79088415625 C 429.06515428125033 399.58174515692684 430.85601528192717 397.79088415625 433.06515428125033 397.79088415625 C 435.2742932805735 397.79088415625 437.06515428125033 399.58174515692684 437.06515428125033 401.79088415625 Z" stroke-opacity="1" stroke-linecap="round" stroke-linejoin="round" stroke-miterlimit="10"/><text fill="rgb(204,0,0)" stroke="none" font-family="geogebra-sans-serif, sans-serif" font-size="16px" font-style="normal" font-weight="normal" text-decoration="normal" x="326" y="46" text-anchor="start" dominant-baseline="alphabetic" fill-opacity="1">tend vers +∞ en +∞(sans asymptote)</text></g></g></svg>