<svg version="1.1" xmlns="http://www.w3.org/2000/svg" xmlns:xlink="http://www.w3.org/1999/xlink" width="496" height="515"><defs><clipPath id="oWZyfAmwGgWP"><path fill="none" stroke="none" d=" M 0 0 L 496 0 L 496 515 L 0 515 L 0 0 Z"/></clipPath></defs><g transform="scale(1,1)" clip-path="url(#oWZyfAmwGgWP)"><g><rect fill="rgb(255,255,255)" stroke="none" x="0" y="0" width="497" height="515" fill-opacity="1"/><path fill="none" stroke="rgb(37,37,37)" paint-order="fill stroke markers" d=" M 131.5 2.5 L 131.5 515.5" stroke-opacity="1" stroke-miterlimit="10"/><path fill="none" stroke="rgb(37,37,37)" paint-order="fill stroke markers" d=" M 131.5 1.5 L 127.5 5.5" stroke-opacity="1" stroke-miterlimit="10"/><path fill="none" stroke="rgb(37,37,37)" paint-order="fill stroke markers" d=" M 131.5 1.5 L 135.5 5.5" stroke-opacity="1" stroke-miterlimit="10"/><path fill="none" stroke="rgb(37,37,37)" paint-order="fill stroke markers" d=" M 0.5 274.5 L 494.5 274.5" stroke-opacity="1" stroke-miterlimit="10"/><path fill="none" stroke="rgb(37,37,37)" paint-order="fill stroke markers" d=" M 495.5 274.5 L 491.5 270.5" stroke-opacity="1" stroke-miterlimit="10"/><path fill="none" stroke="rgb(37,37,37)" paint-order="fill stroke markers" d=" M 495.5 274.5 L 491.5 278.5" stroke-opacity="1" stroke-miterlimit="10"/><text fill="rgb(37,37,37)" stroke="none" font-family="geogebra-sans-serif, sans-serif" font-size="12px" font-style="normal" font-weight="normal" text-decoration="normal" x="26" y="290" text-anchor="start" dominant-baseline="alphabetic" fill-opacity="1">–2</text><text fill="none" stroke="rgb(255,255,255)" font-family="geogebra-sans-serif, sans-serif" font-size="12px" font-style="normal" font-weight="normal" text-decoration="normal" x="26" y="290" text-anchor="start" dominant-baseline="alphabetic" stroke-opacity="1" stroke-linejoin="bevel" stroke-miterlimit="10" stroke-width="3">–2</text><text fill="rgb(37,37,37)" stroke="none" font-family="geogebra-sans-serif, sans-serif" font-size="12px" font-style="normal" font-weight="normal" text-decoration="normal" x="26" y="290" text-anchor="start" dominant-baseline="alphabetic" fill-opacity="1">–2</text><path fill="none" stroke="rgb(37,37,37)" paint-order="fill stroke markers" d=" M 31.5 274.5 L 31.5 277.5" stroke-opacity="1" stroke-miterlimit="10"/><text fill="rgb(37,37,37)" stroke="none" font-family="geogebra-sans-serif, sans-serif" font-size="12px" font-style="normal" font-weight="normal" text-decoration="normal" x="76" y="290" text-anchor="start" dominant-baseline="alphabetic" fill-opacity="1">–1</text><text fill="none" stroke="rgb(255,255,255)" font-family="geogebra-sans-serif, sans-serif" font-size="12px" font-style="normal" font-weight="normal" text-decoration="normal" x="76" y="290" text-anchor="start" dominant-baseline="alphabetic" stroke-opacity="1" stroke-linejoin="bevel" stroke-miterlimit="10" stroke-width="3">–1</text><text fill="rgb(37,37,37)" stroke="none" font-family="geogebra-sans-serif, sans-serif" font-size="12px" font-style="normal" font-weight="normal" text-decoration="normal" x="76" y="290" text-anchor="start" dominant-baseline="alphabetic" fill-opacity="1">–1</text><path fill="none" stroke="rgb(37,37,37)" paint-order="fill stroke markers" d=" M 81.5 274.5 L 81.5 277.5" stroke-opacity="1" stroke-miterlimit="10"/><text fill="rgb(37,37,37)" stroke="none" font-family="geogebra-sans-serif, sans-serif" font-size="12px" font-style="normal" font-weight="normal" text-decoration="normal" x="179" y="290" text-anchor="start" dominant-baseline="alphabetic" fill-opacity="1">1</text><text fill="none" stroke="rgb(255,255,255)" font-family="geogebra-sans-serif, sans-serif" font-size="12px" font-style="normal" font-weight="normal" text-decoration="normal" x="179" y="290" text-anchor="start" dominant-baseline="alphabetic" stroke-opacity="1" stroke-linejoin="bevel" stroke-miterlimit="10" stroke-width="3">1</text><text fill="rgb(37,37,37)" stroke="none" font-family="geogebra-sans-serif, sans-serif" font-size="12px" font-style="normal" font-weight="normal" text-decoration="normal" x="179" y="290" text-anchor="start" dominant-baseline="alphabetic" fill-opacity="1">1</text><path fill="none" stroke="rgb(37,37,37)" paint-order="fill stroke markers" d=" M 181.5 274.5 L 181.5 277.5" stroke-opacity="1" stroke-miterlimit="10"/><text fill="rgb(37,37,37)" stroke="none" font-family="geogebra-sans-serif, sans-serif" font-size="12px" font-style="normal" font-weight="normal" text-decoration="normal" x="229" y="290" text-anchor="start" dominant-baseline="alphabetic" fill-opacity="1">2</text><text fill="none" stroke="rgb(255,255,255)" font-family="geogebra-sans-serif, sans-serif" font-size="12px" font-style="normal" font-weight="normal" text-decoration="normal" x="229" y="290" text-anchor="start" dominant-baseline="alphabetic" stroke-opacity="1" stroke-linejoin="bevel" stroke-miterlimit="10" stroke-width="3">2</text><text fill="rgb(37,37,37)" stroke="none" font-family="geogebra-sans-serif, sans-serif" font-size="12px" font-style="normal" font-weight="normal" text-decoration="normal" x="229" y="290" text-anchor="start" dominant-baseline="alphabetic" fill-opacity="1">2</text><path fill="none" stroke="rgb(37,37,37)" paint-order="fill stroke markers" d=" M 231.5 274.5 L 231.5 277.5" stroke-opacity="1" stroke-miterlimit="10"/><text fill="rgb(37,37,37)" stroke="none" font-family="geogebra-sans-serif, sans-serif" font-size="12px" font-style="normal" font-weight="normal" text-decoration="normal" x="279" y="290" text-anchor="start" dominant-baseline="alphabetic" fill-opacity="1">3</text><text fill="none" stroke="rgb(255,255,255)" font-family="geogebra-sans-serif, sans-serif" font-size="12px" font-style="normal" font-weight="normal" text-decoration="normal" x="279" y="290" text-anchor="start" dominant-baseline="alphabetic" stroke-opacity="1" stroke-linejoin="bevel" stroke-miterlimit="10" stroke-width="3">3</text><text fill="rgb(37,37,37)" stroke="none" font-family="geogebra-sans-serif, sans-serif" font-size="12px" font-style="normal" font-weight="normal" text-decoration="normal" x="279" y="290" text-anchor="start" dominant-baseline="alphabetic" fill-opacity="1">3</text><path fill="none" stroke="rgb(37,37,37)" paint-order="fill stroke markers" d=" M 281.5 274.5 L 281.5 277.5" stroke-opacity="1" stroke-miterlimit="10"/><text fill="rgb(37,37,37)" stroke="none" font-family="geogebra-sans-serif, sans-serif" font-size="12px" font-style="normal" font-weight="normal" text-decoration="normal" x="329" y="290" text-anchor="start" dominant-baseline="alphabetic" fill-opacity="1">4</text><text fill="none" stroke="rgb(255,255,255)" font-family="geogebra-sans-serif, sans-serif" font-size="12px" font-style="normal" font-weight="normal" text-decoration="normal" x="329" y="290" text-anchor="start" dominant-baseline="alphabetic" stroke-opacity="1" stroke-linejoin="bevel" stroke-miterlimit="10" stroke-width="3">4</text><text fill="rgb(37,37,37)" stroke="none" font-family="geogebra-sans-serif, sans-serif" font-size="12px" font-style="normal" font-weight="normal" text-decoration="normal" x="329" y="290" text-anchor="start" dominant-baseline="alphabetic" fill-opacity="1">4</text><path fill="none" stroke="rgb(37,37,37)" paint-order="fill stroke markers" d=" M 331.5 274.5 L 331.5 277.5" stroke-opacity="1" stroke-miterlimit="10"/><text fill="rgb(37,37,37)" stroke="none" font-family="geogebra-sans-serif, sans-serif" font-size="12px" font-style="normal" font-weight="normal" text-decoration="normal" x="379" y="290" text-anchor="start" dominant-baseline="alphabetic" fill-opacity="1">5</text><text fill="none" stroke="rgb(255,255,255)" font-family="geogebra-sans-serif, sans-serif" font-size="12px" font-style="normal" font-weight="normal" text-decoration="normal" x="379" y="290" text-anchor="start" dominant-baseline="alphabetic" stroke-opacity="1" stroke-linejoin="bevel" stroke-miterlimit="10" stroke-width="3">5</text><text fill="rgb(37,37,37)" stroke="none" font-family="geogebra-sans-serif, sans-serif" font-size="12px" font-style="normal" font-weight="normal" text-decoration="normal" x="379" y="290" text-anchor="start" dominant-baseline="alphabetic" fill-opacity="1">5</text><path fill="none" stroke="rgb(37,37,37)" paint-order="fill stroke markers" d=" M 381.5 274.5 L 381.5 277.5" stroke-opacity="1" stroke-miterlimit="10"/><text fill="rgb(37,37,37)" stroke="none" font-family="geogebra-sans-serif, sans-serif" font-size="12px" font-style="normal" font-weight="normal" text-decoration="normal" x="429" y="290" text-anchor="start" dominant-baseline="alphabetic" fill-opacity="1">6</text><text fill="none" stroke="rgb(255,255,255)" font-family="geogebra-sans-serif, sans-serif" font-size="12px" font-style="normal" font-weight="normal" text-decoration="normal" x="429" y="290" text-anchor="start" dominant-baseline="alphabetic" stroke-opacity="1" stroke-linejoin="bevel" stroke-miterlimit="10" stroke-width="3">6</text><text fill="rgb(37,37,37)" stroke="none" font-family="geogebra-sans-serif, sans-serif" font-size="12px" font-style="normal" font-weight="normal" text-decoration="normal" x="429" y="290" text-anchor="start" dominant-baseline="alphabetic" fill-opacity="1">6</text><path fill="none" stroke="rgb(37,37,37)" paint-order="fill stroke markers" d=" M 431.5 274.5 L 431.5 277.5" stroke-opacity="1" stroke-miterlimit="10"/><text fill="rgb(37,37,37)" stroke="none" font-family="geogebra-sans-serif, sans-serif" font-size="12px" font-style="normal" font-weight="normal" text-decoration="normal" x="479" y="290" text-anchor="start" dominant-baseline="alphabetic" fill-opacity="1">7</text><text fill="none" stroke="rgb(255,255,255)" font-family="geogebra-sans-serif, sans-serif" font-size="12px" font-style="normal" font-weight="normal" text-decoration="normal" x="479" y="290" text-anchor="start" dominant-baseline="alphabetic" stroke-opacity="1" stroke-linejoin="bevel" stroke-miterlimit="10" stroke-width="3">7</text><text fill="rgb(37,37,37)" stroke="none" font-family="geogebra-sans-serif, sans-serif" font-size="12px" font-style="normal" font-weight="normal" text-decoration="normal" x="479" y="290" text-anchor="start" dominant-baseline="alphabetic" fill-opacity="1">7</text><path fill="none" stroke="rgb(37,37,37)" paint-order="fill stroke markers" d=" M 481.5 274.5 L 481.5 277.5" stroke-opacity="1" stroke-miterlimit="10"/><path fill="none" stroke="rgb(37,37,37)" paint-order="fill stroke markers" d=" M 128.5 474.5 L 131.5 474.5" stroke-opacity="1" stroke-miterlimit="10"/><path fill="none" stroke="rgb(37,37,37)" paint-order="fill stroke markers" d=" M 128.5 424.5 L 131.5 424.5" stroke-opacity="1" stroke-miterlimit="10"/><path fill="none" stroke="rgb(37,37,37)" paint-order="fill stroke markers" d=" M 128.5 374.5 L 131.5 374.5" stroke-opacity="1" stroke-miterlimit="10"/><path fill="none" stroke="rgb(37,37,37)" paint-order="fill stroke markers" d=" M 128.5 324.5 L 131.5 324.5" stroke-opacity="1" stroke-miterlimit="10"/><path fill="none" stroke="rgb(37,37,37)" paint-order="fill stroke markers" d=" M 128.5 224.5 L 131.5 224.5" stroke-opacity="1" stroke-miterlimit="10"/><path fill="none" stroke="rgb(37,37,37)" paint-order="fill stroke markers" d=" M 128.5 174.5 L 131.5 174.5" stroke-opacity="1" stroke-miterlimit="10"/><path fill="none" stroke="rgb(37,37,37)" paint-order="fill stroke markers" d=" M 128.5 124.5 L 131.5 124.5" stroke-opacity="1" stroke-miterlimit="10"/><path fill="none" stroke="rgb(37,37,37)" paint-order="fill stroke markers" d=" M 128.5 74.5 L 131.5 74.5" stroke-opacity="1" stroke-miterlimit="10"/><path fill="none" stroke="rgb(37,37,37)" paint-order="fill stroke markers" d=" M 128.5 24.5 L 131.5 24.5" stroke-opacity="1" stroke-miterlimit="10"/><text fill="rgb(37,37,37)" stroke="none" font-family="geogebra-sans-serif, sans-serif" font-size="12px" font-style="normal" font-weight="normal" text-decoration="normal" x="110" y="479" text-anchor="start" dominant-baseline="alphabetic" fill-opacity="1">–4</text><text fill="none" stroke="rgb(255,255,255)" font-family="geogebra-sans-serif, sans-serif" font-size="12px" font-style="normal" font-weight="normal" text-decoration="normal" x="110" y="479" text-anchor="start" dominant-baseline="alphabetic" stroke-opacity="1" stroke-linejoin="bevel" stroke-miterlimit="10" stroke-width="3">–4</text><text fill="rgb(37,37,37)" stroke="none" font-family="geogebra-sans-serif, sans-serif" font-size="12px" font-style="normal" font-weight="normal" text-decoration="normal" x="110" y="479" text-anchor="start" dominant-baseline="alphabetic" fill-opacity="1">–4</text><text fill="rgb(37,37,37)" stroke="none" font-family="geogebra-sans-serif, sans-serif" font-size="12px" font-style="normal" font-weight="normal" text-decoration="normal" x="110" y="429" text-anchor="start" dominant-baseline="alphabetic" fill-opacity="1">–3</text><text fill="none" stroke="rgb(255,255,255)" font-family="geogebra-sans-serif, sans-serif" font-size="12px" font-style="normal" font-weight="normal" text-decoration="normal" x="110" y="429" text-anchor="start" dominant-baseline="alphabetic" stroke-opacity="1" stroke-linejoin="bevel" stroke-miterlimit="10" stroke-width="3">–3</text><text fill="rgb(37,37,37)" stroke="none" font-family="geogebra-sans-serif, sans-serif" font-size="12px" font-style="normal" font-weight="normal" text-decoration="normal" x="110" y="429" text-anchor="start" dominant-baseline="alphabetic" fill-opacity="1">–3</text><text fill="rgb(37,37,37)" stroke="none" font-family="geogebra-sans-serif, sans-serif" font-size="12px" font-style="normal" font-weight="normal" text-decoration="normal" x="110" y="379" text-anchor="start" dominant-baseline="alphabetic" fill-opacity="1">–2</text><text fill="none" stroke="rgb(255,255,255)" font-family="geogebra-sans-serif, sans-serif" font-size="12px" font-style="normal" font-weight="normal" text-decoration="normal" x="110" y="379" text-anchor="start" dominant-baseline="alphabetic" stroke-opacity="1" stroke-linejoin="bevel" stroke-miterlimit="10" stroke-width="3">–2</text><text fill="rgb(37,37,37)" stroke="none" font-family="geogebra-sans-serif, sans-serif" font-size="12px" font-style="normal" font-weight="normal" text-decoration="normal" x="110" y="379" text-anchor="start" dominant-baseline="alphabetic" fill-opacity="1">–2</text><text fill="rgb(37,37,37)" stroke="none" font-family="geogebra-sans-serif, sans-serif" font-size="12px" font-style="normal" font-weight="normal" text-decoration="normal" x="110" y="329" text-anchor="start" dominant-baseline="alphabetic" fill-opacity="1">–1</text><text fill="none" stroke="rgb(255,255,255)" font-family="geogebra-sans-serif, sans-serif" font-size="12px" font-style="normal" font-weight="normal" text-decoration="normal" x="110" y="329" text-anchor="start" dominant-baseline="alphabetic" stroke-opacity="1" stroke-linejoin="bevel" stroke-miterlimit="10" stroke-width="3">–1</text><text fill="rgb(37,37,37)" stroke="none" font-family="geogebra-sans-serif, sans-serif" font-size="12px" font-style="normal" font-weight="normal" text-decoration="normal" x="110" y="329" text-anchor="start" dominant-baseline="alphabetic" fill-opacity="1">–1</text><text fill="rgb(37,37,37)" stroke="none" font-family="geogebra-sans-serif, sans-serif" font-size="12px" font-style="normal" font-weight="normal" text-decoration="normal" x="116" y="229" text-anchor="start" dominant-baseline="alphabetic" fill-opacity="1">1</text><text fill="none" stroke="rgb(255,255,255)" font-family="geogebra-sans-serif, sans-serif" font-size="12px" font-style="normal" font-weight="normal" text-decoration="normal" x="116" y="229" text-anchor="start" dominant-baseline="alphabetic" stroke-opacity="1" stroke-linejoin="bevel" stroke-miterlimit="10" stroke-width="3">1</text><text fill="rgb(37,37,37)" stroke="none" font-family="geogebra-sans-serif, sans-serif" font-size="12px" font-style="normal" font-weight="normal" text-decoration="normal" x="116" y="229" text-anchor="start" dominant-baseline="alphabetic" fill-opacity="1">1</text><text fill="rgb(37,37,37)" stroke="none" font-family="geogebra-sans-serif, sans-serif" font-size="12px" font-style="normal" font-weight="normal" text-decoration="normal" x="116" y="179" text-anchor="start" dominant-baseline="alphabetic" fill-opacity="1">2</text><text fill="none" stroke="rgb(255,255,255)" font-family="geogebra-sans-serif, sans-serif" font-size="12px" font-style="normal" font-weight="normal" text-decoration="normal" x="116" y="179" text-anchor="start" dominant-baseline="alphabetic" stroke-opacity="1" stroke-linejoin="bevel" stroke-miterlimit="10" stroke-width="3">2</text><text fill="rgb(37,37,37)" stroke="none" font-family="geogebra-sans-serif, sans-serif" font-size="12px" font-style="normal" font-weight="normal" text-decoration="normal" x="116" y="179" text-anchor="start" dominant-baseline="alphabetic" fill-opacity="1">2</text><text fill="rgb(37,37,37)" stroke="none" font-family="geogebra-sans-serif, sans-serif" font-size="12px" font-style="normal" font-weight="normal" text-decoration="normal" x="116" y="129" text-anchor="start" dominant-baseline="alphabetic" fill-opacity="1">3</text><text fill="none" stroke="rgb(255,255,255)" font-family="geogebra-sans-serif, sans-serif" font-size="12px" font-style="normal" font-weight="normal" text-decoration="normal" x="116" y="129" text-anchor="start" dominant-baseline="alphabetic" stroke-opacity="1" stroke-linejoin="bevel" stroke-miterlimit="10" stroke-width="3">3</text><text fill="rgb(37,37,37)" stroke="none" font-family="geogebra-sans-serif, sans-serif" font-size="12px" font-style="normal" font-weight="normal" text-decoration="normal" x="116" y="129" text-anchor="start" dominant-baseline="alphabetic" fill-opacity="1">3</text><text fill="rgb(37,37,37)" stroke="none" font-family="geogebra-sans-serif, sans-serif" font-size="12px" font-style="normal" font-weight="normal" text-decoration="normal" x="116" y="79" text-anchor="start" dominant-baseline="alphabetic" fill-opacity="1">4</text><text fill="none" stroke="rgb(255,255,255)" font-family="geogebra-sans-serif, sans-serif" font-size="12px" font-style="normal" font-weight="normal" text-decoration="normal" x="116" y="79" text-anchor="start" dominant-baseline="alphabetic" stroke-opacity="1" stroke-linejoin="bevel" stroke-miterlimit="10" stroke-width="3">4</text><text fill="rgb(37,37,37)" stroke="none" font-family="geogebra-sans-serif, sans-serif" font-size="12px" font-style="normal" font-weight="normal" text-decoration="normal" x="116" y="79" text-anchor="start" dominant-baseline="alphabetic" fill-opacity="1">4</text><text fill="rgb(37,37,37)" stroke="none" font-family="geogebra-sans-serif, sans-serif" font-size="12px" font-style="normal" font-weight="normal" text-decoration="normal" x="116" y="29" text-anchor="start" dominant-baseline="alphabetic" fill-opacity="1">5</text><text fill="none" stroke="rgb(255,255,255)" font-family="geogebra-sans-serif, sans-serif" font-size="12px" font-style="normal" font-weight="normal" text-decoration="normal" x="116" y="29" text-anchor="start" dominant-baseline="alphabetic" stroke-opacity="1" stroke-linejoin="bevel" stroke-miterlimit="10" stroke-width="3">5</text><text fill="rgb(37,37,37)" stroke="none" font-family="geogebra-sans-serif, sans-serif" font-size="12px" font-style="normal" font-weight="normal" text-decoration="normal" x="116" y="29" text-anchor="start" dominant-baseline="alphabetic" fill-opacity="1">5</text><text fill="rgb(37,37,37)" stroke="none" font-family="geogebra-sans-serif, sans-serif" font-size="12px" font-style="normal" font-weight="normal" text-decoration="normal" x="116" y="290" text-anchor="start" dominant-baseline="alphabetic" fill-opacity="1">0</text><text fill="none" stroke="rgb(255,255,255)" font-family="geogebra-sans-serif, sans-serif" font-size="12px" font-style="normal" font-weight="normal" text-decoration="normal" x="116" y="290" text-anchor="start" dominant-baseline="alphabetic" stroke-opacity="1" stroke-linejoin="bevel" stroke-miterlimit="10" stroke-width="3">0</text><text fill="rgb(37,37,37)" stroke="none" font-family="geogebra-sans-serif, sans-serif" font-size="12px" font-style="normal" font-weight="normal" text-decoration="normal" x="116" y="290" text-anchor="start" dominant-baseline="alphabetic" fill-opacity="1">0</text><path fill="none" stroke="rgb(0,100,0)" paint-order="fill stroke markers" d=" M 0.9999999999999716 270.7863210892833 L 0.9999999999999716 270.85985685862823 L 0.9999999999999716 270.7863210892833 L 2 270.71129979885774 L 2 270.71129979885774 L 2.9999999999999716 270.634762977835 L 2.9999999999999716 270.634762977835 L 4 270.55668001046627 L 4 270.55668001046627 L 4.999999999999972 270.4770196625234 L 4.999999999999972 270.4770196625234 L 6 270.39575006880506 L 6 270.39575006880506 L 6.999999999999972 270.31283872039023 L 6.999999999999972 270.31283872039023 L 8 270.2282524516339 L 8 270.2282524516339 L 8.999999999999972 270.14195742690094 L 8.999999999999972 270.14195742690094 L 10 270.05391912703067 L 10 270.05391912703067 L 10.999999999999972 269.9641023355294 L 10.999999999999972 269.9641023355294 L 12 269.87247112448284 L 12 269.87247112448284 L 12.999999999999972 269.77898884018487 L 12.999999999999972 269.77898884018487 L 14 269.6836180884753 L 14 269.6836180884753 L 14.999999999999986 269.58632071978195 L 14.999999999999986 269.58632071978195 L 16 269.4870578138598 L 16 269.4870578138598 L 16.999999999999986 269.3857896642231 L 16.999999999999986 269.3857896642231 L 18 269.28247576226175 L 18 269.28247576226175 L 18.999999999999986 269.1770747810374 L 18.999999999999986 269.1770747810374 L 20 269.0695445587521 L 20 269.0695445587521 L 20.999999999999986 268.9598420818833 L 20.999999999999986 268.9598420818833 L 22.000000000000014 268.8479234679775 L 22.000000000000014 268.8479234679775 L 22.999999999999986 268.7337439480969 L 22.999999999999986 268.7337439480969 L 24.000000000000014 268.61725784891104 L 24.000000000000014 268.61725784891104 L 24.999999999999986 268.49841857442715 L 24.999999999999986 268.49841857442715 L 25.99999999999997 268.3771785873509 L 25.99999999999997 268.3771785873509 L 26.999999999999986 268.25348939007085 L 26.999999999999986 268.2534893900709 L 27.99999999999997 268.12730150525897 L 27.99999999999997 268.12730150525897 L 28.999999999999986 267.9985644560787 L 28.999999999999986 267.9985644560787 L 29.99999999999997 267.86722674599395 L 29.99999999999997 267.86722674599395 L 30.999999999999986 267.7332358381694 L 30.999999999999986 267.7332358381694 L 31.99999999999997 267.5965381344554 L 31.99999999999997 267.5965381344554 L 33 267.45707895394776 L 33 267.45707895394776 L 33.99999999999997 267.31480251111486 L 33.99999999999997 267.31480251111486 L 35 267.1696518934825 L 35 267.1696518934825 L 35.99999999999997 267.0215690388683 L 35.99999999999997 267.0215690388683 L 37 266.8704947121558 L 37 266.8704947121558 L 37.99999999999997 266.7163684816001 L 37.99999999999997 266.71636848160017 L 39 266.55912869465396 L 39 266.55912869465396 L 39.99999999999997 266.39871245330596 L 39.99999999999997 266.39871245330596 L 41 266.23505558892066 L 41 266.23505558892066 L 41.99999999999997 266.0680926365702 L 41.99999999999997 266.0680926365702 L 43 265.8977568088475 L 43 265.8977568088475 L 43.999999999999986 265.72397996915015 L 43.999999999999986 265.72397996915015 L 45 265.54669260442535 L 45 265.54669260442535 L 45.999999999999986 265.36582379736325 L 45.999999999999986 265.36582379736325 L 47 265.18130119802953 L 47 265.18130119802953 L 47.999999999999986 264.993050994924 L 47.999999999999986 264.993050994924 L 48.999999999999986 264.8009978854554 L 48.999999999999986 264.8009978854554 L 49.999999999999986 264.6050650458193 L 49.999999999999986 264.6050650458193 L 50.999999999999986 264.40517410026723 L 50.999999999999986 264.40517410026723 L 51.999999999999986 264.20124508975584 L 51.999999999999986 264.20124508975584 L 52.999999999999986 263.99319643996176 L 52.999999999999986 263.99319643996176 L 53.999999999999986 263.7809449286511 L 53.999999999999986 263.7809449286511 L 54.999999999999986 263.56440565238927 L 54.999999999999986 263.56440565238927 L 55.999999999999986 263.3434919925785 L 55.999999999999986 263.3434919925785 L 56.999999999999986 263.1181155808094 L 56.999999999999986 263.1181155808094 L 57.999999999999986 262.88818626351207 L 57.999999999999986 262.88818626351207 L 58.999999999999986 262.6536120658939 L 58.999999999999986 262.6536120658939 L 59.999999999999986 262.41429915514817 L 59.999999999999986 262.41429915514817 L 60.999999999999986 262.1701518029197 L 60.999999999999986 262.1701518029197 L 62 261.92107234701217 L 62 261.92107234701217 L 63 261.6669611523222 L 63 261.6669611523222 L 64 261.4077165709837 L 64 261.4077165709837 L 65 261.1432349017075 L 65 261.1432349017075 L 66 260.8734103482994 L 66 260.8734103482994 L 67 260.5981349773403 L 67 260.5981349773403 L 68 260.3172986750115 L 68 260.3172986750115 L 69 260.0307891030475 L 69 260.0307891030475 L 70 259.7384916537993 L 70 259.7384916537993 L 71 259.4402894043899 L 71 259.4402894043899 L 72 259.1360630699434 L 72 259.1360630699434 L 72.99999999999997 258.82569095586973 L 72.99999999999997 258.82569095586973 L 73.99999999999997 258.5090489091848 L 73.99999999999997 258.5090489091848 L 74.99999999999997 258.186010268848 L 74.99999999999997 258.186010268848 L 75.99999999999997 257.85644581509604 L 75.99999999999997 257.85644581509604 L 76.99999999999997 257.520223717753 L 76.99999999999997 257.520223717753 L 77.99999999999999 257.1772094834971 L 77.99999999999999 257.1772094834971 L 78.99999999999999 256.827265902061 L 78.99999999999999 256.827265902061 L 79.99999999999999 256.4702529913461 L 79.99999999999999 256.4702529913461 L 80.99999999999999 256.1060279414279 L 80.99999999999999 256.1060279414279 L 81.99999999999999 255.73444505743004 L 81.99999999999999 255.73444505743004 L 82.99999999999999 255.3553557012444 L 82.99999999999999 255.3553557012444 L 83.99999999999999 254.96860823207396 L 83.99999999999999 254.96860823207396 L 84.99999999999999 254.57404794577428 L 84.99999999999999 254.5740479457743 L 85.99999999999999 254.17151701297004 L 85.99999999999999 254.17151701297004 L 87 253.76085441592093 L 87 253.76085441592093 L 88 253.34189588411257 L 88 253.34189588411257 L 89 252.91447382854602 L 89 252.91447382854602 L 90 252.47841727470004 L 90 252.47841727470004 L 91 252.03355179413893 L 91 252.03355179413893 L 92 251.5796994347388 L 92 251.57969943473884 L 93 251.11667864950454 L 93 251.11667864950454 L 94 250.64430422394827 L 94 250.6443042239483 L 95 250.1623872020014 L 95 250.1623872020014 L 96 249.67073481042954 L 96 249.67073481042954 L 97 249.16915038172053 L 97 249.16915038172053 L 98 248.65743327541503 L 98 248.65743327541506 L 99 248.13537879784758 L 99 248.13537879784758 L 100 247.60277812026627 L 100 247.6027781202663 L 101 247.0594181952987 L 101 247.0594181952987 L 102 246.5050816717299 L 102 246.5050816717299 L 103 245.93954680755925 L 103 245.93954680755925 L 103.99999999999997 245.36258738130053 L 103.99999999999997 245.36258738130053 L 104.99999999999999 244.7739726014903 L 104.99999999999999 244.7739726014903 L 105.99999999999999 244.17346701436833 L 105.99999999999999 244.17346701436836 L 106.99999999999999 243.56083040969295 L 106.99999999999999 243.56083040969298 L 107.99999999999999 242.9358177246537 L 107.99999999999999 242.93581772465373 L 108.99999999999999 242.29817894584295 L 108.99999999999999 242.29817894584295 L 109.99999999999999 241.64765900924718 L 109.99999999999999 241.64765900924718 L 110.99999999999999 240.98399769821805 L 110.99999999999999 240.98399769821805 L 111.99999999999999 240.30692953938222 L 111.99999999999999 240.30692953938222 L 112.99999999999999 239.61618369644845 L 112.99999999999999 239.61618369644847 L 113.99999999999999 238.91148386186953 L 113.99999999999999 238.91148386186953 L 114.99999999999999 238.19254814631546 L 114.99999999999999 238.19254814631546 L 115.99999999999999 237.4590889659141 L 115.99999999999999 237.45908896591413 L 116.99999999999999 236.71081292721374 L 116.99999999999999 236.71081292721374 L 117.99999999999999 235.9474207098217 L 117.99999999999999 235.9474207098217 L 118.99999999999999 235.16860694667233 L 118.99999999999999 235.16860694667236 L 119.99999999999999 234.37406010187607 L 119.99999999999999 234.3740601018761 L 121 233.5634623461009 L 121 233.56346234610092 L 122 232.7364894294364 L 122 232.7364894294364 L 123 231.89281055168942 L 123 231.89281055168945 L 124 231.0320882300597 L 124 231.0320882300597 L 125 230.15397816414213 L 125 230.15397816414213 L 126 229.258129098202 L 126 229.25812909820203 L 127 228.3441826806682 L 127 228.3441826806682 L 128 227.41177332078757 L 128 227.41177332078757 L 129 226.46052804238383 L 129 226.46052804238386 L 130 225.49006633466223 L 130 225.49006633466223 L 131 224.5 L 131 224.5 L 132 223.4899329986622 L 132 223.48993299866223 L 133 222.45946129038057 L 133 222.4594612903806 L 134 221.408172672732 L 134 221.40817267273204 L 135 220.33564661625206 L 135 220.33564661625206 L 136 219.2414540962176 L 136 219.24145409621764 L 136.99999999999997 218.12515742103122 L 136.99999999999997 218.12515742103125 L 137.99999999999997 216.98631005713864 L 137.99999999999997 216.98631005713867 L 138.99999999999997 215.8244564504095 L 138.99999999999997 215.8244564504095 L 139.99999999999997 214.6391318439095 L 139.99999999999997 214.63913184390952 L 141 213.4298620919915 L 141 213.42986209199154 L 142 212.19616347063095 L 142 212.19616347063098 L 143 210.93754248392978 L 143 210.9375424839298 L 144 209.65349566671142 L 144 209.65349566671142 L 145 208.34350938312815 L 145 208.34350938312818 L 146 207.00705962119986 L 146 207.00705962119986 L 147 205.64361178320215 L 147 205.64361178320218 L 148 204.2526204718203 L 148 204.25262047182034 L 149 202.83352927198297 L 149 202.83352927198302 L 150 201.38577052828876 L 150 201.3857705282888 L 151 199.90876511793647 L 151 199.90876511793653 L 152 198.4019222190683 L 152 198.40192221906833 L 153 196.86463907443317 L 153 196.86463907443323 L 154 195.29630075027592 L 154 195.29630075027592 L 155 193.6962798903553 L 155 193.69627989035536 L 156 192.06393646499356 L 156 192.06393646499362 L 157 190.39861751505566 L 157 190.3986175150557 L 158 188.69965689075707 L 158 188.69965689075707 L 159 186.96637498519493 L 159 186.96637498519493 L 160 185.1980784624963 L 160 185.19807846249634 L 161 183.39405998047454 L 161 183.3940599804746 L 162 181.5535979076829 L 162 181.5535979076829 L 163 179.67595603475243 L 163 179.67595603475246 L 164 177.7603832798984 L 164 177.76038327989843 L 165 175.80611338847763 L 165 175.80611338847763 L 166 173.81236462647615 L 166 173.8123646264762 L 167 171.7783394678056 L 167 171.77833946780564 L 168 169.70322427528174 L 168 169.7032242752818 L 169 167.58618897515908 L 169 167.5861889751591 L 170 165.4263867250899 L 170 165.42638672508997 L 171 163.22295357537658 L 171 163.22295357537664 L 172 160.97500812337967 L 172 160.97500812337972 L 173 158.68165116094536 L 173 158.68165116094542 L 174 156.34196531471022 L 174 156.34196531471025 L 175 153.95501467913948 L 175 153.9550146791395 L 176 151.5198444421525 L 176 151.51984444215253 L 177 149.0354805031851 L 177 149.03548050318514 L 178 146.50092908353642 L 178 146.50092908353645 L 179 143.9151763288441 L 179 143.91517632884413 L 180 141.27718790352912 L 180 141.27718790352915 L 181 138.58590857704772 L 181 138.58590857704777 L 182 135.84026180178506 L 182 135.84026180178512 L 183 133.039149282422 L 183 133.03914928242204 L 184 130.18145053660206 L 184 130.18145053660209 L 185 127.26602244672378 L 185 127.26602244672384 L 186 124.2916988026783 L 186 124.29169880267835 L 187 121.25728983534987 L 187 121.2572898353499 L 188 118.16158174069216 L 188 118.16158174069221 L 189 115.00333619419072 L 189 115.00333619419078 L 190 111.7812898555164 L 190 111.78128985551643 L 191 108.49415386317258 L 191 108.49415386317261 L 192 105.14061331893322 L 192 105.14061331893328 L 193 101.7193267618662 L 193 101.71932676186626 L 194 98.22892563173085 L 194 98.2289256317309 L 195 94.66801372153589 L 195 94.66801372153594 L 196 91.03516661903777 L 196 91.0351666190378 L 197 87.32893113695684 L 197 87.3289311369569 L 198 83.54782473168316 L 198 83.54782473168322 L 199 79.69033491023924 L 199 79.69033491023927 L 200 75.75491862526255 L 200 75.7549186252626 L 201 71.74000165776619 L 201 71.74000165776627 L 202 67.6439779874303 L 202 67.64397798743039 L 203 63.465209150172285 L 203 63.4652091501724 L 204 59.2020235827396 L 204 59.202023582739685 L 205 54.85271595406209 L 205 54.852715954062205 L 206 50.41554648309673 L 206 50.41554648309682 L 207 45.88874024289197 L 207 45.888740242892055 L 208 41.270486450593665 L 208 41.27048645059375 L 209 36.558937743107236 L 209 36.55893774310732 L 210 31.75220943812826 L 210 31.752209438128347 L 211 26.848378780244218 L 211 26.848378780244303 L 212 21.84548417180656 L 212 21.845484171806675 L 213 16.741524388265873 L 213 16.74152438826593 L 214 11.534457777655007 L 214 11.534457777655064 L 215 6.222201443901213 L 215 6.22220144390127 L 216 0.8026304136399176 L 216 0.8026304136400313 L 217 -4.726423213802775 L 217 -4.726423213802661 L 218 -10.36717113359964 L 218 -10.367171133599527 L 218.805051523853 -15.000000000000002" stroke-opacity="0.6980392156862745" stroke-linecap="round" stroke-linejoin="round" stroke-miterlimit="10" stroke-width="5"/><g transform="scale(19,19)"><g transform="translate(0.631578947368421,13.767223578947368)"><path fill="rgb(0,100,0)" stroke="none" paint-order="stroke fill markers" d=" M 0.2548828125 0.01123046875 Q 0.220703125 0.01123046875 0.193603515625 -0.00341796875 Q 0.16650390625 -0.01806640625 0.14794921875 -0.044677734375 Q 0.12939453125 -0.0712890625 0.12060546875 -0.101806640625 Q 0.11181640625 -0.13232421875 0.11181640625 -0.1650390625 Q 0.11181640625 -0.216796875 0.130615234375 -0.266357421875 Q 0.1494140625 -0.31591796875 0.18359375 -0.35595703125 Q 0.2177734375 -0.39599609375 0.264404296875 -0.4189453125 Q 0.31103515625 -0.44189453125 0.36376953125 -0.44189453125 Q 0.3896484375 -0.44189453125 0.412841796875 -0.43212890625 Q 0.43603515625 -0.42236328125 0.450439453125 -0.403076171875 Q 0.46484375 -0.3837890625 0.46484375 -0.35693359375 Q 0.46484375 -0.27587890625 0.387451171875 -0.25244140625 Q 0.31005859375 -0.22900390625 0.205078125 -0.22900390625 L 0.2021484375 -0.22900390625 Q 0.18505859375 -0.16259765625 0.18505859375 -0.12109375 Q 0.18505859375 -0.0810546875 0.202392578125 -0.048095703125 Q 0.2197265625 -0.01513671875 0.2568359375 -0.01513671875 Q 0.3095703125 -0.01513671875 0.359130859375 -0.043701171875 Q 0.40869140625 -0.072265625 0.44189453125 -0.1181640625 Q 0.443359375 -0.12109375 0.44921875 -0.12109375 Q 0.455078125 -0.12109375 0.4658203125 -0.10693359375 Q 0.4677734375 -0.10595703125 0.4677734375 -0.10107421875 Q 0.4677734375 -0.09716796875 0.4658203125 -0.09521484375 Q 0.44287109375 -0.0625 0.4091796875 -0.038330078125 Q 0.37548828125 -0.01416015625 0.33544921875 -0.00146484375 Q 0.29541015625 0.01123046875 0.2548828125 0.01123046875 M 0.2080078125 -0.2548828125 Q 0.26318359375 -0.2548828125 0.3076171875 -0.260498046875 Q 0.35205078125 -0.26611328125 0.387451171875 -0.288818359375 Q 0.4228515625 -0.3115234375 0.4228515625 -0.35693359375 Q 0.4228515625 -0.3828125 0.4052734375 -0.3994140625 Q 0.3876953125 -0.416015625 0.36181640625 -0.416015625 Q 0.3037109375 -0.416015625 0.265380859375 -0.368896484375 Q 0.22705078125 -0.32177734375 0.2080078125 -0.2548828125 Z"/></g><g transform="translate(1.166578947368421,13.354331578947368) scale(0.7,0.7)"><path fill="rgb(0,100,0)" stroke="none" paint-order="stroke fill markers" d=" M 0.334 -0.302 L 0.3 -0.165 Q 0.28300000000000003 -0.097 0.28300000000000003 -0.077 Q 0.28300000000000003 -0.025 0.32 -0.014 Q 0.328 -0.011 0.338 -0.011 Q 0.388 -0.011 0.429 -0.061 Q 0.456 -0.093 0.47100000000000003 -0.14200000000000002 Q 0.47400000000000003 -0.153 0.484 -0.153 Q 0.496 -0.153 0.496 -0.14300000000000002 Q 0.496 -0.11800000000000001 0.465 -0.07100000000000001 Q 0.41100000000000003 0.011 0.336 0.011 Q 0.268 0.011 0.23700000000000002 -0.046 Q 0.231 -0.055 0.228 -0.065 Q 0.20400000000000001 -0.017 0.162 0.002 Q 0.14300000000000002 0.011 0.123 0.011 Q 0.063 0.011 0.039 -0.024 Q 0.029 -0.037 0.029 -0.055 Q 0.029 -0.092 0.061 -0.107 Q 0.07200000000000001 -0.113 0.084 -0.113 Q 0.114 -0.113 0.12 -0.088 Q 0.121 -0.083 0.121 -0.078 Q 0.121 -0.044 0.08700000000000001 -0.028 Q 0.081 -0.025 0.074 -0.024 Q 0.095 -0.011 0.124 -0.011 Q 0.177 -0.011 0.20800000000000002 -0.082 Q 0.214 -0.097 0.219 -0.115 Q 0.273 -0.319 0.273 -0.353 Q 0.267 -0.41500000000000004 0.219 -0.42 Q 0.167 -0.42 0.124 -0.367 L 0.124 -0.366 Q 0.124 -0.365 0.123 -0.365 Q 0.108 -0.34500000000000003 0.096 -0.319 Q 0.091 -0.307 0.08700000000000001 -0.295 L 0.085 -0.289 Q 0.083 -0.278 0.07200000000000001 -0.278 Q 0.06 -0.278 0.06 -0.28800000000000003 Q 0.06 -0.313 0.092 -0.36 Q 0.146 -0.442 0.221 -0.442 Q 0.298 -0.442 0.329 -0.366 Q 0.361 -0.428 0.41400000000000003 -0.44 Q 0.424 -0.442 0.434 -0.442 Q 0.493 -0.442 0.517 -0.40900000000000003 Q 0.527 -0.395 0.527 -0.376 Q 0.527 -0.335 0.49 -0.321 Q 0.481 -0.318 0.47300000000000003 -0.318 Q 0.442 -0.318 0.436 -0.34500000000000003 Q 0.435 -0.34900000000000003 0.435 -0.353 Q 0.435 -0.383 0.464 -0.4 Q 0.47300000000000003 -0.405 0.483 -0.40700000000000003 Q 0.462 -0.42 0.433 -0.42 Q 0.365 -0.42 0.337 -0.314 Q 0.335 -0.308 0.334 -0.302 Z"/></g></g><path fill="none" stroke="rgb(204,0,0)" paint-order="fill stroke markers" d=" M 131 515 L 131 515 M 131 470.1011502714072 L 131.5 515 L 132 470.1011502714073 L 133 435.44379124341 L 133 435.44379124341003 L 134 415.17053583800174 L 134 415.1705358380018 L 135 400.78643221541273 L 135 400.7864322154128 L 136 389.62925464970226 L 136 389.62925464970226 L 136.99999999999997 380.51317681000467 L 136.99999999999997 380.5131768100047 L 137.99999999999997 372.80564281864173 L 137.99999999999997 372.8056428186418 L 138.99999999999997 366.1290731874156 L 138.99999999999997 366.1290731874156 L 139.99999999999997 360.23992140459643 L 139.99999999999997 360.23992140459643 L 141 354.9718956217051 L 141 354.9718956217051 L 142 350.20638663148884 L 142 350.20638663148884 L 143 345.8558177820073 L 143 345.85581778200736 L 144 341.8536823983305 L 144 341.85368239833053 L 145 338.1482837906444 L 145 338.1482837906444 L 146 334.69864021629684 L 146 334.69864021629684 L 147 331.47171415941824 L 147 331.4717141594183 L 148 328.4404830685965 L 148 328.44048306859656 L 149 325.58256237659907 L 149 325.58256237659907 L 150 322.8792013130853 L 150 322.87920131308533 L 151 320.31453659370777 L 151 320.31453659370777 L 152 317.87502838523613 L 152 317.8750283852362 L 153 315.5490276034915 L 153 315.54902760349154 L 154 313.32643947494984 L 154 313.32643947494984 L 155 311.19845875401 L 155 311.19845875401 L 156 309.15735902799724 L 156 309.15735902799724 L 157 307.1963233703332 L 157 307.1963233703332 L 158 305.30930697119084 L 158 305.30930697119084 L 159 303.49092476264707 L 159 303.4909247626471 L 160 301.7363587720836 L 160 301.7363587720836 L 161 300.04128118829954 L 161 300.04128118829954 L 162 298.40179004715 L 162 298.40179004715003 L 163 296.814355131421 L 163 296.814355131421 L 164 295.2757721980833 L 164 295.2757721980833 L 165 293.7831240405992 L 165 293.78312404059926 L 166 292.3337471969366 L 166 292.3337471969366 L 167 290.9252033486018 L 167 290.9252033486018 L 168 289.55525463919605 L 168 289.5552546391961 L 169 288.22184228508803 L 169 288.22184228508803 L 170 286.923067964925 L 170 286.923067964925 L 171 285.65717756571047 L 171 285.65717756571047 L 172 284.4225469361919 L 172 284.4225469361919 L 173 283.2176693572389 L 173 283.2176693572389 L 174 282.0411444867292 L 174 282.0411444867292 L 175 280.89166857549424 L 175 280.89166857549424 L 176 279.7680257828913 L 176 279.7680257828913 L 177 278.66908044695253 L 177 278.66908044695253 L 178 277.59377018590436 L 178 277.59377018590436 L 179 276.54109972601276 L 179 276.54109972601276 L 180 275.51013536587595 L 180 275.51013536587595 L 181 274.5 L 181 274.5 L 182 273.509868635191 L 182 273.509868635191 L 183 272.53896434233593 L 183 272.53896434233593 L 184 271.5865545938012 L 184 271.5865545938012 L 185 270.6519479431936 L 185 270.6519479431936 L 186 269.73449100978377 L 186 269.73449100978377 L 187 268.8335657346498 L 187 268.8335657346498 L 188 267.9485868796798 L 188 267.9485868796798 L 189 267.07899974408633 L 189 267.07899974408633 L 190 266.2242780761213 L 190 266.2242780761213 L 191 265.38392216030223 L 191 265.3839221603023 L 192 264.5574570627417 L 192 264.5574570627417 L 193 263.7444310191527 L 193 263.7444310191527 L 194 262.94441395183065 L 194 262.94441395183065 L 195 262.1569961034237 L 195 262.1569961034237 L 196 261.38178677662546 L 196 261.38178677662546 L 197 260.618413170086 L 197 260.618413170086 L 198 259.866519301859 L 198 259.866519301859 L 199 259.12576501260196 L 199 259.12576501260196 L 200 258.3958250415443 L 200 258.39582504154436 L 201 257.67638816893935 L 201 257.67638816893935 L 202 256.9671564193415 L 202 256.9671564193415 L 203 256.2678443206045 L 203 256.2678443206045 L 204 255.57817821398774 L 204 255.57817821398774 L 205 254.8978956111988 L 205 254.8978956111988 L 206 254.22674459459176 L 206 254.2267445945918 L 207 253.56448325709076 L 207 253.56448325709076 L 208 252.91087917872312 L 208 252.91087917872312 L 209 252.2657089369277 L 209 252.26570893692772 L 210 251.62875764805622 L 210 251.62875764805622 L 211 250.99981853771322 L 211 250.99981853771322 L 212 250.37869253778535 L 212 250.37869253778535 L 213 249.76518790819463 L 213 249.76518790819463 L 214 249.1591198815774 L 214 249.1591198815774 L 215 248.56031032924162 L 215 248.56031032924162 L 216 247.96858744689146 L 216 247.9685874468915 L 217 247.3837854587319 L 217 247.38378545873192 L 218 246.8057443386781 L 218 246.80574433867812 L 219 246.23430954749696 L 219 246.234309547497 L 220 245.6693317848003 L 220 245.6693317848003 L 221 245.11066675489403 L 221 245.11066675489405 L 222 244.5581749455648 L 222 244.55817494556482 L 223 244.0117214189553 L 223 244.0117214189553 L 224 243.4711756137445 L 224 243.4711756137445 L 225 242.9364111579071 L 225 242.93641115790712 L 226 242.40730569138026 L 226 242.40730569138026 L 227 241.8837406980155 L 227 241.8837406980155 L 228 241.36560134623815 L 228 241.36560134623818 L 229 240.8527763378787 L 229 240.8527763378787 L 230 240.3451577646778 L 230 240.34515776467782 L 231 239.84264097200273 L 231 239.84264097200276 L 232 239.3451244293443 L 232 239.3451244293443 L 233 238.85250960719372 L 233 238.85250960719375 L 234 238.3647008599255 L 234 238.3647008599255 L 235 237.88160531433866 L 235 237.88160531433869 L 236 237.40313276353112 L 236 237.40313276353115 L 237 236.92919556580392 L 237 236.92919556580395 L 238 236.459708548312 L 238 236.459708548312 L 239 235.99458891519632 L 239 235.99458891519632 L 240 235.53375615995012 L 240 235.53375615995012 L 241 235.07713198178647 L 241 235.0771319817865 L 242 234.62464020579057 L 242 234.6246402057906 L 243 234.17620670665258 L 243 234.17620670665258 L 244 233.73175933579026 L 244 233.7317593357903 L 245 233.29122785168252 L 245 233.29122785168252 L 246 232.8545438532448 L 246 232.8545438532448 L 247 232.42164071608906 L 247 232.42164071608906 L 248 231.9924535315195 L 248 231.99245353151952 L 249 231.56691904812405 L 249 231.56691904812408 L 250 231.14497561583082 L 250 231.14497561583084 L 251 230.726563132305 L 251 230.726563132305 L 252 230.31162299157023 L 252 230.31162299157023 L 253 229.90009803474447 L 253 229.90009803474447 L 254 229.49193250278643 L 254 229.49193250278643 L 255 229.08707199115545 L 255 229.08707199115545 L 256 228.68546340629223 L 256 228.68546340629223 L 257 228.28705492383338 L 257 228.2870549238334 L 258 227.89179594847772 L 258 227.89179594847775 L 259 227.49963707542645 L 259 227.49963707542645 L 260 227.11053005332369 L 260 227.11053005332369 L 261 226.72442774862816 L 261 226.7244277486282 L 262 226.34128411134972 L 262 226.34128411134972 L 263 225.96105414208876 L 263 225.96105414208876 L 264 225.5836938603196 L 264 225.5836938603196 L 265 225.2091602738617 L 265 225.20916027386173 L 266 224.83741134948582 L 266 224.83741134948582 L 267 224.4684059846047 L 267 224.46840598460471 L 268 224.10210398000106 L 268 224.10210398000106 L 269 223.73846601354705 L 269 223.73846601354708 L 270 223.3774536148727 L 270 223.3774536148727 L 271 223.01902914094208 L 271 223.0190291409421 L 272 222.66315575249888 L 272 222.66315575249888 L 273 222.30979739134426 L 273 222.30979739134426 L 274 221.95891875841193 L 274 221.95891875841193 L 275 221.61048529260725 L 275 221.61048529260728 L 276 221.26446315037856 L 276 221.2644631503786 L 277 220.92081918599047 L 277 220.9208191859905 L 278 220.57952093247047 L 278 220.57952093247047 L 279 220.24053658320153 L 279 220.24053658320156 L 280 219.90383497413433 L 280 219.90383497413436 L 281 219.5693855665945 L 281 219.56938556659452 L 282 219.23715843066108 L 282 219.2371584306611 L 283 218.90712422909345 L 283 218.90712422909348 L 284 218.57925420178552 L 284 218.57925420178555 L 285 218.25352015072582 L 285 218.25352015072585 L 286 217.92989442544496 L 286 217.92989442544496 L 287 217.60834990893045 L 287 217.60834990893045 L 288 217.28886000399189 L 288 217.28886000399189 L 289 216.97139862005895 L 289 216.97139862005895 L 290 216.65594016039572 L 290 216.65594016039574 L 291 216.34245950971592 L 291 216.34245950971595 L 292 216.03093202218412 L 292 216.03093202218415 L 293 215.72133350978808 L 293 215.7213335097881 L 294 215.41364023106917 L 294 215.4136402310692 L 295 215.10782888019736 L 295 215.1078288801974 L 296 214.80387657637826 L 296 214.8038765763783 L 297 214.50176085358012 L 297 214.50176085358015 L 298 214.20145965056952 L 298 214.20145965056955 L 299 213.90295130124434 L 299 213.90295130124434 L 300 213.60621452525362 L 300 213.60621452525362 L 301 213.3112284188942 L 301 213.31122841889422 L 302 213.01797244627429 L 302 213.0179724462743 L 303 212.72642643073462 L 303 212.72642643073465 L 304 212.43657054651834 L 304 212.43657054651837 L 305 212.14838531068082 L 305 212.14838531068085 L 306 211.86185157523158 L 306 211.8618515752316 L 307 211.5769505194997 L 307 211.57695051949972 L 308 211.2936636427158 L 308 211.29366364271584 L 309 211.01197275680303 L 309 211.01197275680306 L 310 210.73185997936955 L 310 210.73185997936957 L 311 210.45330772689675 L 311 210.45330772689678 L 312 210.176298708116 L 312 210.176298708116 L 313 209.9008159175675 L 313 209.90081591756754 L 314 209.62684262933624 L 314 209.62684262933627 L 315 209.354362390958 L 315 209.35436239095804 L 316 209.08335901749103 L 316 209.08335901749106 L 317 208.81381658574722 L 317 208.81381658574725 L 318 208.54571942867796 L 318 208.54571942867798 L 319 208.27905212990981 L 319 208.27905212990984 L 320 208.01379951842517 L 320 208.01379951842517 L 321 207.74994666338299 L 321 207.749946663383 L 322 207.4874788690758 L 322 207.4874788690758 L 323 207.2263816700182 L 323 207.2263816700182 L 324 206.966640826163 L 324 206.96664082616303 L 325 206.70824231824088 L 325 206.70824231824088 L 326 206.45117234321995 L 326 206.45117234321998 L 327 206.1954173098814 L 327 206.19541730988146 L 328 205.94096383450787 L 328 205.9409638345079 L 329 205.68779873668052 L 329 205.68779873668052 L 330 205.43590903518265 L 330 205.4359090351827 L 331 205.18528194400545 L 331 205.18528194400545 L 332 204.93590486845352 L 332 204.93590486845352 L 333 204.68776540134706 L 333 204.68776540134706 L 334 204.44085131931791 L 334 204.44085131931794 L 335 204.19515057919648 L 335 204.19515057919648 L 336 203.9506513144869 L 336 203.9506513144869 L 337 203.7073418319282 L 337 203.70734183192826 L 338 203.46521060813882 L 338 203.46521060813888 L 339 203.22424628634138 L 339 203.2242462863414 L 340 202.98443767316672 L 340 202.98443767316675 L 341 202.74577373553385 L 341 202.74577373553387 L 342 202.50824359760395 L 342 202.50824359760398 L 343 202.27183653780668 L 343 202.27183653780668 L 344 202.03654198593603 L 344 202.03654198593605 L 345 201.8023495203147 L 345 201.80234952031475 L 346 201.56924886502412 L 346 201.56924886502418 L 347 201.33722988719904 L 347 201.33722988719907 L 348 201.1062825943843 L 348 201.1062825943843 L 349 200.87639713195284 L 349 200.87639713195284 L 350 200.64756378058223 L 350 200.64756378058226 L 351 200.41977295378922 L 351 200.41977295378922 L 352 200.19301519551965 L 352 200.19301519551965 L 353 199.9672811777933 L 353 199.96728117779332 L 354 199.74256169840135 L 354 199.74256169840135 L 355 199.5188476786553 L 355 199.51884767865533 L 356 199.29613016118628 L 356 199.29613016118628 L 357 199.07440030779298 L 357 199.074400307793 L 358 198.85364939733716 L 358 198.85364939733716 L 359 198.63386882368525 L 359 198.63386882368525 L 360 198.4150500936953 L 360 198.41505009369533 L 361 198.19718482524752 L 361 198.19718482524755 L 362 197.98026474531758 L 362 197.98026474531764 L 363 197.76428168809178 L 363 197.7642816880918 L 364 197.54922759312225 L 364 197.54922759312228 L 365 197.3350945035222 L 365 197.33509450352224 L 366 197.12187456419935 L 366 197.12187456419935 L 367 196.90956002012678 L 367 196.9095600201268 L 368 196.6981432146507 L 368 196.69814321465077 L 369 196.48761658783354 L 369 196.48761658783357 L 370 196.27797267483174 L 370 196.27797267483177 L 371 196.06920410430772 L 371 196.06920410430774 L 372 195.86130359687454 L 372 195.86130359687456 L 373 195.65426396357296 L 373 195.654263963573 L 374 195.44807810437985 L 374 195.44807810437987 L 375 195.24273900674717 L 375 195.24273900674723 L 376 195.03823974417094 L 376 195.03823974417097 L 377 194.83457347478912 L 377 194.83457347478918 L 378 194.63173344000842 L 378 194.63173344000842 L 379 194.42971296315818 L 379 194.42971296315818 L 380 194.22850544817192 L 380 194.22850544817192 L 381 194.02810437829498 L 381 194.02810437829498 L 382 193.82850331481808 L 382 193.8285033148181 L 383 193.6296958958361 L 383 193.62969589583614 L 384 193.43167583503129 L 384 193.43167583503129 L 385 193.23443692048045 L 385 193.23443692048048 L 386 193.03797301348598 L 386 193.037973013486 L 387 192.84227804742915 L 387 192.8422780474292 L 388 192.6473460266463 L 388 192.64734602664632 L 389 192.4531710253264 L 389 192.4531710253264 L 390.00000000000006 192.2597471864304 L 390.00000000000006 192.25974718643042 L 391 192.0670687206309 L 391 192.0670687206309 L 392 191.87512990527262 L 392 191.87512990527262 L 393 191.68392508335245 L 393 191.68392508335245 L 394 191.49344866251906 L 394 191.49344866251909 L 395 191.30369511409145 L 395 191.30369511409148 L 396 191.11465897209618 L 396 191.1146589720962 L 397 190.9263348323223 L 397 190.92633483232237 L 398 190.73871735139483 L 398 190.73871735139483 L 399 190.55180124586445 L 399 190.55180124586445 L 400 190.36558129131532 L 400 190.36558129131535 L 401 190.18005232148855 L 401 190.18005232148857 L 402 189.99520922742224 L 402 189.99520922742227 L 403 189.8110469566074 L 403 189.8110469566074 L 404 189.6275605121593 L 404 189.62756051215933 L 405 189.44474495200376 L 405 189.44474495200382 L 406 189.26259538807872 L 406 189.26259538807875 L 407 189.08110698554978 L 407 189.0811069855498 L 408 188.90027496204036 L 408 188.90027496204038 L 409 188.72009458687543 L 409 188.72009458687546 L 410 188.540561180339 L 410 188.540561180339 L 411.00000000000006 188.3616701129448 L 411.00000000000006 188.3616701129448 L 412 188.18341680472 L 412 188.18341680472003 L 413 188.0057967245016 L 413 188.00579672450164 L 414 187.82880538924542 L 414 187.82880538924542 L 415.00000000000006 187.65243836334696 L 415.00000000000006 187.65243836334702 L 416 187.47669125797478 L 416 187.47669125797478 L 417 187.30155973041465 L 417 187.30155973041468 L 418 187.12703948342624 L 418 187.12703948342624 L 419.00000000000006 186.95312626460998 L 419.00000000000006 186.95312626461 L 420 186.77981586578568 L 420 186.77981586578568 L 421 186.60710412238132 L 421 186.60710412238132 L 422 186.43498691283264 L 422 186.4349869128327 L 423.00000000000006 186.2634601579932 L 423.00000000000006 186.26346015799322 L 424 186.09251982055392 L 424 186.09251982055395 L 425 185.9221619044732 L 425 185.92216190447323 L 426 185.7523824544163 L 426 185.7523824544163 L 427 185.58317755520426 L 427 185.5831775552043 L 428 185.41454333127228 L 428 185.4145433312723 L 429 185.24647594613705 L 429 185.24647594613708 L 430 185.07897160187298 L 430 185.07897160187298 L 431 184.91202653859722 L 431 184.91202653859725 L 432 184.74563703396348 L 432 184.74563703396353 L 433 184.5797994026638 L 433 184.5797994026638 L 434 184.41450999593883 L 434 184.41450999593883 L 435 184.24976520109618 L 435 184.2497652010962 L 436 184.0855614410367 L 436 184.0855614410367 L 437 183.92189517378824 L 437 183.92189517378824 L 438 183.75876289204743 L 438 183.75876289204746 L 439 183.59616112272857 L 439 183.59616112272857 L 440.00000000000006 183.43408642652003 L 440.00000000000006 183.43408642652003 L 441 183.27253539744768 L 441 183.2725353974477 L 442 183.11150466244558 L 442 183.1115046624456 L 443 182.95099088093315 L 443 182.9509908809332 L 444.00000000000006 182.7909907443996 L 444.00000000000006 182.79099074439964 L 445 182.6315009759946 L 445 182.63150097599464 L 446 182.47251833012564 L 446 182.47251833012564 L 447 182.31403959206168 L 447 182.3140395920617 L 448.00000000000006 182.15606157754326 L 448.00000000000006 182.15606157754326 L 449 181.99858113239844 L 449 181.99858113239844 L 450 181.84159513216505 L 450 181.84159513216508 L 451 181.68510048171868 L 451 181.68510048171868 L 452.00000000000006 181.52909411490648 L 452.00000000000006 181.5290941149065 L 453 181.37357299418687 L 453 181.37357299418687 L 454 181.21853411027445 L 454 181.21853411027448 L 455 181.0639744817908 L 455 181.06397448179084 L 456.00000000000006 180.9098911549204 L 456.00000000000006 180.90989115492042 L 457 180.75628120307192 L 457 180.75628120307192 L 458 180.6031417265446 L 458 180.60314172654464 L 459 180.45046985220011 L 459 180.45046985220011 L 460.00000000000006 180.2982627331387 L 460.00000000000006 180.2982627331387 L 461 180.14651754838098 L 461 180.14651754838098 L 462 179.99523150255413 L 462 179.99523150255416 L 463 179.84440182558285 L 463 179.84440182558288 L 464.00000000000006 179.6940257723851 L 464.00000000000006 179.69402577238512 L 465 179.54410062257227 L 465 179.54410062257227 L 466 179.39462368015398 L 466 179.39462368015398 L 467 179.2455922732471 L 467 179.2455922732471 L 468.00000000000006 179.09700375378918 L 468.00000000000006 179.0970037537892 L 469.00000000000006 178.94885549725635 L 469.00000000000006 178.94885549725637 L 470 178.80114490238475 L 470 178.8011449023848 L 471 178.65386939089694 L 471 178.65386939089694 L 471.99999999999994 178.50702640723145 L 471.99999999999994 178.50702640723148 L 473.00000000000006 178.360613418277 L 473.00000000000006 178.36061341827707 L 474 178.2146279131103 L 474 178.21462791311032 L 475 178.06906740273737 L 475 178.0690674027374 L 475.99999999999994 177.92392941983928 L 475.99999999999994 177.92392941983934 L 477.00000000000006 177.77921151852107 L 477.00000000000006 177.7792115185211 L 478 177.63491127406434 L 478 177.63491127406434 L 479 177.49102628268358 L 479 177.4910262826836 L 480 177.34755416128593 L 480 177.34755416128596 L 481.00000000000006 177.2044925472343 L 481.00000000000006 177.20449254723434 L 482 177.06183909811398 L 482 177.06183909811404 L 483 176.91959149150244 L 483 176.91959149150244 L 484 176.77774742474244 L 484 176.77774742474247 L 485.00000000000006 176.63630461471854 L 485.00000000000006 176.6363046147186 L 486 176.4952607976365 L 486 176.4952607976365 L 487 176.35461372880576 L 487 176.3546137288058 L 488 176.21436118242534 L 488 176.21436118242536 L 489.00000000000006 176.07450095137227 L 489.00000000000006 176.07450095137227 L 490 175.93503084699333 L 490 175.93503084699336 L 491 175.7959486988995 L 491 175.7959486988995 L 492 175.65725235476324 L 492 175.65725235476327 L 493.00000000000006 175.5189396801187 L 493.00000000000006 175.51893968011876 L 494 175.38100855816475 L 494 175.38100855816475 L 495 175.24345688957027 L 495 175.24345688957027 L 496 175.1062825922827" stroke-opacity="0.6980392156862745" stroke-linecap="round" stroke-linejoin="round" stroke-miterlimit="10" stroke-width="5"/><g transform="scale(19,19)"><g transform="translate(7.157894736842105,24.32894736842105)"><path fill="rgb(204,0,0)" stroke="none" paint-order="stroke fill markers" d=" M 0.177 -0.6940000000000001 L 0.177 -0.076 Q 0.177 -0.042 0.193 -0.036000000000000004 Q 0.20400000000000001 -0.031 0.255 -0.031 L 0.255 0 L 0.14400000000000002 -0.003 Q 0.132 -0.003 0.033 0 L 0.033 -0.031 Q 0.092 -0.031 0.10200000000000001 -0.04 L 0.10400000000000001 -0.042 Q 0.111 -0.05 0.111 -0.076 L 0.111 -0.596 Q 0.111 -0.635 0.097 -0.644 L 0.096 -0.644 Q 0.085 -0.65 0.058 -0.652 L 0.033 -0.652 L 0.033 -0.683 L 0.177 -0.6940000000000001 Z"/></g><g transform="translate(7.435894736842105,24.32894736842105)"><path fill="rgb(204,0,0)" stroke="none" paint-order="stroke fill markers" d=" M 0.11 -0.34400000000000003 Q 0.11 -0.383 0.095 -0.392 Q 0.083 -0.399 0.052000000000000005 -0.4 L 0.032 -0.4 L 0.032 -0.431 L 0.17300000000000001 -0.442 L 0.17300000000000001 -0.337 Q 0.22 -0.442 0.321 -0.442 Q 0.396 -0.442 0.426 -0.405 Q 0.453 -0.374 0.456 -0.32 Q 0.457 -0.301 0.457 -0.252 L 0.457 -0.061 Q 0.458 -0.037 0.486 -0.033 Q 0.498 -0.031 0.535 -0.031 L 0.535 0 Q 0.433 -0.003 0.423 -0.003 Q 0.41500000000000004 -0.003 0.31 0 L 0.31 -0.031 Q 0.369 -0.031 0.379 -0.04 L 0.381 -0.042 Q 0.388 -0.05 0.388 -0.076 L 0.388 -0.309 Q 0.388 -0.40800000000000003 0.331 -0.418 Q 0.323 -0.42 0.314 -0.42 Q 0.253 -0.42 0.212 -0.367 Q 0.179 -0.324 0.179 -0.26 L 0.179 -0.076 Q 0.179 -0.042 0.195 -0.036000000000000004 Q 0.20600000000000002 -0.031 0.257 -0.031 L 0.257 0 Q 0.155 -0.003 0.145 -0.003 Q 0.137 -0.003 0.032 0 L 0.032 -0.031 Q 0.091 -0.031 0.101 -0.04 L 0.10300000000000001 -0.042 Q 0.11 -0.05 0.11 -0.076 L 0.11 -0.34400000000000003 Z"/></g><g transform="translate(7.991894736842106,24.32894736842105)"><path fill="rgb(204,0,0)" stroke="none" paint-order="stroke fill markers" d=" M 0.331 0.24 L 0.331 0.24 Q 0.331 0.25 0.321 0.25 Q 0.309 0.25 0.268 0.209 Q 0.20600000000000002 0.147 0.165 0.062 Q 0.099 -0.074 0.099 -0.25 Q 0.099 -0.419 0.162 -0.555 Q 0.214 -0.666 0.294 -0.733 Q 0.315 -0.75 0.321 -0.75 Q 0.331 -0.75 0.331 -0.74 Q 0.331 -0.735 0.318 -0.723 Q 0.157 -0.559 0.157 -0.25 Q 0.157 0.058 0.314 0.218 Q 0.331 0.23500000000000001 0.331 0.24 Z"/></g><g transform="translate(8.380894736842105,24.32894736842105)"><path fill="rgb(204,0,0)" stroke="none" paint-order="stroke fill markers" d=" M 0.334 -0.302 L 0.3 -0.165 Q 0.28300000000000003 -0.097 0.28300000000000003 -0.077 Q 0.28300000000000003 -0.025 0.32 -0.014 Q 0.328 -0.011 0.338 -0.011 Q 0.388 -0.011 0.429 -0.061 Q 0.456 -0.093 0.47100000000000003 -0.14200000000000002 Q 0.47400000000000003 -0.153 0.484 -0.153 Q 0.496 -0.153 0.496 -0.14300000000000002 Q 0.496 -0.11800000000000001 0.465 -0.07100000000000001 Q 0.41100000000000003 0.011 0.336 0.011 Q 0.268 0.011 0.23700000000000002 -0.046 Q 0.231 -0.055 0.228 -0.065 Q 0.20400000000000001 -0.017 0.162 0.002 Q 0.14300000000000002 0.011 0.123 0.011 Q 0.063 0.011 0.039 -0.024 Q 0.029 -0.037 0.029 -0.055 Q 0.029 -0.092 0.061 -0.107 Q 0.07200000000000001 -0.113 0.084 -0.113 Q 0.114 -0.113 0.12 -0.088 Q 0.121 -0.083 0.121 -0.078 Q 0.121 -0.044 0.08700000000000001 -0.028 Q 0.081 -0.025 0.074 -0.024 Q 0.095 -0.011 0.124 -0.011 Q 0.177 -0.011 0.20800000000000002 -0.082 Q 0.214 -0.097 0.219 -0.115 Q 0.273 -0.319 0.273 -0.353 Q 0.267 -0.41500000000000004 0.219 -0.42 Q 0.167 -0.42 0.124 -0.367 L 0.124 -0.366 Q 0.124 -0.365 0.123 -0.365 Q 0.108 -0.34500000000000003 0.096 -0.319 Q 0.091 -0.307 0.08700000000000001 -0.295 L 0.085 -0.289 Q 0.083 -0.278 0.07200000000000001 -0.278 Q 0.06 -0.278 0.06 -0.28800000000000003 Q 0.06 -0.313 0.092 -0.36 Q 0.146 -0.442 0.221 -0.442 Q 0.298 -0.442 0.329 -0.366 Q 0.361 -0.428 0.41400000000000003 -0.44 Q 0.424 -0.442 0.434 -0.442 Q 0.493 -0.442 0.517 -0.40900000000000003 Q 0.527 -0.395 0.527 -0.376 Q 0.527 -0.335 0.49 -0.321 Q 0.481 -0.318 0.47300000000000003 -0.318 Q 0.442 -0.318 0.436 -0.34500000000000003 Q 0.435 -0.34900000000000003 0.435 -0.353 Q 0.435 -0.383 0.464 -0.4 Q 0.47300000000000003 -0.405 0.483 -0.40700000000000003 Q 0.462 -0.42 0.433 -0.42 Q 0.365 -0.42 0.337 -0.314 Q 0.335 -0.308 0.334 -0.302 Z"/></g><g transform="translate(8.952894736842104,24.32894736842105)"><path fill="rgb(204,0,0)" stroke="none" paint-order="stroke fill markers" d=" M 0.289 -0.25 L 0.289 -0.25 Q 0.289 -0.081 0.226 0.055 Q 0.17400000000000002 0.166 0.094 0.233 Q 0.073 0.25 0.067 0.25 Q 0.057 0.25 0.057 0.24 Q 0.057 0.23500000000000001 0.07 0.223 Q 0.231 0.059000000000000004 0.231 -0.25 Q 0.231 -0.555 0.081 -0.712 L 0.076 -0.717 Q 0.057 -0.735 0.057 -0.74 Q 0.057 -0.75 0.067 -0.75 Q 0.079 -0.75 0.12 -0.709 Q 0.182 -0.647 0.223 -0.562 Q 0.289 -0.426 0.289 -0.25 Z"/></g></g><path fill="none" stroke="rgb(255,0,51)" paint-order="fill stroke markers" d=" M -5 410.50000000000006 L 410.49999999999994 -5" stroke-opacity="0.6980392156862745" stroke-linecap="round" stroke-linejoin="round" stroke-miterlimit="10" stroke-width="5"/><text fill="rgb(255,0,51)" stroke="none" font-family="geogebra-sans-serif, sans-serif" font-size="16px" font-style="normal" font-weight="normal" text-decoration="normal" x="8" y="387" text-anchor="start" dominant-baseline="alphabetic" fill-opacity="1">y = x</text><text fill="none" stroke="rgb(255,255,255)" font-family="geogebra-sans-serif, sans-serif" font-size="16px" font-style="normal" font-weight="normal" text-decoration="normal" x="8" y="387" text-anchor="start" dominant-baseline="alphabetic" stroke-opacity="1" stroke-linejoin="bevel" stroke-miterlimit="10" stroke-width="3">y = x</text><text fill="rgb(255,0,51)" stroke="none" font-family="geogebra-sans-serif, sans-serif" font-size="16px" font-style="normal" font-weight="normal" text-decoration="normal" x="8" y="387" text-anchor="start" dominant-baseline="alphabetic" fill-opacity="1">y = x</text><path fill="none" stroke="rgb(32,32,32)" paint-order="fill stroke markers" d=" M 181 274.5 L 181 138.58590857704775" stroke-opacity="0.5490196078431373" stroke-linejoin="round" stroke-miterlimit="10" stroke-width="2.5" stroke-dasharray="2.5,3"/><path fill="none" stroke="rgb(32,32,32)" paint-order="fill stroke markers" d=" M 131 138.58590857704775 L 181 138.58590857704775" stroke-opacity="0.5490196078431373" stroke-linejoin="round" stroke-miterlimit="10" stroke-width="2.5" stroke-dasharray="2.5,3"/><path fill="none" stroke="rgb(32,32,32)" paint-order="fill stroke markers" d=" M 266.9140914229522 274.5 L 266.9140914229522 224.5" stroke-opacity="0.5490196078431373" stroke-linejoin="round" stroke-miterlimit="10" stroke-width="2.5" stroke-dasharray="2.5,3"/><path fill="none" stroke="rgb(32,32,32)" paint-order="fill stroke markers" d=" M 131 224.5 L 266.9140914229522 224.5" stroke-opacity="0.5490196078431373" stroke-linejoin="round" stroke-miterlimit="10" stroke-width="2.5" stroke-dasharray="2.5,3"/></g></g></svg>