<svg version="1.1" xmlns="http://www.w3.org/2000/svg" xmlns:xlink="http://www.w3.org/1999/xlink" width="892" height="568"><defs><clipPath id="IVhCGuUeSsTM"><path fill="none" stroke="none" d=" M 0 0 L 892 0 L 892 568 L 0 568 L 0 0 Z"/></clipPath></defs><g transform="scale(1,1)" clip-path="url(#IVhCGuUeSsTM)"><g><rect fill="rgb(255,255,255)" stroke="none" x="0" y="0" width="892" height="568" fill-opacity="1"/><path fill="none" stroke="rgb(37,37,37)" paint-order="fill stroke markers" d=" M 244.5 2.5 L 244.5 568.5" stroke-opacity="1" stroke-miterlimit="10"/><path fill="none" stroke="rgb(37,37,37)" paint-order="fill stroke markers" d=" M 244.5 1.5 L 238.5 7.5" stroke-opacity="1" stroke-miterlimit="10"/><path fill="none" stroke="rgb(37,37,37)" paint-order="fill stroke markers" d=" M 244.5 1.5 L 250.5 7.5" stroke-opacity="1" stroke-miterlimit="10"/><path fill="none" stroke="rgb(37,37,37)" paint-order="fill stroke markers" d=" M 0.5 431.5 L 890.5 431.5" stroke-opacity="1" stroke-miterlimit="10"/><path fill="none" stroke="rgb(37,37,37)" paint-order="fill stroke markers" d=" M 891.5 431.5 L 885.5 425.5" stroke-opacity="1" stroke-miterlimit="10"/><path fill="none" stroke="rgb(37,37,37)" paint-order="fill stroke markers" d=" M 891.5 431.5 L 885.5 437.5" stroke-opacity="1" stroke-miterlimit="10"/><path fill="none" stroke="rgb(0,100,0)" paint-order="fill stroke markers" d=" M 1 -1885.7200000000007 L 1 -1871.98 L 1 -1871.980000000001 L 1.9999999999999716 -1858.2800000000007 L 1.9999999999999716 -1858.280000000001 L 3.0000000000000284 -1844.6199999999994 L 3.0000000000000284 -1844.62 L 4 -1831 L 4 -1831.0000000000005 L 5 -1817.42 L 5 -1817.4200000000005 L 5.999999999999972 -1803.88 L 5.999999999999972 -1803.880000000001 L 7.000000000000028 -1790.3799999999992 L 7.000000000000028 -1790.38 L 8 -1776.9199999999996 L 8 -1776.9200000000005 L 9 -1763.5 L 9 -1763.500000000001 L 9.999999999999972 -1750.1200000000003 L 9.999999999999972 -1750.1200000000013 L 11.000000000000028 -1736.7799999999997 L 11.000000000000028 -1736.7800000000002 L 12.000000000000028 -1723.4799999999996 L 12.000000000000028 -1723.4800000000005 L 13 -1710.2199999999998 L 13 -1710.2200000000007 L 13.999999999999972 -1697.0000000000005 L 13.999999999999972 -1697.000000000001 L 15.000000000000028 -1683.8199999999993 L 15.000000000000028 -1683.8200000000002 L 16.00000000000003 -1670.6799999999998 L 16.00000000000003 -1670.6800000000003 L 17 -1657.58 L 17 -1657.5800000000004 L 17.99999999999997 -1644.5200000000004 L 17.99999999999997 -1644.520000000001 L 19.000000000000057 -1631.4999999999995 L 19.000000000000057 -1631.5 L 20.00000000000003 -1618.5199999999995 L 20.00000000000003 -1618.5200000000004 L 21 -1605.58 L 21 -1605.5800000000006 L 21.99999999999997 -1592.68 L 21.99999999999997 -1592.6800000000007 L 23.000000000000057 -1579.8199999999993 L 23.000000000000057 -1579.82 L 24.00000000000003 -1566.9999999999995 L 24.00000000000003 -1567.0000000000002 L 25 -1554.2199999999998 L 25 -1554.2200000000005 L 25.99999999999997 -1541.48 L 25.99999999999997 -1541.4800000000007 L 27.000000000000057 -1528.779999999999 L 27.000000000000057 -1528.7799999999997 L 28.00000000000003 -1516.1199999999994 L 28.00000000000003 -1516.1200000000001 L 29 -1503.4999999999998 L 29 -1503.5000000000005 L 30 -1490.92 L 30 -1490.9200000000008 L 30.99999999999997 -1478.3800000000003 L 30.99999999999997 -1478.380000000001 L 32.00000000000003 -1465.8799999999994 L 32.00000000000003 -1465.88 L 33 -1453.4199999999996 L 33 -1453.4200000000003 L 34 -1441.0000000000002 L 34 -1441.000000000001 L 34.99999999999997 -1428.6200000000003 L 34.99999999999997 -1428.620000000001 L 36.00000000000003 -1416.2799999999995 L 36.00000000000003 -1416.2800000000002 L 37 -1403.9799999999998 L 37 -1403.9800000000005 L 38 -1391.72 L 38 -1391.7200000000007 L 38.99999999999997 -1379.5000000000002 L 38.99999999999997 -1379.5000000000011 L 40.00000000000003 -1367.3199999999997 L 40.00000000000003 -1367.3200000000004 L 41.00000000000003 -1355.1799999999998 L 41.00000000000003 -1355.1800000000005 L 42 -1343.08 L 42 -1343.0800000000006 L 42.99999999999997 -1331.0200000000004 L 42.99999999999997 -1331.0200000000011 L 44.00000000000003 -1318.9999999999995 L 44.00000000000003 -1319.0000000000002 L 45.00000000000003 -1307.0199999999998 L 45.00000000000003 -1307.0200000000004 L 46 -1295.08 L 46 -1295.0800000000006 L 47.00000000000003 -1283.1799999999996 L 47.00000000000003 -1283.1800000000003 L 48 -1271.32 L 48 -1271.3200000000006 L 49.00000000000003 -1259.4999999999998 L 49.00000000000003 -1259.5000000000005 L 50 -1247.7199999999998 L 50 -1247.7200000000005 L 51.00000000000003 -1235.9799999999996 L 51.00000000000003 -1235.9800000000002 L 52 -1224.2799999999997 L 52 -1224.2800000000004 L 53.00000000000003 -1212.6199999999997 L 53.00000000000003 -1212.6200000000003 L 54 -1201 L 54 -1201.0000000000007 L 55.00000000000003 -1189.4199999999996 L 55.00000000000003 -1189.4200000000003 L 56 -1177.8799999999999 L 56 -1177.8800000000006 L 57.00000000000003 -1166.3799999999997 L 57.00000000000003 -1166.3800000000006 L 58 -1154.9199999999998 L 58 -1154.9200000000005 L 59.00000000000003 -1143.4999999999993 L 59.00000000000003 -1143.5000000000002 L 60 -1132.1199999999997 L 60 -1132.1200000000003 L 61.00000000000003 -1120.7799999999995 L 61.00000000000003 -1120.7800000000002 L 62 -1109.48 L 62 -1109.4800000000005 L 63 -1098.2200000000003 L 63 -1098.2200000000005 L 64 -1087 L 64 -1087.0000000000005 L 65 -1075.8200000000002 L 65 -1075.8200000000006 L 66 -1064.68 L 66 -1064.6800000000003 L 67 -1053.5800000000002 L 67 -1053.5800000000004 L 68.00000000000003 -1042.52 L 68.00000000000003 -1042.5200000000004 L 69 -1031.5000000000002 L 69 -1031.5000000000007 L 70.00000000000003 -1020.52 L 70.00000000000003 -1020.5200000000002 L 71 -1009.5800000000002 L 71 -1009.5800000000006 L 72.00000000000003 -998.6799999999998 L 72.00000000000003 -998.6800000000003 L 73 -987.8200000000002 L 73 -987.8200000000004 L 74.00000000000003 -977 L 74.00000000000003 -977.0000000000002 L 75 -966.2200000000003 L 75 -966.2200000000005 L 76.00000000000003 -955.4799999999998 L 76.00000000000003 -955.4800000000002 L 77 -944.78 L 77 -944.7800000000004 L 78.00000000000003 -934.1199999999999 L 78.00000000000003 -934.1200000000003 L 79 -923.5000000000002 L 79 -923.5000000000005 L 80.00000000000003 -912.9199999999998 L 80.00000000000003 -912.9200000000003 L 81 -902.3800000000001 L 81 -902.3800000000006 L 82.00000000000003 -891.8799999999997 L 82.00000000000003 -891.8800000000001 L 83 -881.4200000000001 L 83 -881.4200000000003 L 84.00000000000003 -870.9999999999998 L 84.00000000000003 -871 L 85 -860.6199999999999 L 85 -860.6200000000003 L 86.00000000000003 -850.2799999999997 L 86.00000000000003 -850.2800000000002 L 87 -839.98 L 87 -839.9800000000002 L 88.00000000000003 -829.7199999999998 L 88.00000000000003 -829.7200000000003 L 89 -819.5 L 89 -819.5000000000005 L 90.00000000000003 -809.3199999999999 L 90.00000000000003 -809.3200000000002 L 91 -799.1800000000001 L 91 -799.1800000000003 L 92.00000000000003 -789.0799999999997 L 92.00000000000003 -789.0800000000002 L 93 -779.02 L 93 -779.0200000000002 L 94.00000000000003 -768.9999999999998 L 94.00000000000003 -769.0000000000002 L 95 -759.02 L 95 -759.0200000000004 L 96 -749.0800000000004 L 96 -749.0800000000006 L 97 -739.1799999999998 L 97 -739.1800000000003 L 98 -729.3200000000002 L 98 -729.3200000000004 L 99.00000000000003 -719.5 L 99.00000000000003 -719.5000000000002 L 100 -709.7200000000003 L 100 -709.7200000000005 L 101.00000000000003 -699.98 L 101.00000000000003 -699.9800000000002 L 102 -690.2800000000002 L 102 -690.2800000000007 L 103.00000000000003 -680.6199999999999 L 103.00000000000003 -680.6200000000003 L 104 -671.0000000000002 L 104 -671.0000000000005 L 105.00000000000003 -661.4200000000001 L 105.00000000000003 -661.4200000000003 L 106 -651.8800000000001 L 106 -651.8800000000006 L 107.00000000000003 -642.3799999999999 L 107.00000000000003 -642.3800000000003 L 108 -632.9200000000001 L 108 -632.9200000000005 L 109.00000000000003 -623.5 L 109.00000000000003 -623.5000000000002 L 110 -614.1200000000001 L 110 -614.1200000000003 L 111.00000000000003 -604.7799999999997 L 111.00000000000003 -604.7800000000002 L 112 -595.48 L 112 -595.4800000000005 L 113.00000000000003 -586.2199999999998 L 113.00000000000003 -586.2200000000003 L 114 -577 L 114 -577.0000000000005 L 115.00000000000003 -567.8199999999997 L 115.00000000000003 -567.8200000000002 L 116 -558.6799999999998 L 116 -558.6800000000003 L 117.00000000000003 -549.5799999999999 L 117.00000000000003 -549.5800000000002 L 118.00000000000001 -540.52 L 118.00000000000001 -540.5200000000004 L 119.00000000000003 -531.4999999999998 L 119.00000000000003 -531.5 L 120.00000000000001 -522.5199999999998 L 120.00000000000001 -522.5200000000002 L 121.00000000000003 -513.5799999999997 L 121.00000000000003 -513.5800000000002 L 122.00000000000001 -504.6799999999999 L 122.00000000000001 -504.68000000000023 L 123.00000000000003 -495.81999999999977 L 123.00000000000003 -495.8200000000001 L 124.00000000000001 -486.99999999999983 L 124.00000000000001 -487.0000000000003 L 125.00000000000003 -478.21999999999974 L 125.00000000000003 -478.2200000000001 L 126.00000000000001 -469.47999999999985 L 126.00000000000001 -469.4800000000002 L 126.99999999999999 -460.78000000000003 L 126.99999999999999 -460.78000000000037 L 128 -452.11999999999983 L 128 -452.1200000000002 L 129 -443.50000000000006 L 129 -443.5000000000004 L 130 -434.9199999999999 L 130 -434.92000000000036 L 131 -426.38000000000017 L 131 -426.3800000000005 L 132 -417.87999999999994 L 132 -417.8800000000003 L 133 -409.42 L 133 -409.42000000000047 L 134 -400.99999999999983 L 134 -401.00000000000017 L 135 -392.61999999999995 L 135 -392.6200000000003 L 136 -384.2799999999999 L 136 -384.28000000000026 L 137 -375.9800000000001 L 137 -375.9800000000004 L 138.00000000000003 -367.71999999999997 L 138.00000000000003 -367.7200000000003 L 139 -359.50000000000006 L 139 -359.5000000000004 L 140.00000000000003 -351.31999999999977 L 140.00000000000003 -351.3200000000001 L 141 -343.1799999999999 L 141 -343.18000000000023 L 142.00000000000003 -335.07999999999976 L 142.00000000000003 -335.0800000000002 L 143 -327.0199999999999 L 143 -327.02000000000027 L 144.00000000000003 -318.99999999999983 L 144.00000000000003 -319.00000000000017 L 145 -311.02000000000004 L 145 -311.02000000000015 L 146.00000000000003 -303.07999999999987 L 146.00000000000003 -303.0800000000001 L 147 -295.1800000000001 L 147 -295.18000000000023 L 148.00000000000003 -287.3199999999999 L 148.00000000000003 -287.32 L 149 -279.50000000000006 L 149 -279.50000000000017 L 150.00000000000003 -271.71999999999986 L 150.00000000000003 -271.7200000000001 L 151 -263.9800000000001 L 151 -263.9800000000002 L 152.00000000000003 -256.2799999999998 L 152.00000000000003 -256.28000000000003 L 153 -248.61999999999995 L 153 -248.62000000000018 L 154.00000000000003 -240.99999999999983 L 154.00000000000003 -240.99999999999994 L 155 -233.42000000000002 L 155 -233.42000000000013 L 156.00000000000006 -225.87999999999982 L 156.00000000000006 -225.87999999999994 L 157 -218.37999999999994 L 157 -218.38000000000017 L 158 -210.92000000000013 L 158 -210.92000000000024 L 159 -203.50000000000006 L 159 -203.50000000000017 L 160 -196.12000000000018 L 160 -196.1200000000003 L 161 -188.77999999999992 L 161 -188.78000000000014 L 162 -181.48000000000008 L 162 -181.4800000000003 L 163 -174.21999999999997 L 163 -174.22000000000008 L 164 -167.00000000000006 L 164 -167.00000000000028 L 165 -159.82 L 165 -159.8200000000001 L 166 -152.68000000000012 L 166 -152.68000000000023 L 167.00000000000003 -145.57999999999987 L 167.00000000000003 -145.5800000000001 L 168 -138.52000000000015 L 168 -138.52000000000027 L 169.00000000000003 -131.49999999999994 L 169.00000000000003 -131.50000000000017 L 170 -124.52000000000004 L 170 -124.52000000000027 L 171.00000000000003 -117.57999999999987 L 171.00000000000003 -117.5800000000001 L 172 -110.68000000000012 L 172 -110.68000000000023 L 173.00000000000003 -103.81999999999988 L 173.00000000000003 -103.8200000000001 L 174 -97.00000000000006 L 174 -97.00000000000017 L 175.00000000000003 -90.21999999999997 L 175.00000000000003 -90.22000000000008 L 176 -83.48000000000008 L 176 -83.4800000000003 L 177.00000000000003 -76.77999999999992 L 177.00000000000003 -76.78000000000009 L 178 -70.12000000000006 L 178 -70.12000000000023 L 179.00000000000003 -63.49999999999983 L 179.00000000000003 -63.5 L 180 -56.920000000000016 L 180 -56.920000000000186 L 181.00000000000003 -50.37999999999988 L 181.00000000000003 -50.38000000000005 L 182 -43.879999999999995 L 182 -43.88000000000022 L 183.00000000000003 -37.4199999999999 L 183.00000000000003 -37.42000000000007 L 184 -31 L 184 -31.000000000000227 L 185.00000000000003 -24.61999999999989 L 185.00000000000003 -24.62000000000006 L 186 -18.28000000000003 L 186 -18.2800000000002 L 187.00000000000003 -11.979999999999848 L 187.00000000000003 -11.980000000000018 L 188 -5.71999999999997 L 188 -5.720000000000141 L 189.00000000000003 0.5000000000001705 L 189.00000000000003 0.5 L 190 6.680000000000064 L 190 6.679999999999893 L 191 12.81999999999988 L 191 12.819999999999709 L 192.00000000000003 18.920000000000073 L 192.00000000000003 18.919999999999902 L 193 24.979999999999848 L 193 24.979999999999677 L 194.00000000000003 31.000000000000057 L 194.00000000000003 30.999999999999886 L 195 36.97999999999996 L 195 36.97999999999979 L 196.00000000000003 42.92000000000007 L 196.00000000000003 42.9199999999999 L 197 48.81999999999988 L 197 48.81999999999971 L 198.00000000000003 54.68000000000012 L 198.00000000000003 54.67999999999989 L 199 60.49999999999994 L 199 60.49999999999977 L 200.00000000000003 66.28000000000003 L 200.00000000000003 66.27999999999986 L 201 72.01999999999992 L 201 72.01999999999975 L 202.00000000000003 77.72000000000014 L 202.00000000000003 77.71999999999997 L 203 83.37999999999988 L 203 83.37999999999982 L 204.00000000000003 89.00000000000006 L 204.00000000000003 88.99999999999994 L 205 94.57999999999993 L 205 94.57999999999987 L 206.00000000000003 100.12000000000006 L 206.00000000000003 100.11999999999995 L 207 105.61999999999995 L 207 105.61999999999983 L 208.00000000000003 111.0800000000001 L 208.00000000000003 111.07999999999998 L 209 116.49999999999994 L 209 116.49999999999989 L 210.00000000000003 121.88000000000011 L 210.00000000000003 121.88 L 211 127.21999999999991 L 211 127.21999999999986 L 212.00000000000003 132.52000000000004 L 212.00000000000003 132.51999999999998 L 213 137.77999999999997 L 213 137.77999999999986 L 214.00000000000003 143.0000000000001 L 214.00000000000003 143 L 215 148.17999999999995 L 215 148.1799999999999 L 216.00000000000003 153.32000000000005 L 216.00000000000003 153.32 L 217 158.42000000000002 L 217 158.4199999999999 L 218.00000000000003 163.48000000000008 L 218.00000000000003 163.48000000000002 L 219.00000000000003 168.5 L 219.00000000000003 168.4999999999999 L 220.00000000000003 173.48000000000013 L 220.00000000000003 173.48000000000002 L 221.00000000000003 178.42000000000002 L 221.00000000000003 178.4199999999999 L 222.00000000000003 183.32000000000014 L 222.00000000000003 183.32000000000005 L 223.00000000000003 188.17999999999998 L 223.00000000000003 188.1799999999999 L 224 192.99999999999991 L 224 192.9999999999998 L 225.00000000000003 197.78 L 225.00000000000003 197.77999999999992 L 226 202.51999999999992 L 226 202.51999999999984 L 227.00000000000003 207.22000000000003 L 227.00000000000003 207.21999999999994 L 228 211.8799999999999 L 228 211.87999999999982 L 229.00000000000003 216.5 L 229.00000000000003 216.49999999999991 L 230 221.07999999999996 L 230 221.07999999999987 L 231.00000000000003 225.62000000000003 L 231.00000000000003 225.61999999999995 L 232 230.11999999999992 L 232 230.11999999999983 L 233.00000000000003 234.58000000000007 L 233.00000000000003 234.57999999999996 L 234 238.99999999999997 L 234 238.9999999999999 L 235.00000000000003 243.38000000000005 L 235.00000000000003 243.37999999999997 L 236 247.71999999999994 L 236 247.71999999999986 L 237.00000000000003 252.02000000000004 L 237.00000000000003 252.01999999999995 L 238 256.28 L 238 256.27999999999986 L 239.00000000000003 260.5000000000001 L 239.00000000000003 260.5 L 240 264.67999999999995 L 240 264.6799999999999 L 241.00000000000003 268.82000000000005 L 241.00000000000003 268.81999999999994 L 242 272.91999999999996 L 242 272.9199999999999 L 243.00000000000003 276.9800000000001 L 243.00000000000003 276.98 L 244 281 L 244 280.9999999999999 L 245.00000000000003 284.98 L 245.00000000000003 284.98 L 246 288.91999999999996 L 246 288.91999999999996 L 247.00000000000003 292.81999999999994 L 247.00000000000003 292.81999999999994 L 248.00000000000003 296.67999999999995 L 248.00000000000003 296.67999999999995 L 249.00000000000003 300.5 L 249.00000000000003 300.49999999999994 L 250.00000000000003 304.28 L 250.00000000000003 304.28 L 251.00000000000003 308.02 L 251.00000000000003 308.02 L 252.00000000000003 311.71999999999997 L 252.00000000000003 311.7199999999999 L 253.00000000000003 315.38 L 253.00000000000003 315.38 L 254.00000000000003 319 L 254.00000000000003 318.99999999999994 L 255.00000000000003 322.58000000000004 L 255.00000000000003 322.58 L 256 326.12 L 256 326.11999999999995 L 257 329.62 L 257 329.61999999999995 L 258 333.08 L 258 333.0799999999999 L 259 336.5 L 259 336.5 L 260 339.88 L 260 339.88 L 261 343.22 L 261 343.21999999999997 L 262 346.52000000000004 L 262 346.52 L 263 349.78000000000003 L 263 349.78 L 264 353 L 264 353 L 265 356.18 L 265 356.17999999999995 L 266 359.32000000000005 L 266 359.32 L 267 362.4200000000001 L 267 362.42 L 268.00000000000006 365.48 L 268.00000000000006 365.48 L 269.00000000000006 368.50000000000006 L 269.00000000000006 368.5 L 270.00000000000006 371.48 L 270.00000000000006 371.48 L 271 374.41999999999996 L 271 374.41999999999996 L 272 377.32 L 272 377.31999999999994 L 273 380.18 L 273 380.17999999999995 L 274 383 L 274 382.99999999999994 L 275 385.78 L 275 385.78 L 276 388.52 L 276 388.52 L 277 391.21999999999997 L 277 391.21999999999997 L 278 393.88 L 278 393.88 L 279 396.5 L 279 396.49999999999994 L 280 399.08 L 280 399.08 L 281 401.62 L 281 401.62 L 282 404.12 L 282 404.12 L 283 406.58 L 283 406.58 L 284 409 L 284 409 L 285 411.38 L 285 411.38 L 286 413.72 L 286 413.71999999999997 L 287 416.02000000000004 L 287 416.02 L 288 418.28000000000003 L 288 418.28 L 289 420.5 L 289 420.5 L 290 422.68 L 290 422.68 L 291 424.82 L 291 424.82 L 292 426.92 L 292 426.92 L 293 428.98 L 293 428.98 L 294 431 L 294 431 L 295 432.98 L 295 432.98 L 296 434.92 L 296 434.92 L 297 436.82000000000005 L 297 436.82 L 298 438.68 L 298 438.68 L 299 440.5 L 299 440.5 L 300.00000000000006 442.28000000000003 L 300.00000000000006 442.28000000000003 L 301.00000000000006 444.02000000000004 L 301.00000000000006 444.02000000000004 L 302 445.71999999999997 L 302 445.71999999999997 L 303 447.38 L 303 447.38 L 304 449 L 304 449 L 305 450.58 L 305 450.58 L 306 452.12 L 306 452.12 L 307 453.62 L 307 453.62 L 308 455.08 L 308 455.08 L 309 456.5 L 309 456.5 L 310 457.88 L 310 457.88 L 311 459.22 L 311 459.22 L 312 460.52000000000004 L 312 460.52 L 313 461.78000000000003 L 313 461.78000000000003 L 314 463 L 314 463 L 315 464.18 L 315 464.18 L 316 465.32 L 316 465.32 L 317 466.42 L 317 466.42 L 318 467.48 L 318 467.48 L 319 468.5 L 319 468.5 L 320 469.48 L 320 469.48 L 321 470.42 L 321 470.42 L 322 471.32000000000005 L 322 471.32 L 323 472.18 L 323 472.18 L 324 473 L 324 473 L 325 473.78000000000003 L 325 473.78000000000003 L 326 474.52000000000004 L 326 474.52000000000004 L 327 475.22 L 327 475.22 L 328 475.88000000000005 L 328 475.88000000000005 L 329 476.5 L 329 476.5 L 330 477.08000000000004 L 330 477.08000000000004 L 331 477.62 L 331 477.62 L 332 478.12 L 332 478.12 L 333 478.58000000000004 L 333 478.58000000000004 L 334 479.00000000000006 L 334 479.00000000000006 L 335 479.38 L 335 479.38 L 336 479.72 L 336 479.72 L 337 480.02000000000004 L 337 480.02000000000004 L 338 480.28000000000003 L 338 480.28000000000003 L 339 480.5 L 339 480.5 L 340 480.68000000000006 L 340 480.68000000000006 L 341 480.82000000000005 L 341 480.82000000000005 L 342 480.92 L 342 480.92 L 343 480.98 L 343 480.98 L 344 481.00000000000006 L 344 481.00000000000006 L 345 480.98 L 345 480.98 L 346 480.92 L 346 480.92 L 347 480.82000000000005 L 347 480.82000000000005 L 348 480.68000000000006 L 348 480.68000000000006 L 349 480.50000000000006 L 349 480.50000000000006 L 350 480.28000000000003 L 350 480.28000000000003 L 351 480.02000000000004 L 351 480.02000000000004 L 352 479.72 L 352 479.72 L 353 479.38000000000005 L 353 479.38000000000005 L 354 479.00000000000006 L 354 479.00000000000006 L 355 478.58000000000004 L 355 478.58000000000004 L 356 478.12000000000006 L 356 478.12000000000006 L 357 477.62000000000006 L 357 477.62000000000006 L 358 477.08000000000004 L 358 477.08000000000004 L 359 476.50000000000006 L 359 476.50000000000006 L 360 475.88000000000005 L 360 475.88000000000005 L 361 475.22 L 361 475.22 L 362 474.52000000000004 L 362 474.52000000000004 L 363 473.78000000000003 L 363 473.78000000000003 L 364 473.00000000000006 L 364 473.00000000000006 L 365.00000000000006 472.18000000000006 L 365.00000000000006 472.18000000000006 L 366 471.32000000000005 L 366 471.32000000000005 L 367.00000000000006 470.42 L 367.00000000000006 470.4200000000001 L 368 469.4800000000001 L 368 469.4800000000001 L 369.00000000000006 468.50000000000006 L 369.00000000000006 468.50000000000006 L 370 467.4800000000001 L 370 467.4800000000001 L 371.00000000000006 466.42 L 371.00000000000006 466.4200000000001 L 372 465.32000000000005 L 372 465.32000000000005 L 373 464.18000000000006 L 373 464.18000000000006 L 374 463.00000000000006 L 374 463.00000000000006 L 375 461.7800000000001 L 375 461.7800000000001 L 376 460.52000000000004 L 376 460.5200000000001 L 377 459.2200000000001 L 377 459.2200000000001 L 378 457.88000000000005 L 378 457.88000000000005 L 379 456.50000000000006 L 379 456.50000000000006 L 380 455.08000000000004 L 380 455.08000000000004 L 381 453.62000000000006 L 381 453.62000000000006 L 382 452.12000000000006 L 382 452.12000000000006 L 383 450.58000000000004 L 383 450.58000000000004 L 384 449.00000000000006 L 384 449.00000000000006 L 385 447.38000000000005 L 385 447.38000000000005 L 386 445.72 L 386 445.7200000000001 L 387 444.02000000000004 L 387 444.0200000000001 L 388 442.28000000000003 L 388 442.2800000000001 L 389 440.50000000000006 L 389 440.50000000000006 L 390 438.68000000000006 L 390 438.68000000000006 L 391 436.8200000000001 L 391 436.8200000000001 L 392 434.9200000000001 L 392 434.9200000000001 L 393 432.9800000000001 L 393 432.98000000000013 L 394 431.00000000000006 L 394 431.00000000000006 L 395 428.9800000000001 L 395 428.98000000000013 L 396 426.92 L 396 426.9200000000001 L 397 424.8200000000001 L 397 424.8200000000001 L 398 422.68000000000006 L 398 422.68000000000006 L 399 420.5000000000001 L 399 420.5000000000001 L 400 418.28000000000003 L 400 418.2800000000001 L 401 416.0200000000001 L 401 416.0200000000001 L 402 413.72 L 402 413.7200000000001 L 403 411.3800000000001 L 403 411.3800000000001 L 404 409.0000000000001 L 404 409.0000000000001 L 405 406.5800000000001 L 405 406.5800000000001 L 406 404.12000000000006 L 406 404.1200000000001 L 407 401.62000000000006 L 407 401.6200000000001 L 408 399.0800000000001 L 408 399.0800000000001 L 409 396.5000000000001 L 409 396.5000000000001 L 410 393.8800000000001 L 410 393.8800000000001 L 411 391.2200000000001 L 411 391.2200000000001 L 412 388.5200000000001 L 412 388.5200000000001 L 413 385.7800000000001 L 413 385.7800000000001 L 414 383.00000000000006 L 414 383.0000000000001 L 415 380.18000000000006 L 415 380.1800000000001 L 416 377.32000000000005 L 416 377.3200000000001 L 417 374.4200000000001 L 417 374.42000000000013 L 418 371.4800000000001 L 418 371.48000000000013 L 419 368.50000000000006 L 419 368.5000000000001 L 420 365.4800000000001 L 420 365.48000000000013 L 421 362.4200000000001 L 421 362.42000000000013 L 422 359.32000000000005 L 422 359.3200000000001 L 423 356.18000000000006 L 423 356.18000000000006 L 424 353.00000000000006 L 424 353.0000000000001 L 425 349.78000000000003 L 425 349.7800000000001 L 426 346.52000000000004 L 426 346.5200000000001 L 427 343.22 L 427 343.2200000000001 L 428 339.8800000000001 L 428 339.88000000000017 L 429 336.50000000000006 L 429 336.5000000000001 L 430 333.0800000000001 L 430 333.08000000000015 L 431 329.62 L 431 329.62000000000006 L 432 326.1200000000001 L 432 326.1200000000001 L 433 322.58000000000015 L 433 322.58000000000015 L 434 319.0000000000001 L 434 319.00000000000017 L 435 315.3800000000001 L 435 315.38000000000017 L 436 311.72000000000014 L 436 311.72000000000014 L 437 308.0200000000001 L 437 308.02000000000015 L 438 304.2800000000001 L 438 304.28000000000014 L 439 300.5000000000001 L 439 300.5000000000001 L 440 296.68000000000006 L 440 296.6800000000002 L 441 292.8200000000001 L 441 292.82000000000016 L 442 288.9200000000001 L 442 288.9200000000002 L 443 284.98000000000013 L 443 284.98000000000013 L 444 281.0000000000001 L 444 281.0000000000001 L 445.00000000000006 276.98 L 445.00000000000006 276.9800000000001 L 446 272.9200000000001 L 446 272.9200000000002 L 447 268.82000000000016 L 447 268.8200000000003 L 448 264.68000000000006 L 448 264.6800000000002 L 449 260.50000000000017 L 449 260.5000000000002 L 450 256.2800000000001 L 450 256.28000000000014 L 451 252.02000000000018 L 451 252.02000000000027 L 452 247.72000000000006 L 452 247.72000000000017 L 453 243.38000000000014 L 453 243.38000000000025 L 454 239.00000000000006 L 454 239.00000000000014 L 455 234.58000000000015 L 455 234.58000000000024 L 456 230.12000000000006 L 456 230.12000000000015 L 457 225.62000000000015 L 457 225.62000000000026 L 458 221.08000000000004 L 458 221.08000000000013 L 459 216.50000000000014 L 459 216.50000000000023 L 460 211.88000000000002 L 460 211.88000000000014 L 461 207.22000000000014 L 461 207.22000000000023 L 462 202.52000000000004 L 462 202.52000000000012 L 463 197.78000000000011 L 463 197.78000000000023 L 464.00000000000006 193.00000000000003 L 464.00000000000006 193.0000000000001 L 465 188.18000000000012 L 465 188.1800000000002 L 466.00000000000006 183.32000000000005 L 466.00000000000006 183.32000000000014 L 467 178.42000000000013 L 467 178.42000000000021 L 468.00000000000006 173.48000000000002 L 468.00000000000006 173.48000000000013 L 469 168.5000000000001 L 469 168.50000000000023 L 470.00000000000006 163.48000000000002 L 470.00000000000006 163.48000000000008 L 471 158.42000000000013 L 471 158.42000000000024 L 472.00000000000006 153.32 L 472.00000000000006 153.32000000000005 L 473 148.18000000000012 L 473 148.18000000000018 L 474 143.00000000000023 L 474 143.00000000000034 L 475 137.7800000000001 L 475 137.7800000000002 L 476.00000000000006 132.51999999999998 L 476.00000000000006 132.52000000000004 L 477 127.22000000000014 L 477 127.2200000000002 L 478 121.88000000000022 L 478 121.88000000000028 L 479 116.50000000000011 L 479 116.50000000000017 L 480.00000000000006 111.07999999999998 L 480.00000000000006 111.0800000000001 L 481 105.62000000000012 L 481 105.62000000000018 L 482 100.12000000000023 L 482 100.12000000000029 L 483 94.5800000000001 L 483 94.58000000000015 L 484 89.00000000000023 L 484 89.00000000000028 L 485 83.38000000000005 L 485 83.38000000000017 L 486 77.72000000000014 L 486 77.72000000000031 L 487 72.01999999999998 L 487 72.02000000000015 L 488 66.28000000000014 L 488 66.28000000000031 L 489 60.50000000000006 L 489 60.50000000000023 L 490 54.68000000000018 L 490 54.68000000000035 L 491 48.81999999999999 L 491 48.820000000000164 L 492 42.92000000000013 L 492 42.92000000000036 L 493.00000000000006 36.97999999999996 L 493.00000000000006 36.98000000000013 L 494 31.000000000000114 L 494 31.00000000000034 L 495.00000000000006 24.97999999999996 L 495.00000000000006 24.980000000000132 L 496 18.92000000000013 L 496 18.9200000000003 L 497.00000000000006 12.819999999999993 L 497.00000000000006 12.820000000000164 L 498 6.680000000000177 L 498 6.680000000000348 L 499.00000000000006 0.5 L 499.00000000000006 0.5000000000001705 L 500 -5.719999999999914 L 500 -5.719999999999686 L 501.00000000000006 -11.980000000000018 L 501.00000000000006 -11.979999999999848 L 502 -18.279999999999916 L 502 -18.279999999999745 L 503 -24.61999999999972 L 503 -24.61999999999955 L 504.00000000000006 -30.999999999999943 L 504.00000000000006 -30.999999999999773 L 505.00000000000006 -37.42000000000007 L 505.00000000000006 -37.4199999999999 L 506.00000000000006 -43.87999999999994 L 506.00000000000006 -43.87999999999977 L 507 -50.37999999999977 L 507 -50.3799999999996 L 508.00000000000006 -56.9199999999999 L 508.00000000000006 -56.91999999999973 L 509.00000000000006 -63.5 L 509.00000000000006 -63.49999999999983 L 510.00000000000006 -70.11999999999989 L 510.00000000000006 -70.11999999999972 L 511 -76.7799999999998 L 511 -76.77999999999963 L 512 -83.47999999999996 L 512 -83.47999999999973 L 513 -90.22000000000008 L 513 -90.21999999999997 L 514 -96.99999999999994 L 514 -96.99999999999972 L 515 -103.81999999999977 L 515 -103.81999999999954 L 516 -110.6799999999999 L 516 -110.67999999999978 L 517 -117.5800000000001 L 517 -117.57999999999987 L 518 -124.52000000000004 L 518 -124.51999999999981 L 519 -131.49999999999983 L 519 -131.4999999999996 L 520 -138.51999999999992 L 520 -138.5199999999998 L 521 -145.57999999999987 L 521 -145.57999999999964 L 522 -152.68 L 522 -152.67999999999978 L 523 -159.81999999999977 L 523 -159.81999999999954 L 524 -166.99999999999994 L 524 -166.99999999999983 L 525 -174.21999999999974 L 525 -174.21999999999963 L 526 -181.47999999999996 L 526 -181.47999999999985 L 527 -188.7799999999998 L 527 -188.7799999999997 L 528 -196.11999999999995 L 528 -196.11999999999983 L 529 -203.49999999999983 L 529 -203.4999999999996 L 530 -210.92000000000002 L 530 -210.9199999999999 L 531 -218.37999999999982 L 531 -218.3799999999997 L 532 -225.87999999999994 L 532 -225.87999999999982 L 533 -233.4199999999998 L 533 -233.41999999999967 L 534 -240.99999999999994 L 534 -240.99999999999983 L 535 -248.61999999999983 L 535 -248.6199999999996 L 536 -256.2799999999997 L 536 -256.2799999999996 L 537 -263.97999999999985 L 537 -263.97999999999973 L 538 -271.7200000000001 L 538 -271.71999999999986 L 539 -279.49999999999983 L 539 -279.4999999999997 L 540 -287.31999999999965 L 540 -287.31999999999954 L 541 -295.1799999999999 L 541 -295.1799999999998 L 542 -303.0800000000001 L 542 -303.07999999999987 L 543 -311.0199999999999 L 543 -311.0199999999997 L 544 -318.99999999999983 L 544 -318.9999999999995 L 545 -327.0199999999999 L 545 -327.0199999999996 L 546 -335.0800000000002 L 546 -335.07999999999976 L 547 -343.1799999999999 L 547 -343.17999999999955 L 548 -351.31999999999977 L 548 -351.3199999999994 L 549 -359.50000000000006 L 549 -359.4999999999997 L 550 -367.7200000000003 L 550 -367.71999999999997 L 551 -375.9800000000001 L 551 -375.9799999999996 L 552 -384.2799999999999 L 552 -384.27999999999946 L 553 -392.61999999999995 L 553 -392.6199999999996 L 554 -401.00000000000017 L 554 -400.99999999999983 L 555 -409.42 L 555 -409.4199999999997 L 556 -417.87999999999994 L 556 -417.8799999999995 L 557 -426.37999999999994 L 557 -426.3799999999996 L 558 -434.9199999999998 L 558 -434.91999999999945 L 559 -443.50000000000006 L 559 -443.4999999999997 L 560 -452.11999999999983 L 560 -452.1199999999995 L 561 -460.7799999999997 L 561 -460.77999999999935 L 562 -469.47999999999985 L 562 -469.4799999999995 L 563 -478.2200000000001 L 563 -478.21999999999974 L 564 -486.99999999999983 L 564 -486.9999999999995 L 565 -495.81999999999977 L 565 -495.8199999999994 L 566 -504.6799999999999 L 566 -504.67999999999955 L 567 -513.5800000000002 L 567 -513.5799999999997 L 568 -522.5199999999998 L 568 -522.5199999999995 L 569 -531.4999999999998 L 569 -531.4999999999993 L 570 -540.52 L 570 -540.5199999999998 L 571 -549.5800000000002 L 571 -549.5799999999999 L 572 -558.6799999999998 L 572 -558.6799999999996 L 573 -567.8199999999997 L 573 -567.8199999999995 L 574 -576.9999999999998 L 574 -576.9999999999995 L 575 -586.2200000000003 L 575 -586.2199999999998 L 576 -595.48 L 576 -595.4799999999996 L 577 -604.7799999999997 L 577 -604.7799999999995 L 578 -614.1200000000001 L 578 -614.1199999999997 L 579 -623.5000000000002 L 579 -623.5 L 580 -632.9200000000001 L 580 -632.9199999999996 L 581 -642.3799999999997 L 581 -642.3799999999994 L 582 -651.8800000000001 L 582 -651.8799999999997 L 583 -661.4200000000003 L 583 -661.4200000000001 L 584 -671 L 584 -670.9999999999998 L 585 -680.6199999999999 L 585 -680.6199999999994 L 586 -690.28 L 586 -690.2799999999997 L 587 -699.9800000000002 L 587 -699.98 L 588 -709.72 L 588 -709.7199999999996 L 589 -719.5 L 589 -719.4999999999995 L 590 -729.3200000000002 L 590 -729.3199999999997 L 591 -739.1799999999998 L 591 -739.1799999999996 L 592 -749.0800000000002 L 592 -749.0799999999997 L 593 -759.0199999999998 L 593 -759.0199999999995 L 594 -768.9999999999998 L 594 -768.9999999999993 L 595 -779.02 L 595 -779.0199999999995 L 596 -789.0800000000002 L 596 -789.0799999999997 L 597 -799.1799999999998 L 597 -799.1799999999994 L 598 -809.3199999999997 L 598 -809.3199999999993 L 599 -819.5 L 599 -819.4999999999995 L 600 -829.7200000000003 L 600 -829.7199999999998 L 601 -839.98 L 601 -839.9799999999996 L 602 -850.2799999999997 L 602 -850.2799999999993 L 603 -860.6199999999999 L 603 -860.6199999999997 L 604 -871 L 604 -870.9999999999998 L 605 -881.4200000000001 L 605 -881.4199999999996 L 606 -891.8799999999997 L 606 -891.8799999999994 L 607 -902.3799999999999 L 607 -902.3799999999997 L 608 -912.9200000000003 L 608 -912.9199999999998 L 609 -923.5 L 609 -923.4999999999995 L 610 -934.1199999999997 L 610 -934.1199999999994 L 611 -944.78 L 611 -944.7799999999995 L 612 -955.4800000000002 L 612 -955.4799999999998 L 613 -966.22 L 613 -966.2199999999996 L 614 -976.9999999999998 L 614 -976.9999999999993 L 615 -987.8199999999999 L 615 -987.8199999999995 L 616 -998.6800000000003 L 616 -998.6799999999998 L 617 -1009.5799999999999 L 617 -1009.5799999999997 L 618 -1020.5199999999998 L 618 -1020.5199999999993 L 619 -1031.5 L 619 -1031.4999999999998 L 620 -1042.5200000000004 L 620 -1042.52 L 621 -1053.5800000000002 L 621 -1053.5799999999997 L 622 -1064.6799999999998 L 622 -1064.6799999999994 L 623 -1075.8199999999997 L 623 -1075.8199999999993 L 624 -1086.9999999999998 L 624 -1086.9999999999995 L 625 -1098.2200000000003 L 625 -1098.2199999999998 L 626 -1109.4799999999998 L 626 -1109.4799999999996 L 627 -1120.7799999999997 L 627 -1120.779999999999 L 628 -1132.1200000000001 L 628 -1132.1199999999992 L 629 -1143.5000000000002 L 629 -1143.4999999999993 L 630 -1154.92 L 630 -1154.9199999999994 L 631 -1166.3799999999997 L 631 -1166.379999999999 L 632 -1177.8799999999999 L 632 -1177.8799999999992 L 633 -1189.4200000000003 L 633 -1189.4199999999996 L 634 -1201 L 634 -1200.9999999999993 L 635 -1212.62 L 635 -1212.6199999999992 L 636 -1224.2800000000002 L 636 -1224.2799999999995 L 637 -1235.9800000000002 L 637 -1235.9799999999996 L 638 -1247.7200000000003 L 638 -1247.7199999999996 L 639 -1259.4999999999998 L 639 -1259.499999999999 L 640 -1271.3200000000002 L 640 -1271.3199999999995 L 641 -1283.1800000000003 L 641 -1283.1799999999996 L 642 -1295.0800000000004 L 642 -1295.0799999999997 L 643 -1307.0199999999998 L 643 -1307.019999999999 L 644 -1318.9999999999995 L 644 -1318.9999999999989 L 645 -1331.0200000000004 L 645 -1331.0199999999998 L 646 -1343.0800000000004 L 646 -1343.0799999999997 L 647 -1355.1799999999998 L 647 -1355.1799999999992 L 648.0000000000001 -1367.3200000000006 L 648.0000000000001 -1367.32 L 649 -1379.5000000000002 L 649 -1379.4999999999995 L 650 -1391.7200000000003 L 650 -1391.7199999999996 L 651 -1403.9799999999998 L 651 -1403.979999999999 L 652 -1416.2799999999995 L 652 -1416.2799999999988 L 653 -1428.6199999999994 L 653 -1428.6199999999988 L 654 -1441.0000000000002 L 654 -1440.9999999999995 L 655 -1453.42 L 655 -1453.4199999999992 L 656.0000000000001 -1465.8800000000008 L 656.0000000000001 -1465.88 L 657 -1478.3800000000003 L 657 -1478.3799999999997 L 658 -1490.9200000000003 L 658 -1490.9199999999996 L 659 -1503.5000000000002 L 659 -1503.4999999999993 L 660 -1516.12 L 660 -1516.1199999999992 L 661 -1528.7799999999995 L 661 -1528.7799999999988 L 662 -1541.4800000000005 L 662 -1541.4799999999998 L 663 -1554.2199999999998 L 663 -1554.2199999999991 L 664.0000000000001 -1567.000000000001 L 664.0000000000001 -1567.0000000000002 L 665 -1579.8200000000006 L 665 -1579.82 L 666 -1592.6800000000005 L 666 -1592.6799999999998 L 667 -1605.5800000000002 L 667 -1605.5799999999995 L 668 -1618.52 L 668 -1618.519999999999 L 669 -1631.4999999999995 L 669 -1631.4999999999986 L 670 -1644.5199999999995 L 670 -1644.5199999999986 L 671 -1657.58 L 671 -1657.5799999999995 L 672 -1670.6799999999998 L 672 -1670.679999999999 L 673.0000000000001 -1683.8200000000006 L 673.0000000000001 -1683.8200000000002 L 674 -1697.0000000000005 L 674 -1696.9999999999995 L 675 -1710.2199999999998 L 675 -1710.2199999999993 L 676 -1723.4799999999996 L 676 -1723.479999999999 L 677 -1736.7799999999997 L 677 -1736.7799999999988 L 678 -1750.1199999999994 L 678 -1750.1199999999985 L 679 -1763.5 L 679 -1763.4999999999995 L 680 -1776.9199999999996 L 680 -1776.9199999999992 L 681.0000000000001 -1790.3800000000006 L 681.0000000000001 -1790.38 L 682 -1803.8800000000006 L 682 -1803.8799999999997 L 683 -1817.42 L 683 -1817.4199999999996 L 684 -1831 L 684 -1830.999999999999 L 685 -1844.62 L 685 -1844.619999999999 L 686 -1858.2799999999993 L 686 -1858.2799999999984 L 687 -1871.98 L 687 -1871.9799999999996 L 688 -1885.7199999999998 L 688 -1885.7199999999993 L 689.0000000000001 -1899.500000000001 L 689.0000000000001 -1899.5 L 690 -1913.3200000000006 L 690 -1913.3199999999997 L 691 -1927.1800000000003 L 691 -1927.1799999999994 L 692 -1941.08 L 692 -1941.0799999999995 L 693 -1955.0199999999995 L 693 -1955.019999999999 L 694 -1968.9999999999995 L 694 -1968.9999999999986 L 695 -1983.0200000000004 L 695 -1983.0199999999995 L 696 -1997.08 L 696 -1997.0799999999995 L 697.0000000000001 -2011.1800000000007 L 697.0000000000001 -2011.1800000000003 L 698 -2025.3200000000006 L 698 -2025.3199999999997 L 699 -2039.5 L 699 -2039.4999999999995 L 700 -2053.7200000000003 L 700 -2053.7199999999993 L 701 -2067.9799999999996 L 701 -2067.9799999999987 L 702 -2082.2799999999993 L 702 -2082.2799999999984 L 703 -2096.6199999999994 L 703 -2096.6199999999985 L 704 -2111 L 704 -2110.9999999999995 L 705 -2125.4199999999996 L 705 -2125.4199999999987 L 706.0000000000001 -2139.8800000000006 L 706.0000000000001 -2139.88 L 707 -2154.38 L 707 -2154.3799999999997 L 708 -2168.92 L 708 -2168.9199999999996 L 709 -2183.5 L 709 -2183.499999999999 L 710 -2198.1199999999994 L 710 -2198.119999999999 L 711 -2212.7799999999993 L 711 -2212.7799999999984 L 712 -2227.48 L 712 -2227.4799999999996 L 713 -2242.22 L 713 -2242.219999999999 L 714.0000000000001 -2257.000000000001 L 714.0000000000001 -2257 L 715 -2271.8200000000006 L 715 -2271.8199999999997 L 716 -2286.6800000000003 L 716 -2286.6799999999994 L 717 -2301.58 L 717 -2301.5799999999995 L 718 -2316.5199999999995 L 718 -2316.519999999999 L 719 -2331.499999999999 L 719 -2331.4999999999986 L 720 -2346.52 L 720 -2346.5199999999995 L 721 -2361.58 L 721 -2361.579999999999 L 722.0000000000001 -2376.6800000000007 L 722.0000000000001 -2376.6800000000003 L 723 -2391.8200000000006 L 723 -2391.82 L 724 -2407 L 724 -2406.9999999999995 L 725 -2422.22 L 725 -2422.219999999999 L 726 -2437.4799999999996 L 726 -2437.4799999999987 L 727 -2452.7799999999993 L 727 -2452.7799999999984 L 728 -2468.12 L 728 -2468.1199999999994 L 729 -2483.5 L 729 -2483.499999999999 L 730.0000000000001 -2498.920000000001 L 730.0000000000001 -2498.9200000000005 L 731.0000000000001 -2514.3800000000006 L 731.0000000000001 -2514.38 L 732 -2529.8800000000006 L 732 -2529.8799999999997 L 733 -2545.42 L 733 -2545.419999999999 L 734 -2560.9999999999995 L 734 -2560.999999999999 L 735 -2576.6199999999994 L 735 -2576.6199999999985 L 736 -2592.279999999999 L 736 -2592.279999999998 L 737 -2607.98 L 737 -2607.979999999999 L 738 -2623.72 L 738 -2623.719999999999 L 739.0000000000001 -2639.5000000000005 L 739.0000000000001 -2639.5 L 740 -2655.32 L 740 -2655.3199999999997 L 741 -2671.18 L 741 -2671.1799999999994 L 742 -2687.08 L 742 -2687.079999999999 L 743 -2703.0199999999995 L 743 -2703.0199999999986 L 744 -2718.9999999999995 L 744 -2718.999999999998 L 745 -2735.0200000000004 L 745 -2735.019999999999 L 746 -2751.08 L 746 -2751.0799999999986 L 747.0000000000001 -2767.1800000000017 L 747.0000000000001 -2767.18 L 748 -2783.3200000000006 L 748 -2783.3199999999993 L 749 -2799.500000000001 L 749 -2799.499999999999 L 750 -2815.72 L 750 -2815.7199999999984 L 751 -2831.9799999999996 L 751 -2831.979999999998 L 752 -2848.2799999999993 L 752 -2848.279999999998 L 753 -2864.6200000000003 L 753 -2864.619999999999 L 754 -2881.0000000000005 L 754 -2880.999999999999 L 755.0000000000001 -2897.4200000000014 L 755.0000000000001 -2897.42 L 756 -2913.8800000000015 L 756 -2913.8799999999997 L 757 -2930.3800000000006 L 757 -2930.379999999999 L 758 -2946.92 L 758 -2946.9199999999987 L 759 -2963.5 L 759 -2963.4999999999986 L 760 -2980.1199999999994 L 760 -2980.119999999998 L 761 -2996.7800000000007 L 761 -2996.7799999999993 L 762 -3013.48 L 762 -3013.4799999999987 L 763 -3030.2200000000016 L 763 -3030.2200000000003 L 764 -3047.000000000001 L 764 -3046.9999999999995 L 765 -3063.8200000000006 L 765 -3063.8199999999993 L 766 -3080.6800000000003 L 766 -3080.679999999999 L 767 -3097.58 L 767 -3097.5799999999986 L 768 -3114.5199999999995 L 768 -3114.519999999998 L 769 -3131.499999999999 L 769 -3131.4999999999977 L 770 -3148.52 L 770 -3148.5199999999986 L 771 -3165.58 L 771 -3165.5799999999986 L 772 -3182.680000000001 L 772 -3182.68 L 773 -3199.8200000000006 L 773 -3199.8199999999993 L 774 -3217.0000000000005 L 774 -3216.9999999999986 L 775 -3234.22 L 775 -3234.2199999999984 L 776 -3251.4799999999996 L 776 -3251.479999999998 L 777 -3268.779999999999 L 777 -3268.7799999999975 L 778 -3286.1200000000003 L 778 -3286.119999999999 L 779 -3303.4999999999995 L 779 -3303.499999999998 L 780 -3320.920000000001 L 780 -3320.9199999999996 L 781 -3338.380000000001 L 781 -3338.379999999999 L 782 -3355.8800000000006 L 782 -3355.879999999999 L 783 -3373.42 L 783 -3373.4199999999987 L 784 -3390.9999999999995 L 784 -3390.999999999998 L 785 -3408.619999999999 L 785 -3408.6199999999976 L 786 -3426.2800000000007 L 786 -3426.2799999999993 L 787 -3443.98 L 787 -3443.979999999998 L 788 -3461.720000000001 L 788 -3461.72 L 789 -3479.500000000001 L 789 -3479.4999999999995 L 790 -3497.3200000000006 L 790 -3497.3199999999993 L 791 -3515.1800000000003 L 791 -3515.1799999999985 L 792 -3533.0799999999995 L 792 -3533.079999999998 L 793 -3551.0199999999995 L 793 -3551.019999999998 L 794 -3569.0000000000005 L 794 -3568.999999999999 L 795 -3587.0200000000004 L 795 -3587.019999999999 L 796 -3605.0800000000017 L 796 -3605.0800000000004 L 797 -3623.180000000001 L 797 -3623.18 L 798 -3641.320000000001 L 798 -3641.3199999999997 L 799 -3659.5000000000005 L 799 -3659.499999999999 L 800 -3677.7200000000003 L 800 -3677.7199999999984 L 801 -3695.9799999999996 L 801 -3695.9799999999977 L 802 -3714.279999999999 L 802 -3714.279999999998 L 803 -3732.620000000001 L 803 -3732.619999999999 L 804 -3751 L 804 -3750.999999999998 L 805 -3769.420000000002 L 805 -3769.42 L 806 -3787.880000000001 L 806 -3787.88 L 807 -3806.380000000001 L 807 -3806.379999999999 L 808 -3824.92 L 808 -3824.9199999999983 L 809 -3843.499999999999 L 809 -3843.499999999998 L 810 -3862.119999999999 L 810 -3862.119999999998 L 811 -3880.7800000000007 L 811 -3880.779999999999 L 812 -3899.4800000000005 L 812 -3899.4799999999987 L 813 -3918.220000000001 L 813 -3918.2200000000003 L 814 -3937.000000000001 L 814 -3936.999999999999 L 815 -3955.8200000000006 L 815 -3955.819999999999 L 816 -3974.6799999999994 L 816 -3974.6799999999985 L 817 -3993.58 L 817 -3993.579999999998 L 818 -4012.5199999999986 L 818 -4012.5199999999977 L 819 -4031.5 L 819 -4031.499999999999 L 820 -4050.5199999999995 L 820 -4050.5199999999986 L 821 -4069.5800000000017 L 821 -4069.58 L 822 -4088.680000000001 L 822 -4088.6799999999994 L 823 -4107.820000000001 L 823 -4107.819999999999 L 824 -4127 L 824 -4126.999999999998 L 825 -4146.22 L 825 -4146.219999999998 L 826 -4165.48 L 826 -4165.479999999998 L 827 -4184.780000000001 L 827 -4184.779999999999 L 828 -4204.12 L 828 -4204.119999999999 L 829.0000000000002 -4223.500000000002 L 829.0000000000002 -4223.5 L 830 -4242.920000000001 L 830 -4242.92 L 831 -4262.380000000001 L 831 -4262.379999999999 L 832 -4281.88 L 832 -4281.879999999998 L 833 -4301.42 L 833 -4301.419999999998 L 834 -4321 L 834 -4320.999999999998 L 835 -4340.619999999999 L 835 -4340.619999999997 L 836 -4360.280000000001 L 836 -4360.279999999999 L 837 -4379.9800000000005 L 837 -4379.979999999999 L 838 -4399.720000000001 L 838 -4399.719999999999 L 839 -4419.500000000001 L 839 -4419.5 L 840 -4439.320000000001 L 840 -4439.319999999999 L 841 -4459.18 L 841 -4459.1799999999985 L 842 -4479.079999999999 L 842 -4479.079999999998 L 843 -4499.019999999999 L 843 -4499.019999999998 L 844 -4519.000000000001 L 844 -4518.999999999999 L 845 -4539.02 L 845 -4539.019999999999 L 846 -4559.080000000001 L 846 -4559.08 L 847 -4579.180000000001 L 847 -4579.179999999999 L 848 -4599.320000000001 L 848 -4599.319999999999 L 849 -4619.5 L 849 -4619.499999999999 L 850 -4639.719999999999 L 850 -4639.7199999999975 L 851 -4659.979999999999 L 851 -4659.979999999998 L 852 -4680.279999999999 L 852 -4680.279999999997 L 853.0000000000002 -4700.620000000002 L 853.0000000000002 -4700.62 L 854 -4721.000000000002 L 854 -4721 L 855 -4741.420000000001 L 855 -4741.419999999999 L 856 -4761.880000000001 L 856 -4761.879999999999 L 857 -4782.38 L 857 -4782.379999999998 L 858 -4802.92 L 858 -4802.919999999998 L 859 -4823.499999999999 L 859 -4823.499999999998 L 860 -4844.119999999999 L 860 -4844.119999999997 L 861.0000000000002 -4864.780000000002 L 861.0000000000002 -4864.780000000001 L 862.0000000000002 -4885.480000000001 L 862.0000000000002 -4885.48 L 863 -4906.220000000001 L 863 -4906.219999999999 L 864 -4927 L 864 -4926.999999999999 L 865 -4947.820000000001 L 865 -4947.819999999999 L 866 -4968.68 L 866 -4968.6799999999985 L 867 -4989.579999999999 L 867 -4989.579999999998 L 868 -5010.519999999999 L 868 -5010.519999999998 L 869 -5031.499999999998 L 869 -5031.499999999997 L 870.0000000000002 -5052.520000000002 L 870.0000000000002 -5052.52 L 871 -5073.580000000001 L 871 -5073.58 L 872 -5094.680000000001 L 872 -5094.679999999999 L 873 -5115.82 L 873 -5115.819999999999 L 874 -5137 L 874 -5136.999999999998 L 875 -5158.219999999999 L 875 -5158.2199999999975 L 876 -5179.479999999999 L 876 -5179.479999999998 L 877 -5200.779999999998 L 877 -5200.779999999997 L 878.0000000000002 -5222.120000000002 L 878.0000000000002 -5222.12 L 879 -5243.500000000002 L 879 -5243.5 L 880 -5264.920000000001 L 880 -5264.919999999999 L 881 -5286.38 L 881 -5286.379999999999 L 882 -5307.88 L 882 -5307.879999999998 L 883 -5329.419999999999 L 883 -5329.419999999998 L 884 -5350.999999999999 L 884 -5350.999999999997 L 885 -5372.619999999998 L 885 -5372.619999999997 L 886.0000000000002 -5394.280000000002 L 886.0000000000002 -5394.280000000001 L 887.0000000000002 -5415.980000000001 L 887.0000000000002 -5415.9800000000005 L 888 -5437.720000000001 L 888 -5437.719999999999 L 889 -5459.5 L 889 -5459.499999999999 L 890 -5481.32 L 890 -5481.319999999999 L 891 -5503.179999999999 L 891 -5503.1799999999985 L 892 -5525.079999999999" stroke-opacity="0.6980392156862745" stroke-linecap="round" stroke-linejoin="round" stroke-miterlimit="10" stroke-width="5"/><text fill="rgb(0,100,0)" stroke="none" font-family="geogebra-sans-serif, sans-serif" font-size="24px" font-style="normal" font-weight="normal" text-decoration="normal" x="169" y="36" text-anchor="start" dominant-baseline="alphabetic" fill-opacity="1">f</text><text fill="none" stroke="rgb(255,255,255)" font-family="geogebra-sans-serif, sans-serif" font-size="24px" font-style="normal" font-weight="normal" text-decoration="normal" x="169" y="36" text-anchor="start" dominant-baseline="alphabetic" stroke-opacity="1" stroke-linejoin="bevel" stroke-miterlimit="10" stroke-width="3">f</text><text fill="rgb(0,100,0)" stroke="none" font-family="geogebra-sans-serif, sans-serif" font-size="24px" font-style="normal" font-weight="normal" text-decoration="normal" x="169" y="36" text-anchor="start" dominant-baseline="alphabetic" fill-opacity="1">f</text><path fill="none" stroke="rgb(0,0,0)" paint-order="fill stroke markers" d=" M 225.2222222222223 573 L 897 89.32000000000039" stroke-opacity="0.6980392156862745" stroke-linecap="round" stroke-linejoin="round" stroke-miterlimit="10" stroke-width="2.5"/><text fill="rgb(0,0,0)" stroke="none" font-family="geogebra-sans-serif, sans-serif" font-size="24px" font-style="normal" font-weight="normal" text-decoration="normal" x="244" y="560" text-anchor="start" dominant-baseline="alphabetic" fill-opacity="1">f-h</text><text fill="none" stroke="rgb(255,255,255)" font-family="geogebra-sans-serif, sans-serif" font-size="24px" font-style="normal" font-weight="normal" text-decoration="normal" x="244" y="560" text-anchor="start" dominant-baseline="alphabetic" stroke-opacity="1" stroke-linejoin="bevel" stroke-miterlimit="10" stroke-width="3">f-h</text><text fill="rgb(0,0,0)" stroke="none" font-family="geogebra-sans-serif, sans-serif" font-size="24px" font-style="normal" font-weight="normal" text-decoration="normal" x="244" y="560" text-anchor="start" dominant-baseline="alphabetic" fill-opacity="1">f-h</text><text fill="rgb(0,0,0)" stroke="none" font-family="geogebra-sans-serif, sans-serif" font-size="24px" font-style="normal" font-weight="normal" text-decoration="normal" x="390" y="229" text-anchor="start" dominant-baseline="alphabetic" fill-opacity="1">f-g</text><text fill="none" stroke="rgb(255,255,255)" font-family="geogebra-sans-serif, sans-serif" font-size="24px" font-style="normal" font-weight="normal" text-decoration="normal" x="390" y="229" text-anchor="start" dominant-baseline="alphabetic" stroke-opacity="1" stroke-linejoin="bevel" stroke-miterlimit="10" stroke-width="3">f-g</text><text fill="rgb(0,0,0)" stroke="none" font-family="geogebra-sans-serif, sans-serif" font-size="24px" font-style="normal" font-weight="normal" text-decoration="normal" x="390" y="229" text-anchor="start" dominant-baseline="alphabetic" fill-opacity="1">f-g</text><path fill="none" stroke="rgb(0,0,0)" paint-order="fill stroke markers" d=" M 269.00000000000006 368.5000000000001 L 487 72.0200000000001" stroke-opacity="0.6980392156862745" stroke-linecap="round" stroke-linejoin="round" stroke-miterlimit="10" stroke-width="2.5"/><path fill="none" stroke="rgb(0,51,204)" paint-order="fill stroke markers" d=" M 269.00000000000006 368.5000000000001 L 269.00000000000006 431.00000000000006" stroke-opacity="0.6980392156862745" stroke-linejoin="round" stroke-miterlimit="10" stroke-width="1.5" stroke-dasharray="9.5,8"/><path fill="none" stroke="rgb(0,51,204)" paint-order="fill stroke markers" d=" M 487 72.0200000000001 L 487 431.00000000000006" stroke-opacity="0.6980392156862745" stroke-linejoin="round" stroke-miterlimit="10" stroke-width="1.5" stroke-dasharray="9.5,8"/><path fill="none" stroke="rgb(0,51,204)" paint-order="fill stroke markers" d=" M 362 431.00000000000006 L 362 474.52000000000004" stroke-opacity="0.6980392156862745" stroke-linejoin="round" stroke-miterlimit="10" stroke-width="1.5" stroke-dasharray="9.5,8"/><path fill="none" stroke="rgb(0,51,204)" paint-order="fill stroke markers" d=" M 269.00000000000006 424.00000000000006 L 269.00000000000006 438.00000000000006" stroke-opacity="1" stroke-linecap="square" stroke-miterlimit="10" stroke-width="3.5"/><path fill="none" stroke="rgb(0,51,204)" paint-order="fill stroke markers" d=" M 262.00000000000006 431.00000000000006 L 276.00000000000006 431.00000000000006" stroke-opacity="1" stroke-linecap="square" stroke-miterlimit="10" stroke-width="3.5"/><text fill="rgb(0,51,204)" stroke="none" font-family="geogebra-sans-serif, sans-serif" font-size="24px" font-style="normal" font-weight="normal" text-decoration="normal" x="273" y="417" text-anchor="start" dominant-baseline="alphabetic" fill-opacity="1">a</text><text fill="none" stroke="rgb(255,255,255)" font-family="geogebra-sans-serif, sans-serif" font-size="24px" font-style="normal" font-weight="normal" text-decoration="normal" x="273" y="417" text-anchor="start" dominant-baseline="alphabetic" stroke-opacity="1" stroke-linejoin="bevel" stroke-miterlimit="10" stroke-width="3">a</text><text fill="rgb(0,51,204)" stroke="none" font-family="geogebra-sans-serif, sans-serif" font-size="24px" font-style="normal" font-weight="normal" text-decoration="normal" x="273" y="417" text-anchor="start" dominant-baseline="alphabetic" fill-opacity="1">a</text><path fill="none" stroke="rgb(0,51,204)" paint-order="fill stroke markers" d=" M 487 424.00000000000006 L 487 438.00000000000006" stroke-opacity="1" stroke-linecap="square" stroke-miterlimit="10" stroke-width="3.5"/><path fill="none" stroke="rgb(0,51,204)" paint-order="fill stroke markers" d=" M 480 431.00000000000006 L 494 431.00000000000006" stroke-opacity="1" stroke-linecap="square" stroke-miterlimit="10" stroke-width="3.5"/><text fill="rgb(0,51,204)" stroke="none" font-family="geogebra-sans-serif, sans-serif" font-size="24px" font-style="normal" font-weight="normal" text-decoration="normal" x="491" y="417" text-anchor="start" dominant-baseline="alphabetic" fill-opacity="1">b</text><text fill="none" stroke="rgb(255,255,255)" font-family="geogebra-sans-serif, sans-serif" font-size="24px" font-style="normal" font-weight="normal" text-decoration="normal" x="491" y="417" text-anchor="start" dominant-baseline="alphabetic" stroke-opacity="1" stroke-linejoin="bevel" stroke-miterlimit="10" stroke-width="3">b</text><text fill="rgb(0,51,204)" stroke="none" font-family="geogebra-sans-serif, sans-serif" font-size="24px" font-style="normal" font-weight="normal" text-decoration="normal" x="491" y="417" text-anchor="start" dominant-baseline="alphabetic" fill-opacity="1">b</text><path fill="none" stroke="rgb(0,51,204)" paint-order="fill stroke markers" d=" M 362 424.00000000000006 L 362 438.00000000000006" stroke-opacity="1" stroke-linecap="square" stroke-miterlimit="10" stroke-width="3.5"/><path fill="none" stroke="rgb(0,51,204)" paint-order="fill stroke markers" d=" M 355 431.00000000000006 L 369 431.00000000000006" stroke-opacity="1" stroke-linecap="square" stroke-miterlimit="10" stroke-width="3.5"/><text fill="rgb(0,51,204)" stroke="none" font-family="geogebra-sans-serif, sans-serif" font-size="24px" font-style="normal" font-weight="normal" text-decoration="normal" x="366" y="417" text-anchor="start" dominant-baseline="alphabetic" fill-opacity="1">c</text><text fill="none" stroke="rgb(255,255,255)" font-family="geogebra-sans-serif, sans-serif" font-size="24px" font-style="normal" font-weight="normal" text-decoration="normal" x="366" y="417" text-anchor="start" dominant-baseline="alphabetic" stroke-opacity="1" stroke-linejoin="bevel" stroke-miterlimit="10" stroke-width="3">c</text><text fill="rgb(0,51,204)" stroke="none" font-family="geogebra-sans-serif, sans-serif" font-size="24px" font-style="normal" font-weight="normal" text-decoration="normal" x="366" y="417" text-anchor="start" dominant-baseline="alphabetic" fill-opacity="1">c</text><path fill="none" stroke="rgb(0,51,204)" paint-order="fill stroke markers" d=" M 269.00000000000006 364.5000000000001 L 269.00000000000006 372.5000000000001" stroke-opacity="1" stroke-linecap="square" stroke-miterlimit="10" stroke-width="2"/><path fill="none" stroke="rgb(0,51,204)" paint-order="fill stroke markers" d=" M 265.00000000000006 368.5000000000001 L 273.00000000000006 368.5000000000001" stroke-opacity="1" stroke-linecap="square" stroke-miterlimit="10" stroke-width="2"/><path fill="none" stroke="rgb(0,51,204)" paint-order="fill stroke markers" d=" M 487 68.0200000000001 L 487 76.0200000000001" stroke-opacity="1" stroke-linecap="square" stroke-miterlimit="10" stroke-width="2"/><path fill="none" stroke="rgb(0,51,204)" paint-order="fill stroke markers" d=" M 483 72.0200000000001 L 491 72.0200000000001" stroke-opacity="1" stroke-linecap="square" stroke-miterlimit="10" stroke-width="2"/><path fill="none" stroke="rgb(0,51,204)" paint-order="fill stroke markers" d=" M 362 470.52000000000004 L 362 478.52000000000004" stroke-opacity="1" stroke-linecap="square" stroke-miterlimit="10" stroke-width="2"/><path fill="none" stroke="rgb(0,51,204)" paint-order="fill stroke markers" d=" M 358 474.52000000000004 L 366 474.52000000000004" stroke-opacity="1" stroke-linecap="square" stroke-miterlimit="10" stroke-width="2"/></g></g></svg>