<svg version="1.1" xmlns="http://www.w3.org/2000/svg" xmlns:xlink="http://www.w3.org/1999/xlink" width="892" height="568"><defs><clipPath id="bTeszwaIKHwB"><path fill="none" stroke="none" d=" M 0 0 L 892 0 L 892 568 L 0 568 L 0 0 Z"/></clipPath></defs><g transform="scale(1,1)" clip-path="url(#bTeszwaIKHwB)"><g><rect fill="rgb(255,255,255)" stroke="none" x="0" y="0" width="892" height="568" fill-opacity="1"/><path fill="none" stroke="rgb(37,37,37)" paint-order="fill stroke markers" d=" M 137.5 2.5 L 137.5 568.5" stroke-opacity="1" stroke-miterlimit="10"/><path fill="none" stroke="rgb(37,37,37)" paint-order="fill stroke markers" d=" M 137.5 1.5 L 131.5 7.5" stroke-opacity="1" stroke-miterlimit="10"/><path fill="none" stroke="rgb(37,37,37)" paint-order="fill stroke markers" d=" M 137.5 1.5 L 143.5 7.5" stroke-opacity="1" stroke-miterlimit="10"/><path fill="none" stroke="rgb(37,37,37)" paint-order="fill stroke markers" d=" M 0.5 397.5 L 890.5 397.5" stroke-opacity="1" stroke-miterlimit="10"/><path fill="none" stroke="rgb(37,37,37)" paint-order="fill stroke markers" d=" M 891.5 397.5 L 885.5 391.5" stroke-opacity="1" stroke-miterlimit="10"/><path fill="none" stroke="rgb(37,37,37)" paint-order="fill stroke markers" d=" M 891.5 397.5 L 885.5 403.5" stroke-opacity="1" stroke-miterlimit="10"/><path fill="none" stroke="rgb(0,0,255)" paint-order="fill stroke markers" d=" M 0.9999999999999716 188.58948068147484 L 0.9999999999999716 188.7701259362235 L 0.9999999999999716 188.58948068147487 L 2 188.4126755861091 L 2 188.4126755861091 L 3 188.23965946971077 L 3 188.2396594697108 L 3.9999999999999716 188.0703813096023 L 3.9999999999999716 188.07038130960234 L 5 187.9047902487435 L 5 187.9047902487435 L 6 187.74283560346845 L 6 187.7428356034685 L 6.999999999999972 187.58446687106164 L 6.999999999999972 187.5844668710617 L 8 187.42963373717492 L 8 187.42963373717495 L 9 187.27828608308715 L 9 187.2782860830872 L 9.999999999999972 187.13037399280873 L 9.999999999999972 187.13037399280876 L 11 186.98584776003221 L 11 186.98584776003221 L 11.999999999999986 186.84465789493154 L 11.999999999999986 186.84465789493157 L 12.999999999999972 186.70675513081133 L 12.999999999999972 186.70675513081136 L 14 186.5720904306081 L 14 186.57209043060814 L 14.999999999999986 186.44061499324565 L 14.999999999999986 186.44061499324565 L 15.999999999999972 186.3122802598459 L 15.999999999999972 186.3122802598459 L 17 186.18703791979786 L 17 186.1870379197979 L 17.999999999999986 186.06483991668597 L 17.999999999999986 186.06483991668597 L 18.99999999999997 185.94563845407978 L 18.99999999999997 185.94563845407978 L 20 185.82938600118732 L 20 185.82938600118734 L 20.999999999999986 185.7160352983737 L 20.999999999999986 185.71603529837373 L 21.99999999999997 185.6055393625468 L 21.99999999999997 185.6055393625468 L 23 185.4978514924122 L 23 185.49785149241222 L 23.999999999999986 185.3929252735991 L 23.999999999999986 185.39292527359913 L 24.99999999999997 185.29071458365928 L 24.99999999999997 185.2907145836593 L 26 185.19117359694067 L 26 185.19117359694067 L 26.999999999999986 185.094256789338 L 26.999999999999986 185.094256789338 L 27.99999999999997 184.99991894292177 L 27.99999999999997 184.9999189429218 L 29 184.90811515044814 L 29 184.90811515044817 L 29.999999999999986 184.81880081975095 L 29.999999999999986 184.81880081975098 L 30.99999999999997 184.7319316780182 L 30.99999999999997 184.73193167801824 L 32 184.64746377595498 L 32 184.64746377595503 L 32.999999999999986 184.5653534918341 L 32.999999999999986 184.56535349183414 L 33.99999999999997 184.4855575354371 L 33.99999999999997 184.48555753543715 L 35 184.40803295188695 L 35 184.40803295188698 L 35.999999999999986 184.33273712537448 L 35.999999999999986 184.33273712537454 L 36.99999999999997 184.25962778278046 L 36.99999999999997 184.2596277827805 L 38 184.18866299719508 L 38 184.1886629971951 L 38.999999999999986 184.11980119133662 L 38.999999999999986 184.11980119133665 L 39.99999999999997 184.0530011408715 L 39.99999999999997 184.05300114087154 L 41 183.9882219776369 L 41 183.98822197763695 L 41.999999999999986 183.9254231927684 L 41.999999999999986 183.92542319276842 L 42.99999999999997 183.86456463973397 L 42.99999999999997 183.864564639734 L 44 183.8056065372765 L 44 183.80560653727653 L 44.999999999999986 183.74850947226628 L 44.999999999999986 183.7485094722663 L 45.99999999999997 183.69323440246535 L 45.99999999999997 183.69323440246538 L 47 183.63974265920564 L 47 183.63974265920564 L 47.999999999999986 183.58799594998237 L 47.999999999999986 183.5879959499824 L 48.99999999999997 183.5379563609647 L 48.99999999999997 183.53795636096473 L 50 183.489586359425 L 50 183.48958635942503 L 50.999999999999986 183.44284879608895 L 50.999999999999986 183.44284879608898 L 51.99999999999997 183.3977069074076 L 51.99999999999997 183.3977069074076 L 53 183.35412431775362 L 53 183.35412431775364 L 53.999999999999986 183.31206504154295 L 53.999999999999986 183.31206504154295 L 54.99999999999997 183.27149348528363 L 54.99999999999997 183.27149348528368 L 56 183.232374449554 L 56 183.23237444955402 L 56.999999999999986 183.1946731309105 L 56.999999999999986 183.19467313091053 L 57.99999999999997 183.15835512372857 L 57.99999999999997 183.15835512372857 L 59 183.12338642197645 L 59 183.1233864219765 L 59.999999999999986 183.08973342092486 L 59.999999999999986 183.08973342092492 L 60.99999999999997 183.057362918793 L 60.99999999999997 183.05736291879305 L 61.99999999999996 183.02624211833324 L 61.99999999999996 183.02624211833327 L 62.999999999999986 182.99633862835577 L 62.999999999999986 182.99633862835577 L 63.99999999999997 182.96762046519433 L 63.99999999999997 182.96762046519436 L 64.99999999999996 182.94005605411527 L 64.99999999999996 182.94005605411527 L 65.99999999999999 182.91361423067056 L 65.99999999999999 182.91361423067056 L 66.99999999999997 182.8882642419971 L 66.99999999999997 182.8882642419971 L 67.99999999999996 182.86397574806293 L 67.99999999999996 182.86397574806298 L 68.99999999999999 182.84071882286253 L 68.99999999999999 182.84071882286253 L 69.99999999999997 182.81846395556173 L 69.99999999999997 182.81846395556175 L 70.99999999999996 182.7971820515948 L 70.99999999999996 182.7971820515948 L 71.99999999999999 182.7768444337138 L 71.99999999999999 182.77684443371385 L 72.99999999999997 182.75742284299267 L 72.99999999999997 182.75742284299267 L 73.99999999999996 182.73888943978648 L 73.99999999999996 182.7388894397865 L 74.99999999999999 182.72121680464795 L 74.99999999999999 182.72121680464795 L 75.99999999999997 182.70437793920183 L 75.99999999999997 182.70437793920186 L 76.99999999999996 182.68834626697912 L 76.99999999999996 182.68834626697918 L 77.99999999999999 182.67309563421165 L 77.99999999999999 182.67309563421168 L 78.99999999999997 182.65860031058884 L 78.99999999999997 182.65860031058884 L 79.99999999999996 182.64483498997765 L 79.99999999999996 182.64483498997765 L 81 182.63177479110703 L 81 182.63177479110703 L 81.99999999999997 182.6193952582177 L 81.99999999999997 182.61939525821774 L 82.99999999999996 182.60767236167905 L 82.99999999999996 182.60767236167905 L 84 182.5965824985734 L 84 182.59658249857344 L 84.99999999999997 182.58610249325014 L 84.99999999999997 182.58610249325017 L 85.99999999999996 182.57620959784904 L 85.99999999999996 182.57620959784904 L 87 182.56688149279555 L 87 182.5668814927956 L 87.99999999999997 182.55809628726817 L 87.99999999999997 182.5580962872682 L 88.99999999999996 182.54983251963884 L 88.99999999999996 182.54983251963884 L 90 182.54206915788825 L 90 182.54206915788828 L 90.99999999999997 182.53478559999627 L 90.99999999999997 182.53478559999627 L 91.99999999999996 182.52796167430859 L 91.99999999999996 182.52796167430859 L 93 182.5215776398811 L 93 182.52157763988112 L 93.99999999999997 182.51561418680222 L 93.99999999999997 182.51561418680225 L 94.99999999999996 182.5100524364948 L 94.99999999999996 182.51005243649482 L 96 182.50487394199766 L 96 182.50487394199766 L 96.99999999999997 182.50006068822879 L 96.99999999999997 182.50006068822879 L 97.99999999999996 182.49559509222988 L 97.99999999999996 182.4955950922299 L 99 182.49146000339402 L 99 182.49146000339402 L 99.99999999999997 182.4876387036767 L 99.99999999999997 182.4876387036767 L 100.99999999999996 182.4841149077913 L 100.99999999999996 182.48411490779137 L 102 182.4808727633899 L 102 182.48087276338993 L 102.99999999999997 182.4778968512296 L 102.99999999999997 182.47789685122962 L 103.99999999999996 182.47517218532613 L 103.99999999999996 182.47517218532613 L 105 182.47268421309437 L 105 182.47268421309442 L 105.99999999999997 182.47041881547736 L 105.99999999999997 182.47041881547736 L 106.99999999999996 182.4683623070638 L 106.99999999999996 182.46836230706384 L 107.99999999999999 182.46650143619536 L 107.99999999999999 182.4665014361954 L 108.99999999999997 182.46482338506377 L 108.99999999999997 182.46482338506377 L 109.99999999999996 182.463315769799 L 109.99999999999996 182.46331576979904 L 110.99999999999999 182.4619666405487 L 110.99999999999999 182.46196664054872 L 111.99999999999997 182.4607644815493 L 111.99999999999997 182.4607644815493 L 112.99999999999996 182.45969821119 L 112.99999999999996 182.45969821119004 L 113.99999999999999 182.45875718206972 L 113.99999999999999 182.45875718206977 L 114.99999999999997 182.45793118104748 L 114.99999999999997 182.45793118104754 L 115.99999999999996 182.45721042928696 L 115.99999999999996 182.45721042928702 L 116.99999999999999 182.45658558229553 L 116.99999999999999 182.45658558229556 L 117.99999999999997 182.4560477299586 L 117.99999999999997 182.4560477299586 L 118.99999999999996 182.45558839656894 L 118.99999999999996 182.455588396569 L 119.99999999999999 182.45519954085245 L 119.99999999999999 182.45519954085248 L 120.99999999999997 182.45487355598968 L 120.99999999999997 182.4548735559897 L 121.99999999999996 182.4546032696344 L 121.99999999999996 182.4546032696344 L 122.99999999999999 182.45438194392898 L 122.99999999999999 182.45438194392898 L 123.99999999999997 182.45420327551736 L 123.99999999999997 182.4542032755174 L 124.99999999999996 182.4540613955554 L 124.99999999999996 182.4540613955554 L 125.99999999999999 182.45395086971945 L 125.99999999999999 182.45395086971948 L 126.99999999999997 182.45386669821306 L 126.99999999999997 182.45386669821306 L 127.99999999999996 182.45380431577226 L 127.99999999999996 182.45380431577226 L 129 182.45375959166958 L 129 182.4537595916696 L 129.99999999999997 182.45372882971705 L 129.99999999999997 182.45372882971708 L 130.99999999999994 182.4537087682683 L 130.99999999999994 182.4537087682683 L 132 182.45369658022005 L 132 182.45369658022005 L 132.99999999999997 182.45368987301305 L 132.99999999999997 182.45368987301308 L 133.99999999999994 182.45368668863279 L 133.99999999999994 182.4536866886328 L 135 182.4536855036097 L 135 182.4536855036097 L 135.99999999999997 182.45368522901938 L 135.99999999999997 182.45368522901938 L 136.99999999999994 182.45368521048266 L 136.99999999999994 182.4536852281656 L 138 182.45368521048266 L 138 182.45368522816557 L 138.99999999999997 182.45368549677946 L 138.99999999999997 182.45368549677946 L 139.99999999999994 182.45368666558088 L 139.99999999999994 182.45368666558082 L 141 182.4536898183715 L 141 182.45368981837143 L 141.99999999999997 182.45369647349827 L 141.99999999999997 182.45369647349824 L 142.99999999999994 182.45370858385317 L 142.99999999999994 182.4537085838531 L 144 182.45372853687272 L 144 182.45372853687272 L 144.99999999999997 182.45375915453764 L 144.99999999999997 182.45375915453758 L 145.99999999999994 182.45380369337158 L 145.99999999999994 182.45380369337158 L 147 182.45386584444012 L 147 182.45386584444006 L 147.99999999999997 182.453949733348 L 147.99999999999997 182.45394973334797 L 148.99999999999994 182.45405992023677 L 148.99999999999994 182.45405992023674 L 150 182.45420139978037 L 150 182.45420139978037 L 150.99999999999997 182.45437960118008 L 150.99999999999997 182.45437960118008 L 151.99999999999994 182.45460038815773 L 151.99999999999994 182.45460038815773 L 153 182.45487005894722 L 153 182.45487005894722 L 153.99999999999997 182.45519534628414 L 153.99999999999997 182.4551953462841 L 154.99999999999994 182.45558341739277 L 154.99999999999994 182.45558341739275 L 156 182.4560418739709 L 156 182.45604187397083 L 156.99999999999997 182.45657875217114 L 156.99999999999997 182.45657875217114 L 157.99999999999994 182.45720252257962 L 157.99999999999994 182.4572025225796 L 159 182.45792209019007 L 159 182.45792209019004 L 159.99999999999997 182.45874679437455 L 159.99999999999997 182.45874679437455 L 160.99999999999994 182.45968640884942 L 160.99999999999994 182.45968640884942 L 162 182.46075114163608 L 162 182.46075114163605 L 162.99999999999997 182.46195163501662 L 162.99999999999997 182.46195163501662 L 163.99999999999994 182.46329896548352 L 163.99999999999994 182.46329896548352 L 165 182.46480464368258 L 165 182.46480464368258 L 165.99999999999997 182.4664806143494 L 165.99999999999997 182.46648061434936 L 166.99999999999994 182.468339256238 L 166.99999999999994 182.468339256238 L 168 182.47039338204166 L 168 182.4703933820416 L 168.99999999999997 182.4726562383048 L 168.99999999999997 182.47265623830475 L 169.99999999999994 182.475141505326 L 169.99999999999994 182.47514150532598 L 171 182.47786329705093 L 171 182.4778632970509 L 171.99999999999997 182.48083616095474 L 171.99999999999997 182.4808361609547 L 172.99999999999994 182.48407507791342 L 172.99999999999994 182.4840750779134 L 174 182.48759546206313 L 174 182.4875954620631 L 174.99999999999997 182.4914131606472 L 174.99999999999997 182.49141316064717 L 175.99999999999994 182.49554445384953 L 175.99999999999994 182.49554445384953 L 177 182.50000605461418 L 177 182.50000605461415 L 177.99999999999997 182.50481510845 L 177.99999999999997 182.50481510844998 L 178.99999999999994 182.5099891932198 L 178.99999999999994 182.50998919321978 L 180 182.51554631891293 L 180 182.51554631891293 L 180.99999999999997 182.52150492740077 L 180.99999999999997 182.52150492740074 L 181.99999999999994 182.52788389217403 L 181.99999999999994 182.52788389217397 L 183 182.53470251806118 L 183 182.53470251806118 L 183.99999999999997 182.541980540927 L 183.99999999999997 182.54198054092697 L 184.99999999999994 182.54973812735025 L 184.99999999999994 182.54973812735025 L 186 182.55799587427987 L 186 182.55799587427984 L 186.99999999999997 182.5667748086683 L 186.99999999999997 182.5667748086683 L 187.99999999999994 182.5760963870815 L 187.99999999999994 182.57609638708146 L 189 182.58598249528396 L 189 182.58598249528396 L 189.99999999999997 182.59645544779858 L 189.99999999999997 182.59645544779858 L 190.99999999999994 182.60753798743949 L 190.99999999999994 182.60753798743949 L 192 182.61925328481738 L 192 182.61925328481738 L 192.99999999999997 182.63162493781616 L 192.99999999999997 182.63162493781613 L 193.99999999999994 182.6446769710395 L 193.99999999999994 182.6446769710395 L 195 182.65843383522684 L 195 182.65843383522682 L 195.99999999999997 182.6729204066368 L 195.99999999999997 182.67292040663676 L 196.99999999999994 182.68816198639777 L 196.99999999999994 182.68816198639777 L 198 182.7041842998241 L 198 182.70418429982408 L 198.99999999999997 182.72101349569633 L 198.99999999999997 182.72101349569627 L 199.99999999999994 182.73867614550502 L 199.99999999999994 182.738676145505 L 201 182.75719924265653 L 201 182.75719924265653 L 201.99999999999997 182.77661020163941 L 201.99999999999997 182.7766102016394 L 202.99999999999994 182.79693685715026 L 202.99999999999994 182.79693685715026 L 204 182.818207463178 L 204 182.818207463178 L 204.99999999999997 182.8404506920449 L 204.99999999999997 182.8404506920449 L 205.99999999999994 182.8636956334032 L 205.99999999999994 182.86369563340318 L 207 182.88797179318613 L 207 182.8879717931861 L 207.99999999999997 182.91330909251158 L 207.99999999999997 182.91330909251155 L 208.99999999999994 182.93973786653763 L 208.99999999999994 182.9397378665376 L 210 182.96728886326784 L 210 182.9672888632678 L 210.99999999999997 182.9959932423057 L 210.99999999999997 182.9959932423057 L 211.99999999999994 183.02588257355606 L 211.99999999999994 183.02588257355603 L 212.99999999999997 183.0569888358725 L 212.99999999999997 183.0569888358725 L 213.99999999999997 183.08934441564926 L 213.99999999999997 183.0893444156492 L 215 183.1229821053558 L 215 183.12298210535576 L 215.99999999999997 183.1579351020132 L 215.99999999999997 183.1579351020132 L 216.99999999999997 183.19423700561018 L 216.99999999999997 183.19423700561012 L 218 183.2319218174574 L 218 183.23192181745736 L 218.99999999999997 183.27102393847915 L 218.99999999999997 183.27102393847915 L 219.99999999999997 183.3115781674398 L 219.99999999999997 183.3115781674398 L 221 183.3536196991041 L 221 183.35361969910406 L 221.99999999999997 183.3971841223298 L 221.99999999999997 183.39718412232975 L 222.99999999999997 183.4423074180906 L 222.99999999999997 183.4423074180906 L 224 183.48902595742805 L 224 183.48902595742803 L 224.99999999999997 183.5373764993307 L 224.99999999999997 183.53737649933066 L 225.99999999999997 183.5873961885388 L 225.99999999999997 183.5873961885388 L 227 183.63912255327324 L 227 183.63912255327318 L 227.99999999999997 183.69259350288613 L 227.99999999999997 183.69259350288613 L 228.99999999999997 183.74784732543282 L 228.99999999999997 183.7478473254328 L 230 183.80492268516184 L 230 183.8049226851618 L 230.99999999999997 183.86385861992275 L 230.99999999999997 183.86385861992272 L 231.99999999999997 183.92469453848898 L 231.99999999999997 183.92469453848892 L 233 183.98747021779437 L 233 183.98747021779437 L 233.99999999999997 184.05222580008186 L 233.99999999999997 184.05222580008186 L 234.99999999999997 184.11900178996206 L 234.99999999999997 184.11900178996203 L 236 184.18783905138014 L 236 184.1878390513801 L 236.99999999999997 184.25877880448965 L 236.99999999999997 184.25877880448962 L 237.99999999999997 184.33186262243063 L 237.99999999999997 184.33186262243058 L 239 184.40713242801104 L 239 184.40713242801098 L 239.99999999999997 184.48463049028913 L 239.99999999999997 184.4846304902891 L 240.99999999999997 184.56439942105516 L 240.99999999999997 184.56439942105516 L 242 184.64648217121058 L 242 184.64648217121055 L 242.99999999999997 184.73092202704277 L 242.99999999999997 184.73092202704274 L 243.99999999999997 184.81776260639361 L 243.99999999999997 184.81776260639361 L 245 184.90704785471996 L 245 184.90704785471993 L 245.99999999999997 184.998822041044 L 245.99999999999997 184.99882204104395 L 246.99999999999997 185.09312975379186 L 246.99999999999997 185.09312975379183 L 248 185.1900158965185 L 248 185.19001589651847 L 248.99999999999997 185.28952568351684 L 248.99999999999997 185.28952568351684 L 249.99999999999997 185.39170463530965 L 249.99999999999997 185.39170463530962 L 251 185.4965985740215 L 251 185.49659857402145 L 251.99999999999997 185.60425361863005 L 251.99999999999997 185.60425361863003 L 252.99999999999997 185.71471618009366 L 252.99999999999997 185.71471618009363 L 253.99999999999994 185.82803295635387 L 253.99999999999994 185.82803295635387 L 254.99999999999997 185.94425092721127 L 254.99999999999997 185.94425092721124 L 255.99999999999997 186.0634173490718 L 255.99999999999997 186.06341734907176 L 256.99999999999994 186.18557974956275 L 256.99999999999994 186.18557974956275 L 258 186.31078592201578 L 258 186.31078592201575 L 259 186.4390839198151 L 259 186.43908391981506 L 259.99999999999994 186.57052205060933 L 259.99999999999994 186.57052205060933 L 261 186.70514887038493 L 261 186.70514887038487 L 262 186.84301317739883 L 262 186.8430131773988 L 262.99999999999994 186.9841640059693 L 262.99999999999994 186.98416400596926 L 264 187.12865062012233 L 264 187.1286506201223 L 265 187.27652250709207 L 265 187.276522507092 L 266 187.42782937067312 L 266 187.4278293706731 L 267 187.5826211244236 L 267 187.58262112442355 L 268 187.74094788471575 L 268 187.7409478847157 L 269 187.90285996363355 L 269 187.9028599636335 L 270 188.06840786171486 L 270 188.06840786171483 L 271 188.23764226053623 L 271 188.23764226053623 L 272 188.4106140151388 L 272 188.4106140151388 L 273 188.58737414629326 L 273 188.58737414629326 L 274 188.7679738326022 L 274 188.76797383260214 L 275 188.95246440243804 L 275 188.95246440243798 L 276 189.1408973257148 L 276 189.14089732571477 L 277 189.33332420549195 L 277 189.33332420549195 L 278 189.5297967694084 L 278 189.52979676940834 L 279 189.73036686094514 L 279 189.73036686094514 L 280 189.93508643051516 L 280 189.93508643051516 L 281 190.14400752637806 L 281 190.14400752637803 L 282 190.35718228537854 L 282 190.3571822853785 L 283 190.57466292350682 L 283 190.57466292350682 L 284 190.79650172627942 L 284 190.7965017262794 L 285 191.02275103893854 L 285 191.0227510389385 L 286 191.25346325646893 L 286 191.25346325646893 L 287 191.48869081343022 L 287 191.4886908134302 L 288 191.72848617360341 L 288 191.72848617360341 L 289 191.97290181945053 L 289 191.97290181945047 L 290 192.2219902413847 L 290 192.22199024138467 L 291 192.47580392685123 L 291 192.4758039268512 L 292 192.7343953492162 L 292 192.73439534921616 L 293 192.99781695646288 L 293 192.99781695646283 L 294 193.26612115969368 L 294 193.26612115969368 L 295 193.53936032143702 L 295 193.53936032143702 L 296 193.8175867437574 L 296 193.81758674375737 L 297 194.10085265616775 L 297 194.1008526561677 L 298 194.38921020334288 L 298 194.38921020334286 L 299 194.68271143263325 L 299 194.6827114326332 L 300 194.98140828137707 L 300 194.98140828137704 L 301 195.28535256401102 L 301 195.285352564011 L 302 195.59459595897755 L 302 195.59459595897752 L 303 195.90918999542862 L 303 195.90918999542856 L 304 196.22918603972437 L 304 196.2291860397243 L 305 196.5546352817267 L 305 196.55463528172666 L 306 196.88558872088618 L 306 196.88558872088612 L 307 197.22209715212222 L 307 197.2220971521222 L 308 197.56421115149573 L 308 197.56421115149567 L 309 197.91198106167343 L 309 197.9119810616734 L 310 198.26545697718376 L 310 198.26545697718373 L 311 198.6246887294635 L 311 198.62468872946346 L 312 198.989725871695 L 312 198.98972587169496 L 313 199.36061766343377 L 313 199.36061766343374 L 314 199.73741305502577 L 314 199.7374130550257 L 315 200.1201606718147 L 315 200.12016067181463 L 316 200.50890879813906 L 316 200.508908798139 L 317 200.90370536111865 L 317 200.9037053611186 L 318 201.30459791423104 L 318 201.304597914231 L 319 201.7116336206776 L 319 201.71163362067756 L 320 202.1248592365399 L 320 202.12485923653986 L 321 202.54432109372618 L 321 202.54432109372615 L 322 202.97006508270863 L 322 202.9700650827086 L 323 203.4021366350517 L 323 203.40213663505168 L 324 203.84058070573235 L 324 203.8405807057323 L 325 204.28544175525215 L 325 204.28544175525212 L 326 204.73676373154288 L 326 204.73676373154285 L 327 205.19459005166553 L 327 205.1945900516655 L 328 205.6589635833042 L 328 205.65896358330414 L 329 206.12992662605572 L 329 206.1299266260557 L 330 206.6075208925162 L 330 206.60752089251613 L 331 207.09178748916486 L 331 207.09178748916483 L 332 207.58276689704832 L 332 207.58276689704832 L 333 208.0804989522644 L 333 208.08049895226435 L 334 208.58502282624877 L 334 208.58502282624875 L 335 209.09637700586524 L 335 209.09637700586518 L 336 209.6145992733014 L 336 209.61459927330134 L 337 210.13972668577168 L 337 210.13972668577165 L 338 210.6717955550298 L 338 210.67179555502975 L 339 211.21084142669233 L 339 211.2108414266923 L 340 211.7568990593758 L 340 211.75689905937574 L 341 212.31000240364958 L 341 212.31000240364958 L 342 212.8701845808073 L 342 212.87018458080726 L 343 213.4374778614583 L 343 213.43747786145826 L 344 214.0119136439433 L 344 214.01191364394325 L 345 214.5935224325756 L 345 214.59352243257555 L 346 215.1823338157118 L 346 215.18233381571176 L 347 215.77837644365442 L 347 215.7783764436544 L 348 216.3816780063902 L 348 216.38167800639013 L 349 216.99226521116654 L 349 216.99226521116648 L 350 217.61016375991062 L 350 217.61016375991062 L 351 218.23539832649396 L 351 218.23539832649396 L 352 218.86799253384623 L 352 218.86799253384618 L 353 219.50796893092271 L 353 219.50796893092266 L 354 220.15534896952906 L 354 220.15534896952903 L 355 220.81015298100735 L 355 220.81015298100732 L 356 221.47240015278814 L 356 221.47240015278808 L 357 222.14210850481277 L 357 222.14210850481274 L 358 222.81929486583064 L 358 222.81929486583059 L 359 223.50397484957588 L 359 223.50397484957583 L 360 224.19616283082914 L 360 224.19616283082908 L 361 224.89587192136847 L 361 224.8958719213684 L 362 225.60311394581564 L 362 225.60311394581558 L 363 226.3178994173825 L 363 226.31789941738245 L 364 227.04023751352335 L 364 227.04023751352332 L 365 227.77013605149887 L 365 227.7701360514988 L 366 228.50760146385767 L 366 228.50760146385767 L 367 229.2526387738414 L 367 229.25263877384134 L 368 230.00525157071942 L 368 230.0052515707194 L 369 230.76544198506033 L 369 230.7654419850603 L 370 231.53321066394554 L 370 231.5332106639455 L 371 232.3085567461328 L 371 232.30855674613275 L 372 233.09147783717617 L 372 233.09147783717606 L 373 233.88196998450925 L 373 233.8819699845092 L 374 234.68002765249983 L 374 234.6800276524998 L 374.99999999999994 235.4856436974821 L 374.99999999999994 235.48564369748198 L 376 236.2988093427751 L 376 236.29880934277503 L 377 237.11951415369498 L 377 237.11951415369492 L 378 237.94774601256896 L 378 237.94774601256887 L 379 238.7834910937586 L 379 238.78349109375856 L 380 239.6267338387024 L 380 239.6267338387023 L 380.99999999999994 240.47745693098395 L 380.99999999999994 240.4774569309839 L 382 241.3356412714366 L 382 241.33564127143651 L 383 242.20126595329165 L 383 242.2012659532916 L 384 243.07430823738116 L 384 243.0743082373811 L 385 243.95474352740217 L 385 243.95474352740212 L 386 244.84254534525468 L 386 244.8425453452546 L 386.99999999999994 245.73768530646026 L 386.99999999999994 245.73768530646018 L 388 246.64013309567352 L 388 246.6401330956735 L 389 247.54985644229455 L 389 247.5498564422945 L 389.99999999999994 248.4668210961941 L 389.99999999999994 248.46682109619402 L 391 249.39099080356095 L 391 249.3909908035609 L 392 250.3223272828822 L 392 250.32232728288216 L 392.99999999999994 251.26079020106803 L 392.99999999999994 251.26079020106798 L 394 252.20633714973084 L 394 252.20633714973079 L 395 253.1589236216304 L 395 253.15892362163038 L 396 254.1185029872973 L 396 254.1185029872972 L 397 255.08502647184412 L 397 255.08502647184406 L 398 256.0584431319785 L 398 256.0584431319784 L 399 257.03869983322807 L 399 257.03869983322807 L 400 258.0257412273911 L 400 258.0257412273911 L 401 259.01950973022304 L 401 259.0195097302229 L 402 260.01994549937365 L 402 260.0199454993736 L 403 261.0269864125864 L 403 261.0269864125863 L 404 262.0405680461721 L 404 262.0405680461721 L 405 263.06062365377215 L 405 263.06062365377204 L 406 264.08708414542167 L 406 264.0870841454216 L 407 265.11987806692866 L 407 265.11987806692866 L 408 266.15893157958124 L 408 266.15893157958124 L 409 267.20416844019655 L 409 267.20416844019655 L 410 268.2555099815264 L 410 268.2555099815263 L 411 269.3128750930328 L 411 269.31287509303274 L 412 270.37618020204815 L 412 270.3761802020481 L 413 271.44533925533403 L 413 271.445339255334 L 414 272.52026370105403 L 414 272.520263701054 L 415 273.6008624711744 L 415 273.6008624711744 L 416 274.6870419643082 L 416 274.68704196430815 L 417 275.7787060290176 L 417 275.77870602901754 L 418 276.87575594759005 L 418 276.87575594759005 L 419 277.97809042030303 L 419 277.9780904203029 L 420 279.08560555019363 L 420 279.0856055501936 L 421 280.19819482834816 L 421 280.1981948283481 L 422 281.3157491197277 L 422 281.3157491197277 L 423 282.438156649546 L 423 282.43815664954593 L 424 283.56530299021506 L 424 283.565302990215 L 425 284.697071048875 L 425 284.69707104887493 L 426 285.83334105552535 L 426 285.8333410555253 L 427 286.97399055177243 L 427 286.9739905517724 L 428 288.11889438021115 L 428 288.1188943802111 L 429 289.2679246744571 L 429 289.26792467445705 L 430 290.420950849846 L 430 290.42095084984595 L 431 291.57783959481685 L 431 291.5778395948168 L 432 292.73845486299683 L 432 292.73845486299683 L 433 293.9026578660044 L 433 293.90265786600435 L 434 295.07030706698697 L 434 295.07030706698697 L 435 296.24125817491284 L 435 296.2412581749128 L 436 297.41536413963166 L 436 297.4153641396316 L 437 298.5924751477231 L 437 298.59247514772306 L 438 299.7724386191506 L 438 299.77243861915053 L 439 300.9550992047369 L 439 300.9550992047368 L 440 302.1402987844798 L 440 302.14029878447974 L 441 303.32787646672585 L 441 303.3278764667258 L 442 304.5176685882189 L 442 304.51766858821884 L 443 305.7095087150412 L 443 305.7095087150411 L 444 306.9032276444658 L 444 306.90322764446574 L 445 308.0986534077367 L 445 308.09865340773666 L 446 309.29561127379486 L 446 309.29561127379486 L 447 310.49392375396815 L 447 310.4939237539681 L 448 311.6934106076421 L 448 311.693410607642 L 449 312.8938888489298 L 449 312.8938888489298 L 450 314.0951727543588 L 450 314.09517275435877 L 451 315.2970738715912 L 451 315.2970738715911 L 452 316.4994010291954 L 452 316.4994010291953 L 453 317.70196034748824 L 453 317.7019603474882 L 454 318.9045552504619 L 454 318.90455525046184 L 455 320.1069864788153 L 455 320.1069864788153 L 456 321.3090521041071 L 456 321.309052104107 L 457 322.5105475440453 L 457 322.51054754404527 L 458 323.7112655789336 L 458 323.71126557893353 L 459 324.91099636928857 L 459 324.91099636928845 L 460 326.1095274746462 L 460 326.10952747464614 L 461 327.3066438735735 L 461 327.3066438735734 L 462 328.50212798490224 L 462 328.5021279849022 L 463 329.6957596902009 L 463 329.6957596902008 L 464 330.8873163574999 L 464 330.8873163574999 L 465 332.07657286628864 L 465 332.07657286628864 L 466 333.2633016337972 L 466 333.26330163379714 L 467 334.4472726425795 L 467 334.4472726425794 L 468 335.6282534694142 L 468 335.62825346941406 L 469 336.80600931553613 L 469 336.806009315536 L 470 337.9803030382152 L 470 337.9803030382151 L 471 339.1508951836958 L 471 339.15089518369575 L 472 340.3175440215119 L 472 340.31754402151176 L 473 341.48000558019106 L 473 341.480005580191 L 474 342.6380336843622 L 474 342.6380336843621 L 475 343.7913799932788 L 475 343.79137999327867 L 476 344.9397940407715 L 476 344.9397940407714 L 477 346.08302327664376 L 477 346.08302327664364 L 478 347.22081310952035 L 478 347.22081310952024 L 479 348.3529069511625 L 479 348.35290695116237 L 480 349.47904626226153 L 480 349.4790462622614 L 481 350.5989705997205 L 481 350.59897059972036 L 482 351.7124176654352 L 482 351.7124176654351 L 483 352.8191233565862 L 483 352.8191233565861 L 484 353.9188218174491 L 484 353.918821817449 L 485 355.0112454927349 L 485 355.01124549273476 L 486 356.09612518246735 L 486 356.09612518246723 L 487 357.1731900984077 L 487 357.1731900984076 L 488 358.242167922032 L 488 358.2421679220319 L 489 359.30278486407155 L 489 359.3027848640715 L 490 360.35476572562044 L 490 360.3547657256203 L 491 361.3978339608176 L 491 361.3978339608175 L 492 362.43171174110995 L 492 362.43171174110984 L 493 363.45612002109965 L 493 363.4561200210996 L 494 364.4707786059816 L 494 364.4707786059815 L 495 365.4754062205742 L 495 365.47540622057414 L 496 366.46972057994714 L 496 366.469720579947 L 497 367.45343846164735 L 497 367.4534384616473 L 498 368.4262757795277 L 498 368.4262757795276 L 499 369.3879476591762 L 499 369.38794765917606 L 500 370.33816851494856 L 500 370.3381685149485 L 501 371.27665212860387 L 501 371.27665212860376 L 502 372.20311172954 L 502 372.20311172953996 L 503 373.1172600766301 L 503 373.11726007663003 L 504 374.01880954165523 L 504 374.0188095416552 L 505 374.9074721943314 L 505 374.90747219433126 L 506 375.7829598889251 L 506 375.782959888925 L 507 376.6449843524549 L 507 376.64498435245486 L 507.9999999999999 377.4932572744706 L 507.9999999999999 377.49325727447047 L 509 378.32749039840473 L 509 378.3274903984047 L 510 379.14739561448914 L 510 379.147395614489 L 511 379.95268505422723 L 511 379.9526850542272 L 512 380.74307118641303 L 512 380.7430711864129 L 513 381.5182669146869 L 513 381.5182669146868 L 513.9999999999999 382.2779856766167 L 513.9999999999999 382.2779856766166 L 515 383.0219415442916 L 515 383.02194154429156 L 516 383.7498493264166 L 516 383.74984932641655 L 517 384.4614246718926 L 517 384.46142467189253 L 518 385.1563841748672 L 518 385.1563841748671 L 519 385.8344454812405 L 519 385.83444548124044 L 519.9999999999999 386.4953273966085 L 519.9999999999999 386.49532739660845 L 521 387.1387499956253 L 521 387.13874999562523 L 522 387.7644347327659 L 522 387.76443473276584 L 523 388.3721045544687 L 523 388.37210455446865 L 524 388.9614840126361 L 524 388.96148401263605 L 525 389.53229937947106 L 525 389.532299379471 L 525.9999999999999 390.0842787636257 L 525.9999999999999 390.08427876362566 L 527 390.6171522276377 L 527 390.61715222763763 L 528 391.13065190662735 L 528 391.1306519066273 L 529 391.6245121282303 L 529 391.62451212823026 L 530 392.09846953373517 L 530 392.0984695337351 L 531 392.55226320039895 L 531 392.5522632003989 L 531.9999999999999 392.98563476490824 L 531.9999999999999 392.9856347649082 L 533 393.3983285479549 L 533 393.39832854795486 L 534 393.79009167989335 L 534 393.7900916798933 L 535 394.16067422744493 L 535 394.1606742274449 L 536 394.5098293214141 L 536 394.5098293214141 L 537 394.8373132853798 L 537 394.8373132853798 L 537.9999999999999 395.14288576532414 L 537.9999999999999 395.1428857653241 L 539 395.4263098601585 L 539 395.4263098601584 L 540 395.68735225310803 L 540 395.68735225310803 L 541 395.92578334391175 L 541 395.9257833439117 L 542 396.14137738179494 L 542 396.1413773817949 L 543 396.333912599171 L 543 396.33391259917096 L 543.9999999999999 396.50317134602614 L 543.9999999999999 396.5031713460261 L 545 396.6489402249399 L 545 396.64894022493985 L 546 396.7710102266944 L 546 396.77101022669433 L 547 396.86917686642187 L 547 396.8691768664218 L 548 396.9432403202404 L 548 396.94324032024036 L 549 396.99300556232566 L 549 396.99300556232566 L 549.9999999999999 397.0182825023649 L 549.9999999999999 397.01828250236485 L 551 397.02168737917776 L 551 397.0188861233395 L 552 396.99463661957907 L 552 396.9946366195791 L 553 396.9453595350311 L 553 396.9453595350312 L 554 396.8708859016862 L 554 396.8708859016862 L 555 396.77105237810025 L 555 396.7710523781003 L 555.9999999999999 396.64570138795216 L 555.9999999999999 396.64570138795216 L 557 396.49468125857413 L 557 396.4946812585742 L 558 396.31784635939204 L 558 396.3178463593921 L 559 396.1150572402094 L 559 396.11505724020947 L 560 395.88618076927014 L 560 395.8861807692702 L 561 395.6310902710319 L 561 395.6310902710319 L 561.9999999999999 395.3496656635812 L 561.9999999999999 395.3496656635813 L 563 395.0417935956213 L 563 395.0417935956213 L 564 394.7073675829599 L 564 394.70736758295993 L 565 394.34628814442635 L 565 394.3462881444264 L 566 393.9584629371433 L 566 393.95846293714334 L 567 393.54380689107825 L 567 393.5438068910783 L 567.9999999999999 393.1022423427998 L 567.9999999999999 393.10224234279985 L 569 392.6336991683603 L 569 392.63369916836035 L 570 392.1381149152281 L 570 392.13811491522813 L 571 391.6154349331884 L 571 391.61543493318845 L 572 391.0656125041336 L 572 391.06561250413364 L 573 390.48860897066095 L 573 390.488608970661 L 573.9999999999999 389.8843938633951 L 573.9999999999999 389.88439386339513 L 575 389.2529450269516 L 575 389.25294502695164 L 576 388.59424874445745 L 576 388.59424874445756 L 577 387.9082998605421 L 577 387.90829986054223 L 578 387.1951019027135 L 578 387.19510190271353 L 579 386.45466720103 L 579 386.45466720103013 L 579.9999999999999 385.6870170059823 L 579.9999999999999 385.68701700598234 L 581 384.89218160449303 L 581 384.89218160449315 L 582 384.07020043394715 L 582 384.0702004339472 L 583 383.2211221941589 L 583 383.22112219415897 L 584 382.34500495718726 L 584 382.3450049571873 L 585 381.4419162749041 L 585 381.44191627490414 L 585.9999999999999 380.5119332842245 L 585.9999999999999 380.51193328422454 L 587 379.5551428099041 L 587 379.55514280990417 L 588 378.5716414648103 L 588 378.5716414648104 L 589 377.56153574757036 L 589 377.5615357475705 L 590 376.52494213750396 L 590 376.52494213750407 L 591 375.4619871867413 L 591 375.46198718674134 L 591.9999999999999 374.3728076094325 L 591.9999999999999 374.3728076094326 L 593 373.25755036795067 L 593 373.2575503679507 L 594 372.1163727559915 L 594 372.1163727559916 L 595 370.9494424784723 L 595 370.9494424784724 L 596 369.7569377281327 L 596 369.75693772813275 L 597 368.53904725873895 L 597 368.53904725873906 L 597.9999999999999 367.29597045479466 L 597.9999999999999 367.29597045479477 L 599 366.02791739765877 L 599 366.0279173976588 L 600 364.7351089279737 L 600 364.73510892797384 L 601 363.417776704305 L 601 363.4177767043051 L 602 362.07616325789485 L 602 362.07616325789496 L 603 360.7105220434313 L 603 360.71052204343135 L 603.9999999999999 359.3211174857361 L 603.9999999999999 359.3211174857363 L 604.9999999999999 357.90822502227377 L 604.9999999999999 357.9082250222739 L 606 356.4721311413836 L 606 356.4721311413838 L 607 355.0131334161414 L 607 355.01313341614156 L 608 353.53154053374914 L 608 353.5315405337493 L 609 352.0276723203641 L 609 352.0276723203643 L 609.9999999999999 350.5018597612658 L 609.9999999999999 350.50185976126596 L 611 348.9544450162713 L 611 348.9544450162715 L 611.9999999999999 347.3857814303032 L 611.9999999999999 347.3857814303034 L 613 345.796233539016 L 613 345.79623353901616 L 614 344.18617706939443 L 614 344.1861770693946 L 615 342.5559989352259 L 615 342.55599893522606 L 615.9999999999999 340.90609722736264 L 615.9999999999999 340.9060972273628 L 616.9999999999999 339.2368811986825 L 616.9999999999999 339.23688119868274 L 618 337.5487712436612 L 618 337.54877124366135 L 619 335.84219887247053 L 619 335.8421988724707 L 620 334.11760667951626 L 620 334.1176066795164 L 621 332.37544830633414 L 621 332.3754483063343 L 621.9999999999999 330.6161883987605 L 621.9999999999999 330.61618839876076 L 623 328.8403025582993 L 623 328.8403025582995 L 623.9999999999999 327.0482772876045 L 623.9999999999999 327.0482772876047 L 625 325.2406099300018 L 625 325.24060993000205 L 626 323.4178086029781 L 626 323.41780860297825 L 627 321.5803921255592 L 627 321.58039212555934 L 627.9999999999999 319.72888993951165 L 627.9999999999999 319.7288899395119 L 628.9999999999999 317.8638420242957 L 628.9999999999999 317.86384202429593 L 630 315.9857988057033 L 630 315.98579880570355 L 631 314.09532105812 L 631 314.0953210581202 L 632 312.1929798003431 L 632 312.1929798003433 L 633 310.2793561849035 L 633 310.27935618490375 L 633.9999999999999 308.35504138082933 L 633.9999999999999 308.3550413808295 L 635 306.42063644979885 L 635 306.4206364497991 L 635.9999999999999 304.47675221563344 L 635.9999999999999 304.47675221563367 L 637 302.524009127076 L 637 302.52400912707617 L 638 300.56303711381963 L 638 300.5630371138198 L 639 298.59447543573145 L 639 298.5944754357316 L 639.9999999999999 296.6189725252431 L 639.9999999999999 296.6189725252433 L 640.9999999999999 294.63718582286515 L 640.9999999999999 294.6371858228654 L 642 292.64978160579466 L 642 292.6497816057949 L 643 290.65743480958815 L 643 290.6574348095883 L 644 288.66082884286925 L 644 288.6608288428695 L 645 286.66065539505485 L 645 286.660655395055 L 645.9999999999999 284.6576142370757 L 645.9999999999999 284.65761423707585 L 646.9999999999999 282.65241301508024 L 646.9999999999999 282.6524130150804 L 647.9999999999999 280.6457670371077 L 647.9999999999999 280.6457670371079 L 649 278.63839905272596 L 649 278.63839905272613 L 650 276.63103902562966 L 650 276.6310390256299 L 651 274.6244238991988 L 651 274.62442389919903 L 652 272.61929735502554 L 652 272.61929735502576 L 653 270.6164095644167 L 653 270.6164095644169 L 654 268.61651693288593 L 654 268.61651693288616 L 655 266.6203818376564 L 655 266.62038183765657 L 656 264.62877235819246 L 656 264.6287723581927 L 657 262.642461999793 L 657 262.64246199979317 L 658 260.6622294102746 L 658 260.6622294102748 L 659 258.6888580897844 L 659 258.6888580897846 L 659.9999999999999 256.72313609378295 L 659.9999999999999 256.7231360937832 L 661 254.7658557292443 L 661 254.7658557292445 L 662 252.81781324412694 L 662 252.8178132441271 L 663 250.87980851016832 L 663 250.87980851016852 L 664 248.95264469907096 L 664 248.95264469907113 L 665 247.0371279521422 L 665 247.0371279521424 L 666 245.1340670434644 L 666 245.13406704346454 L 667 243.24427303667045 L 667 243.24427303667065 L 668 241.36855893540954 L 668 241.36855893540974 L 669 239.50773932759313 L 669 239.50773932759327 L 670 237.66263002351272 L 670 237.6626300235129 L 671 235.8340476879332 L 671 235.83404768793338 L 671.9999999999999 234.02280946626368 L 671.9999999999999 234.02280946626385 L 673 232.22973260491983 L 673 232.22973260492 L 674 230.45563406599487 L 674 230.45563406599504 L 675 228.70133013635876 L 675 228.7013301363589 L 676 226.96763603131924 L 676 226.96763603131944 L 677 225.25536549297576 L 677 225.25536549297595 L 678 223.56533038340706 L 678 223.56533038340723 L 679 221.89834027284093 L 679 221.8983402728411 L 680 220.25520202295505 L 680 220.25520202295525 L 681 218.63671936547007 L 681 218.63671936547024 L 682 217.04369247619758 L 682 217.04369247619778 L 683 215.47691754471313 L 683 215.47691754471327 L 683.9999999999999 213.93718633983192 L 683.9999999999999 213.9371863398321 L 685 212.4252857710655 L 685 212.42528577106566 L 686 210.94199744625396 L 686 210.9419974462541 L 687 209.48809722556055 L 687 209.4880972255607 L 688 208.06435477203388 L 688 208.06435477203402 L 689 206.67153309894252 L 689 206.67153309894266 L 690 205.31038811409226 L 690 205.3103881140924 L 690.9999999999999 203.98166816134724 L 690.9999999999999 203.9816681613474 L 692 202.68611355957415 L 692 202.6861135595743 L 693 201.42445613924565 L 693 201.42445613924576 L 694 200.19741877693144 L 694 200.19741877693156 L 695 199.00571492792412 L 695 199.00571492792423 L 695.9999999999999 197.85004815724392 L 695.9999999999999 197.85004815724406 L 697 196.7311116692746 L 697 196.73111166927472 L 698 195.64958783629282 L 698 195.6495878362929 L 699 194.60614772614917 L 699 194.6061477261493 L 700 193.60145062937573 L 700 193.60145062937582 L 701 192.63614358599148 L 701 192.6361435859916 L 702 191.71086091228733 L 702 191.71086091228744 L 702.9999999999999 190.82622372787702 L 702.9999999999999 190.8262237278771 L 704 189.98283948330095 L 704 189.98283948330103 L 705 189.18130148848468 L 705 189.18130148848476 L 706 188.42218844234637 L 706 188.42218844234645 L 707 187.70606396386347 L 707 187.70606396386353 L 707.9999999999999 187.03347612490646 L 707.9999999999999 187.0334761249065 L 709 186.4049569851546 L 709 186.40495698515468 L 710 185.82102212941527 L 710 185.82102212941535 L 711 185.28217020766695 L 711 185.282170207667 L 712 184.78888247815698 L 712 184.78888247815706 L 713 184.34162235388442 L 713 184.34162235388447 L 714 183.94083495280404 L 714 183.9408349528041 L 714.9999999999999 183.58694665209157 L 714.9999999999999 183.5869466520916 L 716 183.2803646468123 L 716 183.28036464681236 L 717 183.0214765133413 L 717 183.02147651334136 L 718 182.81064977788273 L 718 182.8106497778828 L 719 182.6482314904434 L 719 182.64823149044346 L 719.9999999999999 182.53454780461445 L 719.9999999999999 182.5345478046145 L 721 182.46990356352018 L 721 182.46990356352023 L 722 182.45368521048266 L 722 182.45458189229473 L 723 182.48884379744942 L 723 182.4888437974494 L 724 182.57292777349525 L 724 182.57292777349525 L 725 182.7070494171884 L 725 182.70704941718836 L 726 182.8914010497653 L 726 182.89140104976528 L 726.9999999999999 183.12615134753838 L 726.9999999999999 183.12615134753833 L 728 183.41144498122216 L 728 183.41144498122213 L 729 183.74740226436103 L 729 183.74740226436097 L 730 184.13411881123164 L 730 184.1341188112316 L 731 184.57166520459083 L 731 184.57166520459074 L 731.9999999999999 185.060086673642 L 731.9999999999999 185.06008667364196 L 733 185.59940278259282 L 733 185.59940278259276 L 734 186.18960713017324 L 734 186.1896071301732 L 735 186.83066706048777 L 735 186.83066706048768 L 736 187.52252338556858 L 736 187.5225233855685 L 737 188.2650901199995 L 737 188.2650901199994 L 738 189.0582542279766 L 738 189.0582542279765 L 738.9999999999999 189.9018753831692 L 738.9999999999999 189.9018753831691 L 740 190.79578574174565 L 740 190.79578574174553 L 741 191.73978972891908 L 741 191.739789728919 L 742 192.73366383937488 L 742 192.7336638393748 L 743 193.7771564519285 L 743 193.7771564519284 L 743.9999999999999 194.8699876587652 L 743.9999999999999 194.8699876587651 L 745 196.01184910960862 L 745 196.01184910960848 L 746 197.2024038711546 L 746 197.20240387115447 L 747 198.44128630211384 L 747 198.44128630211372 L 748 199.7281019441885 L 748 199.72810194418838 L 749 201.0624274293128 L 749 201.06242742931266 L 750 202.4438104034773 L 750 202.44381040347716 L 750.9999999999999 203.87176946744978 L 750.9999999999999 203.8717694674496 L 752 205.34579413470507 L 752 205.34579413470493 L 753 206.86534480685813 L 753 206.865344806858 L 754 208.42985276690223 L 754 208.4298527669021 L 755 210.03872019053335 L 755 210.0387201905332 L 755.9999999999999 211.6913201758408 L 755.9999999999999 211.69132017584064 L 757 213.38699679163793 L 757 213.38699679163778 L 758 215.12506514468777 L 758 215.12506514468762 L 759 216.90481146608437 L 759 216.9048114660842 L 760 218.7254932170276 L 760 218.72549321702743 L 761 220.58633921422737 L 761 220.58633921422717 L 762 222.48654977516122 L 762 222.48654977516102 L 762.9999999999999 224.42529688339602 L 762.9999999999999 224.42529688339584 L 764 226.4017243741815 L 764 226.40172437418136 L 765 228.41494814049747 L 765 228.4149481404973 L 766 230.46405635974477 L 766 230.4640563597446 L 767 232.54810974123893 L 767 232.54810974123873 L 767.9999999999999 234.666141794665 L 767.9999999999999 234.66614179466484 L 769 236.81715911963906 L 769 236.8171591196389 L 770 239.0001417164963 L 770 239.0001417164961 L 771 241.21404331843416 L 771 241.214043318434 L 772 243.4577917451018 L 772 243.45779174510162 L 773 245.7302892777296 L 773 245.73028927772944 L 774 248.03041305587143 L 774 248.03041305587124 L 774.9999999999999 250.35701549581532 L 774.9999999999999 250.35701549581515 L 776 252.70892473071308 L 776 252.7089247307129 L 777 255.08494507244606 L 777 255.08494507244586 L 778 257.48385749525085 L 778 257.4838574952506 L 779.0000000000001 259.9044201410936 L 779.0000000000001 259.9044201410934 L 779.9999999999999 262.3453688467729 L 779.9999999999999 262.34536884677266 L 781 264.80541769272133 L 781 264.8054176927211 L 782 267.28325957343895 L 782 267.2832595734388 L 783 269.77756678950124 L 783 269.77756678950107 L 784 272.28699166104207 L 784 272.28699166104184 L 785 274.81016716260984 L 785 274.8101671626097 L 786 277.3457075792711 L 786 277.34570757927094 L 786.9999999999999 279.8922091838155 L 786.9999999999999 279.89220918381534 L 788 282.44825093490704 L 788 282.4482509349068 L 789 285.0123951959897 L 789 285.0123951959895 L 790 287.5831884747598 L 790 287.5831884747596 L 791.0000000000001 290.1591621829777 L 791.0000000000001 290.1591621829775 L 791.9999999999999 292.73883341638043 L 791.9999999999999 292.7388334163802 L 793 295.32070575444556 L 793 295.3207057544454 L 794 297.90327007971365 L 794 297.9032700797135 L 795 300.48500541638725 L 795 300.485005416387 L 796 303.06437978787596 L 796 303.06437978787574 L 797 305.6398510929557 L 797 305.6398510929554 L 798 308.2098680001825 L 798 308.2098680001821 L 798.9999999999999 310.7728708601781 L 798.9999999999999 310.7728708601777 L 800 313.3272926353978 L 800 313.3272926353974 L 801 315.8715598469441 L 801 315.87155984694374 L 802 318.4040935380033 L 802 318.4040935380029 L 803.0000000000001 320.92331025343157 L 803.0000000000001 320.92331025343117 L 803.9999999999999 323.4276230350114 L 803.9999999999999 323.42762303501104 L 805 325.9154424318818 L 805 325.91544243188144 L 806 328.3851775256077 L 806 328.38517752560733 L 807 330.83523696935674 L 807 330.8352369693564 L 808 333.26403004061217 L 808 333.26403004061183 L 809 335.6699677068374 L 809 335.66996770683704 L 810 338.05146370349223 L 810 338.0514637034919 L 810.9999999999999 340.4069356237685 L 810.9999999999999 340.4069356237682 L 812 342.73480601941014 L 812 342.7348060194098 L 813 345.03350351193876 L 813 345.03350351193836 L 814 347.3014639136149 L 814 347.30146391361455 L 815.0000000000001 349.5371313574218 L 815.0000000000001 349.53713135742146 L 815.9999999999999 351.7389594353485 L 815.9999999999999 351.73895943534814 L 817 353.9054123442377 L 817 353.90541234423733 L 818 356.03496603842586 L 818 356.0349660384255 L 819 358.1261093884077 L 819 358.12610938840743 L 820 360.17734534472004 L 820 360.17734534471975 L 821 362.18719210623203 L 821 362.1871921062317 L 822 364.15418429201156 L 822 364.1541842920113 L 822.9999999999999 366.0768741159139 L 822.9999999999999 366.0768741159136 L 824 367.9538325630329 L 824 367.9538325630326 L 825 369.78365056712414 L 825 369.78365056712386 L 826 371.5649401881112 L 826 371.564940188111 L 827.0000000000001 373.29633578875644 L 827.0000000000001 373.29633578875615 L 827.9999999999999 374.9764952095683 L 827.9999999999999 374.97649520956804 L 829 376.6041009410101 L 829 376.6041009410098 L 830 378.17786129204455 L 830 378.1778612920443 L 831 379.69651155405637 L 831 379.69651155405614 L 832 381.1588151591642 L 832 381.15881515916396 L 833 382.56356483193457 L 833 382.56356483193434 L 834 383.9095837334916 L 834 383.9095837334914 L 834.9999999999999 385.19572659700907 L 834.9999999999999 385.19572659700884 L 836 386.4208808535641 L 836 386.42088085356386 L 837 387.58396774731284 L 837 387.58396774731267 L 838 388.6839434389571 L 838 388.68394343895693 L 839 389.7198000964435 L 839 389.71980009644335 L 839.9999999999999 390.69056697184817 L 839.9999999999999 390.69056697184806 L 841 391.595311463381 L 841 391.5953114633809 L 841.9999999999999 392.43314016144524 L 841.9999999999999 392.43314016144507 L 843 393.2031998776838 L 843 393.2031998776837 L 844 393.90467865593524 L 844 393.90467865593513 L 845 394.536806764027 L 845 394.53680676402695 L 846 395.0988576653272 L 846 395.0988576653271 L 846.9999999999999 395.5901489689762 L 846.9999999999999 395.5901489689761 L 848 396.0100433577229 L 848 396.01004335772285 L 849 396.357949492287 L 849 396.35794949228693 L 850 396.6333228911757 L 850 396.63332289117557 L 851 396.8356667848838 L 851 396.83566678488376 L 851.9999999999999 396.9645329434114 L 851.9999999999999 396.96453294341137 L 853 397.019522476039 L 853 397.0002866023064 L 853.9999999999999 397.02168737917776 L 853.9999999999999 397.0002866023064 L 855 396.90652739314953 L 855 396.9065273931496 L 856 396.7379984811577 L 856 396.7379984811578 L 857 396.49450573892364 L 857 396.4945057389237 L 858 396.17590792447027 L 858 396.1759079244703 L 858.9999999999999 395.7821172927498 L 858.9999999999999 395.7821172927499 L 860 395.3131001722234 L 860 395.31310017222347 L 861 394.7688775055461 L 861 394.7688775055462 L 862 394.14952535339387 L 862 394.149525353394 L 863 393.4551753604905 L 863 393.4551753604906 L 863.9999999999999 392.6860151829062 L 863.9999999999999 392.6860151829063 L 865 391.84228887572164 L 865 391.84228887572175 L 865.9999999999999 390.9242972401699 L 865.9999999999999 390.92429724017006 L 867 389.9323981293899 L 867 389.93239812939004 L 868 388.8670067119513 L 868 388.8670067119515 L 869 387.7285956923275 L 869 387.72859569232764 L 870 386.5176954875264 L 870 386.51769548752657 L 870.9999999999999 385.23489435911114 L 870.9999999999999 385.2348943591113 L 872 383.8808384998661 L 872 383.88083849986634 L 873 382.4562320744052 L 873 382.4562320744054 L 874 380.9618372130307 L 874 380.96183721303095 L 875 379.3984739582004 L 875 379.3984739582006 L 875.9999999999999 377.7670201629801 L 875.9999999999999 377.7670201629803 L 877 376.0684113408979 L 877 376.0684113408982 L 877.9999999999999 374.3036404666509 L 877.9999999999999 374.3036404666512 L 879 372.47375772714423 L 879 372.47375772714446 L 880 370.5798702223949 L 880 370.5798702223952 L 881 368.62314161584754 L 881 368.6231416158478 L 882 366.60479173371147 L 882 366.60479173371175 L 882.9999999999999 364.5260961129536 L 882.9999999999999 364.52609611295395 L 884 362.3883854976256 L 884 362.38838549762596 L 885 360.19304528325387 L 885 360.19304528325415 L 886 357.941514909051 L 886 357.94151490905136 L 887 355.6352871977638 L 887 355.63528719776406 L 887.9999999999999 353.27590764301107 L 887.9999999999999 353.2759076430114 L 889 350.8649736440119 L 889 350.86497364401225 L 889.9999999999999 348.40413368765473 L 889.9999999999999 348.4041336876551 L 891 345.8950864779 L 891 345.89508647790035 L 892 343.33958001256775" stroke-opacity="0.6980392156862745" stroke-linecap="round" stroke-linejoin="round" stroke-miterlimit="10" stroke-width="5"/><path fill="none" stroke="rgb(0,153,0)" paint-order="fill stroke markers" d=" M 665.2860545737091 573 L 184.66607168274646 -5" stroke-opacity="0.6980392156862745" stroke-linejoin="round" stroke-miterlimit="10" stroke-width="2.5" stroke-dasharray="10.5,4,2.5,4"/><path fill="rgb(68,68,68)" stroke="none" paint-order="stroke fill markers" d=" M 457.18070069791474 317.9192732212666 C 457.18070069791474 320.1284122205898 455.3898396972379 321.9192732212666 453.18070069791474 321.9192732212666 C 450.9715616985916 321.9192732212666 449.18070069791474 320.1284122205898 449.18070069791474 317.9192732212666 C 449.18070069791474 315.71013422194346 450.9715616985916 313.9192732212666 453.18070069791474 313.9192732212666 C 455.3898396972379 313.9192732212666 457.18070069791474 315.71013422194346 457.18070069791474 317.9192732212666 Z" fill-opacity="1"/><path fill="none" stroke="rgb(0,0,0)" paint-order="fill stroke markers" d=" M 457.18070069791474 317.9192732212666 C 457.18070069791474 320.1284122205898 455.3898396972379 321.9192732212666 453.18070069791474 321.9192732212666 C 450.9715616985916 321.9192732212666 449.18070069791474 320.1284122205898 449.18070069791474 317.9192732212666 C 449.18070069791474 315.71013422194346 450.9715616985916 313.9192732212666 453.18070069791474 313.9192732212666 C 455.3898396972379 313.9192732212666 457.18070069791474 315.71013422194346 457.18070069791474 317.9192732212666 Z" stroke-opacity="1" stroke-linecap="round" stroke-linejoin="round" stroke-miterlimit="10"/></g></g></svg>