<svg version="1.1" xmlns="http://www.w3.org/2000/svg" xmlns:xlink="http://www.w3.org/1999/xlink" width="636" height="402"><defs><clipPath id="NtbsdAllatlR"><path fill="none" stroke="none" d=" M 0 0 L 636 0 L 636 402 L 0 402 L 0 0 Z"/></clipPath></defs><g transform="scale(1,1)" clip-path="url(#NtbsdAllatlR)"><g><rect fill="rgb(255,255,255)" stroke="none" x="0" y="0" width="636" height="402" fill-opacity="1"/><path fill="none" stroke="rgb(37,37,37)" paint-order="fill stroke markers" d=" M 318.5 2.5 L 318.5 402.5" stroke-opacity="1" stroke-miterlimit="10"/><path fill="none" stroke="rgb(37,37,37)" paint-order="fill stroke markers" d=" M 318.5 1.5 L 314.5 5.5" stroke-opacity="1" stroke-miterlimit="10"/><path fill="none" stroke="rgb(37,37,37)" paint-order="fill stroke markers" d=" M 318.5 1.5 L 322.5 5.5" stroke-opacity="1" stroke-miterlimit="10"/><path fill="none" stroke="rgb(37,37,37)" paint-order="fill stroke markers" d=" M 0.5 201.5 L 634.5 201.5" stroke-opacity="1" stroke-miterlimit="10"/><path fill="none" stroke="rgb(37,37,37)" paint-order="fill stroke markers" d=" M 635.5 201.5 L 631.5 197.5" stroke-opacity="1" stroke-miterlimit="10"/><path fill="none" stroke="rgb(37,37,37)" paint-order="fill stroke markers" d=" M 635.5 201.5 L 631.5 205.5" stroke-opacity="1" stroke-miterlimit="10"/><path fill="none" stroke="rgb(0,100,0)" paint-order="fill stroke markers" d=" M 90.56513816796055 -10 L 91 -7.115712799999926 L 91 -7.115712799999983 L 91.99999999999997 -0.6379008000000965 L 91.99999999999997 -0.6379008000001818 L 93 5.687500000000085 L 93 5.687499999999972 L 93.99999999999997 11.862899199999958 L 93.99999999999997 11.862899199999873 L 95 17.89068720000006 L 95 17.890687200000002 L 95.99999999999997 23.773235199999988 L 95.99999999999997 23.77323519999993 L 97 29.51289520000006 L 97 29.512895200000003 L 97.99999999999997 35.111999999999966 L 97.99999999999997 35.11199999999991 L 99 40.57286320000006 L 99 40.5728632 L 99.99999999999997 45.897779199999974 L 99.99999999999997 45.897779199999945 L 101 51.08902320000007 L 101 51.08902320000004 L 102 56.14885119999994 L 102 56.14885119999994 L 103 61.07950000000008 L 103 61.07950000000005 L 104 65.88318719999998 L 104 65.88318719999995 L 105 70.56211120000012 L 105 70.56211120000006 L 106 75.1184512 L 106 75.11845119999998 L 107 79.55436720000009 L 107 79.55436720000006 L 108 83.872 L 108 83.87199999999996 L 109 88.07347120000009 L 109 88.07347120000006 L 110 92.16088320000001 L 110 92.16088319999997 L 111.00000000000003 96.13631920000012 L 111.00000000000003 96.13631920000007 L 112 100.0018432 L 112 100.00184319999998 L 113.00000000000003 103.7595000000001 L 113.00000000000003 103.75950000000006 L 114 107.41131520000002 L 114 107.41131519999998 L 114.99999999999997 110.95929519999993 L 114.99999999999997 110.9592951999999 L 116 114.40542720000003 L 116 114.4054272 L 116.99999999999997 117.75167919999996 L 116.99999999999997 117.75167919999993 L 118 121.00000000000001 L 118 121 L 119 124.15231920000002 L 119 124.15231920000001 L 120 127.21054720000004 L 120 127.21054720000001 L 121 130.1765752 L 121 130.1765752 L 122 133.05227520000003 L 122 133.0522752 L 123 135.83950000000002 L 123 135.8395 L 124 138.54008320000003 L 124 138.5400832 L 125 141.15583920000003 L 125 141.1558392 L 126 143.68856320000003 L 126 143.68856320000003 L 127 146.14003119999998 L 127 146.14003119999995 L 128 148.512 L 128 148.51199999999997 L 129 150.8062072 L 129 150.80620719999996 L 130 153.0243712 L 130 153.02437119999996 L 131 155.16819119999997 L 131 155.16819119999997 L 132 157.2393472 L 132 157.2393472 L 133 159.2395 L 133 159.23949999999996 L 134 161.1702912 L 134 161.17029119999998 L 135 163.0333432 L 135 163.0333432 L 136 164.8302592 L 136 164.8302592 L 137 166.5626232 L 137 166.5626232 L 138 168.232 L 138 168.23199999999997 L 139 169.83993519999999 L 139 169.83993519999999 L 140 171.3879552 L 140 171.3879552 L 141 172.87756720000002 L 141 172.8775672 L 142 174.31025920000002 L 142 174.3102592 L 143 175.6875 L 143 175.6875 L 144 177.01073920000002 L 144 177.0107392 L 145 178.28140720000002 L 145 178.2814072 L 146 179.5009152 L 146 179.5009152 L 147 180.6706552 L 147 180.6706552 L 148 181.792 L 148 181.792 L 149 182.8663032 L 149 182.8663032 L 150 183.8948992 L 150 183.8948992 L 151 184.8791032 L 151 184.8791032 L 152 185.8202112 L 152 185.8202112 L 153 186.71949999999998 L 153 186.71949999999998 L 154 187.5782272 L 154 187.5782272 L 155 188.3976312 L 155 188.39763119999998 L 156 189.1789312 L 156 189.1789312 L 157 189.9233272 L 157 189.9233272 L 158 190.632 L 158 190.632 L 159 191.3061112 L 159 191.3061112 L 160 191.9468032 L 160 191.9468032 L 161 192.5551992 L 161 192.5551992 L 162 193.1324032 L 162 193.1324032 L 163 193.6795 L 163 193.6795 L 164 194.1975552 L 164 194.1975552 L 165 194.6876152 L 165 194.6876152 L 166 195.1507072 L 166 195.1507072 L 167 195.5878392 L 167 195.5878392 L 168 196 L 168 196 L 169 196.3881592 L 169 196.3881592 L 170 196.7532672 L 170 196.7532672 L 171 197.0962552 L 171 197.0962552 L 172 197.4180352 L 172 197.4180352 L 173 197.7195 L 173 197.7195 L 174 198.0015232 L 174 198.0015232 L 175 198.2649592 L 175 198.2649592 L 176 198.5106432 L 176 198.5106432 L 177 198.7393912 L 177 198.7393912 L 178 198.952 L 178 198.952 L 179 199.1492472 L 179 199.1492472 L 180 199.3318912 L 180 199.3318912 L 181 199.5006712 L 181 199.5006712 L 182 199.6563072 L 182 199.6563072 L 183 199.7995 L 183 199.7995 L 184 199.9309312 L 184 199.9309312 L 185 200.0512632 L 185 200.0512632 L 186 200.1611392 L 186 200.1611392 L 187 200.2611832 L 187 200.2611832 L 188 200.352 L 188 200.352 L 189 200.4341752 L 189 200.4341752 L 190 200.5082752 L 190 200.5082752 L 191 200.5748472 L 191 200.5748472 L 192 200.6344192 L 192 200.6344192 L 193 200.6875 L 193 200.6875 L 194 200.7345792 L 194 200.7345792 L 195 200.7761272 L 195 200.7761272 L 196 200.8125952 L 196 200.8125952 L 197 200.8444152 L 197 200.8444152 L 198 200.872 L 198 200.872 L 199 200.8957432 L 199 200.8957432 L 200 200.9160192 L 200 200.9160192 L 201 200.9331832 L 201 200.9331832 L 202 200.9475712 L 202 200.9475712 L 203 200.9595 L 203 200.9595 L 204 200.9692672 L 204 200.9692672 L 205 200.9771512 L 205 200.9771512 L 206 200.9834112 L 206 200.9834112 L 207 200.9882872 L 207 200.9882872 L 208 200.992 L 208 200.992 L 209 200.9947512 L 209 200.9947512 L 210 200.9967232 L 210 200.9967232 L 211 200.9980792 L 211 200.9980792 L 212 200.9989632 L 212 200.9989632 L 213 200.9995 L 213 200.9995 L 214 200.9997952 L 214 200.9997952 L 215 200.9999352 L 215 200.9999352 L 216 200.9999872 L 216 200.9999872 L 217 200.9999992 L 217 200.9999992 L 218 201 L 218 201 L 219 200.9999992 L 219 200.9999992 L 220 200.9999872 L 220 200.9999872 L 221 200.9999352 L 221 200.9999352 L 222 200.9997952 L 222 200.9997952 L 223 200.9995 L 223 200.9995 L 224 200.9989632 L 224 200.9989632 L 225 200.9980792 L 225 200.9980792 L 226 200.9967232 L 226 200.9967232 L 227 200.9947512 L 227 200.9947512 L 228 200.992 L 228 200.992 L 229 200.9882872 L 229 200.9882872 L 230 200.9834112 L 230 200.9834112 L 231 200.9771512 L 231 200.9771512 L 232 200.9692672 L 232 200.9692672 L 233 200.9595 L 233 200.9595 L 234 200.9475712 L 234 200.9475712 L 235 200.9331832 L 235 200.9331832 L 236 200.9160192 L 236 200.9160192 L 237 200.8957432 L 237 200.8957432 L 238 200.872 L 238 200.872 L 239 200.8444152 L 239 200.8444152 L 240 200.8125952 L 240 200.8125952 L 241 200.7761272 L 241 200.7761272 L 242 200.7345792 L 242 200.7345792 L 243 200.6875 L 243 200.6875 L 244 200.6344192 L 244 200.6344192 L 245 200.5748472 L 245 200.5748472 L 246 200.5082752 L 246 200.5082752 L 247 200.4341752 L 247 200.4341752 L 248 200.352 L 248 200.352 L 249 200.2611832 L 249 200.2611832 L 250 200.1611392 L 250 200.1611392 L 251 200.0512632 L 251 200.0512632 L 252 199.9309312 L 252 199.9309312 L 253 199.7995 L 253 199.7995 L 254 199.6563072 L 254 199.65630720000001 L 255 199.5006712 L 255 199.5006712 L 256 199.3318912 L 256 199.3318912 L 257 199.1492472 L 257 199.1492472 L 258 198.952 L 258 198.952 L 259 198.7393912 L 259 198.7393912 L 260 198.5106432 L 260 198.5106432 L 261 198.2649592 L 261 198.2649592 L 262 198.0015232 L 262 198.0015232 L 263 197.7195 L 263 197.7195 L 264 197.4180352 L 264 197.4180352 L 265 197.0962552 L 265 197.0962552 L 266 196.7532672 L 266 196.7532672 L 267 196.3881592 L 267 196.3881592 L 268 196 L 268 196 L 269 195.5878392 L 269 195.5878392 L 270 195.1507072 L 270 195.1507072 L 271 194.6876152 L 271 194.6876152 L 272 194.1975552 L 272 194.1975552 L 273 193.6795 L 273 193.6795 L 274 193.1324032 L 274 193.1324032 L 275 192.5551992 L 275 192.5551992 L 276 191.9468032 L 276 191.9468032 L 277 191.3061112 L 277 191.3061112 L 278 190.632 L 278 190.632 L 279 189.9233272 L 279 189.92332720000002 L 280 189.1789312 L 280 189.1789312 L 281 188.3976312 L 281 188.3976312 L 282 187.5782272 L 282 187.57822720000001 L 283 186.7195 L 283 186.7195 L 284 185.82021120000002 L 284 185.82021120000002 L 285 184.8791032 L 285 184.8791032 L 286 183.8948992 L 286 183.8948992 L 287 182.8663032 L 287 182.8663032 L 288 181.792 L 288 181.792 L 289 180.6706552 L 289 180.6706552 L 290 179.5009152 L 290 179.5009152 L 291 178.2814072 L 291 178.28140720000002 L 292 177.0107392 L 292 177.01073920000002 L 293 175.6875 L 293 175.6875 L 294 174.3102592 L 294 174.31025920000002 L 295 172.8775672 L 295 172.87756720000002 L 296 171.3879552 L 296 171.3879552 L 297 169.83993519999999 L 297 169.83993519999999 L 298 168.23199999999997 L 298 168.232 L 299 166.5626232 L 299 166.5626232 L 300 164.8302592 L 300 164.8302592 L 301 163.0333432 L 301 163.03334320000002 L 302 161.1702912 L 302 161.1702912 L 303 159.23950000000002 L 303 159.23950000000002 L 304 157.2393472 L 304 157.23934720000003 L 305 155.1681912 L 305 155.16819120000002 L 306 153.0243712 L 306 153.02437120000002 L 307 150.8062072 L 307 150.80620720000002 L 308 148.512 L 308 148.512 L 309 146.1400312 L 309 146.1400312 L 310 143.68856319999998 L 310 143.68856320000003 L 311 141.1558392 L 311 141.15583920000003 L 312 138.5400832 L 312 138.54008320000003 L 313 135.8395 L 313 135.83950000000002 L 314 133.0522752 L 314 133.05227520000003 L 315 130.1765752 L 315 130.1765752 L 316 127.21054720000001 L 316 127.21054720000004 L 317 124.15231920000001 L 317 124.15231920000002 L 318 121 L 318 121.00000000000001 L 319 117.7516792 L 319 117.75167920000003 L 320 114.4054272 L 320 114.40542720000003 L 321 110.9592952 L 321 110.95929520000004 L 322 107.41131519999998 L 322 107.41131520000002 L 323 103.75949999999999 L 323 103.75950000000003 L 324 100.00184319999998 L 324 100.0018432 L 325 96.1363192 L 325 96.13631920000002 L 326 92.16088319999997 L 326 92.16088320000001 L 327 88.07347119999997 L 327 88.07347120000001 L 328 83.87199999999996 L 328 83.872 L 329 79.55436719999997 L 329 79.55436719999999 L 330 75.11845119999998 L 330 75.1184512 L 331 70.56211120000006 L 331 70.56211120000012 L 332 65.88318719999995 L 332 65.88318719999998 L 333 61.07950000000005 L 333 61.07950000000008 L 334 56.148851200000024 L 334 56.14885120000005 L 335 51.08902320000004 L 335 51.08902320000007 L 336 45.89777920000003 L 336 45.89777920000006 L 337 40.5728632 L 337 40.57286320000006 L 338 35.111999999999995 L 338 35.11200000000008 L 339 29.512895200000003 L 339 29.51289520000006 L 340 23.773235200000016 L 340 23.7732352000001 L 341 17.890687200000002 L 341 17.89068720000006 L 342 11.862899199999958 L 342 11.862899200000072 L 343 5.687499999999972 L 343 5.687500000000085 L 344 -0.6379008000000113 L 344 -0.6379007999999544 L 345 -7.115712799999983 L 345 -7.115712799999926 L 345.4348618320394 -10" stroke-opacity="0.6980392156862745" stroke-linecap="round" stroke-linejoin="round" stroke-miterlimit="10" stroke-width="2.5"/><text fill="rgb(0,100,0)" stroke="none" font-family="geogebra-sans-serif, sans-serif" font-size="16px" font-style="normal" font-weight="normal" text-decoration="normal" x="82" y="24" text-anchor="start" dominant-baseline="alphabetic" fill-opacity="1">f</text><text fill="none" stroke="rgb(255,255,255)" font-family="geogebra-sans-serif, sans-serif" font-size="16px" font-style="normal" font-weight="normal" text-decoration="normal" x="82" y="24" text-anchor="start" dominant-baseline="alphabetic" stroke-opacity="1" stroke-linejoin="bevel" stroke-miterlimit="10" stroke-width="3">f</text><text fill="rgb(0,100,0)" stroke="none" font-family="geogebra-sans-serif, sans-serif" font-size="16px" font-style="normal" font-weight="normal" text-decoration="normal" x="82" y="24" text-anchor="start" dominant-baseline="alphabetic" fill-opacity="1">f</text><path fill="none" stroke="rgb(204,0,0)" paint-order="fill stroke markers" d=" M 266.4525644330036 412 L 267 408.95424039999995 L 267 408.9542404 L 268 403.4999999999999 L 268 403.5 L 269 398.1537603999999 L 269 398.1537604 L 270 392.9140864 L 270 392.9140864 L 271 387.7795523999999 L 271 387.77955239999994 L 272 382.74874239999986 L 272 382.74874239999997 L 273 377.82024999999993 L 273 377.82025 L 274 372.99267839999993 L 274 372.9926784 L 275 368.2646403999999 L 275 368.26464039999996 L 276 363.6347583999999 L 276 363.6347584 L 277 359.1016644 L 277 359.10166440000006 L 278 354.6639999999999 L 278 354.664 L 279 350.3204164 L 279 350.32041640000006 L 280 346.06957439999996 L 280 346.06957439999996 L 281 341.91014440000004 L 281 341.91014440000004 L 282 337.8408063999999 L 282 337.84080639999996 L 283 333.86025 L 283 333.86025000000006 L 284 329.9671744 L 284 329.9671744000001 L 285 326.1602884 L 285 326.1602884 L 286 322.4383104 L 286 322.43831040000003 L 287 318.7999684 L 287 318.7999684 L 288 315.244 L 288 315.244 L 289 311.7691524 L 289 311.7691524 L 290 308.3741824 L 290 308.3741824 L 291 305.0578564 L 291 305.0578564 L 292 301.81895039999995 L 292 301.8189504 L 293 298.65624999999994 L 293 298.65625 L 294 295.56855039999994 L 294 295.56855040000005 L 295 292.5546564 L 295 292.5546564 L 296 289.6133824 L 296 289.6133824 L 297 286.7435524 L 297 286.7435524 L 298 283.94399999999996 L 298 283.944 L 299 281.2135684 L 299 281.2135684 L 300 278.55111039999997 L 300 278.55111039999997 L 301 275.9554884 L 301 275.9554884 L 302 273.42557439999996 L 302 273.42557439999996 L 303 270.96025 L 303 270.96025 L 304 268.5584064 L 304 268.5584064 L 305 266.21894439999994 L 305 266.21894439999994 L 306 263.9407744 L 306 263.9407744 L 307 261.7228164 L 307 261.7228164 L 308 259.564 L 308 259.564 L 309 257.4632644 L 309 257.4632644 L 310 255.4195584 L 310 255.41955840000003 L 311 253.4318404 L 311 253.4318404 L 312 251.4990784 L 312 251.4990784 L 313 249.62025 L 313 249.62025 L 314 247.7943424 L 314 247.7943424 L 315 246.02035239999998 L 315 246.0203524 L 316 244.2972864 L 316 244.2972864 L 317 242.6241604 L 317 242.6241604 L 318 241 L 318 241 L 319 239.4238404 L 319 239.4238404 L 320 237.89472639999997 L 320 237.8947264 L 321 236.4117124 L 321 236.4117124 L 322 234.97386239999997 L 322 234.9738624 L 323 233.58024999999998 L 323 233.58025 L 324 232.2299584 L 324 232.2299584 L 325 230.92208039999997 L 325 230.9220804 L 326 229.65571839999998 L 326 229.6557184 L 327 228.4299844 L 327 228.4299844 L 328 227.244 L 328 227.244 L 329 226.0968964 L 329 226.0968964 L 330 224.9878144 L 330 224.9878144 L 331 223.9159044 L 331 223.9159044 L 332 222.8803264 L 332 222.8803264 L 333 221.88025 L 333 221.88025 L 334 220.9148544 L 334 220.9148544 L 335 219.9833284 L 335 219.9833284 L 336 219.0848704 L 336 219.0848704 L 337 218.2186884 L 337 218.21868840000002 L 338 217.38400000000001 L 338 217.38400000000001 L 339 216.5800324 L 339 216.5800324 L 340 215.8060224 L 340 215.80602240000002 L 341 215.0612164 L 341 215.0612164 L 342 214.3448704 L 342 214.3448704 L 343 213.65625 L 343 213.65625 L 344 212.9946304 L 344 212.9946304 L 345 212.3592964 L 345 212.3592964 L 346 211.7495424 L 346 211.7495424 L 347 211.1646724 L 347 211.1646724 L 348 210.60399999999998 L 348 210.60399999999998 L 349 210.0668484 L 349 210.0668484 L 350 209.5525504 L 350 209.5525504 L 351 209.06044839999998 L 351 209.06044839999998 L 352 208.5898944 L 352 208.5898944 L 353 208.14024999999998 L 353 208.14025 L 354 207.7108864 L 354 207.7108864 L 355 207.3011844 L 355 207.3011844 L 356 206.9105344 L 356 206.9105344 L 357 206.5383364 L 357 206.5383364 L 358 206.184 L 358 206.184 L 359 205.84694439999998 L 359 205.8469444 L 360 205.5265984 L 360 205.5265984 L 361 205.2224004 L 361 205.2224004 L 362 204.9337984 L 362 204.9337984 L 363 204.66025 L 363 204.66025 L 364 204.4012224 L 364 204.4012224 L 365 204.1561924 L 365 204.1561924 L 366 203.9246464 L 366 203.9246464 L 367 203.7060804 L 367 203.7060804 L 368 203.5 L 368 203.5 L 369 203.3059204 L 369 203.3059204 L 370 203.1233664 L 370 203.1233664 L 371 202.9518724 L 371 202.9518724 L 372 202.7909824 L 372 202.7909824 L 373 202.64025 L 373 202.64025 L 374 202.4992384 L 374 202.4992384 L 375 202.3675204 L 375 202.3675204 L 376 202.2446784 L 376 202.2446784 L 377 202.1303044 L 377 202.1303044 L 378 202.024 L 378 202.024 L 379 201.9253764 L 379 201.9253764 L 380 201.8340544 L 380 201.8340544 L 381 201.7496644 L 381 201.7496644 L 382 201.6718464 L 382 201.6718464 L 383 201.60025 L 383 201.60025 L 384 201.5345344 L 384 201.5345344 L 385 201.4743684 L 385 201.4743684 L 386 201.4194304 L 386 201.4194304 L 387 201.3694084 L 387 201.3694084 L 388 201.324 L 388 201.324 L 389 201.2829124 L 389 201.2829124 L 390 201.2458624 L 390 201.2458624 L 391 201.2125764 L 391 201.2125764 L 392 201.1827904 L 392 201.1827904 L 393 201.15625 L 393 201.15625 L 394 201.1327104 L 394 201.1327104 L 395 201.1119364 L 395 201.1119364 L 396 201.0937024 L 396 201.0937024 L 397 201.0777924 L 397 201.0777924 L 398 201.064 L 398 201.064 L 399 201.0521284 L 399 201.0521284 L 400 201.0419904 L 400 201.0419904 L 401 201.0334084 L 401 201.0334084 L 402 201.0262144 L 402 201.0262144 L 403 201.02025 L 403 201.02025 L 404 201.0153664 L 404 201.0153664 L 405 201.0114244 L 405 201.0114244 L 406 201.0082944 L 406 201.0082944 L 407 201.0058564 L 407 201.0058564 L 408 201.004 L 408 201.004 L 409 201.0026244 L 409 201.0026244 L 410 201.0016384 L 410 201.0016384 L 411 201.0009604 L 411 201.0009604 L 412 201.0005184 L 412 201.0005184 L 413 201.00025 L 413 201.00025 L 414 201.0001024 L 414 201.0001024 L 415 201.0000324 L 415 201.0000324 L 416 201.0000064 L 416 201.0000064 L 417 201.0000004 L 417 201.0000004 L 418 201 L 418 201.0000004 L 419 201 L 419 201.0000004 L 420 201.0000064 L 420 201.0000064 L 421 201.0000324 L 421 201.0000324 L 422 201.0001024 L 422 201.0001024 L 423 201.00025 L 423 201.00025 L 424 201.0005184 L 424 201.0005184 L 425 201.0009604 L 425 201.0009604 L 426 201.0016384 L 426 201.0016384 L 427 201.0026244 L 427 201.0026244 L 428 201.004 L 428 201.004 L 429 201.0058564 L 429 201.0058564 L 430 201.0082944 L 430 201.0082944 L 431 201.0114244 L 431 201.0114244 L 432 201.0153664 L 432 201.0153664 L 433 201.02025 L 433 201.02025 L 434 201.0262144 L 434 201.0262144 L 435 201.0334084 L 435 201.0334084 L 436 201.0419904 L 436 201.0419904 L 437 201.0521284 L 437 201.0521284 L 438 201.064 L 438 201.064 L 439 201.0777924 L 439 201.0777924 L 440 201.0937024 L 440 201.0937024 L 441 201.1119364 L 441 201.1119364 L 442 201.1327104 L 442 201.1327104 L 443 201.15625 L 443 201.15625 L 444 201.1827904 L 444 201.1827904 L 445 201.2125764 L 445 201.2125764 L 446 201.2458624 L 446 201.2458624 L 447 201.2829124 L 447 201.2829124 L 448 201.324 L 448 201.324 L 449 201.3694084 L 449 201.3694084 L 450 201.4194304 L 450 201.4194304 L 451 201.4743684 L 451 201.4743684 L 452 201.5345344 L 452 201.5345344 L 453 201.60025 L 453 201.60025 L 454 201.6718464 L 454 201.6718464 L 455 201.7496644 L 455 201.7496644 L 456 201.8340544 L 456 201.8340544 L 457 201.9253764 L 457 201.9253764 L 458 202.024 L 458 202.024 L 459 202.1303044 L 459 202.1303044 L 460 202.2446784 L 460 202.2446784 L 461 202.3675204 L 461 202.3675204 L 462 202.4992384 L 462 202.4992384 L 463 202.64025 L 463 202.64025 L 464 202.7909824 L 464 202.7909824 L 465 202.9518724 L 465 202.9518724 L 466 203.1233664 L 466 203.1233664 L 467 203.3059204 L 467 203.3059204 L 468 203.5 L 468 203.5 L 469 203.7060804 L 469 203.7060804 L 470 203.9246464 L 470 203.9246464 L 471 204.1561924 L 471 204.1561924 L 472 204.4012224 L 472 204.4012224 L 473 204.66025 L 473 204.66025 L 474 204.9337984 L 474 204.9337984 L 475 205.2224004 L 475 205.2224004 L 476 205.5265984 L 476 205.5265984 L 477 205.8469444 L 477 205.8469444 L 478 206.184 L 478 206.184 L 479 206.5383364 L 479 206.5383364 L 480 206.91053440000002 L 480 206.9105344 L 481 207.3011844 L 481 207.3011844 L 482 207.7108864 L 482 207.7108864 L 483 208.14025 L 483 208.14025 L 484 208.58989440000002 L 484 208.5898944 L 485 209.06044839999998 L 485 209.06044839999998 L 486 209.5525504 L 486 209.5525504 L 487 210.0668484 L 487 210.0668484 L 488 210.60399999999998 L 488 210.60399999999998 L 489 211.1646724 L 489 211.1646724 L 490 211.7495424 L 490 211.7495424 L 491 212.3592964 L 491 212.3592964 L 492 212.9946304 L 492 212.9946304 L 493 213.65625 L 493 213.65625 L 494 214.3448704 L 494 214.3448704 L 495 215.0612164 L 495 215.0612164 L 496 215.80602240000002 L 496 215.8060224 L 497 216.5800324 L 497 216.5800324 L 498 217.38400000000001 L 498 217.38400000000001 L 499 218.21868840000002 L 499 218.2186884 L 500 219.0848704 L 500 219.0848704 L 501 219.9833284 L 501 219.9833284 L 502 220.9148544 L 502 220.9148544 L 503 221.88025000000002 L 503 221.88025 L 504 222.8803264 L 504 222.8803264 L 505 223.91590440000002 L 505 223.91590440000002 L 506 224.98781440000002 L 506 224.9878144 L 507 226.09689640000002 L 507 226.09689640000002 L 508 227.24400000000003 L 508 227.244 L 509 228.42998440000002 L 509 228.42998440000002 L 510 229.65571839999998 L 510 229.65571839999998 L 511 230.9220804 L 511 230.92208039999997 L 512 232.2299584 L 512 232.2299584 L 513 233.58025 L 513 233.58024999999998 L 514 234.9738624 L 514 234.97386239999997 L 515 236.4117124 L 515 236.4117124 L 516 237.8947264 L 516 237.89472639999997 L 517 239.4238404 L 517 239.4238404 L 518 241 L 518 241 L 519 242.62416040000005 L 519 242.62416040000002 L 520 244.2972864 L 520 244.2972864 L 521 246.02035240000004 L 521 246.02035240000004 L 522 247.7943424 L 522 247.7943424 L 523 249.62024999999997 L 523 249.62024999999994 L 524 251.4990784 L 524 251.4990784 L 525 253.43184039999997 L 525 253.43184039999994 L 526 255.41955840000003 L 526 255.4195584 L 527 257.46326439999996 L 527 257.46326439999996 L 528 259.564 L 528 259.564 L 529 261.72281639999994 L 529 261.72281639999994 L 530 263.9407744 L 530 263.9407744 L 531 266.21894439999994 L 531 266.21894439999994 L 532 268.5584064 L 532 268.5584064 L 533 270.96025 L 533 270.96025 L 534 273.4255744 L 534 273.4255744 L 535 275.9554884 L 535 275.9554884 L 536 278.5511104 L 536 278.5511104 L 537 281.2135684 L 537 281.2135684 L 538 283.9440000000001 L 538 283.944 L 539 286.7435524 L 539 286.7435524 L 540 289.61338240000003 L 540 289.6133824 L 541 292.5546564 L 541 292.5546564 L 542 295.56855040000005 L 542 295.56855040000005 L 543 298.65625 L 543 298.65624999999994 L 544 301.81895040000006 L 544 301.81895040000006 L 545 305.0578564 L 545 305.0578564 L 546 308.3741824000001 L 546 308.37418240000005 L 547 311.7691524 L 547 311.7691524 L 548 315.2440000000001 L 548 315.244 L 549 318.7999684 L 549 318.7999684 L 550 322.4383103999999 L 550 322.43831039999986 L 551 326.1602884 L 551 326.1602884 L 552 329.9671744 L 552 329.96717439999986 L 553 333.86025000000006 L 553 333.86025 L 554 337.84080639999996 L 554 337.8408063999999 L 555 341.91014440000004 L 555 341.91014440000004 L 556 346.06957439999996 L 556 346.06957439999996 L 557 350.32041640000006 L 557 350.3204164 L 558 354.664 L 558 354.6639999999999 L 559 359.10166440000006 L 559 359.1016644 L 560 363.6347584 L 560 363.6347583999999 L 561 368.2646404000001 L 561 368.2646404000001 L 562 372.9926784 L 562 372.99267839999993 L 563 377.8202500000001 L 563 377.82025 L 564 382.74874239999997 L 564 382.74874239999986 L 565 387.77955240000017 L 565 387.77955240000006 L 566 392.9140864 L 566 392.9140864 L 567 398.1537604000002 L 567 398.1537604000001 L 568 403.5 L 568 403.4999999999999 L 569 408.95424040000023 L 569 408.9542404000001 L 569.5474355669963 412" stroke-opacity="0.6980392156862745" stroke-linecap="round" stroke-linejoin="round" stroke-miterlimit="10" stroke-width="2.5"/><text fill="rgb(204,0,0)" stroke="none" font-family="geogebra-sans-serif, sans-serif" font-size="16px" font-style="normal" font-weight="normal" text-decoration="normal" x="277" y="382" text-anchor="start" dominant-baseline="alphabetic" fill-opacity="1">g</text><text fill="none" stroke="rgb(255,255,255)" font-family="geogebra-sans-serif, sans-serif" font-size="16px" font-style="normal" font-weight="normal" text-decoration="normal" x="277" y="382" text-anchor="start" dominant-baseline="alphabetic" stroke-opacity="1" stroke-linejoin="bevel" stroke-miterlimit="10" stroke-width="3">g</text><text fill="rgb(204,0,0)" stroke="none" font-family="geogebra-sans-serif, sans-serif" font-size="16px" font-style="normal" font-weight="normal" text-decoration="normal" x="277" y="382" text-anchor="start" dominant-baseline="alphabetic" fill-opacity="1">g</text><path fill="none" stroke="rgb(0,0,0)" paint-order="fill stroke markers" d=" M 99.65302302976468 44.06541527411224 L 340.2670089717944 22.216621643949395" stroke-opacity="0.6980392156862745" stroke-linecap="round" stroke-linejoin="round" stroke-miterlimit="10" stroke-width="2.5"/><path fill="none" stroke="rgb(0,0,0)" paint-order="fill stroke markers" d=" M 104.42958804393322 67.9083554582034 L 334.7914061642548 52.155244702081404" stroke-opacity="0.6980392156862745" stroke-linecap="round" stroke-linejoin="round" stroke-miterlimit="10" stroke-width="2.5"/><path fill="none" stroke="rgb(0,0,0)" paint-order="fill stroke markers" d=" M 112.64330189932562 102.43139909522695 L 318 121" stroke-opacity="0.6980392156862745" stroke-linecap="round" stroke-linejoin="round" stroke-miterlimit="10" stroke-width="2.5"/><path fill="none" stroke="rgb(0,0,0)" paint-order="fill stroke markers" d=" M 217.99999544761886 201 L 112.64330189932562 102.43139909522695" stroke-opacity="0.6980392156862745" stroke-linecap="round" stroke-linejoin="round" stroke-miterlimit="10" stroke-width="2.5"/><path fill="none" stroke="rgb(0,0,0)" paint-order="fill stroke markers" d=" M 318 121 L 217.99999544761886 201" stroke-opacity="0.6980392156862745" stroke-linecap="round" stroke-linejoin="round" stroke-miterlimit="10" stroke-width="2.5"/><path fill="none" stroke="rgb(0,0,0)" paint-order="fill stroke markers" d=" M 291.7350274957343 177.35249243220505 L 112.64330189932562 102.43139909522695" stroke-opacity="0.6980392156862745" stroke-linecap="round" stroke-linejoin="round" stroke-miterlimit="10" stroke-width="2.5"/><path fill="none" stroke="rgb(0,0,0)" paint-order="fill stroke markers" d=" M 291.7350274957343 177.35249243220505 L 217.99999544761886 201" stroke-opacity="0.6980392156862745" stroke-linecap="round" stroke-linejoin="round" stroke-miterlimit="10" stroke-width="2.5"/><path fill="none" stroke="rgb(0,0,0)" paint-order="fill stroke markers" d=" M 291.7350274957343 177.35249243220505 L 104.42958804393322 67.9083554582034" stroke-opacity="0.6980392156862745" stroke-linecap="round" stroke-linejoin="round" stroke-miterlimit="10" stroke-width="2.5"/><path fill="none" stroke="rgb(0,0,0)" paint-order="fill stroke markers" d=" M 340.2670089717944 22.216621643949395 L 291.7350274957343 177.35249243220505" stroke-opacity="0.6980392156862745" stroke-linecap="round" stroke-linejoin="round" stroke-miterlimit="10" stroke-width="2.5"/><path fill="none" stroke="rgb(0,0,0)" paint-order="fill stroke markers" d=" M 104.42958804393322 67.9083554582034 L 291.7350274957343 177.35249243220505" stroke-opacity="0.6980392156862745" stroke-linecap="round" stroke-linejoin="round" stroke-miterlimit="10" stroke-width="2.5"/><path fill="none" stroke="rgb(0,0,0)" paint-order="fill stroke markers" d=" M 340.2670089717944 22.216621643949395 L 99.65302302976468 44.06541527411224" stroke-opacity="0.6980392156862745" stroke-linecap="round" stroke-linejoin="round" stroke-miterlimit="10" stroke-width="2.5"/><path fill="none" stroke="rgb(0,0,0)" paint-order="fill stroke markers" d=" M 300.38896840021 277.53361521583525 L 522.428179040523 248.56974371995236" stroke-opacity="0.6980392156862745" stroke-linecap="round" stroke-linejoin="round" stroke-miterlimit="10" stroke-width="2.5"/><path fill="none" stroke="rgb(0,0,0)" paint-order="fill stroke markers" d=" M 283.38410641359536 332.3546177608009 L 417.99999589372294 201" stroke-opacity="0.6980392156862745" stroke-linecap="round" stroke-linejoin="round" stroke-miterlimit="10" stroke-width="2.5"/><path fill="none" stroke="rgb(0,0,0)" paint-order="fill stroke markers" d=" M 345.60099594183606 211.9898144301792 L 542.80919203706 298.0613390149198" stroke-opacity="0.6980392156862745" stroke-linecap="round" stroke-linejoin="round" stroke-miterlimit="10" stroke-width="2.5"/><path fill="none" stroke="rgb(0,0,0)" paint-order="fill stroke markers" d=" M 283.38410641359536 332.3546177608009 L 417.99999589372294 201" stroke-opacity="0.6980392156862745" stroke-linecap="round" stroke-linejoin="round" stroke-miterlimit="10" stroke-width="2.5"/></g></g></svg>