<svg version="1.1" xmlns="http://www.w3.org/2000/svg" xmlns:xlink="http://www.w3.org/1999/xlink" width="496" height="515"><defs><clipPath id="VSOnZIkHoaxv"><path fill="none" stroke="none" d=" M 0 0 L 496 0 L 496 515 L 0 515 L 0 0 Z"/></clipPath></defs><g transform="scale(1,1)" clip-path="url(#VSOnZIkHoaxv)"><g><rect fill="rgb(255,255,255)" stroke="none" x="0" y="0" width="497" height="515" fill-opacity="1"/><path fill="none" stroke="rgb(37,37,37)" paint-order="fill stroke markers" d=" M 43.5 2.5 L 43.5 515.5" stroke-opacity="1" stroke-miterlimit="10"/><path fill="none" stroke="rgb(37,37,37)" paint-order="fill stroke markers" d=" M 43.5 1.5 L 39.5 5.5" stroke-opacity="1" stroke-miterlimit="10"/><path fill="none" stroke="rgb(37,37,37)" paint-order="fill stroke markers" d=" M 43.5 1.5 L 47.5 5.5" stroke-opacity="1" stroke-miterlimit="10"/><path fill="none" stroke="rgb(37,37,37)" paint-order="fill stroke markers" d=" M 0.5 212.5 L 494.5 212.5" stroke-opacity="1" stroke-miterlimit="10"/><path fill="none" stroke="rgb(37,37,37)" paint-order="fill stroke markers" d=" M 495.5 212.5 L 491.5 208.5" stroke-opacity="1" stroke-miterlimit="10"/><path fill="none" stroke="rgb(37,37,37)" paint-order="fill stroke markers" d=" M 495.5 212.5 L 491.5 216.5" stroke-opacity="1" stroke-miterlimit="10"/><text fill="rgb(37,37,37)" stroke="none" font-family="geogebra-sans-serif, sans-serif" font-size="12px" font-style="normal" font-weight="normal" text-decoration="normal" x="91" y="228" text-anchor="start" dominant-baseline="alphabetic" fill-opacity="1">1</text><text fill="none" stroke="rgb(255,255,255)" font-family="geogebra-sans-serif, sans-serif" font-size="12px" font-style="normal" font-weight="normal" text-decoration="normal" x="91" y="228" text-anchor="start" dominant-baseline="alphabetic" stroke-opacity="1" stroke-linejoin="bevel" stroke-miterlimit="10" stroke-width="3">1</text><text fill="rgb(37,37,37)" stroke="none" font-family="geogebra-sans-serif, sans-serif" font-size="12px" font-style="normal" font-weight="normal" text-decoration="normal" x="91" y="228" text-anchor="start" dominant-baseline="alphabetic" fill-opacity="1">1</text><path fill="none" stroke="rgb(37,37,37)" paint-order="fill stroke markers" d=" M 93.5 212.5 L 93.5 215.5" stroke-opacity="1" stroke-miterlimit="10"/><text fill="rgb(37,37,37)" stroke="none" font-family="geogebra-sans-serif, sans-serif" font-size="12px" font-style="normal" font-weight="normal" text-decoration="normal" x="141" y="228" text-anchor="start" dominant-baseline="alphabetic" fill-opacity="1">2</text><text fill="none" stroke="rgb(255,255,255)" font-family="geogebra-sans-serif, sans-serif" font-size="12px" font-style="normal" font-weight="normal" text-decoration="normal" x="141" y="228" text-anchor="start" dominant-baseline="alphabetic" stroke-opacity="1" stroke-linejoin="bevel" stroke-miterlimit="10" stroke-width="3">2</text><text fill="rgb(37,37,37)" stroke="none" font-family="geogebra-sans-serif, sans-serif" font-size="12px" font-style="normal" font-weight="normal" text-decoration="normal" x="141" y="228" text-anchor="start" dominant-baseline="alphabetic" fill-opacity="1">2</text><path fill="none" stroke="rgb(37,37,37)" paint-order="fill stroke markers" d=" M 143.5 212.5 L 143.5 215.5" stroke-opacity="1" stroke-miterlimit="10"/><text fill="rgb(37,37,37)" stroke="none" font-family="geogebra-sans-serif, sans-serif" font-size="12px" font-style="normal" font-weight="normal" text-decoration="normal" x="191" y="228" text-anchor="start" dominant-baseline="alphabetic" fill-opacity="1">3</text><text fill="none" stroke="rgb(255,255,255)" font-family="geogebra-sans-serif, sans-serif" font-size="12px" font-style="normal" font-weight="normal" text-decoration="normal" x="191" y="228" text-anchor="start" dominant-baseline="alphabetic" stroke-opacity="1" stroke-linejoin="bevel" stroke-miterlimit="10" stroke-width="3">3</text><text fill="rgb(37,37,37)" stroke="none" font-family="geogebra-sans-serif, sans-serif" font-size="12px" font-style="normal" font-weight="normal" text-decoration="normal" x="191" y="228" text-anchor="start" dominant-baseline="alphabetic" fill-opacity="1">3</text><path fill="none" stroke="rgb(37,37,37)" paint-order="fill stroke markers" d=" M 193.5 212.5 L 193.5 215.5" stroke-opacity="1" stroke-miterlimit="10"/><text fill="rgb(37,37,37)" stroke="none" font-family="geogebra-sans-serif, sans-serif" font-size="12px" font-style="normal" font-weight="normal" text-decoration="normal" x="241" y="228" text-anchor="start" dominant-baseline="alphabetic" fill-opacity="1">4</text><text fill="none" stroke="rgb(255,255,255)" font-family="geogebra-sans-serif, sans-serif" font-size="12px" font-style="normal" font-weight="normal" text-decoration="normal" x="241" y="228" text-anchor="start" dominant-baseline="alphabetic" stroke-opacity="1" stroke-linejoin="bevel" stroke-miterlimit="10" stroke-width="3">4</text><text fill="rgb(37,37,37)" stroke="none" font-family="geogebra-sans-serif, sans-serif" font-size="12px" font-style="normal" font-weight="normal" text-decoration="normal" x="241" y="228" text-anchor="start" dominant-baseline="alphabetic" fill-opacity="1">4</text><path fill="none" stroke="rgb(37,37,37)" paint-order="fill stroke markers" d=" M 243.5 212.5 L 243.5 215.5" stroke-opacity="1" stroke-miterlimit="10"/><text fill="rgb(37,37,37)" stroke="none" font-family="geogebra-sans-serif, sans-serif" font-size="12px" font-style="normal" font-weight="normal" text-decoration="normal" x="291" y="228" text-anchor="start" dominant-baseline="alphabetic" fill-opacity="1">5</text><text fill="none" stroke="rgb(255,255,255)" font-family="geogebra-sans-serif, sans-serif" font-size="12px" font-style="normal" font-weight="normal" text-decoration="normal" x="291" y="228" text-anchor="start" dominant-baseline="alphabetic" stroke-opacity="1" stroke-linejoin="bevel" stroke-miterlimit="10" stroke-width="3">5</text><text fill="rgb(37,37,37)" stroke="none" font-family="geogebra-sans-serif, sans-serif" font-size="12px" font-style="normal" font-weight="normal" text-decoration="normal" x="291" y="228" text-anchor="start" dominant-baseline="alphabetic" fill-opacity="1">5</text><path fill="none" stroke="rgb(37,37,37)" paint-order="fill stroke markers" d=" M 293.5 212.5 L 293.5 215.5" stroke-opacity="1" stroke-miterlimit="10"/><text fill="rgb(37,37,37)" stroke="none" font-family="geogebra-sans-serif, sans-serif" font-size="12px" font-style="normal" font-weight="normal" text-decoration="normal" x="341" y="228" text-anchor="start" dominant-baseline="alphabetic" fill-opacity="1">6</text><text fill="none" stroke="rgb(255,255,255)" font-family="geogebra-sans-serif, sans-serif" font-size="12px" font-style="normal" font-weight="normal" text-decoration="normal" x="341" y="228" text-anchor="start" dominant-baseline="alphabetic" stroke-opacity="1" stroke-linejoin="bevel" stroke-miterlimit="10" stroke-width="3">6</text><text fill="rgb(37,37,37)" stroke="none" font-family="geogebra-sans-serif, sans-serif" font-size="12px" font-style="normal" font-weight="normal" text-decoration="normal" x="341" y="228" text-anchor="start" dominant-baseline="alphabetic" fill-opacity="1">6</text><path fill="none" stroke="rgb(37,37,37)" paint-order="fill stroke markers" d=" M 343.5 212.5 L 343.5 215.5" stroke-opacity="1" stroke-miterlimit="10"/><text fill="rgb(37,37,37)" stroke="none" font-family="geogebra-sans-serif, sans-serif" font-size="12px" font-style="normal" font-weight="normal" text-decoration="normal" x="391" y="228" text-anchor="start" dominant-baseline="alphabetic" fill-opacity="1">7</text><text fill="none" stroke="rgb(255,255,255)" font-family="geogebra-sans-serif, sans-serif" font-size="12px" font-style="normal" font-weight="normal" text-decoration="normal" x="391" y="228" text-anchor="start" dominant-baseline="alphabetic" stroke-opacity="1" stroke-linejoin="bevel" stroke-miterlimit="10" stroke-width="3">7</text><text fill="rgb(37,37,37)" stroke="none" font-family="geogebra-sans-serif, sans-serif" font-size="12px" font-style="normal" font-weight="normal" text-decoration="normal" x="391" y="228" text-anchor="start" dominant-baseline="alphabetic" fill-opacity="1">7</text><path fill="none" stroke="rgb(37,37,37)" paint-order="fill stroke markers" d=" M 393.5 212.5 L 393.5 215.5" stroke-opacity="1" stroke-miterlimit="10"/><text fill="rgb(37,37,37)" stroke="none" font-family="geogebra-sans-serif, sans-serif" font-size="12px" font-style="normal" font-weight="normal" text-decoration="normal" x="441" y="228" text-anchor="start" dominant-baseline="alphabetic" fill-opacity="1">8</text><text fill="none" stroke="rgb(255,255,255)" font-family="geogebra-sans-serif, sans-serif" font-size="12px" font-style="normal" font-weight="normal" text-decoration="normal" x="441" y="228" text-anchor="start" dominant-baseline="alphabetic" stroke-opacity="1" stroke-linejoin="bevel" stroke-miterlimit="10" stroke-width="3">8</text><text fill="rgb(37,37,37)" stroke="none" font-family="geogebra-sans-serif, sans-serif" font-size="12px" font-style="normal" font-weight="normal" text-decoration="normal" x="441" y="228" text-anchor="start" dominant-baseline="alphabetic" fill-opacity="1">8</text><path fill="none" stroke="rgb(37,37,37)" paint-order="fill stroke markers" d=" M 443.5 212.5 L 443.5 215.5" stroke-opacity="1" stroke-miterlimit="10"/><path fill="none" stroke="rgb(37,37,37)" paint-order="fill stroke markers" d=" M 40.5 512.5 L 43.5 512.5" stroke-opacity="1" stroke-miterlimit="10"/><path fill="none" stroke="rgb(37,37,37)" paint-order="fill stroke markers" d=" M 40.5 462.5 L 43.5 462.5" stroke-opacity="1" stroke-miterlimit="10"/><path fill="none" stroke="rgb(37,37,37)" paint-order="fill stroke markers" d=" M 40.5 412.5 L 43.5 412.5" stroke-opacity="1" stroke-miterlimit="10"/><path fill="none" stroke="rgb(37,37,37)" paint-order="fill stroke markers" d=" M 40.5 362.5 L 43.5 362.5" stroke-opacity="1" stroke-miterlimit="10"/><path fill="none" stroke="rgb(37,37,37)" paint-order="fill stroke markers" d=" M 40.5 312.5 L 43.5 312.5" stroke-opacity="1" stroke-miterlimit="10"/><path fill="none" stroke="rgb(37,37,37)" paint-order="fill stroke markers" d=" M 40.5 262.5 L 43.5 262.5" stroke-opacity="1" stroke-miterlimit="10"/><path fill="none" stroke="rgb(37,37,37)" paint-order="fill stroke markers" d=" M 40.5 162.5 L 43.5 162.5" stroke-opacity="1" stroke-miterlimit="10"/><path fill="none" stroke="rgb(37,37,37)" paint-order="fill stroke markers" d=" M 40.5 112.5 L 43.5 112.5" stroke-opacity="1" stroke-miterlimit="10"/><path fill="none" stroke="rgb(37,37,37)" paint-order="fill stroke markers" d=" M 40.5 62.5 L 43.5 62.5" stroke-opacity="1" stroke-miterlimit="10"/><path fill="none" stroke="rgb(37,37,37)" paint-order="fill stroke markers" d=" M 40.5 12.5 L 43.5 12.5" stroke-opacity="1" stroke-miterlimit="10"/><text fill="rgb(37,37,37)" stroke="none" font-family="geogebra-sans-serif, sans-serif" font-size="12px" font-style="normal" font-weight="normal" text-decoration="normal" x="22" y="467" text-anchor="start" dominant-baseline="alphabetic" fill-opacity="1">–5</text><text fill="none" stroke="rgb(255,255,255)" font-family="geogebra-sans-serif, sans-serif" font-size="12px" font-style="normal" font-weight="normal" text-decoration="normal" x="22" y="467" text-anchor="start" dominant-baseline="alphabetic" stroke-opacity="1" stroke-linejoin="bevel" stroke-miterlimit="10" stroke-width="3">–5</text><text fill="rgb(37,37,37)" stroke="none" font-family="geogebra-sans-serif, sans-serif" font-size="12px" font-style="normal" font-weight="normal" text-decoration="normal" x="22" y="467" text-anchor="start" dominant-baseline="alphabetic" fill-opacity="1">–5</text><text fill="rgb(37,37,37)" stroke="none" font-family="geogebra-sans-serif, sans-serif" font-size="12px" font-style="normal" font-weight="normal" text-decoration="normal" x="22" y="417" text-anchor="start" dominant-baseline="alphabetic" fill-opacity="1">–4</text><text fill="none" stroke="rgb(255,255,255)" font-family="geogebra-sans-serif, sans-serif" font-size="12px" font-style="normal" font-weight="normal" text-decoration="normal" x="22" y="417" text-anchor="start" dominant-baseline="alphabetic" stroke-opacity="1" stroke-linejoin="bevel" stroke-miterlimit="10" stroke-width="3">–4</text><text fill="rgb(37,37,37)" stroke="none" font-family="geogebra-sans-serif, sans-serif" font-size="12px" font-style="normal" font-weight="normal" text-decoration="normal" x="22" y="417" text-anchor="start" dominant-baseline="alphabetic" fill-opacity="1">–4</text><text fill="rgb(37,37,37)" stroke="none" font-family="geogebra-sans-serif, sans-serif" font-size="12px" font-style="normal" font-weight="normal" text-decoration="normal" x="22" y="367" text-anchor="start" dominant-baseline="alphabetic" fill-opacity="1">–3</text><text fill="none" stroke="rgb(255,255,255)" font-family="geogebra-sans-serif, sans-serif" font-size="12px" font-style="normal" font-weight="normal" text-decoration="normal" x="22" y="367" text-anchor="start" dominant-baseline="alphabetic" stroke-opacity="1" stroke-linejoin="bevel" stroke-miterlimit="10" stroke-width="3">–3</text><text fill="rgb(37,37,37)" stroke="none" font-family="geogebra-sans-serif, sans-serif" font-size="12px" font-style="normal" font-weight="normal" text-decoration="normal" x="22" y="367" text-anchor="start" dominant-baseline="alphabetic" fill-opacity="1">–3</text><text fill="rgb(37,37,37)" stroke="none" font-family="geogebra-sans-serif, sans-serif" font-size="12px" font-style="normal" font-weight="normal" text-decoration="normal" x="22" y="317" text-anchor="start" dominant-baseline="alphabetic" fill-opacity="1">–2</text><text fill="none" stroke="rgb(255,255,255)" font-family="geogebra-sans-serif, sans-serif" font-size="12px" font-style="normal" font-weight="normal" text-decoration="normal" x="22" y="317" text-anchor="start" dominant-baseline="alphabetic" stroke-opacity="1" stroke-linejoin="bevel" stroke-miterlimit="10" stroke-width="3">–2</text><text fill="rgb(37,37,37)" stroke="none" font-family="geogebra-sans-serif, sans-serif" font-size="12px" font-style="normal" font-weight="normal" text-decoration="normal" x="22" y="317" text-anchor="start" dominant-baseline="alphabetic" fill-opacity="1">–2</text><text fill="rgb(37,37,37)" stroke="none" font-family="geogebra-sans-serif, sans-serif" font-size="12px" font-style="normal" font-weight="normal" text-decoration="normal" x="22" y="267" text-anchor="start" dominant-baseline="alphabetic" fill-opacity="1">–1</text><text fill="none" stroke="rgb(255,255,255)" font-family="geogebra-sans-serif, sans-serif" font-size="12px" font-style="normal" font-weight="normal" text-decoration="normal" x="22" y="267" text-anchor="start" dominant-baseline="alphabetic" stroke-opacity="1" stroke-linejoin="bevel" stroke-miterlimit="10" stroke-width="3">–1</text><text fill="rgb(37,37,37)" stroke="none" font-family="geogebra-sans-serif, sans-serif" font-size="12px" font-style="normal" font-weight="normal" text-decoration="normal" x="22" y="267" text-anchor="start" dominant-baseline="alphabetic" fill-opacity="1">–1</text><text fill="rgb(37,37,37)" stroke="none" font-family="geogebra-sans-serif, sans-serif" font-size="12px" font-style="normal" font-weight="normal" text-decoration="normal" x="28" y="167" text-anchor="start" dominant-baseline="alphabetic" fill-opacity="1">1</text><text fill="none" stroke="rgb(255,255,255)" font-family="geogebra-sans-serif, sans-serif" font-size="12px" font-style="normal" font-weight="normal" text-decoration="normal" x="28" y="167" text-anchor="start" dominant-baseline="alphabetic" stroke-opacity="1" stroke-linejoin="bevel" stroke-miterlimit="10" stroke-width="3">1</text><text fill="rgb(37,37,37)" stroke="none" font-family="geogebra-sans-serif, sans-serif" font-size="12px" font-style="normal" font-weight="normal" text-decoration="normal" x="28" y="167" text-anchor="start" dominant-baseline="alphabetic" fill-opacity="1">1</text><text fill="rgb(37,37,37)" stroke="none" font-family="geogebra-sans-serif, sans-serif" font-size="12px" font-style="normal" font-weight="normal" text-decoration="normal" x="28" y="117" text-anchor="start" dominant-baseline="alphabetic" fill-opacity="1">2</text><text fill="none" stroke="rgb(255,255,255)" font-family="geogebra-sans-serif, sans-serif" font-size="12px" font-style="normal" font-weight="normal" text-decoration="normal" x="28" y="117" text-anchor="start" dominant-baseline="alphabetic" stroke-opacity="1" stroke-linejoin="bevel" stroke-miterlimit="10" stroke-width="3">2</text><text fill="rgb(37,37,37)" stroke="none" font-family="geogebra-sans-serif, sans-serif" font-size="12px" font-style="normal" font-weight="normal" text-decoration="normal" x="28" y="117" text-anchor="start" dominant-baseline="alphabetic" fill-opacity="1">2</text><text fill="rgb(37,37,37)" stroke="none" font-family="geogebra-sans-serif, sans-serif" font-size="12px" font-style="normal" font-weight="normal" text-decoration="normal" x="28" y="67" text-anchor="start" dominant-baseline="alphabetic" fill-opacity="1">3</text><text fill="none" stroke="rgb(255,255,255)" font-family="geogebra-sans-serif, sans-serif" font-size="12px" font-style="normal" font-weight="normal" text-decoration="normal" x="28" y="67" text-anchor="start" dominant-baseline="alphabetic" stroke-opacity="1" stroke-linejoin="bevel" stroke-miterlimit="10" stroke-width="3">3</text><text fill="rgb(37,37,37)" stroke="none" font-family="geogebra-sans-serif, sans-serif" font-size="12px" font-style="normal" font-weight="normal" text-decoration="normal" x="28" y="67" text-anchor="start" dominant-baseline="alphabetic" fill-opacity="1">3</text><text fill="rgb(37,37,37)" stroke="none" font-family="geogebra-sans-serif, sans-serif" font-size="12px" font-style="normal" font-weight="normal" text-decoration="normal" x="28" y="17" text-anchor="start" dominant-baseline="alphabetic" fill-opacity="1">4</text><text fill="none" stroke="rgb(255,255,255)" font-family="geogebra-sans-serif, sans-serif" font-size="12px" font-style="normal" font-weight="normal" text-decoration="normal" x="28" y="17" text-anchor="start" dominant-baseline="alphabetic" stroke-opacity="1" stroke-linejoin="bevel" stroke-miterlimit="10" stroke-width="3">4</text><text fill="rgb(37,37,37)" stroke="none" font-family="geogebra-sans-serif, sans-serif" font-size="12px" font-style="normal" font-weight="normal" text-decoration="normal" x="28" y="17" text-anchor="start" dominant-baseline="alphabetic" fill-opacity="1">4</text><text fill="rgb(37,37,37)" stroke="none" font-family="geogebra-sans-serif, sans-serif" font-size="12px" font-style="normal" font-weight="normal" text-decoration="normal" x="28" y="228" text-anchor="start" dominant-baseline="alphabetic" fill-opacity="1">0</text><text fill="none" stroke="rgb(255,255,255)" font-family="geogebra-sans-serif, sans-serif" font-size="12px" font-style="normal" font-weight="normal" text-decoration="normal" x="28" y="228" text-anchor="start" dominant-baseline="alphabetic" stroke-opacity="1" stroke-linejoin="bevel" stroke-miterlimit="10" stroke-width="3">0</text><text fill="rgb(37,37,37)" stroke="none" font-family="geogebra-sans-serif, sans-serif" font-size="12px" font-style="normal" font-weight="normal" text-decoration="normal" x="28" y="228" text-anchor="start" dominant-baseline="alphabetic" fill-opacity="1">0</text><path fill="none" stroke="rgb(204,0,0)" paint-order="fill stroke markers" d=" M 43.00000000000001 515 L 43.00000000000001 515 M 43.00000000000001 408.1011502714084 L 43.49999999999999 515 L 43.999999999999986 408.1011502714084 L 45.00000000000001 373.44379124341003 L 45.00000000000001 373.44379124341003 L 45.999999999999986 353.1705358380022 L 45.999999999999986 353.17053583800225 L 47.00000000000001 338.7864322154128 L 47.00000000000001 338.7864322154128 L 47.999999999999986 327.6292546497025 L 47.999999999999986 327.62925464970255 L 48.999999999999986 318.5131768100047 L 48.999999999999986 318.5131768100048 L 49.99999999999999 310.8056428186418 L 49.99999999999999 310.8056428186418 L 50.99999999999999 304.12907318741566 L 50.99999999999999 304.12907318741566 L 51.99999999999999 298.23992140459643 L 51.99999999999999 298.2399214045965 L 52.99999999999999 292.97189562170513 L 52.99999999999999 292.97189562170513 L 53.99999999999999 288.2063866314889 L 53.99999999999999 288.2063866314889 L 54.99999999999999 283.85581778200736 L 54.99999999999999 283.8558177820074 L 55.99999999999999 279.85368239833053 L 55.99999999999999 279.8536823983306 L 56.99999999999999 276.1482837906444 L 56.99999999999999 276.1482837906445 L 58 272.6986402162969 L 58 272.6986402162969 L 59 269.4717141594183 L 59 269.47171415941835 L 60 266.44048306859656 L 60 266.44048306859656 L 61 263.5825623765991 L 61 263.5825623765991 L 62 260.87920131308533 L 62 260.87920131308533 L 63 258.3145365937078 L 63 258.3145365937078 L 64 255.87502838523622 L 64 255.87502838523622 L 65 253.54902760349157 L 65 253.5490276034916 L 66 251.32643947494986 L 66 251.3264394749499 L 67 249.19845875401006 L 67 249.1984587540101 L 68 247.1573590279973 L 68 247.15735902799733 L 69 245.19632337033323 L 69 245.19632337033326 L 70 243.3093069711909 L 70 243.30930697119092 L 71 241.49092476264715 L 71 241.49092476264715 L 72 239.73635877208363 L 72 239.73635877208366 L 72.99999999999999 238.04128118829962 L 72.99999999999999 238.04128118829962 L 73.99999999999999 236.4017900471501 L 73.99999999999999 236.4017900471501 L 74.99999999999999 234.81435513142105 L 74.99999999999999 234.81435513142105 L 75.99999999999999 233.27577219808336 L 75.99999999999999 233.27577219808336 L 76.99999999999999 231.78312404059932 L 76.99999999999999 231.78312404059932 L 77.99999999999999 230.33374719693668 L 77.99999999999999 230.3337471969367 L 79 228.92520334860188 L 79 228.92520334860188 L 80 227.55525463919616 L 80 227.55525463919616 L 81 226.2218422850881 L 81 226.2218422850881 L 82 224.92306796492505 L 82 224.92306796492505 L 83 223.65717756571055 L 83 223.65717756571055 L 84 222.42254693619196 L 84 222.422546936192 L 85 221.21766935723895 L 85 221.21766935723895 L 86 220.04114448672925 L 86 220.04114448672925 L 87 218.8916685754943 L 87 218.89166857549432 L 88 217.76802578289139 L 88 217.76802578289139 L 89 216.66908044695262 L 89 216.66908044695262 L 90 215.59377018590445 L 90 215.59377018590445 L 91 214.54109972601282 L 91 214.54109972601282 L 92 213.51013536587604 L 92 213.51013536587604 L 93 212.50000000000006 L 93 212.50000000000006 L 94 211.50986863519108 L 94 211.50986863519108 L 95 210.538964342336 L 95 210.538964342336 L 96 209.58655459380125 L 96 209.58655459380125 L 97 208.65194794319365 L 97 208.65194794319365 L 98 207.73449100978382 L 98 207.73449100978382 L 99 206.83356573464988 L 99 206.83356573464988 L 100 205.94858687967985 L 100 205.94858687967985 L 101 205.0789997440864 L 101 205.0789997440864 L 102 204.22427807612138 L 102 204.22427807612138 L 103 203.38392216030232 L 103 203.38392216030232 L 103.99999999999999 202.5574570627418 L 103.99999999999999 202.5574570627418 L 104.99999999999999 201.74443101915278 L 104.99999999999999 201.74443101915278 L 105.99999999999999 200.94441395183074 L 105.99999999999999 200.94441395183074 L 106.99999999999999 200.15699610342378 L 106.99999999999999 200.15699610342378 L 108 199.38178677662552 L 108 199.38178677662552 L 109 198.6184131700861 L 109 198.6184131700861 L 110 197.86651930185906 L 110 197.86651930185906 L 111 197.12576501260202 L 111 197.12576501260205 L 112 196.39582504154438 L 112 196.39582504154438 L 113 195.6763881689394 L 113 195.6763881689394 L 114 194.9671564193416 L 114 194.9671564193416 L 115 194.26784432060458 L 115 194.2678443206046 L 116 193.5781782139878 L 116 193.5781782139878 L 117 192.89789561119886 L 117 192.89789561119886 L 118 192.22674459459182 L 118 192.22674459459185 L 119 191.5644832570908 L 119 191.5644832570908 L 120 190.91087917872318 L 120 190.91087917872318 L 121 190.26570893692775 L 121 190.26570893692778 L 122 189.62875764805628 L 122 189.62875764805628 L 123 188.99981853771328 L 123 188.99981853771328 L 124 188.3786925377854 L 124 188.3786925377854 L 125 187.7651879081947 L 125 187.7651879081947 L 126 187.15911988157745 L 126 187.15911988157745 L 127 186.56031032924167 L 127 186.56031032924167 L 128 185.96858744689152 L 128 185.96858744689155 L 129 185.38378545873195 L 129 185.38378545873198 L 130 184.80574433867815 L 130 184.80574433867818 L 131 184.23430954749702 L 131 184.23430954749705 L 132 183.66933178480036 L 132 183.66933178480036 L 133 183.11066675489408 L 133 183.1106667548941 L 134 182.55817494556484 L 134 182.55817494556487 L 135 182.01172141895535 L 135 182.01172141895535 L 136 181.47117561374455 L 136 181.47117561374455 L 137 180.93641115790717 L 137 180.93641115790717 L 138 180.40730569138032 L 138 180.40730569138032 L 139 179.88374069801554 L 139 179.88374069801557 L 140 179.3656013462382 L 140 179.36560134623824 L 141 178.85277633787877 L 141 178.85277633787877 L 142 178.34515776467785 L 142 178.34515776467788 L 143 177.84264097200278 L 143 177.8426409720028 L 144 177.34512442934437 L 144 177.3451244293444 L 145 176.85250960719378 L 145 176.8525096071938 L 146 176.36470085992556 L 146 176.36470085992556 L 147 175.8816053143387 L 147 175.88160531433874 L 148 175.40313276353118 L 148 175.4031327635312 L 149 174.92919556580398 L 149 174.929195565804 L 150 174.45970854831205 L 150 174.45970854831205 L 151 173.99458891519637 L 151 173.99458891519637 L 152 173.53375615995017 L 152 173.53375615995017 L 153 173.07713198178652 L 153 173.07713198178655 L 154 172.62464020579063 L 154 172.62464020579066 L 155 172.17620670665264 L 155 172.17620670665264 L 156 171.73175933579031 L 156 171.73175933579034 L 157 171.29122785168258 L 157 171.29122785168258 L 158 170.85454385324485 L 158 170.85454385324485 L 159 170.42164071608912 L 159 170.42164071608912 L 160 169.99245353151954 L 160 169.99245353151957 L 161 169.5669190481241 L 161 169.56691904812413 L 161.99999999999997 169.1449756158309 L 161.99999999999997 169.1449756158309 L 163 168.72656313230505 L 163 168.72656313230505 L 164 168.3116229915703 L 164 168.31162299157032 L 165 167.90009803474453 L 165 167.90009803474453 L 166 167.49193250278648 L 166 167.49193250278648 L 167 167.0870719911555 L 167 167.0870719911555 L 168 166.68546340629229 L 168 166.6854634062923 L 169 166.28705492383344 L 169 166.28705492383347 L 170 165.8917959484778 L 170 165.8917959484778 L 171 165.4996370754265 L 171 165.4996370754265 L 171.99999999999997 165.11053005332374 L 171.99999999999997 165.11053005332377 L 173 164.72442774862822 L 173 164.72442774862824 L 174 164.34128411134978 L 174 164.34128411134978 L 175 163.9610541420888 L 175 163.9610541420888 L 176 163.58369386031967 L 176 163.58369386031967 L 177 163.20916027386178 L 177 163.20916027386178 L 178 162.83741134948588 L 178 162.83741134948588 L 179 162.46840598460474 L 179 162.46840598460477 L 180 162.10210398000112 L 180 162.10210398000112 L 181 161.7384660135471 L 181 161.73846601354714 L 182 161.37745361487276 L 182 161.37745361487276 L 183 161.01902914094214 L 183 161.01902914094217 L 184 160.66315575249894 L 184 160.66315575249894 L 185 160.30979739134432 L 185 160.30979739134432 L 186 159.95891875841198 L 186 159.95891875841198 L 187 159.6104852926073 L 187 159.61048529260734 L 188 159.26446315037862 L 188 159.26446315037865 L 189 158.92081918599052 L 189 158.92081918599055 L 190 158.57952093247053 L 190 158.57952093247053 L 191 158.2405365832016 L 191 158.24053658320162 L 192 157.90383497413438 L 192 157.9038349741344 L 192.99999999999997 157.56938556659458 L 192.99999999999997 157.56938556659458 L 194 157.23715843066114 L 194 157.23715843066117 L 194.99999999999997 156.90712422909354 L 194.99999999999997 156.90712422909354 L 196 156.57925420178557 L 196 156.5792542017856 L 196.99999999999997 156.25352015072588 L 196.99999999999997 156.2535201507259 L 198 155.929894425445 L 198 155.929894425445 L 198.99999999999997 155.6083499089305 L 198.99999999999997 155.6083499089305 L 200 155.28886000399194 L 200 155.28886000399194 L 200.99999999999997 154.971398620059 L 200.99999999999997 154.97139862005903 L 202 154.65594016039577 L 202 154.6559401603958 L 203 154.342459509716 L 203 154.34245950971604 L 204 154.03093202218417 L 204 154.0309320221842 L 205 153.72133350978814 L 205 153.72133350978817 L 206 153.41364023106922 L 206 153.41364023106925 L 207 153.10782888019742 L 207 153.10782888019745 L 208 152.80387657637831 L 208 152.80387657637834 L 209 152.50176085358018 L 209 152.5017608535802 L 210 152.2014596505696 L 210 152.20145965056963 L 211 151.9029513012444 L 211 151.9029513012444 L 212 151.60621452525368 L 212 151.60621452525368 L 213 151.31122841889425 L 213 151.31122841889427 L 214 151.01797244627434 L 214 151.01797244627437 L 215 150.72642643073468 L 215 150.7264264307347 L 216 150.4365705465184 L 216 150.43657054651842 L 217 150.14838531068088 L 217 150.1483853106809 L 218 149.86185157523164 L 218 149.86185157523167 L 219 149.57695051949975 L 219 149.57695051949977 L 220 149.29366364271587 L 220 149.2936636427159 L 221 149.0119727568031 L 221 149.01197275680312 L 222 148.7318599793696 L 222 148.73185997936963 L 223 148.4533077268968 L 223 148.45330772689684 L 224 148.17629870811606 L 224 148.17629870811606 L 225 147.90081591756757 L 225 147.9008159175676 L 226 147.6268426293363 L 226 147.62684262933632 L 227 147.35436239095804 L 227 147.3543623909581 L 228 147.0833590174911 L 228 147.08335901749112 L 229 146.81381658574728 L 229 146.8138165857473 L 229.99999999999997 146.545719428678 L 229.99999999999997 146.54571942867804 L 231 146.27905212990987 L 231 146.2790521299099 L 231.99999999999997 146.01379951842523 L 231.99999999999997 146.01379951842523 L 233 145.74994666338304 L 233 145.74994666338307 L 234 145.48747886907586 L 234 145.48747886907586 L 235 145.22638167001827 L 235 145.22638167001827 L 236 144.96664082616306 L 236 144.9666408261631 L 237 144.70824231824093 L 237 144.70824231824093 L 238 144.45117234322 L 238 144.45117234322004 L 239 144.19541730988146 L 239 144.19541730988152 L 240 143.94096383450793 L 240 143.94096383450795 L 241 143.68779873668058 L 241 143.6877987366806 L 242 143.4359090351827 L 242 143.43590903518276 L 243.00000000000003 143.1852819440055 L 243.00000000000003 143.1852819440055 L 244 142.93590486845358 L 244 142.93590486845358 L 245.00000000000003 142.68776540134712 L 245.00000000000003 142.68776540134712 L 246 142.44085131931797 L 246 142.440851319318 L 247.00000000000003 142.19515057919654 L 247.00000000000003 142.19515057919654 L 248 141.95065131448695 L 248 141.95065131448695 L 248.99999999999997 141.7073418319283 L 248.99999999999997 141.70734183192832 L 250 141.46521060813888 L 250 141.46521060813893 L 250.99999999999997 141.22424628634144 L 250.99999999999997 141.22424628634147 L 252 140.98443767316678 L 252 140.9844376731668 L 252.99999999999997 140.7457737355339 L 252.99999999999997 140.74577373553393 L 254 140.508243597604 L 254 140.50824359760404 L 254.99999999999997 140.27183653780673 L 254.99999999999997 140.27183653780673 L 256 140.03654198593608 L 256 140.0365419859361 L 257 139.80234952031478 L 257 139.8023495203148 L 258 139.56924886502418 L 258 139.56924886502424 L 259 139.3372298871991 L 259 139.33722988719913 L 260 139.10628259438437 L 260 139.10628259438437 L 261 138.8763971319529 L 261 138.8763971319529 L 262 138.6475637805823 L 262 138.64756378058232 L 263 138.41977295378928 L 263 138.41977295378928 L 264 138.1930151955197 L 264 138.1930151955197 L 265 137.96728117779338 L 265 137.96728117779338 L 266 137.7425616984014 L 266 137.7425616984014 L 267 137.51884767865536 L 267 137.5188476786554 L 268 137.29613016118634 L 268 137.29613016118634 L 269 137.07440030779304 L 269 137.0744003077931 L 270 136.85364939733722 L 270 136.85364939733722 L 271 136.6338688236853 L 271 136.6338688236853 L 272.00000000000006 136.41505009369536 L 272.00000000000006 136.41505009369538 L 273 136.19718482524758 L 273 136.1971848252476 L 274.00000000000006 135.98026474531764 L 274.00000000000006 135.9802647453177 L 275 135.76428168809184 L 275 135.76428168809187 L 276 135.5492275931223 L 276 135.54922759312234 L 277 135.33509450352227 L 277 135.3350945035223 L 278.00000000000006 135.1218745641994 L 278.00000000000006 135.1218745641994 L 279 134.90956002012683 L 279 134.90956002012686 L 280 134.69814321465077 L 280 134.69814321465083 L 281 134.4876165878336 L 281 134.48761658783363 L 282.00000000000006 134.2779726748318 L 282.00000000000006 134.27797267483183 L 283 134.06920410430777 L 283 134.0692041043078 L 284 133.8613035968746 L 284 133.86130359687462 L 285 133.65426396357302 L 285 133.65426396357304 L 286 133.44807810437993 L 286 133.44807810437993 L 287 133.24273900674723 L 287 133.24273900674729 L 288 133.038239744171 L 288 133.03823974417102 L 289 132.83457347478918 L 289 132.83457347478924 L 290 132.63173344000847 L 290 132.6317334400085 L 291 132.42971296315824 L 291 132.42971296315824 L 292 132.22850544817197 L 292 132.22850544817197 L 293 132.02810437829504 L 293 132.02810437829504 L 294 131.82850331481814 L 294 131.82850331481816 L 295 131.62969589583616 L 295 131.6296958958362 L 296 131.43167583503134 L 296 131.43167583503134 L 297 131.2344369204805 L 297 131.23443692048053 L 298 131.03797301348604 L 298 131.03797301348607 L 299 130.8422780474292 L 299 130.84227804742926 L 300 130.64734602664635 L 300 130.64734602664637 L 301 130.45317102532647 L 301 130.45317102532647 L 302 130.25974718643045 L 302 130.25974718643047 L 303 130.06706872063097 L 303 130.06706872063097 L 304 129.87512990527267 L 304 129.87512990527267 L 305 129.6839250833525 L 305 129.6839250833525 L 306 129.4934486625191 L 306 129.49344866251914 L 307 129.3036951140915 L 307 129.30369511409154 L 308 129.11465897209624 L 308 129.11465897209627 L 309 128.92633483232237 L 309 128.92633483232242 L 310 128.73871735139488 L 310 128.73871735139488 L 311 128.5518012458645 L 311 128.5518012458645 L 312 128.36558129131538 L 312 128.3655812913154 L 313 128.1800523214886 L 313 128.18005232148863 L 314 127.9952092274223 L 314 127.99520922742231 L 315 127.81104695660747 L 315 127.81104695660748 L 316 127.62756051215936 L 316 127.62756051215938 L 317 127.44474495200383 L 317 127.44474495200386 L 318 127.26259538807878 L 318 127.26259538807881 L 319 127.08110698554984 L 319 127.08110698554987 L 320 126.90027496204041 L 320 126.90027496204044 L 321 126.72009458687549 L 321 126.7200945868755 L 322 126.54056118033905 L 322 126.54056118033907 L 323 126.36167011294486 L 323 126.36167011294488 L 324 126.18341680472005 L 324 126.18341680472007 L 325 126.00579672450166 L 325 126.00579672450169 L 326 125.82880538924546 L 326 125.82880538924547 L 327 125.65243836334704 L 327 125.65243836334706 L 328 125.47669125797482 L 328 125.47669125797484 L 329 125.30155973041471 L 329 125.30155973041474 L 330 125.12703948342629 L 330 125.1270394834263 L 331 124.95312626461005 L 331 124.95312626461008 L 332 124.77981586578572 L 332 124.77981586578575 L 333 124.60710412238136 L 333 124.60710412238139 L 334 124.43498691283271 L 334 124.43498691283274 L 335 124.26346015799325 L 335 124.26346015799328 L 336 124.09251982055397 L 336 124.09251982055399 L 337 123.92216190447326 L 337 123.92216190447328 L 338 123.75238245441635 L 338 123.75238245441638 L 339 123.58317755520432 L 339 123.58317755520434 L 340 123.41454333127236 L 340 123.41454333127237 L 341 123.24647594613711 L 341 123.24647594613714 L 342 123.07897160187302 L 342 123.07897160187305 L 343 122.91202653859729 L 343 122.9120265385973 L 344 122.74563703396355 L 344 122.74563703396358 L 345 122.57979940266387 L 345 122.57979940266388 L 346 122.41450999593889 L 346 122.4145099959389 L 347 122.24976520109625 L 347 122.24976520109627 L 348 122.08556144103675 L 348 122.08556144103677 L 349 121.9218951737883 L 349 121.92189517378831 L 350 121.75876289204749 L 350 121.7587628920475 L 351 121.59616112272862 L 351 121.59616112272865 L 352.00000000000006 121.43408642652007 L 352.00000000000006 121.43408642652008 L 353 121.27253539744774 L 353 121.27253539744777 L 354 121.11150466244564 L 354 121.11150466244565 L 355 120.95099088093322 L 355 120.95099088093325 L 356.00000000000006 120.79099074439968 L 356.00000000000006 120.79099074439969 L 357 120.63150097599467 L 357 120.63150097599468 L 358 120.4725183301257 L 358 120.47251833012571 L 359 120.31403959206173 L 359 120.31403959206175 L 360 120.15606157754331 L 360 120.15606157754333 L 361 119.9985811323985 L 361 119.99858113239851 L 362 119.84159513216511 L 362 119.84159513216514 L 363 119.68510048171873 L 363 119.68510048171875 L 364 119.52909411490656 L 364 119.52909411490657 L 365 119.37357299418692 L 365 119.37357299418694 L 366 119.2185341102745 L 366 119.21853411027453 L 367 119.06397448179086 L 367 119.0639744817909 L 368 118.90989115492047 L 368 118.90989115492049 L 369 118.75628120307196 L 369 118.75628120307198 L 370 118.60314172654468 L 370 118.60314172654469 L 371 118.45046985220016 L 371 118.45046985220019 L 372 118.29826273313876 L 372 118.29826273313877 L 373 118.14651754838104 L 373 118.14651754838106 L 374 117.9952315025542 L 374 117.99523150255422 L 375 117.8444018255829 L 375 117.84440182558293 L 376 117.69402577238515 L 376 117.69402577238517 L 377 117.54410062257232 L 377 117.54410062257233 L 378 117.39462368015403 L 378 117.39462368015404 L 379 117.24559227324714 L 379 117.24559227324715 L 380 117.09700375378925 L 380 117.09700375378928 L 381.00000000000006 116.9488554972564 L 381.00000000000006 116.94885549725642 L 382 116.80114490238482 L 382 116.80114490238485 L 383 116.65386939089699 L 383 116.65386939089701 L 384 116.50702640723149 L 384 116.50702640723152 L 385.00000000000006 116.36061341827708 L 385.00000000000006 116.36061341827711 L 386 116.21462791311035 L 386 116.21462791311038 L 387 116.06906740273743 L 387 116.06906740273745 L 388 115.92392941983935 L 388 115.92392941983938 L 389.00000000000006 115.77921151852112 L 389.00000000000006 115.77921151852114 L 390 115.63491127406438 L 390 115.63491127406441 L 391 115.49102628268363 L 391 115.49102628268365 L 392 115.34755416128598 L 392 115.347554161286 L 393 115.20449254723437 L 393 115.2044925472344 L 394 115.06183909811405 L 394 115.06183909811408 L 395 114.91959149150249 L 395 114.9195914915025 L 396 114.7777474247425 L 396 114.77774742474253 L 397 114.63630461471863 L 397 114.63630461471864 L 398 114.49526079763655 L 398 114.49526079763656 L 399 114.35461372880582 L 399 114.35461372880584 L 400 114.21436118242539 L 400 114.21436118242542 L 401 114.07450095137233 L 401 114.07450095137234 L 402 113.93503084699339 L 402 113.93503084699341 L 403 113.79594869889955 L 403 113.79594869889958 L 404 113.6572523547633 L 404 113.65725235476332 L 405 113.51893968011879 L 405 113.51893968011882 L 406 113.3810085581648 L 406 113.38100855816482 L 407 113.24345688957031 L 407 113.24345688957033 L 408 113.10628259228277 L 408 113.1062825922828 L 409 112.96948360133902 L 409 112.96948360133905 L 410.00000000000006 112.83305786867882 L 410.00000000000006 112.83305786867885 L 411 112.69700336296079 L 411 112.69700336296081 L 412 112.56131806938097 L 412 112.561318069381 L 413 112.42599998949382 L 413 112.42599998949386 L 414.00000000000006 112.29104714103556 L 414.00000000000006 112.2910471410356 L 415 112.15645755775 L 415 112.15645755775004 L 416 112.02222928921655 L 416 112.0222292892166 L 417 111.88836040068074 L 417 111.88836040068078 L 418.00000000000006 111.75484897288678 L 418.00000000000006 111.75484897288682 L 419 111.6216931019126 L 419 111.62169310191264 L 420 111.48889089900679 L 420 111.48889089900683 L 421 111.35644049042793 L 421 111.35644049042799 L 422.00000000000006 111.22434001728601 L 422.00000000000006 111.22434001728607 L 423 111.09258763538575 L 423 111.0925876353858 L 424 110.96118151507227 L 424 110.96118151507231 L 425 110.83011984107857 L 425 110.83011984107861 L 426 110.69940081237503 L 426 110.69940081237507 L 427 110.56902264202098 L 427 110.56902264202103 L 428 110.43898355701812 L 428 110.43898355701816 L 429 110.30928179816578 L 429 110.30928179816583 L 430 110.17991561991823 L 430 110.17991561991828 L 431 110.05088329024365 L 431 110.05088329024369 L 432 109.92218309048502 L 432 109.92218309048506 L 433 109.79381331522272 L 433 109.79381331522276 L 434 109.66577227213904 L 434 109.66577227213908 L 435 109.5380582818842 L 435 109.53805828188425 L 436 109.41066967794427 L 436 109.41066967794431 L 437 109.28360480651064 L 437 109.28360480651068 L 438 109.15686202635123 L 438 109.15686202635128 L 439.00000000000006 109.0304397086833 L 439.00000000000006 109.03043970868335 L 440 108.90433623704781 L 440 108.90433623704786 L 441 108.77855000718544 L 441 108.77855000718549 L 442 108.65307942691415 L 442 108.65307942691419 L 443.00000000000006 108.52792291600822 L 443.00000000000006 108.52792291600827 L 444 108.40307890607886 L 444 108.40307890607892 L 445 108.27854584045627 L 445 108.27854584045632 L 446.00000000000006 108.15432217407319 L 446.00000000000006 108.15432217407323 L 447.00000000000006 108.03040637334983 L 447.00000000000006 108.03040637334988 L 448 107.90679691608037 L 448 107.90679691608042 L 449 107.7834922913207 L 449 107.78349229132075 L 449.99999999999994 107.66049099927758 L 449.99999999999994 107.66049099927763 L 450.99999999999994 107.53779155119926 L 450.99999999999994 107.5377915511993 L 452 107.41539246926725 L 452 107.41539246926729 L 453 107.29329228648966 L 453 107.2932922864897 L 454.00000000000006 107.1714895465956 L 454.00000000000006 107.17148954659565 L 455.00000000000006 107.049982803931 L 455.00000000000006 107.04998280393104 L 456 106.9287706233557 L 456 106.92877062335575 L 457 106.8078515801416 L 457 106.80785158014164 L 458 106.68722425987242 L 458 106.68722425987247 L 458.99999999999994 106.56688725834417 L 458.99999999999994 106.56688725834421 L 460 106.44683918146725 L 460 106.4468391814673 L 461 106.32707864516952 L 461 106.32707864516956 L 462.00000000000006 106.20760427530044 L 462.00000000000006 106.20760427530048 L 463.00000000000006 106.08841470753661 L 463.00000000000006 106.08841470753666 L 464 105.96950858728826 L 464 105.9695085872883 L 465 105.85088456960673 L 465 105.85088456960678 L 466 105.73254131909343 L 466 105.73254131909347 L 466.99999999999994 105.61447750980945 L 466.99999999999994 105.61447750980949 L 468 105.4966918251865 L 468 105.49669182518655 L 469 105.37918295793881 L 469 105.37918295793885 L 470.00000000000006 105.26194960997609 L 470.00000000000006 105.26194960997614 L 471.00000000000006 105.14499049231748 L 471.00000000000006 105.14499049231753 L 472.00000000000006 105.02830432500649 L 472.00000000000006 105.02830432500653 L 473 104.91188983702692 L 473 104.91188983702696 L 474 104.79574576621994 L 474 104.79574576621998 L 474.99999999999994 104.67987085920181 L 474.99999999999994 104.67987085920187 L 475.99999999999994 104.56426387128285 L 475.99999999999994 104.56426387128289 L 477 104.44892356638708 L 477 104.44892356638712 L 478 104.33384871697312 L 478 104.33384871697316 L 479.00000000000006 104.2190381039556 L 479.00000000000006 104.21903810395564 L 480.00000000000006 104.10449051662782 L 480.00000000000006 104.10449051662786 L 481 103.99020475258502 L 481 103.99020475258506 L 482 103.87617961764876 L 482 103.8761796176488 L 483 103.76241392579199 L 483 103.76241392579203 L 483.99999999999994 103.64890649906503 L 483.99999999999994 103.64890649906508 L 485 103.53565616752242 L 485 103.53565616752246 L 486 103.42266176915055 L 486 103.4226617691506 L 487.00000000000006 103.30992214979608 L 487.00000000000006 103.30992214979612 L 488.00000000000006 103.19743616309532 L 488.00000000000006 103.19743616309538 L 489 103.08520267040412 L 489 103.08520267040416 L 490 102.97322054072889 L 490 102.97322054072895 L 491 102.86148865065809 L 491 102.86148865065813 L 491.99999999999994 102.75000588429462 L 491.99999999999994 102.75000588429467 L 493 102.63877113318905 L 493 102.6387711331891 L 494 102.52778329627343 L 494 102.52778329627347 L 495.00000000000006 102.41704127979577 L 495.00000000000006 102.41704127979582 L 496.00000000000006 102.30654399725562 L 496.00000000000006 102.30654399725566 L 497 102.19629036933993" stroke-opacity="0.6980392156862745" stroke-linecap="round" stroke-linejoin="round" stroke-miterlimit="10" stroke-width="5"/><g transform="scale(19,19)"><g transform="translate(2.526315789473684,21.06578947368421)"><path fill="rgb(204,0,0)" stroke="none" paint-order="stroke fill markers" d=" M 0.177 -0.6940000000000001 L 0.177 -0.076 Q 0.177 -0.042 0.193 -0.036000000000000004 Q 0.20400000000000001 -0.031 0.255 -0.031 L 0.255 0 L 0.14400000000000002 -0.003 Q 0.132 -0.003 0.033 0 L 0.033 -0.031 Q 0.092 -0.031 0.10200000000000001 -0.04 L 0.10400000000000001 -0.042 Q 0.111 -0.05 0.111 -0.076 L 0.111 -0.596 Q 0.111 -0.635 0.097 -0.644 L 0.096 -0.644 Q 0.085 -0.65 0.058 -0.652 L 0.033 -0.652 L 0.033 -0.683 L 0.177 -0.6940000000000001 Z"/></g><g transform="translate(2.804315789473684,21.06578947368421)"><path fill="rgb(204,0,0)" stroke="none" paint-order="stroke fill markers" d=" M 0.11 -0.34400000000000003 Q 0.11 -0.383 0.095 -0.392 Q 0.083 -0.399 0.052000000000000005 -0.4 L 0.032 -0.4 L 0.032 -0.431 L 0.17300000000000001 -0.442 L 0.17300000000000001 -0.337 Q 0.22 -0.442 0.321 -0.442 Q 0.396 -0.442 0.426 -0.405 Q 0.453 -0.374 0.456 -0.32 Q 0.457 -0.301 0.457 -0.252 L 0.457 -0.061 Q 0.458 -0.037 0.486 -0.033 Q 0.498 -0.031 0.535 -0.031 L 0.535 0 Q 0.433 -0.003 0.423 -0.003 Q 0.41500000000000004 -0.003 0.31 0 L 0.31 -0.031 Q 0.369 -0.031 0.379 -0.04 L 0.381 -0.042 Q 0.388 -0.05 0.388 -0.076 L 0.388 -0.309 Q 0.388 -0.40800000000000003 0.331 -0.418 Q 0.323 -0.42 0.314 -0.42 Q 0.253 -0.42 0.212 -0.367 Q 0.179 -0.324 0.179 -0.26 L 0.179 -0.076 Q 0.179 -0.042 0.195 -0.036000000000000004 Q 0.20600000000000002 -0.031 0.257 -0.031 L 0.257 0 Q 0.155 -0.003 0.145 -0.003 Q 0.137 -0.003 0.032 0 L 0.032 -0.031 Q 0.091 -0.031 0.101 -0.04 L 0.10300000000000001 -0.042 Q 0.11 -0.05 0.11 -0.076 L 0.11 -0.34400000000000003 Z"/></g><g transform="translate(3.360315789473684,21.06578947368421)"><path fill="rgb(204,0,0)" stroke="none" paint-order="stroke fill markers" d=" M 0.331 0.24 L 0.331 0.24 Q 0.331 0.25 0.321 0.25 Q 0.309 0.25 0.268 0.209 Q 0.20600000000000002 0.147 0.165 0.062 Q 0.099 -0.074 0.099 -0.25 Q 0.099 -0.419 0.162 -0.555 Q 0.214 -0.666 0.294 -0.733 Q 0.315 -0.75 0.321 -0.75 Q 0.331 -0.75 0.331 -0.74 Q 0.331 -0.735 0.318 -0.723 Q 0.157 -0.559 0.157 -0.25 Q 0.157 0.058 0.314 0.218 Q 0.331 0.23500000000000001 0.331 0.24 Z"/></g><g transform="translate(3.749315789473684,21.06578947368421)"><path fill="rgb(204,0,0)" stroke="none" paint-order="stroke fill markers" d=" M 0.334 -0.302 L 0.3 -0.165 Q 0.28300000000000003 -0.097 0.28300000000000003 -0.077 Q 0.28300000000000003 -0.025 0.32 -0.014 Q 0.328 -0.011 0.338 -0.011 Q 0.388 -0.011 0.429 -0.061 Q 0.456 -0.093 0.47100000000000003 -0.14200000000000002 Q 0.47400000000000003 -0.153 0.484 -0.153 Q 0.496 -0.153 0.496 -0.14300000000000002 Q 0.496 -0.11800000000000001 0.465 -0.07100000000000001 Q 0.41100000000000003 0.011 0.336 0.011 Q 0.268 0.011 0.23700000000000002 -0.046 Q 0.231 -0.055 0.228 -0.065 Q 0.20400000000000001 -0.017 0.162 0.002 Q 0.14300000000000002 0.011 0.123 0.011 Q 0.063 0.011 0.039 -0.024 Q 0.029 -0.037 0.029 -0.055 Q 0.029 -0.092 0.061 -0.107 Q 0.07200000000000001 -0.113 0.084 -0.113 Q 0.114 -0.113 0.12 -0.088 Q 0.121 -0.083 0.121 -0.078 Q 0.121 -0.044 0.08700000000000001 -0.028 Q 0.081 -0.025 0.074 -0.024 Q 0.095 -0.011 0.124 -0.011 Q 0.177 -0.011 0.20800000000000002 -0.082 Q 0.214 -0.097 0.219 -0.115 Q 0.273 -0.319 0.273 -0.353 Q 0.267 -0.41500000000000004 0.219 -0.42 Q 0.167 -0.42 0.124 -0.367 L 0.124 -0.366 Q 0.124 -0.365 0.123 -0.365 Q 0.108 -0.34500000000000003 0.096 -0.319 Q 0.091 -0.307 0.08700000000000001 -0.295 L 0.085 -0.289 Q 0.083 -0.278 0.07200000000000001 -0.278 Q 0.06 -0.278 0.06 -0.28800000000000003 Q 0.06 -0.313 0.092 -0.36 Q 0.146 -0.442 0.221 -0.442 Q 0.298 -0.442 0.329 -0.366 Q 0.361 -0.428 0.41400000000000003 -0.44 Q 0.424 -0.442 0.434 -0.442 Q 0.493 -0.442 0.517 -0.40900000000000003 Q 0.527 -0.395 0.527 -0.376 Q 0.527 -0.335 0.49 -0.321 Q 0.481 -0.318 0.47300000000000003 -0.318 Q 0.442 -0.318 0.436 -0.34500000000000003 Q 0.435 -0.34900000000000003 0.435 -0.353 Q 0.435 -0.383 0.464 -0.4 Q 0.47300000000000003 -0.405 0.483 -0.40700000000000003 Q 0.462 -0.42 0.433 -0.42 Q 0.365 -0.42 0.337 -0.314 Q 0.335 -0.308 0.334 -0.302 Z"/></g><g transform="translate(4.321315789473684,21.06578947368421)"><path fill="rgb(204,0,0)" stroke="none" paint-order="stroke fill markers" d=" M 0.289 -0.25 L 0.289 -0.25 Q 0.289 -0.081 0.226 0.055 Q 0.17400000000000002 0.166 0.094 0.233 Q 0.073 0.25 0.067 0.25 Q 0.057 0.25 0.057 0.24 Q 0.057 0.23500000000000001 0.07 0.223 Q 0.231 0.059000000000000004 0.231 -0.25 Q 0.231 -0.555 0.081 -0.712 L 0.076 -0.717 Q 0.057 -0.735 0.057 -0.74 Q 0.057 -0.75 0.067 -0.75 Q 0.079 -0.75 0.12 -0.709 Q 0.182 -0.647 0.223 -0.562 Q 0.289 -0.426 0.289 -0.25 Z"/></g></g><path fill="none" stroke="rgb(32,32,32)" paint-order="fill stroke markers" d=" M 178.91409142295223 212.50000000000006 L 178.91409142295223 162.50000000000006" stroke-opacity="0.5490196078431373" stroke-linejoin="round" stroke-miterlimit="10" stroke-width="2.5" stroke-dasharray="2.5,3"/><path fill="none" stroke="rgb(32,32,32)" paint-order="fill stroke markers" d=" M 43.00000000000001 162.50000000000006 L 178.91409142295223 162.50000000000006" stroke-opacity="0.5490196078431373" stroke-linejoin="round" stroke-miterlimit="10" stroke-width="2.5" stroke-dasharray="2.5,3"/></g></g></svg>