<svg version="1.1" xmlns="http://www.w3.org/2000/svg" xmlns:xlink="http://www.w3.org/1999/xlink" width="891" height="515"><defs><clipPath id="TTKREoqJzJyM"><path fill="none" stroke="none" d=" M 0 0 L 891 0 L 891 515 L 0 515 L 0 0 Z"/></clipPath></defs><g transform="scale(1,1)" clip-path="url(#TTKREoqJzJyM)"><g><rect fill="rgb(255,255,255)" stroke="none" x="0" y="0" width="892" height="515" fill-opacity="1"/><path fill="none" stroke="rgb(192,192,192)" paint-order="fill stroke markers" d=" M 107.5 0.5 L 107.5 515.5 M 177.5 0.5 L 177.5 515.5 M 246.5 0.5 L 246.5 515.5 M 315.5 0.5 L 315.5 515.5 M 385.5 0.5 L 385.5 515.5 M 454.5 0.5 L 454.5 515.5 M 523.5 0.5 L 523.5 515.5 M 593.5 0.5 L 593.5 515.5 M 662.5 0.5 L 662.5 515.5 M 731.5 0.5 L 731.5 515.5 M 800.5 0.5 L 800.5 515.5 M 870.5 0.5 L 870.5 515.5" stroke-opacity="1" stroke-linecap="round" stroke-linejoin="round" stroke-miterlimit="10"/><path fill="none" stroke="rgb(192,192,192)" paint-order="fill stroke markers" d="" stroke-opacity="0.23529411764705882" stroke-linecap="round" stroke-linejoin="round" stroke-miterlimit="10"/><path fill="none" stroke="rgb(192,192,192)" paint-order="fill stroke markers" d=" M 0.5 31.5 L 891.5 31.5 M 0.5 31.5 L 891.5 31.5 M 0.5 122.5 L 891.5 122.5 M 0.5 213.5 L 891.5 213.5 M 0.5 304.5 L 891.5 304.5 M 0.5 486.5 L 891.5 486.5" stroke-opacity="1" stroke-linecap="round" stroke-linejoin="round" stroke-miterlimit="10"/><path fill="none" stroke="rgb(192,192,192)" paint-order="fill stroke markers" d="" stroke-opacity="0.23529411764705882" stroke-linecap="round" stroke-linejoin="round" stroke-miterlimit="10"/><path fill="none" stroke="rgb(37,37,37)" paint-order="fill stroke markers" d=" M 38.5 2.5 L 38.5 515.5" stroke-opacity="1" stroke-miterlimit="10"/><path fill="none" stroke="rgb(37,37,37)" paint-order="fill stroke markers" d=" M 38.5 1.5 L 34.5 5.5" stroke-opacity="1" stroke-miterlimit="10"/><path fill="none" stroke="rgb(37,37,37)" paint-order="fill stroke markers" d=" M 38.5 1.5 L 42.5 5.5" stroke-opacity="1" stroke-miterlimit="10"/><path fill="none" stroke="rgb(37,37,37)" paint-order="fill stroke markers" d=" M 0.5 395.5 L 889.5 395.5" stroke-opacity="1" stroke-miterlimit="10"/><path fill="none" stroke="rgb(37,37,37)" paint-order="fill stroke markers" d=" M 890.5 395.5 L 886.5 391.5" stroke-opacity="1" stroke-miterlimit="10"/><path fill="none" stroke="rgb(37,37,37)" paint-order="fill stroke markers" d=" M 890.5 395.5 L 886.5 399.5" stroke-opacity="1" stroke-miterlimit="10"/><text fill="rgb(37,37,37)" stroke="none" font-family="geogebra-sans-serif, sans-serif" font-size="12px" font-style="normal" font-weight="normal" text-decoration="normal" x="105" y="411" text-anchor="start" dominant-baseline="alphabetic" fill-opacity="1">1</text><text fill="none" stroke="rgb(255,255,255)" font-family="geogebra-sans-serif, sans-serif" font-size="12px" font-style="normal" font-weight="normal" text-decoration="normal" x="105" y="411" text-anchor="start" dominant-baseline="alphabetic" stroke-opacity="1" stroke-linejoin="bevel" stroke-miterlimit="10" stroke-width="3">1</text><text fill="rgb(37,37,37)" stroke="none" font-family="geogebra-sans-serif, sans-serif" font-size="12px" font-style="normal" font-weight="normal" text-decoration="normal" x="105" y="411" text-anchor="start" dominant-baseline="alphabetic" fill-opacity="1">1</text><text fill="rgb(37,37,37)" stroke="none" font-family="geogebra-sans-serif, sans-serif" font-size="12px" font-style="normal" font-weight="normal" text-decoration="normal" x="175" y="411" text-anchor="start" dominant-baseline="alphabetic" fill-opacity="1">2</text><text fill="none" stroke="rgb(255,255,255)" font-family="geogebra-sans-serif, sans-serif" font-size="12px" font-style="normal" font-weight="normal" text-decoration="normal" x="175" y="411" text-anchor="start" dominant-baseline="alphabetic" stroke-opacity="1" stroke-linejoin="bevel" stroke-miterlimit="10" stroke-width="3">2</text><text fill="rgb(37,37,37)" stroke="none" font-family="geogebra-sans-serif, sans-serif" font-size="12px" font-style="normal" font-weight="normal" text-decoration="normal" x="175" y="411" text-anchor="start" dominant-baseline="alphabetic" fill-opacity="1">2</text><text fill="rgb(37,37,37)" stroke="none" font-family="geogebra-sans-serif, sans-serif" font-size="12px" font-style="normal" font-weight="normal" text-decoration="normal" x="244" y="411" text-anchor="start" dominant-baseline="alphabetic" fill-opacity="1">3</text><text fill="none" stroke="rgb(255,255,255)" font-family="geogebra-sans-serif, sans-serif" font-size="12px" font-style="normal" font-weight="normal" text-decoration="normal" x="244" y="411" text-anchor="start" dominant-baseline="alphabetic" stroke-opacity="1" stroke-linejoin="bevel" stroke-miterlimit="10" stroke-width="3">3</text><text fill="rgb(37,37,37)" stroke="none" font-family="geogebra-sans-serif, sans-serif" font-size="12px" font-style="normal" font-weight="normal" text-decoration="normal" x="244" y="411" text-anchor="start" dominant-baseline="alphabetic" fill-opacity="1">3</text><text fill="rgb(37,37,37)" stroke="none" font-family="geogebra-sans-serif, sans-serif" font-size="12px" font-style="normal" font-weight="normal" text-decoration="normal" x="313" y="411" text-anchor="start" dominant-baseline="alphabetic" fill-opacity="1">4</text><text fill="none" stroke="rgb(255,255,255)" font-family="geogebra-sans-serif, sans-serif" font-size="12px" font-style="normal" font-weight="normal" text-decoration="normal" x="313" y="411" text-anchor="start" dominant-baseline="alphabetic" stroke-opacity="1" stroke-linejoin="bevel" stroke-miterlimit="10" stroke-width="3">4</text><text fill="rgb(37,37,37)" stroke="none" font-family="geogebra-sans-serif, sans-serif" font-size="12px" font-style="normal" font-weight="normal" text-decoration="normal" x="313" y="411" text-anchor="start" dominant-baseline="alphabetic" fill-opacity="1">4</text><text fill="rgb(37,37,37)" stroke="none" font-family="geogebra-sans-serif, sans-serif" font-size="12px" font-style="normal" font-weight="normal" text-decoration="normal" x="383" y="411" text-anchor="start" dominant-baseline="alphabetic" fill-opacity="1">5</text><text fill="none" stroke="rgb(255,255,255)" font-family="geogebra-sans-serif, sans-serif" font-size="12px" font-style="normal" font-weight="normal" text-decoration="normal" x="383" y="411" text-anchor="start" dominant-baseline="alphabetic" stroke-opacity="1" stroke-linejoin="bevel" stroke-miterlimit="10" stroke-width="3">5</text><text fill="rgb(37,37,37)" stroke="none" font-family="geogebra-sans-serif, sans-serif" font-size="12px" font-style="normal" font-weight="normal" text-decoration="normal" x="383" y="411" text-anchor="start" dominant-baseline="alphabetic" fill-opacity="1">5</text><text fill="rgb(37,37,37)" stroke="none" font-family="geogebra-sans-serif, sans-serif" font-size="12px" font-style="normal" font-weight="normal" text-decoration="normal" x="452" y="411" text-anchor="start" dominant-baseline="alphabetic" fill-opacity="1">6</text><text fill="none" stroke="rgb(255,255,255)" font-family="geogebra-sans-serif, sans-serif" font-size="12px" font-style="normal" font-weight="normal" text-decoration="normal" x="452" y="411" text-anchor="start" dominant-baseline="alphabetic" stroke-opacity="1" stroke-linejoin="bevel" stroke-miterlimit="10" stroke-width="3">6</text><text fill="rgb(37,37,37)" stroke="none" font-family="geogebra-sans-serif, sans-serif" font-size="12px" font-style="normal" font-weight="normal" text-decoration="normal" x="452" y="411" text-anchor="start" dominant-baseline="alphabetic" fill-opacity="1">6</text><text fill="rgb(37,37,37)" stroke="none" font-family="geogebra-sans-serif, sans-serif" font-size="12px" font-style="normal" font-weight="normal" text-decoration="normal" x="521" y="411" text-anchor="start" dominant-baseline="alphabetic" fill-opacity="1">7</text><text fill="none" stroke="rgb(255,255,255)" font-family="geogebra-sans-serif, sans-serif" font-size="12px" font-style="normal" font-weight="normal" text-decoration="normal" x="521" y="411" text-anchor="start" dominant-baseline="alphabetic" stroke-opacity="1" stroke-linejoin="bevel" stroke-miterlimit="10" stroke-width="3">7</text><text fill="rgb(37,37,37)" stroke="none" font-family="geogebra-sans-serif, sans-serif" font-size="12px" font-style="normal" font-weight="normal" text-decoration="normal" x="521" y="411" text-anchor="start" dominant-baseline="alphabetic" fill-opacity="1">7</text><text fill="rgb(37,37,37)" stroke="none" font-family="geogebra-sans-serif, sans-serif" font-size="12px" font-style="normal" font-weight="normal" text-decoration="normal" x="591" y="411" text-anchor="start" dominant-baseline="alphabetic" fill-opacity="1">8</text><text fill="none" stroke="rgb(255,255,255)" font-family="geogebra-sans-serif, sans-serif" font-size="12px" font-style="normal" font-weight="normal" text-decoration="normal" x="591" y="411" text-anchor="start" dominant-baseline="alphabetic" stroke-opacity="1" stroke-linejoin="bevel" stroke-miterlimit="10" stroke-width="3">8</text><text fill="rgb(37,37,37)" stroke="none" font-family="geogebra-sans-serif, sans-serif" font-size="12px" font-style="normal" font-weight="normal" text-decoration="normal" x="591" y="411" text-anchor="start" dominant-baseline="alphabetic" fill-opacity="1">8</text><text fill="rgb(37,37,37)" stroke="none" font-family="geogebra-sans-serif, sans-serif" font-size="12px" font-style="normal" font-weight="normal" text-decoration="normal" x="660" y="411" text-anchor="start" dominant-baseline="alphabetic" fill-opacity="1">9</text><text fill="none" stroke="rgb(255,255,255)" font-family="geogebra-sans-serif, sans-serif" font-size="12px" font-style="normal" font-weight="normal" text-decoration="normal" x="660" y="411" text-anchor="start" dominant-baseline="alphabetic" stroke-opacity="1" stroke-linejoin="bevel" stroke-miterlimit="10" stroke-width="3">9</text><text fill="rgb(37,37,37)" stroke="none" font-family="geogebra-sans-serif, sans-serif" font-size="12px" font-style="normal" font-weight="normal" text-decoration="normal" x="660" y="411" text-anchor="start" dominant-baseline="alphabetic" fill-opacity="1">9</text><text fill="rgb(37,37,37)" stroke="none" font-family="geogebra-sans-serif, sans-serif" font-size="12px" font-style="normal" font-weight="normal" text-decoration="normal" x="726" y="411" text-anchor="start" dominant-baseline="alphabetic" fill-opacity="1">10</text><text fill="none" stroke="rgb(255,255,255)" font-family="geogebra-sans-serif, sans-serif" font-size="12px" font-style="normal" font-weight="normal" text-decoration="normal" x="726" y="411" text-anchor="start" dominant-baseline="alphabetic" stroke-opacity="1" stroke-linejoin="bevel" stroke-miterlimit="10" stroke-width="3">10</text><text fill="rgb(37,37,37)" stroke="none" font-family="geogebra-sans-serif, sans-serif" font-size="12px" font-style="normal" font-weight="normal" text-decoration="normal" x="726" y="411" text-anchor="start" dominant-baseline="alphabetic" fill-opacity="1">10</text><text fill="rgb(37,37,37)" stroke="none" font-family="geogebra-sans-serif, sans-serif" font-size="12px" font-style="normal" font-weight="normal" text-decoration="normal" x="795" y="411" text-anchor="start" dominant-baseline="alphabetic" fill-opacity="1">11</text><text fill="none" stroke="rgb(255,255,255)" font-family="geogebra-sans-serif, sans-serif" font-size="12px" font-style="normal" font-weight="normal" text-decoration="normal" x="795" y="411" text-anchor="start" dominant-baseline="alphabetic" stroke-opacity="1" stroke-linejoin="bevel" stroke-miterlimit="10" stroke-width="3">11</text><text fill="rgb(37,37,37)" stroke="none" font-family="geogebra-sans-serif, sans-serif" font-size="12px" font-style="normal" font-weight="normal" text-decoration="normal" x="795" y="411" text-anchor="start" dominant-baseline="alphabetic" fill-opacity="1">11</text><text fill="rgb(37,37,37)" stroke="none" font-family="geogebra-sans-serif, sans-serif" font-size="12px" font-style="normal" font-weight="normal" text-decoration="normal" x="865" y="411" text-anchor="start" dominant-baseline="alphabetic" fill-opacity="1">12</text><text fill="none" stroke="rgb(255,255,255)" font-family="geogebra-sans-serif, sans-serif" font-size="12px" font-style="normal" font-weight="normal" text-decoration="normal" x="865" y="411" text-anchor="start" dominant-baseline="alphabetic" stroke-opacity="1" stroke-linejoin="bevel" stroke-miterlimit="10" stroke-width="3">12</text><text fill="rgb(37,37,37)" stroke="none" font-family="geogebra-sans-serif, sans-serif" font-size="12px" font-style="normal" font-weight="normal" text-decoration="normal" x="865" y="411" text-anchor="start" dominant-baseline="alphabetic" fill-opacity="1">12</text><text fill="rgb(37,37,37)" stroke="none" font-family="geogebra-sans-serif, sans-serif" font-size="12px" font-style="normal" font-weight="normal" text-decoration="normal" x="6" y="491" text-anchor="start" dominant-baseline="alphabetic" fill-opacity="1">–0.5</text><text fill="none" stroke="rgb(255,255,255)" font-family="geogebra-sans-serif, sans-serif" font-size="12px" font-style="normal" font-weight="normal" text-decoration="normal" x="6" y="491" text-anchor="start" dominant-baseline="alphabetic" stroke-opacity="1" stroke-linejoin="bevel" stroke-miterlimit="10" stroke-width="3">–0.5</text><text fill="rgb(37,37,37)" stroke="none" font-family="geogebra-sans-serif, sans-serif" font-size="12px" font-style="normal" font-weight="normal" text-decoration="normal" x="6" y="491" text-anchor="start" dominant-baseline="alphabetic" fill-opacity="1">–0.5</text><text fill="rgb(37,37,37)" stroke="none" font-family="geogebra-sans-serif, sans-serif" font-size="12px" font-style="normal" font-weight="normal" text-decoration="normal" x="12" y="309" text-anchor="start" dominant-baseline="alphabetic" fill-opacity="1">0.5</text><text fill="none" stroke="rgb(255,255,255)" font-family="geogebra-sans-serif, sans-serif" font-size="12px" font-style="normal" font-weight="normal" text-decoration="normal" x="12" y="309" text-anchor="start" dominant-baseline="alphabetic" stroke-opacity="1" stroke-linejoin="bevel" stroke-miterlimit="10" stroke-width="3">0.5</text><text fill="rgb(37,37,37)" stroke="none" font-family="geogebra-sans-serif, sans-serif" font-size="12px" font-style="normal" font-weight="normal" text-decoration="normal" x="12" y="309" text-anchor="start" dominant-baseline="alphabetic" fill-opacity="1">0.5</text><text fill="rgb(37,37,37)" stroke="none" font-family="geogebra-sans-serif, sans-serif" font-size="12px" font-style="normal" font-weight="normal" text-decoration="normal" x="23" y="218" text-anchor="start" dominant-baseline="alphabetic" fill-opacity="1">1</text><text fill="none" stroke="rgb(255,255,255)" font-family="geogebra-sans-serif, sans-serif" font-size="12px" font-style="normal" font-weight="normal" text-decoration="normal" x="23" y="218" text-anchor="start" dominant-baseline="alphabetic" stroke-opacity="1" stroke-linejoin="bevel" stroke-miterlimit="10" stroke-width="3">1</text><text fill="rgb(37,37,37)" stroke="none" font-family="geogebra-sans-serif, sans-serif" font-size="12px" font-style="normal" font-weight="normal" text-decoration="normal" x="23" y="218" text-anchor="start" dominant-baseline="alphabetic" fill-opacity="1">1</text><text fill="rgb(37,37,37)" stroke="none" font-family="geogebra-sans-serif, sans-serif" font-size="12px" font-style="normal" font-weight="normal" text-decoration="normal" x="12" y="127" text-anchor="start" dominant-baseline="alphabetic" fill-opacity="1">1.5</text><text fill="none" stroke="rgb(255,255,255)" font-family="geogebra-sans-serif, sans-serif" font-size="12px" font-style="normal" font-weight="normal" text-decoration="normal" x="12" y="127" text-anchor="start" dominant-baseline="alphabetic" stroke-opacity="1" stroke-linejoin="bevel" stroke-miterlimit="10" stroke-width="3">1.5</text><text fill="rgb(37,37,37)" stroke="none" font-family="geogebra-sans-serif, sans-serif" font-size="12px" font-style="normal" font-weight="normal" text-decoration="normal" x="12" y="127" text-anchor="start" dominant-baseline="alphabetic" fill-opacity="1">1.5</text><text fill="rgb(37,37,37)" stroke="none" font-family="geogebra-sans-serif, sans-serif" font-size="12px" font-style="normal" font-weight="normal" text-decoration="normal" x="23" y="36" text-anchor="start" dominant-baseline="alphabetic" fill-opacity="1">2</text><text fill="none" stroke="rgb(255,255,255)" font-family="geogebra-sans-serif, sans-serif" font-size="12px" font-style="normal" font-weight="normal" text-decoration="normal" x="23" y="36" text-anchor="start" dominant-baseline="alphabetic" stroke-opacity="1" stroke-linejoin="bevel" stroke-miterlimit="10" stroke-width="3">2</text><text fill="rgb(37,37,37)" stroke="none" font-family="geogebra-sans-serif, sans-serif" font-size="12px" font-style="normal" font-weight="normal" text-decoration="normal" x="23" y="36" text-anchor="start" dominant-baseline="alphabetic" fill-opacity="1">2</text><text fill="rgb(37,37,37)" stroke="none" font-family="geogebra-sans-serif, sans-serif" font-size="12px" font-style="normal" font-weight="normal" text-decoration="normal" x="23" y="411" text-anchor="start" dominant-baseline="alphabetic" fill-opacity="1">0</text><text fill="none" stroke="rgb(255,255,255)" font-family="geogebra-sans-serif, sans-serif" font-size="12px" font-style="normal" font-weight="normal" text-decoration="normal" x="23" y="411" text-anchor="start" dominant-baseline="alphabetic" stroke-opacity="1" stroke-linejoin="bevel" stroke-miterlimit="10" stroke-width="3">0</text><text fill="rgb(37,37,37)" stroke="none" font-family="geogebra-sans-serif, sans-serif" font-size="12px" font-style="normal" font-weight="normal" text-decoration="normal" x="23" y="411" text-anchor="start" dominant-baseline="alphabetic" fill-opacity="1">0</text><path fill="none" stroke="rgb(204,0,0)" paint-order="fill stroke markers" d=" M 104.41406250000001 -5.89209148035917 L 104.84912109375 -0.7655841336806475 L 105.28417968750001 4.2779273629161025 L 106.15429687500001 14.123194033930702 L 107.0244140625 23.65767281680894 L 107.89453125 32.894568079087605 L 108.7646484375 41.84637425382499 L 109.63476562500001 50.524921975365146 L 110.50488281250001 58.94142070694585 L 111.37500000000001 67.10649816496834 M 111.37500000000001 67.10649816496834 L 112.24511718750001 75.03023681502418 L 113.11523437500001 82.7222076882536 L 113.98535156250001 90.19150174292594 L 114.85546875 97.44675897493852 L 115.72558593750001 104.49619546195612 L 116.59570312500001 111.34762850888706 L 117.46582031250001 118.0085000471131 L 118.33593750000001 124.48589842614342 L 119.20605468750001 130.78657872399708 L 120.07617187500001 136.91698169146957 L 120.9462890625 142.88325143538148 L 121.81640625000001 148.69125193682373 L 122.68652343750001 154.34658249219865 L 123.55664062500001 159.85459215742148 L 124.42675781250001 165.22039326890828 L 125.29687500000001 170.44887410886437 L 126.16699218750001 175.544710776839 L 127.03710937500001 180.5123783244674 L 128.77734375 190.08016309089578 L 130.517578125 199.18438941599877 L 132.2578125 207.85460794265532 L 133.99804687500003 216.11801286466056 L 135.73828125 223.999667151727 L 137.478515625 231.5227027637361 L 139.21875000000003 238.70849900781315 L 140.958984375 245.5768417481456 L 142.69921875 252.1460658034968 L 144.439453125 258.43318254951873 L 146.17968750000003 264.45399447276316 L 147.91992187500003 270.2231981929476 L 149.66015625 275.7544772731502 L 151.40039062500003 281.06058596888636 L 153.140625 286.1534249220723 L 156.62109375 295.7430328201345 L 160.10156250000003 304.60388293993014 L 163.58203125000003 312.8066757140059 L 167.06250000000003 320.4136650975196 L 170.54296875000003 327.47985399370293 L 174.02343750000003 334.0539950510674 L 177.50390625000003 340.17943249168 L 180.98437500000003 345.89481340014186 L 184.46484375000003 351.2346912739634 L 187.9453125 356.2300402248434 L 191.42578125000003 360.90869474208705 L 194.90625000000003 365.2957271706332 L 198.38671875000003 369.41377285583525 L 201.86718750000006 373.2833111428785 L 205.34765625000006 376.92290899691665 L 208.82812500000003 380.3494328586526 L 212.30859375000003 383.5782334134178 L 215.78906250000003 386.62330718640976 L 219.26953125000003 389.49743824867227 L 222.75000000000003 392.2123228009043 M 222.75000000000003 392.2123228009043 L 226.23046875000006 394.7786789741432 L 229.71093750000003 397.20634383099156 L 233.19140625000003 399.50435925495316 L 236.67187500000003 401.68104816786956 L 240.15234375000006 403.74408230776777 L 243.63281250000003 405.70054262465106 L 247.11328125000003 407.5569732042258 L 250.59375000000006 409.31942950463815 L 254.07421875000006 410.99352158522885 L 257.5546875 412.58445291600134 L 261.03515625 414.0970552793954 L 264.515625 415.5358202099663 L 267.99609375 416.9049273609346 L 271.4765625 418.20827013786624 L 274.95703125000006 419.4494788977385 L 278.43750000000006 420.6319419753589 L 281.91796875 421.75882476767026 L 285.3984375 422.83308707919633 L 288.87890625000006 423.8574989081568 L 292.359375 424.83465483210546 L 295.83984375000006 425.7669871338919 L 299.32031250000006 426.656777792954 L 302.80078125000006 427.5061694531075 L 306.28125000000006 428.31717546584434 L 309.76171875000006 429.09168909746546 L 313.2421875 429.83149197895216 L 316.72265625 430.5382618691735 L 320.20312500000006 431.213579794678 L 323.68359375000006 431.85893662281757 L 327.16406250000006 432.47573911918164 L 330.64453125000006 433.06531553520335 L 334.125 433.6289207672436 L 337.60546875 434.1677411244047 L 341.08593750000006 434.6828987387106 L 344.56640625000006 435.17545564806 L 348.04687500000006 435.646417579474 L 351.52734375000006 436.0967374575734 L 355.00781250000006 436.5273186609049 L 358.48828125 436.93901804665575 L 361.96875000000006 437.33264876242845 L 365.44921875000006 437.7089828620644 L 368.92968750000006 438.0687537409945 L 372.41015625000006 438.412658405226 L 375.89062500000006 438.74135958684496 L 379.37109375000006 439.0554877178001 L 382.8515625 439.3556427727244 L 386.33203125000006 439.64239599064274 L 389.81250000000006 439.9162914845811 L 393.29296875000006 440.1778477473498 L 396.77343750000006 440.42755906108596 L 400.25390625000006 440.66589681752396 L 403.73437500000006 440.8933107553996 L 407.21484375 441.1102301208779 L 410.69531250000006 441.31706475642886 L 414.17578125000006 441.51420612314894 L 417.65625000000006 441.7020282611335 L 421.13671875000006 441.88088869215204 L 424.61718750000006 442.05112926855213 L 428.09765625000006 442.21307697201684 L 431.578125 442.36704466553124 L 435.05859375000006 442.5133318016601 L 438.53906250000006 442.6522250900102 L 442.01953125000006 442.7839991265399 L 445.50000000000006 442.908916987184 M 445.50000000000006 442.908916987184 L 448.98046875000006 443.02723078808344 L 452.46093750000006 443.13918221454713 L 455.94140625000006 443.2450030207188 L 459.421875 443.3449155017861 L 462.90234375000006 443.4391329404377 L 466.38281250000006 443.52786002915764 L 469.86328125000006 443.61129326983644 L 473.34375000000006 443.6896213520757 L 476.82421875000006 443.7630255114723 L 480.30468750000006 443.8316798690792 L 483.78515625000006 443.8957517531618 L 487.26562500000006 443.95540200429275 L 490.74609375000006 444.0107852647616 L 494.22656250000006 444.06205025320963 L 497.70703125000006 444.1093400253433 L 501.18750000000006 444.15279222152293 L 504.66796875000006 444.1925393019739 L 508.1484375000001 444.22870877031863 L 511.62890625000006 444.26142338608497 L 515.109375 444.2908013668051 L 518.58984375 444.31695658028036 L 522.0703125 444.33999872755277 L 525.55078125 444.3600335170901 L 529.03125 444.37716283066095 L 532.5117187500001 444.3914848813478 L 535.9921875 444.40309436411746 L 539.47265625 444.4120825993457 L 542.953125 444.4185376696678 L 546.43359375 444.42254455050426 L 549.9140625 444.4241852345931 L 553.3945312500001 444.42353885083713 L 556.8750000000001 444.42068177776093 L 560.35546875 444.4156877518512 L 563.8359375 444.40862797104245 L 567.31640625 444.399571193592 L 570.7968750000001 444.38858383257633 L 574.2773437500001 444.3757300462269 L 577.7578125000001 444.3610718243129 L 581.2382812500001 444.34466907076387 L 584.71875 444.3265796827192 L 588.19921875 444.3068596261758 L 591.6796875 444.2855630084007 L 595.1601562500001 444.26274214726345 L 598.6406250000001 444.2384476376366 L 602.12109375 444.2127284150027 L 605.6015625000001 444.1856318164006 L 609.08203125 444.1572036388371 L 612.5625 444.1274881952809 L 616.04296875 444.0965283683529 L 619.5234375000001 444.0643656618185 L 623.0039062500001 444.03104024998356 L 626.484375 443.99659102508974 L 629.9648437500001 443.96105564280026 L 633.4453125 443.9244705658629 L 636.9257812500001 443.886871106032 L 640.40625 443.84829146432736 L 643.8867187500001 443.8087647697042 L 647.3671875000001 443.7683231162054 L 650.84765625 443.7269975986614 L 654.3281250000001 443.6848183470027 L 657.80859375 443.6418145592452 L 661.2890625000001 443.5980145332055 L 664.76953125 443.553445697002 L 668.2500000000001 443.5081346383926 L 671.7304687500001 443.4621071330003 L 675.2109375 443.4153881714725 L 678.6914062500001 443.36800198562037 L 682.171875 443.31997207358063 L 685.6523437500001 443.2713212240404 L 689.1328125 443.2220715395651 L 692.6132812500001 443.17224445906584 L 696.0937500000001 443.1218607794423 L 699.57421875 443.07094067643436 L 703.0546875000001 443.0195037247161 L 706.53515625 442.9675689172615 L 710.0156250000001 442.91515468401195 L 713.49609375 442.86227890987493 L 716.9765625000001 442.8089589520783 L 720.4570312500001 442.755211656908 L 723.9375 442.7010533758528 L 727.4179687500001 442.64649998117966 L 730.8984375 442.59156688096243 L 734.37890625 442.5362690335847 L 737.859375 442.4806209617381 L 741.3398437500001 442.42463676593525 L 744.8203125000001 442.36833013755614 L 748.30078125 442.31171437144593 L 751.7812500000001 442.25480237808165 L 755.26171875 442.1976066953239 L 758.7421875 442.1401394997696 L 762.22265625 442.0824126177207 L 765.7031250000001 442.0244375357835 L 769.1835937500001 441.9662254111123 L 772.6640625 441.90778708131097 L 776.1445312500001 441.84913307400467 L 779.625 441.79027361609445 L 783.10546875 441.731218642706 L 786.5859375000001 441.6719778058444 L 790.0664062500001 441.61256048276493 L 793.5468750000001 441.55297578407067 L 797.02734375 441.493232561547 L 800.5078125000001 441.43333941574184 L 803.9882812500001 441.37330470330164 L 807.46875 441.3131365440715 L 810.9492187500001 441.2528428279672 L 814.4296875000001 441.1924312216286 L 817.9101562500001 441.1319091748613 L 821.390625 441.0712839268735 L 824.8710937500001 441.0105625123171 L 828.3515625000001 440.9497517671376 L 831.83203125 440.8888583342415 L 835.3125000000001 440.82788866898585 L 838.7929687500001 440.76684904449775 L 842.2734375000001 440.70574555682816 L 845.75390625 440.6445841299468 L 849.2343750000001 440.5833705205829 L 852.7148437500001 440.5221103229175 L 856.1953125 440.4608089731323 L 859.6757812500001 440.3994717538192 L 863.1562500000001 440.33810379825684 L 866.6367187500001 440.2767100945563 L 870.1171875 440.21529548968306 L 873.5976562500001 440.15386469335675 L 877.0781250000001 440.09242228183444 L 880.55859375 440.030972701581 L 884.0390625000001 439.9695202728295 L 887.5195312500001 439.9080691930367 L 891.0000000000001 439.846623540235" stroke-opacity="0.6980392156862745" stroke-linecap="round" stroke-linejoin="round" stroke-miterlimit="10" stroke-width="2.5"/><path fill="none" stroke="rgb(0,0,0)" paint-order="fill stroke markers" d=" M -5 444.42423661755157 L 897 444.42423661755527" stroke-opacity="0.6980392156862745" stroke-linecap="round" stroke-linejoin="round" stroke-miterlimit="10" stroke-width="2.5"/><text fill="rgb(0,0,0)" stroke="none" font-family="geogebra-sans-serif, sans-serif" font-size="16px" font-style="normal" font-weight="normal" text-decoration="normal" x="8" y="436" text-anchor="start" dominant-baseline="alphabetic" fill-opacity="1">T</text><text fill="none" stroke="rgb(255,255,255)" font-family="geogebra-sans-serif, sans-serif" font-size="16px" font-style="normal" font-weight="normal" text-decoration="normal" x="8" y="436" text-anchor="start" dominant-baseline="alphabetic" stroke-opacity="1" stroke-linejoin="bevel" stroke-miterlimit="10" stroke-width="3">T</text><text fill="rgb(0,0,0)" stroke="none" font-family="geogebra-sans-serif, sans-serif" font-size="16px" font-style="normal" font-weight="normal" text-decoration="normal" x="8" y="436" text-anchor="start" dominant-baseline="alphabetic" fill-opacity="1">T</text><path fill="none" stroke="rgb(0,153,0)" paint-order="fill stroke markers" d=" M 154.3659948131976 520 L 104.27912275173996 -5" stroke-opacity="0.6980392156862745" stroke-linecap="round" stroke-linejoin="round" stroke-miterlimit="10" stroke-width="2.5"/><text fill="rgb(0,153,0)" stroke="none" font-family="geogebra-sans-serif, sans-serif" font-size="16px" font-style="normal" font-weight="normal" text-decoration="normal" x="123" y="63" text-anchor="start" dominant-baseline="alphabetic" fill-opacity="1">y = -4x + 6</text><text fill="none" stroke="rgb(255,255,255)" font-family="geogebra-sans-serif, sans-serif" font-size="16px" font-style="normal" font-weight="normal" text-decoration="normal" x="123" y="63" text-anchor="start" dominant-baseline="alphabetic" stroke-opacity="1" stroke-linejoin="bevel" stroke-miterlimit="10" stroke-width="3">y = -4x + 6</text><text fill="rgb(0,153,0)" stroke="none" font-family="geogebra-sans-serif, sans-serif" font-size="16px" font-style="normal" font-weight="normal" text-decoration="normal" x="123" y="63" text-anchor="start" dominant-baseline="alphabetic" fill-opacity="1">y = -4x + 6</text><path fill="none" stroke="rgb(0,0,0)" paint-order="fill stroke markers" d=" M 550.6536501581575 395.2620625000002 L 550.6536501581575 444.4242366175539" stroke-opacity="0.6980392156862745" stroke-linejoin="round" stroke-miterlimit="10" stroke-width="2.5" stroke-dasharray="10.5,8"/></g></g></svg>