<svg version="1.1" xmlns="http://www.w3.org/2000/svg" xmlns:xlink="http://www.w3.org/1999/xlink" width="632" height="398"><defs><clipPath id="tULdEpcOhPmw"><path fill="none" stroke="none" d=" M 0 0 L 632 0 L 632 398 L 0 398 L 0 0 Z"/></clipPath></defs><g transform="scale(1,1)" clip-path="url(#tULdEpcOhPmw)"><g><rect fill="rgb(255,255,255)" stroke="none" x="0" y="0" width="632" height="398" fill-opacity="1"/><path fill="none" stroke="rgb(37,37,37)" paint-order="fill stroke markers" d=" M 320.5 2.5 L 320.5 398.5" stroke-opacity="1" stroke-miterlimit="10"/><path fill="none" stroke="rgb(37,37,37)" paint-order="fill stroke markers" d=" M 320.5 1.5 L 316.5 5.5" stroke-opacity="1" stroke-miterlimit="10"/><path fill="none" stroke="rgb(37,37,37)" paint-order="fill stroke markers" d=" M 320.5 1.5 L 324.5 5.5" stroke-opacity="1" stroke-miterlimit="10"/><path fill="none" stroke="rgb(37,37,37)" paint-order="fill stroke markers" d=" M 0.5 356.5 L 630.5 356.5" stroke-opacity="1" stroke-miterlimit="10"/><path fill="none" stroke="rgb(37,37,37)" paint-order="fill stroke markers" d=" M 631.5 356.5 L 627.5 352.5" stroke-opacity="1" stroke-miterlimit="10"/><path fill="none" stroke="rgb(37,37,37)" paint-order="fill stroke markers" d=" M 631.5 356.5 L 627.5 360.5" stroke-opacity="1" stroke-miterlimit="10"/><path fill="none" stroke="rgb(0,100,0)" paint-order="fill stroke markers" d=" M 1 -453.89343824245515 L 1 -446.3160509279182 L 1 -446.3160509279185 L 2 -438.80955787650686 L 2 -438.8095578765072 L 3 -431.37329579936824 L 3 -431.37329579936846 L 4 -424.0066076133982 L 4 -424.00660761339844 L 5 -416.7088423831838 L 5 -416.70884238318405 L 6 -409.479355263482 L 6 -409.4793552634823 L 7 -402.3175074422422 L 7 -402.3175074422424 L 8 -395.2226660841572 L 8 -395.2226660841574 L 9 -388.1942042747476 L 9 -388.19420427474796 L 10.000000000000057 -381.23150096496335 L 10.000000000000057 -381.2315009649636 L 11 -374.33394091630856 L 11 -374.3339409163089 L 12.000000000000057 -367.50091464647704 L 12.000000000000057 -367.50091464647727 L 13 -360.7318183754973 L 13 -360.73181837549754 L 14 -354.0260539723816 L 14 -354.02605397238193 L 15 -347.383028902273 L 15 -347.38302890227334 L 16 -340.8021561740897 L 16 -340.80215617408993 L 17 -334.2828542886545 L 17 -334.28285428865473 L 18 -327.8245471873158 L 18 -327.824547187316 L 19 -321.4266642010419 L 19 -321.42666420104223 L 20 -315.0886399999999 L 20 -315.0886400000001 L 21 -308.8099145435979 L 21 -308.80991454359815 L 22 -302.58993303100186 L 22 -302.5899330310022 L 23 -296.42814585211016 L 23 -296.4281458521104 L 24 -290.32400853899065 L 24 -290.324008538991 L 25.000000000000057 -284.27698171776836 L 25.000000000000057 -284.2769817177687 L 26 -278.2865310609679 L 26 -278.286531060968 L 27.000000000000057 -272.35212724029617 L 27.000000000000057 -272.35212724029617 L 28 -266.47324587987276 L 28 -266.473245879873 L 29 -260.64936750989324 L 29 -260.64936750989347 L 30 -254.8799775207279 L 30 -254.879977520728 L 31 -249.16456611745122 L 31 -249.16456611745122 L 32 -243.5026282747927 L 32 -243.50262827479293 L 33 -237.89366369251542 L 33 -237.89366369251553 L 34 -232.3371767512046 L 34 -232.3371767512047 L 35 -226.8326764684769 L 35 -226.83267646847702 L 36 -221.37967645559394 L 36 -221.37967645559405 L 37 -215.9776948744862 L 37 -215.9776948744863 L 38 -210.62625439517393 L 38 -210.62625439517393 L 39 -205.32488215359257 L 39 -205.32488215359268 L 40.00000000000006 -200.07310970980683 L 40.00000000000006 -200.07310970980706 L 41 -194.87047300662044 L 41 -194.87047300662056 L 42.00000000000006 -189.7165123285692 L 42.00000000000006 -189.7165123285693 L 43 -184.61077226130152 L 43 -184.61077226130163 L 44 -179.55280165133553 L 44 -179.55280165133576 L 45 -174.54215356619494 L 45 -174.54215356619505 L 46 -169.57838525491746 L 46 -169.57838525491758 L 47 -164.66105810893163 L 47 -164.66105810893174 L 48 -159.7897376233015 L 48 -159.78973762330173 L 49 -154.96399335833183 L 49 -154.96399335833195 L 50 -150.18339890153447 L 50 -150.1833989015346 L 51 -145.4475318299489 L 51 -145.44753182994907 L 52 -140.75597367281705 L 52 -140.7559736728171 L 53 -136.10830987460508 L 53 -136.10830987460525 L 54 -131.504129758374 L 54 -131.50412975837418 L 55.00000000000006 -126.94302648948991 L 55.00000000000006 -126.94302648949008 L 56 -122.42459703967637 L 56 -122.42459703967648 L 57.00000000000006 -117.94844215140131 L 57.00000000000006 -117.94844215140148 L 58 -113.51416630259848 L 58 -113.51416630259865 L 59.00000000000006 -109.12137767171725 L 59.00000000000006 -109.12137767171743 L 60 -104.76968810310223 L 60 -104.7696881031024 L 61 -100.45871307269312 L 61 -100.45871307269317 L 62 -96.18807165404826 L 62 -96.18807165404843 L 63 -91.95738648468603 L 63 -91.95738648468608 L 64 -87.76628373273849 L 64 -87.76628373273854 L 65 -83.61439306392077 L 65 -83.61439306392094 L 66.00000000000003 -79.50134760880599 L 66.00000000000003 -79.50134760880621 L 67 -75.42678393040921 L 67 -75.42678393040939 L 68.00000000000003 -71.3903419920722 L 68.00000000000003 -71.39034199207236 L 69 -67.39166512565134 L 69 -67.39166512565151 L 70.00000000000003 -63.430399999999906 L 70.00000000000003 -63.43039999999996 L 71 -59.50619658974881 L 71 -59.506196589748924 L 72.00000000000003 -55.61870814437623 L 72.00000000000003 -55.618708144376285 L 73 -51.76759115756897 L 73 -51.76759115756914 L 74.00000000000003 -47.95250533686914 L 74.00000000000003 -47.95250533686931 L 75 -44.173113573605406 L 75 -44.173113573605576 L 76.00000000000003 -40.42908191310488 L 76.00000000000003 -40.42908191310505 L 77.00000000000003 -36.7200795251851 L 77.00000000000003 -36.72007952518527 L 78 -33.0457786749206 L 78 -33.04577867492071 L 79.00000000000003 -29.40585469368324 L 79.00000000000003 -29.40585469368341 L 80 -25.79998595045504 L 80 -25.799985950455152 L 81.00000000000003 -22.22785382340686 L 81.00000000000003 -22.22785382340703 L 82 -18.68914267174557 L 82 -18.689142671745685 L 83.00000000000003 -15.183539807822001 L 83.00000000000003 -15.183539807822171 L 84 -11.710735469502879 L 84 -11.71073546950305 L 85.00000000000003 -8.270422792797945 L 85.00000000000003 -8.270422792798058 L 86 -4.862297784746318 L 86 -4.862297784746431 L 87.00000000000003 -1.4860592965537194 L 87.00000000000003 -1.4860592965539468 L 88 1.8585910030162154 L 88 1.8585910030161017 L 89.00000000000003 5.171948654004723 L 89.00000000000003 5.171948654004495 L 90 8.45430643137064 L 90 8.454306431370469 L 91.00000000000003 11.70595437086223 L 91.00000000000003 11.705954370862116 L 92.00000000000003 14.927179794644132 L 92.00000000000003 14.927179794643962 L 93 18.118267336686415 L 93 18.1182673366863 L 94.00000000000003 21.279498967915288 L 94.00000000000003 21.279498967915174 L 95 24.41115402112814 L 95 24.41115402112797 L 96.00000000000003 27.513509215676663 L 96.00000000000003 27.51350921567655 L 97 30.586838681917698 L 97 30.586838681917527 L 98.00000000000003 33.63141398543655 L 98.00000000000003 33.63141398543644 L 99 36.64750415104254 L 99 36.647504151042426 L 100.00000000000003 39.63537568654101 L 100.00000000000003 39.6353756865409 L 101 42.59529260628187 L 101 42.59529260628176 L 102.00000000000003 45.52751645448939 L 102.00000000000003 45.52751645448933 L 103 48.43230632837174 L 103 48.43230632837168 L 104.00000000000003 51.30991890101626 L 104.00000000000003 51.309918901016204 L 105 54.160608444068714 L 105 54.16060844406866 L 106.00000000000003 56.98462685020229 L 106.00000000000003 56.98462685020223 L 107.00000000000003 59.78222365537408 L 107.00000000000003 59.782223655374025 L 108 62.553646060875906 L 108 62.55364606087579 L 109.00000000000003 65.2991389551766 L 109.00000000000003 65.29913895517655 L 110 68.01894493556102 L 110 68.01894493556097 L 111.00000000000003 70.71330432956688 L 111.00000000000003 70.71330432956677 L 112 73.38245521621974 L 112 73.38245521621968 L 113.00000000000003 76.02663344707128 L 113.00000000000003 76.02663344707122 L 114 78.64607266703837 L 114 78.64607266703831 L 115.00000000000003 81.24100433504952 L 115.00000000000003 81.24100433504947 L 116 83.81165774449613 L 116 83.81165774449607 L 117.00000000000003 86.35826004349428 L 117.00000000000003 86.35826004349417 L 118 88.88103625495478 L 118 88.88103625495467 L 119 91.3802092964678 L 119 91.38020929646774 L 120 93.856 L 120 93.85599999999994 L 121 96.30862713140692 L 121 96.30862713140692 L 122.00000000000003 98.73830740976484 L 122.00000000000003 98.73830740976473 L 123.00000000000003 101.14525552651932 L 123.00000000000003 101.14525552651926 L 124.00000000000003 103.52968416445671 L 124.00000000000003 103.52968416445663 L 125.00000000000003 105.89180401649656 L 125.00000000000003 105.89180401649654 L 126.00000000000003 108.23182380430939 L 126.00000000000003 108.2318238043093 L 127.00000000000003 110.54995029675925 L 127.00000000000003 110.54995029675919 L 128.00000000000003 112.84638832817467 L 128.00000000000003 112.84638832817458 L 129.00000000000003 115.12134081644797 L 129.00000000000003 115.12134081644791 L 130.00000000000003 117.37500878096563 L 130.00000000000003 117.3750087809656 L 131.00000000000003 119.60759136037066 L 131.00000000000003 119.60759136037063 L 132.00000000000003 121.81928583015906 L 132.00000000000003 121.81928583015898 L 133 124.01028762011114 L 133 124.01028762011109 L 134 126.18079033156067 L 134 126.18079033156059 L 135 128.33098575450117 L 135 128.33098575450114 L 136 130.46106388453353 L 136 130.46106388453344 L 137.00000000000003 132.57121293965383 L 137.00000000000003 132.5712129396538 L 138.00000000000003 134.66161937688514 L 138.00000000000003 134.66161937688506 L 139.00000000000003 136.73246790875288 L 139.00000000000003 136.73246790875282 L 140.00000000000003 138.78394151960663 L 140.00000000000003 138.78394151960654 L 141.00000000000003 140.81622148178886 L 141.00000000000003 140.8162214817888 L 142.00000000000003 142.8294873716526 L 142.00000000000003 142.82948737165253 L 143.00000000000003 144.8239170854291 L 143.00000000000003 144.823917085429 L 144.00000000000003 146.79968685494705 L 144.00000000000003 146.79968685494697 L 145.00000000000003 148.75697126320512 L 145.00000000000003 148.75697126320506 L 146.00000000000003 150.6959432597979 L 146.00000000000003 150.69594325979782 L 147.00000000000003 152.6167741761986 L 147.00000000000003 152.61677417619853 L 148 154.5196337408978 L 148 154.51963374089772 L 149 156.4046900944016 L 149 156.40469009440153 L 150 158.2721098040881 L 150 158.27210980408802 L 151 160.12205787892617 L 151 160.1220578789261 L 152.00000000000003 161.9546977840558 L 152.00000000000003 161.95469778405575 L 153.00000000000003 163.77019145523232 L 153.00000000000003 163.77019145523226 L 154.00000000000003 165.56869931313514 L 154.00000000000003 165.56869931313506 L 155.00000000000003 167.35038027754297 L 155.00000000000003 167.3503802775429 L 156.00000000000003 169.1153917813764 L 156.00000000000003 169.11539178137633 L 157.00000000000003 170.86388978460883 L 157.00000000000003 170.86388978460874 L 158.00000000000003 172.59602878804748 L 158.00000000000003 172.5960287880474 L 159.00000000000003 174.31196184698538 L 159.00000000000003 174.3119618469853 L 160.00000000000003 176.01184058472566 L 160.00000000000003 176.0118405847256 L 161.00000000000003 177.6958152059793 L 161.00000000000003 177.69581520597922 L 162.00000000000003 179.3640345101374 L 162.00000000000003 179.36403451013732 L 163.00000000000003 181.0166459044196 L 163.00000000000003 181.0166459044195 L 164.00000000000003 182.65379541689904 L 164.00000000000003 182.653795416899 L 165 184.27562770940594 L 165 184.27562770940588 L 166 185.88228609031012 L 166 185.88228609031003 L 167.00000000000003 187.47391252718387 L 167.00000000000003 187.4739125271838 L 168.00000000000003 189.05064765934674 L 168.00000000000003 189.05064765934665 L 169.00000000000003 190.61263081029244 L 169.00000000000003 190.61263081029236 L 170.00000000000003 192.16 L 170.00000000000003 192.1599999999999 L 171.00000000000003 193.69289195712938 L 171.00000000000003 193.69289195712932 L 172.00000000000003 195.211442131103 L 172.00000000000003 195.21144213110293 L 173.00000000000003 196.7157847040746 L 173.00000000000003 196.71578470407454 L 174.00000000000003 198.20605260278543 L 174.00000000000003 198.2060526027854 L 175.00000000000003 199.68237751031035 L 175.00000000000003 199.68237751031032 L 176.00000000000003 201.14488987769334 L 176.00000000000003 201.14488987769332 L 177.00000000000003 202.59371893547453 L 177.00000000000003 202.59371893547447 L 178.00000000000003 204.02899270510915 L 178.00000000000003 204.02899270510912 L 179.00000000000003 205.45083801027997 L 179.00000000000003 205.45083801027994 L 180 206.85938048810348 L 180 206.85938048810345 L 181 208.25474460023165 L 181 208.2547446002316 L 182 209.63705364384936 L 182 209.63705364384933 L 183.00000000000003 211.00642976256947 L 183.00000000000003 211.00642976256944 L 184.00000000000003 212.3629939572254 L 184.00000000000003 212.36299395722537 L 185.00000000000003 213.70686609656323 L 185.00000000000003 213.70686609656323 L 186.00000000000003 215.03816492783344 L 186.00000000000003 215.0381649278334 L 187.00000000000003 216.35700808728365 L 187.00000000000003 216.3570080872836 L 188.00000000000003 217.6635121105532 L 188.00000000000003 217.66351211055314 L 189.00000000000003 218.95779244297054 L 189.00000000000003 218.95779244297051 L 190.00000000000003 220.23996344975413 L 190.00000000000003 220.2399634497541 L 191.00000000000003 221.51013842611803 L 191.00000000000003 221.510138426118 L 192.00000000000003 222.76842960728288 L 192.00000000000003 222.76842960728283 L 193.00000000000003 224.01494817839315 L 193.00000000000003 224.01494817839313 L 194.00000000000003 225.2498042843419 L 194.00000000000003 225.24980428434188 L 195.00000000000003 226.4731070395032 L 195.00000000000003 226.47310703950316 L 196.00000000000003 227.68496453737367 L 196.00000000000003 227.68496453737365 L 197 228.88548386012408 L 197 228.88548386012405 L 198 230.07477108806114 L 198 230.0747710880611 L 199 231.25293130900099 L 199 231.25293130900096 L 200 232.42006862755505 L 200 232.420068627555 L 201 233.57628617432886 L 201 233.5762861743288 L 202 234.7216861150349 L 202 234.72168611503486 L 203.00000000000003 235.85636965952023 L 203.00000000000003 235.85636965952017 L 204.00000000000003 236.98043707070946 L 204.00000000000003 236.98043707070943 L 205.00000000000003 238.09398767346434 L 205.00000000000003 238.0939876734643 L 206.00000000000003 239.19711986336023 L 206.00000000000003 239.1971198633602 L 207.00000000000003 240.2899311153805 L 207.00000000000003 240.28993111538048 L 208.00000000000003 241.37251799252968 L 208.00000000000003 241.37251799252962 L 209.00000000000003 242.44497615436586 L 209.00000000000003 242.4449761543658 L 210.00000000000003 243.50740036545355 L 210.00000000000003 243.50740036545352 L 211.00000000000003 244.55988450373707 L 211.00000000000003 244.559884503737 L 212 245.60252156883587 L 212 245.6025215688358 L 213 246.6354036902622 L 213 246.63540369026217 L 214 247.65862213556187 L 214 247.65862213556184 L 215 248.67226731837872 L 215 248.67226731837866 L 216 249.67642880644382 L 216 249.67642880644377 L 217 250.67119532948993 L 217 250.67119532948988 L 218.00000000000003 251.65665478709172 L 218.00000000000003 251.65665478709167 L 219.00000000000003 252.6328942564328 L 219.00000000000003 252.63289425643273 L 220.00000000000003 253.60000000000002 L 220.00000000000003 253.59999999999997 L 221.00000000000003 254.55805747320585 L 221.00000000000003 254.55805747320582 L 222.00000000000003 255.50715133193938 L 222.00000000000003 255.50715133193938 L 223.00000000000003 256.4473654400466 L 223.00000000000003 256.4473654400466 L 224.00000000000003 257.3787828767409 L 224.00000000000003 257.37878287674084 L 225 258.301485943944 L 225 258.30148594394393 L 226.00000000000003 259.21555617355835 L 226.00000000000003 259.2155561735583 L 227.00000000000003 260.12107433467156 L 227.00000000000003 260.12107433467156 L 228.00000000000003 261.0181204406932 L 228.00000000000003 261.0181204406932 L 229.00000000000003 261.90677375642497 L 229.00000000000003 261.90677375642497 L 230.00000000000003 262.7871128050647 L 230.00000000000003 262.7871128050647 L 231.00000000000003 263.6592153751448 L 231.00000000000003 263.65921537514475 L 232 264.5231585274059 L 232 264.5231585274058 L 233.00000000000003 265.37901860160594 L 233.00000000000003 265.3790186016059 L 234.00000000000003 266.2268712232659 L 234.00000000000003 266.22687122326585 L 235.00000000000003 267.0667913103521 L 235.00000000000003 267.066791310352 L 236.00000000000003 267.89885307989596 L 236.00000000000003 267.8988530798959 L 237.00000000000003 268.72313005455226 L 237.00000000000003 268.72313005455226 L 238.00000000000003 269.5396950690958 L 238.00000000000003 269.5396950690957 L 239.00000000000003 270.3486202768566 L 239.00000000000003 270.3486202768566 L 240.00000000000003 271.1499771560964 L 240.00000000000003 271.1499771560963 L 241.00000000000003 271.94383651632376 L 241.00000000000003 271.94383651632376 L 242.00000000000003 272.73026850455176 L 242.00000000000003 272.73026850455176 L 243.00000000000003 273.50934261149575 L 243.00000000000003 273.5093426114957 L 244.00000000000003 274.2811276777137 L 244.00000000000003 274.28112767771364 L 245.00000000000003 275.0456918996895 L 245.00000000000003 275.0456918996895 L 246.00000000000003 275.80310283585857 L 246.00000000000003 275.80310283585857 L 247.00000000000003 276.55342741257755 L 247.00000000000003 276.55342741257755 L 248 277.2967319300382 L 248 277.29673193003816 L 249.00000000000003 278.0330820681256 L 249.00000000000003 278.0330820681256 L 250.00000000000003 278.7625428922219 L 250.00000000000003 278.76254289222186 L 251.00000000000003 279.4851788589555 L 251.00000000000003 279.4851788589555 L 252.00000000000003 280.20105382189683 L 252.00000000000003 280.20105382189683 L 253.00000000000003 280.91023103720016 L 253.00000000000003 280.9102310372001 L 254.00000000000003 281.6127731691934 L 254.00000000000003 281.61277316919336 L 255.00000000000003 282.30874229591524 L 255.00000000000003 282.3087422959152 L 256 282.99819991460015 L 256 282.99819991460015 L 257 283.68120694711286 L 257 283.6812069471128 L 258 284.3578237453311 L 258 284.357823745331 L 259 285.02811009647866 L 259 285.02811009647866 L 260 285.6921252284085 L 260 285.69212522840843 L 261 286.34992781483567 L 261 286.3499278148356 L 262 287.00157598052243 L 262 287.0015759805224 L 263.00000000000006 287.6471273064139 L 263.00000000000006 287.64712730641384 L 264 288.2866388347262 L 264 288.28663883472615 L 265 288.9201670739867 L 265 288.9201670739867 L 266 289.5477680040274 L 266 289.5477680040274 L 267 290.16949708093125 L 267 290.1694970809312 L 268 290.7854092419323 L 268 290.7854092419323 L 269 291.3955589102705 L 269 291.39555891027044 L 270 292 L 270 292 L 271 292.59878592075364 L 271 292.59878592075364 L 272 293.1919695824621 L 272 293.1919695824621 L 273 293.77960340002915 L 273 293.77960340002915 L 274 294.3617392979631 L 274 294.361739297963 L 275 294.93842871496497 L 275 294.93842871496497 L 276 295.50972260847396 L 276 295.50972260847396 L 277 296.07567145916977 L 277 296.0756714591697 L 278 296.63632527543325 L 278 296.63632527543325 L 279 297.1917335977656 L 279 297.1917335977656 L 280 297.7419455031654 L 280 297.7419455031654 L 281 298.2870096094655 L 281 298.2870096094655 L 282 298.82697407962866 L 282 298.82697407962866 L 283 299.3618866260037 L 283 299.3618866260037 L 284 299.8917945145412 L 284 299.8917945145412 L 285 300.41674456897005 L 285 300.41674456897 L 286.00000000000006 300.936783174935 L 286.00000000000006 300.93678317493493 L 287 301.4519562840952 L 287 301.45195628409516 L 288 301.9623094181849 L 288 301.9623094181849 L 289.00000000000006 302.46788767303536 L 289.00000000000006 302.46788767303536 L 290 302.9687357225602 L 290 302.9687357225602 L 291 303.46489782270237 L 291 303.46489782270237 L 292 303.9564178153449 L 292 303.9564178153449 L 293.00000000000006 304.44333913218486 L 293.00000000000006 304.44333913218486 L 294.00000000000006 304.9257047985711 L 294.00000000000006 304.9257047985711 L 295 305.40355743730595 L 295 305.40355743730595 L 296 305.8769392724116 L 296 305.8769392724116 L 297.00000000000006 306.34589213286097 L 297.00000000000006 306.34589213286097 L 298.00000000000006 306.8104574562739 L 298.00000000000006 306.81045745627387 L 299 307.2706762925785 L 299 307.2706762925785 L 300.00000000000006 307.72658930763873 L 300.00000000000006 307.7265893076387 L 301.00000000000006 308.17823678684726 L 301.00000000000006 308.1782367868472 L 302.00000000000006 308.62565863868554 L 302.00000000000006 308.62565863868554 L 303 309.0688943982501 L 303 309.0688943982501 L 304.00000000000006 309.5079832307459 L 304.00000000000006 309.5079832307459 L 305.00000000000006 309.94296393494704 L 305.00000000000006 309.942963934947 L 306.00000000000006 310.3738749466251 L 306.00000000000006 310.3738749466251 L 307.00000000000006 310.80075434194555 L 307.00000000000006 310.8007543419455 L 308.00000000000006 311.22363984083194 L 308.00000000000006 311.2236398408319 L 309.00000000000006 311.64256881029917 L 309.00000000000006 311.64256881029917 L 310.00000000000006 312.0575782677553 L 310.00000000000006 312.0575782677553 L 311.00000000000006 312.4687048842723 L 311.00000000000006 312.4687048842723 L 312.00000000000006 312.87598498782654 L 312.00000000000006 312.8759849878265 L 313.00000000000006 313.2794545665087 L 313.00000000000006 313.27945456650866 L 314.00000000000006 313.67914927170386 L 314.00000000000006 313.67914927170386 L 315.00000000000006 314.0751044212417 L 315.00000000000006 314.0751044212417 L 316.00000000000006 314.46735500251714 L 316.00000000000006 314.46735500251714 L 317.00000000000006 314.85593567558203 L 317.00000000000006 314.85593567558203 L 318.00000000000006 315.24088077620775 L 318.00000000000006 315.2408807762077 L 319.00000000000006 315.62222431891905 L 319.00000000000006 315.62222431891905 L 320.00000000000006 316 L 320.00000000000006 316 L 321.00000000000006 316.37424120047103 L 321.00000000000006 316.37424120047103 L 322.00000000000006 316.7449809890388 L 322.00000000000006 316.7449809890388 L 323.00000000000006 317.11225212501824 L 323.00000000000006 317.11225212501824 L 324.00000000000006 317.47608706122696 L 324.00000000000006 317.4760870612269 L 325.00000000000006 317.8365179468531 L 325.00000000000006 317.8365179468531 L 326.00000000000006 318.19357663029626 L 326.00000000000006 318.19357663029626 L 327.00000000000006 318.5472946619811 L 327.00000000000006 318.5472946619811 L 328.00000000000006 318.8977032971458 L 328.00000000000006 318.8977032971458 L 329.00000000000006 319.2448334986035 L 329.00000000000006 319.2448334986035 L 330.00000000000006 319.5887159394784 L 330.00000000000006 319.5887159394784 L 331.00000000000006 319.92938100591596 L 331.00000000000006 319.92938100591596 L 332.00000000000006 320.26685879976793 L 332.00000000000006 320.26685879976793 L 333.00000000000006 320.6011791412523 L 333.00000000000006 320.6011791412523 L 334.00000000000006 320.93237157158825 L 334.00000000000006 320.93237157158825 L 335.00000000000006 321.2604653556063 L 335.00000000000006 321.2604653556063 L 336.00000000000006 321.58548948433435 L 336.00000000000006 321.58548948433435 L 337.00000000000006 321.9074726775595 L 337.00000000000006 321.9074726775595 L 338.00000000000006 322.22644338636553 L 338.00000000000006 322.22644338636553 L 339.00000000000006 322.54242979564714 L 339.00000000000006 322.54242979564714 L 340.00000000000006 322.85545982660017 L 340.00000000000006 322.85545982660017 L 341.00000000000006 323.165561139189 L 341.00000000000006 323.165561139189 L 342.00000000000006 323.47276113459054 L 342.00000000000006 323.47276113459054 L 343.00000000000006 323.77708695761555 L 343.00000000000006 323.77708695761555 L 344.00000000000006 324.07856549910696 L 344.00000000000006 324.07856549910696 L 345.00000000000006 324.37722339831623 L 345.00000000000006 324.37722339831623 L 346.00000000000006 324.67308704525726 L 346.00000000000006 324.67308704525726 L 347.00000000000006 324.9661825830381 L 347.00000000000006 324.9661825830381 L 348.00000000000006 325.2565359101712 L 348.00000000000006 325.2565359101712 L 349.00000000000006 325.5441726828616 L 349.00000000000006 325.5441726828616 L 350.00000000000006 325.8291183172742 L 350.00000000000006 325.8291183172742 L 351.00000000000006 326.11139799177954 L 351.00000000000006 326.11139799177954 L 352.00000000000006 326.3910366491785 L 352.00000000000006 326.39103664917843 L 353.00000000000006 326.6680589989063 L 353.00000000000006 326.6680589989063 L 354 326.9424895192162 L 354 326.9424895192162 L 355.00000000000006 327.2143524593419 L 355.00000000000006 327.2143524593419 L 356.00000000000006 327.4836718416407 L 356.00000000000006 327.4836718416407 L 357.00000000000006 327.750471463716 L 357.00000000000006 327.75047146371594 L 358.00000000000006 328.01477490051997 L 358.00000000000006 328.01477490051997 L 359.00000000000006 328.276605506437 L 359.00000000000006 328.276605506437 L 360.00000000000006 328.5359864173471 L 360.00000000000006 328.5359864173471 L 361.00000000000006 328.7929405526702 L 361.00000000000006 328.7929405526702 L 362 329.0474906173916 L 362 329.0474906173916 L 363.00000000000006 329.2996591040679 L 363.00000000000006 329.2996591040679 L 364.00000000000006 329.5494682948149 L 364.00000000000006 329.5494682948149 L 365.00000000000006 329.7969402632761 L 365.00000000000006 329.7969402632761 L 366.00000000000006 330.0420968765732 L 366.00000000000006 330.0420968765732 L 367.00000000000006 330.2849597972388 L 367.00000000000006 330.2849597972388 L 368.00000000000006 330.5255504851298 L 368.00000000000006 330.5255504851298 L 369 330.76389019932446 L 369 330.7638901993244 L 370.00000000000006 331.00000000000006 L 370.00000000000006 331 L 371.00000000000006 331.2339007502944 L 371.00000000000006 331.2339007502944 L 372.00000000000006 331.4656131181493 L 372.00000000000006 331.4656131181493 L 373.00000000000006 331.6951575781364 L 373.00000000000006 331.6951575781364 L 374.00000000000006 331.9225544132669 L 374.00000000000006 331.9225544132668 L 375.00000000000006 332.14782371678325 L 375.00000000000006 332.14782371678325 L 376 332.37098539393514 L 376 332.37098539393514 L 377 332.5920591637382 L 377 332.5920591637382 L 378.00000000000006 332.81106456071615 L 378.00000000000006 332.81106456071615 L 379.00000000000006 333.02802093662723 L 379.00000000000006 333.02802093662723 L 380.00000000000006 333.242947462174 L 380.00000000000006 333.242947462174 L 381.00000000000006 333.4558631286975 L 381.00000000000006 333.4558631286975 L 382.00000000000006 333.66678674985496 L 382.00000000000006 333.66678674985496 L 383.00000000000006 333.87573696328275 L 383.00000000000006 333.87573696328275 L 384.00000000000006 334.0827322322427 L 384.00000000000006 334.0827322322427 L 385 334.287790847254 L 385 334.2877908472539 L 386 334.490930927709 L 386 334.490930927709 L 387 334.6921704234747 L 387 334.6921704234747 L 388.00000000000006 334.89152711647847 L 388.00000000000006 334.89152711647847 L 389.00000000000006 335.08901862227947 L 389.00000000000006 335.08901862227947 L 390.00000000000006 335.28466239162515 L 390.00000000000006 335.2846623916251 L 391.00000000000006 335.47847571199316 L 391.00000000000006 335.47847571199316 L 392 335.6704757091191 L 392 335.6704757091191 L 393 335.86067934850973 L 393 335.86067934850973 L 394 336.04910343694183 L 394 336.04910343694183 L 395 336.23576462394766 L 395 336.23576462394766 L 396.00000000000006 336.4206794032858 L 396.00000000000006 336.4206794032858 L 397.00000000000006 336.60386411439885 L 397.00000000000006 336.60386411439885 L 398.00000000000006 336.78533494385704 L 398.00000000000006 336.78533494385704 L 399.00000000000006 336.9651079267885 L 399.00000000000006 336.9651079267885 L 400.00000000000006 337.1431989482964 L 400.00000000000006 337.1431989482964 L 401 337.3196237448622 L 401 337.3196237448622 L 402 337.49439790573655 L 402 337.49439790573655 L 403.00000000000006 337.66753687431645 L 403.00000000000006 337.66753687431645 L 404.00000000000006 337.83905594951017 L 404.00000000000006 337.8390559495101 L 405.00000000000006 338.0089702870887 L 405.00000000000006 338.0089702870887 L 406.00000000000006 338.17729490102545 L 406.00000000000006 338.17729490102545 L 407.00000000000006 338.3440446648225 L 407.00000000000006 338.3440446648225 L 408 338.509234312825 L 408 338.509234312825 L 409 338.67287844152315 L 409 338.67287844152315 L 410 338.834991510842 L 410 338.8349915108419 L 411.00000000000006 338.99558784541887 L 411.00000000000006 338.99558784541887 L 412.00000000000006 339.1546816358698 L 412.00000000000006 339.15468163586974 L 413.00000000000006 339.3122869400425 L 413.00000000000006 339.3122869400425 L 414.00000000000006 339.46841768425935 L 414.00000000000006 339.46841768425935 L 415.00000000000006 339.6230876645476 L 415.00000000000006 339.62308766454754 L 416.00000000000006 339.77631054785826 L 416.00000000000006 339.77631054785826 L 417.00000000000006 339.9280998732743 L 417.00000000000006 339.9280998732743 L 418.00000000000006 340.07846905320616 L 418.00000000000006 340.07846905320616 L 419.00000000000006 340.2274313745778 L 419.00000000000006 340.2274313745778 L 420.00000000000006 340.37500000000006 L 420.00000000000006 340.37500000000006 L 421 340.52118796893404 L 421 340.52118796893404 L 422 340.6660081988433 L 422 340.6660081988433 L 423 340.80947348633526 L 423 340.80947348633526 L 424 340.9515965082918 L 424 340.9515965082918 L 425 341.09238982298956 L 425 341.0923898229895 L 426.00000000000006 341.2318658712095 L 426.00000000000006 341.2318658712095 L 427.00000000000006 341.3700369773364 L 427.00000000000006 341.3700369773364 L 428.00000000000006 341.5069153504476 L 428.00000000000006 341.5069153504476 L 429.00000000000006 341.642513085392 L 429.00000000000006 341.642513085392 L 430.00000000000006 341.77684216385876 L 430.00000000000006 341.77684216385876 L 431.00000000000006 341.90991445543597 L 431.00000000000006 341.90991445543597 L 432.00000000000006 342.0417417186594 L 432.00000000000006 342.04174171865935 L 433.00000000000006 342.1723356020517 L 433.00000000000006 342.1723356020517 L 434.00000000000006 342.3017076451517 L 434.00000000000006 342.3017076451517 L 435.00000000000006 342.42986927953376 L 435.00000000000006 342.4298692795337 L 436 342.5568318298181 L 436 342.5568318298181 L 437 342.6826065146717 L 437 342.6826065146717 L 438 342.80720444779905 L 438 342.80720444779905 L 439 342.9306366389247 L 439 342.9306366389247 L 440 343.05291399476573 L 440 343.05291399476573 L 441.00000000000006 343.17404731999574 L 441.00000000000006 343.17404731999574 L 442.00000000000006 343.2940473181995 L 442.00000000000006 343.2940473181995 L 443.00000000000006 343.4129245928186 L 443.00000000000006 343.41292459281857 L 444.00000000000006 343.5306896480887 L 444.00000000000006 343.5306896480887 L 445.00000000000006 343.6473528899673 L 445.00000000000006 343.6473528899673 L 446.00000000000006 343.7629246270537 L 446.00000000000006 343.7629246270536 L 447.00000000000006 343.8774150714993 L 447.00000000000006 343.8774150714993 L 448.00000000000006 343.99083433991063 L 448.00000000000006 343.99083433991063 L 449.00000000000006 344.10319245424284 L 449.00000000000006 344.10319245424284 L 450.00000000000006 344.21449934268526 L 450.00000000000006 344.21449934268526 L 451.00000000000006 344.32476484053893 L 451.00000000000006 344.32476484053893 L 452.00000000000006 344.4339986910854 L 452.00000000000006 344.4339986910854 L 453 344.5422105464478 L 453 344.5422105464478 L 454 344.6494099684439 L 454 344.6494099684439 L 455 344.7556064294305 L 455 344.7556064294305 L 456 344.8608093131409 L 456 344.8608093131409 L 457 344.9650279155141 L 457 344.9650279155141 L 458 345.0682714455156 L 458 345.0682714455156 L 459 345.17054902595197 L 459 345.17054902595197 L 460 345.27186969427623 L 460 345.27186969427623 L 461.00000000000006 345.37224240338685 L 461.00000000000006 345.37224240338685 L 462.00000000000006 345.47167602241865 L 462.00000000000006 345.4716760224186 L 463.00000000000006 345.57017933752655 L 463.00000000000006 345.57017933752655 L 464.00000000000006 345.6677610526621 L 464.00000000000006 345.6677610526621 L 465.00000000000006 345.76442979034226 L 465.00000000000006 345.76442979034226 L 466.00000000000006 345.86019409241146 L 466.00000000000006 345.86019409241146 L 467.00000000000006 345.9550624207964 L 467.00000000000006 345.9550624207964 L 468 346.0490431582539 L 468 346.0490431582539 L 469 346.14214460911114 L 469 346.14214460911114 L 470 346.23437500000006 L 470 346.23437500000006 L 471 346.3257424805838 L 471 346.3257424805838 L 472 346.4162551242771 L 472 346.4162551242771 L 473 346.50592092895954 L 473 346.50592092895954 L 474 346.5947478176824 L 474 346.5947478176824 L 475 346.6827436393685 L 475 346.6827436393685 L 476 346.76991616950596 L 476 346.76991616950596 L 477.00000000000006 346.8562731108353 L 477.00000000000006 346.8562731108353 L 478.00000000000006 346.94182209402976 L 478.00000000000006 346.94182209402976 L 479.00000000000006 347.02657067837004 L 479.00000000000006 347.02657067837004 L 480.00000000000006 347.11052635241174 L 480.00000000000006 347.11052635241174 L 481.00000000000006 347.1936965346475 L 481.00000000000006 347.1936965346475 L 482.00000000000006 347.27608857416215 L 482.00000000000006 347.27608857416215 L 483.00000000000006 347.35770975128236 L 483.00000000000006 347.35770975128236 L 484.00000000000006 347.4385672782198 L 484.00000000000006 347.4385672782198 L 485 347.5186682997086 L 485 347.5186682997086 L 486 347.5980198936364 L 486 347.5980198936364 L 487 347.6766290716698 L 487 347.6766290716698 L 488 347.75450277987443 L 488 347.75450277987443 L 489 347.83164789932795 L 489 347.83164789932795 L 490 347.9080712467286 L 490 347.9080712467286 L 491 347.98377957499736 L 491 347.98377957499736 L 492.00000000000006 348.0587795738747 L 492.00000000000006 348.0587795738747 L 493.00000000000006 348.13307787051167 L 493.00000000000006 348.13307787051167 L 494.00000000000006 348.20668103005545 L 494.00000000000006 348.20668103005545 L 495.00000000000006 348.2795955562296 L 495.00000000000006 348.2795955562296 L 496.00000000000006 348.35182789190856 L 496.00000000000006 348.35182789190856 L 497.00000000000006 348.42338441968707 L 497.00000000000006 348.42338441968707 L 498.00000000000006 348.4942714624442 L 498.00000000000006 348.4942714624442 L 499.00000000000006 348.5644952839018 L 499.00000000000006 348.5644952839018 L 500 348.6340620891783 L 500 348.6340620891783 L 501 348.70297802533685 L 501 348.70297802533685 L 502 348.7712491819284 L 502 348.7712491819284 L 503 348.8388815915299 L 503 348.8388815915299 L 504 348.90588123027743 L 504 348.90588123027743 L 505 348.97225401839404 L 505 348.97225401839404 L 506 349.0380058207131 L 506 349.0380058207131 L 507.00000000000006 349.1031424471963 L 507.00000000000006 349.1031424471963 L 508.00000000000006 349.1676696534473 L 508.00000000000006 349.1676696534473 L 509.00000000000006 349.23159314122 L 509.00000000000006 349.23159314122 L 510.00000000000006 349.2949185589227 L 510.00000000000006 349.2949185589227 L 511.00000000000006 349.35765150211677 L 511.00000000000006 349.35765150211677 L 512 349.41979751401163 L 512 349.41979751401163 L 513 349.4813620859541 L 513 349.4813620859541 L 514 349.54235065791386 L 514 349.54235065791386 L 515 349.6027686189639 L 515 349.6027686189639 L 516 349.66262130775715 L 516 349.66262130775715 L 517 349.7219140129978 L 517 349.7219140129978 L 518 349.7806519739087 L 518 349.7806519739087 L 519 349.8388403806945 L 519 349.8388403806945 L 520 349.89648437500006 L 520 349.89648437500006 L 521 349.9535890503649 L 521 349.9535890503649 L 522 350.01015945267324 L 522 350.0101594526732 L 523 350.06620058059974 L 523 350.06620058059974 L 524 350.1217173860515 L 524 350.1217173860515 L 525 350.17671477460533 L 525 350.17671477460533 L 526 350.23119760594125 L 526 350.23119760594125 L 527 350.28517069427204 L 527 350.28517069427204 L 528 350.3386388087686 L 528 350.3386388087686 L 529 350.3916066739813 L 529 350.3916066739813 L 530 350.44407897025735 L 530 350.44407897025735 L 531 350.4960603341547 L 531 350.4960603341547 L 532 350.54755535885135 L 532 350.54755535885135 L 533 350.59856859455147 L 533 350.59856859455147 L 534 350.6491045488874 L 534 350.6491045488874 L 535 350.6991676873179 L 535 350.6991676873179 L 536 350.74876243352276 L 536 350.74876243352276 L 537 350.79789316979367 L 537 350.79789316979367 L 538 350.84656423742155 L 538 350.84656423742155 L 539 350.89477993708 L 539 350.89477993708 L 540 350.9425445292054 L 540 350.9425445292054 L 541 350.9898622343734 L 541 350.9898622343734 L 542 351.0367372336717 L 542 351.0367372336717 L 543 351.0831736690698 L 543 351.0831736690698 L 544 351.12917564378466 L 544 351.12917564378466 L 545 351.17474722264353 L 545 351.17474722264353 L 546 351.21989243244286 L 546 351.21989243244286 L 547 351.26461526230446 L 547 351.26461526230446 L 548 351.30891966402766 L 548 351.30891966402766 L 549 351.35280955243866 L 549 351.35280955243866 L 550 351.39628880573645 L 550 351.39628880573645 L 551 351.43936126583554 L 551 351.43936126583554 L 552 351.48203073870525 L 552 351.48203073870525 L 553 351.5243009947062 L 553 351.5243009947062 L 554 351.5661757689234 L 554 351.5661757689234 L 555 351.6076587614963 L 555 351.6076587614963 L 556 351.64875363794573 L 556 351.64875363794573 L 557 351.68946402949774 L 557 351.68946402949774 L 558 351.7297935334046 L 558 351.7297935334046 L 559 351.7697457132625 L 559 351.7697457132625 L 560 351.80932409932666 L 560 351.80932409932666 L 561 351.848532188823 L 561 351.848532188823 L 562 351.8873734462573 L 562 351.8873734462573 L 563 351.92585130372134 L 563 351.92585130372134 L 564 351.9639691611962 L 564 351.9639691611962 L 565 352.0017303868525 L 565 352.0017303868525 L 566 352.03913831734826 L 566 352.03913831734826 L 567 352.0761962581236 L 567 352.0761962581236 L 568 352.11290748369294 L 568 352.11290748369294 L 569 352.1492752379341 L 569 352.1492752379341 L 570 352.18530273437506 L 570 352.18530273437506 L 571 352.2209931564781 L 571 352.2209931564781 L 572 352.2563496579208 L 572 352.2563496579208 L 573 352.2913753628749 L 573 352.2913753628749 L 574 352.32607336628223 L 574 352.32607336628223 L 575 352.36044673412835 L 575 352.36044673412835 L 576 352.3944985037133 L 576 352.3944985037133 L 577 352.42823168392005 L 577 352.42823168392005 L 578 352.46164925548044 L 578 352.46164925548044 L 579 352.49475417123836 L 579 352.49475417123836 L 580 352.5275493564109 L 580 352.5275493564109 L 581 352.5600377088467 L 581 352.5600377088467 L 582 352.59222209928214 L 582 352.59222209928214 L 583 352.6241053715947 L 583 352.6241053715947 L 584 352.65569034305463 L 584 352.65569034305463 L 585 352.6869798045737 L 585 352.6869798045737 L 586 352.7179765209517 L 586 352.7179765209517 L 587 352.74868323112105 L 587 352.74868323112105 L 588 352.7791026483885 L 588 352.77910264838846 L 589 352.80923746067504 L 589 352.80923746067504 L 590 352.8390903307534 L 590 352.8390903307534 L 591 352.8686638964834 L 591 352.8686638964834 L 592 352.89796077104484 L 592 352.89796077104484 L 593 352.92698354316866 L 593 352.92698354316866 L 594 352.9557347773654 L 594 352.9557347773654 L 595 352.9842170141522 L 595 352.9842170141522 L 596 353.0124327702768 L 596 353.0124327702768 L 597 353.0403845389403 L 597 353.0403845389403 L 598 353.0680747900173 L 598 353.0680747900173 L 599 353.0955059702742 L 599 353.0955059702742 L 600 353.1226805035853 L 600 353.1226805035853 L 601 353.14960079114724 L 601 353.14960079114724 L 602 353.1762692116908 L 602 353.1762692116908 L 603 353.2026881216914 L 603 353.2026881216914 L 604 353.2288598555772 L 604 353.2288598555771 L 605 353.2547867259352 L 605 353.2547867259352 L 606 353.2804710237161 L 606 353.2804710237161 L 607 353.3059150184361 L 607 353.3059150184361 L 608 353.3311209583779 L 608 353.3311209583779 L 609 353.3560910707891 L 609 353.3560910707891 L 610 353.3808275620792 L 610 353.3808275620792 L 611 353.4053326180144 L 611 353.4053326180144 L 612 353.42960840391083 L 612 353.42960840391083 L 613 353.45365706482585 L 613 353.45365706482585 L 614 353.4774807257476 L 614 353.4774807257476 L 615 353.5010814917828 L 615 353.5010814917828 L 616 353.52446144834266 L 616 353.52446144834266 L 617 353.5476226613273 L 617 353.5476226613273 L 618 353.57056717730813 L 618 353.57056717730813 L 619 353.5932970237088 L 619 353.5932970237088 L 620 353.61581420898443 L 620 353.61581420898443 L 621 353.6381207227988 L 621 353.6381207227988 L 622 353.6602185362005 L 622 353.6602185362005 L 623 353.6821096017968 L 623 353.6821096017968 L 624 353.7037958539264 L 624 353.7037958539264 L 625 353.7252792088302 L 625 353.7252792088302 L 626 353.7465615648208 L 626 353.7465615648208 L 627 353.76764480245004 L 627 353.76764480245004 L 628 353.7885307846753 L 628 353.7885307846753 L 629 353.809221357024 L 629 353.809221357024 L 630 353.8297183477568 L 630 353.8297183477568 L 631 353.8500235680292 L 631 353.8500235680292 L 632 353.8701388120513 L 632 353.8701388120513 L 633 353.8900658572467" stroke-opacity="0.6980392156862745" stroke-linecap="round" stroke-linejoin="round" stroke-miterlimit="10" stroke-width="2.5"/><text fill="rgb(0,100,0)" stroke="none" font-family="geogebra-sans-serif, sans-serif" font-size="16px" font-style="normal" font-weight="normal" text-decoration="normal" x="89" y="24" text-anchor="start" dominant-baseline="alphabetic" fill-opacity="1">k a^(-x)</text><text fill="none" stroke="rgb(255,255,255)" font-family="geogebra-sans-serif, sans-serif" font-size="16px" font-style="normal" font-weight="normal" text-decoration="normal" x="89" y="24" text-anchor="start" dominant-baseline="alphabetic" stroke-opacity="1" stroke-linejoin="bevel" stroke-miterlimit="10" stroke-width="3">k a^(-x)</text><text fill="rgb(0,100,0)" stroke="none" font-family="geogebra-sans-serif, sans-serif" font-size="16px" font-style="normal" font-weight="normal" text-decoration="normal" x="89" y="24" text-anchor="start" dominant-baseline="alphabetic" fill-opacity="1">k a^(-x)</text><path fill="rgb(68,68,68)" stroke="none" paint-order="stroke fill markers" d=" M 324.00000000000017 316.00000000000006 C 324.00000000000017 318.2091389993232 322.20913899932333 320.00000000000006 320.00000000000017 320.00000000000006 C 317.790861000677 320.00000000000006 316.00000000000017 318.2091389993232 316.00000000000017 316.00000000000006 C 316.00000000000017 313.7908610006769 317.790861000677 312.00000000000006 320.00000000000017 312.00000000000006 C 322.20913899932333 312.00000000000006 324.00000000000017 313.7908610006769 324.00000000000017 316.00000000000006 Z" fill-opacity="1"/><path fill="none" stroke="rgb(0,0,0)" paint-order="fill stroke markers" d=" M 324.00000000000017 316.00000000000006 C 324.00000000000017 318.2091389993232 322.20913899932333 320.00000000000006 320.00000000000017 320.00000000000006 C 317.790861000677 320.00000000000006 316.00000000000017 318.2091389993232 316.00000000000017 316.00000000000006 C 316.00000000000017 313.7908610006769 317.790861000677 312.00000000000006 320.00000000000017 312.00000000000006 C 322.20913899932333 312.00000000000006 324.00000000000017 313.7908610006769 324.00000000000017 316.00000000000006 Z" stroke-opacity="1" stroke-linecap="round" stroke-linejoin="round" stroke-miterlimit="10"/><text fill="rgb(68,68,68)" stroke="none" font-family="geogebra-sans-serif, sans-serif" font-size="16px" font-style="normal" font-weight="normal" text-decoration="normal" x="315" y="303" text-anchor="start" dominant-baseline="alphabetic" fill-opacity="1">k</text><text fill="none" stroke="rgb(255,255,255)" font-family="geogebra-sans-serif, sans-serif" font-size="16px" font-style="normal" font-weight="normal" text-decoration="normal" x="315" y="303" text-anchor="start" dominant-baseline="alphabetic" stroke-opacity="1" stroke-linejoin="bevel" stroke-miterlimit="10" stroke-width="3">k</text><text fill="rgb(68,68,68)" stroke="none" font-family="geogebra-sans-serif, sans-serif" font-size="16px" font-style="normal" font-weight="normal" text-decoration="normal" x="315" y="303" text-anchor="start" dominant-baseline="alphabetic" fill-opacity="1">k</text></g></g></svg>