<svg version="1.1" xmlns="http://www.w3.org/2000/svg" xmlns:xlink="http://www.w3.org/1999/xlink" width="532" height="260"><defs><clipPath id="yWZgiDmFiJTb"><path fill="none" stroke="none" d=" M 0 0 L 532 0 L 532 260 L 0 260 L 0 0 Z"/></clipPath></defs><g transform="scale(1,1)" clip-path="url(#yWZgiDmFiJTb)"><g><rect fill="none" stroke="none" x="0" y="0" width="533" height="260" fill-opacity="1"/><path fill="none" stroke="rgb(37,37,37)" paint-order="fill stroke markers" d=" M 257.5 2.5 L 257.5 260.5" stroke-opacity="1" stroke-miterlimit="10"/><path fill="none" stroke="rgb(37,37,37)" paint-order="fill stroke markers" d=" M 257.5 1.5 L 253.5 5.5" stroke-opacity="1" stroke-miterlimit="10"/><path fill="none" stroke="rgb(37,37,37)" paint-order="fill stroke markers" d=" M 257.5 1.5 L 261.5 5.5" stroke-opacity="1" stroke-miterlimit="10"/><path fill="none" stroke="rgb(37,37,37)" paint-order="fill stroke markers" d=" M 0.5 131.5 L 530.5 131.5" stroke-opacity="1" stroke-miterlimit="10"/><path fill="none" stroke="rgb(37,37,37)" paint-order="fill stroke markers" d=" M 531.5 131.5 L 527.5 127.5" stroke-opacity="1" stroke-miterlimit="10"/><path fill="none" stroke="rgb(37,37,37)" paint-order="fill stroke markers" d=" M 531.5 131.5 L 527.5 135.5" stroke-opacity="1" stroke-miterlimit="10"/><text fill="rgb(37,37,37)" stroke="none" font-family="geogebra-sans-serif, sans-serif" font-size="12px" font-style="normal" font-weight="normal" text-decoration="normal" x="37" y="147" text-anchor="start" dominant-baseline="alphabetic" fill-opacity="1">–4</text><text fill="none" stroke="rgb(255,255,255)" font-family="geogebra-sans-serif, sans-serif" font-size="12px" font-style="normal" font-weight="normal" text-decoration="normal" x="37" y="147" text-anchor="start" dominant-baseline="alphabetic" stroke-opacity="1" stroke-linejoin="bevel" stroke-miterlimit="10" stroke-width="3">–4</text><text fill="rgb(37,37,37)" stroke="none" font-family="geogebra-sans-serif, sans-serif" font-size="12px" font-style="normal" font-weight="normal" text-decoration="normal" x="37" y="147" text-anchor="start" dominant-baseline="alphabetic" fill-opacity="1">–4</text><path fill="none" stroke="rgb(37,37,37)" paint-order="fill stroke markers" d=" M 42.5 131.5 L 42.5 134.5" stroke-opacity="1" stroke-miterlimit="10"/><text fill="rgb(37,37,37)" stroke="none" font-family="geogebra-sans-serif, sans-serif" font-size="12px" font-style="normal" font-weight="normal" text-decoration="normal" x="91" y="147" text-anchor="start" dominant-baseline="alphabetic" fill-opacity="1">–3</text><text fill="none" stroke="rgb(255,255,255)" font-family="geogebra-sans-serif, sans-serif" font-size="12px" font-style="normal" font-weight="normal" text-decoration="normal" x="91" y="147" text-anchor="start" dominant-baseline="alphabetic" stroke-opacity="1" stroke-linejoin="bevel" stroke-miterlimit="10" stroke-width="3">–3</text><text fill="rgb(37,37,37)" stroke="none" font-family="geogebra-sans-serif, sans-serif" font-size="12px" font-style="normal" font-weight="normal" text-decoration="normal" x="91" y="147" text-anchor="start" dominant-baseline="alphabetic" fill-opacity="1">–3</text><path fill="none" stroke="rgb(37,37,37)" paint-order="fill stroke markers" d=" M 96.5 131.5 L 96.5 134.5" stroke-opacity="1" stroke-miterlimit="10"/><text fill="rgb(37,37,37)" stroke="none" font-family="geogebra-sans-serif, sans-serif" font-size="12px" font-style="normal" font-weight="normal" text-decoration="normal" x="145" y="147" text-anchor="start" dominant-baseline="alphabetic" fill-opacity="1">–2</text><text fill="none" stroke="rgb(255,255,255)" font-family="geogebra-sans-serif, sans-serif" font-size="12px" font-style="normal" font-weight="normal" text-decoration="normal" x="145" y="147" text-anchor="start" dominant-baseline="alphabetic" stroke-opacity="1" stroke-linejoin="bevel" stroke-miterlimit="10" stroke-width="3">–2</text><text fill="rgb(37,37,37)" stroke="none" font-family="geogebra-sans-serif, sans-serif" font-size="12px" font-style="normal" font-weight="normal" text-decoration="normal" x="145" y="147" text-anchor="start" dominant-baseline="alphabetic" fill-opacity="1">–2</text><path fill="none" stroke="rgb(37,37,37)" paint-order="fill stroke markers" d=" M 150.5 131.5 L 150.5 134.5" stroke-opacity="1" stroke-miterlimit="10"/><text fill="rgb(37,37,37)" stroke="none" font-family="geogebra-sans-serif, sans-serif" font-size="12px" font-style="normal" font-weight="normal" text-decoration="normal" x="198" y="147" text-anchor="start" dominant-baseline="alphabetic" fill-opacity="1">–1</text><text fill="none" stroke="rgb(255,255,255)" font-family="geogebra-sans-serif, sans-serif" font-size="12px" font-style="normal" font-weight="normal" text-decoration="normal" x="198" y="147" text-anchor="start" dominant-baseline="alphabetic" stroke-opacity="1" stroke-linejoin="bevel" stroke-miterlimit="10" stroke-width="3">–1</text><text fill="rgb(37,37,37)" stroke="none" font-family="geogebra-sans-serif, sans-serif" font-size="12px" font-style="normal" font-weight="normal" text-decoration="normal" x="198" y="147" text-anchor="start" dominant-baseline="alphabetic" fill-opacity="1">–1</text><path fill="none" stroke="rgb(37,37,37)" paint-order="fill stroke markers" d=" M 203.5 131.5 L 203.5 134.5" stroke-opacity="1" stroke-miterlimit="10"/><path fill="none" stroke="rgb(37,37,37)" paint-order="fill stroke markers" d=" M 257.5 131.5 L 257.5 134.5" stroke-opacity="1" stroke-miterlimit="10"/><text fill="rgb(37,37,37)" stroke="none" font-family="geogebra-sans-serif, sans-serif" font-size="12px" font-style="normal" font-weight="normal" text-decoration="normal" x="309" y="147" text-anchor="start" dominant-baseline="alphabetic" fill-opacity="1">1</text><text fill="none" stroke="rgb(255,255,255)" font-family="geogebra-sans-serif, sans-serif" font-size="12px" font-style="normal" font-weight="normal" text-decoration="normal" x="309" y="147" text-anchor="start" dominant-baseline="alphabetic" stroke-opacity="1" stroke-linejoin="bevel" stroke-miterlimit="10" stroke-width="3">1</text><text fill="rgb(37,37,37)" stroke="none" font-family="geogebra-sans-serif, sans-serif" font-size="12px" font-style="normal" font-weight="normal" text-decoration="normal" x="309" y="147" text-anchor="start" dominant-baseline="alphabetic" fill-opacity="1">1</text><path fill="none" stroke="rgb(37,37,37)" paint-order="fill stroke markers" d=" M 311.5 131.5 L 311.5 134.5" stroke-opacity="1" stroke-miterlimit="10"/><text fill="rgb(37,37,37)" stroke="none" font-family="geogebra-sans-serif, sans-serif" font-size="12px" font-style="normal" font-weight="normal" text-decoration="normal" x="363" y="147" text-anchor="start" dominant-baseline="alphabetic" fill-opacity="1">2</text><text fill="none" stroke="rgb(255,255,255)" font-family="geogebra-sans-serif, sans-serif" font-size="12px" font-style="normal" font-weight="normal" text-decoration="normal" x="363" y="147" text-anchor="start" dominant-baseline="alphabetic" stroke-opacity="1" stroke-linejoin="bevel" stroke-miterlimit="10" stroke-width="3">2</text><text fill="rgb(37,37,37)" stroke="none" font-family="geogebra-sans-serif, sans-serif" font-size="12px" font-style="normal" font-weight="normal" text-decoration="normal" x="363" y="147" text-anchor="start" dominant-baseline="alphabetic" fill-opacity="1">2</text><path fill="none" stroke="rgb(37,37,37)" paint-order="fill stroke markers" d=" M 365.5 131.5 L 365.5 134.5" stroke-opacity="1" stroke-miterlimit="10"/><text fill="rgb(37,37,37)" stroke="none" font-family="geogebra-sans-serif, sans-serif" font-size="12px" font-style="normal" font-weight="normal" text-decoration="normal" x="416" y="147" text-anchor="start" dominant-baseline="alphabetic" fill-opacity="1">3</text><text fill="none" stroke="rgb(255,255,255)" font-family="geogebra-sans-serif, sans-serif" font-size="12px" font-style="normal" font-weight="normal" text-decoration="normal" x="416" y="147" text-anchor="start" dominant-baseline="alphabetic" stroke-opacity="1" stroke-linejoin="bevel" stroke-miterlimit="10" stroke-width="3">3</text><text fill="rgb(37,37,37)" stroke="none" font-family="geogebra-sans-serif, sans-serif" font-size="12px" font-style="normal" font-weight="normal" text-decoration="normal" x="416" y="147" text-anchor="start" dominant-baseline="alphabetic" fill-opacity="1">3</text><path fill="none" stroke="rgb(37,37,37)" paint-order="fill stroke markers" d=" M 418.5 131.5 L 418.5 134.5" stroke-opacity="1" stroke-miterlimit="10"/><text fill="rgb(37,37,37)" stroke="none" font-family="geogebra-sans-serif, sans-serif" font-size="12px" font-style="normal" font-weight="normal" text-decoration="normal" x="470" y="147" text-anchor="start" dominant-baseline="alphabetic" fill-opacity="1">4</text><text fill="none" stroke="rgb(255,255,255)" font-family="geogebra-sans-serif, sans-serif" font-size="12px" font-style="normal" font-weight="normal" text-decoration="normal" x="470" y="147" text-anchor="start" dominant-baseline="alphabetic" stroke-opacity="1" stroke-linejoin="bevel" stroke-miterlimit="10" stroke-width="3">4</text><text fill="rgb(37,37,37)" stroke="none" font-family="geogebra-sans-serif, sans-serif" font-size="12px" font-style="normal" font-weight="normal" text-decoration="normal" x="470" y="147" text-anchor="start" dominant-baseline="alphabetic" fill-opacity="1">4</text><path fill="none" stroke="rgb(37,37,37)" paint-order="fill stroke markers" d=" M 472.5 131.5 L 472.5 134.5" stroke-opacity="1" stroke-miterlimit="10"/><path fill="none" stroke="rgb(37,37,37)" paint-order="fill stroke markers" d=" M 254.5 238.5 L 257.5 238.5" stroke-opacity="1" stroke-miterlimit="10"/><path fill="none" stroke="rgb(37,37,37)" paint-order="fill stroke markers" d=" M 254.5 184.5 L 257.5 184.5" stroke-opacity="1" stroke-miterlimit="10"/><path fill="none" stroke="rgb(37,37,37)" paint-order="fill stroke markers" d=" M 254.5 77.5 L 257.5 77.5" stroke-opacity="1" stroke-miterlimit="10"/><path fill="none" stroke="rgb(37,37,37)" paint-order="fill stroke markers" d=" M 254.5 23.5 L 257.5 23.5" stroke-opacity="1" stroke-miterlimit="10"/><text fill="rgb(37,37,37)" stroke="none" font-family="geogebra-sans-serif, sans-serif" font-size="12px" font-style="normal" font-weight="normal" text-decoration="normal" x="236" y="243" text-anchor="start" dominant-baseline="alphabetic" fill-opacity="1">–2</text><text fill="none" stroke="rgb(255,255,255)" font-family="geogebra-sans-serif, sans-serif" font-size="12px" font-style="normal" font-weight="normal" text-decoration="normal" x="236" y="243" text-anchor="start" dominant-baseline="alphabetic" stroke-opacity="1" stroke-linejoin="bevel" stroke-miterlimit="10" stroke-width="3">–2</text><text fill="rgb(37,37,37)" stroke="none" font-family="geogebra-sans-serif, sans-serif" font-size="12px" font-style="normal" font-weight="normal" text-decoration="normal" x="236" y="243" text-anchor="start" dominant-baseline="alphabetic" fill-opacity="1">–2</text><text fill="rgb(37,37,37)" stroke="none" font-family="geogebra-sans-serif, sans-serif" font-size="12px" font-style="normal" font-weight="normal" text-decoration="normal" x="236" y="189" text-anchor="start" dominant-baseline="alphabetic" fill-opacity="1">–1</text><text fill="none" stroke="rgb(255,255,255)" font-family="geogebra-sans-serif, sans-serif" font-size="12px" font-style="normal" font-weight="normal" text-decoration="normal" x="236" y="189" text-anchor="start" dominant-baseline="alphabetic" stroke-opacity="1" stroke-linejoin="bevel" stroke-miterlimit="10" stroke-width="3">–1</text><text fill="rgb(37,37,37)" stroke="none" font-family="geogebra-sans-serif, sans-serif" font-size="12px" font-style="normal" font-weight="normal" text-decoration="normal" x="236" y="189" text-anchor="start" dominant-baseline="alphabetic" fill-opacity="1">–1</text><text fill="rgb(37,37,37)" stroke="none" font-family="geogebra-sans-serif, sans-serif" font-size="12px" font-style="normal" font-weight="normal" text-decoration="normal" x="242" y="82" text-anchor="start" dominant-baseline="alphabetic" fill-opacity="1">1</text><text fill="none" stroke="rgb(255,255,255)" font-family="geogebra-sans-serif, sans-serif" font-size="12px" font-style="normal" font-weight="normal" text-decoration="normal" x="242" y="82" text-anchor="start" dominant-baseline="alphabetic" stroke-opacity="1" stroke-linejoin="bevel" stroke-miterlimit="10" stroke-width="3">1</text><text fill="rgb(37,37,37)" stroke="none" font-family="geogebra-sans-serif, sans-serif" font-size="12px" font-style="normal" font-weight="normal" text-decoration="normal" x="242" y="82" text-anchor="start" dominant-baseline="alphabetic" fill-opacity="1">1</text><text fill="rgb(37,37,37)" stroke="none" font-family="geogebra-sans-serif, sans-serif" font-size="12px" font-style="normal" font-weight="normal" text-decoration="normal" x="242" y="28" text-anchor="start" dominant-baseline="alphabetic" fill-opacity="1">2</text><text fill="none" stroke="rgb(255,255,255)" font-family="geogebra-sans-serif, sans-serif" font-size="12px" font-style="normal" font-weight="normal" text-decoration="normal" x="242" y="28" text-anchor="start" dominant-baseline="alphabetic" stroke-opacity="1" stroke-linejoin="bevel" stroke-miterlimit="10" stroke-width="3">2</text><text fill="rgb(37,37,37)" stroke="none" font-family="geogebra-sans-serif, sans-serif" font-size="12px" font-style="normal" font-weight="normal" text-decoration="normal" x="242" y="28" text-anchor="start" dominant-baseline="alphabetic" fill-opacity="1">2</text><text fill="rgb(37,37,37)" stroke="none" font-family="geogebra-sans-serif, sans-serif" font-size="12px" font-style="normal" font-weight="normal" text-decoration="normal" x="242" y="147" text-anchor="start" dominant-baseline="alphabetic" fill-opacity="1">0</text><text fill="none" stroke="rgb(255,255,255)" font-family="geogebra-sans-serif, sans-serif" font-size="12px" font-style="normal" font-weight="normal" text-decoration="normal" x="242" y="147" text-anchor="start" dominant-baseline="alphabetic" stroke-opacity="1" stroke-linejoin="bevel" stroke-miterlimit="10" stroke-width="3">0</text><text fill="rgb(37,37,37)" stroke="none" font-family="geogebra-sans-serif, sans-serif" font-size="12px" font-style="normal" font-weight="normal" text-decoration="normal" x="242" y="147" text-anchor="start" dominant-baseline="alphabetic" fill-opacity="1">0</text><path fill="none" stroke="rgb(0,100,0)" paint-order="fill stroke markers" d=" M 1 5989.07945133322 L 1 6057.795371033258 L 1 5989.079451333222 L 2.0000000000000284 5920.896738352692 L 2.0000000000000284 5920.896738352693 L 3.0000000000000284 5853.245155293406 L 3.0000000000000284 5853.245155293407 L 4.000000000000028 5786.122625357085 L 4.000000000000028 5786.122625357087 L 5 5719.527071745468 L 5 5719.52707174547 L 6.000000000000028 5653.456417660278 L 6.000000000000028 5653.456417660279 L 7 5587.908586303252 L 7 5587.908586303254 L 8.000000000000028 5522.881500876115 L 8.000000000000028 5522.881500876117 L 9 5458.373084580604 L 9 5458.373084580605 L 10.000000000000028 5394.381260618442 L 10.000000000000028 5394.381260618444 L 11.000000000000028 5330.903952191365 L 11.000000000000028 5330.903952191366 L 12 5267.939082501104 L 12 5267.939082501106 L 13.000000000000028 5205.484574749386 L 13.000000000000028 5205.484574749387 L 14 5143.538352137947 L 14 5143.538352137949 L 15.000000000000028 5082.0983378685105 L 15.000000000000028 5082.098337868512 L 16 5021.162455142816 L 16 5021.162455142817 L 17.00000000000003 4960.7286271625835 L 17.00000000000003 4960.728627162585 L 18 4900.794777129555 L 18 4900.794777129556 L 19.00000000000003 4841.358828245451 L 19.00000000000003 4841.358828245453 L 20.00000000000003 4782.418703712007 L 20.00000000000003 4782.418703712009 L 21 4723.972326730957 L 21 4723.972326730958 L 22.00000000000003 4666.017620504025 L 22.00000000000003 4666.017620504027 L 23 4608.552508232948 L 23 4608.552508232949 L 24.00000000000003 4551.574913119451 L 24.00000000000003 4551.574913119452 L 25 4495.082758365268 L 25 4495.082758365269 L 26.00000000000003 4439.073967172128 L 26.00000000000003 4439.0739671721285 L 27 4383.546462741763 L 27 4383.546462741765 L 28.00000000000003 4328.498168275903 L 28.00000000000003 4328.4981682759035 L 29.00000000000003 4273.927006976277 L 29.00000000000003 4273.927006976278 L 30 4219.8309020446195 L 30 4219.830902044621 L 31.00000000000003 4166.207776682659 L 31.00000000000003 4166.20777668266 L 32 4113.055554092127 L 32 4113.055554092129 L 33.00000000000003 4060.37215747475 L 33.00000000000003 4060.372157474752 L 34 4008.155510032266 L 34 4008.1555100322676 L 35.00000000000003 3956.4035349663986 L 35.00000000000003 3956.4035349664005 L 36.00000000000003 3905.1141554788824 L 36.00000000000003 3905.1141554788837 L 37 3854.2852947714487 L 37 3854.2852947714505 L 38.00000000000003 3803.9148760458256 L 38.00000000000003 3803.914876045827 L 39 3754.000822503746 L 39 3754.0008225037477 L 40.00000000000003 3704.541057346939 L 40.00000000000003 3704.5410573469403 L 41 3655.5335037771356 L 41 3655.5335037771374 L 42.00000000000003 3606.9760849960658 L 42.00000000000003 3606.976084996067 L 43 3558.866724205464 L 43 3558.8667242054644 L 44.00000000000003 3511.2033446070545 L 44.00000000000003 3511.203344607055 L 45.00000000000003 3463.9838694025716 L 45.00000000000003 3463.9838694025725 L 46 3417.206221793748 L 46 3417.206221793749 L 47.00000000000003 3370.8683249823102 L 47.00000000000003 3370.868324982311 L 48 3324.9681021699926 L 48 3324.9681021699935 L 49.00000000000003 3279.503476558522 L 49.00000000000003 3279.503476558523 L 50 3234.4723713496332 L 50 3234.472371349634 L 51.00000000000003 3189.8727097450533 L 51.00000000000003 3189.8727097450537 L 52.00000000000003 3145.702414946515 L 52.00000000000003 3145.702414946516 L 53.00000000000003 3101.9594101557486 L 53.00000000000003 3101.959410155749 L 54 3058.6416185744843 L 54 3058.641618574485 L 55 3015.7469634044533 L 55 3015.7469634044537 L 56 2973.2733678473855 L 56 2973.2733678473865 L 57.00000000000003 2931.218755105012 L 57.00000000000003 2931.2187551050124 L 58.00000000000003 2889.5810483790638 L 58.00000000000003 2889.5810483790647 L 59.00000000000003 2848.358170871272 L 59.00000000000003 2848.3581708712727 L 60.00000000000003 2807.548045783366 L 60.00000000000003 2807.5480457833664 L 61.00000000000003 2767.148596317077 L 61.00000000000003 2767.148596317078 L 62 2727.157745674136 L 62 2727.157745674137 L 63 2687.5734170562732 L 63 2687.573417056274 L 64 2648.39353366522 L 64 2648.3935336652203 L 65 2609.616018702706 L 65 2609.6160187027067 L 66.00000000000003 2571.2387953704615 L 66.00000000000003 2571.2387953704624 L 67.00000000000003 2533.2597868702187 L 67.00000000000003 2533.2597868702196 L 68.00000000000003 2495.676916403708 L 68.00000000000003 2495.676916403709 L 69.00000000000003 2458.4881071726595 L 69.00000000000003 2458.48810717266 L 70 2421.6912823788043 L 70 2421.691282378805 L 71 2385.284365223872 L 71 2385.284365223873 L 72 2349.265278909595 L 72 2349.265278909596 L 73 2313.6319466377026 L 73 2313.6319466377035 L 74.00000000000003 2278.3822916099252 L 74.00000000000003 2278.382291609926 L 75.00000000000003 2243.514237027995 L 75.00000000000003 2243.5142370279955 L 76.00000000000003 2209.0257060936415 L 76.00000000000003 2209.0257060936424 L 77.00000000000003 2174.9146220085963 L 77.00000000000003 2174.914622008597 L 78.00000000000003 2141.1789079745886 L 78.00000000000003 2141.1789079745895 L 79 2107.816487193351 L 79 2107.8164871933513 L 80 2074.8252828666123 L 80 2074.8252828666127 L 81 2042.203218196104 L 81 2042.2032181961047 L 82 2009.9482163835569 L 82 2009.9482163835576 L 83.00000000000003 1978.0582006307006 L 83.00000000000003 1978.0582006307015 L 84.00000000000003 1946.5310941392675 L 84.00000000000003 1946.5310941392684 L 85.00000000000003 1915.3648201109872 L 85.00000000000003 1915.3648201109881 L 86.00000000000003 1884.5573017475913 L 86.00000000000003 1884.557301747592 L 87 1854.1064622508088 L 87 1854.1064622508097 L 88 1824.010224822372 L 88 1824.0102248223723 L 89 1794.2665126640106 L 89 1794.266512664011 L 90 1764.8732489774554 L 90 1764.873248977456 L 91 1735.8283569644375 L 91 1735.828356964438 L 92.00000000000003 1707.1297598266863 L 92.00000000000003 1707.1297598266867 L 93.00000000000003 1678.775380765934 L 93.00000000000003 1678.7753807659344 L 94.00000000000003 1650.7631429839114 L 94.00000000000003 1650.7631429839116 L 95 1623.0909696823478 L 95 1623.090969682348 L 96 1595.7567840629747 L 96 1595.7567840629752 L 97 1568.7585093275227 L 97 1568.7585093275231 L 98 1542.0940686777221 L 98 1542.0940686777226 L 99 1515.7613853153043 L 99 1515.7613853153048 L 100.00000000000003 1489.7583824419985 L 100.00000000000003 1489.758382441999 L 101.00000000000003 1464.082983259537 L 101.00000000000003 1464.0829832595375 L 102.00000000000003 1438.73311096965 L 102.00000000000003 1438.7331109696504 L 103.00000000000003 1413.7066887740675 L 103.00000000000003 1413.706688774068 L 104 1389.0016398745213 L 104 1389.0016398745217 L 105 1364.615887472741 L 105 1364.6158874727414 L 106 1340.5473547704578 L 106 1340.5473547704582 L 107 1316.7939649694022 L 107 1316.7939649694026 L 108 1293.3536412713052 L 108 1293.3536412713054 L 109.00000000000003 1270.2243068778962 L 109.00000000000003 1270.2243068778967 L 110.00000000000003 1247.4038849909075 L 110.00000000000003 1247.403884990908 L 111.00000000000003 1224.8902988120692 L 111.00000000000003 1224.8902988120697 L 112 1202.681471543112 L 112 1202.6814715431124 L 113 1180.7753263857664 L 113 1180.7753263857667 L 114 1159.169786541763 L 114 1159.1697865417634 L 115 1137.8627752128325 L 115 1137.862775212833 L 116 1116.8522156007057 L 116 1116.8522156007061 L 117.00000000000003 1096.1360309071129 L 117.00000000000003 1096.136030907113 L 118.00000000000003 1075.7121443337853 L 118.00000000000003 1075.7121443337855 L 119.00000000000003 1055.5784790824534 L 119.00000000000003 1055.578479082454 L 120 1035.7329583548476 L 120 1035.732958354848 L 121 1016.1735053526991 L 121 1016.1735053526995 L 122 996.8980432777382 L 122 996.8980432777386 L 123 977.9044953316954 L 123 977.9044953316956 L 124 959.1907847163017 L 124 959.1907847163019 L 125 940.7548346332875 L 125 940.7548346332877 L 126.00000000000003 922.5945682843832 L 126.00000000000003 922.5945682843834 L 127.00000000000003 904.7079088713203 L 127.00000000000003 904.7079088713206 L 128.00000000000003 887.0927795958291 L 128.00000000000003 887.0927795958293 L 129 869.7471036596401 L 129 869.7471036596402 L 130 852.6688042644839 L 130 852.6688042644842 L 131 835.8558046120914 L 131 835.8558046120916 L 132 819.3060279041933 L 132 819.3060279041935 L 133 803.01739734252 L 133 803.0173973425202 L 134 786.9878361288021 L 134 786.9878361288023 L 135 771.2152674647707 L 135 771.2152674647709 L 136 755.6976145521563 L 136 755.6976145521566 L 137 740.4328005926894 L 137 740.4328005926897 L 138 725.4187487881009 L 138 725.4187487881011 L 139 710.6533823401213 L 139 710.6533823401215 L 140 696.1346244504813 L 140 696.1346244504815 L 141 681.8603983209115 L 141 681.8603983209117 L 142 667.8286271531427 L 142 667.8286271531429 L 143 654.0372341489052 L 143 654.0372341489053 L 144 640.4841425099302 L 144 640.4841425099304 L 145 627.1672754379482 L 145 627.1672754379483 L 146 614.0845561346897 L 146 614.0845561346899 L 147 601.2339078018856 L 147 601.2339078018857 L 148 588.6132536412663 L 148 588.6132536412664 L 149 576.2205168545626 L 149 576.2205168545628 L 150 564.0536206435052 L 150 564.0536206435054 L 151 552.1104882098243 L 151 552.1104882098244 L 152 540.3890427552515 L 152 540.3890427552516 L 153 528.8872074815167 L 153 528.8872074815168 L 154 517.602905590351 L 154 517.602905590351 L 155 506.5340602834848 L 155 506.5340602834849 L 156 495.6785947626488 L 156 495.6785947626489 L 157 485.0344322295738 L 157 485.0344322295739 L 158 474.59949588599034 L 158 474.59949588599045 L 159 464.37170893362895 L 159 464.37170893362907 L 160 454.34899457422057 L 160 454.3489945742207 L 161 444.5292760094959 L 161 444.5292760094959 L 162 434.9104764411852 L 162 434.9104764411853 L 163 425.49051907101966 L 163 425.49051907101966 L 164 416.2673271007295 L 164 416.26732710072963 L 165 407.2388237320457 L 165 407.23882373204583 L 166 398.40293216669863 L 166 398.40293216669875 L 167 389.7575756064193 L 167 389.75757560641944 L 168 381.30067725293816 L 168 381.30067725293827 L 169 373.03016030798585 L 169 373.03016030798597 L 170 364.94394797329306 L 170 364.9439479732931 L 171 357.03996345059056 L 171 357.0399634505907 L 172 349.316129941609 L 172 349.31612994160906 L 173 341.77037064807894 L 173 341.77037064807894 L 174 334.40060877173113 L 174 334.4006087717312 L 175 327.2047675142961 L 175 327.2047675142961 L 176 320.1807700775047 L 176 320.18077007750475 L 177 313.3265396630875 L 177 313.3265396630876 L 178 306.63999947277523 L 178 306.6399994727753 L 179 300.1190727082984 L 179 300.1190727082984 L 180 293.76168257138784 L 180 293.76168257138784 L 181 287.56575226377413 L 181 287.5657522637742 L 182 281.529204987188 L 182 281.529204987188 L 183 275.64996394336 L 183 275.64996394336004 L 184 269.9259523340209 L 184 269.92595233402096 L 185 264.3550933609014 L 185 264.3550933609014 L 186 258.93531022573205 L 186 258.9353102257321 L 187 253.66452613024356 L 187 253.6645261302436 L 188 248.54066427616655 L 188 248.54066427616658 L 189 243.5616478652318 L 189 243.56164786523186 L 190 238.72540009916992 L 190 238.72540009916997 L 191 234.02984417971157 L 191 234.02984417971157 L 192 229.47290330858738 L 192 229.47290330858738 L 193 225.05250068752804 L 193 225.0525006875281 L 194 220.76655951826427 L 194 220.76655951826427 L 195 216.61300300252665 L 195 216.61300300252668 L 196 212.58975434204586 L 196 212.58975434204586 L 197 208.69473673855262 L 197 208.69473673855265 L 198 204.92587339377758 L 198 204.92587339377758 L 199 201.28108750945137 L 199 201.28108750945137 L 200 197.75830228730462 L 200 197.75830228730467 L 201 194.35544092906812 L 201 194.35544092906815 L 202 191.07042663647246 L 202 191.0704266364725 L 203 187.9011826112483 L 203 187.90118261124832 L 204 184.84563205512632 L 204 184.84563205512632 L 205 181.90169816983712 L 205 181.90169816983715 L 206 179.0673041571115 L 206 179.0673041571115 L 207 176.34037321868 L 207 176.34037321868 L 208 173.71882855627337 L 208 173.7188285562734 L 209 171.2005933716222 L 209 171.2005933716222 L 210 168.78359086645725 L 210 168.78359086645725 L 211 166.4657442425091 L 211 166.4657442425091 L 212 164.24497670150845 L 212 164.24497670150845 L 213 162.11921144518595 L 213 162.11921144518595 L 214 160.08637167527226 L 214 160.0863716752723 L 215 158.1443805934981 L 215 158.1443805934981 L 216 156.29116140159408 L 216 156.29116140159408 L 217 154.52463730129088 L 217 154.5246373012909 L 218 152.84273149431917 L 218 152.8427314943192 L 219 151.24336718240963 L 219 151.24336718240963 L 220 149.7244675672929 L 220 149.7244675672929 L 221 148.28395585069964 L 221 148.28395585069964 L 222 146.91975523436054 L 222 146.91975523436054 L 223 145.62978892000623 L 223 145.62978892000623 L 224 144.41198010936742 L 224 144.41198010936742 L 225 143.26425200417475 L 225 143.26425200417475 L 226 142.18452780615888 L 226 142.18452780615888 L 227 141.1707307170505 L 227 141.1707307170505 L 228 140.22078393858027 L 228 140.22078393858027 L 229 139.3326106724788 L 229 139.3326106724788 L 230 138.50413412047683 L 230 138.50413412047683 L 231 137.733277484305 L 231 137.733277484305 L 232 137.01796396569398 L 232 137.01796396569398 L 233 136.35611676637438 L 233 136.35611676637438 L 234 135.74565908807696 L 234 135.74565908807696 L 235 135.1845141325323 L 235 135.1845141325323 L 236 134.67060510147112 L 236 134.67060510147112 L 237 134.20185519662408 L 237 134.20185519662408 L 238 133.7761876197218 L 238 133.7761876197218 L 239 133.391525572495 L 239 133.391525572495 L 240 133.04579225667433 L 240 133.04579225667433 L 241 132.7369108739904 L 241 132.7369108739904 L 242 132.46280462617398 L 242 132.46280462617398 L 243 132.22139671495566 L 243 132.22139671495566 L 244 132.01061034206612 L 244 132.01061034206612 L 245 131.828368709236 L 245 131.828368709236 L 246 131.67259501819603 L 246 131.67259501819603 L 247 131.54121247067684 L 247 131.54121247067684 L 248 131.43214426840908 L 248 131.43214426840908 L 249 131.34331361312343 L 249 131.34331361312343 L 250 131.27264370655055 L 250 131.27264370655055 L 251 131.2180577504211 L 251 131.2180577504211 L 252 131.17747894646578 L 252 131.17747894646578 L 253 131.1488304964152 L 253 131.1488304964152 L 254 131.13003560200008 L 254 131.13003560200008 L 255 131.11901746495107 L 255 131.11901746495107 L 256 131.1136992869988 L 256 131.1136992869988 L 257 131.11200426987398 L 257 131.11200426987398 L 258 131.11185561530723 L 258 131.11185561530723 L 259 131.11117652502926 L 259 131.11117652502926 L 260 131.10789020077073 L 260 131.10789020077073 L 261 131.09991984426227 L 261 131.09991984426227 L 262 131.0851886572346 L 262 131.0851886572346 L 263 131.06161984141832 L 263 131.06161984141832 L 264 131.02713659854413 L 264 131.02713659854413 L 265 130.9796621303427 L 265 130.9796621303427 L 266 130.91711963854468 L 266 130.91711963854468 L 267 130.83743232488075 L 267 130.83743232488075 L 268 130.73852339108157 L 268 130.73852339108157 L 269 130.6183160388778 L 269 130.6183160388778 L 270 130.4747334700001 L 270 130.4747334700001 L 271 130.30569888617916 L 271 130.30569888617916 L 272 130.10913548914564 L 272 130.10913548914564 L 273 129.88296648063016 L 273 129.88296648063016 L 274 129.62511506236345 L 274 129.62511506236345 L 275 129.33350443607614 L 275 129.33350443607614 L 276 129.0060578034989 L 276 129.0060578034989 L 277 128.6406983663624 L 277 128.6406983663624 L 278 128.23534932639726 L 278 128.23534932639726 L 279 127.78793388533423 L 279 127.78793388533423 L 280 127.29637524490391 L 280 127.29637524490391 L 281 126.75859660683699 L 281 126.758596606837 L 282 126.17252117286414 L 282 126.17252117286414 L 283 125.53607214471602 L 283 125.53607214471602 L 284 124.84717272412328 L 284 124.84717272412328 L 285 124.1037461128166 L 285 124.1037461128166 L 286 123.30371551252664 L 286 123.30371551252664 L 287 122.44500412498407 L 287 122.44500412498408 L 288 121.52553515191956 L 288 121.52553515191957 L 289 120.54323179506376 L 289 120.54323179506376 L 290 119.49601725614735 L 290 119.49601725614735 L 291 118.38181473690098 L 291 118.38181473690098 L 292 117.19854743905533 L 292 117.19854743905533 L 293 115.94413856434106 L 293 115.94413856434106 L 294 114.61651131448883 L 294 114.61651131448883 L 295 113.2135888912293 L 295 113.2135888912293 L 296 111.73329449629317 L 296 111.73329449629317 L 297 110.17355133141106 L 297 110.17355133141106 L 298 108.53228259831367 L 298 108.53228259831367 L 299 106.80741149873164 L 299 106.80741149873165 L 300 104.99686123439564 L 300 104.99686123439565 L 301 103.09855500703635 L 301 103.09855500703637 L 302 101.11041601838443 L 302 101.11041601838443 L 303 99.03036747017053 L 303 99.03036747017055 L 304 96.85633256412532 L 304 96.85633256412534 L 305 94.5862345019795 L 305 94.5862345019795 L 306 92.21799648546369 L 306 92.21799648546369 L 307 89.74954171630857 L 307 89.74954171630858 L 308 87.1787933962448 L 308 87.17879339624481 L 309 84.50367472700307 L 309 84.50367472700309 L 310 81.722108910314 L 310 81.72210891031403 L 311 78.83201914790833 L 311 78.83201914790834 L 312 75.83132864151663 L 312 75.83132864151665 L 313 72.71796059286964 L 313 72.71796059286967 L 314 69.48983820369801 L 314 69.48983820369803 L 315 66.14488467573236 L 315 66.14488467573237 L 316 62.681023210703415 L 316 62.68102321070343 L 317 59.09617701034182 L 317 59.09617701034183 L 318 55.388269276378225 L 318 55.38826927637825 L 319 51.5552232105433 L 319 51.55522321054333 L 320 47.594962014567685 L 320 47.59496201456771 L 321 43.505408890182125 L 321 43.50540889018215 L 322 39.28448703911724 L 322 39.28448703911725 L 323 34.93011966310367 L 323 34.930119663103696 L 324 30.440229963872056 L 324 30.440229963872085 L 325 25.81274114315316 L 325 25.81274114315319 L 326 21.045576402677597 L 326 21.04557640267764 L 327 16.136658944176048 L 327 16.13665894417609 L 328 11.083911969379074 L 328 11.083911969379116 L 329 5.8852586800175 L 329 5.885258680017557 L 330 0.5386222778219292 L 330 0.538622277821986 L 331 -4.958074035476983 L 331 -4.958074035476955 L 332 -10.606907058148607 L 332 -10.60690705814855 L 333 -16.409953588462287 L 333 -16.40995358846223 L 334 -22.36929042468725 L 334 -22.369290424687193 L 335 -28.48699436509284 L 335 -28.486994365092812 L 336 -34.76514220794854 L 336 -34.765142207948486 L 337 -41.205810751523614 L 337 -41.20581075152356 L 338 -47.811076794087285 L 338 -47.81107679408723 L 339 -54.58301713390901 L 339 -54.58301713390895 L 340 -61.523708569258076 L 340 -61.52370856925802 L 341 -68.63522789840391 L 341 -68.63522789840385 L 342 -75.91965191961572 L 342 -75.91965191961566 L 343 -83.37905743116283 L 343 -83.37905743116278 L 344 -91.0155212313147 L 344 -91.01552123131461 L 345 -98.83112011834066 L 345 -98.83112011834058 L 346 -106.82793089050986 L 346 -106.82793089050978 L 347 -115.00803034609177 L 347 -115.00803034609169 L 348 -123.37349528335577 L 348 -123.37349528335565 L 349 -131.92640250057107 L 349 -131.92640250057096 L 350 -140.6688287960072 L 350 -140.6688287960071 L 351 -149.60285096793322 L 351 -149.60285096793316 L 352 -158.7305458146187 L 352 -158.73054581461858 L 353 -168.05399013433285 L 353 -168.05399013433274 L 354 -177.5752607253452 L 354 -177.5752607253451 L 355 -187.2964343859247 L 355 -187.29643438592464 L 356 -197.21958791434096 L 356 -197.21958791434085 L 357 -207.34679810886334 L 357 -207.34679810886323 L 358 -217.6801417677611 L 358 -217.680141767761 L 359 -228.22169568930357 L 359 -228.22169568930346 L 360 -238.97353667176 L 360 -238.97353667175994 L 361 -249.93774151339986 L 361 -249.93774151339974 L 362 -261.1163870124924 L 362 -261.1163870124923 L 363 -272.51154996730713 L 363 -272.511549967307 L 364 -284.1253071761132 L 364 -284.1253071761131 L 365 -295.9597354371799 L 365 -295.9597354371798 L 366 -308.0169115487769 L 366 -308.01691154877676 L 367 -320.29891230917315 L 367 -320.2989123091729 L 368 -332.807814516638 L 368 -332.8078145166378 L 369 -345.545694969441 L 369 -345.5456949694408 L 370 -358.5146304658514 L 370 -358.51463046585116 L 371 -371.7166978041388 L 371 -371.7166978041387 L 372 -385.1539737825717 L 372 -385.1539737825715 L 373 -398.82853519942057 L 373 -398.82853519942046 L 374 -412.74245885295386 L 374 -412.74245885295363 L 375 -426.89782154144143 L 375 -426.8978215414412 L 376 -441.29670006315223 L 376 -441.296700063152 L 377 -455.94117121635566 L 377 -455.94117121635543 L 378 -470.83331179932134 L 378 -470.8333117993211 L 379 -485.97519861031833 L 379 -485.9751986103181 L 380 -501.36890844761604 L 380 -501.3689084476159 L 381 -517.016518109484 L 381 -517.0165181094837 L 382 -532.9201043941916 L 382 -532.9201043941914 L 383 -549.0817441000077 L 383 -549.0817441000074 L 384 -565.5035140252018 L 384 -565.5035140252015 L 385 -582.1874909680432 L 385 -582.187490968043 L 386 -599.1357517268016 L 386 -599.1357517268013 L 387 -616.3503730997459 L 387 -616.3503730997458 L 388 -633.8334318851456 L 388 -633.8334318851454 L 389 -651.5870048812703 L 389 -651.5870048812701 L 390 -669.6131688863893 L 390 -669.6131688863892 L 391 -687.9140006987714 L 391 -687.9140006987712 L 392 -706.4915771166862 L 392 -706.491577116686 L 393 -725.3479749384031 L 393 -725.3479749384029 L 394 -744.4852709621917 L 394 -744.4852709621913 L 395 -763.9055419863208 L 395 -763.9055419863205 L 396 -783.61086480906 L 396 -783.6108648090596 L 397 -803.6033162286788 L 397 -803.6033162286784 L 398 -823.8849730434462 L 398 -823.8849730434457 L 399 -844.4579120516323 L 399 -844.4579120516319 L 400 -865.3242100515051 L 400 -865.3242100515047 L 401 -886.4859438413349 L 401 -886.4859438413346 L 402 -907.9451902193908 L 402 -907.9451902193904 L 403 -929.7040259839422 L 403 -929.7040259839417 L 404 -951.7645279332584 L 404 -951.7645279332579 L 405 -974.1287728656085 L 405 -974.1287728656081 L 406 -996.7988375792621 L 406 -996.7988375792617 L 407 -1019.7767988724892 L 407 -1019.7767988724887 L 408 -1043.0647335435578 L 408 -1043.0647335435574 L 409 -1066.6647183907378 L 409 -1066.6647183907373 L 410 -1090.5788302122987 L 410 -1090.5788302122983 L 411 -1114.8091458065096 L 411 -1114.8091458065092 L 412 -1139.35774197164 L 412 -1139.3577419716396 L 413 -1164.2266955059592 L 413 -1164.2266955059588 L 414 -1189.4180832077366 L 414 -1189.4180832077363 L 415 -1214.9339818752414 L 415 -1214.933981875241 L 416 -1240.7764683067433 L 416 -1240.776468306743 L 417 -1266.9476193005114 L 417 -1266.947619300511 L 418 -1293.4495116548146 L 418 -1293.4495116548142 L 419 -1320.2842221679227 L 419 -1320.2842221679223 L 420 -1347.4538276381045 L 420 -1347.453827638104 L 421 -1374.9604048636302 L 421 -1374.9604048636297 L 422 -1402.8060306427685 L 422 -1402.806030642768 L 423 -1430.992781773789 L 423 -1430.9927817737885 L 424 -1459.522735054962 L 424 -1459.5227350549615 L 425 -1488.3979672845546 L 425 -1488.3979672845544 L 426 -1517.6205552608376 L 426 -1517.6205552608371 L 427 -1547.1925757820802 L 427 -1547.1925757820798 L 428 -1577.1161056465512 L 428 -1577.1161056465507 L 429 -1607.3932216525209 L 429 -1607.3932216525202 L 430 -1638.026000598258 L 430 -1638.0260005982573 L 431 -1669.0165192820316 L 431 -1669.016519282031 L 432 -1700.3668545021112 L 432 -1700.3668545021105 L 433 -1732.0790830567673 L 433 -1732.0790830567666 L 434 -1764.1552817442678 L 434 -1764.1552817442669 L 435 -1796.597527362882 L 435 -1796.5975273628812 L 436 -1829.4078967108799 L 436 -1829.4078967108792 L 437 -1862.5884665865306 L 437 -1862.5884665865296 L 438 -1896.1413137881034 L 438 -1896.1413137881025 L 439 -1930.0685151138678 L 439 -1930.0685151138669 L 440 -1964.3721473620926 L 440 -1964.3721473620922 L 441 -1999.0542873310492 L 441 -1999.0542873310483 L 442 -2034.1170118190034 L 442 -2034.1170118190025 L 443 -2069.5623976242273 L 443 -2069.562397624227 L 444 -2105.392521544989 L 444 -2105.3925215449885 L 445 -2141.6094603795586 L 445 -2141.6094603795577 L 446 -2178.215290926205 L 446 -2178.215290926204 L 447 -2215.212089983197 L 447 -2215.212089983196 L 448 -2252.6019343488047 L 448 -2252.601934348804 L 449 -2290.386900821298 L 449 -2290.386900821297 L 450 -2328.5690661989456 L 450 -2328.5690661989447 L 451 -2367.150507280016 L 451 -2367.150507280015 L 452 -2406.133300862779 L 452 -2406.133300862778 L 453 -2445.5195237455046 L 453 -2445.5195237455036 L 454 -2485.3112527264616 L 454 -2485.3112527264607 L 455 -2525.510564603919 L 455 -2525.5105646039183 L 456 -2566.1195361761474 L 456 -2566.1195361761465 L 457 -2607.1402442414146 L 457 -2607.140244241414 L 458 -2648.5747655979917 L 458 -2648.574765597991 L 459 -2690.425177044147 L 459 -2690.4251770441465 L 460 -2732.6935553781486 L 460 -2732.693555378148 L 461 -2775.381977398268 L 461 -2775.3819773982673 L 462 -2818.4925199027734 L 462 -2818.4925199027725 L 463 -2862.027259689934 L 463 -2862.027259689933 L 464 -2905.9882735580195 L 464 -2905.9882735580186 L 465 -2950.377638305299 L 465 -2950.377638305298 L 466 -2995.1974307300425 L 466 -2995.1974307300416 L 467 -3040.449727630519 L 467 -3040.4497276305187 L 468 -3086.1366058049985 L 468 -3086.1366058049975 L 469 -3132.260142051748 L 469 -3132.260142051747 L 470 -3178.822413169039 L 470 -3178.822413169038 L 471 -3225.8254959551396 L 471 -3225.825495955139 L 472 -3273.2714672083202 L 472 -3273.2714672083193 L 473 -3321.1624037268507 L 473 -3321.1624037268493 L 474 -3369.5003823089983 L 474 -3369.5003823089964 L 474.99999999999994 -3418.2874797530317 L 474.99999999999994 -3418.2874797530303 L 476 -3467.525772857224 L 476 -3467.525772857223 L 477 -3517.2173384198436 L 477 -3517.2173384198422 L 478 -3567.364253239159 L 478 -3567.3642532391577 L 479 -3617.9685941134376 L 479 -3617.968594113436 L 480 -3669.0324378409487 L 480 -3669.0324378409473 L 481 -3720.5578612199665 L 481 -3720.557861219965 L 482 -3772.546941048757 L 482 -3772.546941048756 L 483 -3825.001754125587 L 483 -3825.001754125585 L 484 -3877.9243772487316 L 484 -3877.92437724873 L 485 -3931.3168872164542 L 485 -3931.316887216453 L 486 -3985.1813608270304 L 486 -3985.1813608270295 L 487 -4039.5198748787225 L 487 -4039.5198748787216 L 488 -4094.3345061698064 L 488 -4094.3345061698055 L 489 -4149.627331498549 L 489 -4149.627331498548 L 490 -4205.400427663217 L 490 -4205.400427663216 L 491 -4261.655871462082 L 491 -4261.655871462081 L 492 -4318.395739693414 L 492 -4318.395739693412 L 493 -4375.622109155483 L 493 -4375.622109155481 L 494 -4433.337056646554 L 494 -4433.337056646552 L 495 -4491.542658964901 L 495 -4491.5426589649 L 496 -4550.24099290879 L 496 -4550.240992908789 L 497 -4609.434135276494 L 497 -4609.434135276492 L 498 -4669.124162866281 L 498 -4669.124162866279 L 499 -4729.313152476417 L 499 -4729.313152476415 L 500 -4790.003180905175 L 500 -4790.003180905174 L 501 -4851.196324950822 L 501 -4851.19632495082 L 502 -4912.894661411631 L 502 -4912.894661411629 L 503 -4975.100267085866 L 503 -4975.100267085864 L 504 -5037.815218771802 L 504 -5037.815218771801 L 505 -5101.041593267706 L 505 -5101.041593267704 L 506 -5164.781467371843 L 506 -5164.781467371841 L 507 -5229.036917882491 L 507 -5229.036917882489 L 508 -5293.81002159791 L 508 -5293.810021597909 L 509 -5359.102855316378 L 509 -5359.102855316376 L 510 -5424.917495836156 L 510 -5424.917495836155 L 511 -5491.256019955522 L 511 -5491.25601995552 L 512 -5558.120504472738 L 512 -5558.120504472736 L 513 -5625.513026186078 L 513 -5625.513026186077 L 514 -5693.43566189381 L 514 -5693.435661893808 L 515 -5761.8904883942005 L 515 -5761.8904883942 L 516 -5830.879582485524 L 516 -5830.879582485522 L 517 -5900.405020966044 L 517 -5900.405020966042 L 518 -5970.468880634036 L 518 -5970.4688806340355 L 519 -6041.073238287763 L 519 -6041.073238287762 L 520 -6112.220170725502 L 520 -6112.2201707255 L 521 -6183.911754745512 L 521 -6183.911754745511 L 522 -6256.150067146074 L 522 -6256.150067146073 L 523 -6328.9371847254515 L 523 -6328.93718472545 L 524 -6402.27518428191 L 524 -6402.275184281908 L 525 -6476.166142613726 L 525 -6476.166142613724 L 526 -6550.612136519162 L 526 -6550.612136519161 L 527 -6625.615242796495 L 527 -6625.615242796494 L 528 -6701.177538243987 L 528 -6701.1775382439855 L 529 -6777.301099659913 L 529 -6777.3010996599105 L 530 -6853.988003842538 L 530 -6853.988003842534 L 531 -6931.240327590137 L 531 -6931.240327590133 L 532 -7009.060147700973" stroke-opacity="0.6980392156862745" stroke-linecap="round" stroke-linejoin="round" stroke-miterlimit="10" stroke-width="2.5"/><g transform="scale(19,19)"><g transform="translate(8.421052631578947,12.758428842105264)"><path fill="rgb(0,100,0)" stroke="none" paint-order="stroke fill markers" d=" M 0.334 -0.302 L 0.3 -0.165 Q 0.28300000000000003 -0.097 0.28300000000000003 -0.077 Q 0.28300000000000003 -0.025 0.32 -0.014 Q 0.328 -0.011 0.338 -0.011 Q 0.388 -0.011 0.429 -0.061 Q 0.456 -0.093 0.47100000000000003 -0.14200000000000002 Q 0.47400000000000003 -0.153 0.484 -0.153 Q 0.496 -0.153 0.496 -0.14300000000000002 Q 0.496 -0.11800000000000001 0.465 -0.07100000000000001 Q 0.41100000000000003 0.011 0.336 0.011 Q 0.268 0.011 0.23700000000000002 -0.046 Q 0.231 -0.055 0.228 -0.065 Q 0.20400000000000001 -0.017 0.162 0.002 Q 0.14300000000000002 0.011 0.123 0.011 Q 0.063 0.011 0.039 -0.024 Q 0.029 -0.037 0.029 -0.055 Q 0.029 -0.092 0.061 -0.107 Q 0.07200000000000001 -0.113 0.084 -0.113 Q 0.114 -0.113 0.12 -0.088 Q 0.121 -0.083 0.121 -0.078 Q 0.121 -0.044 0.08700000000000001 -0.028 Q 0.081 -0.025 0.074 -0.024 Q 0.095 -0.011 0.124 -0.011 Q 0.177 -0.011 0.20800000000000002 -0.082 Q 0.214 -0.097 0.219 -0.115 Q 0.273 -0.319 0.273 -0.353 Q 0.267 -0.41500000000000004 0.219 -0.42 Q 0.167 -0.42 0.124 -0.367 L 0.124 -0.366 Q 0.124 -0.365 0.123 -0.365 Q 0.108 -0.34500000000000003 0.096 -0.319 Q 0.091 -0.307 0.08700000000000001 -0.295 L 0.085 -0.289 Q 0.083 -0.278 0.07200000000000001 -0.278 Q 0.06 -0.278 0.06 -0.28800000000000003 Q 0.06 -0.313 0.092 -0.36 Q 0.146 -0.442 0.221 -0.442 Q 0.298 -0.442 0.329 -0.366 Q 0.361 -0.428 0.41400000000000003 -0.44 Q 0.424 -0.442 0.434 -0.442 Q 0.493 -0.442 0.517 -0.40900000000000003 Q 0.527 -0.395 0.527 -0.376 Q 0.527 -0.335 0.49 -0.321 Q 0.481 -0.318 0.47300000000000003 -0.318 Q 0.442 -0.318 0.436 -0.34500000000000003 Q 0.435 -0.34900000000000003 0.435 -0.353 Q 0.435 -0.383 0.464 -0.4 Q 0.47300000000000003 -0.405 0.483 -0.40700000000000003 Q 0.462 -0.42 0.433 -0.42 Q 0.365 -0.42 0.337 -0.314 Q 0.335 -0.308 0.334 -0.302 Z"/></g><g transform="translate(8.993052631578946,12.345536842105265) scale(0.7,0.7)"><path fill="rgb(0,100,0)" stroke="none" paint-order="stroke fill markers" d=" M 0.29 -0.352 L 0.29 -0.352 Q 0.39 -0.332 0.434 -0.254 Q 0.457 -0.215 0.457 -0.171 Q 0.457 -0.08600000000000001 0.387 -0.028 Q 0.326 0.022 0.244 0.022 Q 0.145 0.022 0.085 -0.037 Q 0.042 -0.079 0.042 -0.135 Q 0.042 -0.182 0.084 -0.191 Q 0.091 -0.193 0.098 -0.193 Q 0.136 -0.193 0.149 -0.161 Q 0.153 -0.148 0.154 -0.137 Q 0.154 -0.097 0.11800000000000001 -0.085 Q 0.10400000000000001 -0.08 0.088 -0.082 Q 0.125 -0.02 0.216 -0.008 Q 0.229 -0.006 0.241 -0.006 Q 0.305 -0.006 0.335 -0.069 Q 0.354 -0.109 0.354 -0.171 Q 0.354 -0.304 0.274 -0.331 Q 0.256 -0.337 0.23500000000000001 -0.337 L 0.191 -0.337 Q 0.169 -0.337 0.167 -0.34800000000000003 Q 0.167 -0.358 0.182 -0.36 Q 0.197 -0.36 0.221 -0.363 Q 0.272 -0.365 0.301 -0.402 L 0.301 -0.403 L 0.302 -0.404 L 0.303 -0.405 L 0.304 -0.405 L 0.31 -0.41500000000000004 Q 0.338 -0.462 0.338 -0.529 Q 0.338 -0.622 0.266 -0.638 Q 0.254 -0.641 0.242 -0.641 Q 0.17200000000000001 -0.641 0.128 -0.601 Q 0.117 -0.591 0.109 -0.579 Q 0.171 -0.579 0.171 -0.529 Q 0.171 -0.493 0.14 -0.481 Q 0.131 -0.47800000000000004 0.12 -0.47800000000000004 Q 0.081 -0.47800000000000004 0.07100000000000001 -0.513 L 0.07100000000000001 -0.513 L 0.07100000000000001 -0.514 Q 0.069 -0.522 0.069 -0.53 Q 0.069 -0.597 0.135 -0.637 Q 0.183 -0.666 0.246 -0.666 Q 0.337 -0.666 0.393 -0.612 L 0.395 -0.61 Q 0.43 -0.5740000000000001 0.43 -0.528 Q 0.43 -0.445 0.359 -0.389 Q 0.328 -0.365 0.29 -0.352 Z"/></g></g><path fill="none" stroke="rgb(204,0,0)" paint-order="fill stroke markers" d=" M 5.053935090203668 270 L 198.01622630082304 270 L 199 250.69862794936475 L 199 250.69862794936478 L 200 233.57648486514398 L 200 233.576484865144 L 201 218.6691674884391 L 201 218.66916748843911 L 202 205.72181312403373 L 202 205.72181312403376 L 203 194.50512289698827 L 203 194.50512289698827 L 204 184.81318809995727 L 204 184.8131880999573 L 205 176.461466993834 L 205 176.46146699383402 L 206 169.2849041117067 L 206 169.28490411170674 L 207 163.13618440126845 L 207 163.13618440126848 L 208 157.88411482076253 L 208 157.88411482076253 L 209 153.41212627828165 L 209 153.41212627828165 L 210 149.61688907376444 L 210 149.61688907376444 L 211 146.40703526734904 L 211 146.40703526734904 L 212 143.7019816568528 L 212 143.7019816568528 L 213 141.4308473010457 L 213 141.4308473010457 L 214 139.5314597740763 L 214 139.5314597740763 L 215 137.94944457989064 L 215 137.94944457989064 L 216 136.63739239375758 L 216 136.63739239375758 L 217 135.55409903107844 L 217 135.55409903107844 L 218 134.66387327151466 L 218 134.6638732715147 L 219 133.93590788911342 L 219 133.93590788911342 L 220 133.34370945654956 L 220 133.34370945654956 L 221 132.86458270383153 L 221 132.86458270383153 L 222 132.4791654188391 L 222 132.4791654188391 L 223 132.17101007887257 L 223 132.17101007887257 L 224 131.92620859899628 L 224 131.92620859899628 L 225 131.73305677435295 L 225 131.73305677435295 L 226 131.58175517981118 L 226 131.58175517981118 L 227 131.464143471285 L 227 131.464143471285 L 228 131.3734652088319 L 228 131.3734652088319 L 229 131.30416049219514 L 229 131.30416049219514 L 230 131.25168386480638 L 230 131.25168386480638 L 231 131.21234510240643 L 231 131.21234510240643 L 232 131.1831706573739 L 232 131.1831706573739 L 233 131.16178367957653 L 233 131.16178367957653 L 234 131.14630067907467 L 234 131.14630067907467 L 235 131.13524303531273 L 235 131.13524303531273 L 236 131.12746169153235 L 236 131.12746169153235 L 237 131.1220735020299 L 237 131.1220735020299 L 238 131.11840782356109 L 238 131.11840782356109 L 239 131.11596206066642 L 239 131.11596206066642 L 240 131.11436498795464 L 240 131.11436498795464 L 241 131.11334678043437 L 241 131.11334678043437 L 242 131.11271478582935 L 242 131.11271478582935 L 243 131.1123341704495 L 243 131.1123341704495 L 244 131.11211266261682 L 244 131.11211266261682 L 245 131.11198870486433 L 245 131.11198870486433 L 246 131.1119224081358 L 246 131.1119224081358 L 247 131.11188877801615 L 247 131.11188877801615 L 248 131.11187275461336 L 248 131.11187275461336 L 249 131.11186567409771 L 249 131.11186567409771 L 250 131.1118628210786 L 250 131.1118628210786 L 251 131.11186179696463 L 251 131.11186179696463 L 252 131.11186148021127 L 252 131.11186148021127 L 253 131.1118613999081 L 253 131.1118613999081 L 254 131.1118613844971 L 254 131.1118613844971 L 255 131.11186138254612 L 255 131.11186138254612 L 256 131.11186138242144 L 256 131.11186138242144 L 257 131.11186138241928 L 257 131.11186138241928 L 258 131.11186138241928 L 258 131.11186138241928 L 259 131.11186138241916 L 259 131.11186138241916 L 260 131.1118613823976 L 260 131.1118613823976 L 261 131.11186138182987 L 261 131.11186138182987 L 262 131.1118613758511 L 262 131.1118613758511 L 263 131.11186133852257 L 263 131.11186133852257 L 264 131.11186117190843 L 264 131.11186117190843 L 265 131.11186058271383 L 265 131.11186058271383 L 266 131.1118588260698 L 266 131.1118588260698 L 267 131.1118542286761 L 267 131.1118542286761 L 268 131.11184337093007 L 268 131.11184337093007 L 269 131.11181976987797 L 269 131.11181976987797 L 270 131.11177186182465 L 270 131.11177186182465 L 271 131.1116800352279 L 271 131.1116800352279 L 272 131.11151241108635 L 272 131.11151241108635 L 273 131.11121900940182 L 273 131.11121900940182 L 274 131.1107238764628 L 274 131.1107238764628 L 275 131.10991467865017 L 275 131.10991467865017 L 276 131.1086291942135 L 276 131.1086291942135 L 277 131.1066380550048 L 277 131.1066380550048 L 278 131.10362300548488 L 278 131.10362300548488 L 279 131.09914985643897 L 279 131.09914985643897 L 280 131.09263521574957 L 280 131.09263521574957 L 281 131.0833059782771 L 281 131.0833059782771 L 282 131.0701504513941 L 282 131.0701504513941 L 283 131.0518598820029 L 283 131.0518598820029 L 284 131.0267590349446 L 284 131.0267590349446 L 285 130.99272435157428 L 285 130.99272435157428 L 286 130.94708809093635 L 286 130.94708809093635 L 287 130.88652672442535 L 287 130.88652672442535 L 288 130.80693171805765 L 288 130.80693171805765 L 289 130.7032606945135 L 289 130.7032606945135 L 290 130.56936681993216 L 290 130.56936681993216 L 291 130.3978041080586 L 291 130.3978041080586 L 292 130.17960617674635 L 292 130.17960617674635 L 293 129.90403582901897 L 293 129.90403582901897 L 294 129.5583026628817 L 294 129.5583026628817 L 295 129.12724574085473 L 295 129.12724574085473 L 296 128.59297817177136 L 296 128.59297817177136 L 297 127.93449027374602 L 297 127.93449027374604 L 298 127.12720779837258 L 298 127.12720779837258 L 299 126.14250150215673 L 299 126.14250150215673 L 300 124.94714415192382 L 300 124.94714415192382 L 301 123.50271084647028 L 301 123.50271084647028 L 302 121.76491832704613 L 302 121.76491832704613 L 303 119.68289873436561 L 303 119.68289873436561 L 304 117.19840304974444 L 304 117.19840304974444 L 305 114.24492923265467 L 305 114.24492923265468 L 306 110.74676983647183 L 306 110.74676983647184 L 307 106.61797364846356 L 307 106.61797364846358 L 308 101.76121565913591 L 308 101.76121565913593 L 309 96.06656941991011 L 309 96.06656941991012 L 310 89.41017559675117 L 310 89.4101755967512 L 311 81.65280027081077 L 311 81.65280027081079 L 312 72.63827627537559 L 312 72.6382762753756 L 313 62.19182059143738 L 313 62.19182059143739 L 314 50.11822055201259 L 314 50.118220552012616 L 315 36.1998813279438 L 315 36.199881327943814 L 316 20.194726885313713 L 316 20.194726885313756 L 317 1.8339463167867223 L 317 1.833946316786779 L 317.56313592981735 -10" stroke-opacity="0.6980392156862745" stroke-linecap="round" stroke-linejoin="round" stroke-miterlimit="10" stroke-width="2.5"/><g transform="scale(19,19)"><g transform="translate(10.68421052631579,12.863692)"><path fill="rgb(204,0,0)" stroke="none" paint-order="stroke fill markers" d=" M 0.334 -0.302 L 0.3 -0.165 Q 0.28300000000000003 -0.097 0.28300000000000003 -0.077 Q 0.28300000000000003 -0.025 0.32 -0.014 Q 0.328 -0.011 0.338 -0.011 Q 0.388 -0.011 0.429 -0.061 Q 0.456 -0.093 0.47100000000000003 -0.14200000000000002 Q 0.47400000000000003 -0.153 0.484 -0.153 Q 0.496 -0.153 0.496 -0.14300000000000002 Q 0.496 -0.11800000000000001 0.465 -0.07100000000000001 Q 0.41100000000000003 0.011 0.336 0.011 Q 0.268 0.011 0.23700000000000002 -0.046 Q 0.231 -0.055 0.228 -0.065 Q 0.20400000000000001 -0.017 0.162 0.002 Q 0.14300000000000002 0.011 0.123 0.011 Q 0.063 0.011 0.039 -0.024 Q 0.029 -0.037 0.029 -0.055 Q 0.029 -0.092 0.061 -0.107 Q 0.07200000000000001 -0.113 0.084 -0.113 Q 0.114 -0.113 0.12 -0.088 Q 0.121 -0.083 0.121 -0.078 Q 0.121 -0.044 0.08700000000000001 -0.028 Q 0.081 -0.025 0.074 -0.024 Q 0.095 -0.011 0.124 -0.011 Q 0.177 -0.011 0.20800000000000002 -0.082 Q 0.214 -0.097 0.219 -0.115 Q 0.273 -0.319 0.273 -0.353 Q 0.267 -0.41500000000000004 0.219 -0.42 Q 0.167 -0.42 0.124 -0.367 L 0.124 -0.366 Q 0.124 -0.365 0.123 -0.365 Q 0.108 -0.34500000000000003 0.096 -0.319 Q 0.091 -0.307 0.08700000000000001 -0.295 L 0.085 -0.289 Q 0.083 -0.278 0.07200000000000001 -0.278 Q 0.06 -0.278 0.06 -0.28800000000000003 Q 0.06 -0.313 0.092 -0.36 Q 0.146 -0.442 0.221 -0.442 Q 0.298 -0.442 0.329 -0.366 Q 0.361 -0.428 0.41400000000000003 -0.44 Q 0.424 -0.442 0.434 -0.442 Q 0.493 -0.442 0.517 -0.40900000000000003 Q 0.527 -0.395 0.527 -0.376 Q 0.527 -0.335 0.49 -0.321 Q 0.481 -0.318 0.47300000000000003 -0.318 Q 0.442 -0.318 0.436 -0.34500000000000003 Q 0.435 -0.34900000000000003 0.435 -0.353 Q 0.435 -0.383 0.464 -0.4 Q 0.47300000000000003 -0.405 0.483 -0.40700000000000003 Q 0.462 -0.42 0.433 -0.42 Q 0.365 -0.42 0.337 -0.314 Q 0.335 -0.308 0.334 -0.302 Z"/></g><g transform="translate(11.256210526315789,12.450800000000001) scale(0.7,0.7)"><path fill="rgb(204,0,0)" stroke="none" paint-order="stroke fill markers" d=" M 0.367 -0.318 Q 0.327 -0.218 0.242 -0.218 Q 0.149 -0.218 0.09 -0.294 L 0.09 -0.295 Q 0.042 -0.357 0.042 -0.441 Q 0.042 -0.525 0.091 -0.586 L 0.106 -0.603 Q 0.166 -0.666 0.253 -0.666 Q 0.353 -0.666 0.40800000000000003 -0.5690000000000001 Q 0.457 -0.482 0.457 -0.329 Q 0.457 -0.158 0.365 -0.055 Q 0.296 0.022 0.20600000000000002 0.022 Q 0.108 0.022 0.077 -0.039 Q 0.067 -0.06 0.067 -0.08600000000000001 Q 0.067 -0.126 0.10400000000000001 -0.133 Q 0.109 -0.134 0.113 -0.134 Q 0.145 -0.134 0.156 -0.106 Q 0.159 -0.098 0.159 -0.088 Q 0.159 -0.048 0.11900000000000001 -0.043000000000000003 Q 0.113 -0.042 0.107 -0.042 Q 0.136 -0.006 0.20500000000000002 -0.006 Q 0.276 -0.006 0.321 -0.077 Q 0.367 -0.15 0.367 -0.28600000000000003 L 0.367 -0.318 M 0.243 -0.241 Q 0.321 -0.241 0.352 -0.333 Q 0.365 -0.374 0.365 -0.421 Q 0.365 -0.519 0.34900000000000003 -0.562 Q 0.323 -0.632 0.266 -0.64 Q 0.259 -0.641 0.253 -0.641 Q 0.187 -0.641 0.153 -0.578 Q 0.132 -0.541 0.132 -0.452 L 0.132 -0.44 Q 0.132 -0.341 0.15 -0.304 Q 0.181 -0.241 0.243 -0.241 Z"/></g></g><path fill="none" stroke="rgb(0,0,255)" paint-order="fill stroke markers" d=" M 1 77.47278060068831 L 1 77.54627010155414 L 1 77.47278060068831 L 2 77.41785682265171 L 2 77.41785682265174 L 3.0000000000000284 77.38151777783057 L 3.0000000000000284 77.38151777783058 L 4.000000000000028 77.36377604400627 L 4.000000000000028 77.36463776200203 L 5 77.36186138241922 L 5 77.36463776200203 L 6.000000000000028 77.38410263355743 L 6.000000000000028 77.38410263355742 L 7 77.42216392143149 L 7 77.42216392143146 L 8.000000000000028 77.47880845173475 L 8.000000000000028 77.47880845173475 L 9 77.55401661848902 L 9 77.554016618489 L 10.000000000000028 77.64776239041339 L 10.000000000000028 77.64776239041338 L 11 77.76001331993433 L 11 77.76001331993432 L 12 77.89073055441652 L 12 77.8907305544165 L 13.000000000000028 78.03986884961064 L 13.000000000000028 78.03986884961063 L 14 78.20737658531344 L 14 78.20737658531343 L 15.000000000000028 78.39319578323469 L 15.000000000000028 78.39319578323469 L 16 78.59726212706482 L 16 78.59726212706481 L 17.00000000000003 78.81950498473627 L 17.00000000000003 78.81950498473626 L 18 79.05984743287084 L 18 79.05984743287081 L 19.00000000000003 79.31820628340469 L 19.00000000000003 79.31820628340469 L 20 79.59449211238166 L 20 79.59449211238163 L 21 79.8886092909049 L 21 79.88860929090488 L 22.00000000000003 80.20045601823628 L 22.00000000000003 80.20045601823628 L 23 80.52992435703197 L 23 80.52992435703197 L 24.00000000000003 80.8769002707021 L 24.00000000000003 80.87690027070208 L 25 81.24126366288127 L 25 81.24126366288125 L 26.00000000000003 81.6228884189969 L 26.00000000000003 81.62288841899688 L 27 82.02164244992021 L 27 82.0216424499202 L 28.00000000000003 82.4373877376855 L 28.00000000000003 82.43738773768547 L 29.00000000000003 82.86998038326112 L 29.00000000000003 82.86998038326111 L 30 83.31927065635642 L 30 83.31927065635641 L 31.00000000000003 83.78510304724684 L 31.00000000000003 83.78510304724682 L 32 84.26731632059928 L 32 84.26731632059926 L 33.00000000000003 84.76574357127956 L 33.00000000000003 84.76574357127956 L 34 85.28021228212197 L 34 85.28021228212194 L 35.00000000000003 85.81054438364153 L 35.00000000000003 85.81054438364151 L 36 86.35655631566789 L 36 86.35655631566787 L 37 86.91805909087984 L 37 86.91805909087984 L 38.00000000000003 87.49485836021806 L 38.00000000000003 87.49485836021805 L 39 88.08675448015381 L 39 88.08675448015381 L 40.00000000000003 88.69354258179035 L 40.00000000000003 88.69354258179034 L 41 89.31501264177248 L 41 89.31501264177248 L 42.00000000000003 89.95094955498081 L 42.00000000000003 89.9509495549808 L 43 90.60113320898424 L 43 90.60113320898424 L 44.00000000000003 91.26533856022633 L 44.00000000000003 91.26533856022633 L 45 91.9433357119177 L 45 91.94333571191768 L 46 92.63488999360894 L 46 92.63488999360891 L 47 93.33976204241515 L 47 93.33976204241515 L 48 94.0577078858652 L 48 94.05770788586518 L 49 94.78847902634612 L 49 94.78847902634612 L 50.00000000000003 95.53182252711396 L 50.00000000000003 95.53182252711395 L 51.00000000000003 96.28748109984079 L 51.00000000000003 96.28748109984078 L 52.00000000000003 97.05519319366834 L 52.00000000000003 97.05519319366834 L 53.00000000000003 97.83469308573675 L 53.00000000000003 97.83469308573673 L 54 98.62571097315728 L 54 98.62571097315728 L 55 99.42797306639756 L 55 99.42797306639754 L 56 100.24120168404606 L 56 100.24120168404605 L 57 101.06511534892434 L 57 101.06511534892432 L 58 101.89942888551272 L 58 101.8994288855127 L 59.00000000000003 102.74385351865615 L 59.00000000000003 102.74385351865614 L 60.00000000000003 103.5980969735158 L 60.00000000000003 103.59809697351578 L 61.00000000000003 104.46186357673218 L 61.00000000000003 104.46186357673218 L 62 105.33485435876462 L 62 105.33485435876462 L 63 106.21676715737144 L 63 106.21676715737142 L 64 107.10729672219527 L 64 107.10729672219526 L 65 108.0061348204172 L 65 108.0061348204172 L 66 108.91297034344332 L 66 108.9129703434433 L 67.00000000000003 109.82748941458662 L 67.00000000000003 109.82748941458662 L 68.00000000000003 110.7493754977068 L 68.00000000000003 110.7493754977068 L 69.00000000000003 111.67830950677094 L 69.00000000000003 111.67830950677093 L 70 112.61396991629633 L 70 112.61396991629633 L 71 113.55603287263793 L 71 113.55603287263793 L 72 114.50417230608168 L 72 114.50417230608167 L 73 115.45806004370466 L 73 115.45806004370466 L 74 116.41736592296326 L 74 116.41736592296324 L 75 117.38175790597003 L 75 117.38175790597002 L 76.00000000000003 118.35090219441993 L 76.00000000000003 118.35090219441992 L 77.00000000000003 119.3244633451252 L 77.00000000000003 119.32446334512518 L 78.00000000000003 120.30210438612036 L 78.00000000000003 120.30210438612036 L 79 121.28348693329573 L 79 121.28348693329573 L 80 122.26827130752001 L 80 122.26827130752001 L 81 123.25611665221122 L 81 123.25611665221122 L 82 124.24668105131491 L 82 124.24668105131491 L 83 125.23962164764909 L 83 125.23962164764909 L 84 126.23459476157514 L 84 126.23459476157514 L 85.00000000000003 127.23125600995334 L 85.00000000000003 127.23125600995334 L 86.00000000000003 128.22926042534155 L 86.00000000000003 128.22926042534155 L 87 129.22826257539668 L 87 129.22826257539668 L 88 130.2279166824366 L 88 130.2279166824366 L 89 131.22787674312178 L 89 131.22787674312178 L 90 132.2277966482152 L 90 132.2277966482152 L 91 133.2273303023786 L 91 133.22733030237856 L 92 134.22613174396395 L 92 134.22613174396395 L 93.00000000000003 135.223855264759 L 93.00000000000003 135.223855264759 L 94.00000000000003 136.22015552964464 L 94.00000000000003 136.22015552964464 L 95 137.21468769612358 L 95 137.21468769612358 L 96 138.20710753367814 L 96 138.20710753367814 L 97 139.1970715429163 L 97 139.1970715429163 L 98 140.18423707446485 L 98 140.18423707446482 L 99 141.16826244756834 L 99 141.16826244756834 L 100 142.1488070683526 L 100 142.1488070683526 L 101 143.12553154771197 L 101 143.12553154771197 L 102.00000000000003 144.09809781877993 L 102.00000000000003 144.09809781877993 L 103.00000000000003 145.06616925394167 L 103.00000000000003 145.06616925394167 L 104 146.0294107813488 L 104 146.0294107813488 L 105 146.98748900089544 L 105 146.98748900089544 L 106 147.94007229961554 L 106 147.94007229961554 L 107 148.88683096646182 L 107 148.8868309664618 L 108 149.82743730642653 L 108 149.8274373064265 L 109 150.76156575396413 L 109 150.76156575396413 L 110.00000000000003 151.68889298567697 L 110.00000000000003 151.68889298567697 L 111.00000000000003 152.60909803222506 L 111.00000000000003 152.60909803222506 L 112 153.5218623894209 L 112 153.52186238942087 L 113 154.42687012847122 L 113 154.42687012847122 L 114 155.32380800532724 L 114 155.32380800532724 L 115 156.21236556910543 L 115 156.21236556910543 L 116 157.0922352695419 L 116 157.0922352695419 L 117 157.96311256344273 L 117 157.96311256344273 L 118 158.8246960200932 L 118 158.8246960200932 L 119.00000000000003 159.67668742559 L 119.00000000000003 159.67668742558996 L 120 160.51879188605983 L 120 160.51879188605983 L 121 161.3507179297292 L 121 161.3507179297292 L 122 162.17217760780935 L 122 162.17217760780935 L 123 162.98288659416207 L 123 162.98288659416207 L 124 163.78256428371137 L 124 163.78256428371137 L 125 164.57093388956753 L 125 164.5709338895675 L 126 165.34772253882937 L 126 165.34772253882934 L 127.00000000000003 166.1126613670319 L 127.00000000000003 166.11266136703188 L 128.00000000000003 166.86548561120642 L 128.00000000000003 166.8654856112064 L 129 167.6059347015211 L 129 167.60593470152108 L 130 168.3337523514703 L 130 168.3337523514703 L 131 169.04868664658122 L 131 169.0486866465812 L 132 169.75049013160717 L 132 169.75049013160714 L 133 170.4389198961777 L 133 170.4389198961777 L 134 171.11373765887546 L 134 171.11373765887544 L 135 171.77470984971077 L 135 171.77470984971075 L 136 172.42160769096571 L 136 172.42160769096571 L 137 173.05420727637932 L 137 173.05420727637932 L 138 173.6722896486467 L 138 173.6722896486467 L 139 174.27564087520523 L 139 174.27564087520523 L 140 174.86405212228152 L 140 174.8640521222815 L 141 175.43731972717356 L 141 175.43731972717353 L 142 175.99524526874322 L 142 175.9952452687432 L 143 176.53763563609422 L 143 176.5376356360942 L 144 177.06430309541238 L 144 177.06430309541238 L 145 177.57506535494454 L 145 177.57506535494454 L 146 178.06974562809398 L 146 178.06974562809398 L 147 178.54817269461037 L 147 178.54817269461034 L 148 179.01018095985296 L 148 179.01018095985296 L 149 179.45561051210677 L 149 179.45561051210677 L 150 179.88430717793173 L 150 179.88430717793173 L 151 180.29612257552566 L 151 180.29612257552563 L 152 180.6909141660825 L 152 180.69091416608248 L 153 181.06854530312853 L 153 181.06854530312853 L 154 181.42888527981864 L 154 181.42888527981864 L 155 181.77180937417714 L 155 181.77180937417714 L 156 182.09719889226676 L 156 182.09719889226676 L 157 182.40494120927147 L 157 182.40494120927147 L 158 182.69492980847855 L 158 182.69492980847855 L 159 182.96706431814638 L 159 182.96706431814636 L 160 183.22125054624547 L 160 183.22125054624544 L 161 183.45740051306043 L 161 183.45740051306043 L 162 183.675432481642 L 162 183.67543248164196 L 163 183.87527098609772 L 163 183.87527098609772 L 164 184.05684685771277 L 164 184.05684685771277 L 165 184.22009724889068 L 165 184.22009724889065 L 166 184.36496565490629 L 166 184.36496565490629 L 167 184.49140193346352 L 167 184.4914019334635 L 168 184.59936232205058 L 168 184.59936232205058 L 169 184.68880945308734 L 169 184.68880945308732 L 170 184.759712366859 L 170 184.75971236685896 L 171 184.81204652223195 L 171 184.81204652223195 L 172 184.84579380514822 L 172 184.84579380514822 L 173 184.86094253489492 L 173 184.85748746814733 L 174 184.86186138241933 L 174 184.85748746814733 L 175 184.83542980078374 L 175 184.83542980078374 L 176 184.79477716747147 L 176 184.79477716747147 L 177 184.73554363902443 L 177 184.73554363902446 L 178 184.6577497175328 L 178 184.6577497175328 L 179 184.5614223292668 L 179 184.5614223292668 L 180 184.44659481535692 L 180 184.44659481535692 L 181 184.31330692025375 L 181 184.31330692025375 L 182 184.16160477797155 L 182 184.16160477797155 L 183 183.99154089612014 L 183 183.99154089612017 L 184 183.80317413773093 L 184 183.80317413773093 L 185 183.59656970088287 L 185 183.59656970088287 L 186 183.37179909613607 L 186 183.3717990961361 L 187 183.1289401217803 L 187 183.12894012178032 L 188 182.8680768369071 L 188 182.8680768369071 L 189 182.58929953231515 L 189 182.58929953231518 L 190 182.29270469925848 L 190 182.2927046992585 L 191 181.97839499604856 L 191 181.9783949960486 L 192 181.64647921252197 L 192 181.646479212522 L 193 181.29707223238572 L 193 181.29707223238572 L 194 180.93029499345326 L 194 180.93029499345326 L 195 180.5462744457853 L 195 180.5462744457853 L 196 180.1451435077492 L 196 180.1451435077492 L 197 179.72704102001313 L 197 179.72704102001316 L 198 179.29211169749 L 198 179.29211169749 L 199 178.84050607924817 L 199 178.8405060792482 L 200 178.37238047640665 L 200 178.37238047640668 L 201 177.887896918032 L 201 177.887896918032 L 202 177.38722309505644 L 202 177.38722309505644 L 203 176.87053230223614 L 203 176.87053230223614 L 204 176.33800337816993 L 204 176.33800337816993 L 205 175.78982064339903 L 205 175.78982064339903 L 206 175.2261738366096 L 206 175.2261738366096 L 207 174.64725804895977 L 207 174.64725804895977 L 208 174.05327365655396 L 208 174.05327365655398 L 209 173.4444262510883 L 209 173.44442625108832 L 210 172.82092656869042 L 210 172.82092656869042 L 211 172.18299041697892 L 211 172.18299041697895 L 212 171.5308386003674 L 212 171.5308386003674 L 213 170.8646968436388 L 213 170.86469684363882 L 214 170.18479571381704 L 214 170.18479571381704 L 215 169.49137054036237 L 215 169.49137054036237 L 216 168.78466133371836 L 216 168.78466133371836 L 217 168.06491270223887 L 217 168.0649127022389 L 218 167.3323737675234 L 218 167.3323737675234 L 219 166.5872980781903 L 219 166.58729807819032 L 220 165.82994352211784 L 220 165.82994352211784 L 221 165.0605722371832 L 221 165.06057223718324 L 222 164.27945052053067 L 222 164.27945052053067 L 223 163.48684873639968 L 223 163.4868487363997 L 224 162.68304122254602 L 224 162.68304122254602 L 225 161.8683061952868 L 225 161.86830619528683 L 226 161.0429256532036 L 226 161.0429256532036 L 227 160.20718527953602 L 227 160.20718527953605 L 228 159.3613743433005 L 228 159.3613743433005 L 229 158.50578559916727 L 229 158.5057855991673 L 230 157.6407151861314 L 230 157.64071518613142 L 231 156.7664625250123 L 231 156.7664625250123 L 232 155.88333021481697 L 232 155.88333021481697 L 233 154.991623928004 L 233 154.991623928004 L 234 154.0916523046829 L 234 154.09165230468292 L 235 153.18372684578674 L 235 153.18372684578674 L 236 152.2681618052544 L 236 152.2681618052544 L 237 151.34527408126033 L 237 151.34527408126036 L 238 150.41538310652857 L 238 150.4153831065286 L 239 149.4788107377696 L 239 149.4788107377696 L 240 148.53588114427862 L 240 148.53588114427862 L 241 147.58692069573272 L 241 147.58692069573272 L 242 146.63225784922722 L 242 146.63225784922722 L 243 145.67222303558876 L 243 145.67222303558876 L 244 144.70714854500568 L 244 144.70714854500568 L 245 143.7373684120147 L 245 143.7373684120147 L 246 142.763218299884 L 246 142.763218299884 L 247 141.7850353844323 L 247 141.7850353844323 L 248 140.8031582373244 L 248 140.8031582373244 L 249 139.81792670888413 L 249 139.81792670888413 L 250 138.82968181046374 L 250 138.82968181046374 L 251 137.8387655964126 L 251 137.8387655964126 L 252 136.8455210456839 L 252 136.8455210456839 L 253 135.8502919431218 L 253 135.8502919431218 L 254 134.85342276046975 L 254 134.85342276046975 L 255 133.85525853714057 L 255 133.85525853714057 L 256 132.85614476079073 L 256 132.85614476079073 L 257 131.85642724773865 L 257 131.85642724773865 L 258 130.8564520232702 L 258 130.8564520232702 L 259 129.85656520187092 L 259 129.85656520187092 L 260 128.8571128674281 L 260 128.8571128674281 L 261 127.85844095344312 L 261 127.85844095344312 L 262 126.86089512329568 L 262 126.86089512329568 L 263 125.86482065060208 L 263 125.86482065060208 L 264 124.87056229970771 L 264 124.87056229970771 L 265 123.87846420635651 L 265 123.87846420635651 L 266 122.88886975857723 L 266 122.88886975857724 L 267 121.90212147782941 L 267 121.90212147782941 L 268 120.9185609004483 L 268 120.9185609004483 L 269 119.93852845943168 L 269 119.93852845943168 L 270 118.96236336660795 L 270 118.96236336660795 L 271 117.99040349522699 L 271 117.99040349522699 L 272 117.02298526301473 L 272 117.02298526301473 L 273 116.06044351573088 L 273 116.0604435157309 L 274 115.10311141127141 L 274 115.10311141127141 L 275 114.15132030435473 L 275 114.15132030435474 L 276 113.20539963183217 L 276 113.20539963183218 L 277 112.2656767986623 L 277 112.2656767986623 L 278 111.33247706458869 L 278 111.33247706458869 L 279 110.40612343155983 L 279 110.40612343155985 L 280 109.48693653193071 L 280 109.48693653193071 L 281 108.5752345174847 L 281 108.57523451748472 L 282 107.67133294931371 L 282 107.67133294931371 L 283 106.77554468859536 L 283 106.77554468859537 L 284 105.88817978830454 L 284 105.88817978830454 L 285 105.00954538589667 L 285 105.00954538589667 L 286 104.1399455970006 L 286 104.13994559700062 L 287 103.27968141015715 L 287 103.27968141015717 L 288 102.42905058263996 L 288 102.42905058263997 L 289 101.58834753739475 L 289 101.58834753739477 L 290 100.75786326113302 L 290 100.75786326113304 L 291 99.9378852036145 L 291 99.93788520361451 L 292 99.12869717815448 L 292 99.12869717815448 L 293 98.33057926338918 L 293 98.33057926338918 L 294 97.54380770633436 L 294 97.54380770633438 L 295 96.7686548267696 L 295 96.76865482676962 L 296 96.00538892298235 L 296 96.00538892298235 L 297 95.25427417890359 L 297 95.25427417890361 L 298 94.51557057266767 L 298 94.51557057266768 L 299 93.789533786628 L 299 93.78953378662801 L 300 93.07641511885929 L 300 93.0764151188593 L 301 92.37646139617772 L 301 92.37646139617773 L 302 91.68991488870837 L 302 91.68991488870839 L 303 91.01701322602986 L 303 91.01701322602987 L 304 90.3579893149255 L 304 90.35798931492552 L 305 89.7130712587686 L 305 89.71307125876862 L 306 89.08248227857092 L 306 89.08248227857092 L 307 88.46644063572043 L 307 88.46644063572043 L 308 87.86515955643634 L 308 87.86515955643635 L 309 87.27884715796625 L 309 87.27884715796628 L 310 86.7077063765523 L 310 86.70770637655231 L 311 86.15193489718999 L 311 86.15193489718999 L 312 85.61172508520494 L 312 85.61172508520495 L 313 85.08726391967086 L 313 85.08726391967087 L 314 84.57873292869175 L 314 84.57873292869176 L 315 84.08630812657086 L 315 84.08630812657087 L 316 83.61015995288794 L 316 83.61015995288795 L 317 83.15045321350641 L 317 83.15045321350642 L 318 82.70734702353002 L 318 82.70734702353005 L 319 82.28099475222962 L 319 82.28099475222965 L 320 81.87154396995842 L 320 81.87154396995845 L 321 81.47913639707451 L 321 81.47913639707451 L 322 81.10390785488815 L 322 81.10390785488815 L 323 80.74598821865094 L 323 80.74598821865095 L 324 80.40550137260298 L 324 80.405501372603 L 325 80.08256516709363 L 325 80.08256516709366 L 326 79.7772913777909 L 326 79.7772913777909 L 327 79.48978566699313 L 327 79.48978566699313 L 328 79.220147547057 L 328 79.22014754705702 L 329 78.96847034595399 L 329 78.96847034595399 L 330 78.73484117496727 L 330 78.73484117496727 L 331 78.51934089854069 L 331 78.5193408985407 L 332 78.32204410628954 L 332 78.32204410628955 L 333 78.14301908718349 L 333 78.1430190871835 L 334 77.98232780591015 L 334 77.98232780591016 L 335 77.84002588142766 L 335 77.84002588142769 L 336 77.71616256771372 L 336 77.71616256771375 L 337 77.61078073671763 L 337 77.61078073671764 L 338 77.52391686352128 L 338 77.5239168635213 L 339 77.45560101371436 L 339 77.45560101371437 L 340 77.40585683298792 L 340 77.40585683298792 L 341 77.37470153895006 L 341 77.37470153895008 L 342 77.36214591516654 L 342 77.36819430742825 L 343 77.36186138241922 L 343 77.36819430742825 L 344 77.3928446222472 L 344 77.3928446222472 L 345 77.43608832758093 L 345 77.43608832758092 L 346 77.49791045578579 L 346 77.49791045578579 L 347 77.57828960879755 L 347 77.57828960879752 L 348 77.67719796553769 L 348 77.67719796553769 L 349 77.79460129154305 L 349 77.79460129154305 L 350 77.93045895081505 L 350 77.93045895081504 L 351 78.0847239198848 L 351 78.0847239198848 L 352 78.257342804089 L 352 78.257342804089 L 353 78.44825585605109 L 353 78.44825585605108 L 354 78.6573969963611 L 354 78.65739699636109 L 355 78.8846938364474 L 355 78.88469383644738 L 356 79.13006770363191 L 356 79.13006770363191 L 357 79.39343366836066 L 357 79.39343366836064 L 358 79.67470057359976 L 358 79.67470057359975 L 359 79.97377106638703 L 359 79.97377106638702 L 360 80.29054163152803 L 360 80.29054163152801 L 361 80.62490262742513 L 361 80.62490262742512 L 362 80.97673832402694 L 362 80.97673832402694 L 363 81.3459269428852 L 363 81.3459269428852 L 364 81.73234069930507 L 364 81.73234069930506 L 365 82.13584584657436 L 365 82.13584584657434 L 366 82.55630272225636 L 366 82.55630272225633 L 367 82.99356579653025 L 367 82.99356579653022 L 368 83.44748372256228 L 368 83.44748372256227 L 369 83.91789938889048 L 369 83.91789938889048 L 370 84.40464997380448 L 370 84.40464997380445 L 371 84.90756700170186 L 371 84.90756700170184 L 372 85.42647640140152 L 372 85.4264764014015 L 373 85.96119856639365 L 373 85.96119856639362 L 374 86.51154841700571 L 374 86.51154841700568 L 375 87.0773354644628 L 375 87.07733546446279 L 376 87.65836387682018 L 376 87.65836387682018 L 377 88.25443254674522 L 377 88.25443254674522 L 378 88.86533516112536 L 378 88.86533516112533 L 379 89.4908602724777 L 379 89.49086027247768 L 380 90.13079137213597 L 380 90.13079137213597 L 381 90.78490696518917 L 381 90.78490696518915 L 382 91.45298064714594 L 382 91.45298064714592 L 383 92.13478118229854 L 383 92.13478118229852 L 384 92.83007258375874 L 384 92.83007258375872 L 385 93.53861419513836 L 385 93.53861419513836 L 386 94.26016077384608 L 386 94.26016077384605 L 387 94.99446257597137 L 387 94.99446257597137 L 388 95.74126544272681 L 388 95.7412654427268 L 389 96.5003108884182 L 389 96.5003108884182 L 390 97.27133618991243 L 390 97.27133618991243 L 391 98.05407447757206 L 391 98.05407447757204 L 392 98.848254827625 L 392 98.84825482762498 L 393 99.65360235593747 L 393 99.65360235593747 L 394 100.46983831315784 L 394 100.46983831315782 L 395 101.29668018119808 L 395 101.29668018119807 L 396 102.13384177101989 L 396 102.13384177101987 L 397 102.98103332169123 L 397 102.9810333216912 L 398 103.83796160067934 L 398 103.83796160067931 L 399 104.70433000534521 L 399 104.70433000534521 L 400 105.57983866560474 L 400 105.57983866560474 L 401 106.46418454772044 L 401 106.46418454772044 L 402 107.35706155918864 L 402 107.35706155918864 L 403 108.25816065468504 L 403 108.25816065468503 L 404 109.16716994303243 L 404 109.16716994303242 L 405 110.08377479515346 L 405 110.08377479515346 L 406 111.00765795297099 L 406 111.00765795297099 L 407 111.93849963921843 L 407 111.93849963921843 L 408 112.87597766812205 L 408 112.87597766812203 L 409 113.81976755691686 L 409 113.81976755691684 L 410 114.76954263815759 L 410 114.76954263815757 L 411 115.72497417278586 L 411 115.72497417278586 L 412 116.68573146391437 L 412 116.68573146391437 L 413 117.6514819712886 L 413 117.6514819712886 L 414 118.62189142638681 L 414 118.6218914263868 L 415 119.59662394811795 L 415 119.59662394811795 L 416 120.57534215907798 L 416 120.57534215907796 L 417 121.55770730232385 L 417 121.55770730232385 L 418 122.54337935862515 L 418 122.54337935862515 L 419 123.53201716415263 L 419 123.53201716415262 L 420 124.52327852856281 L 420 124.52327852856281 L 421 125.516820353438 L 421 125.516820353438 L 422 126.51229875104056 L 422 126.51229875104056 L 423 127.50936916334034 L 423 127.50936916334032 L 424 128.5076864812742 L 424 128.5076864812742 L 425 129.5069051641962 L 425 129.5069051641962 L 426 130.50667935947726 L 426 130.50667935947726 L 427 131.50666302221254 L 427 131.50666302221254 L 428 132.50651003499576 L 428 132.50651003499576 L 429 133.50587432771835 L 429 133.50587432771835 L 430 134.5044099973522 L 430 134.5044099973522 L 431 135.50177142767492 L 431 135.50177142767492 L 432 136.49761340889526 L 432 136.49761340889526 L 433 137.49159125713842 L 433 137.49159125713842 L 434 138.48336093374903 L 434 138.48336093374903 L 435 139.47257916437076 L 435 139.47257916437076 L 436 140.4589035577617 L 436 140.4589035577617 L 437 141.4419927243036 L 437 141.4419927243036 L 438 142.42150639416496 L 438 142.42150639416496 L 439 143.39710553507607 L 439 143.39710553507607 L 440 144.36845246967596 L 440 144.36845246967593 L 441 145.33521099239033 L 441 145.33521099239033 L 442 146.29704648580005 L 442 146.29704648580005 L 443 147.25362603646002 L 443 147.25362603646002 L 444 148.20461855012803 L 444 148.204618550128 L 445 149.14969486636426 L 445 149.14969486636423 L 446 150.08852787246124 L 446 150.08852787246124 L 447 151.02079261666518 L 447 151.02079261666518 L 448 151.94616642064915 L 448 151.94616642064915 L 449 152.86432899119953 L 449 152.8643289911995 L 450 153.7749625310769 L 450 153.7749625310769 L 451 154.67775184901302 L 451 154.67775184901302 L 452 155.57238446880575 L 452 155.57238446880575 L 453 156.45855073747418 L 453 156.45855073747418 L 454 157.33594393243692 L 454 157.3359439324369 L 455 158.20426036767557 L 455 158.20426036767557 L 456 159.06319949884772 L 456 159.0631994988477 L 457 159.912464027312 L 457 159.912464027312 L 458 160.7517600030303 L 458 160.75176000303028 L 459 161.58079692631037 L 459 161.58079692631037 L 460 162.39928784835467 L 460 162.39928784835467 L 461 163.20694947057987 L 461 163.20694947057984 L 462 164.003502242673 L 462 164.003502242673 L 463 164.78867045935036 L 463 164.78867045935033 L 464 165.56218235578538 L 464 165.56218235578535 L 465 166.32377020167274 L 465 166.32377020167274 L 466 167.07317039389608 L 466 167.07317039389605 L 467 167.81012354776686 L 467 167.81012354776686 L 468 168.5343745868037 L 468 168.5343745868037 L 469 169.24567283102004 L 469 169.24567283102004 L 470 169.94377208369028 L 470 169.94377208369028 L 471 170.62843071656425 L 471 170.62843071656422 L 472 171.29941175350015 L 472 171.29941175350012 L 473 171.95648295248765 L 473 171.95648295248765 L 474 172.599416886032 L 474 172.599416886032 L 475 173.2279910198722 L 475 173.22799101987218 L 476 173.84198779000488 L 476 173.84198779000488 L 477 174.44119467798862 L 477 174.4411946779886 L 478 175.02540428450106 L 478 175.02540428450106 L 479 175.59441440112505 L 479 175.59441440112505 L 480 176.1480280803372 L 480 176.1480280803372 L 481 176.68605370367632 L 481 176.6860537036763 L 482 177.20830504806673 L 482 177.2083050480667 L 483 177.71460135027445 L 483 177.71460135027445 L 484 178.2047673694737 L 484 178.20476736947367 L 485 178.6786334479014 L 485 178.67863344790138 L 486 179.13603556958006 L 486 179.13603556958003 L 487 179.57681541708718 L 487 179.57681541708718 L 488 180.00082042635273 L 488 180.00082042635273 L 489 180.40790383946504 L 489 180.40790383946504 L 490 180.79792475546708 L 490 180.79792475546705 L 491 181.1707481791255 L 491 181.1707481791255 L 492 181.52624506765574 L 492 181.52624506765574 L 493 181.86429237538658 L 493 181.86429237538658 L 494 182.18477309634906 L 494 182.18477309634903 L 495 182.48757630477508 L 495 182.48757630477508 L 496 182.77259719349124 L 496 182.77259719349124 L 497 183.03973711019512 L 497 183.03973711019512 L 498 183.288903591601 L 498 183.28890359160098 L 499 183.52001039544365 L 499 183.52001039544365 L 500 183.73297753032875 L 500 183.73297753032872 L 501 183.9277312834196 L 501 183.92773128341958 L 502 184.1042042459511 L 502 184.10420424595108 L 503 184.26233533656125 L 503 184.26233533656125 L 504 184.40206982243296 L 504 184.40206982243294 L 505 184.5233593382382 L 505 184.5233593382382 L 506 184.62616190287855 L 506 184.62616190287852 L 507 184.71044193401562 L 507 184.7104419340156 L 508 184.77617026038706 L 508 184.77617026038706 L 509 184.82332413190335 L 509 184.82332413190335 L 510 184.85188722752216 L 510 184.85188722752216 L 511 184.8618496608974 L 511 184.8532079838011 L 512 184.86186138241933 L 512 184.8532079838011 L 513 184.82596518731702 L 513 184.82596518731702 L 514 184.78013070080527 L 514 184.78013070080527 L 515 184.71572038863863 L 515 184.71572038863863 L 516 184.63275654471147 L 516 184.63275654471147 L 517 184.53126788472343 L 517 184.53126788472343 L 518 184.41128953624016 L 518 184.4112895362402 L 519 184.2728630265349 L 519 184.2728630265349 L 520 184.11603626821488 L 520 184.11603626821488 L 521 183.94086354263777 L 521 183.94086354263777 L 522 183.7474054811235 L 522 183.74740548112354 L 523 183.53572904396856 L 523 183.5357290439686 L 524 183.3059074972693 L 524 183.30590749726932 L 525 183.05802038756292 L 525 183.05802038756292 L 526 182.79215351429463 L 526 182.79215351429463 L 527 182.50839890012043 L 527 182.50839890012043 L 528 182.20685475905591 L 528 182.20685475905594 L 529 181.88762546248228 L 529 181.8876254624823 L 530 181.55082150302076 L 530 181.55082150302076 L 531 181.19655945628875 L 531 181.1965594562888 L 532 180.82496194055034 L 532 180.82496194055037 L 533 180.43615757427506" stroke-opacity="0.6980392156862745" stroke-linecap="round" stroke-linejoin="round" stroke-miterlimit="10" stroke-width="2.5"/><g transform="scale(19,19)"><g transform="translate(0.631578947368421,3.6447368421052633)"><path fill="rgb(0,0,255)" stroke="none" paint-order="stroke fill markers" d=" M 0.20800000000000002 -0.194 L 0.20800000000000002 -0.194 Q 0.122 -0.211 0.095 -0.227 Q 0.085 -0.232 0.076 -0.24 Q 0.033 -0.275 0.033 -0.325 Q 0.033 -0.395 0.095 -0.427 Q 0.134 -0.448 0.193 -0.448 Q 0.249 -0.448 0.28700000000000003 -0.42 Q 0.298 -0.429 0.304 -0.436 Q 0.317 -0.448 0.324 -0.448 Q 0.334 -0.439 0.335 -0.424 L 0.335 -0.323 Q 0.335 -0.302 0.329 -0.3 L 0.328 -0.3 L 0.327 -0.299 L 0.322 -0.299 Q 0.311 -0.299 0.31 -0.308 Q 0.303 -0.40900000000000003 0.227 -0.426 Q 0.211 -0.429 0.193 -0.429 Q 0.099 -0.429 0.083 -0.371 Q 0.081 -0.362 0.081 -0.353 Q 0.081 -0.302 0.158 -0.281 Q 0.17300000000000001 -0.277 0.20400000000000001 -0.271 Q 0.276 -0.257 0.307 -0.232 Q 0.313 -0.228 0.318 -0.223 Q 0.36 -0.181 0.36 -0.128 Q 0.36 -0.043000000000000003 0.29 -0.008 Q 0.252 0.011 0.199 0.011 Q 0.134 0.011 0.089 -0.032 L 0.069 -0.009000000000000001 Q 0.049 0.011 0.044 0.011 Q 0.034 0.002 0.033 -0.013000000000000001 L 0.033 -0.145 Q 0.033 -0.167 0.04 -0.169 L 0.04 -0.169 L 0.041 -0.17 L 0.046 -0.17 Q 0.056 -0.17 0.059000000000000004 -0.159 Q 0.059000000000000004 -0.157 0.06 -0.153 Q 0.08600000000000001 -0.037 0.159 -0.016 Q 0.177 -0.011 0.199 -0.011 Q 0.289 -0.011 0.308 -0.074 Q 0.312 -0.08700000000000001 0.312 -0.10200000000000001 Q 0.312 -0.17500000000000002 0.20800000000000002 -0.194 Z"/></g><g transform="translate(1.025578947368421,3.6447368421052633)"><path fill="rgb(0,0,255)" stroke="none" paint-order="stroke fill markers" d=" M 0.177 -0.442 L 0.177 -0.442 L 0.177 -0.075 Q 0.177 -0.044 0.189 -0.037 L 0.189 -0.037 Q 0.201 -0.031 0.247 -0.031 L 0.247 0 Q 0.145 -0.003 0.14300000000000002 -0.003 Q 0.129 -0.003 0.033 0 L 0.033 -0.031 Q 0.092 -0.031 0.10200000000000001 -0.04 L 0.10400000000000001 -0.042 Q 0.111 -0.05 0.111 -0.076 L 0.111 -0.34500000000000003 Q 0.111 -0.385 0.095 -0.393 L 0.094 -0.393 L 0.094 -0.393 L 0.093 -0.394 L 0.093 -0.394 Q 0.08 -0.4 0.037 -0.4 L 0.037 -0.431 L 0.177 -0.442 M 0.181 -0.616 Q 0.181 -0.579 0.148 -0.5670000000000001 Q 0.138 -0.5630000000000001 0.128 -0.5630000000000001 Q 0.093 -0.5630000000000001 0.079 -0.595 L 0.079 -0.596 Q 0.075 -0.606 0.075 -0.616 Q 0.075 -0.647 0.10300000000000001 -0.662 Q 0.114 -0.669 0.128 -0.669 Q 0.162 -0.669 0.176 -0.639 Q 0.181 -0.628 0.181 -0.616 Z"/></g><g transform="translate(1.303578947368421,3.6447368421052633)"><path fill="rgb(0,0,255)" stroke="none" paint-order="stroke fill markers" d=" M 0.11 -0.34400000000000003 Q 0.11 -0.383 0.095 -0.392 Q 0.083 -0.399 0.052000000000000005 -0.4 L 0.032 -0.4 L 0.032 -0.431 L 0.17300000000000001 -0.442 L 0.17300000000000001 -0.337 Q 0.22 -0.442 0.321 -0.442 Q 0.396 -0.442 0.426 -0.405 Q 0.453 -0.374 0.456 -0.32 Q 0.457 -0.301 0.457 -0.252 L 0.457 -0.061 Q 0.458 -0.037 0.486 -0.033 Q 0.498 -0.031 0.535 -0.031 L 0.535 0 Q 0.433 -0.003 0.423 -0.003 Q 0.41500000000000004 -0.003 0.31 0 L 0.31 -0.031 Q 0.369 -0.031 0.379 -0.04 L 0.381 -0.042 Q 0.388 -0.05 0.388 -0.076 L 0.388 -0.309 Q 0.388 -0.40800000000000003 0.331 -0.418 Q 0.323 -0.42 0.314 -0.42 Q 0.253 -0.42 0.212 -0.367 Q 0.179 -0.324 0.179 -0.26 L 0.179 -0.076 Q 0.179 -0.042 0.195 -0.036000000000000004 Q 0.20600000000000002 -0.031 0.257 -0.031 L 0.257 0 Q 0.155 -0.003 0.145 -0.003 Q 0.137 -0.003 0.032 0 L 0.032 -0.031 Q 0.091 -0.031 0.101 -0.04 L 0.10300000000000001 -0.042 Q 0.11 -0.05 0.11 -0.076 L 0.11 -0.34400000000000003 Z"/></g><g transform="translate(1.8595789473684212,3.6447368421052633)"><path fill="rgb(0,0,255)" stroke="none" paint-order="stroke fill markers" d=" M 0.331 0.24 L 0.331 0.24 Q 0.331 0.25 0.321 0.25 Q 0.309 0.25 0.268 0.209 Q 0.20600000000000002 0.147 0.165 0.062 Q 0.099 -0.074 0.099 -0.25 Q 0.099 -0.419 0.162 -0.555 Q 0.214 -0.666 0.294 -0.733 Q 0.315 -0.75 0.321 -0.75 Q 0.331 -0.75 0.331 -0.74 Q 0.331 -0.735 0.318 -0.723 Q 0.157 -0.559 0.157 -0.25 Q 0.157 0.058 0.314 0.218 Q 0.331 0.23500000000000001 0.331 0.24 Z"/></g><g transform="translate(2.2485789473684212,3.6447368421052633)"><path fill="rgb(0,0,255)" stroke="none" paint-order="stroke fill markers" d=" M 0.334 -0.302 L 0.3 -0.165 Q 0.28300000000000003 -0.097 0.28300000000000003 -0.077 Q 0.28300000000000003 -0.025 0.32 -0.014 Q 0.328 -0.011 0.338 -0.011 Q 0.388 -0.011 0.429 -0.061 Q 0.456 -0.093 0.47100000000000003 -0.14200000000000002 Q 0.47400000000000003 -0.153 0.484 -0.153 Q 0.496 -0.153 0.496 -0.14300000000000002 Q 0.496 -0.11800000000000001 0.465 -0.07100000000000001 Q 0.41100000000000003 0.011 0.336 0.011 Q 0.268 0.011 0.23700000000000002 -0.046 Q 0.231 -0.055 0.228 -0.065 Q 0.20400000000000001 -0.017 0.162 0.002 Q 0.14300000000000002 0.011 0.123 0.011 Q 0.063 0.011 0.039 -0.024 Q 0.029 -0.037 0.029 -0.055 Q 0.029 -0.092 0.061 -0.107 Q 0.07200000000000001 -0.113 0.084 -0.113 Q 0.114 -0.113 0.12 -0.088 Q 0.121 -0.083 0.121 -0.078 Q 0.121 -0.044 0.08700000000000001 -0.028 Q 0.081 -0.025 0.074 -0.024 Q 0.095 -0.011 0.124 -0.011 Q 0.177 -0.011 0.20800000000000002 -0.082 Q 0.214 -0.097 0.219 -0.115 Q 0.273 -0.319 0.273 -0.353 Q 0.267 -0.41500000000000004 0.219 -0.42 Q 0.167 -0.42 0.124 -0.367 L 0.124 -0.366 Q 0.124 -0.365 0.123 -0.365 Q 0.108 -0.34500000000000003 0.096 -0.319 Q 0.091 -0.307 0.08700000000000001 -0.295 L 0.085 -0.289 Q 0.083 -0.278 0.07200000000000001 -0.278 Q 0.06 -0.278 0.06 -0.28800000000000003 Q 0.06 -0.313 0.092 -0.36 Q 0.146 -0.442 0.221 -0.442 Q 0.298 -0.442 0.329 -0.366 Q 0.361 -0.428 0.41400000000000003 -0.44 Q 0.424 -0.442 0.434 -0.442 Q 0.493 -0.442 0.517 -0.40900000000000003 Q 0.527 -0.395 0.527 -0.376 Q 0.527 -0.335 0.49 -0.321 Q 0.481 -0.318 0.47300000000000003 -0.318 Q 0.442 -0.318 0.436 -0.34500000000000003 Q 0.435 -0.34900000000000003 0.435 -0.353 Q 0.435 -0.383 0.464 -0.4 Q 0.47300000000000003 -0.405 0.483 -0.40700000000000003 Q 0.462 -0.42 0.433 -0.42 Q 0.365 -0.42 0.337 -0.314 Q 0.335 -0.308 0.334 -0.302 Z"/></g><g transform="translate(2.8205789473684213,3.6447368421052633)"><path fill="rgb(0,0,255)" stroke="none" paint-order="stroke fill markers" d=" M 0.289 -0.25 L 0.289 -0.25 Q 0.289 -0.081 0.226 0.055 Q 0.17400000000000002 0.166 0.094 0.233 Q 0.073 0.25 0.067 0.25 Q 0.057 0.25 0.057 0.24 Q 0.057 0.23500000000000001 0.07 0.223 Q 0.231 0.059000000000000004 0.231 -0.25 Q 0.231 -0.555 0.081 -0.712 L 0.076 -0.717 Q 0.057 -0.735 0.057 -0.74 Q 0.057 -0.75 0.067 -0.75 Q 0.079 -0.75 0.12 -0.709 Q 0.182 -0.647 0.223 -0.562 Q 0.289 -0.426 0.289 -0.25 Z"/></g></g></g></g></svg>
