<svg version="1.1" xmlns="http://www.w3.org/2000/svg" xmlns:xlink="http://www.w3.org/1999/xlink" width="532" height="260"><defs><clipPath id="xBllqetbChMb"><path fill="none" stroke="none" d=" M 0 0 L 532 0 L 532 260 L 0 260 L 0 0 Z"/></clipPath></defs><g transform="scale(1,1)" clip-path="url(#xBllqetbChMb)"><g><rect fill="none" stroke="none" x="0" y="0" width="533" height="260" fill-opacity="1"/><path fill="none" stroke="rgb(37,37,37)" paint-order="fill stroke markers" d=" M 280.5 2.5 L 280.5 260.5" stroke-opacity="1" stroke-miterlimit="10"/><path fill="none" stroke="rgb(37,37,37)" paint-order="fill stroke markers" d=" M 280.5 1.5 L 276.5 5.5" stroke-opacity="1" stroke-miterlimit="10"/><path fill="none" stroke="rgb(37,37,37)" paint-order="fill stroke markers" d=" M 280.5 1.5 L 284.5 5.5" stroke-opacity="1" stroke-miterlimit="10"/><path fill="none" stroke="rgb(37,37,37)" paint-order="fill stroke markers" d=" M 0.5 182.5 L 530.5 182.5" stroke-opacity="1" stroke-miterlimit="10"/><path fill="none" stroke="rgb(37,37,37)" paint-order="fill stroke markers" d=" M 531.5 182.5 L 527.5 178.5" stroke-opacity="1" stroke-miterlimit="10"/><path fill="none" stroke="rgb(37,37,37)" paint-order="fill stroke markers" d=" M 531.5 182.5 L 527.5 186.5" stroke-opacity="1" stroke-miterlimit="10"/><text fill="rgb(37,37,37)" stroke="none" font-family="geogebra-sans-serif, sans-serif" font-size="12px" font-style="normal" font-weight="normal" text-decoration="normal" x="6" y="198" text-anchor="start" dominant-baseline="alphabetic" fill-opacity="1">–5</text><text fill="none" stroke="rgb(255,255,255)" font-family="geogebra-sans-serif, sans-serif" font-size="12px" font-style="normal" font-weight="normal" text-decoration="normal" x="6" y="198" text-anchor="start" dominant-baseline="alphabetic" stroke-opacity="1" stroke-linejoin="bevel" stroke-miterlimit="10" stroke-width="3">–5</text><text fill="rgb(37,37,37)" stroke="none" font-family="geogebra-sans-serif, sans-serif" font-size="12px" font-style="normal" font-weight="normal" text-decoration="normal" x="6" y="198" text-anchor="start" dominant-baseline="alphabetic" fill-opacity="1">–5</text><path fill="none" stroke="rgb(37,37,37)" paint-order="fill stroke markers" d=" M 11.5 182.5 L 11.5 185.5" stroke-opacity="1" stroke-miterlimit="10"/><text fill="rgb(37,37,37)" stroke="none" font-family="geogebra-sans-serif, sans-serif" font-size="12px" font-style="normal" font-weight="normal" text-decoration="normal" x="60" y="198" text-anchor="start" dominant-baseline="alphabetic" fill-opacity="1">–4</text><text fill="none" stroke="rgb(255,255,255)" font-family="geogebra-sans-serif, sans-serif" font-size="12px" font-style="normal" font-weight="normal" text-decoration="normal" x="60" y="198" text-anchor="start" dominant-baseline="alphabetic" stroke-opacity="1" stroke-linejoin="bevel" stroke-miterlimit="10" stroke-width="3">–4</text><text fill="rgb(37,37,37)" stroke="none" font-family="geogebra-sans-serif, sans-serif" font-size="12px" font-style="normal" font-weight="normal" text-decoration="normal" x="60" y="198" text-anchor="start" dominant-baseline="alphabetic" fill-opacity="1">–4</text><path fill="none" stroke="rgb(37,37,37)" paint-order="fill stroke markers" d=" M 65.5 182.5 L 65.5 185.5" stroke-opacity="1" stroke-miterlimit="10"/><text fill="rgb(37,37,37)" stroke="none" font-family="geogebra-sans-serif, sans-serif" font-size="12px" font-style="normal" font-weight="normal" text-decoration="normal" x="114" y="198" text-anchor="start" dominant-baseline="alphabetic" fill-opacity="1">–3</text><text fill="none" stroke="rgb(255,255,255)" font-family="geogebra-sans-serif, sans-serif" font-size="12px" font-style="normal" font-weight="normal" text-decoration="normal" x="114" y="198" text-anchor="start" dominant-baseline="alphabetic" stroke-opacity="1" stroke-linejoin="bevel" stroke-miterlimit="10" stroke-width="3">–3</text><text fill="rgb(37,37,37)" stroke="none" font-family="geogebra-sans-serif, sans-serif" font-size="12px" font-style="normal" font-weight="normal" text-decoration="normal" x="114" y="198" text-anchor="start" dominant-baseline="alphabetic" fill-opacity="1">–3</text><path fill="none" stroke="rgb(37,37,37)" paint-order="fill stroke markers" d=" M 119.5 182.5 L 119.5 185.5" stroke-opacity="1" stroke-miterlimit="10"/><text fill="rgb(37,37,37)" stroke="none" font-family="geogebra-sans-serif, sans-serif" font-size="12px" font-style="normal" font-weight="normal" text-decoration="normal" x="168" y="198" text-anchor="start" dominant-baseline="alphabetic" fill-opacity="1">–2</text><text fill="none" stroke="rgb(255,255,255)" font-family="geogebra-sans-serif, sans-serif" font-size="12px" font-style="normal" font-weight="normal" text-decoration="normal" x="168" y="198" text-anchor="start" dominant-baseline="alphabetic" stroke-opacity="1" stroke-linejoin="bevel" stroke-miterlimit="10" stroke-width="3">–2</text><text fill="rgb(37,37,37)" stroke="none" font-family="geogebra-sans-serif, sans-serif" font-size="12px" font-style="normal" font-weight="normal" text-decoration="normal" x="168" y="198" text-anchor="start" dominant-baseline="alphabetic" fill-opacity="1">–2</text><path fill="none" stroke="rgb(37,37,37)" paint-order="fill stroke markers" d=" M 173.5 182.5 L 173.5 185.5" stroke-opacity="1" stroke-miterlimit="10"/><text fill="rgb(37,37,37)" stroke="none" font-family="geogebra-sans-serif, sans-serif" font-size="12px" font-style="normal" font-weight="normal" text-decoration="normal" x="221" y="198" text-anchor="start" dominant-baseline="alphabetic" fill-opacity="1">–1</text><text fill="none" stroke="rgb(255,255,255)" font-family="geogebra-sans-serif, sans-serif" font-size="12px" font-style="normal" font-weight="normal" text-decoration="normal" x="221" y="198" text-anchor="start" dominant-baseline="alphabetic" stroke-opacity="1" stroke-linejoin="bevel" stroke-miterlimit="10" stroke-width="3">–1</text><text fill="rgb(37,37,37)" stroke="none" font-family="geogebra-sans-serif, sans-serif" font-size="12px" font-style="normal" font-weight="normal" text-decoration="normal" x="221" y="198" text-anchor="start" dominant-baseline="alphabetic" fill-opacity="1">–1</text><path fill="none" stroke="rgb(37,37,37)" paint-order="fill stroke markers" d=" M 226.5 182.5 L 226.5 185.5" stroke-opacity="1" stroke-miterlimit="10"/><path fill="none" stroke="rgb(37,37,37)" paint-order="fill stroke markers" d=" M 280.5 182.5 L 280.5 185.5" stroke-opacity="1" stroke-miterlimit="10"/><text fill="rgb(37,37,37)" stroke="none" font-family="geogebra-sans-serif, sans-serif" font-size="12px" font-style="normal" font-weight="normal" text-decoration="normal" x="332" y="198" text-anchor="start" dominant-baseline="alphabetic" fill-opacity="1">1</text><text fill="none" stroke="rgb(255,255,255)" font-family="geogebra-sans-serif, sans-serif" font-size="12px" font-style="normal" font-weight="normal" text-decoration="normal" x="332" y="198" text-anchor="start" dominant-baseline="alphabetic" stroke-opacity="1" stroke-linejoin="bevel" stroke-miterlimit="10" stroke-width="3">1</text><text fill="rgb(37,37,37)" stroke="none" font-family="geogebra-sans-serif, sans-serif" font-size="12px" font-style="normal" font-weight="normal" text-decoration="normal" x="332" y="198" text-anchor="start" dominant-baseline="alphabetic" fill-opacity="1">1</text><path fill="none" stroke="rgb(37,37,37)" paint-order="fill stroke markers" d=" M 334.5 182.5 L 334.5 185.5" stroke-opacity="1" stroke-miterlimit="10"/><text fill="rgb(37,37,37)" stroke="none" font-family="geogebra-sans-serif, sans-serif" font-size="12px" font-style="normal" font-weight="normal" text-decoration="normal" x="386" y="198" text-anchor="start" dominant-baseline="alphabetic" fill-opacity="1">2</text><text fill="none" stroke="rgb(255,255,255)" font-family="geogebra-sans-serif, sans-serif" font-size="12px" font-style="normal" font-weight="normal" text-decoration="normal" x="386" y="198" text-anchor="start" dominant-baseline="alphabetic" stroke-opacity="1" stroke-linejoin="bevel" stroke-miterlimit="10" stroke-width="3">2</text><text fill="rgb(37,37,37)" stroke="none" font-family="geogebra-sans-serif, sans-serif" font-size="12px" font-style="normal" font-weight="normal" text-decoration="normal" x="386" y="198" text-anchor="start" dominant-baseline="alphabetic" fill-opacity="1">2</text><path fill="none" stroke="rgb(37,37,37)" paint-order="fill stroke markers" d=" M 388.5 182.5 L 388.5 185.5" stroke-opacity="1" stroke-miterlimit="10"/><text fill="rgb(37,37,37)" stroke="none" font-family="geogebra-sans-serif, sans-serif" font-size="12px" font-style="normal" font-weight="normal" text-decoration="normal" x="439" y="198" text-anchor="start" dominant-baseline="alphabetic" fill-opacity="1">3</text><text fill="none" stroke="rgb(255,255,255)" font-family="geogebra-sans-serif, sans-serif" font-size="12px" font-style="normal" font-weight="normal" text-decoration="normal" x="439" y="198" text-anchor="start" dominant-baseline="alphabetic" stroke-opacity="1" stroke-linejoin="bevel" stroke-miterlimit="10" stroke-width="3">3</text><text fill="rgb(37,37,37)" stroke="none" font-family="geogebra-sans-serif, sans-serif" font-size="12px" font-style="normal" font-weight="normal" text-decoration="normal" x="439" y="198" text-anchor="start" dominant-baseline="alphabetic" fill-opacity="1">3</text><path fill="none" stroke="rgb(37,37,37)" paint-order="fill stroke markers" d=" M 441.5 182.5 L 441.5 185.5" stroke-opacity="1" stroke-miterlimit="10"/><text fill="rgb(37,37,37)" stroke="none" font-family="geogebra-sans-serif, sans-serif" font-size="12px" font-style="normal" font-weight="normal" text-decoration="normal" x="493" y="198" text-anchor="start" dominant-baseline="alphabetic" fill-opacity="1">4</text><text fill="none" stroke="rgb(255,255,255)" font-family="geogebra-sans-serif, sans-serif" font-size="12px" font-style="normal" font-weight="normal" text-decoration="normal" x="493" y="198" text-anchor="start" dominant-baseline="alphabetic" stroke-opacity="1" stroke-linejoin="bevel" stroke-miterlimit="10" stroke-width="3">4</text><text fill="rgb(37,37,37)" stroke="none" font-family="geogebra-sans-serif, sans-serif" font-size="12px" font-style="normal" font-weight="normal" text-decoration="normal" x="493" y="198" text-anchor="start" dominant-baseline="alphabetic" fill-opacity="1">4</text><path fill="none" stroke="rgb(37,37,37)" paint-order="fill stroke markers" d=" M 495.5 182.5 L 495.5 185.5" stroke-opacity="1" stroke-miterlimit="10"/><path fill="none" stroke="rgb(37,37,37)" paint-order="fill stroke markers" d=" M 277.5 235.5 L 280.5 235.5" stroke-opacity="1" stroke-miterlimit="10"/><path fill="none" stroke="rgb(37,37,37)" paint-order="fill stroke markers" d=" M 277.5 128.5 L 280.5 128.5" stroke-opacity="1" stroke-miterlimit="10"/><path fill="none" stroke="rgb(37,37,37)" paint-order="fill stroke markers" d=" M 277.5 74.5 L 280.5 74.5" stroke-opacity="1" stroke-miterlimit="10"/><path fill="none" stroke="rgb(37,37,37)" paint-order="fill stroke markers" d=" M 277.5 20.5 L 280.5 20.5" stroke-opacity="1" stroke-miterlimit="10"/><text fill="rgb(37,37,37)" stroke="none" font-family="geogebra-sans-serif, sans-serif" font-size="12px" font-style="normal" font-weight="normal" text-decoration="normal" x="259" y="240" text-anchor="start" dominant-baseline="alphabetic" fill-opacity="1">–1</text><text fill="none" stroke="rgb(255,255,255)" font-family="geogebra-sans-serif, sans-serif" font-size="12px" font-style="normal" font-weight="normal" text-decoration="normal" x="259" y="240" text-anchor="start" dominant-baseline="alphabetic" stroke-opacity="1" stroke-linejoin="bevel" stroke-miterlimit="10" stroke-width="3">–1</text><text fill="rgb(37,37,37)" stroke="none" font-family="geogebra-sans-serif, sans-serif" font-size="12px" font-style="normal" font-weight="normal" text-decoration="normal" x="259" y="240" text-anchor="start" dominant-baseline="alphabetic" fill-opacity="1">–1</text><text fill="rgb(37,37,37)" stroke="none" font-family="geogebra-sans-serif, sans-serif" font-size="12px" font-style="normal" font-weight="normal" text-decoration="normal" x="265" y="133" text-anchor="start" dominant-baseline="alphabetic" fill-opacity="1">1</text><text fill="none" stroke="rgb(255,255,255)" font-family="geogebra-sans-serif, sans-serif" font-size="12px" font-style="normal" font-weight="normal" text-decoration="normal" x="265" y="133" text-anchor="start" dominant-baseline="alphabetic" stroke-opacity="1" stroke-linejoin="bevel" stroke-miterlimit="10" stroke-width="3">1</text><text fill="rgb(37,37,37)" stroke="none" font-family="geogebra-sans-serif, sans-serif" font-size="12px" font-style="normal" font-weight="normal" text-decoration="normal" x="265" y="133" text-anchor="start" dominant-baseline="alphabetic" fill-opacity="1">1</text><text fill="rgb(37,37,37)" stroke="none" font-family="geogebra-sans-serif, sans-serif" font-size="12px" font-style="normal" font-weight="normal" text-decoration="normal" x="265" y="79" text-anchor="start" dominant-baseline="alphabetic" fill-opacity="1">2</text><text fill="none" stroke="rgb(255,255,255)" font-family="geogebra-sans-serif, sans-serif" font-size="12px" font-style="normal" font-weight="normal" text-decoration="normal" x="265" y="79" text-anchor="start" dominant-baseline="alphabetic" stroke-opacity="1" stroke-linejoin="bevel" stroke-miterlimit="10" stroke-width="3">2</text><text fill="rgb(37,37,37)" stroke="none" font-family="geogebra-sans-serif, sans-serif" font-size="12px" font-style="normal" font-weight="normal" text-decoration="normal" x="265" y="79" text-anchor="start" dominant-baseline="alphabetic" fill-opacity="1">2</text><text fill="rgb(37,37,37)" stroke="none" font-family="geogebra-sans-serif, sans-serif" font-size="12px" font-style="normal" font-weight="normal" text-decoration="normal" x="265" y="25" text-anchor="start" dominant-baseline="alphabetic" fill-opacity="1">3</text><text fill="none" stroke="rgb(255,255,255)" font-family="geogebra-sans-serif, sans-serif" font-size="12px" font-style="normal" font-weight="normal" text-decoration="normal" x="265" y="25" text-anchor="start" dominant-baseline="alphabetic" stroke-opacity="1" stroke-linejoin="bevel" stroke-miterlimit="10" stroke-width="3">3</text><text fill="rgb(37,37,37)" stroke="none" font-family="geogebra-sans-serif, sans-serif" font-size="12px" font-style="normal" font-weight="normal" text-decoration="normal" x="265" y="25" text-anchor="start" dominant-baseline="alphabetic" fill-opacity="1">3</text><text fill="rgb(37,37,37)" stroke="none" font-family="geogebra-sans-serif, sans-serif" font-size="12px" font-style="normal" font-weight="normal" text-decoration="normal" x="265" y="198" text-anchor="start" dominant-baseline="alphabetic" fill-opacity="1">0</text><text fill="none" stroke="rgb(255,255,255)" font-family="geogebra-sans-serif, sans-serif" font-size="12px" font-style="normal" font-weight="normal" text-decoration="normal" x="265" y="198" text-anchor="start" dominant-baseline="alphabetic" stroke-opacity="1" stroke-linejoin="bevel" stroke-miterlimit="10" stroke-width="3">0</text><text fill="rgb(37,37,37)" stroke="none" font-family="geogebra-sans-serif, sans-serif" font-size="12px" font-style="normal" font-weight="normal" text-decoration="normal" x="265" y="198" text-anchor="start" dominant-baseline="alphabetic" fill-opacity="1">0</text><path fill="none" stroke="rgb(0,100,0)" paint-order="fill stroke markers" d=" M 1 -1284.260689955338 L 1 -1273.8329842928383 L 1 -1273.8329842928388 L 2.000000000000057 -1263.4424879326643 L 2.000000000000057 -1263.4424879326648 L 3 -1253.0892008748167 L 3 -1253.0892008748172 L 4.000000000000057 -1242.773123119294 L 4.000000000000057 -1242.7731231192943 L 5 -1232.4942546660973 L 5 -1232.4942546660977 L 6.000000000000057 -1222.2525955152257 L 6.000000000000057 -1222.2525955152262 L 7 -1212.0481456666803 L 7 -1212.0481456666807 L 8.000000000000057 -1201.88090512046 L 8.000000000000057 -1201.8809051204603 L 9 -1191.7508738765655 L 9 -1191.750873876566 L 10 -1181.6580519349964 L 10 -1181.6580519349968 L 11.000000000000057 -1171.602439295753 L 11.000000000000057 -1171.6024392957531 L 12 -1161.584035958835 L 12 -1161.5840359588356 L 13.000000000000057 -1151.6028419242427 L 13.000000000000057 -1151.6028419242432 L 14 -1141.6588571919765 L 14 -1141.6588571919767 L 15.000000000000057 -1131.752081762035 L 15.000000000000057 -1131.7520817620355 L 16 -1121.8825156344199 L 16 -1121.88251563442 L 17.000000000000057 -1112.0501588091297 L 17.000000000000057 -1112.05015880913 L 18 -1102.2550112861657 L 18 -1102.2550112861659 L 19 -1092.4970730655266 L 19 -1092.497073065527 L 20.000000000000057 -1082.7763441472132 L 20.000000000000057 -1082.7763441472136 L 21 -1073.0928245312257 L 21 -1073.0928245312261 L 22.000000000000057 -1063.4465142175636 L 22.000000000000057 -1063.4465142175638 L 23 -1053.8374132062274 L 23 -1053.8374132062277 L 24.000000000000057 -1044.2655214972162 L 24.000000000000057 -1044.2655214972167 L 25 -1034.7308390905314 L 25 -1034.7308390905316 L 26.00000000000003 -1025.2333659861715 L 26.00000000000003 -1025.233365986172 L 27 -1015.7731021841374 L 27 -1015.7731021841379 L 28.00000000000003 -1006.3500476844289 L 28.00000000000003 -1006.3500476844291 L 29.000000000000057 -996.9642024870456 L 29.000000000000057 -996.964202487046 L 30.00000000000003 -987.6155665919886 L 30.00000000000003 -987.615566591989 L 31.00000000000003 -978.3041399992566 L 31.00000000000003 -978.304139999257 L 32 -969.0299227088504 L 32 -969.0299227088509 L 33.00000000000003 -959.7929147207698 L 33.00000000000003 -959.79291472077 L 34 -950.593116035015 L 34 -950.5931160350152 L 35.00000000000003 -941.4305266515852 L 35.00000000000003 -941.4305266515856 L 36 -932.3051465704817 L 36 -932.305146570482 L 37.00000000000003 -923.2169757917032 L 37.00000000000003 -923.2169757917037 L 38.00000000000006 -914.1660143152502 L 38.00000000000006 -914.1660143152507 L 39.00000000000003 -905.1522621411233 L 39.00000000000003 -905.1522621411237 L 40.00000000000003 -896.1757192693216 L 40.00000000000003 -896.175719269322 L 41 -887.236385699846 L 41 -887.2363856998462 L 42.00000000000003 -878.3342614326954 L 42.00000000000003 -878.3342614326956 L 43 -869.4693464678707 L 43 -869.4693464678711 L 44.00000000000003 -860.6416408053711 L 44.00000000000003 -860.6416408053716 L 45 -851.8511444451977 L 45 -851.8511444451982 L 46.00000000000003 -843.0978573873496 L 46.00000000000003 -843.09785738735 L 47.00000000000006 -834.3817796318269 L 47.00000000000006 -834.3817796318273 L 48.00000000000003 -825.7029111786303 L 48.00000000000003 -825.7029111786306 L 49.00000000000003 -817.0612520277587 L 49.00000000000003 -817.0612520277591 L 50 -808.4568021792132 L 50 -808.4568021792136 L 50.99999999999997 -799.8895616329934 L 50.99999999999997 -799.8895616329937 L 52 -791.3595303890986 L 52 -791.359530389099 L 53.00000000000003 -782.8667084475293 L 53.00000000000003 -782.8667084475297 L 54.00000000000006 -774.4110958082857 L 54.00000000000006 -774.4110958082861 L 55.00000000000003 -765.9926924713683 L 55.00000000000003 -765.9926924713686 L 56 -757.6114984367762 L 56 -757.6114984367765 L 57.00000000000003 -749.2675137045094 L 57.00000000000003 -749.2675137045097 L 58.00000000000003 -740.9607382745681 L 58.00000000000003 -740.9607382745685 L 59 -732.6911721469527 L 59 -732.691172146953 L 59.99999999999997 -724.458815321663 L 59.99999999999997 -724.4588153216633 L 61 -716.2636677986985 L 61 -716.263667798699 L 62.00000000000003 -708.1057295780595 L 62.00000000000003 -708.1057295780599 L 63.00000000000006 -699.9850006597463 L 63.00000000000006 -699.9850006597467 L 64.00000000000003 -691.9014810437588 L 64.00000000000003 -691.9014810437592 L 65 -683.855170730097 L 65 -683.8551707300974 L 66.00000000000003 -675.8460697187605 L 66.00000000000003 -675.8460697187608 L 67 -667.8741780097497 L 67 -667.8741780097498 L 68 -659.9394956030644 L 68 -659.9394956030646 L 69 -652.0420224987048 L 69 -652.0420224987049 L 70.00000000000003 -644.1817586966705 L 70.00000000000003 -644.1817586966707 L 71.00000000000003 -636.358704196962 L 71.00000000000003 -636.3587041969621 L 72.00000000000003 -628.572858999579 L 72.00000000000003 -628.5728589995792 L 73.00000000000003 -620.8242231045217 L 73.00000000000003 -620.8242231045219 L 74.00000000000003 -613.11279651179 L 74.00000000000003 -613.1127965117902 L 75 -605.4385792213837 L 75 -605.4385792213839 L 76 -597.8015712333032 L 76 -597.8015712333033 L 77 -590.2017725475481 L 77 -590.2017725475483 L 78 -582.6391831641188 L 78 -582.6391831641189 L 79.00000000000003 -575.1138030830147 L 79.00000000000003 -575.1138030830149 L 80.00000000000003 -567.6256323042364 L 80.00000000000003 -567.6256323042365 L 81.00000000000003 -560.1746708277836 L 81.00000000000003 -560.1746708277839 L 82.00000000000003 -552.7609186536565 L 82.00000000000003 -552.7609186536567 L 83.00000000000003 -545.3843757818549 L 83.00000000000003 -545.3843757818552 L 84 -538.045042212379 L 84 -538.0450422123793 L 85 -530.7429179452287 L 85 -530.7429179452289 L 86 -523.4780029804039 L 86 -523.4780029804041 L 87 -516.2502973179047 L 87 -516.2502973179049 L 88.00000000000003 -509.0598009577309 L 88.00000000000003 -509.059800957731 L 89.00000000000003 -501.90651389988284 L 89.00000000000003 -501.90651389988307 L 90.00000000000003 -494.79043614436034 L 90.00000000000003 -494.79043614436057 L 91.00000000000003 -487.7115676911635 L 91.00000000000003 -487.71156769116374 L 92.00000000000003 -480.6699085402922 L 92.00000000000003 -480.66990854029245 L 93 -473.6654586917465 L 93 -473.6654586917466 L 94 -466.6982181455264 L 94 -466.69821814552654 L 95 -459.7681869016318 L 95 -459.768186901632 L 96 -452.8753649600628 L 96 -452.87536496006305 L 97.00000000000003 -446.0197523208192 L 97.00000000000003 -446.0197523208194 L 98.00000000000003 -439.2013489839014 L 98.00000000000003 -439.20134898390165 L 99.00000000000003 -432.4201549493091 L 99.00000000000003 -432.42015494930934 L 100.00000000000003 -425.67617021704257 L 100.00000000000003 -425.6761702170428 L 101.00000000000003 -418.96939478710146 L 101.00000000000003 -418.9693947871017 L 102 -412.299828659486 L 102 -412.29982865948614 L 103 -405.66747183419614 L 103 -405.66747183419625 L 104 -399.0723243112317 L 104 -399.0723243112319 L 105 -392.514386090593 L 105 -392.51438609059323 L 106 -385.9936571722799 L 106 -385.99365717228 L 107.00000000000003 -379.5101375562921 L 107.00000000000003 -379.5101375562922 L 108.00000000000003 -373.06382724263005 L 108.00000000000003 -373.0638272426303 L 109.00000000000003 -366.6547262312937 L 109.00000000000003 -366.6547262312938 L 110 -360.2828345222829 L 110 -360.2828345222831 L 111 -353.9481521155976 L 111 -353.94815211559774 L 112 -347.6506790112379 L 112 -347.650679011238 L 113 -341.39041520920375 L 113 -341.390415209204 L 114 -335.16736070949526 L 114 -335.1673607094955 L 115 -328.9815155121124 L 115 -328.98151551211254 L 116.00000000000003 -322.8328796170549 L 116.00000000000003 -322.83287961705514 L 117.00000000000003 -316.72145302432307 L 117.00000000000003 -316.7214530243233 L 118.00000000000003 -310.6472357339169 L 118.00000000000003 -310.6472357339171 L 119 -304.61022774583626 L 119 -304.6102277458365 L 120 -298.6104290600813 L 120 -298.6104290600815 L 121 -292.64783967665187 L 121 -292.6478396766521 L 122 -286.722459595548 L 122 -286.7224595955481 L 123 -280.8342888167698 L 123 -280.8342888167699 L 124 -274.98332734031703 L 124 -274.98332734031726 L 125.00000000000003 -269.1695751661897 L 125.00000000000003 -269.16957516618993 L 126.00000000000003 -263.39303229438826 L 126.00000000000003 -263.3930322943884 L 127.00000000000003 -257.65369872491226 L 127.00000000000003 -257.6536987249124 L 128 -251.9515744577619 L 128 -251.95157445776206 L 129 -246.28665949293716 L 129 -246.28665949293722 L 130 -240.65895383043792 L 130 -240.65895383043804 L 131 -235.0684574702643 L 131 -235.0684574702644 L 132 -229.5151704124162 L 132 -229.51517041241632 L 133 -223.99909265689374 L 133 -223.99909265689385 L 134.00000000000003 -218.52022420369676 L 134.00000000000003 -218.52022420369687 L 135.00000000000003 -213.07856505282544 L 135.00000000000003 -213.0785650528255 L 136.00000000000003 -207.67411520427973 L 136.00000000000003 -207.6741152042798 L 137 -202.30687465805957 L 137 -202.30687465805968 L 138 -196.97684341416502 L 138 -196.97684341416513 L 139 -191.68402147259602 L 139 -191.68402147259613 L 140 -186.42840883335268 L 140 -186.42840883335273 L 141 -181.21000549643483 L 141 -181.21000549643495 L 142 -176.0288114618426 L 142 -176.0288114618427 L 143.00000000000003 -170.88482672957585 L 143.00000000000003 -170.8848267295759 L 144.00000000000003 -165.77805129963477 L 144.00000000000003 -165.77805129963482 L 145 -160.70848517201924 L 145 -160.7084851720193 L 146 -155.6761283467293 L 146 -155.67612834672943 L 147 -150.680980823765 L 147 -150.6809808237651 L 148 -145.7230426031263 L 148 -145.72304260312634 L 149 -140.80231368481307 L 149 -140.80231368481319 L 150 -135.91879406882552 L 150 -135.91879406882558 L 151 -131.07248375516352 L 151 -131.07248375516357 L 152.00000000000003 -126.26338274382695 L 152.00000000000003 -126.26338274382707 L 153 -121.49149103481611 L 153 -121.49149103481616 L 154 -116.75680862813087 L 154 -116.75680862813093 L 155 -112.05933552377118 L 155 -112.05933552377124 L 156 -107.39907172173704 L 156 -107.39907172173716 L 157 -102.77601722202857 L 157 -102.77601722202868 L 158 -98.19017202464565 L 158 -98.1901720246457 L 159.00000000000003 -93.64153612958816 L 159.00000000000003 -93.64153612958822 L 160 -89.13010953685651 L 160 -89.13010953685657 L 161 -84.65589224645018 L 161 -84.65589224645029 L 162 -80.21888425836968 L 162 -80.2188842583698 L 163 -75.81908557261457 L 163 -75.81908557261463 L 164 -71.45649618918509 L 164 -71.4564961891852 L 165 -67.13111610808124 L 165 -67.13111610808133 L 166 -62.84294532930295 L 166 -62.842945329303035 L 167 -58.591983852850234 L 167 -58.59198385285032 L 168.00000000000003 -54.37823167872304 L 168.00000000000003 -54.378231678723125 L 169 -50.20168880692157 L 169 -50.20168880692168 L 170 -46.06235523744553 L 170 -46.062355237445615 L 171 -41.96023097029527 L 171 -41.960230970295356 L 172 -37.89531600547036 L 172 -37.89531600547045 L 173 -33.86761034297115 L 173 -33.86761034297123 L 174 -29.87711398279751 L 174 -29.877113982797567 L 175 -25.92382692494948 L 175 -25.923826924949537 L 176 -22.007749169427 L 176 -22.00774916942703 L 177 -18.128880716230043 L 177 -18.1288807162301 L 178 -14.287221565358749 L 178 -14.287221565358777 L 179 -10.482771716813033 L 179 -10.482771716813062 L 180 -6.715531170592897 L 180 -6.715531170592925 L 181 -2.98549992669831 L 181 -2.985499926698367 L 182 0.7073220148707264 L 182 0.7073220148706696 L 183 4.362934654114127 L 183 4.3629346541140706 L 184 7.98133799103195 L 184 7.981337991031893 L 185 11.562532025624193 L 185 11.562532025624137 L 186 15.10651675789083 L 186 15.106516757890773 L 187 18.613292187831945 L 187 18.613292187831917 L 188 22.082858315447453 L 188 22.082858315447396 L 189 25.515215140737382 L 189 25.515215140737325 L 190 28.910362663701704 L 190 28.910362663701648 L 191 32.268300884340505 L 191 32.26830088434045 L 192 35.58902980265367 L 192 35.58902980265364 L 193 38.872549418641256 L 193 38.8725494186412 L 194 42.118859732303264 L 194 42.11885973230321 L 195 45.32796074363969 L 195 45.327960743639636 L 196 48.49985245265057 L 196 48.499852452650515 L 197 51.634534859335844 L 197 51.63453485933579 L 198 54.73200796369552 L 198 54.732007963695466 L 199 57.79227176572962 L 199 57.79227176572958 L 200 60.81532626543819 L 200 60.815326265438145 L 201 63.80117146282113 L 201 63.801171462821074 L 202 66.74980735787848 L 202 66.74980735787844 L 203 69.66123395061025 L 203 69.66123395061021 L 204 72.53545124101645 L 204 72.53545124101639 L 205 75.37245922909709 L 205 75.37245922909707 L 206 78.17225791485212 L 206 78.1722579148521 L 207 80.93484729828158 L 207 80.93484729828155 L 208 83.66022737938545 L 208 83.66022737938543 L 209 86.34839815816377 L 209 86.34839815816375 L 210 88.99935963461648 L 210 88.99935963461645 L 211 91.6131118087436 L 211 91.61311180874357 L 212 94.18965468054515 L 212 94.18965468054512 L 213 96.7289882500211 L 213 96.72898825002109 L 214 99.2311125171715 L 214 99.23111251717147 L 215 101.69602748199632 L 215 101.6960274819963 L 216 104.12373314449553 L 216 104.12373314449552 L 217 106.51422950466922 L 217 106.51422950466919 L 218 108.86751656251727 L 218 108.86751656251724 L 219 111.18359431803974 L 219 111.18359431803971 L 220 113.46246277123663 L 220 113.4624627712366 L 221 115.70412192210794 L 221 115.70412192210792 L 222 117.90857177065368 L 222 117.90857177065365 L 223 120.07581231687382 L 223 120.0758123168738 L 224 122.20584356076841 L 224 122.2058435607684 L 225 124.2986655023374 L 225 124.29866550233739 L 226 126.35427814158082 L 226 126.3542781415808 L 227 128.37268147849863 L 227 128.37268147849863 L 228 130.35387551309088 L 228 130.35387551309088 L 229 132.29786024535758 L 229 132.29786024535755 L 230 134.20463567529865 L 230 134.20463567529862 L 231 136.07420180291416 L 231 136.07420180291416 L 232 137.90655862820407 L 232 137.90655862820407 L 233 139.70170615116842 L 233 139.70170615116842 L 234 141.45964437180717 L 234 141.45964437180717 L 235 143.18037329012034 L 235 143.18037329012034 L 236 144.86389290610796 L 236 144.86389290610794 L 237 146.51020321976998 L 237 146.51020321976995 L 238 148.1193042311064 L 238 148.1193042311064 L 239 149.69119594011727 L 239 149.69119594011724 L 240 151.22587834680252 L 240 151.22587834680252 L 241 152.72335145116222 L 241 152.72335145116222 L 242 154.18361525319634 L 242 154.18361525319634 L 243 155.60666975290485 L 243 155.60666975290485 L 244 156.9925149502878 L 244 156.99251495028778 L 245 158.34115084534517 L 245 158.34115084534517 L 246 159.65257743807695 L 246 159.65257743807695 L 247 160.92679472848317 L 247 160.92679472848315 L 248 162.16380271656377 L 248 162.16380271656377 L 249 163.3636014023188 L 249 163.3636014023188 L 250 164.52619078574827 L 250 164.52619078574827 L 251 165.65157086685215 L 251 165.65157086685215 L 252 166.73974164563043 L 252 166.73974164563043 L 253 167.79070312208316 L 253 167.79070312208316 L 254 168.80445529621028 L 254 168.80445529621028 L 255 169.78099816801185 L 255 169.78099816801185 L 256 170.7203317374878 L 256 170.7203317374878 L 257 171.6224560046382 L 257 171.6224560046382 L 258 172.487370969463 L 258 172.487370969463 L 259 173.31507663196223 L 259 173.31507663196223 L 260 174.10557299213588 L 260 174.10557299213588 L 261 174.85886004998395 L 261 174.85886004998395 L 262 175.5749378055064 L 262 175.5749378055064 L 263 176.25380625870332 L 263 176.25380625870332 L 264 176.89546540957463 L 264 176.89546540957463 L 265 177.49991525812038 L 265 177.49991525812038 L 266 178.06715580434053 L 266 178.06715580434053 L 267 178.5971870482351 L 267 178.5971870482351 L 268 179.0900089898041 L 268 179.0900089898041 L 269 179.5456216290475 L 269 179.5456216290475 L 270 179.96402496596534 L 270 179.96402496596534 L 271 180.3452190005576 L 271 180.3452190005576 L 272 180.68920373282424 L 272 180.68920373282424 L 273 180.99597916276534 L 273 180.99597916276534 L 274 181.26554529038083 L 274 181.26554529038083 L 275 181.49790211567077 L 275 181.49790211567077 L 276 181.6930496386351 L 276 181.6930496386351 L 277 181.85098785927386 L 277 181.85098785927386 L 278 181.97171677758703 L 278 181.97171677758703 L 279 182.05523639357463 L 279 182.05523639357463 L 280 182.10154670723665 L 280 182.10154670723665 L 281 182.11186138241928 L 281 182.1106477185731 L 282 182.08253942758395 L 282 182.08253942758395 L 283 182.0172218342692 L 283 182.0172218342692 L 284 181.9146949386289 L 284 181.9146949386289 L 285 181.774958740663 L 285 181.774958740663 L 286 181.59801324037153 L 286 181.59801324037153 L 287 181.38385843775447 L 287 181.38385843775447 L 288 181.13249433281186 L 288 181.13249433281186 L 289 180.84392092554364 L 289 180.84392092554364 L 290 180.51813821594982 L 290 180.51813821594982 L 291 180.15514620403044 L 291 180.15514620403044 L 292 179.7549448897855 L 292 179.7549448897855 L 293 179.31753427321496 L 293 179.31753427321496 L 294 178.84291435431882 L 294 178.84291435431882 L 295 178.3310851330971 L 295 178.3310851330971 L 296 177.78204660954984 L 296 177.78204660954984 L 297 177.19579878367696 L 297 177.19579878367696 L 298 176.5723416554785 L 298 176.5723416554785 L 299 175.91167522495448 L 299 175.91167522495448 L 300 175.21379949210487 L 300 175.21379949210487 L 301 174.47871445692968 L 301 174.47871445692968 L 302 173.70642011942888 L 302 173.7064201194289 L 303 172.89691647960254 L 303 172.89691647960254 L 304 172.0502035374506 L 304 172.0502035374506 L 305 171.16628129297308 L 305 171.16628129297308 L 306 170.24514974616997 L 306 170.24514974616997 L 307 169.2868088970413 L 307 169.2868088970413 L 308 168.29125874558704 L 308 168.29125874558704 L 309 167.2584992918072 L 309 167.2584992918072 L 310 166.18853053570177 L 310 166.18853053570177 L 311 165.08135247727074 L 311 165.08135247727077 L 312 163.93696511651416 L 312 163.93696511651416 L 313 162.755368453432 L 313 162.755368453432 L 314 161.53656248802423 L 314 161.53656248802423 L 315 160.2805472202909 L 315 160.2805472202909 L 316 158.987322650232 L 316 158.987322650232 L 317 157.65688877784748 L 317 157.6568887778475 L 318 156.2892456031374 L 318 156.28924560313743 L 319 154.88439312610174 L 319 154.88439312610177 L 320 153.4423313467405 L 320 153.44233134674053 L 321 151.96306026505368 L 321 151.9630602650537 L 322 150.4465798810413 L 322 150.44657988104132 L 323 148.8928901947033 L 323 148.89289019470334 L 324 147.30199120603973 L 324 147.30199120603976 L 325 145.67388291505057 L 325 145.6738829150506 L 326 144.00856532173586 L 326 144.0085653217359 L 327 142.30603842609554 L 327 142.30603842609557 L 328 140.56630222812964 L 328 140.56630222812967 L 329 138.78935672783817 L 329 138.7893567278382 L 330 136.97520192522114 L 330 136.97520192522114 L 331 135.12383782027848 L 331 135.1238378202785 L 332 133.23526441301027 L 332 133.2352644130103 L 333 131.30948170341645 L 333 131.30948170341648 L 334 129.34648969149708 L 334 129.3464896914971 L 335 127.34628837725214 L 335 127.34628837725216 L 336 125.30887776068158 L 336 125.30887776068161 L 337 123.23425784178545 L 337 123.23425784178548 L 338 121.12242862056375 L 338 121.12242862056377 L 339 118.97339009701646 L 339 118.97339009701648 L 340 116.7871422711436 L 340 116.78714227114362 L 341 114.56368514294515 L 341 114.56368514294518 L 342 112.3030187124211 L 342 112.30301871242114 L 343 110.0051429795715 L 343 110.00514297957152 L 344 107.6700579443963 L 344 107.67005794439632 L 345 105.29776360689553 L 345 105.29776360689556 L 346 102.88825996706915 L 346 102.88825996706917 L 347 100.44154702491723 L 347 100.44154702491724 L 348 97.9576247804397 L 348 97.95762478043973 L 349 95.43649323363661 L 349 95.43649323363664 L 350 92.87815238450794 L 350 92.87815238450796 L 351 90.28260223305365 L 351 90.28260223305368 L 352 87.64984277927381 L 352 87.64984277927384 L 353 84.97987402316839 L 353 84.97987402316842 L 354 82.2726959647374 L 354 82.27269596473742 L 355 79.5283086039808 L 355 79.52830860398083 L 356 76.7467119408986 L 356 76.74671194089862 L 357 73.92790597549084 L 357 73.92790597549089 L 358 71.07189070775752 L 358 71.07189070775756 L 359 68.17866613769861 L 359 68.17866613769866 L 360 65.24823226531409 L 360 65.24823226531413 L 361 62.280589090604025 L 361 62.28058909060407 L 362 59.27573661356837 L 362 59.27573661356843 L 363 56.23367483420712 L 363 56.233674834207164 L 364 53.154403752520324 L 364 53.15440375252038 L 365 50.037923368507876 L 365 50.03792336850793 L 366 46.884233682169906 L 366 46.88423368216996 L 367 43.69333469350636 L 367 43.693334693506415 L 368 40.4652264025172 L 368 40.46522640251726 L 369 37.19990880920244 L 369 37.1999088092025 L 370 33.89738191356216 L 370 33.897381913562185 L 371 30.557645715596266 L 371 30.557645715596294 L 372 27.180700215304796 L 372 27.180700215304824 L 373 23.766545412687748 L 373 23.766545412687805 L 374 20.315181307745092 L 374 20.31518130774512 L 375 16.82660790047686 L 375 16.826607900476915 L 376 13.300825190883074 L 376 13.300825190883131 L 377 9.737833178963712 L 377 9.737833178963768 L 378 6.137631864718742 L 378 6.137631864718799 L 379 2.5002212481482218 L 379 2.5002212481482786 L 380 -1.1743986707479053 L 380 -1.1743986707478484 L 381 -4.886227891969668 L 381 -4.886227891969611 L 382 -8.635266415516952 L 382 -8.635266415516895 L 383 -12.421514241389815 L 383 -12.421514241389758 L 384 -16.244971369588256 L 384 -16.244971369588228 L 385 -20.105637800112277 L 385 -20.10563780011222 L 386 -24.003513532961875 L 386 -24.00351353296182 L 387 -27.93859856813708 L 387 -27.938598568137024 L 388 -31.910892905637837 L 388 -31.91089290563778 L 389 -35.9203965454642 L 389 -35.920396545464115 L 390 -39.96710948761623 L 390 -39.96710948761614 L 391 -44.05103173209375 L 391 -44.05103173209366 L 392 -48.17216327889682 L 392 -48.17216327889673 L 393 -52.330504128025495 L 393 -52.33050412802541 L 394 -56.52605427947975 L 394 -56.526054279479666 L 395 -60.758813733259586 L 395 -60.75881373325947 L 396 -65.028782489365 L 396 -65.02878248936491 L 397 -69.33596054779602 L 397 -69.33596054779593 L 398 -73.68034790855259 L 398 -73.68034790855248 L 399 -78.06194457163483 L 399 -78.06194457163477 L 400 -82.48075053704261 L 400 -82.4807505370425 L 401 -86.93676580477594 L 401 -86.93676580477583 L 402 -91.42999037483483 L 402 -91.42999037483472 L 403 -95.96042424721932 L 403 -95.96042424721921 L 404 -100.52806742192942 L 404 -100.52806742192931 L 405 -105.13291989896501 L 405 -105.1329198989649 L 406 -109.77498167832627 L 406 -109.77498167832616 L 407 -114.45425276001308 L 407 -114.45425276001296 L 408 -119.1707331440256 L 408 -119.17073314402549 L 409 -123.92442283036357 L 409 -123.92442283036345 L 410 -128.71532181902708 L 410 -128.71532181902703 L 411 -133.54343011001626 L 411 -133.54343011001615 L 412 -138.40874770333093 L 412 -138.40874770333087 L 413 -143.31127459897127 L 413 -143.31127459897115 L 414 -148.25101079693715 L 414 -148.25101079693704 L 415 -153.2279562972286 L 415 -153.22795629722853 L 416 -158.24211109984563 L 416 -158.24211109984557 L 417 -163.2934752047884 L 417 -163.29347520478828 L 418 -168.3820486120566 L 418 -168.38204861205648 L 419 -173.5078313216504 L 419 -173.5078313216503 L 420 -178.67082333356976 L 420 -178.6708233335697 L 421 -183.87102464781472 L 421 -183.8710246478146 L 422 -189.10843526438524 L 422 -189.10843526438512 L 423 -194.38305518328136 L 423 -194.38305518328124 L 424 -199.69488440450303 L 424 -199.69488440450297 L 425 -205.04392292805036 L 425 -205.04392292805025 L 426 -210.4301707539233 L 426 -210.43017075392325 L 427 -215.85362788212174 L 427 -215.85362788212169 L 428 -221.31429431264573 L 428 -221.31429431264567 L 429 -226.81217004549538 L 429 -226.81217004549526 L 430 -232.34725508067058 L 430 -232.34725508067046 L 431 -237.91954941817127 L 431 -237.91954941817121 L 432 -243.52905305799763 L 432 -243.52905305799752 L 433 -249.1757660001496 L 433 -249.17576600014942 L 434 -254.8596882446271 L 434 -254.85968824462688 L 435 -260.58081979143014 L 435 -260.58081979143003 L 436 -266.33916064055904 L 436 -266.3391606405588 L 437 -272.13471079201327 L 437 -272.13471079201315 L 438 -277.96747024579315 L 438 -277.9674702457929 L 439 -283.8374390018985 L 439 -283.83743900189825 L 440 -289.7446170603296 L 440 -289.74461706032935 L 441 -295.6890044210861 L 441 -295.6890044210859 L 442 -301.6706010841683 L 442 -301.6706010841681 L 443 -307.68940704957595 L 443 -307.6894070495757 L 444 -313.74542231730936 L 444 -313.74542231730913 L 445 -319.83864688736844 L 445 -319.8386468873682 L 446 -325.96908075975284 L 446 -325.9690807597527 L 447 -332.1367239344629 L 447 -332.1367239344627 L 448 -338.3415764114985 L 448 -338.3415764114983 L 449 -344.5836381908597 L 449 -344.5836381908596 L 450 -350.8629092725465 L 450 -350.8629092725463 L 451 -357.179389656559 L 451 -357.1793896565588 L 452 -363.53307934289694 L 452 -363.5330793428967 L 453 -369.92397833156053 L 453 -369.9239783315603 L 454 -376.3520866225498 L 454 -376.35208662254956 L 455 -382.8174042158645 L 455 -382.81740421586426 L 456 -389.31993111150473 L 456 -389.3199311115046 L 457 -395.85966730947064 L 457 -395.8596673094704 L 458 -402.4366128097621 L 458 -402.43661280976187 L 459 -409.0507676123791 L 459 -409.050767612379 L 460 -415.7021317173218 L 460 -415.70213171732155 L 461 -422.39070512459 L 461 -422.3907051245898 L 462 -429.11648783418366 L 462 -429.11648783418354 L 463 -435.8794798461032 L 463 -435.8794798461031 L 464 -442.6796811603482 L 464 -442.67968116034797 L 465 -449.51709177691873 L 465 -449.5170917769185 L 466 -456.39171169581493 L 466 -456.3917116958147 L 467 -463.30354091703657 L 467 -463.30354091703634 L 468 -470.25257944058376 L 468 -470.25257944058365 L 469 -477.2388272664566 L 469 -477.2388272664564 L 470 -484.2622843946551 L 470 -484.2622843946549 L 471 -491.3229508251791 L 471 -491.32295082517896 L 472 -498.4208265580288 L 472 -498.4208265580287 L 473 -505.5559115932041 L 473 -505.55591159320386 L 474 -512.7282059307048 L 474 -512.7282059307047 L 475 -519.9377095705312 L 475 -519.937709570531 L 476 -527.1844225126831 L 476 -527.1844225126829 L 477 -534.4683447571606 L 477 -534.4683447571604 L 478 -541.7894763039637 L 478 -541.7894763039635 L 479 -549.1478171530923 L 479 -549.1478171530921 L 479.99999999999994 -556.5433673045466 L 479.99999999999994 -556.5433673045463 L 481 -563.9761267583266 L 481 -563.9761267583264 L 482 -571.446095514432 L 482 -571.4460955144318 L 482.99999999999994 -578.9532735728628 L 482.99999999999994 -578.9532735728627 L 484 -586.4976609336196 L 484 -586.4976609336194 L 484.99999999999994 -594.0792575967015 L 484.99999999999994 -594.0792575967014 L 486 -601.6980635621094 L 486 -601.6980635621093 L 487 -609.3540788298429 L 487 -609.3540788298428 L 488 -617.0473033999017 L 488 -617.0473033999015 L 489 -624.7777372722863 L 489 -624.7777372722861 L 489.99999999999994 -632.5453804469962 L 489.99999999999994 -632.5453804469961 L 491 -640.3502329240321 L 491 -640.3502329240318 L 491.99999999999994 -648.1922947033931 L 491.99999999999994 -648.1922947033929 L 493 -656.0715657850801 L 493 -656.0715657850799 L 493.99999999999994 -663.9880461690923 L 493.99999999999994 -663.9880461690921 L 495 -671.9417358554305 L 495 -671.9417358554302 L 496 -679.9326348440942 L 496 -679.9326348440937 L 497 -687.9607431350832 L 497 -687.9607431350829 L 498 -696.0260607283982 L 498 -696.0260607283979 L 498.99999999999994 -704.1285876240381 L 498.99999999999994 -704.1285876240378 L 500 -712.2683238220042 L 500 -712.2683238220038 L 500.99999999999994 -720.4452693222955 L 500.99999999999994 -720.4452693222952 L 502 -728.6594241249128 L 502 -728.6594241249124 L 502.99999999999994 -736.9107882298551 L 502.99999999999994 -736.9107882298548 L 504 -745.1993616371235 L 504 -745.199361637123 L 505 -753.5251443467175 L 505 -753.5251443467172 L 506 -761.8881363586366 L 506 -761.8881363586363 L 507 -770.2883376728818 L 507 -770.2883376728814 L 507.99999999999994 -778.7257482894521 L 507.99999999999994 -778.7257482894518 L 509 -787.2003682083484 L 509 -787.200368208348 L 509.99999999999994 -795.7121974295699 L 509.99999999999994 -795.7121974295695 L 511 -804.2612359531174 L 511 -804.261235953117 L 511.99999999999994 -812.8474837789901 L 511.99999999999994 -812.8474837789897 L 513 -821.4709409071888 L 513 -821.4709409071884 L 514 -830.1316073377129 L 514 -830.1316073377125 L 515 -838.8294830705624 L 515 -838.829483070562 L 516 -847.5645681057377 L 516 -847.5645681057373 L 517 -856.3368624432381 L 517 -856.3368624432379 L 518 -865.1463660830649 L 518 -865.1463660830644 L 519 -873.9930790252166 L 519 -873.9930790252162 L 520 -882.8770012696942 L 520 -882.877001269694 L 521 -891.7981328164971 L 521 -891.7981328164966 L 522 -900.7564736656258 L 522 -900.7564736656255 L 523 -909.7520238170804 L 523 -909.7520238170799 L 524 -918.78478327086 L 524 -918.7847832708597 L 525 -927.8547520269657 L 525 -927.8547520269655 L 526 -936.9619300853964 L 526 -936.9619300853961 L 527 -946.1063174461532 L 527 -946.1063174461527 L 528 -955.2879141092352 L 528 -955.2879141092347 L 529 -964.5067200746431 L 529 -964.5067200746427 L 530 -973.7627353423762 L 530 -973.7627353423758 L 531 -983.0559599124352 L 531 -983.0559599124348 L 532 -992.3863937848199 L 532 -992.3863937848195 L 533 -1001.7540369595298" stroke-opacity="0.6980392156862745" stroke-linecap="round" stroke-linejoin="round" stroke-miterlimit="10" stroke-width="2.5"/><g transform="scale(19,19)"><g transform="translate(9.894736842105264,1.9689551578947369)"><path fill="rgb(0,100,0)" stroke="none" paint-order="stroke fill markers" d=" M 0.334 -0.302 L 0.3 -0.165 Q 0.28300000000000003 -0.097 0.28300000000000003 -0.077 Q 0.28300000000000003 -0.025 0.32 -0.014 Q 0.328 -0.011 0.338 -0.011 Q 0.388 -0.011 0.429 -0.061 Q 0.456 -0.093 0.47100000000000003 -0.14200000000000002 Q 0.47400000000000003 -0.153 0.484 -0.153 Q 0.496 -0.153 0.496 -0.14300000000000002 Q 0.496 -0.11800000000000001 0.465 -0.07100000000000001 Q 0.41100000000000003 0.011 0.336 0.011 Q 0.268 0.011 0.23700000000000002 -0.046 Q 0.231 -0.055 0.228 -0.065 Q 0.20400000000000001 -0.017 0.162 0.002 Q 0.14300000000000002 0.011 0.123 0.011 Q 0.063 0.011 0.039 -0.024 Q 0.029 -0.037 0.029 -0.055 Q 0.029 -0.092 0.061 -0.107 Q 0.07200000000000001 -0.113 0.084 -0.113 Q 0.114 -0.113 0.12 -0.088 Q 0.121 -0.083 0.121 -0.078 Q 0.121 -0.044 0.08700000000000001 -0.028 Q 0.081 -0.025 0.074 -0.024 Q 0.095 -0.011 0.124 -0.011 Q 0.177 -0.011 0.20800000000000002 -0.082 Q 0.214 -0.097 0.219 -0.115 Q 0.273 -0.319 0.273 -0.353 Q 0.267 -0.41500000000000004 0.219 -0.42 Q 0.167 -0.42 0.124 -0.367 L 0.124 -0.366 Q 0.124 -0.365 0.123 -0.365 Q 0.108 -0.34500000000000003 0.096 -0.319 Q 0.091 -0.307 0.08700000000000001 -0.295 L 0.085 -0.289 Q 0.083 -0.278 0.07200000000000001 -0.278 Q 0.06 -0.278 0.06 -0.28800000000000003 Q 0.06 -0.313 0.092 -0.36 Q 0.146 -0.442 0.221 -0.442 Q 0.298 -0.442 0.329 -0.366 Q 0.361 -0.428 0.41400000000000003 -0.44 Q 0.424 -0.442 0.434 -0.442 Q 0.493 -0.442 0.517 -0.40900000000000003 Q 0.527 -0.395 0.527 -0.376 Q 0.527 -0.335 0.49 -0.321 Q 0.481 -0.318 0.47300000000000003 -0.318 Q 0.442 -0.318 0.436 -0.34500000000000003 Q 0.435 -0.34900000000000003 0.435 -0.353 Q 0.435 -0.383 0.464 -0.4 Q 0.47300000000000003 -0.405 0.483 -0.40700000000000003 Q 0.462 -0.42 0.433 -0.42 Q 0.365 -0.42 0.337 -0.314 Q 0.335 -0.308 0.334 -0.302 Z"/></g><g transform="translate(10.466736842105263,1.5560631578947368) scale(0.7,0.7)"><path fill="rgb(0,100,0)" stroke="none" paint-order="stroke fill markers" d=" M 0.449 -0.17400000000000002 L 0.449 -0.17400000000000002 L 0.421 0 L 0.05 0 Q 0.05 -0.025 0.056 -0.032 L 0.061 -0.037 L 0.253 -0.251 Q 0.358 -0.369 0.358 -0.47200000000000003 Q 0.358 -0.561 0.304 -0.607 L 0.303 -0.608 L 0.302 -0.608 Q 0.27 -0.635 0.224 -0.635 Q 0.152 -0.635 0.109 -0.5730000000000001 Q 0.097 -0.555 0.089 -0.533 Q 0.092 -0.534 0.10200000000000001 -0.534 Q 0.14200000000000002 -0.534 0.153 -0.498 L 0.153 -0.497 Q 0.155 -0.49 0.155 -0.482 Q 0.155 -0.442 0.117 -0.431 Q 0.109 -0.429 0.10300000000000001 -0.429 Q 0.066 -0.429 0.054 -0.46 Q 0.05 -0.47100000000000003 0.05 -0.485 Q 0.05 -0.562 0.109 -0.617 Q 0.162 -0.666 0.23700000000000002 -0.666 Q 0.34700000000000003 -0.666 0.40800000000000003 -0.592 Q 0.443 -0.549 0.448 -0.49 Q 0.449 -0.481 0.449 -0.47200000000000003 Q 0.449 -0.399 0.394 -0.333 Q 0.365 -0.299 0.304 -0.243 L 0.243 -0.189 L 0.233 -0.18 L 0.127 -0.077 L 0.307 -0.077 Q 0.395 -0.077 0.402 -0.085 Q 0.41200000000000003 -0.099 0.424 -0.17400000000000002 L 0.449 -0.17400000000000002 Z"/></g></g><path fill="none" stroke="rgb(204,0,0)" paint-order="fill stroke markers" d=" M 217.7288951592728 -10.000000000000002 L 218 -3.2246518841571685 L 218 -3.2246518841572254 L 219 19.128980160515653 L 219 19.128980160515624 L 220 39.086997733640715 L 220 39.08699773364066 L 221 56.872921681385336 L 221 56.87292168138529 L 222 72.69261549060266 L 222 72.6926154906026 L 223 86.73541931661349 L 223 86.73541931661347 L 224 99.17522848462363 L 224 99.1752284846236 L 225 110.17151830775198 L 225 110.17151830775195 L 226 119.87031703354161 L 226 119.8703170335416 L 227 128.40512869971164 L 227 128.40512869971164 L 228 135.89780764880524 L 228 135.89780764880524 L 229 142.45938642027912 L 229 142.45938642027912 L 230 148.19085870747062 L 230 148.19085870747062 L 231 153.18391903577347 L 231 153.18391903577347 L 232 157.52166078724218 L 232 157.52166078724218 L 233 161.27923416574015 L 233 161.27923416574015 L 234 164.52446566563572 L 234 164.52446566563572 L 235 167.31844057594515 L 235 167.31844057594515 L 236 169.71605002071138 L 236 169.71605002071138 L 237 171.7665040053007 L 237 171.7665040053007 L 238 173.51381190719147 L 238 173.51381190719147 L 239 174.99723181872045 L 239 174.99723181872045 L 240 176.25169011814495 L 240 176.25169011814495 L 241 177.30817261427097 L 241 177.30817261427097 L 242 178.19408857878906 L 242 178.19408857878906 L 243 178.93360894935265 L 243 178.93360894935265 L 244 179.5479799553247 L 244 179.5479799553247 L 245 180.05581338701114 L 245 180.05581338701114 L 246 180.47335469809136 L 246 180.47335469809136 L 247 180.8147300998484 L 247 180.8147300998484 L 248 181.09217377469312 L 248 181.09217377469312 L 249 181.316236305369 L 249 181.316236305369 L 250 181.49597538511628 L 250 181.49597538511628 L 251 181.63912984296587 L 251 181.63912984296587 L 252 181.752277987226 L 252 181.752277987226 L 253 181.84098123911642 L 253 181.84098123911642 L 254 181.9099139973967 L 254 181.9099139973967 L 255 181.96298064372806 L 255 181.96298064372806 L 256 182.00342056739913 L 256 182.00342056739913 L 257 182.0339020569392 L 257 182.0339020569392 L 258 182.05660587503385 L 258 182.05660587503385 L 259 182.07329930204986 L 259 182.07329930204986 L 260 182.0854014023692 L 260 182.0854014023692 L 261 182.09404023662285 L 261 182.09404023662285 L 262 182.10010271180818 L 262 182.10010271180818 L 263 182.10427773016494 L 263 182.10427773016494 L 264 182.10709326657778 L 264 182.10709326657778 L 265 182.10894797316413 L 265 182.10894797316413 L 266 182.11013787860017 L 266 182.11013787860017 L 267 182.11087871862694 L 267 182.11087871862694 L 268 182.11132440307406 L 268 182.11132440307406 L 269 182.11158209362736 L 269 182.11158209362736 L 270 182.11172433546116 L 270 182.11172433546116 L 271 182.11179865474668 L 271 182.11179865474668 L 272 182.11183500294064 L 272 182.11183500294064 L 273 182.1118513976502 L 273 182.1118513976502 L 274 182.111858078762 L 274 182.111858078762 L 275 182.11186046741562 L 275 182.11186046741562 L 276 182.11186118429396 L 276 182.11186118429396 L 277 182.111861352594 L 277 182.111861352594 L 278 182.11186137993516 L 278 182.11186137993516 L 279 182.11186138235308 L 279 182.11186138235308 L 280 182.1118613824192 L 280 182.1118613824192 L 281 182.11186138241928 L 281 182.11186138241928 L 282 182.11186138241453 L 282 182.11186138241453 L 283 182.11186138190268 L 283 182.11186138190268 L 284 182.1118613726874 L 284 182.1118613726874 L 285 182.1118612994567 L 285 182.1118612994567 L 286 182.1118609334633 L 286 182.1118609334633 L 287 182.11185957359183 L 287 182.11185957359183 L 288 182.11185545798963 L 288 182.11185545798963 L 289 182.1118447383302 L 289 182.1118447383302 L 290 182.11181983767054 L 290 182.11181983767054 L 291 182.11176698175512 L 291 182.11176698175512 L 292 182.111662662512 L 292 182.111662662512 L 293 182.11146876137795 L 293 182.11146876137795 L 294 182.1111260289824 L 294 182.1111260289824 L 295 182.11054558661095 L 295 182.11054558661095 L 296 182.10959808376234 L 296 182.10959808376234 L 297 182.10810011500396 L 297 182.10810011500396 L 298 182.10579746822384 L 298 182.10579746822384 L 299 182.10234474526834 L 299 182.10234474526834 L 300 182.09728086484748 L 300 182.09728086484748 L 301 182.08999992648125 L 301 182.08999992648125 L 302 182.0797168831532 L 302 182.0797168831532 L 303 182.0654274392287 L 303 182.0654274392287 L 304 182.04586155908785 L 304 182.04586155908785 L 305 182.01942994081537 L 305 182.01942994081537 L 306 181.98416277818063 L 306 181.98416277818063 L 307 181.93764010303516 L 307 181.93764010303516 L 308 181.87691296914434 L 308 181.87691296914434 L 309 181.79841470736483 L 309 181.79841470736483 L 310 181.6978614509688 L 310 181.6978614509688 L 311 181.5701410988103 L 311 181.5701410988103 L 312 181.40918985291938 L 312 181.40918985291938 L 313 181.20785543600286 L 313 181.20785543600286 L 314 180.95774606322206 L 314 180.95774606322206 L 315 180.64906421151002 L 315 180.64906421151002 L 316 180.270424198583 L 316 180.270424198583 L 317 179.80865255269285 L 317 179.80865255269285 L 318 179.24857012305893 L 318 179.24857012305893 L 319 178.5727548498104 L 319 178.5727548498104 L 320 177.7612840811619 L 320 177.7612840811619 L 321 176.7914552944374 L 321 176.7914552944374 L 322 175.63748404644923 L 322 175.63748404644923 L 323 174.27017794763123 L 323 174.27017794763123 L 324 172.65658542321745 L 324 172.65658542321745 L 325 170.75961799364933 L 325 170.75961799364933 L 326 168.53764477528637 L 326 168.53764477528637 L 327 165.94405787138817 L 327 165.94405787138817 L 328 162.92680729222658 L 328 162.92680729222658 L 329 159.42790401207998 L 329 159.42790401207998 L 330 155.38288973975227 L 330 155.38288973975227 L 331 150.7202719481533 L 331 150.72027194815334 L 332 145.36092267736723 L 332 145.36092267736723 L 333 139.2174395945289 L 333 139.21743959452894 L 334 132.1934677627208 L 334 132.1934677627208 L 335 124.18298053999192 L 335 124.18298053999195 L 336 115.06951799849783 L 336 115.06951799849784 L 337 104.7253812226465 L 337 104.72538122264652 L 338 93.01078081403274 L 338 93.01078081403277 L 339 79.77293789983032 L 339 79.77293789983034 L 340 64.84513591020863 L 340 64.84513591020867 L 341 48.04572135922834 L 341 48.04572135922837 L 342 29.17705183256453 L 342 29.177051832564587 L 343 8.02438935429879 L 343 8.024389354298847 L 343.76149785780893 -10" stroke-opacity="0.6980392156862745" stroke-linecap="round" stroke-linejoin="round" stroke-miterlimit="10" stroke-width="2.5"/><g transform="scale(19,19)"><g transform="translate(11.68421052631579,1.9689551578947369)"><path fill="rgb(204,0,0)" stroke="none" paint-order="stroke fill markers" d=" M 0.334 -0.302 L 0.3 -0.165 Q 0.28300000000000003 -0.097 0.28300000000000003 -0.077 Q 0.28300000000000003 -0.025 0.32 -0.014 Q 0.328 -0.011 0.338 -0.011 Q 0.388 -0.011 0.429 -0.061 Q 0.456 -0.093 0.47100000000000003 -0.14200000000000002 Q 0.47400000000000003 -0.153 0.484 -0.153 Q 0.496 -0.153 0.496 -0.14300000000000002 Q 0.496 -0.11800000000000001 0.465 -0.07100000000000001 Q 0.41100000000000003 0.011 0.336 0.011 Q 0.268 0.011 0.23700000000000002 -0.046 Q 0.231 -0.055 0.228 -0.065 Q 0.20400000000000001 -0.017 0.162 0.002 Q 0.14300000000000002 0.011 0.123 0.011 Q 0.063 0.011 0.039 -0.024 Q 0.029 -0.037 0.029 -0.055 Q 0.029 -0.092 0.061 -0.107 Q 0.07200000000000001 -0.113 0.084 -0.113 Q 0.114 -0.113 0.12 -0.088 Q 0.121 -0.083 0.121 -0.078 Q 0.121 -0.044 0.08700000000000001 -0.028 Q 0.081 -0.025 0.074 -0.024 Q 0.095 -0.011 0.124 -0.011 Q 0.177 -0.011 0.20800000000000002 -0.082 Q 0.214 -0.097 0.219 -0.115 Q 0.273 -0.319 0.273 -0.353 Q 0.267 -0.41500000000000004 0.219 -0.42 Q 0.167 -0.42 0.124 -0.367 L 0.124 -0.366 Q 0.124 -0.365 0.123 -0.365 Q 0.108 -0.34500000000000003 0.096 -0.319 Q 0.091 -0.307 0.08700000000000001 -0.295 L 0.085 -0.289 Q 0.083 -0.278 0.07200000000000001 -0.278 Q 0.06 -0.278 0.06 -0.28800000000000003 Q 0.06 -0.313 0.092 -0.36 Q 0.146 -0.442 0.221 -0.442 Q 0.298 -0.442 0.329 -0.366 Q 0.361 -0.428 0.41400000000000003 -0.44 Q 0.424 -0.442 0.434 -0.442 Q 0.493 -0.442 0.517 -0.40900000000000003 Q 0.527 -0.395 0.527 -0.376 Q 0.527 -0.335 0.49 -0.321 Q 0.481 -0.318 0.47300000000000003 -0.318 Q 0.442 -0.318 0.436 -0.34500000000000003 Q 0.435 -0.34900000000000003 0.435 -0.353 Q 0.435 -0.383 0.464 -0.4 Q 0.47300000000000003 -0.405 0.483 -0.40700000000000003 Q 0.462 -0.42 0.433 -0.42 Q 0.365 -0.42 0.337 -0.314 Q 0.335 -0.308 0.334 -0.302 Z"/></g><g transform="translate(12.256210526315789,1.5560631578947368) scale(0.7,0.7)"><path fill="rgb(204,0,0)" stroke="none" paint-order="stroke fill markers" d=" M 0.163 -0.457 L 0.28700000000000003 -0.377 Q 0.386 -0.435 0.386 -0.517 Q 0.386 -0.583 0.326 -0.62 Q 0.291 -0.641 0.249 -0.641 Q 0.177 -0.641 0.136 -0.596 L 0.136 -0.596 L 0.135 -0.595 Q 0.113 -0.5690000000000001 0.113 -0.538 Q 0.113 -0.49 0.163 -0.457 M 0.309 -0.362 L 0.309 -0.362 Q 0.386 -0.314 0.403 -0.296 Q 0.406 -0.294 0.40800000000000003 -0.291 Q 0.457 -0.23700000000000002 0.457 -0.168 Q 0.457 -0.079 0.383 -0.023 Q 0.325 0.022 0.249 0.022 Q 0.154 0.022 0.092 -0.037 Q 0.042 -0.085 0.042 -0.151 Q 0.042 -0.263 0.186 -0.335 Q 0.124 -0.377 0.113 -0.389 Q 0.069 -0.438 0.069 -0.499 Q 0.069 -0.579 0.136 -0.629 Q 0.186 -0.666 0.25 -0.666 Q 0.337 -0.666 0.391 -0.611 Q 0.43 -0.5710000000000001 0.43 -0.517 Q 0.43 -0.424 0.309 -0.362 M 0.209 -0.32 L 0.209 -0.32 Q 0.097 -0.25 0.092 -0.151 Q 0.092 -0.078 0.155 -0.035 Q 0.197 -0.006 0.25 -0.006 Q 0.328 -0.006 0.375 -0.055 Q 0.40700000000000003 -0.089 0.40700000000000003 -0.132 Q 0.40700000000000003 -0.19 0.343 -0.23500000000000001 Q 0.341 -0.23600000000000002 0.332 -0.242 L 0.209 -0.32 Z"/></g></g><path fill="none" stroke="rgb(0,0,255)" paint-order="fill stroke markers" d=" M 1 155.83640071728504 L 1 156.71326788517862 L 1 156.71326788517862 L 2.000000000000057 157.59892609199846 L 2.000000000000057 157.59892609199846 L 3 158.49306879101505 L 3 158.49306879101502 L 4.000000000000057 159.39538649882044 L 4.000000000000057 159.39538649882041 L 5 160.30556690244757 L 5 160.30556690244757 L 6.000000000000057 161.22329496746917 L 6.000000000000057 161.22329496746914 L 7 162.1482530470381 L 7 162.14825304703808 L 8.000000000000057 163.08012099183267 L 8.000000000000057 163.08012099183267 L 9 164.0185762608673 L 9 164.0185762608673 L 10 164.96329403313175 L 10 164.96329403313172 L 11.000000000000057 165.91394732001882 L 11.000000000000057 165.91394732001882 L 12 166.87020707850292 L 12 166.87020707850292 L 13.000000000000057 167.83174232502938 L 13.000000000000057 167.83174232502938 L 14 168.79822025007536 L 14 168.79822025007536 L 15.000000000000057 169.76930633334314 L 15.000000000000057 169.76930633334314 L 16 170.74466445954496 L 16 170.74466445954496 L 17.000000000000057 171.72395703474075 L 17.000000000000057 171.72395703474075 L 18 172.70684510318665 L 18 172.70684510318665 L 19 173.6929884646559 L 19 173.69298846465588 L 20.000000000000057 174.6820457921896 L 20.000000000000057 174.6820457921896 L 21 175.67367475023798 L 21 175.67367475023795 L 22.000000000000057 176.6675321131508 L 22.000000000000057 176.6675321131508 L 23 177.66327388397534 L 23 177.66327388397534 L 24.000000000000057 178.660555413522 L 24.000000000000057 178.660555413522 L 25 179.659031519655 L 25 179.659031519655 L 26.00000000000003 180.65835660676825 L 26.00000000000003 180.65835660676825 L 27 181.6581847854036 L 27 181.6581847854036 L 28.00000000000003 182.65816999197142 L 28.00000000000003 182.65816999197142 L 29.000000000000057 183.65796610853107 L 29.000000000000057 183.65796610853107 L 30.00000000000003 184.65722708259025 L 30.00000000000003 184.65722708259025 L 31.00000000000003 185.65560704688198 L 31.00000000000003 185.65560704688198 L 32 186.6527604390769 L 32 186.6527604390769 L 33.00000000000003 187.64834212139067 L 33.00000000000003 187.64834212139067 L 34 188.6420075000439 L 34 188.6420075000439 L 35.00000000000003 189.63341264453416 L 35.00000000000003 189.63341264453416 L 36 190.62221440667807 L 36 190.62221440667807 L 37.00000000000003 191.60807053938314 L 37.00000000000003 191.60807053938314 L 38.00000000000006 192.5906398151069 L 38.00000000000006 192.5906398151069 L 39.00000000000003 193.569582143964 L 39.00000000000003 193.569582143964 L 40.00000000000003 194.54455869143908 L 40.00000000000003 194.54455869143908 L 41 195.5152319956651 L 41 195.5152319956651 L 42.00000000000003 196.4812660842268 L 42.00000000000003 196.4812660842268 L 43 197.44232659044837 L 43 197.44232659044837 L 44.00000000000003 198.39808086912566 L 44.00000000000003 198.39808086912566 L 45 199.3481981116621 L 45 199.3481981116621 L 46.00000000000003 200.29234946056948 L 46.00000000000003 200.29234946056948 L 47.00000000000006 201.23020812329284 L 47.00000000000006 201.23020812329284 L 48.00000000000003 202.161449485321 L 48.00000000000003 202.161449485321 L 49.00000000000003 203.08575122254325 L 49.00000000000003 203.08575122254325 L 50 204.00279341281302 L 50 204.002793412813 L 50.99999999999997 204.9122586466803 L 50.99999999999997 204.9122586466803 L 52 205.81383213725462 L 52 205.8138321372546 L 53.00000000000003 206.70720182915957 L 53.00000000000003 206.70720182915957 L 54.00000000000006 207.59205850654283 L 54.00000000000006 207.59205850654283 L 55.00000000000003 208.46809590010264 L 55.00000000000003 208.46809590010264 L 56 209.33501079309482 L 56 209.33501079309482 L 57.00000000000003 210.19250312628304 L 57.00000000000003 210.19250312628304 L 58.00000000000003 211.0402761017961 L 58.00000000000003 211.0402761017961 L 59 211.87803628585667 L 59 211.87803628585667 L 59.99999999999997 212.70549371034548 L 59.99999999999997 212.70549371034545 L 61 213.52236197316594 L 61 213.5223619731659 L 62.00000000000003 214.32835833737448 L 62.00000000000003 214.32835833737448 L 63.00000000000006 215.12320382904238 L 63.00000000000006 215.12320382904238 L 64.00000000000003 215.90662333381496 L 64.00000000000003 215.90662333381496 L 65 216.67834569213528 L 65 216.67834569213528 L 66.00000000000003 217.43810379309843 L 66.00000000000003 217.43810379309843 L 67 218.18563466690483 L 67 218.18563466690483 L 68 218.9206795758803 L 68 218.92067957588029 L 69 219.64298410403097 L 69 219.64298410403097 L 70.00000000000003 220.3522982451026 L 70.00000000000003 220.35229824510256 L 71.00000000000003 221.04837648911337 L 71.00000000000003 221.04837648911337 L 72.00000000000003 221.7309779073309 L 72.00000000000003 221.7309779073309 L 73.00000000000003 222.39986623566278 L 73.00000000000003 222.39986623566278 L 74.00000000000003 223.05480995643342 L 74.00000000000003 223.05480995643342 L 75 223.69558237851734 L 75 223.69558237851734 L 76 224.32196171580244 L 76 224.32196171580244 L 77 224.93373116395517 L 77 224.93373116395514 L 78 225.53067897546148 L 78 225.53067897546146 L 79.00000000000003 226.11259853291762 L 79.00000000000003 226.1125985329176 L 80.00000000000003 226.67928842054505 L 80.00000000000003 226.67928842054505 L 81.00000000000003 227.2305524939053 L 81.00000000000003 227.2305524939053 L 82.00000000000003 227.76619994778986 L 82.00000000000003 227.76619994778983 L 83.00000000000003 228.28604538226233 L 83.00000000000003 228.28604538226233 L 84 228.78990886682976 L 84 228.78990886682976 L 85 229.2776160027205 L 85 229.2776160027205 L 86 229.74899798324782 L 86 229.74899798324782 L 87 230.2038916522377 L 87 230.2038916522377 L 88.00000000000003 230.64213956050105 L 88.00000000000003 230.64213956050105 L 89.00000000000003 231.06359002033034 L 89.00000000000003 231.06359002033034 L 90.00000000000003 231.46809715800237 L 90.00000000000003 231.46809715800237 L 91.00000000000003 231.85552096426844 L 91.00000000000003 231.85552096426844 L 92.00000000000003 232.22572734281482 L 92.00000000000003 232.22572734281482 L 93 232.57858815667663 L 93 232.57858815667663 L 94 232.91398127258879 L 94 232.91398127258879 L 95 233.2317906032594 L 95 233.2317906032594 L 96 233.53190614755016 L 96 233.53190614755016 L 97.00000000000003 233.8142240285502 L 97.00000000000003 233.8142240285502 L 98.00000000000003 234.07864652953037 L 98.00000000000003 234.07864652953035 L 99.00000000000003 234.3250821277652 L 99.00000000000003 234.3250821277652 L 100.00000000000003 234.55344552621116 L 100.00000000000003 234.55344552621114 L 101.00000000000003 234.76365768302972 L 101.00000000000003 234.7636576830297 L 102 234.95564583894568 L 102 234.95564583894568 L 103 235.1293435424309 L 103 235.1293435424309 L 104 235.28469067270453 L 104 235.2846906727045 L 105 235.4216334605423 L 105 235.4216334605423 L 106 235.54012450688734 L 106 235.54012450688734 L 107.00000000000003 235.64012279925598 L 107.00000000000003 235.64012279925595 L 108.00000000000003 235.72159372593313 L 108.00000000000003 235.72159372593313 L 109.00000000000003 235.78450908795233 L 109.00000000000003 235.7845090879523 L 110 235.82884710885585 L 110 235.82884710885583 L 111 235.8545924422322 L 111 235.8545924422322 L 112 235.86186138241933 L 112 235.86173617702775 L 113 235.85027584063118 L 113 235.85027584063118 L 114 235.82021539972922 L 114 235.82021539972922 L 115 235.77156525893363 L 115 235.77156525893366 L 116.00000000000003 235.70434225718012 L 116.00000000000003 235.70434225718014 L 117.00000000000003 235.61856966189978 L 117.00000000000003 235.6185696618998 L 118.00000000000003 235.5142771609659 L 118.00000000000003 235.5142771609659 L 119 235.39150085241806 L 119 235.39150085241806 L 120 235.25028323196804 L 120 235.25028323196807 L 121 235.0906731782909 L 121 235.09067317829093 L 122 234.912725936107 L 122 234.912725936107 L 123 234.7165030970604 L 123 234.71650309706044 L 124 234.50207257840094 L 124 234.50207257840094 L 125.00000000000003 234.269508599476 L 125.00000000000003 234.269508599476 L 126.00000000000003 234.0188916560419 L 126.00000000000003 234.0188916560419 L 127.00000000000003 233.75030849240218 L 127.00000000000003 233.7503084924022 L 128 233.46385207138363 L 128 233.46385207138366 L 129 233.15962154215953 L 129 233.15962154215953 L 130 232.83772220593187 L 130 232.83772220593187 L 131 232.49826547948425 L 131 232.49826547948425 L 132 232.1413688566179 L 132 232.14136885661793 L 133 231.7671558674844 L 133 231.76715586748443 L 134.00000000000003 231.37575603582903 L 134.00000000000003 231.37575603582903 L 135.00000000000003 230.96730483415956 L 135.00000000000003 230.96730483415956 L 136.00000000000003 230.5419436368562 L 136.00000000000003 230.54194363685622 L 137 230.09981967123858 L 137 230.0998196712386 L 138 229.64108596660702 L 138 229.64108596660702 L 139 229.16590130127557 L 139 229.1659013012756 L 140 228.6744301476151 L 140 228.6744301476151 L 141 228.16684261512574 L 141 228.16684261512574 L 142 227.64331439155796 L 142 227.64331439155796 L 143.00000000000003 227.10402668210295 L 143.00000000000003 227.10402668210298 L 144.00000000000003 226.54916614667357 L 144.00000000000003 226.54916614667357 L 145 225.9789248352967 L 145 225.9789248352967 L 146 225.39350012164056 L 146 225.39350012164059 L 147 224.79309463469903 L 147 224.79309463469903 L 148 224.1779161886571 L 148 224.1779161886571 L 149 223.5481777109615 L 149 223.5481777109615 L 150 222.90409716862186 L 150 222.90409716862186 L 151 222.24589749276697 L 151 222.24589749276697 L 152.00000000000003 221.57380650148338 L 152.00000000000003 221.57380650148338 L 153 220.88805682096228 L 153 220.88805682096228 L 154 220.18888580498216 L 154 220.18888580498216 L 155 219.47653545275523 L 155 219.47653545275526 L 156 218.75125232516592 L 156 218.75125232516595 L 157 218.01328745943044 L 157 218.01328745943044 L 158 217.262896282207 L 158 217.26289628220704 L 159.00000000000003 216.50033852118685 L 159.00000000000003 216.50033852118685 L 160 215.7258781151964 L 160 215.7258781151964 L 161 214.93978312284193 L 161 214.93978312284196 L 162 214.14232562972856 L 162 214.14232562972856 L 163 213.33378165428468 L 163 213.33378165428468 L 164 212.51443105222614 L 164 212.51443105222614 L 165 211.6845574196913 L 165 211.6845574196913 L 166 210.84444799508205 L 166 210.84444799508205 L 167 209.9943935596441 L 167 209.99439355964412 L 168.00000000000003 209.1346883368206 L 168.00000000000003 209.1346883368206 L 169 208.26562989041486 L 169 208.26562989041486 L 170 207.3875190215965 L 170 207.3875190215965 L 171 206.50065966478738 L 171 206.50065966478738 L 172 205.60535878246267 L 172 205.60535878246267 L 173 204.70192625890436 L 173 204.7019262589044 L 174 203.79067479294287 L 174 203.79067479294287 L 175 202.87191978972493 L 175 202.87191978972493 L 176 201.9459792515446 L 176 201.9459792515446 L 177 201.01317366777516 L 177 201.0131736677752 L 178 200.07382590394073 L 178 200.07382590394076 L 179 199.12826108996455 L 179 199.12826108996455 L 180 198.17680650763447 L 180 198.17680650763447 L 181 197.21979147732284 L 181 197.21979147732284 L 182 196.2575472440015 L 182 196.2575472440015 L 183 195.29040686258978 L 183 195.29040686258978 L 184 194.31870508267698 L 184 194.31870508267698 L 185 193.34277823265757 L 185 193.34277823265757 L 186 192.36296410332017 L 186 192.36296410332017 L 187 191.37960183093034 L 187 191.37960183093034 L 188 190.39303177984795 L 188 190.39303177984795 L 189 189.40359542471901 L 189 189.40359542471901 L 190 188.41163523228334 L 190 188.41163523228334 L 191 187.4174945428392 L 191 187.4174945428392 L 192 186.42151745140498 L 192 186.421517451405 L 193 185.42404868862036 L 193 185.42404868862036 L 194 184.42543350142674 L 194 184.42543350142674 L 195 183.42601753356945 L 195 183.42601753356945 L 196 182.42614670596245 L 196 182.42614670596245 L 197 181.42616709695724 L 197 181.42616709695724 L 198 180.4264248225571 L 198 180.4264248225571 L 199 179.4272659166181 L 199 179.4272659166181 L 200 178.4290362110793 L 200 178.4290362110793 L 201 177.43208121626188 L 201 177.4320812162619 L 202 176.43674600128037 L 202 176.4367460012804 L 203 175.44337507460617 L 203 175.44337507460617 L 204 174.452312264825 L 204 174.452312264825 L 205 173.46390060163026 L 205 173.46390060163026 L 206 172.47848219709232 L 206 172.47848219709232 L 207 171.4963981272458 L 207 171.4963981272458 L 208 170.51798831403505 L 208 170.51798831403505 L 209 169.54359140765956 L 209 169.54359140765956 L 210 168.57354466935914 L 210 168.57354466935917 L 211 167.6081838546802 L 211 167.6081838546802 L 212 166.64784309726292 L 212 166.64784309726292 L 213 165.6928547931898 L 213 165.6928547931898 L 214 164.74354948593586 L 214 164.74354948593586 L 215 163.80025575195987 L 215 163.80025575195987 L 216 162.86330008697652 L 216 162.86330008697652 L 217 161.93300679294848 L 217 161.9330067929485 L 218 161.00969786583843 L 218 161.00969786583843 L 219 160.09369288415837 L 219 160.09369288415837 L 220 159.18530889835645 L 220 159.18530889835645 L 221 158.2848603210785 L 221 158.2848603210785 L 222 157.39265881834226 L 222 157.39265881834226 L 223 156.50901320166287 L 223 156.5090132016629 L 224 155.63422932116606 L 224 155.6342293211661 L 225 154.7686099597263 L 225 154.76860995972632 L 226 153.91245472816652 L 226 153.91245472816655 L 227 153.06605996155628 L 227 153.06605996155628 L 228 152.2297186166429 L 228 152.2297186166429 L 229 151.40372017045277 L 229 151.40372017045277 L 230 150.5883505200965 L 230 150.5883505200965 L 231 149.78389188381323 L 231 149.78389188381323 L 232 148.9906227032887 L 232 148.9906227032887 L 233 148.20881754727975 L 233 148.20881754727975 L 234 147.43874701658018 L 234 147.43874701658018 L 235 146.6806776503592 L 235 146.6806776503592 L 236 145.93487183390636 L 236 145.93487183390636 L 237 145.20158770781364 L 237 145.20158770781364 L 238 144.48107907862746 L 238 144.4810790786275 L 239 143.77359533100002 L 239 143.77359533100002 L 240 143.07938134137163 L 240 143.07938134137163 L 241 142.3986773932133 L 241 142.39867739321332 L 242 141.73171909385928 L 242 141.73171909385928 L 243 141.07873729295773 L 243 141.07873729295773 L 244 140.43995800256823 L 244 140.43995800256823 L 245 139.81560231893422 L 245 139.81560231893422 L 246 139.20588634595595 L 246 139.20588634595595 L 247 138.61102112039237 L 247 138.61102112039237 L 248 138.03121253881625 L 248 138.03121253881628 L 249 137.46666128634865 L 249 137.46666128634865 L 250 136.9175627671971 L 250 136.9175627671971 L 251 136.38410703702186 L 251 136.38410703702186 L 252 135.86647873715322 L 252 135.86647873715324 L 253 135.36485703068274 L 253 135.36485703068274 L 254 134.87941554045094 L 254 134.87941554045094 L 255 134.41032228895233 L 255 134.41032228895233 L 256 133.95773964017906 L 256 133.95773964017906 L 257 133.5218242434228 L 257 133.5218242434228 L 258 133.1027269790551 L 258 133.1027269790551 L 259 132.70059290630388 L 259 132.7005929063039 L 260 132.31556121304538 L 260 132.3155612130454 L 261 131.9477651676279 L 261 131.9477651676279 L 262 131.5973320727444 L 262 131.5973320727444 L 263 131.2643832213704 L 263 131.2643832213704 L 264 130.94903385478148 L 264 130.9490338547815 L 265 130.65139312266572 L 265 130.65139312266575 L 266 130.37156404534437 L 266 130.3715640453444 L 267 130.10964347811426 L 267 130.10964347811426 L 268 129.86572207772383 L 268 129.86572207772383 L 269 129.6398842709948 L 269 129.6398842709948 L 270 129.43220822560016 L 270 129.4322082256002 L 271 129.24276582300845 L 271 129.24276582300848 L 272 129.0716226336039 L 272 129.07162263360394 L 273 128.91883789399114 L 273 128.91883789399117 L 274 128.78446448649188 L 274 128.7844644864919 L 275 128.66854892084126 L 275 128.66854892084126 L 276 128.57113131808967 L 276 128.57113131808967 L 277 128.492245396716 L 277 128.492245396716 L 278 128.43191846095675 L 278 128.43191846095675 L 279 128.39017139135566 L 279 128.3901713913557 L 280 128.36701863753623 L 280 128.36701863753623 L 281 128.36186138241922 L 281 128.36246821320046 L 282 128.3765216933552 L 282 128.3765216933552 L 283 128.4091742137668 L 283 128.4091742137668 L 284 128.46041447264503 L 284 128.460414472645 L 285 128.53022473455457 L 285 128.53022473455457 L 286 128.61858083655392 L 286 128.61858083655392 L 287 128.7254521965586 L 287 128.7254521965586 L 288 128.85080182392633 L 288 128.8508018239263 L 289 128.9945863322604 L 289 128.99458633226038 L 290 129.15675595442667 L 290 129.15675595442667 L 291 129.33725455977913 L 291 129.33725455977913 L 292 129.53601967358793 L 292 129.53601967358793 L 293 129.75298249866353 L 293 129.75298249866353 L 294 129.98806793916876 L 294 129.98806793916873 L 295 130.24119462661133 L 295 130.24119462661133 L 296 130.51227494800742 L 296 130.51227494800742 L 297 130.80121507620638 L 297 130.80121507620635 L 298 131.10791500236655 L 298 131.10791500236655 L 299 131.43226857057078 L 299 131.43226857057076 L 300 131.77416351456912 L 300 131.7741635145691 L 301 132.13348149663702 L 301 132.13348149663702 L 302 132.51009814853467 L 302 132.51009814853467 L 303 132.9038831145537 L 303 132.9038831145537 L 304 133.31470009663633 L 304 133.3147000966363 L 305 133.74240690155113 L 305 133.7424069015511 L 306 134.18685549010962 L 306 134.18685549010962 L 307 134.64789202840586 L 307 134.64789202840586 L 308 135.12535694106202 L 308 135.125356941062 L 309 135.61908496646095 L 309 135.61908496646095 L 310 136.12890521394726 L 310 136.12890521394723 L 311 136.6546412229763 L 311 136.6546412229763 L 312 137.19611102419134 L 312 137.19611102419134 L 313 137.75312720240737 L 313 137.75312720240737 L 314 138.32549696147973 L 314 138.32549696147973 L 315 138.91302219103542 L 315 138.91302219103542 L 316 139.51549953504357 L 316 139.51549953504355 L 317 140.1327204622017 L 317 140.13272046220166 L 318 140.7644713381131 L 318 140.7644713381131 L 319 141.41053349923095 L 319 141.41053349923092 L 320 142.07068332854234 L 320 142.07068332854234 L 321 142.7446923329677 L 321 142.7446923329677 L 322 143.43232722244724 L 322 143.43232722244724 L 323 144.1333499906882 L 323 144.13334999068817 L 324 144.84751799754417 L 324 144.84751799754414 L 325 145.57458405299855 L 325 145.57458405299855 L 326 146.3142965027227 L 326 146.3142965027227 L 327 147.06639931517927 L 327 147.06639931517927 L 328 147.83063217024062 L 328 147.83063217024062 L 329 148.60673054929163 L 329 148.60673054929163 L 330 149.39442582678572 L 330 149.39442582678572 L 331 150.1934453632223 L 331 150.19344536322228 L 332 151.0035125995136 L 332 151.0035125995136 L 333 151.82434715270827 L 333 151.82434715270827 L 334 152.6556649130381 L 334 152.6556649130381 L 335 153.49717814225525 L 335 153.49717814225522 L 336 154.34859557322494 L 336 154.3485955732249 L 337 155.2096225107398 L 337 155.2096225107398 L 338 156.0799609335206 L 338 156.0799609335206 L 339 156.95930959736836 L 339 156.95930959736833 L 340 157.84736413943182 L 340 157.84736413943182 L 341 158.7438171835546 L 341 158.7438171835546 L 342 159.64835844666504 L 342 159.64835844666504 L 343 160.5606748461723 L 343 160.5606748461723 L 344 161.4804506083316 L 344 161.4804506083316 L 345 162.40736737754074 L 345 162.40736737754074 L 346 163.34110432653023 L 346 163.34110432653023 L 347 164.28133826740915 L 347 164.28133826740915 L 348 165.22774376352783 L 348 165.22774376352783 L 349 166.17999324211897 L 349 166.17999324211897 L 350 167.13775710767825 L 350 167.13775710767825 L 351 168.10070385604482 L 351 168.10070385604482 L 352 169.0685001891425 L 352 169.0685001891425 L 353 170.0408111303421 L 353 170.0408111303421 L 354 171.01730014040442 L 354 171.01730014040442 L 355 171.9976292339642 L 355 171.9976292339642 L 356 172.9814590965149 L 356 172.9814590965149 L 357 173.9684492018529 L 357 173.96844920185288 L 358 174.9582579299418 L 358 174.9582579299418 L 359 175.95054268515483 L 359 175.95054268515483 L 360 176.94496001485516 L 360 176.94496001485516 L 361 177.94116572827267 L 361 177.94116572827267 L 362 178.9388150156365 L 362 178.9388150156365 L 363 179.93756256752147 L 363 179.93756256752147 L 364 180.9370626943678 L 364 180.9370626943678 L 365 181.93696944613208 L 365 181.93696944613208 L 366 182.9369367320287 L 366 182.9369367320287 L 367 183.93661844031976 L 367 183.93661844031976 L 368 184.93566855811235 L 368 184.93566855811235 L 369 185.93374129112163 L 369 185.93374129112163 L 370 186.93049118335816 L 370 186.93049118335816 L 371 187.92557323669814 L 371 187.92557323669814 L 372 188.91864303029539 L 372 188.91864303029539 L 373 189.90935683979313 L 373 189.90935683979313 L 374 190.89737175629506 L 374 190.89737175629506 L 375 191.88234580505394 L 375 191.88234580505394 L 376 192.86393806383705 L 376 192.86393806383705 L 377 193.8418087809271 L 377 193.8418087809271 L 378 194.81561949271824 L 378 194.81561949271824 L 379 195.7850331408661 L 379 195.7850331408661 L 380 196.74971418895134 L 380 196.74971418895134 L 381 197.70932873861682 L 381 197.70932873861682 L 382 198.66354464513714 L 382 198.6635446451371 L 383 199.6120316323819 L 383 199.61203163238187 L 384 200.55446140713175 L 384 200.55446140713175 L 385 201.49050777270833 L 385 201.49050777270833 L 386 202.4198467418783 L 386 202.4198467418783 L 387 203.34215664899295 L 387 203.34215664899295 L 388 204.2571182613241 L 388 204.25711826132408 L 389 205.16441488955775 L 389 205.16441488955775 L 390 206.0637324974077 L 390 206.0637324974077 L 391 206.95475981031072 L 391 206.9547598103107 L 392 207.8371884231658 L 392 207.8371884231658 L 393 208.71071290708042 L 393 208.71071290708042 L 394 209.5750309150863 L 394 209.5750309150863 L 395 210.42984328678884 L 395 210.42984328678884 L 396 211.2748541519134 L 396 211.27485415191336 L 397 212.1097710327127 L 397 212.10977103271267 L 398 212.93430494520035 L 398 212.93430494520032 L 399 213.74817049917465 L 399 213.74817049917462 L 400 214.55108599699878 L 400 214.55108599699875 L 401 215.34277353110292 L 401 215.34277353110292 L 402 216.12295908017444 L 402 216.12295908017444 L 403 216.89137260400292 L 403 216.89137260400292 L 404 217.64774813694743 L 404 217.64774813694743 L 405 218.3918238799932 L 405 218.39182387999318 L 406 219.12334229136644 L 406 219.12334229136644 L 407 219.84205017567544 L 407 219.8420501756754 L 408 220.54769877154732 L 408 220.54769877154732 L 409 221.24004383773007 L 409 221.24004383773004 L 410 221.91884573763014 L 410 221.9188457376301 L 411 222.5838695222561 L 411 222.58386952225607 L 412 223.23488501153997 L 412 223.23488501153997 L 413 223.8716668740079 L 413 223.8716668740079 L 414 224.49399470477243 L 414 224.4939947047724 L 415 225.1016531018198 L 415 225.1016531018198 L 416 225.69443174056568 L 416 225.69443174056565 L 417 226.27212544665304 L 417 226.27212544665304 L 418 226.83453426696803 L 418 226.834534266968 L 419 227.38146353884824 L 419 227.38146353884824 L 420 227.91272395745995 L 420 227.91272395745995 L 421 228.42813164132087 L 421 228.42813164132085 L 422 228.9275081959458 L 422 228.9275081959458 L 423 229.41068077559305 L 423 229.41068077559305 L 424 229.8774821430904 L 424 229.8774821430904 L 425 230.3277507277196 L 425 230.3277507277196 L 426 230.76133068113995 L 426 230.76133068113995 L 427 231.17807193133072 L 427 231.1780719313307 L 428 231.57783023453476 L 428 231.57783023453473 L 429 231.9604672251845 L 429 231.9604672251845 L 430 232.3258504637935 L 430 232.32585046379347 L 431 232.67385348279677 L 431 232.67385348279674 L 432 233.00435583032413 L 432 233.00435583032413 L 433 233.3172431118914 L 433 233.3172431118914 L 434 233.61240702999496 L 434 233.61240702999493 L 435 233.88974542159593 L 435 233.8897454215959 L 436 234.1491622934813 L 436 234.14916229348128 L 437 234.3905678554893 L 437 234.39056785548928 L 438 234.61387855158785 L 438 234.61387855158785 L 439 234.8190170887953 L 439 234.81901708879528 L 440 235.00591246393319 L 440 235.00591246393316 L 441 235.1744999882022 L 441 235.17449998820217 L 442 235.3247213095724 L 442 235.32472130957237 L 443 235.45652443298016 L 443 235.45652443298013 L 444 235.569863738325 L 444 235.569863738325 L 445 235.66469999625963 L 445 235.66469999625963 L 446 235.74100038176817 L 446 235.74100038176815 L 447 235.79873848552756 L 447 235.79873848552756 L 448 235.83789432304866 L 448 235.83789432304866 L 449 235.85845434159313 L 449 235.8584543415931 L 450 235.86186138241933 L 450 235.86041142486437 L 451 235.84376489547074 L 451 235.84376489547077 L 452 235.80852051515998 L 452 235.80852051516 L 453 235.75469048282488 L 453 235.7546904828249 L 454 235.682293430281 L 454 235.68229343028102 L 455 235.59135441581776 L 455 235.59135441581776 L 456 235.4819049155252 L 456 235.48190491552523 L 457 235.35398281239944 L 457 235.35398281239944 L 458 235.20763238323033 L 458 235.20763238323033 L 459 235.0429042832764 L 459 235.0429042832764 L 460 234.85985552873186 L 460 234.85985552873188 L 461 234.65854947699194 L 461 234.65854947699194 L 462 234.43905580472344 L 462 234.43905580472347 L 463 234.2014504837481 L 463 234.20145048374812 L 464 233.94581575474692 L 464 233.94581575474695 L 465 233.6722400987948 L 465 233.67224009879482 L 466 233.38081820673517 L 466 233.3808182067352 L 467 233.0716509464054 L 467 233.0716509464054 L 468 232.74484532772397 L 468 232.74484532772397 L 469 232.40051446565195 L 469 232.40051446565195 L 470 232.03877754104133 L 470 232.03877754104133 L 471 231.65975975938375 L 471 231.65975975938375 L 472 231.2635923074739 L 472 231.26359230747394 L 473 230.85041230800303 L 473 230.85041230800303 L 474 230.42036277209718 L 474 230.4203627720972 L 475 229.9735925498182 L 475 229.9735925498182 L 476 229.51025627864288 L 476 229.51025627864288 L 477 229.03051432993973 L 477 229.03051432993973 L 478 228.53453275346052 L 478 228.53453275346052 L 479 228.0224832198667 L 479 228.02248321986673 L 479.99999999999994 227.4945429613102 L 479.99999999999994 227.49454296131023 L 481 226.95089471008936 L 481 226.95089471008936 L 482 226.391726635401 L 482 226.391726635401 L 482.99999999999994 225.81723227821072 L 482.99999999999994 225.81723227821072 L 484 225.22761048426398 L 484 225.22761048426398 L 484.99999999999994 224.62306533526092 L 484.99999999999994 224.62306533526092 L 486 224.003806078219 L 486 224.00380607821901 L 487 223.37004705304784 L 487 223.37004705304784 L 488 222.7220076183612 L 488 222.7220076183612 L 489 222.0599120755518 L 489 222.0599120755518 L 489.99999999999994 221.38398959115565 L 489.99999999999994 221.38398959115568 L 491 220.694474117532 L 491 220.694474117532 L 491.99999999999994 219.99160431188722 L 491.99999999999994 219.99160431188722 L 493 219.27562345366985 L 493 219.27562345366988 L 493.99999999999994 218.54677936036626 L 493.99999999999994 218.54677936036626 L 495 217.80532430172494 L 495 217.80532430172494 L 496 217.05151491244038 L 496 217.05151491244038 L 497 216.28561210332583 L 497 216.28561210332586 L 498 215.50788097100602 L 498 215.50788097100602 L 498.99999999999994 214.71859070616108 L 498.99999999999994 214.7185907061611 L 500 213.91801450035348 L 500 213.9180145003535 L 500.99999999999994 213.1064294514702 L 500.99999999999994 213.1064294514702 L 502 212.2841164678125 L 502 212.28411646781254 L 502.99999999999994 211.45136017086753 L 502.99999999999994 211.45136017086756 L 504 210.60844879679374 L 504 210.60844879679374 L 505 209.7556740966561 L 505 209.7556740966561 L 506 208.8933312354442 L 506 208.8933312354442 L 507 208.02171868990874 L 507 208.02171868990874 L 507.99999999999994 207.14113814525203 L 507.99999999999994 207.14113814525203 L 509 206.2518943907076 L 509 206.2518943907076 L 509.99999999999994 205.3542952140458 L 509.99999999999994 205.3542952140458 L 511 204.44865129504112 L 511 204.44865129504115 L 511.99999999999994 203.5352760979391 L 511.99999999999994 203.5352760979391 L 513 202.61448576295865 L 513 202.61448576295868 L 514 201.68659899686915 L 514 201.68659899686918 L 515 200.75193696267837 L 515 200.75193696267837 L 516 199.81082316847048 L 516 199.81082316847048 L 517 198.86358335543278 L 517 198.86358335543278 L 518 197.91054538510875 L 518 197.91054538510875 L 519 196.95203912591802 L 519 196.95203912591802 L 520 195.98839633898095 L 520 195.98839633898095 L 521 195.0199505632887 L 521 195.0199505632887 L 522 194.0470370002575 L 522 194.0470370002575 L 523 193.06999239770792 L 523 193.06999239770792 L 524 192.08915493330855 L 524 192.08915493330855 L 525 191.10486409752485 L 525 191.10486409752485 L 526 190.11746057611387 L 526 190.11746057611387 L 527 189.12728613220483 L 527 189.12728613220483 L 528 188.13468348800723 L 528 188.13468348800723 L 529 187.13999620618654 L 529 187.13999620618654 L 530 186.1435685709496 L 530 186.1435685709496 L 531 185.14574546887948 L 531 185.14574546887948 L 532 184.14687226956264 L 532 184.14687226956264 L 533 183.14729470604843" stroke-opacity="0.6980392156862745" stroke-linecap="round" stroke-linejoin="round" stroke-miterlimit="10" stroke-width="2.5"/><g transform="scale(19,19)"><g transform="translate(0.631578947368421,8.223684210526315)"><path fill="rgb(0,0,255)" stroke="none" paint-order="stroke fill markers" d=" M 0.359 -0.386 Q 0.323 -0.423 0.252 -0.423 Q 0.189 -0.423 0.151 -0.363 Q 0.117 -0.309 0.117 -0.218 Q 0.117 -0.074 0.203 -0.029 Q 0.23 -0.014 0.258 -0.014 Q 0.356 -0.014 0.389 -0.11900000000000001 Q 0.392 -0.129 0.402 -0.129 Q 0.41500000000000004 -0.129 0.41500000000000004 -0.11900000000000001 Q 0.41500000000000004 -0.1 0.393 -0.065 Q 0.34400000000000003 0.011 0.249 0.011 Q 0.155 0.011 0.09 -0.063 Q 0.034 -0.128 0.034 -0.216 Q 0.034 -0.319 0.105 -0.388 Q 0.166 -0.448 0.251 -0.448 Q 0.334 -0.448 0.378 -0.403 Q 0.404 -0.376 0.404 -0.341 Q 0.404 -0.303 0.371 -0.295 Q 0.365 -0.294 0.358 -0.294 Q 0.323 -0.294 0.314 -0.326 Q 0.312 -0.332 0.312 -0.34 Q 0.312 -0.376 0.34700000000000003 -0.384 Q 0.353 -0.386 0.359 -0.386 Z"/></g><g transform="translate(1.075578947368421,8.223684210526315)"><path fill="rgb(0,0,255)" stroke="none" paint-order="stroke fill markers" d=" M 0.47100000000000003 -0.214 L 0.47100000000000003 -0.214 Q 0.47100000000000003 -0.111 0.395 -0.044 Q 0.332 0.011 0.249 0.011 Q 0.153 0.011 0.08700000000000001 -0.061 Q 0.028 -0.126 0.028 -0.214 Q 0.028 -0.316 0.101 -0.386 Q 0.164 -0.448 0.25 -0.448 Q 0.34700000000000003 -0.448 0.41300000000000003 -0.371 Q 0.47100000000000003 -0.304 0.47100000000000003 -0.214 M 0.25 -0.014 L 0.25 -0.014 Q 0.317 -0.014 0.356 -0.07 L 0.366 -0.088 Q 0.388 -0.132 0.388 -0.222 Q 0.388 -0.318 0.362 -0.361 Q 0.319 -0.423 0.249 -0.426 Q 0.187 -0.426 0.147 -0.376 Q 0.14 -0.368 0.135 -0.359 Q 0.111 -0.315 0.111 -0.222 Q 0.111 -0.125 0.136 -0.081 Q 0.178 -0.016 0.25 -0.014 Z"/></g><g transform="translate(1.575578947368421,8.223684210526315)"><path fill="rgb(0,0,255)" stroke="none" paint-order="stroke fill markers" d=" M 0.20800000000000002 -0.194 L 0.20800000000000002 -0.194 Q 0.122 -0.211 0.095 -0.227 Q 0.085 -0.232 0.076 -0.24 Q 0.033 -0.275 0.033 -0.325 Q 0.033 -0.395 0.095 -0.427 Q 0.134 -0.448 0.193 -0.448 Q 0.249 -0.448 0.28700000000000003 -0.42 Q 0.298 -0.429 0.304 -0.436 Q 0.317 -0.448 0.324 -0.448 Q 0.334 -0.439 0.335 -0.424 L 0.335 -0.323 Q 0.335 -0.302 0.329 -0.3 L 0.328 -0.3 L 0.327 -0.299 L 0.322 -0.299 Q 0.311 -0.299 0.31 -0.308 Q 0.303 -0.40900000000000003 0.227 -0.426 Q 0.211 -0.429 0.193 -0.429 Q 0.099 -0.429 0.083 -0.371 Q 0.081 -0.362 0.081 -0.353 Q 0.081 -0.302 0.158 -0.281 Q 0.17300000000000001 -0.277 0.20400000000000001 -0.271 Q 0.276 -0.257 0.307 -0.232 Q 0.313 -0.228 0.318 -0.223 Q 0.36 -0.181 0.36 -0.128 Q 0.36 -0.043000000000000003 0.29 -0.008 Q 0.252 0.011 0.199 0.011 Q 0.134 0.011 0.089 -0.032 L 0.069 -0.009000000000000001 Q 0.049 0.011 0.044 0.011 Q 0.034 0.002 0.033 -0.013000000000000001 L 0.033 -0.145 Q 0.033 -0.167 0.04 -0.169 L 0.04 -0.169 L 0.041 -0.17 L 0.046 -0.17 Q 0.056 -0.17 0.059000000000000004 -0.159 Q 0.059000000000000004 -0.157 0.06 -0.153 Q 0.08600000000000001 -0.037 0.159 -0.016 Q 0.177 -0.011 0.199 -0.011 Q 0.289 -0.011 0.308 -0.074 Q 0.312 -0.08700000000000001 0.312 -0.10200000000000001 Q 0.312 -0.17500000000000002 0.20800000000000002 -0.194 Z"/></g><g transform="translate(1.969578947368421,8.223684210526315)"><path fill="rgb(0,0,255)" stroke="none" paint-order="stroke fill markers" d=" M 0.331 0.24 L 0.331 0.24 Q 0.331 0.25 0.321 0.25 Q 0.309 0.25 0.268 0.209 Q 0.20600000000000002 0.147 0.165 0.062 Q 0.099 -0.074 0.099 -0.25 Q 0.099 -0.419 0.162 -0.555 Q 0.214 -0.666 0.294 -0.733 Q 0.315 -0.75 0.321 -0.75 Q 0.331 -0.75 0.331 -0.74 Q 0.331 -0.735 0.318 -0.723 Q 0.157 -0.559 0.157 -0.25 Q 0.157 0.058 0.314 0.218 Q 0.331 0.23500000000000001 0.331 0.24 Z"/></g><g transform="translate(2.358578947368421,8.223684210526315)"><path fill="rgb(0,0,255)" stroke="none" paint-order="stroke fill markers" d=" M 0.334 -0.302 L 0.3 -0.165 Q 0.28300000000000003 -0.097 0.28300000000000003 -0.077 Q 0.28300000000000003 -0.025 0.32 -0.014 Q 0.328 -0.011 0.338 -0.011 Q 0.388 -0.011 0.429 -0.061 Q 0.456 -0.093 0.47100000000000003 -0.14200000000000002 Q 0.47400000000000003 -0.153 0.484 -0.153 Q 0.496 -0.153 0.496 -0.14300000000000002 Q 0.496 -0.11800000000000001 0.465 -0.07100000000000001 Q 0.41100000000000003 0.011 0.336 0.011 Q 0.268 0.011 0.23700000000000002 -0.046 Q 0.231 -0.055 0.228 -0.065 Q 0.20400000000000001 -0.017 0.162 0.002 Q 0.14300000000000002 0.011 0.123 0.011 Q 0.063 0.011 0.039 -0.024 Q 0.029 -0.037 0.029 -0.055 Q 0.029 -0.092 0.061 -0.107 Q 0.07200000000000001 -0.113 0.084 -0.113 Q 0.114 -0.113 0.12 -0.088 Q 0.121 -0.083 0.121 -0.078 Q 0.121 -0.044 0.08700000000000001 -0.028 Q 0.081 -0.025 0.074 -0.024 Q 0.095 -0.011 0.124 -0.011 Q 0.177 -0.011 0.20800000000000002 -0.082 Q 0.214 -0.097 0.219 -0.115 Q 0.273 -0.319 0.273 -0.353 Q 0.267 -0.41500000000000004 0.219 -0.42 Q 0.167 -0.42 0.124 -0.367 L 0.124 -0.366 Q 0.124 -0.365 0.123 -0.365 Q 0.108 -0.34500000000000003 0.096 -0.319 Q 0.091 -0.307 0.08700000000000001 -0.295 L 0.085 -0.289 Q 0.083 -0.278 0.07200000000000001 -0.278 Q 0.06 -0.278 0.06 -0.28800000000000003 Q 0.06 -0.313 0.092 -0.36 Q 0.146 -0.442 0.221 -0.442 Q 0.298 -0.442 0.329 -0.366 Q 0.361 -0.428 0.41400000000000003 -0.44 Q 0.424 -0.442 0.434 -0.442 Q 0.493 -0.442 0.517 -0.40900000000000003 Q 0.527 -0.395 0.527 -0.376 Q 0.527 -0.335 0.49 -0.321 Q 0.481 -0.318 0.47300000000000003 -0.318 Q 0.442 -0.318 0.436 -0.34500000000000003 Q 0.435 -0.34900000000000003 0.435 -0.353 Q 0.435 -0.383 0.464 -0.4 Q 0.47300000000000003 -0.405 0.483 -0.40700000000000003 Q 0.462 -0.42 0.433 -0.42 Q 0.365 -0.42 0.337 -0.314 Q 0.335 -0.308 0.334 -0.302 Z"/></g><g transform="translate(2.930578947368421,8.223684210526315)"><path fill="rgb(0,0,255)" stroke="none" paint-order="stroke fill markers" d=" M 0.289 -0.25 L 0.289 -0.25 Q 0.289 -0.081 0.226 0.055 Q 0.17400000000000002 0.166 0.094 0.233 Q 0.073 0.25 0.067 0.25 Q 0.057 0.25 0.057 0.24 Q 0.057 0.23500000000000001 0.07 0.223 Q 0.231 0.059000000000000004 0.231 -0.25 Q 0.231 -0.555 0.081 -0.712 L 0.076 -0.717 Q 0.057 -0.735 0.057 -0.74 Q 0.057 -0.75 0.067 -0.75 Q 0.079 -0.75 0.12 -0.709 Q 0.182 -0.647 0.223 -0.562 Q 0.289 -0.426 0.289 -0.25 Z"/></g></g></g></g></svg>
