<svg version="1.1" xmlns="http://www.w3.org/2000/svg" xmlns:xlink="http://www.w3.org/1999/xlink" width="615" height="336"><defs><clipPath id="qVOBDGAUpLDh"><path fill="none" stroke="none" d=" M 0 0 L 615 0 L 615 336 L 0 336 L 0 0 Z"/></clipPath></defs><g transform="scale(1,1)" clip-path="url(#qVOBDGAUpLDh)"><g><rect fill="none" stroke="none" x="0" y="0" width="615" height="337" fill-opacity="1"/><path fill="none" stroke="rgb(192,192,192)" paint-order="fill stroke markers" d=" M 27.5 0.5 L 27.5 336.5 M 27.5 0.5 L 27.5 336.5 M 98.5 0.5 L 98.5 336.5 M 238.5 0.5 L 238.5 336.5 M 309.5 0.5 L 309.5 336.5 M 379.5 0.5 L 379.5 336.5 M 449.5 0.5 L 449.5 336.5 M 520.5 0.5 L 520.5 336.5 M 590.5 0.5 L 590.5 336.5" stroke-opacity="1" stroke-linecap="round" stroke-linejoin="round" stroke-miterlimit="10"/><path fill="none" stroke="rgb(192,192,192)" paint-order="fill stroke markers" d=" M 13.5 0.5 L 13.5 336.5 M 41.5 0.5 L 41.5 336.5 M 56.5 0.5 L 56.5 336.5 M 70.5 0.5 L 70.5 336.5 M 84.5 0.5 L 84.5 336.5 M 112.5 0.5 L 112.5 336.5 M 126.5 0.5 L 126.5 336.5 M 140.5 0.5 L 140.5 336.5 M 154.5 0.5 L 154.5 336.5 M 182.5 0.5 L 182.5 336.5 M 196.5 0.5 L 196.5 336.5 M 210.5 0.5 L 210.5 336.5 M 224.5 0.5 L 224.5 336.5 M 252.5 0.5 L 252.5 336.5 M 266.5 0.5 L 266.5 336.5 M 280.5 0.5 L 280.5 336.5 M 295.5 0.5 L 295.5 336.5 M 323.5 0.5 L 323.5 336.5 M 337.5 0.5 L 337.5 336.5 M 351.5 0.5 L 351.5 336.5 M 365.5 0.5 L 365.5 336.5 M 393.5 0.5 L 393.5 336.5 M 407.5 0.5 L 407.5 336.5 M 421.5 0.5 L 421.5 336.5 M 435.5 0.5 L 435.5 336.5 M 463.5 0.5 L 463.5 336.5 M 477.5 0.5 L 477.5 336.5 M 491.5 0.5 L 491.5 336.5 M 505.5 0.5 L 505.5 336.5 M 534.5 0.5 L 534.5 336.5 M 548.5 0.5 L 548.5 336.5 M 562.5 0.5 L 562.5 336.5 M 576.5 0.5 L 576.5 336.5 M 604.5 0.5 L 604.5 336.5" stroke-opacity="0.23529411764705882" stroke-linecap="round" stroke-linejoin="round" stroke-miterlimit="10"/><path fill="none" stroke="rgb(192,192,192)" paint-order="fill stroke markers" d=" M 0.5 18.5 L 615.5 18.5 M 0.5 18.5 L 615.5 18.5 M 0.5 68.5 L 615.5 68.5 M 0.5 118.5 L 615.5 118.5 M 0.5 219.5 L 615.5 219.5 M 0.5 269.5 L 615.5 269.5 M 0.5 319.5 L 615.5 319.5" stroke-opacity="1" stroke-linecap="round" stroke-linejoin="round" stroke-miterlimit="10"/><path fill="none" stroke="rgb(192,192,192)" paint-order="fill stroke markers" d=" M 0.5 8.5 L 615.5 8.5 M 0.5 8.5 L 615.5 8.5 M 0.5 28.5 L 615.5 28.5 M 0.5 38.5 L 615.5 38.5 M 0.5 48.5 L 615.5 48.5 M 0.5 58.5 L 615.5 58.5 M 0.5 78.5 L 615.5 78.5 M 0.5 88.5 L 615.5 88.5 M 0.5 98.5 L 615.5 98.5 M 0.5 108.5 L 615.5 108.5 M 0.5 128.5 L 615.5 128.5 M 0.5 138.5 L 615.5 138.5 M 0.5 148.5 L 615.5 148.5 M 0.5 158.5 L 615.5 158.5 M 0.5 178.5 L 615.5 178.5 M 0.5 188.5 L 615.5 188.5 M 0.5 199.5 L 615.5 199.5 M 0.5 209.5 L 615.5 209.5 M 0.5 229.5 L 615.5 229.5 M 0.5 239.5 L 615.5 239.5 M 0.5 249.5 L 615.5 249.5 M 0.5 259.5 L 615.5 259.5 M 0.5 279.5 L 615.5 279.5 M 0.5 289.5 L 615.5 289.5 M 0.5 299.5 L 615.5 299.5 M 0.5 309.5 L 615.5 309.5 M 0.5 329.5 L 615.5 329.5" stroke-opacity="0.23529411764705882" stroke-linecap="round" stroke-linejoin="round" stroke-miterlimit="10"/><path fill="none" stroke="rgb(37,37,37)" paint-order="fill stroke markers" d=" M 168.5 2.5 L 168.5 336.5" stroke-opacity="1" stroke-miterlimit="10"/><path fill="none" stroke="rgb(37,37,37)" paint-order="fill stroke markers" d=" M 168.5 1.5 L 164.5 5.5" stroke-opacity="1" stroke-miterlimit="10"/><path fill="none" stroke="rgb(37,37,37)" paint-order="fill stroke markers" d=" M 168.5 1.5 L 172.5 5.5" stroke-opacity="1" stroke-miterlimit="10"/><path fill="none" stroke="rgb(37,37,37)" paint-order="fill stroke markers" d=" M 0.5 168.5 L 613.5 168.5" stroke-opacity="1" stroke-miterlimit="10"/><path fill="none" stroke="rgb(37,37,37)" paint-order="fill stroke markers" d=" M 614.5 168.5 L 610.5 164.5" stroke-opacity="1" stroke-miterlimit="10"/><path fill="none" stroke="rgb(37,37,37)" paint-order="fill stroke markers" d=" M 614.5 168.5 L 610.5 172.5" stroke-opacity="1" stroke-miterlimit="10"/><text fill="rgb(37,37,37)" stroke="none" font-family="geogebra-sans-serif, sans-serif" font-size="12px" font-style="normal" font-weight="normal" text-decoration="normal" x="22" y="184" text-anchor="start" dominant-baseline="alphabetic" fill-opacity="1">–2</text><text fill="rgb(37,37,37)" stroke="none" font-family="geogebra-sans-serif, sans-serif" font-size="12px" font-style="normal" font-weight="normal" text-decoration="normal" x="22" y="184" text-anchor="start" dominant-baseline="alphabetic" fill-opacity="1">–2</text><text fill="rgb(37,37,37)" stroke="none" font-family="geogebra-sans-serif, sans-serif" font-size="12px" font-style="normal" font-weight="normal" text-decoration="normal" x="93" y="184" text-anchor="start" dominant-baseline="alphabetic" fill-opacity="1">–1</text><text fill="rgb(37,37,37)" stroke="none" font-family="geogebra-sans-serif, sans-serif" font-size="12px" font-style="normal" font-weight="normal" text-decoration="normal" x="93" y="184" text-anchor="start" dominant-baseline="alphabetic" fill-opacity="1">–1</text><text fill="rgb(37,37,37)" stroke="none" font-family="geogebra-sans-serif, sans-serif" font-size="12px" font-style="normal" font-weight="normal" text-decoration="normal" x="236" y="184" text-anchor="start" dominant-baseline="alphabetic" fill-opacity="1">1</text><text fill="rgb(37,37,37)" stroke="none" font-family="geogebra-sans-serif, sans-serif" font-size="12px" font-style="normal" font-weight="normal" text-decoration="normal" x="236" y="184" text-anchor="start" dominant-baseline="alphabetic" fill-opacity="1">1</text><text fill="rgb(37,37,37)" stroke="none" font-family="geogebra-sans-serif, sans-serif" font-size="12px" font-style="normal" font-weight="normal" text-decoration="normal" x="307" y="184" text-anchor="start" dominant-baseline="alphabetic" fill-opacity="1">2</text><text fill="rgb(37,37,37)" stroke="none" font-family="geogebra-sans-serif, sans-serif" font-size="12px" font-style="normal" font-weight="normal" text-decoration="normal" x="307" y="184" text-anchor="start" dominant-baseline="alphabetic" fill-opacity="1">2</text><text fill="rgb(37,37,37)" stroke="none" font-family="geogebra-sans-serif, sans-serif" font-size="12px" font-style="normal" font-weight="normal" text-decoration="normal" x="377" y="184" text-anchor="start" dominant-baseline="alphabetic" fill-opacity="1">3</text><text fill="rgb(37,37,37)" stroke="none" font-family="geogebra-sans-serif, sans-serif" font-size="12px" font-style="normal" font-weight="normal" text-decoration="normal" x="377" y="184" text-anchor="start" dominant-baseline="alphabetic" fill-opacity="1">3</text><text fill="rgb(37,37,37)" stroke="none" font-family="geogebra-sans-serif, sans-serif" font-size="12px" font-style="normal" font-weight="normal" text-decoration="normal" x="447" y="184" text-anchor="start" dominant-baseline="alphabetic" fill-opacity="1">4</text><text fill="rgb(37,37,37)" stroke="none" font-family="geogebra-sans-serif, sans-serif" font-size="12px" font-style="normal" font-weight="normal" text-decoration="normal" x="447" y="184" text-anchor="start" dominant-baseline="alphabetic" fill-opacity="1">4</text><text fill="rgb(37,37,37)" stroke="none" font-family="geogebra-sans-serif, sans-serif" font-size="12px" font-style="normal" font-weight="normal" text-decoration="normal" x="518" y="184" text-anchor="start" dominant-baseline="alphabetic" fill-opacity="1">5</text><text fill="rgb(37,37,37)" stroke="none" font-family="geogebra-sans-serif, sans-serif" font-size="12px" font-style="normal" font-weight="normal" text-decoration="normal" x="518" y="184" text-anchor="start" dominant-baseline="alphabetic" fill-opacity="1">5</text><text fill="rgb(37,37,37)" stroke="none" font-family="geogebra-sans-serif, sans-serif" font-size="12px" font-style="normal" font-weight="normal" text-decoration="normal" x="588" y="184" text-anchor="start" dominant-baseline="alphabetic" fill-opacity="1">6</text><text fill="rgb(37,37,37)" stroke="none" font-family="geogebra-sans-serif, sans-serif" font-size="12px" font-style="normal" font-weight="normal" text-decoration="normal" x="588" y="184" text-anchor="start" dominant-baseline="alphabetic" fill-opacity="1">6</text><text fill="rgb(37,37,37)" stroke="none" font-family="geogebra-sans-serif, sans-serif" font-size="12px" font-style="normal" font-weight="normal" text-decoration="normal" x="147" y="324" text-anchor="start" dominant-baseline="alphabetic" fill-opacity="1">–3</text><text fill="rgb(37,37,37)" stroke="none" font-family="geogebra-sans-serif, sans-serif" font-size="12px" font-style="normal" font-weight="normal" text-decoration="normal" x="147" y="324" text-anchor="start" dominant-baseline="alphabetic" fill-opacity="1">–3</text><text fill="rgb(37,37,37)" stroke="none" font-family="geogebra-sans-serif, sans-serif" font-size="12px" font-style="normal" font-weight="normal" text-decoration="normal" x="147" y="274" text-anchor="start" dominant-baseline="alphabetic" fill-opacity="1">–2</text><text fill="rgb(37,37,37)" stroke="none" font-family="geogebra-sans-serif, sans-serif" font-size="12px" font-style="normal" font-weight="normal" text-decoration="normal" x="147" y="274" text-anchor="start" dominant-baseline="alphabetic" fill-opacity="1">–2</text><text fill="rgb(37,37,37)" stroke="none" font-family="geogebra-sans-serif, sans-serif" font-size="12px" font-style="normal" font-weight="normal" text-decoration="normal" x="147" y="223" text-anchor="start" dominant-baseline="alphabetic" fill-opacity="1">–1</text><text fill="rgb(37,37,37)" stroke="none" font-family="geogebra-sans-serif, sans-serif" font-size="12px" font-style="normal" font-weight="normal" text-decoration="normal" x="147" y="223" text-anchor="start" dominant-baseline="alphabetic" fill-opacity="1">–1</text><text fill="rgb(37,37,37)" stroke="none" font-family="geogebra-sans-serif, sans-serif" font-size="12px" font-style="normal" font-weight="normal" text-decoration="normal" x="153" y="123" text-anchor="start" dominant-baseline="alphabetic" fill-opacity="1">1</text><text fill="rgb(37,37,37)" stroke="none" font-family="geogebra-sans-serif, sans-serif" font-size="12px" font-style="normal" font-weight="normal" text-decoration="normal" x="153" y="123" text-anchor="start" dominant-baseline="alphabetic" fill-opacity="1">1</text><text fill="rgb(37,37,37)" stroke="none" font-family="geogebra-sans-serif, sans-serif" font-size="12px" font-style="normal" font-weight="normal" text-decoration="normal" x="153" y="73" text-anchor="start" dominant-baseline="alphabetic" fill-opacity="1">2</text><text fill="rgb(37,37,37)" stroke="none" font-family="geogebra-sans-serif, sans-serif" font-size="12px" font-style="normal" font-weight="normal" text-decoration="normal" x="153" y="73" text-anchor="start" dominant-baseline="alphabetic" fill-opacity="1">2</text><text fill="rgb(37,37,37)" stroke="none" font-family="geogebra-sans-serif, sans-serif" font-size="12px" font-style="normal" font-weight="normal" text-decoration="normal" x="153" y="23" text-anchor="start" dominant-baseline="alphabetic" fill-opacity="1">3</text><text fill="rgb(37,37,37)" stroke="none" font-family="geogebra-sans-serif, sans-serif" font-size="12px" font-style="normal" font-weight="normal" text-decoration="normal" x="153" y="23" text-anchor="start" dominant-baseline="alphabetic" fill-opacity="1">3</text><text fill="rgb(37,37,37)" stroke="none" font-family="geogebra-sans-serif, sans-serif" font-size="12px" font-style="normal" font-weight="normal" text-decoration="normal" x="153" y="184" text-anchor="start" dominant-baseline="alphabetic" fill-opacity="1">0</text><text fill="rgb(37,37,37)" stroke="none" font-family="geogebra-sans-serif, sans-serif" font-size="12px" font-style="normal" font-weight="normal" text-decoration="normal" x="153" y="184" text-anchor="start" dominant-baseline="alphabetic" fill-opacity="1">0</text><path fill="none" stroke="rgb(199,80,0)" paint-order="fill stroke markers" d=" M 0.5000000000000284 310.09347362077517 L 0.5000000000000284 312.227292131128 L 0.5000000000000284 310.09347362077517 L 1.5000000000000284 307.6779311765348 L 1.5000000000000284 307.6779311765349 L 2.5 304.9854879564341 L 2.5 304.98548795643416 L 3.5 302.02152001137233 L 3.5 302.0215200113724 L 4.5 298.7919455506611 L 4.5 298.7919455506612 L 5.5 295.3032131250272 L 5.5 295.30321312502724 L 6.5 291.56228875067234 L 6.5 291.56228875067234 L 7.5 287.57664200010106 L 7.5 287.5766420001011 L 8.5 283.3542310874879 L 8.5 283.35423108748796 L 9.5 278.90348697836396 L 9.5 278.903486978364 L 10.499999999999972 274.2332965553537 L 10.499999999999972 274.2332965553537 L 11.499999999999972 269.3529848735726 L 11.499999999999972 269.3529848735726 L 12.499999999999972 264.2722965411188 L 12.499999999999972 264.27229654111886 L 13.499999999999972 259.0013762618336 L 13.499999999999972 259.0013762618337 L 14.499999999999972 253.55074857918626 L 14.499999999999972 253.5507485791863 L 15.499999999999972 247.93129686172296 L 15.499999999999972 247.93129686172296 L 16.50000000000003 242.1542415720451 L 16.50000000000003 242.15424157204512 L 17.50000000000003 236.23111786270698 L 17.50000000000003 236.23111786270698 L 18.50000000000003 230.17375254376134 L 18.50000000000003 230.17375254376137 L 19.50000000000003 223.9942404679529 L 19.50000000000003 223.99424046795292 L 20.5 217.7049203807024 L 20.5 217.70492038070242 L 21.5 211.3183502831062 L 21.5 211.31835028310624 L 22.5 204.84728235714536 L 22.5 204.8472823571454 L 23.5 198.30463750316864 L 23.5 198.30463750316864 L 24.5 191.70347954049421 L 24.5 191.70347954049424 L 25.5 185.05698912263986 L 25.5 185.05698912263986 L 26.5 178.37843741927077 L 26.5 178.37843741927077 L 27.5 171.6811596174106 L 27.5 171.6811596174106 L 28.49999999999997 164.9785282948282 L 28.49999999999997 164.9785282948282 L 29.5 158.28392671876566 L 29.5 158.28392671876566 L 30.5 151.61072212332283 L 30.5 151.61072212332283 L 31.5 144.97223901885462 L 31.5 144.97223901885462 L 32.5 138.38173258667595 L 32.5 138.38173258667595 L 33.5 131.85236221219816 L 33.5 131.8523622121982 L 34.5 125.39716520934164 L 34.5 125.39716520934167 L 35.5 119.02903078869146 L 35.5 119.02903078869147 L 36.5 112.76067432137312 L 36.5 112.76067432137313 L 37.49999999999997 106.60461195003788 L 37.49999999999997 106.6046119500379 L 38.5 100.57313559764992 L 38.5 100.57313559764994 L 39.5 94.67828842397822 L 39.5 94.67828842397824 L 40.5 88.93184077879727 L 40.5 88.93184077879731 L 41.5 83.34526669981379 L 41.5 83.34526669981382 L 42.5 77.92972100224398 L 42.5 77.92972100224402 L 43.5 72.69601700578954 L 43.5 72.69601700578959 L 44.499999999999986 67.65460494348284 L 44.499999999999986 67.65460494348285 L 45.499999999999986 62.81555109551459 L 45.499999999999986 62.815551095514635 L 46.499999999999986 58.18851768970683 L 46.499999999999986 58.188517689706856 L 47.500000000000014 53.78274360876506 L 47.500000000000014 53.78274360876512 L 48.500000000000014 49.607025942831825 L 48.500000000000014 49.607025942831854 L 49.5 45.66970242417365 L 49.5 45.669702424173664 L 50.5 41.9786347790788 L 50.5 41.978634779078845 L 51.5 38.54119303020349 L 51.5 38.541193030203544 L 52.5 35.364240780712066 L 52.5 35.364240780712095 L 53.499999999999986 32.454121509594074 L 53.499999999999986 32.454121509594074 L 54.499999999999986 29.81664590552353 L 54.499999999999986 29.816645905523586 L 55.499999999999986 27.45708026454986 L 55.499999999999986 27.457080264549887 L 56.500000000000014 25.380135974787322 L 56.500000000000014 25.38013597478735 L 57.500000000000014 23.589960109100303 L 57.500000000000014 23.58996010910036 L 58.5 22.09012714456628 L 58.5 22.09012714456631 L 59.5 20.88363182525157 L 59.5 20.883631825251626 L 60.5 19.972883182551186 L 60.5 19.972883182551186 L 61.5 19.35969972503125 L 61.5 19.359699725031277 L 62.499999999999986 19.045305807379577 L 62.499999999999986 19.045305807379606 L 63.499999999999986 18.999999999999915 L 63.499999999999986 19.030329185714095 L 64.49999999999999 19.314799764130868 L 64.49999999999999 19.31479976413084 L 65.50000000000001 19.89814953499362 L 65.50000000000001 19.898149534993593 L 66.50000000000001 20.779213713085483 L 66.50000000000001 20.779213713085454 L 67.5 21.956233061356755 L 67.5 21.956233061356727 L 68.5 23.42685740362606 L 68.5 23.426857403626002 L 69.5 25.188150317220163 L 69.5 25.188150317220135 L 70.5 27.236594996183385 L 70.5 27.236594996183356 L 71.49999999999999 29.56810127334856 L 71.49999999999999 29.568101273348532 L 72.49999999999999 32.17801378724903 L 72.49999999999999 32.178013787249 L 73.49999999999999 35.06112127756455 L 73.49999999999999 35.061121277564496 L 74.50000000000001 38.21166699054092 L 74.50000000000001 38.21166699054089 L 75.50000000000001 41.623360173605235 L 75.50000000000001 41.62336017360518 L 76.5 45.28938863622835 L 76.5 45.289388636228324 L 77.5 49.20243235195029 L 77.5 49.202432351950264 L 78.5 53.35467807441189 L 78.5 53.354678074411865 L 79.5 57.73783493820754 L 79.5 57.7378349382075 L 80.49999999999999 62.343151013408544 L 80.49999999999999 62.3431510134085 L 81.49999999999999 67.16143078070289 L 81.49999999999999 67.16143078070284 L 82.50000000000001 72.18305349225753 L 82.50000000000001 72.18305349225749 L 83.50000000000001 77.39799238164191 L 83.50000000000001 77.3979923816419 L 84.50000000000001 82.79583468445853 L 84.50000000000001 82.79583468445851 L 85.5 88.36580242969958 L 85.5 88.36580242969957 L 86.5 94.09677396032058 L 86.5 94.09677396032056 L 87.5 99.97730614005775 L 87.5 99.97730614005772 L 88.5 105.99565720214801 L 88.5 105.99565720214798 L 89.49999999999999 112.13981019433103 L 89.49999999999999 112.13981019433102 L 90.49999999999999 118.39749697331936 L 90.49999999999999 118.39749697331933 L 91.50000000000001 124.7562227008245 L 91.50000000000001 124.75622270082448 L 92.50000000000001 131.2032907922311 L 92.50000000000001 131.2032907922311 L 93.50000000000001 137.72582826810157 L 93.50000000000001 137.72582826810157 L 94.5 144.3108114578898 L 94.5 144.3108114578898 L 95.5 150.94509200454408 L 95.5 150.94509200454408 L 96.5 157.61542311807406 L 96.5 157.61542311807406 L 97.5 164.30848602565857 L 97.5 164.30848602565857 L 98.49999999999999 171.010916565486 L 98.49999999999999 171.010916565486 L 99.49999999999999 177.7093318712207 L 99.49999999999999 177.7093318712207 L 100.50000000000001 184.39035709381898 L 100.50000000000001 184.39035709381895 L 101.50000000000001 191.04065210733557 L 101.50000000000001 191.04065210733557 L 102.50000000000001 197.64693814539942 L 102.50000000000001 197.6469381453994 L 103.5 204.1960243151698 L 103.5 204.19602431516978 L 104.5 210.67483393583558 L 104.5 210.67483393583558 L 105.5 217.07043064906338 L 105.5 217.07043064906338 L 106.5 223.3700442492626 L 106.5 223.3700442492626 L 107.5 229.56109618209038 L 107.5 229.56109618209035 L 108.49999999999999 235.63122466028094 L 108.49999999999999 235.6312246602809 L 109.50000000000001 241.56830934665544 L 109.50000000000001 241.56830934665544 L 110.50000000000001 247.36049555502052 L 110.50000000000001 247.3604955550205 L 111.5 252.99621792063928 L 111.5 252.99621792063925 L 112.5 258.46422349300724 L 112.5 258.46422349300724 L 113.5 263.75359420482636 L 113.5 263.7535942048263 L 114.5 268.85376867230934 L 114.5 268.8537686723093 L 115.5 273.75456328329057 L 115.5 273.7545632832905 L 116.5 278.4461925310307 L 116.5 278.44619253103065 L 117.49999999999999 282.9192885531186 L 117.49999999999999 282.9192885531185 L 118.50000000000001 287.16491983645386 L 118.50000000000001 287.16491983645386 L 119.50000000000001 291.1746090509638 L 119.50000000000001 291.1746090509638 L 120.5 294.94034997644445 L 120.5 294.9403499764444 L 121.5 298.45462348872707 L 121.5 298.45462348872707 L 122.5 301.71041257325237 L 122.5 301.7104125732523 L 123.5 304.701216336072 L 123.5 304.701216336072 L 124.5 307.42106298430343 L 124.5 307.42106298430343 L 125.5 309.8645217501185 L 125.5 309.86452175011846 L 126.49999999999999 312.0267137344573 L 126.49999999999999 312.0267137344573 L 127.50000000000001 313.9033216488159 L 127.50000000000001 313.9033216488159 L 128.5 315.49059843565556 L 128.5 315.4905984356555 L 129.5 316.7853747502214 L 129.5 316.7853747502213 L 130.5 317.78506528883156 L 130.5 317.78506528883156 L 131.5 318.4876739510005 L 131.5 318.4876739510005 L 132.5 318.8917978250895 L 132.5 318.8917978250895 L 133.5 319 L 133.5 318.9966299895261 L 134.5 318.8019611239996 L 134.5 318.8019611239996 L 135.50000000000003 318.308179927414 L 135.50000000000003 318.3081799274141 L 136.5 317.51627234176686 L 136.5 317.5162723417669 L 137.5 316.42781958349974 L 137.5 316.42781958349974 L 138.5 315.0449949862548 L 138.5 315.0449949862548 L 139.5 313.37055966133937 L 139.5 313.3705596613394 L 140.5 311.40785698456443 L 140.5 311.40785698456443 L 141.5 309.1608059204643 L 141.5 309.1608059204643 L 142.5 306.63389319722836 L 142.5 306.6338931972284 L 143.5 303.8321643479681 L 143.5 303.83216434796816 L 144.50000000000003 300.76121363620854 L 144.50000000000003 300.7612136362086 L 145.5 297.4271728857195 L 145.5 297.42717288571953 L 146.5 293.83669923698983 L 146.5 293.83669923698983 L 147.5 289.99696185479297 L 147.5 289.99696185479297 L 148.5 285.91562761338355 L 148.5 285.9156276133836 L 149.5 281.6008457879088 L 149.5 281.60084578790884 L 150.5 277.0612317826006 L 150.5 277.06123178260066 L 151.5 272.30584992823975 L 151.5 272.3058499282398 L 152.5 267.3441953832399 L 152.5 267.34419538323993 L 153.50000000000003 262.18617517448956 L 153.50000000000003 262.18617517448956 L 154.5 256.84208841581074 L 154.5 256.8420884158108 L 155.5 251.32260574352705 L 155.5 251.32260574352708 L 156.5 245.6387480102092 L 156.5 245.6387480102092 L 157.5 239.8018642791357 L 157.5 239.8018642791357 L 158.5 233.8236091634089 L 158.5 233.8236091634089 L 159.5 227.7159195549758 L 159.5 227.7159195549758 L 160.5 221.49099079001502 L 160.5 221.49099079001505 L 161.5 215.16125229828572 L 161.5 215.16125229828575 L 162.50000000000003 208.73934278505607 L 162.50000000000003 208.73934278505607 L 163.5 202.23808499516844 L 163.5 202.23808499516846 L 164.5 195.6704601096284 L 164.5 195.6704601096284 L 165.5 189.04958182584224 L 165.5 189.04958182584224 L 166.5 182.38867017325566 L 166.5 182.38867017325566 L 167.5 175.70102511667855 L 167.5 175.70102511667855 L 168.5 169.0000000000001 L 168.5 169.0000000000001 L 169.5 162.29897488332168 L 169.5 162.29897488332168 L 170.5 155.61132982674457 L 170.5 155.61132982674457 L 171.5 148.95041817415796 L 171.5 148.950418174158 L 172.5 142.32953989037182 L 172.5 142.32953989037182 L 173.5 135.76191500483162 L 173.5 135.76191500483165 L 174.5 129.26065721494416 L 174.5 129.26065721494416 L 175.5 122.8387477017146 L 175.5 122.83874770171462 L 176.5 116.5090092099853 L 176.5 116.50900920998532 L 177.5 110.28408044502439 L 177.5 110.2840804450244 L 178.5 104.17639083659131 L 178.5 104.17639083659132 L 179.5 98.19813572086458 L 179.5 98.1981357208646 L 180.5 92.36125198979096 L 180.5 92.36125198979099 L 181.5 86.6773942564731 L 181.5 86.67739425647312 L 182.5 81.15791158418938 L 182.5 81.15791158418942 L 183.5 75.81382482551048 L 183.5 75.81382482551052 L 184.5 70.65580461676034 L 184.5 70.65580461676038 L 185.5 65.69415007176052 L 185.5 65.69415007176053 L 186.5 60.938768217399556 L 186.5 60.938768217399584 L 187.5 56.39915421209133 L 187.5 56.399154212091375 L 188.5 52.084372386616536 L 188.5 52.08437238661655 L 189.5 48.003038145207185 L 189.5 48.00303814520723 L 190.5 44.163300763010284 L 190.5 44.16330076301031 L 191.5 40.572827114280585 L 191.5 40.572827114280614 L 192.5 37.23878636379152 L 192.5 37.23878636379152 L 193.5 34.16783565203198 L 193.5 34.16783565203204 L 194.5 31.366106802771696 L 194.5 31.366106802771753 L 195.5 28.8391940795357 L 195.5 28.83919407953576 L 196.5 26.592143015435568 L 196.5 26.592143015435596 L 197.5 24.6294403386606 L 197.5 24.62944033866063 L 198.5 22.95500501374525 L 198.5 22.95500501374528 L 199.5 21.57218041650023 L 199.5 21.57218041650026 L 200.5 20.48372765823308 L 200.5 20.483727658233136 L 201.5 19.691820072585898 L 201.5 19.691820072585926 L 202.5 19.198038876000368 L 202.5 19.198038876000425 L 203.5 19.003370010473787 L 203.5 19.108202174910417 L 204.5 18.999999999999915 L 204.5 19.108202174910417 L 205.5 19.512326048999427 L 205.5 19.512326048999398 L 206.5 20.214934711168382 L 206.5 20.214934711168326 L 207.5 21.21462524977855 L 207.5 21.21462524977852 L 208.5 22.509401564344387 L 208.5 22.50940156434436 L 209.5 24.096678351183982 L 209.5 24.096678351183982 L 210.5 25.973286265542555 L 210.5 25.973286265542527 L 211.5 28.135478249881317 L 211.5 28.135478249881288 L 212.5 30.57893701569634 L 212.5 30.57893701569631 L 213.5 33.29878366392782 L 213.5 33.29878366392779 L 214.5 36.28958742674749 L 214.5 36.28958742674746 L 215.5 39.545376511272735 L 215.5 39.54537651127271 L 216.5 43.05965002355539 L 216.5 43.05965002355535 L 217.5 46.825390949036034 L 217.5 46.82539094903599 L 218.5 50.83508016354595 L 218.5 50.83508016354594 L 219.5 55.08071144688118 L 219.5 55.080711446881125 L 220.5 59.55380746896891 L 220.5 59.5538074689689 L 221.5 64.24543671670915 L 221.5 64.24543671670912 L 222.5 69.1462313276904 L 222.5 69.14623132769036 L 223.5 74.24640579517339 L 223.5 74.24640579517337 L 224.5 79.53577650699238 L 224.5 79.53577650699236 L 225.5 85.00378207936042 L 225.5 85.00378207936039 L 226.5 90.63950444497927 L 226.5 90.63950444497925 L 227.5 96.43169065334426 L 227.5 96.43169065334423 L 228.5 102.36877533971865 L 228.5 102.36877533971865 L 229.5 108.43890381790925 L 229.5 108.43890381790924 L 230.5 114.62995575073695 L 230.5 114.62995575073694 L 231.5 120.9295693509363 L 231.5 120.92956935093628 L 232.5 127.32516606416402 L 232.5 127.32516606416401 L 233.5 133.80397568482982 L 233.5 133.8039756848298 L 234.5 140.35306185460027 L 234.5 140.35306185460027 L 235.5 146.95934789266417 L 235.5 146.95934789266414 L 236.5 153.60964290618077 L 236.5 153.60964290618077 L 237.5 160.2906681287788 L 237.5 160.2906681287788 L 238.5 166.98908343451356 L 238.5 166.98908343451356 L 239.5 173.6915139743409 L 239.5 173.6915139743409 L 240.5 180.3845768819256 L 240.5 180.3845768819256 L 241.5 187.05490799545547 L 241.5 187.05490799545544 L 242.5 193.68918854210995 L 242.5 193.68918854210992 L 243.5 200.2741717318981 L 243.5 200.2741717318981 L 244.5 206.7967092077686 L 244.5 206.79670920776857 L 245.5 213.24377729917526 L 245.5 213.24377729917524 L 246.5 219.60250302668027 L 246.5 219.60250302668027 L 247.5 225.86018980566848 L 247.5 225.86018980566845 L 248.5 232.00434279785156 L 248.5 232.00434279785156 L 249.5 238.0226938599419 L 249.5 238.02269385994188 L 250.5 243.90322603967905 L 250.5 243.90322603967905 L 251.5 249.63419757030024 L 251.5 249.63419757030022 L 252.5 255.20416531554127 L 252.5 255.20416531554122 L 253.5 260.6020076183579 L 253.5 260.60200761835785 L 254.5 265.81694650774233 L 254.5 265.8169465077423 L 255.5 270.8385692192968 L 255.5 270.83856921929674 L 256.5 275.65684898659106 L 256.5 275.65684898659106 L 257.5 280.2621650617922 L 257.5 280.2621650617922 L 258.5 284.6453219255879 L 258.5 284.64532192558784 L 259.5 288.7975676480495 L 259.5 288.7975676480495 L 260.5 292.7106113637715 L 260.5 292.7106113637714 L 261.5 296.3766398263946 L 261.5 296.3766398263946 L 262.5 299.78833300945894 L 262.5 299.78833300945894 L 263.5 302.9388787224352 L 263.5 302.93887872243516 L 264.5 305.82198621275074 L 264.5 305.82198621275074 L 265.5 308.4318987266513 L 265.5 308.4318987266512 L 266.5 310.76340500381644 L 266.5 310.7634050038164 L 267.5 312.81184968277967 L 267.5 312.81184968277967 L 268.5 314.5731425963739 L 268.5 314.5731425963738 L 269.5 316.0437669386432 L 269.5 316.04376693864316 L 270.5 317.2207862869144 L 270.5 317.2207862869144 L 271.5 318.10185046500635 L 271.5 318.10185046500624 L 272.5 318.68520023586905 L 272.5 318.68520023586905 L 273.5 318.9696708142858 L 273.5 318.9546941926204 L 274.5 319 L 274.5 318.9546941926204 L 275.5 318.6403002749687 L 275.5 318.6403002749687 L 276.5 318.02711681744876 L 276.5 318.0271168174488 L 277.5 317.1163681747484 L 277.5 317.11636817474846 L 278.5 315.9098728554337 L 278.5 315.9098728554337 L 279.5 314.4100398908996 L 279.5 314.41003989089967 L 280.5 312.6198640252127 L 280.5 312.6198640252127 L 281.5 310.5429197354502 L 281.5 310.54291973545025 L 282.5 308.1833540944765 L 282.5 308.1833540944765 L 283.5 305.54587849040604 L 283.5 305.54587849040604 L 284.5 302.63575921928805 L 284.5 302.63575921928805 L 285.5 299.45880696979657 L 285.5 299.45880696979657 L 286.5 296.02136522092127 L 286.5 296.0213652209213 L 287.5 292.3302975758264 L 287.5 292.3302975758264 L 288.5 288.39297405716826 L 288.5 288.3929740571683 L 289.5 284.21725639123497 L 289.5 284.21725639123497 L 290.5 279.81148231029334 L 290.5 279.8114823102934 L 291.5 275.1844489044857 L 291.5 275.18444890448575 L 292.5 270.3453950565173 L 292.5 270.3453950565173 L 293.5 265.3039829942106 L 293.5 265.3039829942106 L 294.5 260.07027899775625 L 294.5 260.0702789977563 L 295.5 254.65473330018648 L 295.5 254.6547333001865 L 296.5 249.06815922120276 L 296.5 249.0681592212028 L 297.5 243.32171157602195 L 297.5 243.32171157602198 L 298.5 237.42686440235025 L 298.5 237.4268644023503 L 299.5 231.39538804996243 L 299.5 231.39538804996243 L 300.5 225.23932567862718 L 300.5 225.2393256786272 L 301.5 218.97096921130887 L 301.5 218.97096921130887 L 302.5 212.60283479065856 L 302.5 212.60283479065856 L 303.5 206.14763778780204 L 303.5 206.14763778780204 L 304.5 199.61826741332428 L 304.5 199.61826741332428 L 305.5 193.0277609811456 L 305.5 193.0277609811456 L 306.5 186.38927787667726 L 306.5 186.38927787667726 L 307.5 179.71607328123443 L 307.5 179.71607328123446 L 308.5 173.02147170517216 L 308.5 173.02147170517216 L 309.5 166.31884038258977 L 309.5 166.31884038258977 L 310.5 159.62156258072957 L 310.5 159.62156258072957 L 311.5 152.9430108773605 L 311.5 152.9430108773605 L 312.5 146.29652045950598 L 312.5 146.296520459506 L 313.5 139.69536249683148 L 313.5 139.69536249683148 L 314.5 133.15271764285498 L 314.5 133.15271764285498 L 315.5 126.68164971689399 L 315.5 126.681649716894 L 316.5 120.29507961929767 L 316.5 120.2950796192977 L 317.5 114.00575953204705 L 317.5 114.00575953204705 L 318.5 107.82624745623883 L 318.5 107.82624745623886 L 319.5 101.76888213729332 L 319.5 101.76888213729333 L 320.5 95.84575842795508 L 320.5 95.8457584279551 L 321.5 90.06870313827746 L 321.5 90.06870313827747 L 322.5 84.449251420814 L 322.5 84.44925142081404 L 323.5 78.99862373816651 L 323.5 78.99862373816653 L 324.5 73.72770345888141 L 324.5 73.72770345888145 L 325.5 68.64701512642763 L 325.5 68.64701512642766 L 326.5 63.76670344464658 L 326.5 63.76670344464664 L 327.5 59.09651302163623 L 327.5 59.09651302163627 L 328.5 54.64576891251218 L 328.5 54.645768912512196 L 329.5 50.423357999898826 L 329.5 50.423357999898855 L 330.5 46.43771124932769 L 330.5 46.437711249327705 L 331.5 42.69678687497293 L 331.5 42.69678687497294 L 332.5 39.2080544493389 L 332.5 39.20805444933896 L 333.5 35.97847998862764 L 333.5 35.97847998862764 L 334.5 33.01451204356579 L 334.5 33.014512043565844 L 335.5 30.322068823465173 L 335.5 30.3220688234652 L 336.5 27.906526379224857 L 336.5 27.906526379224914 L 337.5 25.77270786887206 L 337.5 25.77270786887206 L 338.5 23.924873927073264 L 338.5 23.924873927073293 L 339.5 22.366714157847014 L 339.5 22.366714157847042 L 340.5 21.101339767463543 L 340.5 21.10133976746357 L 341.5 20.13127735224191 L 341.5 20.13127735224191 L 342.5 19.458463853648766 L 342.5 19.458463853648794 L 343.5 19.08424269077173 L 343.5 19.08424269077176 L 344.5 18.999999999999915 L 344.5 19.009361077889707 L 345.5 19.233968532496448 L 345.5 19.23396853249639 L 346.5 19.757616576756078 L 346.5 19.75761657675605 L 347.5 20.579259632987316 L 347.5 20.579259632987316 L 348.5 21.697257111387472 L 348.5 21.697257111387444 L 349.5 23.10937668582821 L 349.5 23.109376685828153 L 350.5 24.812798751182356 L 350.5 24.812798751182328 L 351.5 26.80412205328139 L 351.5 26.80412205328136 L 352.5 29.07937048026176 L 352.5 29.07937048026173 L 353.5 31.63400100174121 L 353.5 31.634001001741183 L 354.5 34.46291273997045 L 354.5 34.46291273997039 L 355.5 37.5604571548501 L 355.5 37.56045715485007 L 356.5 40.9204493224745 L 356.5 40.92044932247447 L 357.5 44.536180284682686 L 357.5 44.536180284682644 L 358.5 48.40043044495867 L 358.5 48.40043044495863 L 359.5 52.50548398393326 L 359.5 52.50548398393323 L 360.5 56.84314426570127 L 360.5 56.84314426570124 L 361.5 61.404750204196404 L 361.5 61.404750204196375 L 362.5 66.18119355694058 L 362.5 66.18119355694057 L 363.5 71.16293711163871 L 363.5 71.16293711163868 L 364.5 76.3400337293071 L 364.5 76.34003372930707 L 365.5 81.70214620590757 L 365.5 81.70214620590752 L 366.5 87.23856791283343 L 366.5 87.23856791283339 L 367.5 92.93824417503221 L 367.5 92.9382441750322 L 368.5 98.78979434407817 L 368.5 98.78979434407816 L 369.5 104.78153452212177 L 369.5 104.78153452212176 L 370.5 110.90150089134488 L 370.5 110.90150089134487 L 371.5 117.13747360233405 L 371.5 117.13747360233404 L 372.5 123.47700117368029 L 372.5 123.47700117368026 L 373.5 129.90742535408026 L 373.5 129.90742535408023 L 374.5 136.41590639729873 L 374.5 136.4159063972987 L 375.5 142.98944869952777 L 375.5 142.98944869952777 L 376.5 149.61492674794627 L 376.5 149.61492674794624 L 377.5 156.27911132867328 L 377.5 156.27911132867328 L 378.5 162.96869594178355 L 378.5 162.96869594178355 L 379.5 169.6703233706399 L 379.5 169.6703233706399 L 380.5 176.37061235249294 L 380.5 176.37061235249294 L 381.5 183.05618429709503 L 381.5 183.05618429709503 L 382.5 189.71368999997833 L 382.5 189.71368999997833 L 383.5 196.32983629705492 L 383.5 196.32983629705492 L 384.5 202.89141260732407 L 384.5 202.89141260732407 L 385.5 209.38531731068127 L 385.5 209.38531731068127 L 386.5 215.79858390816355 L 386.5 215.79858390816352 L 387.5 222.11840691239806 L 387.5 222.11840691239803 L 388.5 228.33216741655227 L 388.5 228.33216741655224 L 389.5 234.42745829073914 L 389.5 234.42745829073914 L 390.5 240.39210895556073 L 390.5 240.39210895556073 L 391.5 246.21420968332734 L 391.5 246.2142096833273 L 392.5 251.88213537843106 L 392.5 251.88213537843103 L 393.5 257.3845687893875 L 393.5 257.3845687893875 L 394.5 262.7105231061995 L 394.5 262.7105231061995 L 395.5 267.849363897923 L 395.5 267.84936389792296 L 396.5 272.79083034663176 L 396.5 272.79083034663176 L 397.5 277.5250557353797 L 397.5 277.5250557353796 L 398.5 282.04258714925754 L 398.5 282.04258714925754 L 399.5 286.334404350201 L 399.5 286.33440435020094 L 400.5 290.3919377878659 L 400.5 290.3919377878659 L 401.5 294.2070857106081 L 401.5 294.20708571060806 L 402.5 297.77223034239887 L 402.5 297.77223034239887 L 403.5 301.0802530933786 L 403.5 301.0802530933785 L 404.5 304.12454877367657 L 404.5 304.12454877367657 L 405.5 306.89903878211476 L 405.5 306.8990387821147 L 406.5 309.3981832434624 L 406.5 309.3981832434624 L 407.5 311.61699207000754 L 407.5 311.61699207000754 L 408.5 313.5510349253557 L 408.5 313.5510349253557 L 409.5 315.19645007056516 L 409.5 315.19645007056516 L 410.5 316.54995207495176 L 410.5 316.54995207495176 L 411.5 317.6088383761685 L 411.5 317.6088383761684 L 412.5 318.3709946764617 L 412.5 318.3709946764617 L 413.5 318.8348991643286 L 413.5 318.8348991643285 L 414.5 318.9996255531455 L 414.5 318.86484493070225 L 415.5 319 L 415.5 318.86484493070225 L 416.5 318.4308264159466 L 416.5 318.4308264159466 L 417.5 317.69843662162987 L 417.5 317.69843662162987 L 418.5 316.66913792392506 L 418.5 316.66913792392506 L 419.5 315.3449855424735 L 419.5 315.3449855424735 L 420.5 313.7286234366903 L 420.5 313.7286234366903 L 421.5 311.82327902652145 L 421.5 311.8232790265215 L 422.5 309.63275674819545 L 422.5 309.6327567481955 L 423.5 307.1614304578355 L 423.5 307.16143045783554 L 424.5 304.4142346980999 L 424.5 304.4142346980999 L 425.5 301.3966548452912 L 425.5 301.3966548452912 L 426.5 298.11471615660315 L 426.5 298.1147161566032 L 427.5 294.5749717393795 L 427.5 294.5749717393795 L 428.5 290.7844894664044 L 428.5 290.78448946640447 L 429.5 286.7508378633496 L 429.5 286.75083786334966 L 430.5 282.48207099656145 L 430.5 282.4820709965615 L 431.5 277.98671239135774 L 431.5 277.98671239135774 L 432.5 273.27373801294743 L 432.5 273.2737380129475 L 433.5 268.3525583439571 L 433.5 268.3525583439572 L 434.5 263.2329995943465 L 434.5 263.23299959434655 L 435.5 257.92528408123394 L 435.5 257.925284081234 L 436.5 252.44000981780815 L 436.5 252.44000981780817 L 437.5 246.78812935208109 L 437.5 246.7881293520811 L 438.5 240.98092789773233 L 438.5 240.98092789773233 L 439.5 235.03000080071712 L 439.5 235.03000080071715 L 440.5 228.94723038662428 L 440.5 228.9472303866243 L 441.5 222.74476223501875 L 441.5 222.74476223501878 L 442.5 216.43498092814033 L 442.5 216.43498092814036 L 443.5 210.03048532237892 L 443.5 210.03048532237895 L 444.5 203.54406339190717 L 444.5 203.54406339190717 L 445.5 196.98866669469783 L 445.5 196.98866669469786 L 446.5 190.37738451190802 L 446.5 190.37738451190802 L 447.5 183.72341771227258 L 447.5 183.72341771227258 L 448.5 177.04005239368593 L 448.5 177.04005239368595 L 449.5 170.34063335460522 L 449.5 170.34063335460522 L 450.5 163.6385374482473 L 450.5 163.6385374482473 L 451.5 156.94714687277974 L 451.5 156.94714687277974 L 452.5 150.27982245083638 L 452.5 150.27982245083638 L 453.5 143.6498769517228 L 453.5 143.64987695172283 L 454.5 137.0705485095606 L 454.5 137.07054850956064 L 455.5 130.55497419046225 L 455.5 130.55497419046225 L 456.5 124.116163761511 L 456.5 124.11616376151102 L 457.5 117.7669737139181 L 457.5 117.76697371391812 L 458.5 111.52008159223095 L 458.5 111.52008159223095 L 459.5 105.38796068084741 L 459.5 105.38796068084743 L 460.5 99.38285509837814 L 460.5 99.38285509837816 L 461.5 93.51675534959028 L 461.5 93.51675534959033 L 462.5 87.80137438374695 L 462.5 87.80137438374699 L 463.5000000000001 82.248124207144 L 463.5000000000001 82.24812420714403 L 464.5 76.86809309655017 L 464.5 76.86809309655018 L 465.5 71.6720234590367 L 465.5 71.67202345903674 L 466.5 66.67029038242052 L 466.5 66.67029038242053 L 467.5 61.872880919130566 L 467.5 61.87288091913061 L 468.5 57.289374144881464 L 468.5 57.28937414488148 L 469.5 52.92892203195156 L 469.5 52.9289220319516 L 470.5 48.80023117527706 L 470.5 48.80023117527709 L 471.5 44.91154540782881 L 471.5 44.911545407828854 L 472.5 41.27062934000331 L 472.5 41.270629340003325 L 473.5 37.884752855879896 L 473.5 37.88475285587995 L 474.5 34.76067659731012 L 474.5 34.76067659731018 L 475.5 31.90463846482001 L 475.5 31.90463846482004 L 476.5 29.32234116227957 L 476.5 29.3223411622796 L 477.5 27.01894081020839 L 477.5 27.01894081020842 L 478.5 24.99903665045548 L 478.5 24.99903665045548 L 479.5 23.26666186280849 L 479.5 23.26666186280852 L 480.5000000000001 21.82527551186905 L 480.5000000000001 21.82527551186908 L 481.5 20.677755640275535 L 481.5 20.677755640275564 L 482.5000000000001 19.82639352206138 L 482.5000000000001 19.82639352206141 L 483.5 19.27288908762725 L 483.5 19.272889087627277 L 484.5 19.018347529457714 L 484.5 19.063277095363787 L 485.5 18.999999999999915 L 485.5 19.063277095363787 L 486.5 19.407588073654892 L 486.5 19.407588073654836 L 487.5 20.050592972267623 L 487.5 20.050592972267623 L 488.5 20.99100789149452 L 488.5 20.99100789149449 L 489.5 22.22695508756928 L 489.5 22.22695508756925 L 490.5 23.755966721992934 L 490.5 23.755966721992905 L 491.5 25.57498978911218 L 491.5 25.574989789112124 L 492.5 27.680392212111997 L 492.5 27.68039221211197 L 493.5 30.067970095249905 L 493.5 30.067970095249905 L 494.5 32.73295611785244 L 494.5 32.73295611785238 L 495.5 35.67002905331171 L 495.5 35.67002905331168 L 496.5 38.87332439407615 L 496.5 38.87332439407612 L 497.5000000000001 42.33644606142157 L 497.5000000000001 42.33644606142154 L 498.5 46.052479176617496 L 498.5 46.05247917661745 L 499.5000000000001 50.01400386799526 L 499.5000000000001 50.01400386799523 L 500.5 54.213110086339015 L 500.5 54.213110086339 L 501.5 58.64141339903013 L 501.5 58.6414133990301 L 502.5 63.290071731393866 L 502.5 63.29007173139385 L 503.5 68.14980302183744 L 503.5 68.14980302183741 L 504.5 73.21090375550769 L 504.5 73.21090375550766 L 505.5 78.46326833948288 L 505.5 78.46326833948285 L 506.5 83.89640928079153 L 506.5 83.8964092807915 L 507.5 89.49947812698522 L 507.5 89.4994781269852 L 508.5 95.2612871274427 L 508.5 95.26128712744267 L 509.5 101.17033157215694 L 509.5 101.17033157215693 L 510.5 107.21481276340067 L 510.5 107.21481276340066 L 511.5 113.38266157440441 L 511.5 113.3826615744044 L 512.5 119.66156254800329 L 512.5 119.66156254800327 L 513.5 126.038978487136 L 513.5 126.03897848713598 L 514.5 132.50217548809866 L 514.5 132.50217548809863 L 515.5 139.03824836656239 L 515.5 139.03824836656239 L 516.5000000000001 145.63414642559468 L 516.5000000000001 145.63414642559465 L 517.5 152.27669951422243 L 517.5 152.27669951422243 L 518.5000000000001 158.95264432451984 L 518.5000000000001 158.95264432451984 L 519.5 165.64865087469278 L 519.5 165.64865087469278 L 520.5 172.3513491253061 L 520.5 172.3513491253061 L 521.5 179.04735567547928 L 521.5 179.04735567547928 L 522.5 185.7233004857767 L 522.5 185.7233004857767 L 523.5 192.36585357440447 L 523.5 192.36585357440447 L 524.5 198.96175163343676 L 524.5 198.96175163343676 L 525.5 205.49782451190052 L 525.5 205.4978245119005 L 526.5 211.96102151286317 L 526.5 211.96102151286317 L 527.5 218.33843745199616 L 527.5 218.33843745199613 L 528.5 224.61733842559477 L 528.5 224.61733842559477 L 529.5 230.78518723659855 L 529.5 230.78518723659852 L 530.5 236.82966842784228 L 530.5 236.82966842784228 L 531.5 242.73871287255633 L 531.5 242.7387128725563 L 532.5 248.5005218730138 L 532.5 248.50052187301378 L 533.5000000000001 254.103590719208 L 533.5000000000001 254.10359071920794 L 534.5 259.53673166051647 L 534.5 259.5367316605164 L 535.5000000000001 264.78909624449165 L 535.5000000000001 264.7890962444916 L 536.5 269.8501969781617 L 536.5 269.8501969781617 L 537.5 274.7099282686053 L 537.5 274.70992826860527 L 538.5 279.3585866009695 L 538.5 279.35858660096943 L 539.5 283.7868899136606 L 539.5 283.78688991366056 L 540.5 287.98599613200423 L 540.5 287.9859961320042 L 541.5 291.94752082338204 L 541.5 291.947520823382 L 542.5 295.6635539385781 L 542.5 295.66355393857805 L 543.5 299.1266756059233 L 543.5 299.12667560592325 L 544.5 302.32997094668804 L 544.5 302.32997094668804 L 545.5 305.26704388214716 L 545.5 305.26704388214716 L 546.5 307.93202990474975 L 546.5 307.9320299047497 L 547.5 310.3196077878877 L 547.5 310.31960778788766 L 548.5 312.42501021088754 L 548.5 312.4250102108874 L 549.5 314.2440332780068 L 549.5 314.2440332780068 L 550.5000000000001 315.7730449124306 L 550.5000000000001 315.7730449124306 L 551.5 317.0089921085053 L 551.5 317.0089921085053 L 552.5000000000001 317.9494070277322 L 552.5000000000001 317.9494070277322 L 553.5 318.592411926345 L 553.5 318.592411926345 L 554.5000000000001 318.9367229046361 L 554.5000000000001 318.9367229046361 L 555.5 319 L 555.5 318.98165247054226 L 556.5 318.7271109123727 L 556.5 318.7271109123727 L 557.5 318.1736064779386 L 557.5 318.1736064779386 L 558.5 317.32224435972455 L 558.5 317.32224435972455 L 559.5 316.17472448813095 L 559.5 316.174724488131 L 560.5 314.7333381371917 L 560.5 314.7333381371917 L 561.5 313.0009633495446 L 561.5 313.0009633495447 L 562.5 310.9810591897919 L 562.5 310.9810591897919 L 563.5 308.6776588377205 L 563.5 308.67765883772057 L 564.5 306.09536153518036 L 564.5 306.09536153518036 L 565.5 303.23932340269016 L 565.5 303.23932340269016 L 566.5 300.11524714412064 L 566.5 300.1152471441207 L 567.5 296.729370659997 L 567.5 296.7293706599971 L 568.5 293.0884545921714 L 568.5 293.08845459217144 L 569.5000000000001 289.19976882472315 L 569.5000000000001 289.19976882472326 L 570.5 285.0710779680489 L 570.5 285.0710779680489 L 571.5000000000001 280.710625855119 L 571.5000000000001 280.710625855119 L 572.5 276.1271190808699 L 572.5 276.12711908087 L 573.5 271.32970961757997 L 573.5 271.32970961758 L 574.5 266.3279765409641 L 574.5 266.3279765409641 L 575.5 261.1319069034506 L 575.5 261.1319069034506 L 576.5 255.751875792857 L 576.5 255.75187579285705 L 577.5 250.1986256162541 L 577.5 250.19862561625413 L 578.5 244.4832446504103 L 578.5 244.48324465041037 L 579.5 238.61714490162228 L 579.5 238.61714490162228 L 580.5 232.6120393191535 L 580.5 232.6120393191535 L 581.5 226.4799184077695 L 581.5 226.4799184077695 L 582.5 220.2330262860831 L 582.5 220.23302628608312 L 583.5 213.88383623848972 L 583.5 213.88383623848972 L 584.5 207.44502580953798 L 584.5 207.44502580953798 L 585.5 200.92945149044039 L 585.5 200.92945149044039 L 586.5000000000001 194.35012304827768 L 586.5000000000001 194.35012304827768 L 587.5 187.7201775491649 L 587.5 187.7201775491649 L 588.5000000000001 181.05285312722154 L 588.5000000000001 181.05285312722157 L 589.5 174.36146255175294 L 589.5 174.36146255175294 L 590.5000000000001 167.65936664539475 L 590.5000000000001 167.65936664539475 L 591.5 160.9599476063148 L 591.5 160.9599476063148 L 592.5 154.27658228772765 L 592.5 154.27658228772765 L 593.5 147.622615488093 L 593.5 147.622615488093 L 594.5 141.0113333053029 L 594.5 141.0113333053029 L 595.5 134.45593660809408 L 595.5 134.45593660809408 L 596.5 127.96951467762204 L 596.5 127.96951467762204 L 597.5 121.56501907186114 L 597.5 121.56501907186114 L 598.5 115.25523776498218 L 598.5 115.25523776498218 L 599.5000000000001 109.05276961337638 L 599.5000000000001 109.0527696133764 L 600.5 102.96999919928402 L 600.5 102.96999919928403 L 601.5000000000001 97.01907210226831 L 601.5000000000001 97.01907210226834 L 602.5 91.21187064791931 L 602.5 91.21187064791934 L 603.5000000000001 85.55999018219178 L 603.5000000000001 85.55999018219181 L 604.5 80.07471591876663 L 604.5 80.07471591876667 L 605.5000000000001 74.7670004056536 L 605.5000000000001 74.76700040565365 L 606.5 69.64744165604337 L 606.5 69.64744165604343 L 607.5000000000001 64.72626198705285 L 607.5000000000001 64.7262619870529 L 608.5 60.0132876086431 L 608.5 60.013287608643154 L 609.5 55.517929003438965 L 609.5 55.51792900343901 L 610.5 51.24916213665129 L 610.5 51.24916213665131 L 611.5 47.21551053359629 L 611.5 47.21551053359633 L 612.5 43.425028260620834 L 612.5 43.42502826062088 L 613.5 39.88528384339705 L 613.5 39.885283843397076 L 614.5 36.603345154709245 L 614.5 36.6033451547093 L 615.5 33.58576530190027" stroke-opacity="0.6980392156862745" stroke-linecap="round" stroke-linejoin="round" stroke-miterlimit="10" stroke-width="2.5"/><path fill="none" stroke="rgb(0,100,0)" paint-order="fill stroke markers" d=" M 0.5 301.78843814105437 L 0.5 304.7725385279987 L 0.5 304.7725385279987 L 1.4999999999999716 307.4855393900223 L 1.4999999999999716 307.48553939002227 L 2.4999999999999716 309.9220236284043 L 2.500000000000057 309.9220236284044 L 3.5000000000000284 312.07712627025217 L 3.5000000000000284 312.07712627025217 L 4.500000000000028 313.9465441824823 L 4.500000000000028 313.9465441824822 L 5.500000000000028 315.5265446639655 L 5.500000000000028 315.52654466396547 L 6.500000000000028 316.8139728986797 L 6.500000000000028 316.81397289867965 L 7.500000000000028 317.8062582549892 L 7.500000000000028 317.8062582549892 L 8.500000000000028 318.5014194184721 L 8.500000000000028 318.5014194184721 L 9.500000000000028 318.89806834804745 L 9.500000000000028 318.8980683480474 L 10.500000000000028 319 L 10.500000000000028 318.9954130475018 L 11.5 318.7932591468835 L 11.5 318.79325914688354 L 12.5 318.292010290604 L 12.5 318.2920102906041 L 13.5 317.49266733147414 L 13.5 317.4926673314742 L 14.5 316.3968263322825 L 14.5 316.39682633228256 L 15.5 315.00667537890774 L 15.5 315.00667537890774 L 16.5 313.3249902113274 L 16.5 313.3249902113275 L 17.5 311.3551286812466 L 17.5 311.3551286812466 L 18.5 309.1010240474136 L 18.5 309.1010240474136 L 19.500000000000057 306.56717712201 L 19.500000000000057 306.56717712201004 L 20.500000000000057 303.75864728379673 L 20.500000000000057 303.75864728379673 L 21.50000000000003 300.68104237595844 L 21.50000000000003 300.68104237595844 L 22.50000000000003 297.34050750882056 L 22.50000000000003 297.3405075088206 L 23.50000000000003 293.74371278979424 L 23.50000000000003 293.7437127897943 L 24.50000000000003 289.8978400050501 L 24.50000000000003 289.8978400050501 L 25.50000000000003 285.8105682795138 L 25.50000000000003 285.8105682795138 L 26.50000000000003 281.49005874381635 L 26.50000000000003 281.4900587438164 L 27.50000000000003 276.9449382388143 L 27.50000000000003 276.94493823881436 L 28.50000000000003 272.1842820902175 L 28.50000000000003 272.1842820902175 L 29.5 267.21759598771973 L 29.5 267.21759598771973 L 30.5 262.0547970048131 L 30.5 262.05479700481317 L 31.5 256.7061937971858 L 31.5 256.70619379718585 L 32.50000000000003 251.18246601923792 L 32.50000000000003 251.18246601923795 L 33.50000000000003 245.49464299982117 L 33.50000000000003 245.49464299982122 L 34.50000000000003 239.65408171977322 L 34.50000000000003 239.65408171977322 L 35.50000000000003 233.6724441352265 L 35.50000000000003 233.67244413522653 L 36.50000000000003 227.56167389196574 L 36.50000000000003 227.56167389196574 L 37.50000000000003 221.3339724773297 L 37.50000000000003 221.33397247732972 L 38.5 215.00177485727812 L 38.5 215.00177485727812 L 39.5 208.5777246472657 L 39.5 208.57772464726574 L 40.5 202.07464886650362 L 40.5 202.07464886650362 L 41.50000000000003 195.50553232601348 L 41.50000000000003 195.50553232601348 L 42.50000000000003 188.88349170161587 L 42.50000000000003 188.88349170161587 L 43.50000000000003 182.22174934362403 L 43.50000000000003 182.22174934362403 L 44.50000000000003 175.53360687553243 L 44.50000000000003 175.53360687553243 L 45.500000000000014 168.8324186344208 L 45.500000000000014 168.8324186344208 L 46.500000000000014 162.1315650061041 L 46.500000000000014 162.1315650061041 L 47.500000000000014 155.4444257082697 L 47.500000000000014 155.4444257082697 L 48.500000000000014 148.7843530749492 L 48.500000000000014 148.7843530749492 L 49.5 142.1646453956668 L 49.5 142.1646453956668 L 50.50000000000003 135.598520362501 L 50.50000000000003 135.598520362501 L 51.50000000000003 129.0990886780754 L 51.50000000000003 129.09908867807542 L 52.50000000000003 122.67932787717712 L 52.50000000000003 122.67932787717714 L 53.50000000000003 116.35205641427493 L 53.50000000000003 116.35205641427495 L 54.500000000000014 110.12990806867538 L 54.500000000000014 110.12990806867539 L 55.500000000000014 104.02530671842283 L 55.500000000000014 104.02530671842284 L 56.500000000000014 98.05044153331436 L 56.500000000000014 98.05044153331436 L 57.500000000000014 92.21724263655976 L 57.500000000000014 92.21724263655979 L 58.5 86.5373572836854 L 58.5 86.53735728368542 L 59.50000000000003 81.02212660624409 L 59.50000000000003 81.02212660624411 L 60.50000000000003 75.68256296677073 L 60.50000000000003 75.68256296677076 L 61.50000000000003 70.52932797019389 L 61.50000000000003 70.52932797019393 L 62.50000000000003 65.5727111756136 L 62.50000000000003 65.57271117561363 L 63.500000000000014 60.822609550949934 L 63.500000000000014 60.82260955094995 L 64.50000000000001 56.28850771148467 L 64.50000000000001 56.288507711484726 L 65.50000000000001 51.9794589817558 L 65.50000000000001 51.97945898175584 L 66.50000000000001 47.90406731861735 L 66.50000000000001 47.90406731861739 L 67.5 44.07047013156124 L 67.5 44.070470131561265 L 68.50000000000003 40.48632203460147 L 68.50000000000003 40.48632203460153 L 69.50000000000003 37.1587795621661 L 69.50000000000003 37.15877956216613 L 70.50000000000003 34.09448687951263 L 70.50000000000003 34.09448687951269 L 71.50000000000003 31.299562516201632 L 71.50000000000003 31.29956251620169 L 72.50000000000001 28.779587149115798 L 72.50000000000001 28.779587149115827 L 73.50000000000001 26.539592459420106 L 73.50000000000001 26.539592459420163 L 74.50000000000001 24.584051085711366 L 74.50000000000001 24.584051085711394 L 75.50000000000001 22.916867693418396 L 75.50000000000001 22.916867693418425 L 76.5 21.541371178284777 L 76.5 21.541371178284834 L 77.50000000000003 20.460308019501554 L 77.50000000000003 20.46030801950161 L 78.50000000000003 19.675836795761796 L 78.50000000000003 19.675836795761825 L 79.50000000000003 19.189523875186467 L 79.50000000000003 19.189523875186524 L 80.50000000000003 19.002340287728828 L 80.50000000000003 19.114659786300734 L 81.50000000000001 18.999999999999915 L 81.50000000000001 19.114659786300763 L 82.50000000000001 19.526258100493607 L 82.50000000000001 19.52625810049358 L 83.50000000000001 20.236313384382925 L 83.50000000000001 20.236313384382896 L 84.50000000000001 21.243407857523493 L 84.50000000000001 21.243407857523437 L 85.50000000000004 22.545530635857403 L 85.50000000000004 22.545530635857375 L 86.50000000000003 24.14008174688348 L 86.50000000000003 24.140081746883453 L 87.50000000000003 26.023877321070046 L 87.50000000000003 26.02387732106999 L 88.50000000000003 28.193155949145677 L 88.50000000000003 28.19315594914562 L 89.50000000000003 30.64358619257459 L 89.50000000000003 30.64358619257456 L 90.50000000000001 33.3702752322194 L 90.50000000000001 33.37027523221937 L 91.50000000000001 36.36777863792304 L 91.50000000000001 36.36777863792298 L 92.50000000000001 39.63011123950287 L 92.50000000000001 39.63011123950284 L 93.50000000000001 43.15075907744959 L 93.50000000000001 43.15075907744955 L 94.50000000000004 46.92269240947073 L 94.50000000000004 46.9226924094707 L 95.50000000000003 50.938379746905554 L 95.50000000000003 50.938379746905525 L 96.50000000000003 55.18980289298737 L 96.50000000000003 55.18980289298736 L 97.50000000000003 59.668472952924944 L 97.50000000000003 59.668472952924915 L 98.50000000000003 64.36544728383406 L 98.50000000000003 64.36544728383404 L 99.50000000000001 69.27134735067742 L 99.50000000000001 69.27134735067739 L 100.50000000000001 74.37637745255834 L 100.50000000000001 74.37637745255832 L 101.50000000000001 79.67034428197634 L 101.50000000000001 79.67034428197631 L 102.50000000000001 85.14267727799196 L 102.50000000000001 85.14267727799192 L 103.50000000000004 90.78244973266078 L 103.50000000000004 90.78244973266072 L 104.50000000000003 96.57840060859058 L 104.50000000000003 96.57840060859057 L 105.50000000000003 102.5189570240636 L 105.50000000000003 102.51895702406358 L 106.50000000000003 108.59225736082156 L 106.50000000000003 108.59225736082155 L 107.50000000000003 114.78617494837677 L 107.50000000000003 114.78617494837675 L 108.50000000000003 121.08834227755833 L 108.50000000000003 121.08834227755833 L 109.50000000000001 127.48617569494571 L 109.50000000000001 127.4861756949457 L 110.50000000000001 133.96690052887962 L 110.50000000000001 133.96690052887962 L 111.5 140.51757659688565 L 111.5 140.51757659688565 L 112.50000000000003 147.1251240435734 L 112.50000000000003 147.1251240435734 L 113.50000000000003 153.77634945742395 L 113.50000000000003 153.77634945742395 L 114.50000000000003 160.45797221431908 L 114.50000000000003 160.45797221431908 L 115.50000000000003 167.15665099520595 L 115.50000000000003 167.15665099520595 L 116.50000000000003 173.859010424955 L 116.50000000000003 173.859010424955 L 117.50000000000003 180.5516677792177 L 117.50000000000003 180.5516677792177 L 118.50000000000001 187.22125970595772 L 118.50000000000001 187.2212597059577 L 119.50000000000001 193.8544689083021 L 119.50000000000001 193.8544689083021 L 120.5 200.43805073543342 L 120.5 200.43805073543342 L 121.50000000000003 206.95885962842644 L 121.50000000000003 206.9588596284264 L 122.50000000000003 213.4038753682281 L 122.50000000000003 213.4038753682281 L 123.50000000000003 219.76022907336906 L 123.50000000000003 219.76022907336903 L 124.50000000000003 226.01522889549474 L 124.50000000000003 226.01522889549472 L 125.50000000000003 232.15638536141313 L 125.50000000000003 232.15638536141313 L 126.50000000000003 238.17143631105546 L 126.50000000000003 238.17143631105546 L 127.50000000000001 244.04837138155665 L 127.50000000000001 244.0483713815566 L 128.5 249.77545598856813 L 128.5 249.77545598856807 L 129.5 255.34125475691766 L 129.5 255.34125475691764 L 130.50000000000003 260.7346543538338 L 130.50000000000003 260.7346543538338 L 131.50000000000003 265.94488567914124 L 131.50000000000003 265.9448856791412 L 132.50000000000003 270.96154536812185 L 132.50000000000003 270.96154536812185 L 133.50000000000003 275.7746165641042 L 133.50000000000003 275.7746165641042 L 134.50000000000003 280.3744889193052 L 134.50000000000003 280.3744889193051 L 135.50000000000003 284.7519777839885 L 135.50000000000003 284.7519777839884 L 136.5 288.8983425456235 L 136.5 288.8983425456235 L 137.5 292.8053040814274 L 137.5 292.8053040814274 L 138.50000000000003 296.46506128944156 L 138.50000000000003 296.46506128944156 L 139.50000000000003 299.87030666513533 L 139.50000000000003 299.8703066651353 L 140.50000000000003 303.01424089243494 L 140.50000000000003 303.0142408924348 L 141.50000000000003 305.89058642004284 L 141.50000000000003 305.89058642004284 L 142.50000000000003 308.4935999959401 L 142.50000000000003 308.49359999594003 L 143.50000000000003 310.8180841350427 L 143.50000000000003 310.8180841350427 L 144.50000000000003 312.8593974971164 L 144.50000000000003 312.85939749711633 L 145.5 314.61346415422554 L 145.5 314.61346415422554 L 146.5 316.07678172921374 L 146.5 316.0767817292137 L 147.50000000000003 317.2464283889643 L 147.50000000000003 317.24642838896426 L 148.50000000000003 318.1200686784786 L 148.50000000000003 318.12006867847856 L 149.50000000000003 318.69595818412193 L 149.50000000000003 318.6959581841219 L 150.50000000000003 318.97294701672604 L 150.50000000000003 318.9504821075944 L 151.50000000000003 319 L 151.50000000000003 318.9504821075944 L 152.50000000000003 318.62860831282404 L 152.50000000000003 318.6286083128241 L 153.50000000000003 318.00796832374135 L 153.50000000000003 318.0079683237414 L 154.5 317.08980138362784 L 154.5 317.08980138362784 L 155.5 315.8759408133004 L 155.5 315.8759408133004 L 156.50000000000003 314.3688103504862 L 156.50000000000003 314.3688103504863 L 157.50000000000003 312.5714193103008 L 157.50000000000003 312.5714193103009 L 158.50000000000003 310.4873565764933 L 158.50000000000003 310.4873565764933 L 159.50000000000003 308.12078343545596 L 159.50000000000003 308.120783435456 L 160.50000000000003 305.47642526730755 L 160.50000000000003 305.4764252673076 L 161.50000000000003 302.55956211063966 L 161.50000000000003 302.5595621106397 L 162.50000000000003 299.3760181197665 L 162.50000000000003 299.37601811976657 L 163.5 295.9321499355292 L 163.5 295.93214993552925 L 164.5 292.23483399287363 L 164.5 292.2348339928737 L 165.50000000000003 288.2914527905465 L 165.50000000000003 288.29145279054654 L 166.50000000000003 284.1098801503247 L 166.50000000000003 284.1098801503248 L 167.50000000000003 279.69846549520986 L 167.50000000000003 279.69846549520986 L 168.50000000000003 275.06601717798213 L 168.50000000000003 275.0660171779822 L 169.50000000000003 270.22178489340047 L 169.50000000000003 270.2217848934005 L 170.50000000000003 265.17544120916676 L 170.50000000000003 265.17544120916676 L 171.50000000000003 259.9370622525315 L 171.50000000000003 259.9370622525316 L 172.50000000000003 254.51710759110648 L 172.50000000000003 254.51710759110654 L 173.50000000000003 248.9263993480523 L 173.50000000000003 248.9263993480523 L 174.50000000000003 243.17610059334697 L 174.50000000000003 243.17610059334697 L 175.50000000000003 237.27769305427805 L 175.50000000000003 237.27769305427807 L 176.50000000000003 231.2429541896674 L 176.50000000000003 231.2429541896674 L 177.50000000000003 225.08393367360173 L 177.50000000000003 225.08393367360176 L 178.50000000000003 218.81292933562776 L 178.50000000000003 218.81292933562779 L 179.50000000000003 212.44246260544827 L 179.50000000000003 212.44246260544827 L 180.50000000000003 205.98525351115447 L 180.50000000000003 205.9852535111545 L 181.50000000000003 199.4541952809113 L 181.50000000000003 199.45419528091134 L 182.50000000000003 192.8623285988118 L 182.50000000000003 192.8623285988118 L 183.50000000000003 186.22281556630318 L 183.50000000000003 186.22281556630318 L 184.50000000000003 179.54891342117693 L 184.50000000000003 179.54891342117693 L 185.50000000000003 172.8539480665982 L 185.50000000000003 172.8539480665982 L 186.50000000000003 166.1512874630299 L 186.50000000000003 166.1512874630299 L 187.50000000000003 159.45431493618014 L 187.50000000000003 159.45431493618014 L 188.50000000000003 152.77640245426943 L 188.50000000000003 152.77640245426943 L 189.50000000000003 146.13088392797604 L 189.50000000000003 146.13088392797607 L 190.50000000000003 139.5310285863717 L 190.50000000000003 139.5310285863717 L 191.50000000000003 132.99001448200696 L 191.50000000000003 132.99001448200696 L 192.50000000000003 126.52090217805154 L 192.50000000000003 126.52090217805156 L 193.50000000000003 120.13660867002824 L 193.50000000000003 120.13660867002824 L 194.50000000000003 113.84988159420973 L 194.50000000000003 113.84988159420973 L 195.50000000000003 107.67327377417905 L 195.50000000000003 107.67327377417908 L 196.50000000000003 101.61911815637578 L 196.50000000000003 101.6191181563758 L 197.50000000000003 95.69950318467505 L 197.50000000000003 95.69950318467507 L 198.50000000000003 89.92624866316937 L 198.50000000000003 89.92624866316939 L 199.50000000000003 84.31088215534834 L 199.50000000000003 84.31088215534837 L 200.50000000000003 78.86461596680063 L 200.50000000000003 78.86461596680066 L 201.50000000000003 73.59832475739718 L 201.50000000000003 73.59832475739721 L 202.50000000000003 68.52252382765782 L 202.50000000000003 68.52252382765785 L 203.50000000000003 63.647348122657334 L 203.50000000000003 63.64734812265738 L 204.50000000000003 58.9825319953943 L 204.50000000000003 58.98253199539434 L 205.50000000000003 54.537389770028994 L 205.50000000000003 54.53738977002904 L 206.50000000000003 50.3207971438017 L 206.50000000000003 50.32079714380174 L 207.50000000000003 46.341173464764196 L 207.50000000000003 46.341173464764225 L 208.50000000000003 42.60646492071322 L 208.50000000000003 42.606464920713236 L 209.50000000000003 39.12412867289029 L 209.50000000000003 39.12412867289032 L 210.50000000000003 35.90111796613158 L 210.50000000000003 35.90111796613161 L 211.50000000000003 32.943868245195546 L 211.50000000000003 32.943868245195574 L 212.50000000000003 30.25828430499223 L 212.50000000000003 30.25828430499226 L 213.50000000000003 27.849728500370475 L 213.50000000000003 27.849728500370503 L 214.50000000000003 25.7230100390056 L 214.50000000000003 25.72301003900563 L 215.50000000000003 23.882375378765772 L 215.50000000000003 23.8823753787658 L 216.50000000000003 22.331499748731517 L 216.50000000000003 22.331499748731545 L 217.50000000000003 21.073479810798403 L 217.50000000000003 21.07347981079846 L 218.50000000000003 20.110827476515027 L 218.50000000000003 20.110827476515084 L 219.50000000000003 19.44546489150315 L 219.50000000000003 19.445464891503207 L 220.50000000000003 19.078720597474188 L 220.50000000000003 19.078720597474216 L 221.50000000000003 18.999999999999915 L 221.50000000000003 19.011326879505475 L 222.50000000000003 19.243418303873256 L 222.50000000000003 19.243418303873227 L 223.50000000000003 19.77453144936169 L 223.50000000000003 19.774531449361632 L 224.50000000000003 20.603605832584464 L 224.50000000000003 20.603605832584435 L 225.50000000000003 21.728986025471556 L 225.50000000000003 21.7289860254715 L 226.50000000000003 23.14842496069295 L 226.50000000000003 23.148424960692893 L 227.50000000000003 24.859088418419134 L 227.50000000000003 24.859088418419105 L 228.50000000000003 26.857560685460186 L 228.50000000000003 26.85756068546013 L 229.50000000000003 29.13985137548289 L 229.50000000000003 29.139851375482863 L 230.50000000000003 31.701403396688676 L 230.50000000000003 31.701403396688676 L 231.50000000000003 34.53710205104261 L 231.50000000000003 34.53710205104255 L 232.50000000000003 37.64128524688502 L 232.50000000000003 37.64128524688499 L 233.50000000000006 41.00775480453407 L 233.50000000000006 41.00775480453406 L 234.50000000000003 44.62978883230498 L 234.50000000000003 44.62978883230497 L 235.50000000000003 48.50015514823515 L 235.50000000000003 48.50015514823512 L 236.50000000000003 52.61112572071447 L 236.50000000000003 52.61112572071444 L 237.50000000000003 56.95449209918853 L 237.50000000000003 56.95449209918847 L 238.50000000000003 61.52158180412262 L 238.50000000000003 61.52158180412259 L 239.50000000000003 66.30327564350107 L 239.50000000000003 66.30327564350102 L 240.50000000000003 71.290025921286 L 240.50000000000003 71.29002592128597 L 241.50000000000003 76.47187550147721 L 241.50000000000003 76.47187550147716 L 242.5 81.8384776897091 L 242.5 81.83847768970907 L 243.50000000000003 87.37911689268543 L 243.50000000000003 87.37911689268542 L 244.50000000000003 93.08273001420147 L 244.50000000000003 93.08273001420145 L 245.50000000000006 98.93792854503197 L 245.50000000000006 98.93792854503195 L 246.50000000000006 104.93302130257655 L 246.50000000000006 104.93302130257653 L 247.50000000000003 111.05603777485965 L 247.50000000000003 111.05603777485962 L 248.50000000000003 117.29475202227131 L 248.50000000000003 117.2947520222713 L 249.50000000000003 123.63670708932621 L 249.50000000000003 123.6367070893262 L 250.50000000000003 130.06923987769534 L 250.50000000000003 130.0692398776953 L 251.5 136.5795064308477 L 251.5 136.5795064308477 L 252.50000000000003 143.15450757981446 L 252.50000000000003 143.15450757981444 L 253.50000000000003 149.7811148988683 L 253.50000000000003 149.7811148988683 L 254.50000000000006 156.4460969192935 L 254.50000000000006 156.4460969192935 L 255.50000000000006 163.13614554890174 L 255.50000000000006 163.13614554890174 L 256.5 169.8379026445453 L 256.5 169.8379026445453 L 257.5 176.53798668456716 L 257.5 176.53798668456716 L 258.5 183.22301948793103 L 258.5 183.22301948793103 L 259.5 189.87965292668156 L 259.5 189.87965292668156 L 260.5 196.4945955783975 L 260.5 196.4945955783975 L 261.5 203.05463926541867 L 261.5 203.05463926541867 L 262.5 209.54668542785714 L 262.5 209.5466854278571 L 263.50000000000006 215.95777127773331 L 263.50000000000006 215.9577712777333 L 264.50000000000006 222.27509568201276 L 264.50000000000006 222.27509568201273 L 265.5 228.48604472286388 L 265.5 228.48604472286388 L 266.5 234.57821688409985 L 266.5 234.57821688409982 L 267.5 240.53944781351413 L 267.5 240.53944781351413 L 268.5 246.35783461166602 L 268.5 246.35783461166596 L 269.5 252.02175959861893 L 269.5 252.02175959861887 L 270.5 257.5199135111758 L 270.5 257.5199135111758 L 271.5 262.8413180842929 L 271.5 262.8413180842928 L 272.50000000000006 267.9753479715832 L 272.50000000000006 267.9753479715831 L 273.50000000000006 272.9117519611415 L 273.50000000000006 272.9117519611415 L 274.5 277.6406734443274 L 274.5 277.6406734443273 L 275.5 282.15267009663705 L 275.5 282.15267009663705 L 276.5 286.43873273136643 L 276.5 286.4387327313664 L 277.5 290.49030328842 L 277.5 290.49030328841997 L 278.50000000000006 294.29929192234664 L 278.50000000000006 294.2992919223466 L 279.5 297.85809315548283 L 279.5 297.8580931554828 L 280.5 301.15960106394976 L 280.5 301.15960106394976 L 281.50000000000006 304.1972234661829 L 281.50000000000006 304.19722346618283 L 282.50000000000006 306.9648950856608 L 282.50000000000006 306.9648950856608 L 283.5 309.4570896615558 L 283.5 309.45708966155576 L 284.5 311.6688309831196 L 284.5 311.6688309831196 L 285.5 313.59570282577533 L 285.5 313.5957028257753 L 286.5 315.233857769074 L 286.5 315.23385776907395 L 287.50000000000006 316.58002487891 L 287.50000000000006 316.58002487890997 L 288.5 317.6315162386554 L 288.5 317.6315162386554 L 289.5 318.38623231617225 L 289.5 318.38623231617225 L 290.50000000000006 318.8426661559872 L 290.50000000000006 318.8426661559872 L 291.50000000000006 318.9999063882572 L 291.50000000000006 318.85763904851837 L 292.5 319 L 292.5 318.85763904851837 L 293.5 318.4161482045846 L 293.5 318.4161482045846 L 294.5 317.67631538934427 L 294.5 317.6763153893443 L 295.50000000000006 316.6396178405873 L 295.50000000000006 316.63961784058733 L 296.5 315.308125551377 L 296.5 315.30812555137703 L 297.5 313.6844971368572 L 297.5 313.6844971368572 L 298.5 311.7719745257462 L 298.5 311.77197452574626 L 299.5 309.57437648711834 L 299.5 309.57437648711846 L 300.5 307.0960910053976 L 300.5 307.0960910053976 L 301.5 304.3420665187878 L 301.5 304.3420665187879 L 302.5 301.3178020386358 L 302.5 301.3178020386358 L 303.5 298.0293361694538 L 303.5 298.02933616945387 L 304.5 294.4832350515271 L 304.5 294.4832350515272 L 305.5 290.68657925018067 L 305.5 290.6865792501807 L 306.5 286.6469496178844 L 306.5 286.6469496178844 L 307.5 282.37241215742523 L 307.5 282.3724121574253 L 308.5 277.87150191637124 L 308.5 277.87150191637124 L 309.5 273.1532059449854 L 309.5 273.1532059449855 L 310.5 268.22694535161673 L 310.5 268.22694535161673 L 311.5 263.1025564913996 L 311.5 263.1025564913996 L 312.5 257.79027132582337 L 312.5 257.79027132582337 L 313.5 252.3006969923861 L 313.5 252.30069699238612 L 314.5 246.64479462512838 L 314.5 246.64479462512838 L 315.50000000000006 240.8338574683345 L 315.50000000000006 240.8338574683345 L 316.50000000000006 234.87948832710555 L 316.50000000000006 234.87948832710555 L 317.5 228.7935763998235 L 317.5 228.7935763998235 L 318.5 222.58827353877047 L 318.5 222.5882735387705 L 319.5 216.27596998630236 L 319.5 216.27596998630236 L 320.5 209.8692696350235 L 320.5 209.86926963502353 L 321.5 203.38096486136283 L 321.5 203.38096486136286 L 322.5 196.82401098279996 L 322.5 196.8240109828 L 323.50000000000006 190.2115003897452 L 323.50000000000006 190.2115003897452 L 324.50000000000006 183.55663640372273 L 324.50000000000006 183.55663640372273 L 325.50000000000006 176.87270691405516 L 325.50000000000006 176.87270691405516 L 326.5 170.17305784569092 L 326.5 170.17305784569092 L 327.5 163.47106651115044 L 327.5 163.47106651115044 L 328.5 156.78011489979977 L 328.5 156.78011489979977 L 329.5 150.113562957787 L 329.5 150.113562957787 L 330.5 143.4847219119915 L 330.5 143.48472191199153 L 331.5 136.90682769125277 L 331.5 136.90682769125277 L 332.5 130.39301449794715 L 332.5 130.39301449794715 L 333.50000000000006 123.95628858268512 L 333.50000000000006 123.95628858268515 L 334.50000000000006 117.60950227449194 L 334.50000000000006 117.60950227449196 L 335.5 111.36532831832406 L 335.5 111.36532831832409 L 336.5 105.23623457116796 L 336.5 105.23623457116796 L 337.5 99.23445910723993 L 337.5 99.23445910723996 L 338.5 93.37198578199862 L 338.5 93.37198578199867 L 339.5 87.66052030375984 L 339.5 87.66052030375988 L 340.5 82.1114668606941 L 340.5 82.11146686069412 L 341.50000000000006 76.73590534987385 L 341.50000000000006 76.73590534987389 L 342.50000000000006 71.54456925383985 L 342.50000000000006 71.54456925383988 L 343.50000000000006 66.54782420885826 L 343.50000000000006 66.5478242088583 L 344.5 61.75564730766483 L 344.5 61.75564730766487 L 345.5 57.1776071780197 L 345.5 57.17760717801974 L 346.5 52.82284487685291 L 346.5 52.822844876852955 L 347.5 48.70005563814772 L 347.5 48.70005563814773 L 348.5 44.817471511006715 L 348.5 44.81747151100673 L 349.5 41.18284492256842 L 349.5 41.182844922568435 L 350.5 37.803433198592955 L 350.5 37.803433198592984 L 351.50000000000006 34.685984072626326 L 351.50000000000006 34.685984072626354 L 352.50000000000006 31.836722212677557 L 352.50000000000006 31.836722212677586 L 353.5 29.26133679230813 L 353.5 29.261336792308157 L 354.5 26.964970130955464 L 354.5 26.96497013095552 L 355.5 24.952207426169196 L 355.5 24.952207426169224 L 356.5 23.22706759826218 L 356.5 23.22706759826218 L 357.5 21.79299526565913 L 357.5 21.792995265659158 L 358.50000000000006 20.652853866963113 L 358.50000000000006 20.65285386696314 L 359.50000000000006 19.808919943475445 L 359.50000000000006 19.808919943475473 L 360.50000000000006 19.262878593583395 L 360.50000000000006 19.262878593583423 L 361.50000000000006 19.015820108093607 L 361.50000000000006 19.06823779322815 L 362.5 18.999999999999915 L 362.5 19.06823779322815 L 363.5 19.420026985630983 L 363.5 19.420026985630983 L 364.5 20.07048526135125 L 364.5 20.070485261351195 L 365.5 21.018313838386035 L 365.5 21.018313838386007 L 366.5 22.261620169982308 L 366.5 22.26162016998225 L 367.5 23.797921723519835 L 367.5 23.797921723519806 L 368.5 25.62415093742993 L 368.5 25.624150937429903 L 369.50000000000006 27.73666134625131 L 369.50000000000006 27.73666134625128 L 370.50000000000006 30.13123486159583 L 370.50000000000006 30.13123486159577 L 371.5 32.80309019448251 L 371.5 32.80309019448251 L 372.5 35.74689240222489 L 372.5 35.74689240222486 L 373.5 38.956763540810044 L 373.5 38.95676354080999 L 374.5 42.42629440149692 L 374.5 42.42629440149689 L 375.5 46.14855730820152 L 375.5 46.148557308201475 L 376.50000000000006 50.11611995011533 L 376.50000000000006 50.116119950115305 L 377.50000000000006 54.321060221935966 L 377.50000000000006 54.32106022193592 L 378.50000000000006 58.75498204208213 L 378.50000000000006 58.75498204208212 L 379.50000000000006 63.409032117303596 L 379.50000000000006 63.40903211730358 L 380.5 68.27391762021324 L 380.5 68.27391762021323 L 381.5 73.33992474444872 L 381.5 73.33992474444871 L 382.5 78.59693810040687 L 382.5 78.59693810040685 L 383.5 84.03446091282845 L 383.5 84.03446091282841 L 384.5 89.64163597990246 L 384.5 89.6416359799024 L 385.5 95.40726735204106 L 385.5 95.40726735204105 L 386.5 101.31984268703633 L 386.5 101.31984268703631 L 387.5 107.36755623696828 L 387.5 107.36755623696828 L 388.50000000000006 113.53833242095772 L 388.50000000000006 113.53833242095769 L 389.5 119.81984993669897 L 389.5 119.81984993669897 L 390.5 126.19956636263399 L 390.5 126.19956636263396 L 391.5 132.66474320163397 L 391.5 132.66474320163397 L 392.50000000000006 139.20247131619215 L 392.50000000000006 139.20247131619215 L 393.50000000000006 145.79969670433377 L 393.50000000000006 145.79969670433374 L 394.50000000000006 152.44324656478517 L 394.50000000000006 152.44324656478517 L 395.50000000000006 159.11985559934627 L 395.50000000000006 159.11985559934627 L 396.50000000000006 165.81619249995657 L 396.50000000000006 165.81619249995654 L 397.50000000000006 172.51888656756088 L 397.50000000000006 172.51888656756088 L 398.5 179.21455440963348 L 398.5 179.21455440963348 L 399.5 185.88982666304176 L 399.5 185.88982666304176 L 400.5 192.53137468890014 L 400.5 192.53137468890014 L 401.5 199.12593718610856 L 401.5 199.12593718610856 L 402.5 205.66034667043658 L 402.5 205.66034667043658 L 403.5 212.12155576627958 L 403.5 212.12155576627958 L 404.5 218.49666325859644 L 404.5 218.4966632585964 L 405.50000000000006 224.7729398530014 L 405.50000000000006 224.7729398530014 L 406.50000000000006 230.93785359257896 L 406.50000000000006 230.93785359257893 L 407.5 236.97909488067555 L 407.5 236.97909488067552 L 408.5 242.88460105969568 L 408.5 242.88460105969565 L 409.5 248.6425804968327 L 409.5 248.64258049683266 L 410.50000000000006 254.24153612863935 L 410.50000000000006 254.24153612863932 L 411.50000000000006 259.6702884174241 L 411.50000000000006 259.67028841742405 L 412.50000000000006 264.91799767364216 L 412.50000000000006 264.9179976736421 L 413.50000000000006 269.9741856997019 L 413.50000000000006 269.9741856997018 L 414.50000000000006 274.8287567119731 L 414.50000000000006 274.828756711973 L 415.50000000000006 279.47201749922675 L 415.50000000000006 279.47201749922675 L 416.5 283.8946967772462 L 416.5 283.8946967772462 L 417.5 288.0879637009715 L 417.5 288.0879637009715 L 418.5 292.04344549720986 L 418.5 292.04344549720986 L 419.5 295.75324418270657 L 419.5 295.7532441827065 L 420.5 299.20995233419194 L 420.5 299.20995233419194 L 421.5 302.4066678789216 L 421.5 302.40666787892155 L 422.5 305.3370078761707 L 422.5 305.3370078761707 L 423.50000000000006 307.9951212621697 L 423.50000000000006 307.9951212621696 L 424.5 310.37570053303006 L 424.5 310.37570053303 L 425.5 312.47399234233626 L 425.5 312.47399234233626 L 426.5 314.28580699223926 L 426.5 314.28580699223926 L 427.5000000000001 315.80752679910324 L 427.5000000000001 315.8075267991032 L 428.5000000000001 317.03611331700074 L 428.5000000000001 317.03611331700074 L 429.5 317.96911340463464 L 429.5 317.9691134046345 L 430.5 318.60466412356925 L 430.5 318.6046641235692 L 431.5 318.9414964579945 L 431.5 318.94149645799445 L 432.5 319 L 432.5 318.97893784859303 L 433.5 318.7169135354515 L 433.5 318.71691353545157 L 434.5 318.15594670733543 L 434.5 318.1559467073355 L 435.5 317.2971574570282 L 435.5 317.2971574570283 L 436.5 316.14226054482145 L 436.5 316.1422605448215 L 437.5 314.69356197462173 L 437.5 314.6935619746218 L 438.5 312.9539543895098 L 438.5 312.9539543895098 L 439.5 310.9269112959471 L 439.5 310.9269112959471 L 440.5 308.61648012816164 L 440.5 308.6164801281617 L 441.5 306.0272741665613 L 441.5 306.02727416656137 L 442.5 303.1644633263129 L 442.5 303.1644633263129 L 443.5 300.0337638344761 L 443.5 300.03376383447613 L 444.5 296.64142681630847 L 444.5 296.64142681630847 L 445.5000000000001 292.99422581352934 L 445.5000000000001 292.9942258135294 L 446.5000000000001 289.09944325946316 L 446.5000000000001 289.0994432594632 L 447.5 284.9648559380713 L 447.5 284.9648559380713 L 448.5 280.59871945590584 L 448.5 280.5987194559059 L 449.5 276.0097517579861 L 449.5 276.0097517579861 L 450.5 271.2071157205186 L 450.5 271.2071157205186 L 451.5 266.2004008552133 L 451.5 266.20040085521333 L 452.5 260.9996041617296 L 452.5 260.9996041617296 L 453.5 255.61511016648228 L 453.5 255.61511016648234 L 454.5 250.05767018766863 L 454.5 250.05767018766866 L 455.5 244.33838086791096 L 455.5 244.33838086791098 L 456.5 238.468662017388 L 456.5 238.46866201738803 L 457.5000000000001 232.46023381168888 L 457.5000000000001 232.4602338116889 L 458.5 226.32509338992486 L 458.5 226.3250933899249 L 459.5000000000001 220.07549089981774 L 459.5000000000001 220.07549089981777 L 460.5 213.72390503760894 L 460.5 213.72390503760897 L 461.5000000000001 207.28301813161116 L 461.5000000000001 207.2830181316112 L 462.5 200.76569081917782 L 462.5 200.76569081917782 L 463.5000000000001 194.1849363676237 L 463.5000000000001 194.18493636762372 L 464.5 187.5538946904025 L 464.5 187.5538946904025 L 465.5 180.88580611039376 L 465.5 180.88580611039376 L 466.5 174.19398492271125 L 466.5 174.19398492271125 L 467.5 167.49179280980147 L 467.5 167.49179280980147 L 468.5 160.79261216192853 L 468.5 160.79261216192853 L 469.5 154.10981935630903 L 469.5 154.10981935630903 L 470.5 147.45675804825285 L 470.5 147.45675804825288 L 471.5 140.84671252764355 L 471.5 140.84671252764358 L 472.5 134.29288119394906 L 472.5 134.29288119394906 L 473.5 127.80835020273688 L 473.5 127.80835020273688 L 474.5000000000001 121.40606733630555 L 474.5000000000001 121.40606733630557 L 475.5 115.09881615061167 L 475.5 115.09881615061168 L 476.5000000000001 108.89919045010488 L 476.5000000000001 108.8991904501049 L 477.5 102.81956914145158 L 477.5 102.8195691414516 L 478.5000000000001 96.87209151633827 L 478.5000000000001 96.87209151633829 L 479.5 91.06863301273185 L 479.5 91.06863301273191 L 480.5000000000001 85.42078150296676 L 480.5000000000001 85.42078150296679 L 481.5 79.93981415603382 L 481.5 79.93981415603385 L 482.5000000000001 74.63667492024433 L 482.5000000000001 74.63667492024436 L 483.5 69.52195267125101 L 483.5 69.52195267125103 L 484.5 64.60586006904221 L 484.5 64.60586006904225 L 485.5 59.89821316613768 L 485.5 59.898213166137694 L 486.5 55.40841180769537 L 486.5 55.408411807695416 L 487.5 51.14542086266755 L 487.5 51.14542086266758 L 488.5 47.117752323483316 L 488.5 47.11775232348333 L 489.5 43.333448309994736 L 489.5 43.333448309994765 L 490.5 39.80006501162964 L 490.5 39.80006501162967 L 491.5000000000001 36.524657599808535 L 491.5000000000001 36.52465759980856 L 492.5 33.51376614075514 L 492.5 33.513766140755195 L 493.5000000000001 30.773402536824136 L 493.5000000000001 30.773402536824165 L 494.5 28.30903852242716 L 494.5 28.309038522427187 L 495.5000000000001 26.125594738517577 L 495.5000000000001 26.125594738517606 L 496.5 24.227430907459166 L 496.5 24.227430907459194 L 497.5000000000001 22.618337127885383 L 497.5000000000001 22.61833712788541 L 498.5 21.30152630694215 L 498.5 21.30152630694218 L 499.5000000000001 20.27962774501529 L 499.5000000000001 20.27962774501532 L 500.5000000000001 19.55468188575921 L 500.5000000000001 19.55468188575921 L 501.5 19.12813624190474 L 501.5 19.12813624190477 L 502.5 18.999999999999915 L 502.5 19.000842504984405 L 503.5 19.17305484474403 L 503.5 19.173054844744 L 504.5 19.644429401637325 L 504.5 19.644429401637268 L 505.5 20.41402497341656 L 505.5 20.414024973416502 L 506.5 21.48030489444858 L 506.5 21.480304894448523 L 507.5 22.841140104003102 L 507.5 22.841140104003074 L 508.5 24.49381339738767 L 508.5 24.493813397387612 L 509.5 26.43502485144012 L 509.5 26.435024851440062 L 510.5000000000001 28.66089841354568 L 510.5000000000001 28.660898413545652 L 511.5 31.166989641022354 L 511.5 31.166989641022354 L 512.5000000000001 33.94829457542295 L 512.5000000000001 33.94829457542292 L 513.5 36.99925973402793 L 513.5 36.9992597340279 L 514.5000000000001 40.31379319859016 L 514.5000000000001 40.31379319859016 L 515.5 43.88527677917661 L 515.5 43.88527677917659 L 516.5000000000001 47.70657922883274 L 516.5000000000001 47.70657922883271 L 517.5 51.77007048267181 L 517.5 51.77007048267177 L 518.5000000000001 56.067636892969404 L 518.5000000000001 56.067636892969375 L 519.5 60.59069742982872 L 519.5 60.59069742982868 L 520.5 65.33022081508422 L 520.5 65.33022081508418 L 521.5 70.27674355521967 L 521.5 70.27674355521962 L 522.5 75.4203888372985 L 522.5 75.42038883729847 L 523.5 80.75088625018019 L 523.5 80.75088625018014 L 524.5 86.25759229163744 L 524.5 86.25759229163741 L 525.5 91.92951162043335 L 525.5 91.92951162043332 L 526.5 97.75531901092192 L 526.5 97.7553190109219 L 527.5000000000001 103.72338196633252 L 527.5000000000001 103.7233819663325 L 528.5 109.82178394559295 L 528.5 109.82178394559294 L 529.5000000000001 116.03834815730485 L 529.5000000000001 116.03834815730482 L 530.5 122.36066187336492 L 530.5 122.3606618733649 L 531.5000000000001 128.77610121369307 L 531.5000000000001 128.77610121369304 L 532.5 135.2718563525583 L 532.5 135.2718563525583 L 533.5000000000001 141.83495709620155 L 533.5000000000001 141.83495709620155 L 534.5 148.45229878065246 L 534.5 148.45229878065246 L 535.5000000000001 155.110668438059 L 535.5000000000001 155.110668438059 L 536.5000000000001 161.79677117925894 L 536.5000000000001 161.79677117925894 L 537.5 168.49725673993302 L 537.5 168.49725673993302 L 538.5 175.19874613732136 L 538.5 175.19874613732136 L 539.5 181.88785838428535 L 539.5 181.88785838428532 L 540.5 188.55123720736864 L 540.5 188.55123720736862 L 541.5 195.17557771551733 L 541.5 195.1755777155173 L 542.5 201.74765296619836 L 542.5 201.74765296619836 L 543.5 208.25434037587968 L 543.5 208.25434037587965 L 544.5000000000001 214.68264792213438 L 544.5000000000001 214.68264792213438 L 545.5 221.01974008504908 L 545.5 221.01974008504908 L 546.5000000000001 227.25296347614602 L 546.5000000000001 227.252963476146 L 547.5 233.36987210363205 L 547.5 233.36987210363202 L 548.5000000000001 239.35825222354532 L 548.5000000000001 239.35825222354532 L 549.5 245.20614672715527 L 549.5 245.20614672715524 L 550.5000000000001 250.90187901594902 L 550.5000000000001 250.90187901594896 L 551.5 256.4340763165035 L 551.5 256.4340763165034 L 552.5000000000001 261.7916923887167 L 552.5000000000001 261.7916923887167 L 553.5000000000001 266.96402958203475 L 553.5000000000001 266.96402958203475 L 554.5000000000001 271.9407601956502 L 554.5000000000001 271.9407601956502 L 555.5 276.7119471000107 L 555.5 276.71194710001066 L 556.5 281.268063578469 L 556.5 281.26806357846897 L 557.5 285.6000123494519 L 557.5 285.60001234945184 L 558.5 289.699143731172 L 558.5 289.69914373117194 L 559.5 293.5572729126047 L 559.5 293.5572729126046 L 560.5 297.16669629625153 L 560.5 297.1666962962515 L 561.5 300.5202068800551 L 561.5 300.52020688005507 L 562.5 303.61110864775173 L 562.5 303.6111086477517 L 563.5000000000001 306.43322993893173 L 563.5000000000001 306.43322993893173 L 564.5 308.9809357721057 L 564.5 308.9809357721057 L 565.5000000000001 311.2491390961777 L 565.5000000000001 311.2491390961777 L 566.5 313.23331094785124 L 566.5 313.23331094785124 L 567.5000000000001 314.9294894946961 L 567.5000000000001 314.9294894946961 L 568.5 316.33428794580993 L 568.5 316.3342879458099 L 569.5000000000001 317.4449013142872 L 569.5000000000001 317.4449013142872 L 570.5 318.25911201798783 L 570.5 318.2591120179877 L 571.5000000000001 318.775294307424 L 571.5000000000001 318.77529430742396 L 572.5000000000001 318.9924175119244 L 572.5000000000001 318.91004809759306 L 573.5 319 L 573.5 318.91004809759306 L 574.5 318.5283505329546 L 574.5 318.5283505329546 L 575.5 317.8480869605568 L 575.5 317.8480869605569 L 576.5 316.87061567518674 L 576.5 316.87061567518685 L 577.5 315.5978884117384 L 577.5 315.5978884117384 L 578.5 314.0324464481474 L 578.5 314.0324464481474 L 579.5 312.177415531176 L 579.5 312.17741553117605 L 580.5000000000001 310.0364996351747 L 580.5000000000001 310.0364996351748 L 581.5 307.6139735662913 L 581.5 307.61397356629135 L 582.5000000000001 304.9146744268839 L 582.5000000000001 304.91467442688395 L 583.5 301.9439919571927 L 583.5 301.9439919571927 L 584.5000000000001 298.70785777354325 L 584.5000000000001 298.7078577735433 L 585.5 295.2127335245823 L 585.5 295.2127335245823 L 586.5000000000001 291.4655979891828 L 586.5000000000001 291.4655979891828 L 587.5 287.47393314178953 L 587.5 287.4739331417896 L 588.5000000000001 283.24570921302006 L 588.5000000000001 283.24570921302006 L 589.5000000000001 278.7893687753632 L 589.5000000000001 278.78936877536324 L 590.5000000000001 274.1138098857342 L 590.5000000000001 274.1138098857342 L 591.5 269.22836831856546 L 591.5 269.2283683185655 L 592.5 264.1427989248921 L 592.5 264.14279892489213 L 593.5 258.8672561546589 L 593.5 258.8672561546589 L 594.5 253.4122737811489 L 594.5 253.41227378114894 L 595.5 247.78874386799833 L 595.5 247.7887438679984 L 596.5 242.0078950208182 L 596.5 242.00789502081824 L 597.5 236.08126996682887 L 597.5 236.08126996682887 L 598.5 230.02070250728107 L 598.5 230.0207025072811 L 599.5 223.83829388869435 L 599.5 223.83829388869435 L 600.5 217.54638864006742 L 600.5 217.54638864006742 L 601.5 211.15754992433716 L 601.5 211.1575499243372 L 602.5000000000001 204.68453445327617 L 602.5000000000001 204.68453445327617 L 603.5000000000001 198.14026701593363 L 603.5000000000001 198.14026701593366 L 604.5000000000001 191.53781467146723 L 604.5000000000001 191.53781467146723 L 605.5000000000001 184.89036065791308 L 605.5000000000001 184.89036065791308 L 606.5000000000001 178.21117806896345 L 606.5000000000001 178.21117806896345 L 607.5000000000001 171.51360335134385 L 607.5000000000001 171.51360335134385 L 608.5000000000001 164.8110096756814 L 608.5000000000001 164.8110096756814 L 609.5 158.11678023404585 L 609.5 158.11678023404585 L 610.5 151.44428151749128 L 610.5 151.44428151749128 L 611.5 144.8068366269291 L 611.5 144.8068366269291 L 612.5 138.2176986706548 L 612.5 138.2176986706548 L 613.5 131.6900243016196 L 613.5 131.69002430161962 L 614.5 125.23684744729651 L 614.5 125.23684744729653 L 615.5 118.87105328460484" stroke-opacity="0.6980392156862745" stroke-linecap="round" stroke-linejoin="round" stroke-miterlimit="10" stroke-width="2.5"/><text fill="rgb(0,100,0)" stroke="none" font-family="geogebra-sans-serif, sans-serif" font-size="16px" font-style="normal" font-weight="normal" text-decoration="normal" x="8" y="318" text-anchor="start" dominant-baseline="alphabetic" fill-opacity="1">f</text><text fill="rgb(0,100,0)" stroke="none" font-family="geogebra-sans-serif, sans-serif" font-size="16px" font-style="normal" font-weight="normal" text-decoration="normal" x="8" y="318" text-anchor="start" dominant-baseline="alphabetic" fill-opacity="1">f</text><path fill="rgb(68,68,68)" stroke="none" paint-order="stroke fill markers" d=" M 190.07500000000005 168.99999999999997 C 190.07500000000005 171.20913899932316 188.2841389993232 172.99999999999997 186.07500000000005 172.99999999999997 C 183.86586100067686 172.99999999999997 182.07500000000005 171.20913899932316 182.07500000000005 168.99999999999997 C 182.07500000000005 166.79086100067678 183.86586100067686 164.99999999999997 186.07500000000005 164.99999999999997 C 188.2841389993232 164.99999999999997 190.07500000000005 166.79086100067678 190.07500000000005 168.99999999999997 Z" fill-opacity="1"/><path fill="none" stroke="rgb(0,0,0)" paint-order="fill stroke markers" d=" M 190.07500000000005 168.99999999999997 C 190.07500000000005 171.20913899932316 188.2841389993232 172.99999999999997 186.07500000000005 172.99999999999997 C 183.86586100067686 172.99999999999997 182.07500000000005 171.20913899932316 182.07500000000005 168.99999999999997 C 182.07500000000005 166.79086100067678 183.86586100067686 164.99999999999997 186.07500000000005 164.99999999999997 C 188.2841389993232 164.99999999999997 190.07500000000005 166.79086100067678 190.07500000000005 168.99999999999997 Z" stroke-opacity="1" stroke-linecap="round" stroke-linejoin="round" stroke-miterlimit="10"/><text fill="rgb(68,68,68)" stroke="none" font-family="geogebra-sans-serif, sans-serif" font-size="16px" font-style="normal" font-weight="normal" text-decoration="normal" x="190" y="161" text-anchor="start" dominant-baseline="alphabetic" fill-opacity="1">A</text><text fill="rgb(68,68,68)" stroke="none" font-family="geogebra-sans-serif, sans-serif" font-size="16px" font-style="normal" font-weight="normal" text-decoration="normal" x="190" y="161" text-anchor="start" dominant-baseline="alphabetic" fill-opacity="1">A</text></g></g></svg>
