<svg version="1.1" xmlns="http://www.w3.org/2000/svg" xmlns:xlink="http://www.w3.org/1999/xlink" width="615" height="336"><defs><clipPath id="cWwsrakksWnO"><path fill="none" stroke="none" d=" M 0 0 L 615 0 L 615 336 L 0 336 L 0 0 Z"/></clipPath></defs><g transform="scale(1,1)" clip-path="url(#cWwsrakksWnO)"><g><rect fill="none" stroke="none" x="0" y="0" width="615" height="337" fill-opacity="1"/><path fill="none" stroke="rgb(192,192,192)" paint-order="fill stroke markers" d=" M 27.5 0.5 L 27.5 336.5 M 27.5 0.5 L 27.5 336.5 M 98.5 0.5 L 98.5 336.5 M 238.5 0.5 L 238.5 336.5 M 309.5 0.5 L 309.5 336.5 M 379.5 0.5 L 379.5 336.5 M 449.5 0.5 L 449.5 336.5 M 520.5 0.5 L 520.5 336.5 M 590.5 0.5 L 590.5 336.5" stroke-opacity="1" stroke-linecap="round" stroke-linejoin="round" stroke-miterlimit="10"/><path fill="none" stroke="rgb(192,192,192)" paint-order="fill stroke markers" d=" M 13.5 0.5 L 13.5 336.5 M 41.5 0.5 L 41.5 336.5 M 56.5 0.5 L 56.5 336.5 M 70.5 0.5 L 70.5 336.5 M 84.5 0.5 L 84.5 336.5 M 112.5 0.5 L 112.5 336.5 M 126.5 0.5 L 126.5 336.5 M 140.5 0.5 L 140.5 336.5 M 154.5 0.5 L 154.5 336.5 M 182.5 0.5 L 182.5 336.5 M 196.5 0.5 L 196.5 336.5 M 210.5 0.5 L 210.5 336.5 M 224.5 0.5 L 224.5 336.5 M 252.5 0.5 L 252.5 336.5 M 266.5 0.5 L 266.5 336.5 M 280.5 0.5 L 280.5 336.5 M 295.5 0.5 L 295.5 336.5 M 323.5 0.5 L 323.5 336.5 M 337.5 0.5 L 337.5 336.5 M 351.5 0.5 L 351.5 336.5 M 365.5 0.5 L 365.5 336.5 M 393.5 0.5 L 393.5 336.5 M 407.5 0.5 L 407.5 336.5 M 421.5 0.5 L 421.5 336.5 M 435.5 0.5 L 435.5 336.5 M 463.5 0.5 L 463.5 336.5 M 477.5 0.5 L 477.5 336.5 M 491.5 0.5 L 491.5 336.5 M 505.5 0.5 L 505.5 336.5 M 534.5 0.5 L 534.5 336.5 M 548.5 0.5 L 548.5 336.5 M 562.5 0.5 L 562.5 336.5 M 576.5 0.5 L 576.5 336.5 M 604.5 0.5 L 604.5 336.5" stroke-opacity="0.23529411764705882" stroke-linecap="round" stroke-linejoin="round" stroke-miterlimit="10"/><path fill="none" stroke="rgb(192,192,192)" paint-order="fill stroke markers" d=" M 0.5 18.5 L 615.5 18.5 M 0.5 18.5 L 615.5 18.5 M 0.5 68.5 L 615.5 68.5 M 0.5 118.5 L 615.5 118.5 M 0.5 219.5 L 615.5 219.5 M 0.5 269.5 L 615.5 269.5 M 0.5 319.5 L 615.5 319.5" stroke-opacity="1" stroke-linecap="round" stroke-linejoin="round" stroke-miterlimit="10"/><path fill="none" stroke="rgb(192,192,192)" paint-order="fill stroke markers" d=" M 0.5 8.5 L 615.5 8.5 M 0.5 8.5 L 615.5 8.5 M 0.5 28.5 L 615.5 28.5 M 0.5 38.5 L 615.5 38.5 M 0.5 48.5 L 615.5 48.5 M 0.5 58.5 L 615.5 58.5 M 0.5 78.5 L 615.5 78.5 M 0.5 88.5 L 615.5 88.5 M 0.5 98.5 L 615.5 98.5 M 0.5 108.5 L 615.5 108.5 M 0.5 128.5 L 615.5 128.5 M 0.5 138.5 L 615.5 138.5 M 0.5 148.5 L 615.5 148.5 M 0.5 158.5 L 615.5 158.5 M 0.5 178.5 L 615.5 178.5 M 0.5 188.5 L 615.5 188.5 M 0.5 199.5 L 615.5 199.5 M 0.5 209.5 L 615.5 209.5 M 0.5 229.5 L 615.5 229.5 M 0.5 239.5 L 615.5 239.5 M 0.5 249.5 L 615.5 249.5 M 0.5 259.5 L 615.5 259.5 M 0.5 279.5 L 615.5 279.5 M 0.5 289.5 L 615.5 289.5 M 0.5 299.5 L 615.5 299.5 M 0.5 309.5 L 615.5 309.5 M 0.5 329.5 L 615.5 329.5" stroke-opacity="0.23529411764705882" stroke-linecap="round" stroke-linejoin="round" stroke-miterlimit="10"/><path fill="none" stroke="rgb(37,37,37)" paint-order="fill stroke markers" d=" M 168.5 2.5 L 168.5 336.5" stroke-opacity="1" stroke-miterlimit="10"/><path fill="none" stroke="rgb(37,37,37)" paint-order="fill stroke markers" d=" M 168.5 1.5 L 164.5 5.5" stroke-opacity="1" stroke-miterlimit="10"/><path fill="none" stroke="rgb(37,37,37)" paint-order="fill stroke markers" d=" M 168.5 1.5 L 172.5 5.5" stroke-opacity="1" stroke-miterlimit="10"/><path fill="none" stroke="rgb(37,37,37)" paint-order="fill stroke markers" d=" M 0.5 168.5 L 613.5 168.5" stroke-opacity="1" stroke-miterlimit="10"/><path fill="none" stroke="rgb(37,37,37)" paint-order="fill stroke markers" d=" M 614.5 168.5 L 610.5 164.5" stroke-opacity="1" stroke-miterlimit="10"/><path fill="none" stroke="rgb(37,37,37)" paint-order="fill stroke markers" d=" M 614.5 168.5 L 610.5 172.5" stroke-opacity="1" stroke-miterlimit="10"/><text fill="rgb(37,37,37)" stroke="none" font-family="geogebra-sans-serif, sans-serif" font-size="12px" font-style="normal" font-weight="normal" text-decoration="normal" x="22" y="184" text-anchor="start" dominant-baseline="alphabetic" fill-opacity="1">–2</text><text fill="rgb(37,37,37)" stroke="none" font-family="geogebra-sans-serif, sans-serif" font-size="12px" font-style="normal" font-weight="normal" text-decoration="normal" x="22" y="184" text-anchor="start" dominant-baseline="alphabetic" fill-opacity="1">–2</text><text fill="rgb(37,37,37)" stroke="none" font-family="geogebra-sans-serif, sans-serif" font-size="12px" font-style="normal" font-weight="normal" text-decoration="normal" x="93" y="184" text-anchor="start" dominant-baseline="alphabetic" fill-opacity="1">–1</text><text fill="rgb(37,37,37)" stroke="none" font-family="geogebra-sans-serif, sans-serif" font-size="12px" font-style="normal" font-weight="normal" text-decoration="normal" x="93" y="184" text-anchor="start" dominant-baseline="alphabetic" fill-opacity="1">–1</text><text fill="rgb(37,37,37)" stroke="none" font-family="geogebra-sans-serif, sans-serif" font-size="12px" font-style="normal" font-weight="normal" text-decoration="normal" x="236" y="184" text-anchor="start" dominant-baseline="alphabetic" fill-opacity="1">1</text><text fill="rgb(37,37,37)" stroke="none" font-family="geogebra-sans-serif, sans-serif" font-size="12px" font-style="normal" font-weight="normal" text-decoration="normal" x="236" y="184" text-anchor="start" dominant-baseline="alphabetic" fill-opacity="1">1</text><text fill="rgb(37,37,37)" stroke="none" font-family="geogebra-sans-serif, sans-serif" font-size="12px" font-style="normal" font-weight="normal" text-decoration="normal" x="307" y="184" text-anchor="start" dominant-baseline="alphabetic" fill-opacity="1">2</text><text fill="rgb(37,37,37)" stroke="none" font-family="geogebra-sans-serif, sans-serif" font-size="12px" font-style="normal" font-weight="normal" text-decoration="normal" x="307" y="184" text-anchor="start" dominant-baseline="alphabetic" fill-opacity="1">2</text><text fill="rgb(37,37,37)" stroke="none" font-family="geogebra-sans-serif, sans-serif" font-size="12px" font-style="normal" font-weight="normal" text-decoration="normal" x="377" y="184" text-anchor="start" dominant-baseline="alphabetic" fill-opacity="1">3</text><text fill="rgb(37,37,37)" stroke="none" font-family="geogebra-sans-serif, sans-serif" font-size="12px" font-style="normal" font-weight="normal" text-decoration="normal" x="377" y="184" text-anchor="start" dominant-baseline="alphabetic" fill-opacity="1">3</text><text fill="rgb(37,37,37)" stroke="none" font-family="geogebra-sans-serif, sans-serif" font-size="12px" font-style="normal" font-weight="normal" text-decoration="normal" x="447" y="184" text-anchor="start" dominant-baseline="alphabetic" fill-opacity="1">4</text><text fill="rgb(37,37,37)" stroke="none" font-family="geogebra-sans-serif, sans-serif" font-size="12px" font-style="normal" font-weight="normal" text-decoration="normal" x="447" y="184" text-anchor="start" dominant-baseline="alphabetic" fill-opacity="1">4</text><text fill="rgb(37,37,37)" stroke="none" font-family="geogebra-sans-serif, sans-serif" font-size="12px" font-style="normal" font-weight="normal" text-decoration="normal" x="518" y="184" text-anchor="start" dominant-baseline="alphabetic" fill-opacity="1">5</text><text fill="rgb(37,37,37)" stroke="none" font-family="geogebra-sans-serif, sans-serif" font-size="12px" font-style="normal" font-weight="normal" text-decoration="normal" x="518" y="184" text-anchor="start" dominant-baseline="alphabetic" fill-opacity="1">5</text><text fill="rgb(37,37,37)" stroke="none" font-family="geogebra-sans-serif, sans-serif" font-size="12px" font-style="normal" font-weight="normal" text-decoration="normal" x="588" y="184" text-anchor="start" dominant-baseline="alphabetic" fill-opacity="1">6</text><text fill="rgb(37,37,37)" stroke="none" font-family="geogebra-sans-serif, sans-serif" font-size="12px" font-style="normal" font-weight="normal" text-decoration="normal" x="588" y="184" text-anchor="start" dominant-baseline="alphabetic" fill-opacity="1">6</text><text fill="rgb(37,37,37)" stroke="none" font-family="geogebra-sans-serif, sans-serif" font-size="12px" font-style="normal" font-weight="normal" text-decoration="normal" x="147" y="324" text-anchor="start" dominant-baseline="alphabetic" fill-opacity="1">–3</text><text fill="rgb(37,37,37)" stroke="none" font-family="geogebra-sans-serif, sans-serif" font-size="12px" font-style="normal" font-weight="normal" text-decoration="normal" x="147" y="324" text-anchor="start" dominant-baseline="alphabetic" fill-opacity="1">–3</text><text fill="rgb(37,37,37)" stroke="none" font-family="geogebra-sans-serif, sans-serif" font-size="12px" font-style="normal" font-weight="normal" text-decoration="normal" x="147" y="274" text-anchor="start" dominant-baseline="alphabetic" fill-opacity="1">–2</text><text fill="rgb(37,37,37)" stroke="none" font-family="geogebra-sans-serif, sans-serif" font-size="12px" font-style="normal" font-weight="normal" text-decoration="normal" x="147" y="274" text-anchor="start" dominant-baseline="alphabetic" fill-opacity="1">–2</text><text fill="rgb(37,37,37)" stroke="none" font-family="geogebra-sans-serif, sans-serif" font-size="12px" font-style="normal" font-weight="normal" text-decoration="normal" x="147" y="223" text-anchor="start" dominant-baseline="alphabetic" fill-opacity="1">–1</text><text fill="rgb(37,37,37)" stroke="none" font-family="geogebra-sans-serif, sans-serif" font-size="12px" font-style="normal" font-weight="normal" text-decoration="normal" x="147" y="223" text-anchor="start" dominant-baseline="alphabetic" fill-opacity="1">–1</text><text fill="rgb(37,37,37)" stroke="none" font-family="geogebra-sans-serif, sans-serif" font-size="12px" font-style="normal" font-weight="normal" text-decoration="normal" x="153" y="123" text-anchor="start" dominant-baseline="alphabetic" fill-opacity="1">1</text><text fill="rgb(37,37,37)" stroke="none" font-family="geogebra-sans-serif, sans-serif" font-size="12px" font-style="normal" font-weight="normal" text-decoration="normal" x="153" y="123" text-anchor="start" dominant-baseline="alphabetic" fill-opacity="1">1</text><text fill="rgb(37,37,37)" stroke="none" font-family="geogebra-sans-serif, sans-serif" font-size="12px" font-style="normal" font-weight="normal" text-decoration="normal" x="153" y="73" text-anchor="start" dominant-baseline="alphabetic" fill-opacity="1">2</text><text fill="rgb(37,37,37)" stroke="none" font-family="geogebra-sans-serif, sans-serif" font-size="12px" font-style="normal" font-weight="normal" text-decoration="normal" x="153" y="73" text-anchor="start" dominant-baseline="alphabetic" fill-opacity="1">2</text><text fill="rgb(37,37,37)" stroke="none" font-family="geogebra-sans-serif, sans-serif" font-size="12px" font-style="normal" font-weight="normal" text-decoration="normal" x="153" y="23" text-anchor="start" dominant-baseline="alphabetic" fill-opacity="1">3</text><text fill="rgb(37,37,37)" stroke="none" font-family="geogebra-sans-serif, sans-serif" font-size="12px" font-style="normal" font-weight="normal" text-decoration="normal" x="153" y="23" text-anchor="start" dominant-baseline="alphabetic" fill-opacity="1">3</text><text fill="rgb(37,37,37)" stroke="none" font-family="geogebra-sans-serif, sans-serif" font-size="12px" font-style="normal" font-weight="normal" text-decoration="normal" x="153" y="184" text-anchor="start" dominant-baseline="alphabetic" fill-opacity="1">0</text><text fill="rgb(37,37,37)" stroke="none" font-family="geogebra-sans-serif, sans-serif" font-size="12px" font-style="normal" font-weight="normal" text-decoration="normal" x="153" y="184" text-anchor="start" dominant-baseline="alphabetic" fill-opacity="1">0</text><path fill="none" stroke="rgb(0,100,0)" paint-order="fill stroke markers" d=" M 0.5000000000000284 301.7884381410545 L 0.5000000000000284 304.7725385279987 L 0.5000000000000284 304.7725385279987 L 1.5000000000000284 307.4855393900223 L 1.5000000000000284 307.48553939002227 L 2.5 309.9220236284044 L 2.5 309.92202362840436 L 3.5 312.07712627025217 L 3.5 312.0771262702521 L 4.5 313.9465441824823 L 4.5 313.9465441824822 L 5.5 315.5265446639654 L 5.5 315.5265446639654 L 6.5 316.8139728986796 L 6.5 316.8139728986796 L 7.5 317.8062582549892 L 7.5 317.8062582549892 L 8.5 318.5014194184721 L 8.5 318.5014194184721 L 9.5 318.89806834804745 L 9.5 318.89806834804733 L 10.499999999999972 319 L 10.499999999999972 318.9954130475018 L 11.499999999999972 318.7932591468835 L 11.499999999999972 318.79325914688354 L 12.499999999999972 318.292010290604 L 12.499999999999972 318.2920102906041 L 13.499999999999972 317.4926673314742 L 13.499999999999972 317.4926673314742 L 14.499999999999972 316.39682633228256 L 14.499999999999972 316.39682633228256 L 15.499999999999972 315.0066753789078 L 15.499999999999972 315.00667537890786 L 16.50000000000003 313.3249902113274 L 16.50000000000003 313.3249902113275 L 17.50000000000003 311.35512868124647 L 17.50000000000003 311.3551286812465 L 18.50000000000003 309.1010240474134 L 18.50000000000003 309.1010240474134 L 19.50000000000003 306.56717712201 L 19.50000000000003 306.56717712201004 L 20.5 303.75864728379685 L 20.5 303.7586472837969 L 21.5 300.68104237595867 L 21.5 300.68104237595867 L 22.5 297.3405075088208 L 22.5 297.3405075088208 L 23.5 293.74371278979424 L 23.5 293.7437127897943 L 24.5 289.8978400050501 L 24.5 289.8978400050501 L 25.5 285.810568279514 L 25.5 285.810568279514 L 26.5 281.4900587438167 L 26.5 281.49005874381675 L 27.5 276.9449382388145 L 27.5 276.94493823881453 L 28.49999999999997 272.1842820902175 L 28.49999999999997 272.1842820902175 L 29.5 267.21759598771973 L 29.5 267.21759598771973 L 30.5 262.0547970048131 L 30.5 262.05479700481317 L 31.5 256.7061937971858 L 31.5 256.70619379718585 L 32.5 251.18246601923792 L 32.5 251.18246601923795 L 33.5 245.49464299982117 L 33.5 245.49464299982122 L 34.5 239.65408171977344 L 34.5 239.65408171977344 L 35.5 233.672444135227 L 35.5 233.672444135227 L 36.5 227.56167389196597 L 36.5 227.561673891966 L 37.49999999999997 221.3339724773297 L 37.49999999999997 221.33397247732972 L 38.5 215.00177485727812 L 38.5 215.00177485727812 L 39.5 208.5777246472657 L 39.5 208.57772464726574 L 40.5 202.07464886650362 L 40.5 202.07464886650362 L 41.5 195.50553232601348 L 41.5 195.50553232601348 L 42.5 188.88349170161615 L 42.5 188.88349170161615 L 43.5 182.22174934362428 L 43.5 182.22174934362428 L 44.499999999999986 175.53360687553257 L 44.499999999999986 175.53360687553257 L 45.499999999999986 168.83241863442106 L 45.499999999999986 168.83241863442106 L 46.499999999999986 162.13156500610438 L 46.499999999999986 162.13156500610438 L 47.500000000000014 155.4444257082697 L 47.500000000000014 155.4444257082697 L 48.500000000000014 148.7843530749492 L 48.500000000000014 148.7843530749492 L 49.5 142.1646453956668 L 49.5 142.1646453956668 L 50.5 135.59852036250112 L 50.5 135.59852036250112 L 51.5 129.09908867807553 L 51.5 129.09908867807553 L 52.5 122.67932787717737 L 52.5 122.6793278771774 L 53.499999999999986 116.35205641427518 L 53.499999999999986 116.3520564142752 L 54.499999999999986 110.1299080686755 L 54.499999999999986 110.12990806867552 L 55.499999999999986 104.02530671842294 L 55.499999999999986 104.02530671842295 L 56.500000000000014 98.05044153331436 L 56.500000000000014 98.05044153331436 L 57.500000000000014 92.21724263655976 L 57.500000000000014 92.21724263655979 L 58.5 86.5373572836854 L 58.5 86.53735728368542 L 59.5 81.0221266062443 L 59.5 81.02212660624433 L 60.5 75.68256296677094 L 60.5 75.68256296677099 L 61.5 70.529327970194 L 61.5 70.52932797019402 L 62.499999999999986 65.57271117561379 L 62.499999999999986 65.57271117561383 L 63.499999999999986 60.822609550950105 L 63.499999999999986 60.82260955095016 L 64.49999999999999 56.28850771148488 L 64.49999999999999 56.2885077114849 L 65.50000000000001 51.9794589817558 L 65.50000000000001 51.97945898175584 L 66.50000000000001 47.90406731861735 L 66.50000000000001 47.90406731861739 L 67.5 44.07047013156124 L 67.5 44.070470131561265 L 68.5 40.48632203460156 L 68.5 40.486322034601585 L 69.5 37.158779562166245 L 69.5 37.158779562166245 L 70.5 34.09448687951274 L 70.5 34.09448687951277 L 71.49999999999999 31.29956251620169 L 71.49999999999999 31.299562516201718 L 72.49999999999999 28.779587149115855 L 72.49999999999999 28.779587149115855 L 73.49999999999999 26.53959245942019 L 73.49999999999999 26.53959245942025 L 74.50000000000001 24.584051085711366 L 74.50000000000001 24.584051085711394 L 75.50000000000001 22.916867693418396 L 75.50000000000001 22.916867693418425 L 76.5 21.541371178284777 L 76.5 21.541371178284834 L 77.5 20.46030801950161 L 77.5 20.46030801950164 L 78.5 19.675836795761825 L 78.5 19.675836795761853 L 79.5 19.189523875186495 L 79.5 19.189523875186524 L 80.49999999999999 19.002340287728828 L 80.49999999999999 19.114659786300734 L 81.49999999999999 18.999999999999915 L 81.49999999999999 19.114659786300734 L 82.50000000000001 19.526258100493607 L 82.50000000000001 19.52625810049358 L 83.50000000000001 20.236313384382925 L 83.50000000000001 20.236313384382896 L 84.50000000000001 21.243407857523493 L 84.50000000000001 21.243407857523437 L 85.5 22.545530635857375 L 85.5 22.545530635857318 L 86.5 24.140081746883453 L 86.5 24.140081746883425 L 87.5 26.02387732106996 L 87.5 26.023877321069932 L 88.5 28.19315594914559 L 88.5 28.19315594914559 L 89.49999999999999 30.64358619257456 L 89.49999999999999 30.643586192574503 L 90.49999999999999 33.37027523221931 L 90.49999999999999 33.37027523221926 L 91.50000000000001 36.36777863792304 L 91.50000000000001 36.36777863792298 L 92.50000000000001 39.63011123950287 L 92.50000000000001 39.63011123950284 L 93.50000000000001 43.15075907744959 L 93.50000000000001 43.15075907744955 L 94.5 46.922692409470656 L 94.5 46.92269240947061 L 95.5 50.9383797469054 L 95.5 50.938379746905355 L 96.5 55.1898028929872 L 96.5 55.189802892987174 L 97.5 59.66847295292476 L 97.5 59.668472952924745 L 98.49999999999999 64.36544728383386 L 98.49999999999999 64.36544728383382 L 99.49999999999999 69.27134735067722 L 99.49999999999999 69.27134735067719 L 100.50000000000001 74.37637745255834 L 100.50000000000001 74.37637745255832 L 101.50000000000001 79.67034428197634 L 101.50000000000001 79.67034428197631 L 102.50000000000001 85.14267727799196 L 102.50000000000001 85.14267727799192 L 103.5 90.78244973266067 L 103.5 90.78244973266064 L 104.5 96.57840060859037 L 104.5 96.57840060859034 L 105.5 102.51895702406348 L 105.5 102.51895702406345 L 106.5 108.59225736082143 L 106.5 108.59225736082143 L 107.5 114.78617494837653 L 107.5 114.7861749483765 L 108.49999999999999 121.08834227755821 L 108.49999999999999 121.08834227755818 L 109.50000000000001 127.48617569494571 L 109.50000000000001 127.4861756949457 L 110.50000000000001 133.96690052887962 L 110.50000000000001 133.96690052887962 L 111.5 140.51757659688565 L 111.5 140.51757659688565 L 112.5 147.12512404357315 L 112.5 147.12512404357315 L 113.5 153.7763494574237 L 113.5 153.7763494574237 L 114.5 160.4579722143188 L 114.5 160.4579722143188 L 115.5 167.1566509952057 L 115.5 167.1566509952057 L 116.5 173.85901042495473 L 116.5 173.85901042495473 L 117.49999999999999 180.55166777921755 L 117.49999999999999 180.55166777921755 L 118.50000000000001 187.22125970595772 L 118.50000000000001 187.2212597059577 L 119.50000000000001 193.8544689083021 L 119.50000000000001 193.8544689083021 L 120.5 200.43805073543342 L 120.5 200.43805073543342 L 121.5 206.95885962842618 L 121.5 206.95885962842618 L 122.5 213.403875368228 L 122.5 213.40387536822797 L 123.5 219.76022907336895 L 123.5 219.76022907336892 L 124.5 226.0152288954945 L 124.5 226.0152288954945 L 125.5 232.1563853614129 L 125.5 232.15638536141287 L 126.49999999999999 238.17143631105523 L 126.49999999999999 238.1714363110552 L 127.50000000000001 244.04837138155665 L 127.50000000000001 244.0483713815566 L 128.5 249.77545598856813 L 128.5 249.77545598856807 L 129.5 255.34125475691766 L 129.5 255.34125475691764 L 130.5 260.73465435383355 L 130.5 260.73465435383355 L 131.5 265.944885679141 L 131.5 265.944885679141 L 132.5 270.96154536812173 L 132.5 270.9615453681217 L 133.5 275.77461656410406 L 133.5 275.77461656410406 L 134.5 280.37448891930507 L 134.5 280.374488919305 L 135.50000000000003 284.7519777839885 L 135.50000000000003 284.7519777839884 L 136.5 288.8983425456235 L 136.5 288.8983425456235 L 137.5 292.8053040814274 L 137.5 292.8053040814274 L 138.5 296.4650612894415 L 138.5 296.46506128944145 L 139.5 299.8703066651352 L 139.5 299.8703066651352 L 140.5 303.0142408924348 L 140.5 303.01424089243477 L 141.5 305.8905864200427 L 141.5 305.8905864200427 L 142.5 308.49359999594 L 142.5 308.4935999959399 L 143.5 310.8180841350426 L 143.5 310.81808413504257 L 144.50000000000003 312.8593974971164 L 144.50000000000003 312.85939749711633 L 145.5 314.61346415422554 L 145.5 314.61346415422554 L 146.5 316.07678172921374 L 146.5 316.0767817292137 L 147.5 317.24642838896426 L 147.5 317.2464283889642 L 148.5 318.12006867847856 L 148.5 318.12006867847856 L 149.5 318.6959581841219 L 149.5 318.6959581841219 L 150.5 318.97294701672604 L 150.5 318.9504821075944 L 151.5 319 L 151.5 318.9504821075944 L 152.5 318.6286083128241 L 152.5 318.6286083128241 L 153.50000000000003 318.00796832374135 L 153.50000000000003 318.0079683237414 L 154.5 317.08980138362784 L 154.5 317.08980138362784 L 155.5 315.8759408133004 L 155.5 315.8759408133004 L 156.5 314.3688103504863 L 156.5 314.36881035048634 L 157.5 312.57141931030094 L 157.5 312.57141931030094 L 158.5 310.4873565764934 L 158.5 310.4873565764934 L 159.5 308.120783435456 L 159.5 308.1207834354561 L 160.5 305.4764252673076 L 160.5 305.47642526730766 L 161.5 302.5595621106397 L 161.5 302.5595621106398 L 162.50000000000003 299.3760181197665 L 162.50000000000003 299.37601811976657 L 163.5 295.9321499355292 L 163.5 295.93214993552925 L 164.5 292.23483399287363 L 164.5 292.2348339928737 L 165.5 288.29145279054666 L 165.5 288.2914527905467 L 166.5 284.10988015032484 L 166.5 284.1098801503249 L 167.5 279.69846549521 L 167.5 279.69846549521003 L 168.5 275.0660171779822 L 168.5 275.06601717798225 L 169.5 270.2217848934006 L 169.5 270.2217848934006 L 170.5 265.17544120916676 L 170.5 265.17544120916676 L 171.5 259.93706225253175 L 171.5 259.9370622525318 L 172.5 254.5171075911067 L 172.5 254.51710759110674 L 173.5 248.9263993480524 L 173.5 248.92639934805243 L 174.5 243.17610059334697 L 174.5 243.17610059334697 L 175.5 237.27769305427816 L 175.5 237.2776930542782 L 176.5 231.2429541896675 L 176.5 231.24295418966753 L 177.5 225.08393367360196 L 177.5 225.083933673602 L 178.5 218.81292933562787 L 178.5 218.8129293356279 L 179.5 212.44246260544838 L 179.5 212.4424626054484 L 180.5 205.9852535111546 L 180.5 205.9852535111546 L 181.5 199.45419528091145 L 181.5 199.45419528091145 L 182.5 192.86232859881193 L 182.5 192.86232859881193 L 183.5 186.22281556630332 L 183.5 186.22281556630332 L 184.5 179.5489134211772 L 184.5 179.54891342117722 L 185.5 172.85394806659835 L 185.5 172.85394806659835 L 186.5 166.15128746303003 L 186.5 166.15128746303003 L 187.5 159.45431493618014 L 187.5 159.45431493618014 L 188.5 152.77640245426954 L 188.5 152.77640245426954 L 189.5 146.1308839279763 L 189.5 146.13088392797633 L 190.5 139.53102858637195 L 190.5 139.53102858637195 L 191.5 132.99001448200696 L 191.5 132.99001448200696 L 192.5 126.52090217805167 L 192.5 126.5209021780517 L 193.5 120.13660867002837 L 193.5 120.13660867002838 L 194.5 113.84988159420985 L 194.5 113.84988159420988 L 195.5 107.67327377417917 L 195.5 107.6732737741792 L 196.5 101.61911815637589 L 196.5 101.61911815637592 L 197.5 95.69950318467518 L 197.5 95.69950318467518 L 198.5 89.92624866316949 L 198.5 89.92624866316952 L 199.5 84.31088215534847 L 199.5 84.31088215534848 L 200.5 78.86461596680073 L 200.5 78.86461596680076 L 201.5 73.59832475739728 L 201.5 73.59832475739731 L 202.5 68.5225238276579 L 202.5 68.52252382765795 L 203.5 63.64734812265753 L 203.5 63.64734812265755 L 204.5 58.9825319953943 L 204.5 58.98253199539434 L 205.5 54.53738977002908 L 205.5 54.53738977002912 L 206.5 50.3207971438018 L 206.5 50.32079714380181 L 207.5 46.34117346476435 L 207.5 46.34117346476438 L 208.5 42.60646492071322 L 208.5 42.606464920713236 L 209.5 39.12412867289035 L 209.5 39.12412867289038 L 210.5 35.901117966131636 L 210.5 35.901117966131665 L 211.5 32.9438682451956 L 211.5 32.94386824519566 L 212.5 30.258284304992316 L 212.5 30.258284304992372 L 213.5 27.84972850037053 L 213.5 27.84972850037056 L 214.5 25.72301003900563 L 214.5 25.723010039005658 L 215.5 23.882375378765772 L 215.5 23.8823753787658 L 216.5 22.331499748731574 L 216.5 22.331499748731602 L 217.5 21.073479810798403 L 217.5 21.07347981079846 L 218.5 20.110827476515084 L 218.5 20.110827476515084 L 219.5 19.44546489150315 L 219.5 19.445464891503207 L 220.5 19.078720597474188 L 220.5 19.078720597474216 L 221.5 18.999999999999915 L 221.5 19.011326879505475 L 222.5 19.243418303873256 L 222.5 19.243418303873227 L 223.5 19.77453144936169 L 223.5 19.774531449361632 L 224.5 20.603605832584435 L 224.5 20.60360583258438 L 225.5 21.7289860254715 L 225.5 21.72898602547147 L 226.5 23.14842496069292 L 226.5 23.148424960692893 L 227.5 24.859088418419105 L 227.5 24.859088418419077 L 228.5 26.857560685460157 L 228.5 26.8575606854601 L 229.5 29.139851375482806 L 229.5 29.139851375482777 L 230.5 31.701403396688647 L 230.5 31.70140339668862 L 231.5 34.53710205104258 L 231.5 34.53710205104255 L 232.5 37.64128524688496 L 232.5 37.641285246884934 L 233.5 41.007754804533974 L 233.5 41.007754804533946 L 234.5 44.62978883230487 L 234.5 44.629788832304854 L 235.5 48.50015514823508 L 235.5 48.50015514823504 L 236.5 52.61112572071441 L 236.5 52.61112572071437 L 237.5 56.95449209918843 L 237.5 56.954492099188386 L 238.5 61.52158180412252 L 238.5 61.52158180412248 L 239.5 66.30327564350091 L 239.5 66.30327564350087 L 240.5 71.2900259212859 L 240.5 71.29002592128586 L 241.5 76.47187550147714 L 241.5 76.4718755014771 L 242.5 81.8384776897091 L 242.5 81.83847768970907 L 243.5 87.37911689268532 L 243.5 87.37911689268529 L 244.5 93.08273001420136 L 244.5 93.08273001420132 L 245.5 98.93792854503172 L 245.5 98.93792854503172 L 246.5 104.93302130257636 L 246.5 104.93302130257635 L 247.5 111.05603777485946 L 247.5 111.05603777485943 L 248.5 117.29475202227111 L 248.5 117.2947520222711 L 249.5 123.63670708932608 L 249.5 123.63670708932607 L 250.5 130.06923987769525 L 250.5 130.06923987769522 L 251.5 136.5795064308477 L 251.5 136.5795064308477 L 252.5 143.15450757981432 L 252.5 143.15450757981432 L 253.5 149.78111489886825 L 253.5 149.78111489886825 L 254.5 156.4460969192933 L 254.5 156.4460969192933 L 255.5 163.13614554890154 L 255.5 163.13614554890154 L 256.5 169.8379026445451 L 256.5 169.8379026445451 L 257.5 176.53798668456696 L 257.5 176.53798668456696 L 258.5 183.22301948793088 L 258.5 183.22301948793088 L 259.5 189.87965292668156 L 259.5 189.87965292668156 L 260.5 196.4945955783975 L 260.5 196.4945955783975 L 261.5 203.05463926541856 L 261.5 203.05463926541856 L 262.5 209.546685427857 L 262.5 209.54668542785697 L 263.5 215.95777127773306 L 263.5 215.95777127773306 L 264.5 222.27509568201248 L 264.5 222.27509568201248 L 265.5 228.48604472286365 L 265.5 228.48604472286365 L 266.5 234.5782168840997 L 266.5 234.57821688409967 L 267.5 240.53944781351402 L 267.5 240.53944781351402 L 268.5 246.35783461166588 L 268.5 246.35783461166585 L 269.5 252.02175959861893 L 269.5 252.02175959861887 L 270.5 257.5199135111757 L 270.5 257.5199135111757 L 271.5 262.84131808429277 L 271.5 262.8413180842927 L 272.5 267.9753479715831 L 272.5 267.97534797158306 L 273.5 272.9117519611414 L 273.5 272.91175196114136 L 274.5 277.6406734443272 L 274.5 277.64067344432715 L 275.5 282.15267009663694 L 275.5 282.15267009663694 L 276.5 286.43873273136643 L 276.5 286.4387327313664 L 277.5 290.4903032884199 L 277.5 290.4903032884199 L 278.5 294.2992919223466 L 278.5 294.2992919223466 L 279.5 297.8580931554827 L 279.5 297.8580931554827 L 280.5 301.1596010639497 L 280.5 301.1596010639497 L 281.5 304.1972234661828 L 281.5 304.1972234661827 L 282.5 306.9648950856607 L 282.5 306.9648950856607 L 283.5 309.45708966155576 L 283.5 309.45708966155576 L 284.5 311.6688309831196 L 284.5 311.66883098311956 L 285.5 313.5957028257753 L 285.5 313.5957028257752 L 286.5 315.23385776907395 L 286.5 315.2338577690739 L 287.5 316.58002487890997 L 287.5 316.58002487890997 L 288.5 317.6315162386554 L 288.5 317.63151623865537 L 289.5 318.38623231617225 L 289.5 318.38623231617225 L 290.5 318.8426661559872 L 290.5 318.8426661559872 L 291.5 318.9999063882572 L 291.5 318.85763904851837 L 292.5 319 L 292.5 318.85763904851837 L 293.5 318.4161482045846 L 293.5 318.4161482045846 L 294.5 317.6763153893443 L 294.5 317.6763153893444 L 295.5 316.63961784058733 L 295.5 316.63961784058733 L 296.5 315.308125551377 L 296.5 315.30812555137703 L 297.5 313.6844971368572 L 297.5 313.6844971368572 L 298.5 311.77197452574626 L 298.5 311.77197452574626 L 299.5 309.57437648711846 L 299.5 309.5743764871185 L 300.5 307.0960910053977 L 300.5 307.09609100539774 L 301.5 304.3420665187879 L 301.5 304.34206651878793 L 302.5 301.3178020386359 L 302.5 301.31780203863593 L 303.5 298.0293361694539 L 303.5 298.0293361694539 L 304.5 294.48323505152723 L 304.5 294.48323505152723 L 305.5 290.6865792501808 L 305.5 290.6865792501808 L 306.5 286.64694961788445 L 306.5 286.64694961788445 L 307.5 282.37241215742523 L 307.5 282.3724121574253 L 308.5 277.8715019163714 L 308.5 277.87150191637147 L 309.5 273.15320594498564 L 309.5 273.15320594498564 L 310.5 268.2269453516168 L 310.5 268.22694535161685 L 311.5 263.1025564913997 L 311.5 263.1025564913997 L 312.5 257.79027132582337 L 312.5 257.79027132582337 L 313.5 252.3006969923861 L 313.5 252.30069699238612 L 314.5 246.64479462512838 L 314.5 246.64479462512838 L 315.5 240.8338574683347 L 315.5 240.8338574683347 L 316.5 234.87948832710578 L 316.5 234.87948832710578 L 317.5 228.79357639982362 L 317.5 228.79357639982365 L 318.5 222.58827353877072 L 318.5 222.58827353877075 L 319.5 216.2759699863026 L 319.5 216.2759699863026 L 320.5 209.86926963502376 L 320.5 209.86926963502378 L 321.5 203.38096486136283 L 321.5 203.38096486136286 L 322.5 196.82401098279996 L 322.5 196.8240109828 L 323.5 190.21150038974534 L 323.5 190.21150038974534 L 324.5 183.55663640372288 L 324.5 183.55663640372288 L 325.5 176.87270691405544 L 325.5 176.87270691405544 L 326.5 170.17305784569118 L 326.5 170.17305784569118 L 327.5 163.47106651115058 L 327.5 163.47106651115058 L 328.5 156.7801148997999 L 328.5 156.7801148997999 L 329.5 150.113562957787 L 329.5 150.113562957787 L 330.5 143.4847219119915 L 330.5 143.48472191199153 L 331.5 136.90682769125277 L 331.5 136.90682769125277 L 332.5 130.39301449794715 L 332.5 130.39301449794715 L 333.5 123.95628858268537 L 333.5 123.95628858268539 L 334.5 117.60950227449206 L 334.5 117.60950227449209 L 335.5 111.3653283183243 L 335.5 111.36532831832432 L 336.5 105.23623457116818 L 336.5 105.23623457116821 L 337.5 99.23445910724017 L 337.5 99.2344591072402 L 338.5 93.37198578199875 L 338.5 93.37198578199877 L 339.5 87.66052030375984 L 339.5 87.66052030375988 L 340.5 82.1114668606941 L 340.5 82.11146686069412 L 341.5 76.73590534987397 L 341.5 76.735905349874 L 342.5 71.54456925384005 L 342.5 71.54456925384008 L 343.5 66.54782420885847 L 343.5 66.5478242088585 L 344.5 61.755647307664944 L 344.5 61.75564730766496 L 345.5 57.177607178019784 L 345.5 57.1776071780198 L 346.5 52.82284487685291 L 346.5 52.822844876852955 L 347.5 48.70005563814772 L 347.5 48.70005563814773 L 348.5 44.817471511006715 L 348.5 44.81747151100673 L 349.5 41.18284492256842 L 349.5 41.182844922568435 L 350.5 37.803433198592955 L 350.5 37.803433198592984 L 351.5 34.68598407262644 L 351.5 34.68598407262647 L 352.5 31.83672221267767 L 352.5 31.8367222126777 L 353.5 29.26133679230813 L 353.5 29.261336792308157 L 354.5 26.964970130955578 L 354.5 26.964970130955606 L 355.5 24.952207426169252 L 355.5 24.95220742616931 L 356.5 23.227067598262238 L 356.5 23.227067598262266 L 357.5 21.79299526565913 L 357.5 21.792995265659158 L 358.5 20.65285386696314 L 358.5 20.65285386696317 L 359.5 19.808919943475445 L 359.5 19.808919943475473 L 360.5 19.262878593583423 L 360.5 19.26287859358345 L 361.5 19.015820108093607 L 361.5 19.06823779322812 L 362.5 18.999999999999915 L 362.5 19.06823779322812 L 363.5 19.420026985630983 L 363.5 19.420026985630955 L 364.5 20.07048526135125 L 364.5 20.070485261351195 L 365.5 21.018313838386035 L 365.5 21.018313838386007 L 366.5 22.261620169982308 L 366.5 22.26162016998225 L 367.5 23.797921723519835 L 367.5 23.797921723519806 L 368.5 25.62415093742993 L 368.5 25.624150937429903 L 369.5 27.73666134625131 L 369.5 27.73666134625128 L 370.5 30.13123486159583 L 370.5 30.13123486159577 L 371.5 32.80309019448231 L 371.5 32.80309019448228 L 372.5 35.74689240222466 L 372.5 35.7468924022246 L 373.5 38.956763540810044 L 373.5 38.95676354080999 L 374.5 42.42629440149692 L 374.5 42.42629440149689 L 375.5 46.14855730820152 L 375.5 46.148557308201475 L 376.5 50.11611995011533 L 376.5 50.116119950115305 L 377.5 54.321060221935966 L 377.5 54.32106022193592 L 378.5 58.75498204208213 L 378.5 58.75498204208212 L 379.5 63.40903211730323 L 379.5 63.4090321173032 L 380.5 68.27391762021324 L 380.5 68.27391762021323 L 381.5 73.33992474444872 L 381.5 73.33992474444871 L 382.5 78.59693810040687 L 382.5 78.59693810040685 L 383.5 84.03446091282845 L 383.5 84.03446091282841 L 384.5 89.64163597990246 L 384.5 89.6416359799024 L 385.5 95.40726735204106 L 385.5 95.40726735204105 L 386.5 101.31984268703633 L 386.5 101.31984268703631 L 387.5 107.36755623696828 L 387.5 107.36755623696828 L 388.5 113.53833242095723 L 388.5 113.5383324209572 L 389.5 119.81984993669847 L 389.5 119.81984993669846 L 390.5 126.19956636263399 L 390.5 126.19956636263396 L 391.5 132.66474320163397 L 391.5 132.66474320163397 L 392.5 139.20247131619163 L 392.5 139.2024713161916 L 393.5 145.79969670433323 L 393.5 145.79969670433323 L 394.5 152.44324656478517 L 394.5 152.44324656478517 L 395.5 159.11985559934627 L 395.5 159.11985559934627 L 396.5 165.81619249995603 L 396.5 165.81619249995603 L 397.5 172.51888656756037 L 397.5 172.51888656756037 L 398.5 179.21455440963348 L 398.5 179.21455440963348 L 399.5 185.88982666304176 L 399.5 185.88982666304176 L 400.5 192.53137468890014 L 400.5 192.53137468890014 L 401.5 199.12593718610856 L 401.5 199.12593718610856 L 402.5 205.66034667043658 L 402.5 205.66034667043658 L 403.5 212.12155576627958 L 403.5 212.12155576627958 L 404.5 218.49666325859644 L 404.5 218.4966632585964 L 405.5 224.7729398530009 L 405.5 224.7729398530009 L 406.5 230.93785359257848 L 406.5 230.93785359257845 L 407.5 236.97909488067555 L 407.5 236.97909488067552 L 408.5 242.88460105969568 L 408.5 242.88460105969565 L 409.5 248.6425804968327 L 409.5 248.64258049683266 L 410.5 254.24153612863893 L 410.5 254.24153612863887 L 411.5 259.6702884174241 L 411.5 259.67028841742405 L 412.5 264.91799767364216 L 412.5 264.9179976736421 L 413.5 269.9741856997015 L 413.5 269.9741856997014 L 414.5 274.82875671197274 L 414.5 274.8287567119727 L 415.5 279.47201749922675 L 415.5 279.47201749922675 L 416.5 283.8946967772462 L 416.5 283.8946967772462 L 417.5 288.0879637009715 L 417.5 288.0879637009715 L 418.5 292.04344549720986 L 418.5 292.04344549720986 L 419.5 295.75324418270657 L 419.5 295.7532441827065 L 420.5 299.20995233419194 L 420.5 299.20995233419194 L 421.5 302.4066678789216 L 421.5 302.40666787892155 L 422.5 305.3370078761707 L 422.5 305.3370078761707 L 423.5 307.9951212621695 L 423.5 307.9951212621694 L 424.5 310.37570053303006 L 424.5 310.37570053303 L 425.5 312.47399234233626 L 425.5 312.47399234233626 L 426.5 314.28580699223926 L 426.5 314.28580699223926 L 427.5 315.80752679910313 L 427.5 315.8075267991031 L 428.5 317.0361133170007 L 428.5 317.0361133170006 L 429.5 317.96911340463464 L 429.5 317.9691134046345 L 430.5 318.60466412356914 L 430.5 318.60466412356914 L 431.5 318.9414964579945 L 431.5 318.94149645799445 L 432.5 319 L 432.5 318.97893784859303 L 433.5 318.7169135354515 L 433.5 318.71691353545157 L 434.5 318.15594670733543 L 434.5 318.1559467073355 L 435.5 317.2971574570282 L 435.5 317.2971574570283 L 436.5 316.14226054482145 L 436.5 316.1422605448215 L 437.5 314.69356197462173 L 437.5 314.6935619746218 L 438.5 312.9539543895098 L 438.5 312.9539543895098 L 439.5 310.9269112959471 L 439.5 310.9269112959471 L 440.5 308.61648012816164 L 440.5 308.6164801281617 L 441.5 306.0272741665613 L 441.5 306.02727416656137 L 442.5 303.1644633263129 L 442.5 303.1644633263129 L 443.5 300.0337638344761 L 443.5 300.03376383447613 L 444.5 296.6414268163087 L 444.5 296.64142681630875 L 445.5 292.9942258135296 L 445.5 292.9942258135297 L 446.5 289.09944325946316 L 446.5 289.0994432594632 L 447.5 284.96485593807165 L 447.5 284.96485593807165 L 448.5 280.59871945590623 L 448.5 280.59871945590623 L 449.5 276.0097517579861 L 449.5 276.0097517579861 L 450.5 271.2071157205186 L 450.5 271.2071157205186 L 451.5 266.2004008552137 L 451.5 266.20040085521373 L 452.5 260.9996041617296 L 452.5 260.9996041617296 L 453.5 255.61511016648228 L 453.5 255.61511016648234 L 454.5 250.05767018766863 L 454.5 250.05767018766866 L 455.5 244.33838086791096 L 455.5 244.33838086791098 L 456.5 238.468662017388 L 456.5 238.46866201738803 L 457.5 232.46023381168936 L 457.5 232.46023381168936 L 458.5 226.32509338992486 L 458.5 226.3250933899249 L 459.5 220.07549089981825 L 459.5 220.07549089981828 L 460.5 213.72390503760894 L 460.5 213.72390503760897 L 461.5 207.28301813161167 L 461.5 207.2830181316117 L 462.5 200.76569081917782 L 462.5 200.76569081917782 L 463.5000000000001 194.1849363676237 L 463.5000000000001 194.18493636762372 L 464.5 187.5538946904025 L 464.5 187.5538946904025 L 465.5 180.88580611039376 L 465.5 180.88580611039376 L 466.5 174.1939849227118 L 466.5 174.1939849227118 L 467.5 167.49179280980147 L 467.5 167.49179280980147 L 468.5 160.79261216192907 L 468.5 160.79261216192907 L 469.5 154.10981935630903 L 469.5 154.10981935630903 L 470.5 147.4567580482534 L 470.5 147.4567580482534 L 471.5 140.84671252764355 L 471.5 140.84671252764358 L 472.5 134.29288119394906 L 472.5 134.29288119394906 L 473.5 127.80835020273688 L 473.5 127.80835020273688 L 474.5 121.40606733630605 L 474.5 121.40606733630608 L 475.5 115.09881615061167 L 475.5 115.09881615061168 L 476.5 108.89919045010538 L 476.5 108.8991904501054 L 477.5 102.81956914145158 L 477.5 102.8195691414516 L 478.5 96.87209151633873 L 478.5 96.87209151633876 L 479.5 91.06863301273185 L 479.5 91.06863301273191 L 480.5000000000001 85.42078150296676 L 480.5000000000001 85.42078150296679 L 481.5 79.93981415603382 L 481.5 79.93981415603385 L 482.5000000000001 74.63667492024433 L 482.5000000000001 74.63667492024436 L 483.5 69.52195267125141 L 483.5 69.52195267125143 L 484.5 64.60586006904221 L 484.5 64.60586006904225 L 485.5 59.89821316613805 L 485.5 59.89821316613808 L 486.5 55.40841180769537 L 486.5 55.408411807695416 L 487.5 51.145420862667876 L 487.5 51.145420862667905 L 488.5 47.117752323483316 L 488.5 47.11775232348333 L 489.5 43.333448309994736 L 489.5 43.333448309994765 L 490.5 39.80006501162964 L 490.5 39.80006501162967 L 491.5 36.52465759980879 L 491.5 36.52465759980882 L 492.5 33.51376614075514 L 492.5 33.513766140755195 L 493.5 30.773402536824364 L 493.5 30.773402536824392 L 494.5 28.30903852242716 L 494.5 28.309038522427187 L 495.5 26.125594738517748 L 495.5 26.125594738517776 L 496.5 24.227430907459166 L 496.5 24.227430907459194 L 497.5000000000001 22.618337127885383 L 497.5000000000001 22.61833712788541 L 498.5 21.30152630694215 L 498.5 21.30152630694218 L 499.5000000000001 20.27962774501529 L 499.5000000000001 20.27962774501532 L 500.5 19.554681885759237 L 500.5 19.554681885759294 L 501.5 19.12813624190474 L 501.5 19.12813624190477 L 502.5 18.999999999999915 L 502.5 19.000842504984405 L 503.5 19.17305484474403 L 503.5 19.173054844744 L 504.5 19.644429401637268 L 504.5 19.64442940163721 L 505.5 20.41402497341656 L 505.5 20.414024973416502 L 506.5 21.48030489444858 L 506.5 21.480304894448523 L 507.5 22.841140104003102 L 507.5 22.841140104003074 L 508.5 24.49381339738767 L 508.5 24.493813397387612 L 509.5 26.43502485144012 L 509.5 26.435024851440062 L 510.5 28.66089841354551 L 510.5 28.660898413545482 L 511.5 31.166989641022354 L 511.5 31.166989641022354 L 512.5 33.94829457542272 L 512.5 33.94829457542269 L 513.5 36.99925973402793 L 513.5 36.9992597340279 L 514.5 40.31379319859016 L 514.5 40.31379319859016 L 515.5 43.88527677917661 L 515.5 43.88527677917659 L 516.5000000000001 47.70657922883274 L 516.5000000000001 47.70657922883271 L 517.5 51.77007048267181 L 517.5 51.77007048267177 L 518.5000000000001 56.067636892969404 L 518.5000000000001 56.067636892969375 L 519.5 60.59069742982834 L 519.5 60.590697429828325 L 520.5 65.33022081508422 L 520.5 65.33022081508418 L 521.5 70.27674355521927 L 521.5 70.27674355521923 L 522.5 75.4203888372985 L 522.5 75.42038883729847 L 523.5 80.75088625017975 L 523.5 80.75088625017973 L 524.5 86.25759229163744 L 524.5 86.25759229163741 L 525.5 91.92951162043335 L 525.5 91.92951162043332 L 526.5 97.75531901092192 L 526.5 97.7553190109219 L 527.5 103.72338196633252 L 527.5 103.7233819663325 L 528.5 109.82178394559295 L 528.5 109.82178394559294 L 529.5 116.03834815730434 L 529.5 116.03834815730433 L 530.5 122.36066187336492 L 530.5 122.3606618733649 L 531.5 128.77610121369253 L 531.5 128.77610121369253 L 532.5 135.2718563525583 L 532.5 135.2718563525583 L 533.5000000000001 141.83495709620155 L 533.5000000000001 141.83495709620155 L 534.5 148.45229878065246 L 534.5 148.45229878065246 L 535.5000000000001 155.110668438059 L 535.5000000000001 155.110668438059 L 536.5 161.7967711792584 L 536.5 161.7967711792584 L 537.5 168.49725673993302 L 537.5 168.49725673993302 L 538.5 175.19874613732136 L 538.5 175.19874613732136 L 539.5 181.88785838428535 L 539.5 181.88785838428532 L 540.5 188.5512372073681 L 540.5 188.5512372073681 L 541.5 195.17557771551733 L 541.5 195.1755777155173 L 542.5 201.74765296619836 L 542.5 201.74765296619836 L 543.5 208.25434037587968 L 543.5 208.25434037587965 L 544.5 214.68264792213438 L 544.5 214.68264792213438 L 545.5 221.01974008504908 L 545.5 221.01974008504908 L 546.5 227.2529634761455 L 546.5 227.2529634761455 L 547.5 233.36987210363205 L 547.5 233.36987210363202 L 548.5 239.35825222354487 L 548.5 239.35825222354487 L 549.5 245.20614672715527 L 549.5 245.20614672715524 L 550.5000000000001 250.90187901594902 L 550.5000000000001 250.90187901594896 L 551.5 256.4340763165035 L 551.5 256.4340763165034 L 552.5000000000001 261.7916923887167 L 552.5000000000001 261.7916923887167 L 553.5 266.96402958203436 L 553.5 266.9640295820343 L 554.5000000000001 271.9407601956502 L 554.5000000000001 271.9407601956502 L 555.5 276.7119471000107 L 555.5 276.71194710001066 L 556.5 281.268063578469 L 556.5 281.26806357846897 L 557.5 285.60001234945156 L 557.5 285.6000123494515 L 558.5 289.699143731172 L 558.5 289.69914373117194 L 559.5 293.5572729126047 L 559.5 293.5572729126046 L 560.5 297.16669629625153 L 560.5 297.1666962962515 L 561.5 300.5202068800551 L 561.5 300.52020688005507 L 562.5 303.61110864775173 L 562.5 303.6111086477517 L 563.5 306.4332299389315 L 563.5 306.4332299389315 L 564.5 308.9809357721057 L 564.5 308.9809357721057 L 565.5 311.24913909617754 L 565.5 311.2491390961775 L 566.5 313.23331094785124 L 566.5 313.23331094785124 L 567.5 314.9294894946961 L 567.5 314.9294894946961 L 568.5 316.33428794580993 L 568.5 316.3342879458099 L 569.5000000000001 317.4449013142872 L 569.5000000000001 317.4449013142872 L 570.5 318.25911201798783 L 570.5 318.2591120179877 L 571.5000000000001 318.775294307424 L 571.5000000000001 318.77529430742396 L 572.5 318.9924175119244 L 572.5 318.91004809759306 L 573.5 319 L 573.5 318.91004809759306 L 574.5 318.5283505329546 L 574.5 318.5283505329546 L 575.5 317.8480869605568 L 575.5 317.8480869605569 L 576.5 316.87061567518685 L 576.5 316.87061567518685 L 577.5 315.5978884117384 L 577.5 315.5978884117384 L 578.5 314.0324464481474 L 578.5 314.0324464481474 L 579.5 312.177415531176 L 579.5 312.17741553117605 L 580.5 310.0364996351747 L 580.5 310.0364996351748 L 581.5 307.6139735662913 L 581.5 307.61397356629135 L 582.5 304.9146744268839 L 582.5 304.91467442688395 L 583.5 301.9439919571927 L 583.5 301.9439919571927 L 584.5 298.70785777354325 L 584.5 298.7078577735433 L 585.5 295.2127335245823 L 585.5 295.2127335245823 L 586.5000000000001 291.4655979891828 L 586.5000000000001 291.4655979891828 L 587.5 287.47393314178953 L 587.5 287.4739331417896 L 588.5000000000001 283.24570921302006 L 588.5000000000001 283.24570921302006 L 589.5 278.7893687753632 L 589.5 278.78936877536324 L 590.5000000000001 274.1138098857342 L 590.5000000000001 274.1138098857342 L 591.5 269.22836831856625 L 591.5 269.2283683185663 L 592.5 264.1427989248921 L 592.5 264.14279892489213 L 593.5 258.86725615465974 L 593.5 258.86725615465974 L 594.5 253.4122737811489 L 594.5 253.41227378114894 L 595.5 247.78874386799833 L 595.5 247.7887438679984 L 596.5 242.0078950208182 L 596.5 242.00789502081824 L 597.5 236.08126996682887 L 597.5 236.08126996682887 L 598.5 230.02070250728107 L 598.5 230.0207025072811 L 599.5000000000001 223.83829388869336 L 599.5000000000001 223.83829388869336 L 600.5 217.54638864006742 L 600.5 217.54638864006742 L 601.5000000000001 211.15754992433716 L 601.5000000000001 211.1575499243372 L 602.5 204.68453445327722 L 602.5 204.68453445327722 L 603.5000000000001 198.14026701593363 L 603.5000000000001 198.14026701593366 L 604.5 191.53781467146828 L 604.5 191.5378146714683 L 605.5000000000001 184.89036065791308 L 605.5000000000001 184.89036065791308 L 606.5 178.21117806896345 L 606.5 178.21117806896345 L 607.5000000000001 171.51360335134385 L 607.5000000000001 171.51360335134385 L 608.5 164.8110096756814 L 608.5 164.8110096756814 L 609.5 158.11678023404585 L 609.5 158.11678023404585 L 610.5 151.44428151749128 L 610.5 151.44428151749128 L 611.5 144.8068366269291 L 611.5 144.8068366269291 L 612.5 138.21769867065584 L 612.5 138.21769867065586 L 613.5 131.6900243016196 L 613.5 131.69002430161962 L 614.5 125.23684744729752 L 614.5 125.23684744729755 L 615.5 118.87105328460484" stroke-opacity="0.6980392156862745" stroke-linecap="round" stroke-linejoin="round" stroke-miterlimit="10" stroke-width="2.5"/><text fill="rgb(0,100,0)" stroke="none" font-family="geogebra-sans-serif, sans-serif" font-size="16px" font-style="normal" font-weight="normal" text-decoration="normal" x="8" y="318" text-anchor="start" dominant-baseline="alphabetic" fill-opacity="1">f</text><text fill="rgb(0,100,0)" stroke="none" font-family="geogebra-sans-serif, sans-serif" font-size="16px" font-style="normal" font-weight="normal" text-decoration="normal" x="8" y="318" text-anchor="start" dominant-baseline="alphabetic" fill-opacity="1">f</text></g></g></svg>
