<svg version="1.1" xmlns="http://www.w3.org/2000/svg" xmlns:xlink="http://www.w3.org/1999/xlink" width="891" height="515"><defs><clipPath id="oJeAsKkfuwVv"><path fill="none" stroke="none" d=" M 0 0 L 891 0 L 891 515 L 0 515 L 0 0 Z"/></clipPath></defs><g transform="scale(1,1)" clip-path="url(#oJeAsKkfuwVv)"><g><rect fill="rgb(255,255,255)" stroke="none" x="0" y="0" width="892" height="515" fill-opacity="1"/><path fill="none" stroke="rgb(192,192,192)" paint-order="fill stroke markers" d=" M 2.5 0.5 L 2.5 515.5 M 2.5 0.5 L 2.5 515.5 M 53.5 0.5 L 53.5 515.5 M 104.5 0.5 L 104.5 515.5 M 155.5 0.5 L 155.5 515.5 M 206.5 0.5 L 206.5 515.5 M 257.5 0.5 L 257.5 515.5 M 308.5 0.5 L 308.5 515.5 M 359.5 0.5 L 359.5 515.5 M 410.5 0.5 L 410.5 515.5 M 512.5 0.5 L 512.5 515.5 M 563.5 0.5 L 563.5 515.5 M 614.5 0.5 L 614.5 515.5 M 665.5 0.5 L 665.5 515.5 M 716.5 0.5 L 716.5 515.5 M 767.5 0.5 L 767.5 515.5 M 818.5 0.5 L 818.5 515.5 M 869.5 0.5 L 869.5 515.5" stroke-opacity="1" stroke-linecap="round" stroke-linejoin="round" stroke-miterlimit="10"/><path fill="none" stroke="rgb(192,192,192)" paint-order="fill stroke markers" d=" M 12.5 0.5 L 12.5 515.5 M 22.5 0.5 L 22.5 515.5 M 32.5 0.5 L 32.5 515.5 M 42.5 0.5 L 42.5 515.5 M 63.5 0.5 L 63.5 515.5 M 73.5 0.5 L 73.5 515.5 M 83.5 0.5 L 83.5 515.5 M 93.5 0.5 L 93.5 515.5 M 114.5 0.5 L 114.5 515.5 M 124.5 0.5 L 124.5 515.5 M 134.5 0.5 L 134.5 515.5 M 145.5 0.5 L 145.5 515.5 M 165.5 0.5 L 165.5 515.5 M 175.5 0.5 L 175.5 515.5 M 185.5 0.5 L 185.5 515.5 M 196.5 0.5 L 196.5 515.5 M 216.5 0.5 L 216.5 515.5 M 226.5 0.5 L 226.5 515.5 M 236.5 0.5 L 236.5 515.5 M 247.5 0.5 L 247.5 515.5 M 267.5 0.5 L 267.5 515.5 M 277.5 0.5 L 277.5 515.5 M 287.5 0.5 L 287.5 515.5 M 298.5 0.5 L 298.5 515.5 M 318.5 0.5 L 318.5 515.5 M 328.5 0.5 L 328.5 515.5 M 338.5 0.5 L 338.5 515.5 M 349.5 0.5 L 349.5 515.5 M 369.5 0.5 L 369.5 515.5 M 379.5 0.5 L 379.5 515.5 M 390.5 0.5 L 390.5 515.5 M 400.5 0.5 L 400.5 515.5 M 420.5 0.5 L 420.5 515.5 M 430.5 0.5 L 430.5 515.5 M 441.5 0.5 L 441.5 515.5 M 451.5 0.5 L 451.5 515.5 M 471.5 0.5 L 471.5 515.5 M 481.5 0.5 L 481.5 515.5 M 492.5 0.5 L 492.5 515.5 M 502.5 0.5 L 502.5 515.5 M 522.5 0.5 L 522.5 515.5 M 532.5 0.5 L 532.5 515.5 M 543.5 0.5 L 543.5 515.5 M 553.5 0.5 L 553.5 515.5 M 573.5 0.5 L 573.5 515.5 M 584.5 0.5 L 584.5 515.5 M 594.5 0.5 L 594.5 515.5 M 604.5 0.5 L 604.5 515.5 M 624.5 0.5 L 624.5 515.5 M 635.5 0.5 L 635.5 515.5 M 645.5 0.5 L 645.5 515.5 M 655.5 0.5 L 655.5 515.5 M 675.5 0.5 L 675.5 515.5 M 686.5 0.5 L 686.5 515.5 M 696.5 0.5 L 696.5 515.5 M 706.5 0.5 L 706.5 515.5 M 726.5 0.5 L 726.5 515.5 M 737.5 0.5 L 737.5 515.5 M 747.5 0.5 L 747.5 515.5 M 757.5 0.5 L 757.5 515.5 M 777.5 0.5 L 777.5 515.5 M 788.5 0.5 L 788.5 515.5 M 798.5 0.5 L 798.5 515.5 M 808.5 0.5 L 808.5 515.5 M 829.5 0.5 L 829.5 515.5 M 839.5 0.5 L 839.5 515.5 M 849.5 0.5 L 849.5 515.5 M 859.5 0.5 L 859.5 515.5 M 880.5 0.5 L 880.5 515.5 M 890.5 0.5 L 890.5 515.5" stroke-opacity="0.23529411764705882" stroke-linecap="round" stroke-linejoin="round" stroke-miterlimit="10"/><path fill="none" stroke="rgb(192,192,192)" paint-order="fill stroke markers" d=" M 0.5 7.5 L 891.5 7.5 M 0.5 7.5 L 891.5 7.5 M 0.5 57.5 L 891.5 57.5 M 0.5 107.5 L 891.5 107.5 M 0.5 157.5 L 891.5 157.5 M 0.5 207.5 L 891.5 207.5 M 0.5 307.5 L 891.5 307.5 M 0.5 357.5 L 891.5 357.5 M 0.5 407.5 L 891.5 407.5 M 0.5 457.5 L 891.5 457.5 M 0.5 507.5 L 891.5 507.5" stroke-opacity="1" stroke-linecap="round" stroke-linejoin="round" stroke-miterlimit="10"/><path fill="none" stroke="rgb(192,192,192)" paint-order="fill stroke markers" d=" M 0.5 7.5 L 891.5 7.5 M 0.5 17.5 L 891.5 17.5 M 0.5 27.5 L 891.5 27.5 M 0.5 37.5 L 891.5 37.5 M 0.5 47.5 L 891.5 47.5 M 0.5 67.5 L 891.5 67.5 M 0.5 77.5 L 891.5 77.5 M 0.5 87.5 L 891.5 87.5 M 0.5 97.5 L 891.5 97.5 M 0.5 117.5 L 891.5 117.5 M 0.5 127.5 L 891.5 127.5 M 0.5 137.5 L 891.5 137.5 M 0.5 147.5 L 891.5 147.5 M 0.5 167.5 L 891.5 167.5 M 0.5 177.5 L 891.5 177.5 M 0.5 187.5 L 891.5 187.5 M 0.5 197.5 L 891.5 197.5 M 0.5 217.5 L 891.5 217.5 M 0.5 227.5 L 891.5 227.5 M 0.5 237.5 L 891.5 237.5 M 0.5 247.5 L 891.5 247.5 M 0.5 267.5 L 891.5 267.5 M 0.5 277.5 L 891.5 277.5 M 0.5 287.5 L 891.5 287.5 M 0.5 297.5 L 891.5 297.5 M 0.5 317.5 L 891.5 317.5 M 0.5 327.5 L 891.5 327.5 M 0.5 337.5 L 891.5 337.5 M 0.5 347.5 L 891.5 347.5 M 0.5 367.5 L 891.5 367.5 M 0.5 377.5 L 891.5 377.5 M 0.5 387.5 L 891.5 387.5 M 0.5 397.5 L 891.5 397.5 M 0.5 417.5 L 891.5 417.5 M 0.5 427.5 L 891.5 427.5 M 0.5 437.5 L 891.5 437.5 M 0.5 447.5 L 891.5 447.5 M 0.5 467.5 L 891.5 467.5 M 0.5 477.5 L 891.5 477.5 M 0.5 487.5 L 891.5 487.5 M 0.5 497.5 L 891.5 497.5" stroke-opacity="0.23529411764705882" stroke-linecap="round" stroke-linejoin="round" stroke-miterlimit="10"/><path fill="none" stroke="rgb(37,37,37)" paint-order="fill stroke markers" d=" M 461.5 2.5 L 461.5 515.5" stroke-opacity="1" stroke-miterlimit="10"/><path fill="none" stroke="rgb(37,37,37)" paint-order="fill stroke markers" d=" M 461.5 1.5 L 457.5 5.5" stroke-opacity="1" stroke-miterlimit="10"/><path fill="none" stroke="rgb(37,37,37)" paint-order="fill stroke markers" d=" M 461.5 1.5 L 465.5 5.5" stroke-opacity="1" stroke-miterlimit="10"/><path fill="none" stroke="rgb(37,37,37)" paint-order="fill stroke markers" d=" M 0.5 257.5 L 889.5 257.5" stroke-opacity="1" stroke-miterlimit="10"/><path fill="none" stroke="rgb(37,37,37)" paint-order="fill stroke markers" d=" M 890.5 257.5 L 886.5 253.5" stroke-opacity="1" stroke-miterlimit="10"/><path fill="none" stroke="rgb(37,37,37)" paint-order="fill stroke markers" d=" M 890.5 257.5 L 886.5 261.5" stroke-opacity="1" stroke-miterlimit="10"/><text fill="rgb(37,37,37)" stroke="none" font-family="geogebra-sans-serif, sans-serif" font-size="12px" font-style="normal" font-weight="normal" text-decoration="normal" x="42" y="273" text-anchor="start" dominant-baseline="alphabetic" fill-opacity="1">–0.8</text><text fill="none" stroke="rgb(255,255,255)" font-family="geogebra-sans-serif, sans-serif" font-size="12px" font-style="normal" font-weight="normal" text-decoration="normal" x="42" y="273" text-anchor="start" dominant-baseline="alphabetic" stroke-opacity="1" stroke-linejoin="bevel" stroke-miterlimit="10" stroke-width="3">–0.8</text><text fill="rgb(37,37,37)" stroke="none" font-family="geogebra-sans-serif, sans-serif" font-size="12px" font-style="normal" font-weight="normal" text-decoration="normal" x="42" y="273" text-anchor="start" dominant-baseline="alphabetic" fill-opacity="1">–0.8</text><text fill="rgb(37,37,37)" stroke="none" font-family="geogebra-sans-serif, sans-serif" font-size="12px" font-style="normal" font-weight="normal" text-decoration="normal" x="93" y="273" text-anchor="start" dominant-baseline="alphabetic" fill-opacity="1">–0.7</text><text fill="none" stroke="rgb(255,255,255)" font-family="geogebra-sans-serif, sans-serif" font-size="12px" font-style="normal" font-weight="normal" text-decoration="normal" x="93" y="273" text-anchor="start" dominant-baseline="alphabetic" stroke-opacity="1" stroke-linejoin="bevel" stroke-miterlimit="10" stroke-width="3">–0.7</text><text fill="rgb(37,37,37)" stroke="none" font-family="geogebra-sans-serif, sans-serif" font-size="12px" font-style="normal" font-weight="normal" text-decoration="normal" x="93" y="273" text-anchor="start" dominant-baseline="alphabetic" fill-opacity="1">–0.7</text><text fill="rgb(37,37,37)" stroke="none" font-family="geogebra-sans-serif, sans-serif" font-size="12px" font-style="normal" font-weight="normal" text-decoration="normal" x="144" y="273" text-anchor="start" dominant-baseline="alphabetic" fill-opacity="1">–0.6</text><text fill="none" stroke="rgb(255,255,255)" font-family="geogebra-sans-serif, sans-serif" font-size="12px" font-style="normal" font-weight="normal" text-decoration="normal" x="144" y="273" text-anchor="start" dominant-baseline="alphabetic" stroke-opacity="1" stroke-linejoin="bevel" stroke-miterlimit="10" stroke-width="3">–0.6</text><text fill="rgb(37,37,37)" stroke="none" font-family="geogebra-sans-serif, sans-serif" font-size="12px" font-style="normal" font-weight="normal" text-decoration="normal" x="144" y="273" text-anchor="start" dominant-baseline="alphabetic" fill-opacity="1">–0.6</text><text fill="rgb(37,37,37)" stroke="none" font-family="geogebra-sans-serif, sans-serif" font-size="12px" font-style="normal" font-weight="normal" text-decoration="normal" x="195" y="273" text-anchor="start" dominant-baseline="alphabetic" fill-opacity="1">–0.5</text><text fill="none" stroke="rgb(255,255,255)" font-family="geogebra-sans-serif, sans-serif" font-size="12px" font-style="normal" font-weight="normal" text-decoration="normal" x="195" y="273" text-anchor="start" dominant-baseline="alphabetic" stroke-opacity="1" stroke-linejoin="bevel" stroke-miterlimit="10" stroke-width="3">–0.5</text><text fill="rgb(37,37,37)" stroke="none" font-family="geogebra-sans-serif, sans-serif" font-size="12px" font-style="normal" font-weight="normal" text-decoration="normal" x="195" y="273" text-anchor="start" dominant-baseline="alphabetic" fill-opacity="1">–0.5</text><text fill="rgb(37,37,37)" stroke="none" font-family="geogebra-sans-serif, sans-serif" font-size="12px" font-style="normal" font-weight="normal" text-decoration="normal" x="246" y="273" text-anchor="start" dominant-baseline="alphabetic" fill-opacity="1">–0.4</text><text fill="none" stroke="rgb(255,255,255)" font-family="geogebra-sans-serif, sans-serif" font-size="12px" font-style="normal" font-weight="normal" text-decoration="normal" x="246" y="273" text-anchor="start" dominant-baseline="alphabetic" stroke-opacity="1" stroke-linejoin="bevel" stroke-miterlimit="10" stroke-width="3">–0.4</text><text fill="rgb(37,37,37)" stroke="none" font-family="geogebra-sans-serif, sans-serif" font-size="12px" font-style="normal" font-weight="normal" text-decoration="normal" x="246" y="273" text-anchor="start" dominant-baseline="alphabetic" fill-opacity="1">–0.4</text><text fill="rgb(37,37,37)" stroke="none" font-family="geogebra-sans-serif, sans-serif" font-size="12px" font-style="normal" font-weight="normal" text-decoration="normal" x="297" y="273" text-anchor="start" dominant-baseline="alphabetic" fill-opacity="1">–0.3</text><text fill="none" stroke="rgb(255,255,255)" font-family="geogebra-sans-serif, sans-serif" font-size="12px" font-style="normal" font-weight="normal" text-decoration="normal" x="297" y="273" text-anchor="start" dominant-baseline="alphabetic" stroke-opacity="1" stroke-linejoin="bevel" stroke-miterlimit="10" stroke-width="3">–0.3</text><text fill="rgb(37,37,37)" stroke="none" font-family="geogebra-sans-serif, sans-serif" font-size="12px" font-style="normal" font-weight="normal" text-decoration="normal" x="297" y="273" text-anchor="start" dominant-baseline="alphabetic" fill-opacity="1">–0.3</text><text fill="rgb(37,37,37)" stroke="none" font-family="geogebra-sans-serif, sans-serif" font-size="12px" font-style="normal" font-weight="normal" text-decoration="normal" x="348" y="273" text-anchor="start" dominant-baseline="alphabetic" fill-opacity="1">–0.2</text><text fill="none" stroke="rgb(255,255,255)" font-family="geogebra-sans-serif, sans-serif" font-size="12px" font-style="normal" font-weight="normal" text-decoration="normal" x="348" y="273" text-anchor="start" dominant-baseline="alphabetic" stroke-opacity="1" stroke-linejoin="bevel" stroke-miterlimit="10" stroke-width="3">–0.2</text><text fill="rgb(37,37,37)" stroke="none" font-family="geogebra-sans-serif, sans-serif" font-size="12px" font-style="normal" font-weight="normal" text-decoration="normal" x="348" y="273" text-anchor="start" dominant-baseline="alphabetic" fill-opacity="1">–0.2</text><text fill="rgb(37,37,37)" stroke="none" font-family="geogebra-sans-serif, sans-serif" font-size="12px" font-style="normal" font-weight="normal" text-decoration="normal" x="399" y="273" text-anchor="start" dominant-baseline="alphabetic" fill-opacity="1">–0.1</text><text fill="none" stroke="rgb(255,255,255)" font-family="geogebra-sans-serif, sans-serif" font-size="12px" font-style="normal" font-weight="normal" text-decoration="normal" x="399" y="273" text-anchor="start" dominant-baseline="alphabetic" stroke-opacity="1" stroke-linejoin="bevel" stroke-miterlimit="10" stroke-width="3">–0.1</text><text fill="rgb(37,37,37)" stroke="none" font-family="geogebra-sans-serif, sans-serif" font-size="12px" font-style="normal" font-weight="normal" text-decoration="normal" x="399" y="273" text-anchor="start" dominant-baseline="alphabetic" fill-opacity="1">–0.1</text><text fill="rgb(37,37,37)" stroke="none" font-family="geogebra-sans-serif, sans-serif" font-size="12px" font-style="normal" font-weight="normal" text-decoration="normal" x="504" y="273" text-anchor="start" dominant-baseline="alphabetic" fill-opacity="1">0.1</text><text fill="none" stroke="rgb(255,255,255)" font-family="geogebra-sans-serif, sans-serif" font-size="12px" font-style="normal" font-weight="normal" text-decoration="normal" x="504" y="273" text-anchor="start" dominant-baseline="alphabetic" stroke-opacity="1" stroke-linejoin="bevel" stroke-miterlimit="10" stroke-width="3">0.1</text><text fill="rgb(37,37,37)" stroke="none" font-family="geogebra-sans-serif, sans-serif" font-size="12px" font-style="normal" font-weight="normal" text-decoration="normal" x="504" y="273" text-anchor="start" dominant-baseline="alphabetic" fill-opacity="1">0.1</text><text fill="rgb(37,37,37)" stroke="none" font-family="geogebra-sans-serif, sans-serif" font-size="12px" font-style="normal" font-weight="normal" text-decoration="normal" x="555" y="273" text-anchor="start" dominant-baseline="alphabetic" fill-opacity="1">0.2</text><text fill="none" stroke="rgb(255,255,255)" font-family="geogebra-sans-serif, sans-serif" font-size="12px" font-style="normal" font-weight="normal" text-decoration="normal" x="555" y="273" text-anchor="start" dominant-baseline="alphabetic" stroke-opacity="1" stroke-linejoin="bevel" stroke-miterlimit="10" stroke-width="3">0.2</text><text fill="rgb(37,37,37)" stroke="none" font-family="geogebra-sans-serif, sans-serif" font-size="12px" font-style="normal" font-weight="normal" text-decoration="normal" x="555" y="273" text-anchor="start" dominant-baseline="alphabetic" fill-opacity="1">0.2</text><text fill="rgb(37,37,37)" stroke="none" font-family="geogebra-sans-serif, sans-serif" font-size="12px" font-style="normal" font-weight="normal" text-decoration="normal" x="606" y="273" text-anchor="start" dominant-baseline="alphabetic" fill-opacity="1">0.3</text><text fill="none" stroke="rgb(255,255,255)" font-family="geogebra-sans-serif, sans-serif" font-size="12px" font-style="normal" font-weight="normal" text-decoration="normal" x="606" y="273" text-anchor="start" dominant-baseline="alphabetic" stroke-opacity="1" stroke-linejoin="bevel" stroke-miterlimit="10" stroke-width="3">0.3</text><text fill="rgb(37,37,37)" stroke="none" font-family="geogebra-sans-serif, sans-serif" font-size="12px" font-style="normal" font-weight="normal" text-decoration="normal" x="606" y="273" text-anchor="start" dominant-baseline="alphabetic" fill-opacity="1">0.3</text><text fill="rgb(37,37,37)" stroke="none" font-family="geogebra-sans-serif, sans-serif" font-size="12px" font-style="normal" font-weight="normal" text-decoration="normal" x="657" y="273" text-anchor="start" dominant-baseline="alphabetic" fill-opacity="1">0.4</text><text fill="none" stroke="rgb(255,255,255)" font-family="geogebra-sans-serif, sans-serif" font-size="12px" font-style="normal" font-weight="normal" text-decoration="normal" x="657" y="273" text-anchor="start" dominant-baseline="alphabetic" stroke-opacity="1" stroke-linejoin="bevel" stroke-miterlimit="10" stroke-width="3">0.4</text><text fill="rgb(37,37,37)" stroke="none" font-family="geogebra-sans-serif, sans-serif" font-size="12px" font-style="normal" font-weight="normal" text-decoration="normal" x="657" y="273" text-anchor="start" dominant-baseline="alphabetic" fill-opacity="1">0.4</text><text fill="rgb(37,37,37)" stroke="none" font-family="geogebra-sans-serif, sans-serif" font-size="12px" font-style="normal" font-weight="normal" text-decoration="normal" x="708" y="273" text-anchor="start" dominant-baseline="alphabetic" fill-opacity="1">0.5</text><text fill="none" stroke="rgb(255,255,255)" font-family="geogebra-sans-serif, sans-serif" font-size="12px" font-style="normal" font-weight="normal" text-decoration="normal" x="708" y="273" text-anchor="start" dominant-baseline="alphabetic" stroke-opacity="1" stroke-linejoin="bevel" stroke-miterlimit="10" stroke-width="3">0.5</text><text fill="rgb(37,37,37)" stroke="none" font-family="geogebra-sans-serif, sans-serif" font-size="12px" font-style="normal" font-weight="normal" text-decoration="normal" x="708" y="273" text-anchor="start" dominant-baseline="alphabetic" fill-opacity="1">0.5</text><text fill="rgb(37,37,37)" stroke="none" font-family="geogebra-sans-serif, sans-serif" font-size="12px" font-style="normal" font-weight="normal" text-decoration="normal" x="759" y="273" text-anchor="start" dominant-baseline="alphabetic" fill-opacity="1">0.6</text><text fill="none" stroke="rgb(255,255,255)" font-family="geogebra-sans-serif, sans-serif" font-size="12px" font-style="normal" font-weight="normal" text-decoration="normal" x="759" y="273" text-anchor="start" dominant-baseline="alphabetic" stroke-opacity="1" stroke-linejoin="bevel" stroke-miterlimit="10" stroke-width="3">0.6</text><text fill="rgb(37,37,37)" stroke="none" font-family="geogebra-sans-serif, sans-serif" font-size="12px" font-style="normal" font-weight="normal" text-decoration="normal" x="759" y="273" text-anchor="start" dominant-baseline="alphabetic" fill-opacity="1">0.6</text><text fill="rgb(37,37,37)" stroke="none" font-family="geogebra-sans-serif, sans-serif" font-size="12px" font-style="normal" font-weight="normal" text-decoration="normal" x="810" y="273" text-anchor="start" dominant-baseline="alphabetic" fill-opacity="1">0.7</text><text fill="none" stroke="rgb(255,255,255)" font-family="geogebra-sans-serif, sans-serif" font-size="12px" font-style="normal" font-weight="normal" text-decoration="normal" x="810" y="273" text-anchor="start" dominant-baseline="alphabetic" stroke-opacity="1" stroke-linejoin="bevel" stroke-miterlimit="10" stroke-width="3">0.7</text><text fill="rgb(37,37,37)" stroke="none" font-family="geogebra-sans-serif, sans-serif" font-size="12px" font-style="normal" font-weight="normal" text-decoration="normal" x="810" y="273" text-anchor="start" dominant-baseline="alphabetic" fill-opacity="1">0.7</text><text fill="rgb(37,37,37)" stroke="none" font-family="geogebra-sans-serif, sans-serif" font-size="12px" font-style="normal" font-weight="normal" text-decoration="normal" x="861" y="273" text-anchor="start" dominant-baseline="alphabetic" fill-opacity="1">0.8</text><text fill="none" stroke="rgb(255,255,255)" font-family="geogebra-sans-serif, sans-serif" font-size="12px" font-style="normal" font-weight="normal" text-decoration="normal" x="861" y="273" text-anchor="start" dominant-baseline="alphabetic" stroke-opacity="1" stroke-linejoin="bevel" stroke-miterlimit="10" stroke-width="3">0.8</text><text fill="rgb(37,37,37)" stroke="none" font-family="geogebra-sans-serif, sans-serif" font-size="12px" font-style="normal" font-weight="normal" text-decoration="normal" x="861" y="273" text-anchor="start" dominant-baseline="alphabetic" fill-opacity="1">0.8</text><text fill="rgb(37,37,37)" stroke="none" font-family="geogebra-sans-serif, sans-serif" font-size="12px" font-style="normal" font-weight="normal" text-decoration="normal" x="440" y="462" text-anchor="start" dominant-baseline="alphabetic" fill-opacity="1">–4</text><text fill="none" stroke="rgb(255,255,255)" font-family="geogebra-sans-serif, sans-serif" font-size="12px" font-style="normal" font-weight="normal" text-decoration="normal" x="440" y="462" text-anchor="start" dominant-baseline="alphabetic" stroke-opacity="1" stroke-linejoin="bevel" stroke-miterlimit="10" stroke-width="3">–4</text><text fill="rgb(37,37,37)" stroke="none" font-family="geogebra-sans-serif, sans-serif" font-size="12px" font-style="normal" font-weight="normal" text-decoration="normal" x="440" y="462" text-anchor="start" dominant-baseline="alphabetic" fill-opacity="1">–4</text><text fill="rgb(37,37,37)" stroke="none" font-family="geogebra-sans-serif, sans-serif" font-size="12px" font-style="normal" font-weight="normal" text-decoration="normal" x="440" y="412" text-anchor="start" dominant-baseline="alphabetic" fill-opacity="1">–3</text><text fill="none" stroke="rgb(255,255,255)" font-family="geogebra-sans-serif, sans-serif" font-size="12px" font-style="normal" font-weight="normal" text-decoration="normal" x="440" y="412" text-anchor="start" dominant-baseline="alphabetic" stroke-opacity="1" stroke-linejoin="bevel" stroke-miterlimit="10" stroke-width="3">–3</text><text fill="rgb(37,37,37)" stroke="none" font-family="geogebra-sans-serif, sans-serif" font-size="12px" font-style="normal" font-weight="normal" text-decoration="normal" x="440" y="412" text-anchor="start" dominant-baseline="alphabetic" fill-opacity="1">–3</text><text fill="rgb(37,37,37)" stroke="none" font-family="geogebra-sans-serif, sans-serif" font-size="12px" font-style="normal" font-weight="normal" text-decoration="normal" x="440" y="362" text-anchor="start" dominant-baseline="alphabetic" fill-opacity="1">–2</text><text fill="none" stroke="rgb(255,255,255)" font-family="geogebra-sans-serif, sans-serif" font-size="12px" font-style="normal" font-weight="normal" text-decoration="normal" x="440" y="362" text-anchor="start" dominant-baseline="alphabetic" stroke-opacity="1" stroke-linejoin="bevel" stroke-miterlimit="10" stroke-width="3">–2</text><text fill="rgb(37,37,37)" stroke="none" font-family="geogebra-sans-serif, sans-serif" font-size="12px" font-style="normal" font-weight="normal" text-decoration="normal" x="440" y="362" text-anchor="start" dominant-baseline="alphabetic" fill-opacity="1">–2</text><text fill="rgb(37,37,37)" stroke="none" font-family="geogebra-sans-serif, sans-serif" font-size="12px" font-style="normal" font-weight="normal" text-decoration="normal" x="440" y="312" text-anchor="start" dominant-baseline="alphabetic" fill-opacity="1">–1</text><text fill="none" stroke="rgb(255,255,255)" font-family="geogebra-sans-serif, sans-serif" font-size="12px" font-style="normal" font-weight="normal" text-decoration="normal" x="440" y="312" text-anchor="start" dominant-baseline="alphabetic" stroke-opacity="1" stroke-linejoin="bevel" stroke-miterlimit="10" stroke-width="3">–1</text><text fill="rgb(37,37,37)" stroke="none" font-family="geogebra-sans-serif, sans-serif" font-size="12px" font-style="normal" font-weight="normal" text-decoration="normal" x="440" y="312" text-anchor="start" dominant-baseline="alphabetic" fill-opacity="1">–1</text><text fill="rgb(37,37,37)" stroke="none" font-family="geogebra-sans-serif, sans-serif" font-size="12px" font-style="normal" font-weight="normal" text-decoration="normal" x="446" y="212" text-anchor="start" dominant-baseline="alphabetic" fill-opacity="1">1</text><text fill="none" stroke="rgb(255,255,255)" font-family="geogebra-sans-serif, sans-serif" font-size="12px" font-style="normal" font-weight="normal" text-decoration="normal" x="446" y="212" text-anchor="start" dominant-baseline="alphabetic" stroke-opacity="1" stroke-linejoin="bevel" stroke-miterlimit="10" stroke-width="3">1</text><text fill="rgb(37,37,37)" stroke="none" font-family="geogebra-sans-serif, sans-serif" font-size="12px" font-style="normal" font-weight="normal" text-decoration="normal" x="446" y="212" text-anchor="start" dominant-baseline="alphabetic" fill-opacity="1">1</text><text fill="rgb(37,37,37)" stroke="none" font-family="geogebra-sans-serif, sans-serif" font-size="12px" font-style="normal" font-weight="normal" text-decoration="normal" x="446" y="162" text-anchor="start" dominant-baseline="alphabetic" fill-opacity="1">2</text><text fill="none" stroke="rgb(255,255,255)" font-family="geogebra-sans-serif, sans-serif" font-size="12px" font-style="normal" font-weight="normal" text-decoration="normal" x="446" y="162" text-anchor="start" dominant-baseline="alphabetic" stroke-opacity="1" stroke-linejoin="bevel" stroke-miterlimit="10" stroke-width="3">2</text><text fill="rgb(37,37,37)" stroke="none" font-family="geogebra-sans-serif, sans-serif" font-size="12px" font-style="normal" font-weight="normal" text-decoration="normal" x="446" y="162" text-anchor="start" dominant-baseline="alphabetic" fill-opacity="1">2</text><text fill="rgb(37,37,37)" stroke="none" font-family="geogebra-sans-serif, sans-serif" font-size="12px" font-style="normal" font-weight="normal" text-decoration="normal" x="446" y="112" text-anchor="start" dominant-baseline="alphabetic" fill-opacity="1">3</text><text fill="none" stroke="rgb(255,255,255)" font-family="geogebra-sans-serif, sans-serif" font-size="12px" font-style="normal" font-weight="normal" text-decoration="normal" x="446" y="112" text-anchor="start" dominant-baseline="alphabetic" stroke-opacity="1" stroke-linejoin="bevel" stroke-miterlimit="10" stroke-width="3">3</text><text fill="rgb(37,37,37)" stroke="none" font-family="geogebra-sans-serif, sans-serif" font-size="12px" font-style="normal" font-weight="normal" text-decoration="normal" x="446" y="112" text-anchor="start" dominant-baseline="alphabetic" fill-opacity="1">3</text><text fill="rgb(37,37,37)" stroke="none" font-family="geogebra-sans-serif, sans-serif" font-size="12px" font-style="normal" font-weight="normal" text-decoration="normal" x="446" y="62" text-anchor="start" dominant-baseline="alphabetic" fill-opacity="1">4</text><text fill="none" stroke="rgb(255,255,255)" font-family="geogebra-sans-serif, sans-serif" font-size="12px" font-style="normal" font-weight="normal" text-decoration="normal" x="446" y="62" text-anchor="start" dominant-baseline="alphabetic" stroke-opacity="1" stroke-linejoin="bevel" stroke-miterlimit="10" stroke-width="3">4</text><text fill="rgb(37,37,37)" stroke="none" font-family="geogebra-sans-serif, sans-serif" font-size="12px" font-style="normal" font-weight="normal" text-decoration="normal" x="446" y="62" text-anchor="start" dominant-baseline="alphabetic" fill-opacity="1">4</text><text fill="rgb(37,37,37)" stroke="none" font-family="geogebra-sans-serif, sans-serif" font-size="12px" font-style="normal" font-weight="normal" text-decoration="normal" x="446" y="273" text-anchor="start" dominant-baseline="alphabetic" fill-opacity="1">0</text><text fill="none" stroke="rgb(255,255,255)" font-family="geogebra-sans-serif, sans-serif" font-size="12px" font-style="normal" font-weight="normal" text-decoration="normal" x="446" y="273" text-anchor="start" dominant-baseline="alphabetic" stroke-opacity="1" stroke-linejoin="bevel" stroke-miterlimit="10" stroke-width="3">0</text><text fill="rgb(37,37,37)" stroke="none" font-family="geogebra-sans-serif, sans-serif" font-size="12px" font-style="normal" font-weight="normal" text-decoration="normal" x="446" y="273" text-anchor="start" dominant-baseline="alphabetic" fill-opacity="1">0</text><path fill="none" stroke="rgb(0,100,0)" paint-order="fill stroke markers" d=" M 0.5 173.65197040406986 L 0.5 178.14672815276805 L 0.5 173.6519704040699 L 1.5 169.20802106636097 L 1.5 169.20802106636097 L 2.5 164.81757298770765 L 2.5 164.8175729877077 L 3.5 160.48328659664278 L 3.5 160.4832865966428 L 4.5 156.20778829005923 L 4.5 156.20778829005926 L 5.5 151.99366884171923 L 5.5 151.99366884171926 L 6.499999999999943 147.8434818323559 L 6.499999999999943 147.84348183235596 L 7.5 143.7597421023087 L 7.5 143.75974210230876 L 8.5 139.7449242276371 L 8.5 139.74492422763714 L 9.5 135.80146102062727 L 9.5 135.8014610206273 L 10.5 131.9317420556116 L 10.5 131.93174205561166 L 11.5 128.13811222098568 L 11.5 128.13811222098573 L 12.5 124.42287029830294 L 12.5 124.422870298303 L 13.5 120.7882675693113 L 13.5 120.78826756931133 L 14.5 117.23650645176673 L 14.5 117.23650645176679 L 15.5 113.76973916486236 L 15.5 113.76973916486239 L 16.5 110.39006642507206 L 16.5 110.39006642507209 L 17.5 107.0995361732059 L 17.5 107.09953617320593 L 18.5 103.90014233344044 L 18.5 103.9001423334405 L 19.5 100.79382360508575 L 19.5 100.7938236050858 L 20.5 97.7824622878135 L 20.5 97.78246228781356 L 21.5 94.86788314106354 L 21.5 94.86788314106357 L 22.5 92.05185227831313 L 22.5 92.05185227831316 L 23.5 89.33607609688752 L 23.5 89.33607609688755 L 24.5 86.72220024395398 L 24.5 86.72220024395403 L 25.5 84.21180861932768 L 25.5 84.21180861932774 L 26.5 81.80642241569595 L 26.5 81.80642241569598 L 27.5 79.50749919683673 L 27.5 79.50749919683679 L 28.5 77.31643201439712 L 28.5 77.31643201439718 L 29.5 75.23454856376159 L 29.5 75.23454856376165 L 30.5 73.2631103795249 L 30.5 73.26311037952493 L 31.5 71.40331207105308 L 31.5 71.40331207105314 L 32.5 69.65628059860117 L 32.5 69.6562805986012 L 33.5 68.0230745904216 L 33.5 68.02307459042163 L 34.5 66.50468370128064 L 34.5 66.5046837012807 L 35.5 65.10202801276748 L 35.5 65.10202801276753 L 36.5 63.81595747576398 L 36.5 63.81595747576401 L 37.5 62.64725139540968 L 37.5 62.64725139540971 L 38.5 61.596617958875356 L 38.5 61.59661795887541 L 39.5 60.66469380623107 L 39.5 60.66469380623113 L 40.5 59.85204364466918 L 40.5 59.85204364466924 L 41.5 59.15915990631464 L 41.5 59.1591599063147 L 42.5 58.5864624498322 L 42.5 58.586462449832226 L 43.5 58.13429830600927 L 43.5 58.13429830600933 L 44.5 57.802941467470106 L 44.5 57.802941467470134 L 45.5 57.59259272264717 L 45.5 57.592592722647225 L 46.5 57.50337953411213 L 46.5 57.53535596133867 L 47.5 57.5 L 47.5 57.53535596133867 L 48.5 57.6885026279447 L 48.5 57.688502627944644 L 49.5 57.9627267334337 L 49.5 57.96272673343367 L 50.5 58.35786210942791 L 50.5 58.357862109427856 L 51.5 58.87366932035948 L 51.5 58.873669320359454 L 52.5 59.50983580855859 L 52.5 59.509835808558535 L 53.5 60.26597608364972 L 53.5 60.26597608364969 L 54.5 61.1416319561437 L 54.5 61.14163195614367 L 55.5 62.13627281508079 L 55.5 62.13627281508076 L 56.5 63.249295949559155 L 56.5 63.2492959495591 L 57.5 64.48002691395192 L 57.5 64.48002691395189 L 58.5 65.82771993659404 L 58.5 65.82771993659401 L 59.5 67.29155837168818 L 59.5 67.29155837168815 L 60.5 68.87065519415853 L 60.5 68.8706551941585 L 61.50000000000006 70.56405353714996 L 61.50000000000006 70.56405353714993 L 62.5 72.37072727185091 L 62.5 72.37072727185085 L 63.5 74.28958162928376 L 63.5 74.28958162928373 L 64.5 76.31945386368943 L 64.5 76.3194538636894 L 65.5 78.45911395710311 L 65.5 78.45911395710309 L 66.5 80.70726536469274 L 66.5 80.70726536469272 L 67.5 83.0625458004128 L 67.5 83.06254580041278 L 68.5 85.52352806249189 L 68.5 85.52352806249183 L 69.5 88.08872089825795 L 69.5 88.08872089825792 L 70.5 90.7565699077739 L 70.5 90.75656990777387 L 71.5 93.52545848574141 L 71.5 93.52545848574138 L 72.5 96.39370880109476 L 72.5 96.39370880109473 L 73.5 99.35958281369747 L 73.5 99.35958281369741 L 74.5 102.42128332752029 L 74.5 102.42128332752023 L 75.5 105.57695507966977 L 75.5 105.57695507966974 L 76.5 108.82468586459859 L 76.5 108.82468586459856 L 77.5 112.16250769282266 L 77.5 112.1625076928226 L 78.5 115.58839798344135 L 78.5 115.58839798344133 L 79.5 119.10028078973522 L 79.5 119.1002807897352 L 80.50000000000006 122.69602805710613 L 80.50000000000006 122.6960280571061 L 81.5 126.37346091258766 L 81.5 126.3734609125876 L 82.5 130.13035098515235 L 82.5 130.1303509851523 L 83.5 133.96442175600944 L 83.5 133.96442175600941 L 84.5 137.87334993808378 L 84.5 137.87334993808372 L 85.5 141.85476688382857 L 85.5 141.85476688382855 L 86.5 145.9062600205284 L 86.5 145.90626002052835 L 87.5 150.02537431221515 L 87.5 150.02537431221512 L 88.5 154.2096137473212 L 88.5 154.20961374732119 L 89.5 158.45644285115603 L 89.5 158.456442851156 L 90.5 162.7632882222992 L 90.5 162.7632882222992 L 91.5 167.1275400919721 L 91.5 167.1275400919721 L 92.5 171.5465539054527 L 92.5 171.5465539054527 L 93.5 176.01765192456295 L 93.5 176.01765192456293 L 94.5 180.53812485026717 L 94.5 180.53812485026714 L 95.5 185.1052334643943 L 95.5 185.10523346439427 L 96.5 189.71621028949068 L 96.5 189.71621028949062 L 97.5 194.36826126579322 L 97.5 194.3682612657932 L 98.5 199.0585674443174 L 98.5 199.05856744431736 L 99.50000000000006 203.78428669502054 L 99.50000000000006 203.7842866950205 L 100.5 208.5425554290124 L 100.5 208.5425554290124 L 101.5 213.33049033377458 L 101.5 213.33049033377455 L 102.5 218.14519012032503 L 102.5 218.14519012032503 L 103.5 222.9837372812797 L 103.5 222.98373728127967 L 104.5 227.84319985873753 L 104.5 227.8431998587375 L 105.5 232.72063322092893 L 105.5 232.7206332209289 L 106.5 237.61308184653714 L 106.5 237.61308184653714 L 107.5 242.51758111562168 L 107.5 242.51758111562168 L 108.5 247.43115910605434 L 108.5 247.43115910605434 L 109.5 252.35083839438093 L 109.5 252.35083839438093 L 110.5 257.27363786001297 L 110.5 257.27363786001297 L 111.5 262.1965744916666 L 111.5 262.1965744916666 L 112.5 267.1166651949404 L 112.5 267.1166651949404 L 113.5 272.03092859994786 L 113.5 272.03092859994786 L 114.5 276.93638686789984 L 114.5 276.9363868678998 L 115.5 281.8300674955555 L 115.5 281.8300674955555 L 116.50000000000006 286.7090051164333 L 116.50000000000006 286.7090051164332 L 117.5 291.57024329769683 L 117.5 291.5702432976968 L 118.50000000000006 296.4108363316347 L 118.50000000000006 296.4108363316347 L 119.5 301.2278510206335 L 119.5 301.2278510206335 L 120.5 306.01836845457416 L 120.5 306.0183684545741 L 121.5 310.7794857795694 L 121.5 310.7794857795694 L 122.5 315.50831795697366 L 122.5 315.50831795697366 L 123.5 320.20199951159265 L 123.5 320.2019995115926 L 124.5 324.85768626804656 L 124.5 324.85768626804656 L 125.5 329.472557074219 L 125.5 329.47255707421897 L 126.5 334.0438155107586 L 126.5 334.0438155107586 L 127.5 338.5686915855903 L 127.5 338.5686915855903 L 128.5 343.0444434124189 L 128.5 343.0444434124189 L 129.5 347.4683588721952 L 129.5 347.4683588721952 L 130.5 351.8377572565485 L 130.5 351.83775725654846 L 131.5 356.1499908921814 L 131.5 356.1499908921814 L 132.5 360.40244674525354 L 132.5 360.4024467452534 L 133.5 364.59254800476833 L 133.5 364.59254800476833 L 134.5 368.717755644014 L 134.5 368.717755644014 L 135.50000000000006 372.77556995910834 L 135.50000000000006 372.7755699591082 L 136.5 376.7635320837125 L 136.5 376.76353208371245 L 137.50000000000006 380.6792254790056 L 137.50000000000006 380.67922547900554 L 138.5 384.52027739800354 L 138.5 384.5202773980035 L 139.5 388.2843603233464 L 139.5 388.28436032334633 L 140.5 391.9691933776744 L 140.5 391.9691933776744 L 141.5 395.5725437057482 L 141.5 395.57254370574816 L 142.5 399.0922278274634 L 142.5 399.0922278274633 L 143.5 402.52611296094955 L 143.5 402.5261129609495 L 144.5 405.8721183149463 L 144.5 405.8721183149463 L 145.5 409.1282163496775 L 145.5 409.1282163496774 L 146.5 412.29243400545386 L 146.5 412.29243400545386 L 147.5 415.3628538982672 L 147.5 415.3628538982672 L 148.5 418.33761548164296 L 148.5 418.3376154816429 L 149.5 421.21491617405576 L 149.5 421.2149161740557 L 150.5 423.993012451217 L 150.5 423.99301245121694 L 151.5 426.6702209025792 L 151.5 426.6702209025792 L 152.5 429.24491925141217 L 152.5 429.24491925141206 L 153.5 431.715547337835 L 153.5 431.71554733783495 L 154.50000000000006 434.08060806420724 L 154.50000000000006 434.0806080642071 L 155.5 436.3386683023092 L 155.5 436.3386683023092 L 156.50000000000006 438.4883597617571 L 156.50000000000006 438.4883597617571 L 157.5 440.52837981912944 L 157.5 440.52837981912944 L 158.5 442.45749230730365 L 158.5 442.4574923073036 L 159.5 444.2745282645207 L 159.5 444.27452826452065 L 160.5 445.9783866427283 L 160.5 445.9783866427283 L 161.5 447.56803497476915 L 161.5 447.56803497476903 L 162.5 449.0425100000137 L 162.5 449.04251000001364 L 163.5 450.40091824805546 L 163.5 450.4009182480554 L 164.5 451.6424365801173 L 164.5 451.64243658011725 L 165.5 452.7663126878388 L 165.5 452.76631268783876 L 166.5 453.77186554914414 L 166.5 453.7718655491441 L 167.5 454.65848584091236 L 167.5 454.65848584091236 L 168.5 455.425636308203 L 168.5 455.425636308203 L 169.5 456.0728520898091 L 169.5 456.072852089809 L 170.5 456.59974099994406 L 170.5 456.599740999944 L 171.50000000000006 457.0059837658902 L 171.50000000000006 457.00598376589016 L 172.5 457.29133422146435 L 172.5 457.2913342214643 L 173.50000000000006 457.4556194561843 L 173.50000000000006 457.45561945618425 L 174.5 457.5 L 174.5 457.4987399200456 L 175.50000000000006 457.42066948384434 L 175.50000000000006 457.42066948384445 L 176.5 457.221455455011 L 176.5 457.2214554550111 L 177.5 456.90121854894323 L 177.5 456.9012185489433 L 178.5 456.4601528158581 L 178.5 456.4601528158582 L 179.5 455.8985255232054 L 179.5 455.8985255232055 L 180.5 455.2166769937148 L 180.5 455.2166769937148 L 181.5 454.41502039917424 L 181.5 454.4150203991743 L 182.5 453.4940415100657 L 182.5 453.49404151006576 L 183.5 452.45429840120767 L 183.5 452.4542984012077 L 184.5 451.2964211135857 L 184.5 451.2964211135858 L 185.5 450.0211112725735 L 185.5 450.02111127257353 L 186.5 448.62914166277744 L 186.5 448.62914166277744 L 187.5 447.12135575976095 L 187.5 447.12135575976095 L 188.5 445.4986672189341 L 188.5 445.4986672189341 L 189.5 443.7620593219157 L 189.5 443.7620593219157 L 190.50000000000006 441.9125843807061 L 190.50000000000006 441.9125843807062 L 191.5 439.9513631000305 L 191.5 439.95136310003056 L 192.5 437.8795838982372 L 192.5 437.87958389823723 L 193.5 435.6985021871668 L 193.5 435.6985021871668 L 194.50000000000006 433.40943961142426 L 194.50000000000006 433.4094396114243 L 195.5 431.01378324751863 L 195.5 431.01378324751875 L 196.49999999999994 428.5129847633507 L 196.49999999999994 428.5129847633507 L 197.5 425.90855953856357 L 197.5 425.9085595385636 L 198.5 423.202085746286 L 198.5 423.2020857462861 L 199.50000000000006 420.39520339682537 L 199.50000000000006 420.3952033968254 L 200.5 417.48961334388935 L 200.5 417.4896133438894 L 201.5 414.48707625393934 L 201.5 414.48707625393934 L 202.5 411.38941153930006 L 202.5 411.3894115393001 L 203.50000000000006 408.1984962556723 L 203.50000000000006 408.19849625567235 L 204.5 404.91626396471474 L 204.5 404.91626396471474 L 205.49999999999997 401.54470356238573 L 205.49999999999997 401.54470356238573 L 206.5 398.08585807375596 L 206.5 398.08585807375607 L 207.5 394.5418234150202 L 207.5 394.5418234150202 L 208.5 390.9147471234595 L 208.5 390.91474712345956 L 209.5 387.2068270561236 L 209.5 387.20682705612364 L 210.5 383.42031005801965 L 210.5 383.4203100580197 L 211.5 379.55749060061913 L 211.5 379.5574906006192 L 212.5 375.620709391504 L 212.5 375.6207093915041 L 213.5 371.6123519559939 L 213.5 371.612351955994 L 214.5 367.53484719161935 L 214.5 367.5348471916194 L 215.5 363.39066589630903 L 215.5 363.3906658963091 L 216.5 359.1823192711903 L 216.5 359.18231927119035 L 217.50000000000003 354.91235739890635 L 217.50000000000003 354.91235739890635 L 218.50000000000003 350.58336769837183 L 218.50000000000003 350.5833676983719 L 219.50000000000003 346.1979733569045 L 219.50000000000003 346.1979733569046 L 220.50000000000003 341.75883174068343 L 220.50000000000003 341.75883174068343 L 221.50000000000003 337.26863278449633 L 221.50000000000003 337.26863278449633 L 222.50000000000003 332.73009736175095 L 222.50000000000003 332.730097361751 L 223.5 328.1459756357384 L 223.5 328.1459756357384 L 224.5 323.5190453931493 L 224.5 323.5190453931493 L 225.5 318.8521103608518 L 225.5 318.85211036085184 L 226.5 314.1479985069489 L 226.5 314.14799850694897 L 227.5 309.4095603271475 L 227.5 309.4095603271476 L 228.5 304.6396671174774 L 228.5 304.6396671174774 L 229.5 299.841209234405 L 229.5 299.8412092344051 L 230.5 295.01709434339904 L 230.5 295.01709434339904 L 231.5 290.17024565700535 L 231.5 290.17024565700535 L 232.5 285.30360016350147 L 232.5 285.30360016350147 L 233.5 280.42010684720583 L 233.5 280.42010684720583 L 234.5 275.52272490151444 L 234.5 275.52272490151444 L 235.50000000000003 270.6144219357541 L 235.50000000000003 270.6144219357541 L 236.50000000000003 265.6981721769349 L 236.50000000000003 265.6981721769349 L 237.50000000000003 260.7769546674921 L 237.50000000000003 260.7769546674921 L 238.50000000000003 255.8537514601104 L 238.50000000000003 255.8537514601104 L 239.50000000000003 250.9315458107253 L 239.50000000000003 250.9315458107253 L 240.50000000000003 246.01332037079302 L 240.50000000000003 246.01332037079302 L 241.50000000000003 241.1020553799293 L 241.50000000000003 241.10205537992934 L 242.5 236.20072686000776 L 242.5 236.20072686000776 L 243.5 231.3123048118147 L 243.5 231.3123048118147 L 244.5 226.43975141535256 L 244.5 226.4397514153526 L 245.5 221.5860192348823 L 245.5 221.58601923488231 L 246.5 216.75404942979245 L 246.5 216.75404942979245 L 247.5 211.94676997237934 L 247.5 211.94676997237934 L 248.5 207.16709387361723 L 248.5 207.16709387361726 L 249.5 202.41791741799616 L 249.5 202.4179174179962 L 250.5 197.70211840849348 L 250.5 197.7021184084935 L 251.5 193.02255442274543 L 251.5 193.02255442274546 L 252.5 188.38206108147423 L 252.5 188.38206108147426 L 253.50000000000003 183.7834503302201 L 253.50000000000003 183.78345033022012 L 254.50000000000003 179.22950873541936 L 254.50000000000003 179.2295087354194 L 255.50000000000003 174.72299579586155 L 255.50000000000003 174.72299579586158 L 256.5 170.26664227054795 L 256.5 170.266642270548 L 257.5 165.8631485239656 L 257.5 165.86314852396566 L 258.5 161.51518288977894 L 258.5 161.51518288977894 L 259.5 157.22538005393068 L 259.5 157.22538005393073 L 260.5 152.9963394581324 L 260.5 152.99633945813247 L 261.5 148.8306237247104 L 261.5 148.83062372471045 L 262.5 144.73075710376423 L 262.5 144.73075710376426 L 263.5 140.69922394357593 L 263.5 140.699223943576 L 264.5 136.73846718519863 L 264.5 136.73846718519866 L 265.5 132.85088688213597 L 265.5 132.85088688213602 L 266.5 129.03883874600984 L 266.5 129.0388387460099 L 267.5 125.30463271909733 L 267.5 125.30463271909738 L 268.5 121.65053157460201 L 268.5 121.65053157460207 L 269.5 118.07874954550729 L 269.5 118.07874954550732 L 270.5 114.59145098284421 L 270.5 114.59145098284424 L 271.5 111.19074904418451 L 271.5 111.19074904418457 L 272.5 107.87870441315516 L 272.5 107.87870441315522 L 273.5 104.65732405075047 L 273.5 104.65732405075053 L 274.5 101.52855997919676 L 274.5 101.52855997919679 L 275.5 98.49430809910828 L 275.5 98.49430809910834 L 276.5 95.5564070406511 L 276.5 95.55640704065115 L 277.5 92.71663704940931 L 277.5 92.71663704940937 L 278.5 89.97671890763058 L 278.5 89.97671890763064 L 279.5 87.33831289150382 L 279.5 87.33831289150388 L 280.5 84.80301776510098 L 280.5 84.80301776510103 L 281.5 82.37236981159282 L 281.5 82.37236981159288 L 282.5 80.04784190232496 L 282.5 80.04784190232499 L 283.5 77.83084260431971 L 283.5 77.83084260431977 L 284.5 75.72271532674293 L 284.5 75.72271532674299 L 285.5 73.72473750685407 L 285.5 73.72473750685413 L 286.5 71.83811983593242 L 286.5 71.83811983593247 L 287.5 70.06400552564878 L 287.5 70.06400552564884 L 288.5 68.40346961532669 L 288.5 68.40346961532674 L 289.5 66.85751832051355 L 289.5 66.85751832051358 L 290.5 65.42708842325564 L 290.5 65.4270884232557 L 291.5 64.11304670444781 L 291.5 64.11304670444787 L 292.5 62.91618941859991 L 292.5 62.91618941859997 L 293.5 61.837241811339794 L 293.5 61.83724181133982 L 294.5 60.87685767994486 L 294.5 60.87685767994492 L 295.5 60.035618977168184 L 295.5 60.03561897716824 L 296.5 59.31403545859911 L 296.5 59.314035458599164 L 297.5 58.71254437377294 L 297.5 58.71254437377297 L 298.5 58.23151020121577 L 298.5 58.231510201215826 L 299.5 57.871224427585815 L 299.5 57.87122442758587 L 300.5 57.63190537104444 L 300.5 57.631905371044496 L 301.5 57.51369804896461 L 301.5 57.51667409005648 L 302.5 57.5 L 302.5 57.51667409005648 L 303.5 57.64083169096318 L 303.5 57.640831690963154 L 304.5 57.88609561735362 L 304.5 57.88609561735356 L 305.5 58.25231724951149 L 305.5 58.252317249511435 L 306.5 58.739274672392554 L 306.5 58.7392746723925 L 307.5 59.34667281009584 L 307.5 59.34667281009581 L 308.5 60.07414360466743 L 308.5 60.0741436046674 L 309.5 60.92124623912821 L 309.5 60.92124623912815 L 310.5 61.88746740459044 L 310.5 61.88746740459038 L 311.5 62.97222161130193 L 311.5 62.972221611301876 L 312.5 64.17485154342793 L 312.5 64.17485154342788 L 313.5 65.49462845735758 L 313.5 65.49462845735752 L 314.5 66.93075262329177 L 314.5 66.93075262329171 L 315.5 68.4823538098463 L 315.5 68.48235380984627 L 316.5 70.14849181137606 L 316.5 70.148491811376 L 317.5 71.92815701769962 L 317.5 71.92815701769956 L 318.5 73.820271025882 L 318.5 73.82027102588194 L 319.5 75.82368729370108 L 319.5 75.82368729370103 L 320.5 77.93719183440481 L 320.5 77.93719183440479 L 321.5 80.15950395233642 L 321.5 80.15950395233637 L 322.5 82.48927701898256 L 322.5 82.48927701898253 L 323.5 84.92509928897448 L 323.5 84.92509928897442 L 324.5 87.46549475554593 L 324.5 87.46549475554588 L 325.5 90.1089240449331 L 325.5 90.10892404493305 L 326.5 92.85378534916936 L 326.5 92.8537853491693 L 327.5 95.69841539671586 L 327.5 95.6984153967158 L 328.5 98.64109046033289 L 328.5 98.64109046033286 L 329.5 101.68002740158875 L 329.5 101.68002740158872 L 330.5 104.81338475136522 L 330.5 104.81338475136516 L 331.5 108.039263825713 L 331.5 108.03926382571294 L 332.5 111.35570987637371 L 332.5 111.35570987637368 L 333.5 114.76071327527646 L 333.5 114.76071327527643 L 334.5 118.25221073228855 L 334.5 118.25221073228852 L 335.5 121.82808654548319 L 335.5 121.82808654548313 L 336.5 125.48617388316728 L 336.5 125.48617388316723 L 337.5 129.22425609688972 L 337.5 129.2242560968897 L 338.5 133.04006806463983 L 338.5 133.04006806463977 L 339.5 136.93129756341528 L 339.5 136.93129756341523 L 340.5 140.8955866703339 L 340.5 140.89558667033384 L 341.5 144.93053319143553 L 341.5 144.93053319143547 L 342.5 149.03369211731314 L 342.5 149.03369211731308 L 343.5 153.20257710468496 L 343.5 153.2025771046849 L 344.5 157.43466198301573 L 344.5 157.4346619830157 L 345.5 161.72738228527055 L 345.5 161.72738228527055 L 346.5 166.0781368018749 L 346.5 166.0781368018749 L 347.5 170.48428915693995 L 347.5 170.4842891569399 L 348.5 174.94316940579466 L 348.5 174.94316940579466 L 349.5 179.45207565286358 L 349.5 179.45207565286356 L 350.5 184.0082756889001 L 350.5 184.00827568890008 L 351.5 188.6090086465942 L 351.5 188.6090086465942 L 352.5 193.25148667354014 L 352.5 193.25148667354011 L 353.5 197.93289662156144 L 353.5 197.93289662156144 L 354.5 202.65040175135957 L 354.5 202.65040175135954 L 355.5 207.40114345146026 L 355.5 207.40114345146026 L 356.5 212.1822429704138 L 356.5 212.18224297041377 L 357.5 216.9908031611963 L 357.5 216.9908031611963 L 358.5 221.82391023676286 L 358.5 221.82391023676286 L 359.5 226.6786355356781 L 359.5 226.6786355356781 L 360.5 231.55203729676577 L 360.5 231.55203729676577 L 361.5 236.44116244169066 L 361.5 236.44116244169066 L 362.5 241.34304836440353 L 362.5 241.34304836440353 L 363.5 246.254724726355 L 363.5 246.254724726355 L 364.5 251.17321525639775 L 364.5 251.17321525639775 L 365.5 256.0955395542827 L 365.5 256.0955395542827 L 366.5 261.01871489665695 L 366.5 261.01871489665695 L 367.5 265.9397580444709 L 367.5 265.9397580444709 L 368.5 270.85568705069505 L 368.5 270.855687050695 L 369.5 275.7635230672569 L 369.5 275.7635230672569 L 370.5 280.66029215009837 L 370.5 280.66029215009837 L 371.5 285.54302706126236 L 371.5 285.54302706126236 L 372.5 290.4087690669138 L 372.5 290.40876906691375 L 373.5 295.2545697302111 L 373.5 295.2545697302111 L 374.5 300.0774926979344 L 374.5 300.0774926979344 L 375.5 304.87461547979393 L 375.5 304.87461547979393 L 376.5 309.6430312193371 L 376.5 309.64303121933705 L 377.5 314.3798504553823 L 377.5 314.3798504553823 L 378.5 319.0822028729123 L 378.5 319.0822028729123 L 379.5 323.74723904236487 L 379.5 323.74723904236487 L 380.5 328.37213214626945 L 380.5 328.37213214626945 L 381.5 332.95407969217877 L 381.5 332.95407969217877 L 382.5 337.4903052108648 L 382.5 337.4903052108648 L 383.5 341.9780599387416 L 383.5 341.9780599387416 L 384.5 346.4146244835024 L 384.5 346.4146244835024 L 385.5 350.7973104719571 L 385.5 350.7973104719571 L 386.5 355.1234621790759 L 386.5 355.1234621790759 L 387.5 359.39045813724636 L 387.5 359.3904581372463 L 388.5 363.59571272477433 L 388.5 363.59571272477433 L 389.5 367.7366777326629 L 389.5 367.7366777326628 L 390.5 371.81084390872047 L 390.5 371.81084390872047 L 391.5 375.81574247806356 L 391.5 375.8157424780635 L 392.5 379.74894663909066 L 392.5 379.7489466390906 L 393.5 383.60807303402396 L 393.5 383.60807303402396 L 394.5 387.3907831931238 L 394.5 387.39078319312375 L 395.5 391.0947849517043 L 395.5 391.09478495170424 L 396.5 394.7178338390896 L 396.5 394.71783383908956 L 397.5 398.25773443866956 L 397.5 398.25773443866956 L 398.5 401.71234171823073 L 398.5 401.7123417182306 L 399.5 405.07956232975613 L 399.5 405.0795623297561 L 400.5 408.3573558779075 L 400.5 408.3573558779075 L 401.5 411.54373615641924 L 401.5 411.5437361564192 L 402.5 414.6367723516572 L 402.5 414.63677235165716 L 403.5 417.6345902126104 L 403.5 417.6345902126104 L 404.5 420.5353731866102 L 404.5 420.5353731866101 L 405.5 423.33736352008424 L 405.5 423.3373635200842 L 406.5 426.0388633236829 L 406.5 426.0388633236829 L 407.5 428.6382356011289 L 407.5 428.6382356011288 L 408.5 431.1339052411688 L 408.5 431.13390524116875 L 409.5 433.524359972025 L 409.5 433.52435997202497 L 410.5 435.8081512777694 L 410.5 435.8081512777694 L 411.5 437.98389527606355 L 411.5 437.98389527606344 L 412.5 440.05027355673343 L 412.5 440.0502735567334 L 413.5 442.00603398067165 L 413.5 442.00603398067165 L 414.5 443.84999143858124 L 414.5 443.8499914385812 L 415.5 445.5810285691023 L 415.5 445.5810285691022 L 416.5 447.19809643588655 L 416.5 447.1980964358865 L 417.5 448.7002151632093 L 417.5 448.70021516320924 L 418.5 450.086474529733 L 418.5 450.0864745297329 L 419.5 451.3560345200634 L 419.5 451.35603452006336 L 420.5 452.5081258337641 L 420.5 452.50812583376404 L 421.5 453.5420503515203 L 421.5 453.5420503515203 L 422.5 454.4571815581702 L 422.5 454.4571815581702 L 423.5 455.252964922347 L 423.5 455.252964922347 L 424.5 455.92891823250187 L 424.5 455.9289182325018 L 425.5 456.48463188910375 L 425.5 456.4846318891037 L 426.5 456.91976915284 L 426.5 456.91976915283993 L 427.5 457.23406634866603 L 427.5 457.23406634866603 L 428.5 457.4273330255819 L 428.5 457.42733302558185 L 429.5 457.49945207203695 L 429.5 457.45037978689516 L 430.5 457.5 L 430.5 457.45037978689516 L 431.5 457.28014590591584 L 431.5 457.2801459059159 L 432.5 456.98885358373525 L 432.5 456.9888535837353 L 433.5 456.57667933135906 L 433.5 456.57667933135906 L 434.5 456.04387290920386 L 434.5 456.04387290920386 L 435.5 455.39075717575315 L 435.5 455.3907571757532 L 436.5 454.6177278919183 L 436.5 454.61772789191843 L 437.5 453.72525348122406 L 437.5 453.7252534812241 L 438.5 452.71387474596315 L 438.5 452.71387474596315 L 439.5 451.584204539493 L 439.5 451.58420453949304 L 440.5 450.33692739487185 L 440.5 450.33692739487196 L 441.5 448.9727991100606 L 441.5 448.9727991100606 L 442.5 447.49264628994024 L 442.5 447.49264628994024 L 443.5 445.89736584542413 L 443.5 445.89736584542425 L 444.5 444.18792444996745 L 444.5 444.18792444996757 L 445.5 442.3653579538031 L 445.5 442.36535795380314 L 446.5 440.43077075625956 L 446.5 440.4307707562596 L 447.5 438.3853351365413 L 447.5 438.38533513654136 L 448.5 436.2302905433762 L 448.5 436.23029054337627 L 449.5 433.9669428439614 L 449.5 433.9669428439615 L 450.5 431.5966635326621 L 450.5 431.5966635326622 L 451.5 429.1208888999431 L 451.5 429.12088889994317 L 452.5 426.5411191620369 L 452.5 426.541119162037 L 453.5 423.8589175518749 L 453.5 423.8589175518749 L 454.5 421.0759093718336 L 454.5 421.07590937183363 L 455.5 418.19378100886894 L 455.5 418.193781008869 L 456.5 415.21427891263636 L 456.5 415.2142789126364 L 457.5 412.1392085372149 L 457.5 412.1392085372149 L 458.5 408.9704332470771 L 458.5 408.97043324707715 L 459.5 405.70987318796824 L 459.5 405.7098731879683 L 460.5 402.35950412337786 L 460.5 402.35950412337786 L 461.5 398.9213562373092 L 461.5 398.9213562373093 L 462.5 395.39751290407276 L 462.5 395.3975129040728 L 463.5 391.7901094258479 L 463.5 391.79010942584796 L 464.5 388.101331738779 L 464.5 388.101331738779 L 465.5 384.3334150883891 L 465.5 384.3334150883891 L 466.5 380.4886426751143 L 466.5 380.48864267511436 L 467.5 376.5693442707798 L 467.5 376.5693442707799 L 468.5 372.57789480685466 L 468.5 372.5778948068547 L 469.5 368.516712935343 L 469.5 368.516712935343 L 470.5 364.38825956318055 L 470.5 364.3882595631806 L 471.5 360.19503636102985 L 471.5 360.1950363610299 L 472.5 355.9395842473692 L 472.5 355.9395842473692 L 473.5 351.6244818488044 L 473.5 351.6244818488044 L 474.5 347.25234393752726 L 474.5 347.25234393752726 L 475.5 342.8258198468729 L 475.5 342.8258198468729 L 476.5 338.3475918659343 L 476.5 338.3475918659343 L 477.5 333.82037361420686 L 477.5 333.8203736142069 L 478.5 329.24690839724803 L 478.5 329.24690839724803 L 479.5 324.6299675443485 L 479.5 324.6299675443485 L 480.5 319.9723487292224 L 480.5 319.97234872922246 L 481.5 315.2768742747328 L 481.5 315.2768742747328 L 482.5 310.5463894426834 L 482.5 310.5463894426834 L 483.5 305.78376070970626 L 483.5 305.78376070970626 L 484.5 300.99187403029833 L 484.5 300.9918740302984 L 485.5 296.1736330880524 L 485.5 296.1736330880524 L 486.5 291.33195753614586 L 486.5 291.33195753614586 L 487.5 286.46978122815295 L 487.5 286.469781228153 L 488.5 281.5900504402516 L 488.5 281.5900504402516 L 489.5 276.69572208590273 L 489.5 276.69572208590273 L 490.5 271.7897619240841 L 490.5 271.7897619240841 L 491.5 266.8751427621642 L 491.5 266.8751427621642 L 492.5 261.9548426545039 L 492.5 261.9548426545039 L 493.5 257.0318430978817 L 493.5 257.0318430978817 L 494.5 252.10912722482811 L 494.5 252.10912722482811 L 495.5 247.18967799597482 L 495.5 247.18967799597482 L 496.5 242.27647639250185 L 496.5 242.27647639250185 L 497.5 237.37249960978954 L 497.5 237.37249960978954 L 498.5 232.48071925336106 L 498.5 232.48071925336106 L 499.5 227.6040995382137 L 499.5 227.6040995382137 L 500.5 222.74559549262796 L 500.5 222.74559549262798 L 501.5 217.90815116754382 L 501.5 217.90815116754385 L 502.5 213.09469785258852 L 502.5 213.09469785258852 L 503.5 208.30815229983648 L 503.5 208.30815229983648 L 504.5 203.551414956381 L 504.5 203.551414956381 L 505.5 198.82736820678178 L 505.5 198.8273682067818 L 506.5 194.13887462646204 L 506.5 194.13887462646207 L 507.5 189.48877524710605 L 507.5 189.48877524710608 L 508.5 184.8798878351127 L 508.5 184.8798878351127 L 509.5 180.3150051841464 L 509.5 180.31500518414643 L 510.5 175.79689342282066 L 510.5 175.7968934228207 L 511.5 171.3282903385393 L 511.5 171.32829033853932 L 512.5 166.9119037185115 L 512.5 166.9119037185115 L 513.5 162.55040970894572 L 513.5 162.55040970894572 L 514.5 158.2464511934159 L 514.5 158.2464511934159 L 515.5 154.00263619138588 L 515.5 154.0026361913859 L 516.5 149.82153627785596 L 516.5 149.821536277856 L 517.5 145.70568502509812 L 517.5 145.70568502509815 L 518.5 141.65757646741457 L 518.5 141.6575764674146 L 519.5 137.67966358985848 L 519.5 137.6796635898585 L 520.5 133.7743568418267 L 520.5 133.77435684182672 L 521.5 129.94402267642783 L 521.5 129.9440226764279 L 522.5 126.1909821165107 L 522.5 126.19098211651075 L 523.5 122.51750934822024 L 523.5 122.51750934822027 L 524.5 118.92583034293713 L 524.5 118.92583034293719 L 525.5 115.41812150843037 L 525.5 115.41812150843043 L 526.5 111.99650837004583 L 526.5 111.99650837004586 L 527.5 108.66306428272574 L 527.5 108.6630642827258 L 528.5 105.41980917464284 L 528.5 105.41980917464286 L 529.5 102.26870832320753 L 529.5 102.26870832320759 L 530.5 99.21167116419193 L 530.5 99.21167116419196 L 531.5 96.25055013469125 L 531.5 96.25055013469128 L 532.5 93.38713955062417 L 532.5 93.38713955062423 L 533.5 90.62317451945225 L 533.5 90.62317451945228 L 534.5 87.96032988877701 L 534.5 87.96032988877704 L 535.5 85.40021923145221 L 535.5 85.40021923145224 L 536.5 82.94439386782591 L 536.5 82.94439386782597 L 537.5 80.59434192570504 L 537.5 80.59434192570507 L 538.5 78.35148743861168 L 538.5 78.35148743861174 L 539.5 76.21718948287872 L 539.5 76.21718948287878 L 540.5 74.19274135410566 L 540.5 74.19274135410569 L 541.5 72.27936978347569 L 541.5 72.27936978347574 L 542.5 70.47823419440763 L 542.5 70.47823419440766 L 543.5 68.79042599999369 L 543.5 68.79042599999372 L 544.5 67.21696794164862 L 544.5 67.21696794164868 L 545.5 65.75881346937106 L 545.5 65.75881346937109 L 546.5 64.41684616399255 L 546.5 64.4168461639926 L 547.5 63.191879201764294 L 547.5 63.19187920176435 L 548.5 62.08465486160662 L 548.5 62.08465486160665 L 549.5 61.09584407531827 L 549.5 61.095844075318325 L 550.5 60.22604602102032 L 550.5 60.22604602102035 L 551.5 59.47578776007876 L 551.5 59.475787760078816 L 552.5 58.84552391772763 L 552.5 58.84552391772766 L 553.5 58.33563640758467 L 553.5 58.3356364075847 L 554.5 57.946434200228 L 554.5 57.946434200228055 L 555.5 57.67815313597259 L 555.5 57.67815313597265 L 556.5 57.530955781960955 L 556.5 57.530955781960984 L 557.5 57.5 L 557.5 57.50493133365407 L 558.5 57.60009556078296 L 558.5 57.60009556078293 L 559.5 57.81639079779251 L 559.5 57.81639079779245 L 560.5 58.15368597878475 L 560.5 58.153685978784694 L 561.5 58.61177671693906 L 561.5 58.61177671693903 L 562.5 59.190385428362276 L 562.5 59.19038542836222 L 563.5 59.889161500292744 L 563.5 59.88916150029269 L 564.5 60.70768150355721 L 564.5 60.70768150355718 L 565.5 61.64544944915119 L 565.5 61.64544944915113 L 566.5 62.70189708878755 L 566.5 62.70189708878752 L 567.5 63.876384259231514 L 567.5 63.87638425923146 L 568.5 65.1681992702126 L 568.5 65.16819927021257 L 569.5 66.57655933567949 L 569.5 66.57655933567943 L 570.5 68.10061104813565 L 570.5 68.10061104813559 L 571.5 69.73943089576866 L 571.5 69.73943089576863 L 572.5 71.49202582206004 L 572.5 71.49202582206001 L 573.5 73.35733382753597 L 573.5 73.35733382753591 L 574.5 75.33422461329468 L 574.5 75.33422461329465 L 575.5 77.42150026592066 L 575.5 77.4215002659206 L 576.5 79.61789598337 L 576.5 79.61789598336995 L 577.5 81.92208084138784 L 577.5 81.92208084138778 L 578.5 84.33265859999312 L 578.5 84.3326585999931 L 579.5 86.84816854954161 L 579.5 86.84816854954155 L 580.5 89.46708639585506 L 580.5 89.467086395855 L 581.5 92.1878251838802 L 581.5 92.18782518388014 L 582.5 95.00873625931698 L 582.5 95.00873625931695 L 583.5 97.92811026763476 L 583.5 97.92811026763474 L 584.5 100.94417818986946 L 584.5 100.9441781898694 L 585.5 104.05511241457569 L 585.5 104.05511241457563 L 586.5 107.25902784528293 L 586.5 107.25902784528287 L 587.5 110.55398304278557 L 587.5 110.55398304278552 L 588.5 113.9379814015739 L 588.5 113.93798140157386 L 589.5 117.40897235969402 L 589.5 117.40897235969396 L 590.5 120.96485264130274 L 590.5 120.96485264130268 L 591.5 124.60346753116539 L 591.5 124.60346753116536 L 592.5 128.32261218032312 L 592.5 128.3226121803231 L 593.5 132.12003294213957 L 593.5 132.12003294213952 L 594.5 135.99342873791673 L 594.5 135.9934287379167 L 595.5 139.94045245125304 L 595.5 139.940452451253 L 596.5 143.95871235029762 L 596.5 143.95871235029756 L 597.5 148.0457735370404 L 597.5 148.04577353704036 L 598.5 152.1991594227586 L 598.5 152.19915942275856 L 599.5 156.4163532287268 L 599.5 156.41635322872673 L 600.5 160.69479951127903 L 600.5 160.69479951127903 L 601.5 165.03190571030206 L 601.5 165.03190571030203 L 602.5 169.42504372021796 L 602.5 169.42504372021793 L 603.5 173.87155148250707 L 603.5 173.87155148250707 L 604.5 178.36873459880456 L 604.5 178.36873459880454 L 605.5 182.91386796359302 L 605.5 182.91386796359302 L 606.5 187.50419741550326 L 606.5 187.50419741550326 L 607.5 192.136941406221 L 607.5 192.13694140622098 L 608.5 196.80929268598965 L 608.5 196.80929268598965 L 609.5 201.5184200046861 L 609.5 201.51842000468608 L 610.5 206.26146982744064 L 610.5 206.26146982744064 L 611.5 211.03556806375994 L 611.5 211.03556806375994 L 612.5 215.83782180910652 L 612.5 215.83782180910652 L 613.5 220.6653210978777 L 613.5 220.66532109787767 L 614.5 225.51514066672382 L 614.5 225.51514066672382 L 615.5 230.3843417271359 L 615.5 230.38434172713588 L 616.5 235.269973746229 L 616.5 235.269973746229 L 617.5 240.169076234642 L 617.5 240.169076234642 L 618.5 245.07868054047074 L 618.5 245.07868054047074 L 619.5 249.99581164814794 L 619.5 249.99581164814794 L 620.5 254.91748998117725 L 620.5 254.91748998117725 L 621.5 259.840733207634 L 621.5 259.840733207634 L 622.5 264.7625580473332 L 622.5 264.7625580473332 L 623.5 269.679982079573 L 623.5 269.679982079573 L 624.5 274.59002555035744 L 624.5 274.59002555035744 L 625.5 279.4897131780033 L 625.5 279.4897131780033 L 626.5 284.3760759560363 L 626.5 284.37607595603623 L 627.5 289.2461529522862 L 627.5 289.2461529522862 L 628.5 294.0969931030873 L 628.5 294.09699310308724 L 629.5 298.9256570015004 L 629.5 298.9256570015004 L 630.5 303.72921867847106 L 630.5 303.729218678471 L 631.5 308.50476737584455 L 631.5 308.50476737584455 L 632.5 313.24940931016437 L 632.5 313.24940931016437 L 633.5 317.96026942618397 L 633.5 317.9602694261839 L 634.5 322.6344931390305 L 634.5 322.6344931390305 L 635.5 327.26924806396494 L 635.5 327.26924806396494 L 636.5 331.861725732688 L 636.5 331.861725732688 L 637.5 336.40914329515573 L 637.5 336.4091432951557 L 638.5 340.90874520587033 L 638.5 340.90874520587033 L 639.5 345.3578048936257 L 639.5 345.3578048936257 L 640.5 349.7536264136964 L 640.5 349.75362641369634 L 641.5 354.0935460814677 L 641.5 354.09354608146765 L 642.5 358.37493408651693 L 642.5 358.3749340865169 L 643.5 362.5951960861695 L 643.5 362.59519608616944 L 644.5 366.7517747775621 L 644.5 366.75177477756205 L 645.5 370.842151447262 L 645.5 370.8421514472619 L 646.5 374.863847497502 L 646.5 374.8638474975019 L 647.5 378.81442594810744 L 647.5 378.8144259481074 L 648.5 382.69149291320525 L 648.5 382.6914929132052 L 649.5 386.492699051818 L 649.5 386.4926990518179 L 650.5 390.21574099146716 L 650.5 390.2157409914671 L 651.5 393.8583627239208 L 651.5 393.8583627239208 L 652.5 397.41835697224053 L 652.5 397.4183569722405 L 653.5 400.8935665282992 L 653.5 400.8935665282991 L 654.5 404.28188555995916 L 654.5 404.2818855599591 L 655.5 407.5812608871188 L 655.5 407.5812608871187 L 656.5 410.7896932258543 L 656.5 410.78969322585425 L 657.5 413.9052383999018 L 657.5 413.9052383999018 L 658.5 416.9260085187477 L 658.5 416.9260085187477 L 659.5 419.85017312161153 L 659.5 419.85017312161153 L 660.5 422.6759602866287 L 660.5 422.67596028662865 L 661.5 425.4016577045613 L 661.5 425.4016577045612 L 662.5 428.02561371638643 L 662.5 428.0256137163864 L 663.5 430.54623831413244 L 663.5 430.5462383141324 L 664.5 432.96200410435745 L 664.5 432.96200410435745 L 665.5 435.27144723368644 L 665.5 435.27144723368644 L 666.5 437.47316827584496 L 666.5 437.4731682758449 L 667.5 439.5658330796533 L 667.5 439.56583307965326 L 668.5 441.54817357746674 L 668.5 441.5481735774666 L 669.5 443.4189885535713 L 669.5 443.41898855357124 L 670.5 445.17714437207064 L 670.5 445.17714437207053 L 671.5 446.82157566382193 L 671.5 446.82157566382193 L 672.5 448.3512859720056 L 672.5 448.35128597200554 L 673.5 449.7653483559359 L 673.5 449.7653483559359 L 674.5 451.06290595274913 L 674.5 451.06290595274913 L 675.5 452.24317249662636 L 675.5 452.24317249662624 L 676.5 453.3054327952375 L 676.5 453.3054327952375 L 677.5 454.2490431631189 L 677.5 454.2490431631188 L 678.5 455.073431811719 L 678.5 455.07343181171893 L 679.5 455.7780991958788 L 679.5 455.7780991958788 L 680.5 456.3626183165354 L 680.5 456.3626183165354 L 681.5 456.82663497946567 L 681.5 456.82663497946555 L 682.5 457.16986800991276 L 682.5 457.16986800991276 L 683.5 457.392109422967 L 683.5 457.392109422967 L 684.5 457.4932245495955 L 684.5 457.47315211824616 L 685.5 457.5 L 685.5 457.47315211824616 L 686.5 457.33190429197566 L 686.5 457.33190429197566 L 687.5 457.0695666610793 L 687.5 457.06956666107936 L 688.5 456.68629819122674 L 688.5 456.6862981912268 L 689.5 456.1823311271353 L 689.5 456.18233112713534 L 690.5 455.55797085183946 L 690.5 455.5579708518395 L 691.5 454.8135957016416 L 691.5 454.8135957016416 L 692.5 453.9496567368557 L 692.5 453.9496567368557 L 693.5 452.96667746848374 L 693.5 452.9666774684838 L 694.5 451.86525354099007 L 694.5 451.8652535409901 L 695.5 450.64605237136516 L 695.5 450.6460523713653 L 696.5 449.3098127446993 L 696.5 449.30981274469934 L 697.5 447.8573443665091 L 697.5 447.8573443665091 L 698.5 446.2895273720901 L 698.5 446.2895273720902 L 699.5 444.60731179319146 L 699.5 444.60731179319146 L 700.5 442.81171698233584 L 700.5 442.8117169823359 L 701.5 440.90383099513497 L 701.5 440.90383099513497 L 702.5 438.88480993097255 L 702.5 438.88480993097266 L 703.5 436.7558772324572 L 703.5 436.75587723245724 L 704.5 434.51832294406574 L 704.5 434.5183229440658 L 705.5 432.1735029304318 L 705.5 432.1735029304319 L 706.5 429.72283805474683 L 706.5 429.7228380547469 L 707.5 427.16781331777736 L 707.5 427.1678133177774 L 708.5 424.5099769580154 L 708.5 424.5099769580155 L 709.5 421.75093951351147 L 709.5 421.7509395135115 L 710.5 418.89237284595487 L 710.5 418.8923728459549 L 711.5 415.93600912759587 L 711.5 415.93600912759587 L 712.5 412.88363979162045 L 712.5 412.88363979162045 L 713.5 409.7371144466181 L 713.5 409.7371144466182 L 714.5 406.49833975579435 L 714.5 406.4983397557944 L 715.5 403.16927828161397 L 715.5 403.16927828161397 L 716.5 399.75194729656823 L 716.5 399.75194729656823 L 717.5 396.24841756079337 L 717.5 396.2484175607934 L 718.5 392.6608120672755 L 718.5 392.6608120672755 L 719.5 388.99130475540557 L 719.5 388.9913047554056 L 720.5 385.242119193662 L 720.5 385.24211919366206 L 721.5 381.4155272322225 L 721.5 381.41552723222253 L 722.5 377.513847626316 L 722.5 377.5138476263161 L 723.5 373.5394446311541 L 723.5 373.53944463115414 L 724.5 369.49472656929134 L 724.5 369.4947265692914 L 725.5 365.38214437128113 L 725.5 365.38214437128124 L 726.5 361.20419009051597 L 726.5 361.204190090516 L 727.5 356.9633953931441 L 727.5 356.96339539314414 L 728.5 352.66233002398843 L 728.5 352.66233002398843 L 729.5 348.30360024938557 L 729.5 348.30360024938557 L 730.5 343.88984727789887 L 730.5 343.8898472778989 L 731.5 339.4237456598555 L 731.5 339.4237456598555 L 732.5 334.90800166668043 L 732.5 334.9080016666805 L 733.5 330.3453516510083 L 733.5 330.3453516510083 L 734.5 325.73856038856917 L 734.5 325.7385603885692 L 735.5 321.09041940284766 L 735.5 321.0904194028477 L 736.5 316.4037452735384 L 736.5 316.40374527353845 L 737.5 311.6813779298137 L 737.5 311.6813779298137 L 738.5 306.92617892944656 L 738.5 306.9261789294466 L 739.5 302.141029724826 L 739.5 302.141029724826 L 740.5 297.3288299169152 L 740.5 297.3288299169152 L 741.5 292.4924954982166 L 741.5 292.49249549821667 L 742.5 287.63495708579984 L 742.5 287.63495708579984 L 743.5 282.7591581454719 L 743.5 282.75915814547193 L 744.5 277.8680532081575 L 744.5 277.86805320815756 L 745.5 272.9646060795785 L 745.5 272.9646060795785 L 746.5 268.0517880443092 L 746.5 268.0517880443092 L 747.5 263.1325760653041 L 747.5 263.1325760653041 L 748.5 258.20995097997957 L 748.5 258.20995097997957 L 749.5 253.2868956939536 L 749.5 253.2868956939536 L 750.5 248.36639337352673 L 750.5 248.36639337352673 L 751.5 243.45142563800934 L 751.5 243.45142563800934 L 752.5 238.54497075298391 L 752.5 238.54497075298391 L 753.5 233.65000182560058 L 753.5 233.65000182560058 L 754.5 228.76948500299713 L 754.5 228.76948500299716 L 755.5 223.90637767493956 L 755.5 223.90637767493956 L 756.5 219.06362668176433 L 756.5 219.06362668176433 L 757.5 214.24416652871872 L 757.5 214.24416652871875 L 758.5 209.45091760777123 L 758.5 209.45091760777126 L 759.5 204.68678442797565 L 759.5 204.68678442797568 L 760.5 199.95465385546146 L 760.5 199.95465385546146 L 761.5 195.25739336411064 L 761.5 195.25739336411067 L 762.5 190.59784929799093 L 762.5 190.59784929799096 L 763.5 185.978845146587 L 763.5 185.97884514658705 L 764.5 181.40317983388638 L 764.5 181.40317983388638 L 765.5 176.87362602234555 L 765.5 176.87362602234558 L 766.5 172.39292843277423 L 766.5 172.39292843277428 L 767.5 167.9638021811472 L 767.5 167.96380218114723 L 768.5 163.58893113335915 L 768.5 163.58893113335915 L 769.5 159.2709662789114 L 769.5 159.27096627891143 L 770.5 155.01252412452538 L 770.5 155.01252412452544 L 771.5 150.81618510864618 L 771.5 150.81618510864624 L 772.5 146.6844920378062 L 772.5 146.68449203780622 L 773.5 142.61994854578944 L 773.5 142.6199485457895 L 774.5 138.62501757653433 L 774.5 138.62501757653436 L 775.5 134.70211989169144 L 775.5 134.7021198916915 L 776.5 130.85363260374424 L 776.5 130.8536326037443 L 777.5 127.08188773557723 L 777.5 127.08188773557728 L 778.5 123.38917080736653 L 778.5 123.38917080736655 L 779.5 119.7777194516514 L 779.5 119.77771945165145 L 780.5 116.24972205742085 L 780.5 116.24972205742091 L 781.5 112.80731644404267 L 781.5 112.80731644404273 L 782.5 109.452588565832 L 782.5 109.45258856583206 L 783.5 106.18757124805208 L 783.5 106.18757124805211 L 784.5 103.01424295510483 L 784.5 103.01424295510486 L 785.5 99.9345265916659 L 785.5 99.93452659166593 L 786.5 96.95028833748268 L 786.5 96.95028833748273 L 787.5 94.06333651654873 L 787.5 94.06333651654876 L 788.5 91.27542050133354 L 788.5 91.27542050133357 L 789.5 88.58822965273708 L 789.5 88.58822965273711 L 790.5 86.00339229640596 L 790.5 86.00339229640602 L 791.5 83.5224747360376 L 791.5 83.52247473603762 L 792.5 81.14698030426374 L 792.5 81.14698030426376 L 793.5 78.87834845169516 L 793.5 78.87834845169519 L 794.5 76.7179538746737 L 794.5 76.71795387467375 L 795.5 74.66710568226358 L 795.5 74.66710568226364 L 796.5 72.72704660298606 L 796.5 72.72704660298609 L 797.5 70.89895223177774 L 797.5 70.89895223177777 L 798.5 69.18393031762932 L 798.5 69.18393031762938 L 799.5 67.5830200923352 L 799.5 67.58302009233526 L 800.5 66.09719164076313 L 800.5 66.09719164076319 L 801.5 64.72734531302237 L 801.5 64.72734531302243 L 802.5 63.474311178889906 L 802.5 63.47431117888996 L 803.5 62.338848524822026 L 803.5 62.33884852482208 L 804.5 61.32164539385897 L 804.5 61.32164539385903 L 805.5 60.42331816869901 L 805.5 60.42331816869907 L 806.5 59.644411198196735 L 806.5 59.64441119819679 L 807.5 58.985396467509815 L 807.5 58.98539646750987 L 808.5 58.44667331209615 L 808.5 58.44667331209618 L 809.5 58.02856817573286 L 809.5 58.028568175732914 L 810.5 57.731334412705166 L 810.5 57.731334412705195 L 811.5 57.555152134284185 L 811.5 57.55515213428424 L 812.5 57.5 L 812.5 57.500128099587045 L 813.5 57.56629565088531 L 813.5 57.56629565088528 L 814.5 57.753614693400806 L 814.5 57.75361469340075 L 815.5 58.06197171960156 L 815.5 58.06197171960153 L 816.5 58.491179877982745 L 816.5 58.49117987798269 L 817.5 59.040979086290434 L 817.5 59.04097908629038 L 818.5 59.71103618912116 L 818.5 59.7110361891211 L 819.5 60.50094515979984 L 819.5 60.500945159799784 L 820.5 61.41022734641527 L 820.5 61.41022734641521 L 821.5 62.43833176186277 L 821.5 62.43833176186271 L 822.5 63.58463541772002 L 822.5 63.584635417719966 L 823.5 64.8484437017517 L 823.5 64.84844370175165 L 824.5 66.22899079881563 L 824.5 66.2289907988156 L 825.5 67.72544015491485 L 825.5 67.72544015491479 L 826.5 69.33688498411465 L 826.5 69.33688498411459 L 827.5 71.06234881801615 L 827.5 71.06234881801609 L 828.5 72.90078609745686 L 828.5 72.9007860974568 L 829.5 74.85108280607503 L 829.5 74.85108280607497 L 830.5 76.91205714535764 L 830.5 76.91205714535758 L 831.5 79.0824602507598 L 831.5 79.08246025075974 L 832.5 81.36097694846649 L 832.5 81.36097694846643 L 833.5 83.74622655233216 L 833.5 83.7462265523321 L 834.5 86.23676370051794 L 834.5 86.23676370051788 L 835.5 88.83107923132272 L 835.5 88.83107923132269 L 836.5 91.52760109767084 L 836.5 91.52760109767081 L 837.5 94.3246953197075 L 837.5 94.32469531970744 L 838.5 97.22066697492232 L 838.5 97.22066697492227 L 839.5 100.21376122520232 L 839.5 100.21376122520226 L 840.5 103.30216438018886 L 840.5 103.30216438018883 L 841.5 106.484004996301 L 841.5 106.48400499630097 L 842.5 109.75735501075053 L 842.5 109.75735501075047 L 843.5 113.12023090986864 L 843.5 113.12023090986861 L 844.5 116.57059493103063 L 844.5 116.5705949310306 L 845.5 120.10635629745789 L 845.5 120.10635629745786 L 846.5 123.72537248513967 L 846.5 123.72537248513962 L 847.5 127.42545052111424 L 847.5 127.42545052111419 L 848.5 131.20434831231702 L 848.5 131.204348312317 L 849.5 135.0597760041988 L 849.5 135.05977600419874 L 850.5 138.98939736827987 L 850.5 138.9893973682798 L 851.5 142.99083121780768 L 851.5 142.99083121780762 L 852.5 147.06165285065742 L 852.5 147.06165285065737 L 853.5 151.19939551859807 L 853.5 151.199395518598 L 854.5 155.40155192204236 L 854.5 155.40155192204233 L 855.5 159.66557572936375 L 855.5 159.66557572936375 L 856.5 163.98888311986832 L 856.5 163.98888311986832 L 857.5 168.36885434947985 L 857.5 168.36885434947982 L 858.5 172.80283533819932 L 858.5 172.80283533819932 L 859.5 177.28813927836444 L 859.5 177.28813927836438 L 860.5 181.8220482627441 L 860.5 181.82204826274406 L 861.5 186.4018149314744 L 861.5 186.4018149314744 L 862.5 191.02466413684826 L 862.5 191.02466413684823 L 863.5 195.68779462493632 L 863.5 195.68779462493632 L 864.5 200.38838073303168 L 864.5 200.38838073303168 L 865.5 205.12357410188088 L 865.5 205.12357410188088 L 866.5 209.89050540167497 L 866.5 209.89050540167494 L 867.5 214.68628607074106 L 867.5 214.68628607074103 L 868.5 219.50801006589097 L 868.5 219.50801006589097 L 869.5 224.35275562336304 L 869.5 224.352755623363 L 870.5 229.21758702928622 L 870.5 229.21758702928622 L 871.5 234.09955639860473 L 871.5 234.09955639860473 L 872.5 238.99570546137056 L 872.5 238.99570546137056 L 873.5 243.90306735533318 L 873.5 243.90306735533318 L 874.5 248.81866842373168 L 874.5 248.81866842373168 L 875.5 253.7395300172109 L 875.5 253.7395300172109 L 876.5 258.66267029875615 L 876.5 258.66267029875615 L 877.5 263.5851060505634 L 877.5 263.5851060505634 L 878.5 268.5038544817421 L 878.5 268.5038544817421 L 879.5 273.41593503576655 L 879.5 273.41593503576655 L 880.5 278.3183711965658 L 880.5 278.3183711965658 L 881.5 283.20819229216943 L 881.5 283.20819229216943 L 882.5 288.0824352948105 L 882.5 288.0824352948105 L 883.5 292.9381466163979 L 883.5 292.9381466163979 L 884.5 297.7723838982646 L 884.5 297.7723838982646 L 885.5 302.5822177941188 L 885.5 302.5822177941188 L 886.5 307.36473374510325 L 886.5 307.36473374510325 L 887.5 312.1170337458948 L 887.5 312.11703374589473 L 888.5 316.8362381007785 L 888.5 316.8362381007785 L 889.5 321.5194871686207 L 889.5 321.5194871686207 L 890.5 326.16394309569387 L 890.5 326.1639430956938 L 891.5 330.7667915352945" stroke-opacity="0.6980392156862745" stroke-linecap="round" stroke-linejoin="round" stroke-miterlimit="10" stroke-width="2.5"/></g></g></svg>