<svg version="1.1" xmlns="http://www.w3.org/2000/svg" xmlns:xlink="http://www.w3.org/1999/xlink" width="891" height="515"><defs><clipPath id="izDRaPlTLPeQ"><path fill="none" stroke="none" d=" M 0 0 L 891 0 L 891 515 L 0 515 L 0 0 Z"/></clipPath></defs><g transform="scale(1,1)" clip-path="url(#izDRaPlTLPeQ)"><g><rect fill="rgb(255,255,255)" stroke="none" x="0" y="0" width="892" height="515" fill-opacity="1"/><path fill="none" stroke="rgb(192,192,192)" paint-order="fill stroke markers" d=" M 2.5 0.5 L 2.5 515.5 M 2.5 0.5 L 2.5 515.5 M 53.5 0.5 L 53.5 515.5 M 104.5 0.5 L 104.5 515.5 M 155.5 0.5 L 155.5 515.5 M 206.5 0.5 L 206.5 515.5 M 257.5 0.5 L 257.5 515.5 M 308.5 0.5 L 308.5 515.5 M 359.5 0.5 L 359.5 515.5 M 410.5 0.5 L 410.5 515.5 M 512.5 0.5 L 512.5 515.5 M 563.5 0.5 L 563.5 515.5 M 614.5 0.5 L 614.5 515.5 M 665.5 0.5 L 665.5 515.5 M 716.5 0.5 L 716.5 515.5 M 767.5 0.5 L 767.5 515.5 M 818.5 0.5 L 818.5 515.5 M 869.5 0.5 L 869.5 515.5" stroke-opacity="1" stroke-linecap="round" stroke-linejoin="round" stroke-miterlimit="10"/><path fill="none" stroke="rgb(192,192,192)" paint-order="fill stroke markers" d=" M 12.5 0.5 L 12.5 515.5 M 22.5 0.5 L 22.5 515.5 M 32.5 0.5 L 32.5 515.5 M 42.5 0.5 L 42.5 515.5 M 63.5 0.5 L 63.5 515.5 M 73.5 0.5 L 73.5 515.5 M 83.5 0.5 L 83.5 515.5 M 93.5 0.5 L 93.5 515.5 M 114.5 0.5 L 114.5 515.5 M 124.5 0.5 L 124.5 515.5 M 134.5 0.5 L 134.5 515.5 M 145.5 0.5 L 145.5 515.5 M 165.5 0.5 L 165.5 515.5 M 175.5 0.5 L 175.5 515.5 M 185.5 0.5 L 185.5 515.5 M 196.5 0.5 L 196.5 515.5 M 216.5 0.5 L 216.5 515.5 M 226.5 0.5 L 226.5 515.5 M 236.5 0.5 L 236.5 515.5 M 247.5 0.5 L 247.5 515.5 M 267.5 0.5 L 267.5 515.5 M 277.5 0.5 L 277.5 515.5 M 287.5 0.5 L 287.5 515.5 M 298.5 0.5 L 298.5 515.5 M 318.5 0.5 L 318.5 515.5 M 328.5 0.5 L 328.5 515.5 M 338.5 0.5 L 338.5 515.5 M 349.5 0.5 L 349.5 515.5 M 369.5 0.5 L 369.5 515.5 M 379.5 0.5 L 379.5 515.5 M 390.5 0.5 L 390.5 515.5 M 400.5 0.5 L 400.5 515.5 M 420.5 0.5 L 420.5 515.5 M 430.5 0.5 L 430.5 515.5 M 441.5 0.5 L 441.5 515.5 M 451.5 0.5 L 451.5 515.5 M 471.5 0.5 L 471.5 515.5 M 481.5 0.5 L 481.5 515.5 M 492.5 0.5 L 492.5 515.5 M 502.5 0.5 L 502.5 515.5 M 522.5 0.5 L 522.5 515.5 M 532.5 0.5 L 532.5 515.5 M 543.5 0.5 L 543.5 515.5 M 553.5 0.5 L 553.5 515.5 M 573.5 0.5 L 573.5 515.5 M 584.5 0.5 L 584.5 515.5 M 594.5 0.5 L 594.5 515.5 M 604.5 0.5 L 604.5 515.5 M 624.5 0.5 L 624.5 515.5 M 635.5 0.5 L 635.5 515.5 M 645.5 0.5 L 645.5 515.5 M 655.5 0.5 L 655.5 515.5 M 675.5 0.5 L 675.5 515.5 M 686.5 0.5 L 686.5 515.5 M 696.5 0.5 L 696.5 515.5 M 706.5 0.5 L 706.5 515.5 M 726.5 0.5 L 726.5 515.5 M 737.5 0.5 L 737.5 515.5 M 747.5 0.5 L 747.5 515.5 M 757.5 0.5 L 757.5 515.5 M 777.5 0.5 L 777.5 515.5 M 788.5 0.5 L 788.5 515.5 M 798.5 0.5 L 798.5 515.5 M 808.5 0.5 L 808.5 515.5 M 829.5 0.5 L 829.5 515.5 M 839.5 0.5 L 839.5 515.5 M 849.5 0.5 L 849.5 515.5 M 859.5 0.5 L 859.5 515.5 M 880.5 0.5 L 880.5 515.5 M 890.5 0.5 L 890.5 515.5" stroke-opacity="0.23529411764705882" stroke-linecap="round" stroke-linejoin="round" stroke-miterlimit="10"/><path fill="none" stroke="rgb(192,192,192)" paint-order="fill stroke markers" d=" M 0.5 7.5 L 891.5 7.5 M 0.5 7.5 L 891.5 7.5 M 0.5 57.5 L 891.5 57.5 M 0.5 107.5 L 891.5 107.5 M 0.5 157.5 L 891.5 157.5 M 0.5 207.5 L 891.5 207.5 M 0.5 307.5 L 891.5 307.5 M 0.5 357.5 L 891.5 357.5 M 0.5 407.5 L 891.5 407.5 M 0.5 457.5 L 891.5 457.5 M 0.5 507.5 L 891.5 507.5" stroke-opacity="1" stroke-linecap="round" stroke-linejoin="round" stroke-miterlimit="10"/><path fill="none" stroke="rgb(192,192,192)" paint-order="fill stroke markers" d=" M 0.5 7.5 L 891.5 7.5 M 0.5 17.5 L 891.5 17.5 M 0.5 27.5 L 891.5 27.5 M 0.5 37.5 L 891.5 37.5 M 0.5 47.5 L 891.5 47.5 M 0.5 67.5 L 891.5 67.5 M 0.5 77.5 L 891.5 77.5 M 0.5 87.5 L 891.5 87.5 M 0.5 97.5 L 891.5 97.5 M 0.5 117.5 L 891.5 117.5 M 0.5 127.5 L 891.5 127.5 M 0.5 137.5 L 891.5 137.5 M 0.5 147.5 L 891.5 147.5 M 0.5 167.5 L 891.5 167.5 M 0.5 177.5 L 891.5 177.5 M 0.5 187.5 L 891.5 187.5 M 0.5 197.5 L 891.5 197.5 M 0.5 217.5 L 891.5 217.5 M 0.5 227.5 L 891.5 227.5 M 0.5 237.5 L 891.5 237.5 M 0.5 247.5 L 891.5 247.5 M 0.5 267.5 L 891.5 267.5 M 0.5 277.5 L 891.5 277.5 M 0.5 287.5 L 891.5 287.5 M 0.5 297.5 L 891.5 297.5 M 0.5 317.5 L 891.5 317.5 M 0.5 327.5 L 891.5 327.5 M 0.5 337.5 L 891.5 337.5 M 0.5 347.5 L 891.5 347.5 M 0.5 367.5 L 891.5 367.5 M 0.5 377.5 L 891.5 377.5 M 0.5 387.5 L 891.5 387.5 M 0.5 397.5 L 891.5 397.5 M 0.5 417.5 L 891.5 417.5 M 0.5 427.5 L 891.5 427.5 M 0.5 437.5 L 891.5 437.5 M 0.5 447.5 L 891.5 447.5 M 0.5 467.5 L 891.5 467.5 M 0.5 477.5 L 891.5 477.5 M 0.5 487.5 L 891.5 487.5 M 0.5 497.5 L 891.5 497.5" stroke-opacity="0.23529411764705882" stroke-linecap="round" stroke-linejoin="round" stroke-miterlimit="10"/><path fill="none" stroke="rgb(37,37,37)" paint-order="fill stroke markers" d=" M 461.5 2.5 L 461.5 515.5" stroke-opacity="1" stroke-miterlimit="10"/><path fill="none" stroke="rgb(37,37,37)" paint-order="fill stroke markers" d=" M 461.5 1.5 L 457.5 5.5" stroke-opacity="1" stroke-miterlimit="10"/><path fill="none" stroke="rgb(37,37,37)" paint-order="fill stroke markers" d=" M 461.5 1.5 L 465.5 5.5" stroke-opacity="1" stroke-miterlimit="10"/><path fill="none" stroke="rgb(37,37,37)" paint-order="fill stroke markers" d=" M 0.5 257.5 L 889.5 257.5" stroke-opacity="1" stroke-miterlimit="10"/><path fill="none" stroke="rgb(37,37,37)" paint-order="fill stroke markers" d=" M 890.5 257.5 L 886.5 253.5" stroke-opacity="1" stroke-miterlimit="10"/><path fill="none" stroke="rgb(37,37,37)" paint-order="fill stroke markers" d=" M 890.5 257.5 L 886.5 261.5" stroke-opacity="1" stroke-miterlimit="10"/><text fill="rgb(37,37,37)" stroke="none" font-family="geogebra-sans-serif, sans-serif" font-size="12px" font-style="normal" font-weight="normal" text-decoration="normal" x="42" y="273" text-anchor="start" dominant-baseline="alphabetic" fill-opacity="1">–0.8</text><text fill="none" stroke="rgb(255,255,255)" font-family="geogebra-sans-serif, sans-serif" font-size="12px" font-style="normal" font-weight="normal" text-decoration="normal" x="42" y="273" text-anchor="start" dominant-baseline="alphabetic" stroke-opacity="1" stroke-linejoin="bevel" stroke-miterlimit="10" stroke-width="3">–0.8</text><text fill="rgb(37,37,37)" stroke="none" font-family="geogebra-sans-serif, sans-serif" font-size="12px" font-style="normal" font-weight="normal" text-decoration="normal" x="42" y="273" text-anchor="start" dominant-baseline="alphabetic" fill-opacity="1">–0.8</text><text fill="rgb(37,37,37)" stroke="none" font-family="geogebra-sans-serif, sans-serif" font-size="12px" font-style="normal" font-weight="normal" text-decoration="normal" x="93" y="273" text-anchor="start" dominant-baseline="alphabetic" fill-opacity="1">–0.7</text><text fill="none" stroke="rgb(255,255,255)" font-family="geogebra-sans-serif, sans-serif" font-size="12px" font-style="normal" font-weight="normal" text-decoration="normal" x="93" y="273" text-anchor="start" dominant-baseline="alphabetic" stroke-opacity="1" stroke-linejoin="bevel" stroke-miterlimit="10" stroke-width="3">–0.7</text><text fill="rgb(37,37,37)" stroke="none" font-family="geogebra-sans-serif, sans-serif" font-size="12px" font-style="normal" font-weight="normal" text-decoration="normal" x="93" y="273" text-anchor="start" dominant-baseline="alphabetic" fill-opacity="1">–0.7</text><text fill="rgb(37,37,37)" stroke="none" font-family="geogebra-sans-serif, sans-serif" font-size="12px" font-style="normal" font-weight="normal" text-decoration="normal" x="144" y="273" text-anchor="start" dominant-baseline="alphabetic" fill-opacity="1">–0.6</text><text fill="none" stroke="rgb(255,255,255)" font-family="geogebra-sans-serif, sans-serif" font-size="12px" font-style="normal" font-weight="normal" text-decoration="normal" x="144" y="273" text-anchor="start" dominant-baseline="alphabetic" stroke-opacity="1" stroke-linejoin="bevel" stroke-miterlimit="10" stroke-width="3">–0.6</text><text fill="rgb(37,37,37)" stroke="none" font-family="geogebra-sans-serif, sans-serif" font-size="12px" font-style="normal" font-weight="normal" text-decoration="normal" x="144" y="273" text-anchor="start" dominant-baseline="alphabetic" fill-opacity="1">–0.6</text><text fill="rgb(37,37,37)" stroke="none" font-family="geogebra-sans-serif, sans-serif" font-size="12px" font-style="normal" font-weight="normal" text-decoration="normal" x="195" y="273" text-anchor="start" dominant-baseline="alphabetic" fill-opacity="1">–0.5</text><text fill="none" stroke="rgb(255,255,255)" font-family="geogebra-sans-serif, sans-serif" font-size="12px" font-style="normal" font-weight="normal" text-decoration="normal" x="195" y="273" text-anchor="start" dominant-baseline="alphabetic" stroke-opacity="1" stroke-linejoin="bevel" stroke-miterlimit="10" stroke-width="3">–0.5</text><text fill="rgb(37,37,37)" stroke="none" font-family="geogebra-sans-serif, sans-serif" font-size="12px" font-style="normal" font-weight="normal" text-decoration="normal" x="195" y="273" text-anchor="start" dominant-baseline="alphabetic" fill-opacity="1">–0.5</text><text fill="rgb(37,37,37)" stroke="none" font-family="geogebra-sans-serif, sans-serif" font-size="12px" font-style="normal" font-weight="normal" text-decoration="normal" x="246" y="273" text-anchor="start" dominant-baseline="alphabetic" fill-opacity="1">–0.4</text><text fill="none" stroke="rgb(255,255,255)" font-family="geogebra-sans-serif, sans-serif" font-size="12px" font-style="normal" font-weight="normal" text-decoration="normal" x="246" y="273" text-anchor="start" dominant-baseline="alphabetic" stroke-opacity="1" stroke-linejoin="bevel" stroke-miterlimit="10" stroke-width="3">–0.4</text><text fill="rgb(37,37,37)" stroke="none" font-family="geogebra-sans-serif, sans-serif" font-size="12px" font-style="normal" font-weight="normal" text-decoration="normal" x="246" y="273" text-anchor="start" dominant-baseline="alphabetic" fill-opacity="1">–0.4</text><text fill="rgb(37,37,37)" stroke="none" font-family="geogebra-sans-serif, sans-serif" font-size="12px" font-style="normal" font-weight="normal" text-decoration="normal" x="297" y="273" text-anchor="start" dominant-baseline="alphabetic" fill-opacity="1">–0.3</text><text fill="none" stroke="rgb(255,255,255)" font-family="geogebra-sans-serif, sans-serif" font-size="12px" font-style="normal" font-weight="normal" text-decoration="normal" x="297" y="273" text-anchor="start" dominant-baseline="alphabetic" stroke-opacity="1" stroke-linejoin="bevel" stroke-miterlimit="10" stroke-width="3">–0.3</text><text fill="rgb(37,37,37)" stroke="none" font-family="geogebra-sans-serif, sans-serif" font-size="12px" font-style="normal" font-weight="normal" text-decoration="normal" x="297" y="273" text-anchor="start" dominant-baseline="alphabetic" fill-opacity="1">–0.3</text><text fill="rgb(37,37,37)" stroke="none" font-family="geogebra-sans-serif, sans-serif" font-size="12px" font-style="normal" font-weight="normal" text-decoration="normal" x="348" y="273" text-anchor="start" dominant-baseline="alphabetic" fill-opacity="1">–0.2</text><text fill="none" stroke="rgb(255,255,255)" font-family="geogebra-sans-serif, sans-serif" font-size="12px" font-style="normal" font-weight="normal" text-decoration="normal" x="348" y="273" text-anchor="start" dominant-baseline="alphabetic" stroke-opacity="1" stroke-linejoin="bevel" stroke-miterlimit="10" stroke-width="3">–0.2</text><text fill="rgb(37,37,37)" stroke="none" font-family="geogebra-sans-serif, sans-serif" font-size="12px" font-style="normal" font-weight="normal" text-decoration="normal" x="348" y="273" text-anchor="start" dominant-baseline="alphabetic" fill-opacity="1">–0.2</text><text fill="rgb(37,37,37)" stroke="none" font-family="geogebra-sans-serif, sans-serif" font-size="12px" font-style="normal" font-weight="normal" text-decoration="normal" x="399" y="273" text-anchor="start" dominant-baseline="alphabetic" fill-opacity="1">–0.1</text><text fill="none" stroke="rgb(255,255,255)" font-family="geogebra-sans-serif, sans-serif" font-size="12px" font-style="normal" font-weight="normal" text-decoration="normal" x="399" y="273" text-anchor="start" dominant-baseline="alphabetic" stroke-opacity="1" stroke-linejoin="bevel" stroke-miterlimit="10" stroke-width="3">–0.1</text><text fill="rgb(37,37,37)" stroke="none" font-family="geogebra-sans-serif, sans-serif" font-size="12px" font-style="normal" font-weight="normal" text-decoration="normal" x="399" y="273" text-anchor="start" dominant-baseline="alphabetic" fill-opacity="1">–0.1</text><text fill="rgb(37,37,37)" stroke="none" font-family="geogebra-sans-serif, sans-serif" font-size="12px" font-style="normal" font-weight="normal" text-decoration="normal" x="504" y="273" text-anchor="start" dominant-baseline="alphabetic" fill-opacity="1">0.1</text><text fill="none" stroke="rgb(255,255,255)" font-family="geogebra-sans-serif, sans-serif" font-size="12px" font-style="normal" font-weight="normal" text-decoration="normal" x="504" y="273" text-anchor="start" dominant-baseline="alphabetic" stroke-opacity="1" stroke-linejoin="bevel" stroke-miterlimit="10" stroke-width="3">0.1</text><text fill="rgb(37,37,37)" stroke="none" font-family="geogebra-sans-serif, sans-serif" font-size="12px" font-style="normal" font-weight="normal" text-decoration="normal" x="504" y="273" text-anchor="start" dominant-baseline="alphabetic" fill-opacity="1">0.1</text><text fill="rgb(37,37,37)" stroke="none" font-family="geogebra-sans-serif, sans-serif" font-size="12px" font-style="normal" font-weight="normal" text-decoration="normal" x="555" y="273" text-anchor="start" dominant-baseline="alphabetic" fill-opacity="1">0.2</text><text fill="none" stroke="rgb(255,255,255)" font-family="geogebra-sans-serif, sans-serif" font-size="12px" font-style="normal" font-weight="normal" text-decoration="normal" x="555" y="273" text-anchor="start" dominant-baseline="alphabetic" stroke-opacity="1" stroke-linejoin="bevel" stroke-miterlimit="10" stroke-width="3">0.2</text><text fill="rgb(37,37,37)" stroke="none" font-family="geogebra-sans-serif, sans-serif" font-size="12px" font-style="normal" font-weight="normal" text-decoration="normal" x="555" y="273" text-anchor="start" dominant-baseline="alphabetic" fill-opacity="1">0.2</text><text fill="rgb(37,37,37)" stroke="none" font-family="geogebra-sans-serif, sans-serif" font-size="12px" font-style="normal" font-weight="normal" text-decoration="normal" x="606" y="273" text-anchor="start" dominant-baseline="alphabetic" fill-opacity="1">0.3</text><text fill="none" stroke="rgb(255,255,255)" font-family="geogebra-sans-serif, sans-serif" font-size="12px" font-style="normal" font-weight="normal" text-decoration="normal" x="606" y="273" text-anchor="start" dominant-baseline="alphabetic" stroke-opacity="1" stroke-linejoin="bevel" stroke-miterlimit="10" stroke-width="3">0.3</text><text fill="rgb(37,37,37)" stroke="none" font-family="geogebra-sans-serif, sans-serif" font-size="12px" font-style="normal" font-weight="normal" text-decoration="normal" x="606" y="273" text-anchor="start" dominant-baseline="alphabetic" fill-opacity="1">0.3</text><text fill="rgb(37,37,37)" stroke="none" font-family="geogebra-sans-serif, sans-serif" font-size="12px" font-style="normal" font-weight="normal" text-decoration="normal" x="657" y="273" text-anchor="start" dominant-baseline="alphabetic" fill-opacity="1">0.4</text><text fill="none" stroke="rgb(255,255,255)" font-family="geogebra-sans-serif, sans-serif" font-size="12px" font-style="normal" font-weight="normal" text-decoration="normal" x="657" y="273" text-anchor="start" dominant-baseline="alphabetic" stroke-opacity="1" stroke-linejoin="bevel" stroke-miterlimit="10" stroke-width="3">0.4</text><text fill="rgb(37,37,37)" stroke="none" font-family="geogebra-sans-serif, sans-serif" font-size="12px" font-style="normal" font-weight="normal" text-decoration="normal" x="657" y="273" text-anchor="start" dominant-baseline="alphabetic" fill-opacity="1">0.4</text><text fill="rgb(37,37,37)" stroke="none" font-family="geogebra-sans-serif, sans-serif" font-size="12px" font-style="normal" font-weight="normal" text-decoration="normal" x="708" y="273" text-anchor="start" dominant-baseline="alphabetic" fill-opacity="1">0.5</text><text fill="none" stroke="rgb(255,255,255)" font-family="geogebra-sans-serif, sans-serif" font-size="12px" font-style="normal" font-weight="normal" text-decoration="normal" x="708" y="273" text-anchor="start" dominant-baseline="alphabetic" stroke-opacity="1" stroke-linejoin="bevel" stroke-miterlimit="10" stroke-width="3">0.5</text><text fill="rgb(37,37,37)" stroke="none" font-family="geogebra-sans-serif, sans-serif" font-size="12px" font-style="normal" font-weight="normal" text-decoration="normal" x="708" y="273" text-anchor="start" dominant-baseline="alphabetic" fill-opacity="1">0.5</text><text fill="rgb(37,37,37)" stroke="none" font-family="geogebra-sans-serif, sans-serif" font-size="12px" font-style="normal" font-weight="normal" text-decoration="normal" x="759" y="273" text-anchor="start" dominant-baseline="alphabetic" fill-opacity="1">0.6</text><text fill="none" stroke="rgb(255,255,255)" font-family="geogebra-sans-serif, sans-serif" font-size="12px" font-style="normal" font-weight="normal" text-decoration="normal" x="759" y="273" text-anchor="start" dominant-baseline="alphabetic" stroke-opacity="1" stroke-linejoin="bevel" stroke-miterlimit="10" stroke-width="3">0.6</text><text fill="rgb(37,37,37)" stroke="none" font-family="geogebra-sans-serif, sans-serif" font-size="12px" font-style="normal" font-weight="normal" text-decoration="normal" x="759" y="273" text-anchor="start" dominant-baseline="alphabetic" fill-opacity="1">0.6</text><text fill="rgb(37,37,37)" stroke="none" font-family="geogebra-sans-serif, sans-serif" font-size="12px" font-style="normal" font-weight="normal" text-decoration="normal" x="810" y="273" text-anchor="start" dominant-baseline="alphabetic" fill-opacity="1">0.7</text><text fill="none" stroke="rgb(255,255,255)" font-family="geogebra-sans-serif, sans-serif" font-size="12px" font-style="normal" font-weight="normal" text-decoration="normal" x="810" y="273" text-anchor="start" dominant-baseline="alphabetic" stroke-opacity="1" stroke-linejoin="bevel" stroke-miterlimit="10" stroke-width="3">0.7</text><text fill="rgb(37,37,37)" stroke="none" font-family="geogebra-sans-serif, sans-serif" font-size="12px" font-style="normal" font-weight="normal" text-decoration="normal" x="810" y="273" text-anchor="start" dominant-baseline="alphabetic" fill-opacity="1">0.7</text><text fill="rgb(37,37,37)" stroke="none" font-family="geogebra-sans-serif, sans-serif" font-size="12px" font-style="normal" font-weight="normal" text-decoration="normal" x="861" y="273" text-anchor="start" dominant-baseline="alphabetic" fill-opacity="1">0.8</text><text fill="none" stroke="rgb(255,255,255)" font-family="geogebra-sans-serif, sans-serif" font-size="12px" font-style="normal" font-weight="normal" text-decoration="normal" x="861" y="273" text-anchor="start" dominant-baseline="alphabetic" stroke-opacity="1" stroke-linejoin="bevel" stroke-miterlimit="10" stroke-width="3">0.8</text><text fill="rgb(37,37,37)" stroke="none" font-family="geogebra-sans-serif, sans-serif" font-size="12px" font-style="normal" font-weight="normal" text-decoration="normal" x="861" y="273" text-anchor="start" dominant-baseline="alphabetic" fill-opacity="1">0.8</text><text fill="rgb(37,37,37)" stroke="none" font-family="geogebra-sans-serif, sans-serif" font-size="12px" font-style="normal" font-weight="normal" text-decoration="normal" x="440" y="462" text-anchor="start" dominant-baseline="alphabetic" fill-opacity="1">–4</text><text fill="none" stroke="rgb(255,255,255)" font-family="geogebra-sans-serif, sans-serif" font-size="12px" font-style="normal" font-weight="normal" text-decoration="normal" x="440" y="462" text-anchor="start" dominant-baseline="alphabetic" stroke-opacity="1" stroke-linejoin="bevel" stroke-miterlimit="10" stroke-width="3">–4</text><text fill="rgb(37,37,37)" stroke="none" font-family="geogebra-sans-serif, sans-serif" font-size="12px" font-style="normal" font-weight="normal" text-decoration="normal" x="440" y="462" text-anchor="start" dominant-baseline="alphabetic" fill-opacity="1">–4</text><text fill="rgb(37,37,37)" stroke="none" font-family="geogebra-sans-serif, sans-serif" font-size="12px" font-style="normal" font-weight="normal" text-decoration="normal" x="440" y="412" text-anchor="start" dominant-baseline="alphabetic" fill-opacity="1">–3</text><text fill="none" stroke="rgb(255,255,255)" font-family="geogebra-sans-serif, sans-serif" font-size="12px" font-style="normal" font-weight="normal" text-decoration="normal" x="440" y="412" text-anchor="start" dominant-baseline="alphabetic" stroke-opacity="1" stroke-linejoin="bevel" stroke-miterlimit="10" stroke-width="3">–3</text><text fill="rgb(37,37,37)" stroke="none" font-family="geogebra-sans-serif, sans-serif" font-size="12px" font-style="normal" font-weight="normal" text-decoration="normal" x="440" y="412" text-anchor="start" dominant-baseline="alphabetic" fill-opacity="1">–3</text><text fill="rgb(37,37,37)" stroke="none" font-family="geogebra-sans-serif, sans-serif" font-size="12px" font-style="normal" font-weight="normal" text-decoration="normal" x="440" y="362" text-anchor="start" dominant-baseline="alphabetic" fill-opacity="1">–2</text><text fill="none" stroke="rgb(255,255,255)" font-family="geogebra-sans-serif, sans-serif" font-size="12px" font-style="normal" font-weight="normal" text-decoration="normal" x="440" y="362" text-anchor="start" dominant-baseline="alphabetic" stroke-opacity="1" stroke-linejoin="bevel" stroke-miterlimit="10" stroke-width="3">–2</text><text fill="rgb(37,37,37)" stroke="none" font-family="geogebra-sans-serif, sans-serif" font-size="12px" font-style="normal" font-weight="normal" text-decoration="normal" x="440" y="362" text-anchor="start" dominant-baseline="alphabetic" fill-opacity="1">–2</text><text fill="rgb(37,37,37)" stroke="none" font-family="geogebra-sans-serif, sans-serif" font-size="12px" font-style="normal" font-weight="normal" text-decoration="normal" x="440" y="312" text-anchor="start" dominant-baseline="alphabetic" fill-opacity="1">–1</text><text fill="none" stroke="rgb(255,255,255)" font-family="geogebra-sans-serif, sans-serif" font-size="12px" font-style="normal" font-weight="normal" text-decoration="normal" x="440" y="312" text-anchor="start" dominant-baseline="alphabetic" stroke-opacity="1" stroke-linejoin="bevel" stroke-miterlimit="10" stroke-width="3">–1</text><text fill="rgb(37,37,37)" stroke="none" font-family="geogebra-sans-serif, sans-serif" font-size="12px" font-style="normal" font-weight="normal" text-decoration="normal" x="440" y="312" text-anchor="start" dominant-baseline="alphabetic" fill-opacity="1">–1</text><text fill="rgb(37,37,37)" stroke="none" font-family="geogebra-sans-serif, sans-serif" font-size="12px" font-style="normal" font-weight="normal" text-decoration="normal" x="446" y="212" text-anchor="start" dominant-baseline="alphabetic" fill-opacity="1">1</text><text fill="none" stroke="rgb(255,255,255)" font-family="geogebra-sans-serif, sans-serif" font-size="12px" font-style="normal" font-weight="normal" text-decoration="normal" x="446" y="212" text-anchor="start" dominant-baseline="alphabetic" stroke-opacity="1" stroke-linejoin="bevel" stroke-miterlimit="10" stroke-width="3">1</text><text fill="rgb(37,37,37)" stroke="none" font-family="geogebra-sans-serif, sans-serif" font-size="12px" font-style="normal" font-weight="normal" text-decoration="normal" x="446" y="212" text-anchor="start" dominant-baseline="alphabetic" fill-opacity="1">1</text><text fill="rgb(37,37,37)" stroke="none" font-family="geogebra-sans-serif, sans-serif" font-size="12px" font-style="normal" font-weight="normal" text-decoration="normal" x="446" y="162" text-anchor="start" dominant-baseline="alphabetic" fill-opacity="1">2</text><text fill="none" stroke="rgb(255,255,255)" font-family="geogebra-sans-serif, sans-serif" font-size="12px" font-style="normal" font-weight="normal" text-decoration="normal" x="446" y="162" text-anchor="start" dominant-baseline="alphabetic" stroke-opacity="1" stroke-linejoin="bevel" stroke-miterlimit="10" stroke-width="3">2</text><text fill="rgb(37,37,37)" stroke="none" font-family="geogebra-sans-serif, sans-serif" font-size="12px" font-style="normal" font-weight="normal" text-decoration="normal" x="446" y="162" text-anchor="start" dominant-baseline="alphabetic" fill-opacity="1">2</text><text fill="rgb(37,37,37)" stroke="none" font-family="geogebra-sans-serif, sans-serif" font-size="12px" font-style="normal" font-weight="normal" text-decoration="normal" x="446" y="112" text-anchor="start" dominant-baseline="alphabetic" fill-opacity="1">3</text><text fill="none" stroke="rgb(255,255,255)" font-family="geogebra-sans-serif, sans-serif" font-size="12px" font-style="normal" font-weight="normal" text-decoration="normal" x="446" y="112" text-anchor="start" dominant-baseline="alphabetic" stroke-opacity="1" stroke-linejoin="bevel" stroke-miterlimit="10" stroke-width="3">3</text><text fill="rgb(37,37,37)" stroke="none" font-family="geogebra-sans-serif, sans-serif" font-size="12px" font-style="normal" font-weight="normal" text-decoration="normal" x="446" y="112" text-anchor="start" dominant-baseline="alphabetic" fill-opacity="1">3</text><text fill="rgb(37,37,37)" stroke="none" font-family="geogebra-sans-serif, sans-serif" font-size="12px" font-style="normal" font-weight="normal" text-decoration="normal" x="446" y="62" text-anchor="start" dominant-baseline="alphabetic" fill-opacity="1">4</text><text fill="none" stroke="rgb(255,255,255)" font-family="geogebra-sans-serif, sans-serif" font-size="12px" font-style="normal" font-weight="normal" text-decoration="normal" x="446" y="62" text-anchor="start" dominant-baseline="alphabetic" stroke-opacity="1" stroke-linejoin="bevel" stroke-miterlimit="10" stroke-width="3">4</text><text fill="rgb(37,37,37)" stroke="none" font-family="geogebra-sans-serif, sans-serif" font-size="12px" font-style="normal" font-weight="normal" text-decoration="normal" x="446" y="62" text-anchor="start" dominant-baseline="alphabetic" fill-opacity="1">4</text><text fill="rgb(37,37,37)" stroke="none" font-family="geogebra-sans-serif, sans-serif" font-size="12px" font-style="normal" font-weight="normal" text-decoration="normal" x="446" y="273" text-anchor="start" dominant-baseline="alphabetic" fill-opacity="1">0</text><text fill="none" stroke="rgb(255,255,255)" font-family="geogebra-sans-serif, sans-serif" font-size="12px" font-style="normal" font-weight="normal" text-decoration="normal" x="446" y="273" text-anchor="start" dominant-baseline="alphabetic" stroke-opacity="1" stroke-linejoin="bevel" stroke-miterlimit="10" stroke-width="3">0</text><text fill="rgb(37,37,37)" stroke="none" font-family="geogebra-sans-serif, sans-serif" font-size="12px" font-style="normal" font-weight="normal" text-decoration="normal" x="446" y="273" text-anchor="start" dominant-baseline="alphabetic" fill-opacity="1">0</text><path fill="none" stroke="rgb(0,0,255)" paint-order="fill stroke markers" d=" M 0.5 141.02444613129103 L 0.5 141.8819007363233 L 0.5 141.88190073632327 L 1.5 142.77876482083624 L 1.5 142.77876482083622 L 2.5 143.71473268055882 L 2.5 143.71473268055882 L 3.5 144.6894852823433 L 3.5 144.6894852823433 L 4.5 145.70269037290993 L 4.5 145.7026903729099 L 5.5 146.75400259209908 L 5.5 146.75400259209906 L 6.499999999999943 147.8430635905901 L 6.499999999999943 147.84306359059008 L 7.5 148.96950215204805 L 7.5 148.969502152048 L 8.5 150.13293431965582 L 8.5 150.13293431965576 L 9.5 151.33296352698972 L 9.5 151.3329635269897 L 10.5 152.56918073319267 L 10.5 152.56918073319264 L 11.5 153.8411645623994 L 11.5 153.84116456239934 L 12.5 155.14848144736635 L 12.5 155.1484814473663 L 13.5 156.49068577725652 L 13.5 156.4906857772565 L 14.5 157.86732004953083 L 14.5 157.8673200495308 L 15.5 159.2779150258915 L 15.5 159.27791502589145 L 16.5 160.7219898922258 L 16.5 160.7219898922258 L 17.5 162.1990524224969 L 17.5 162.19905242249683 L 18.5 163.70859914652283 L 18.5 163.70859914652277 L 19.5 165.2501155215888 L 19.5 165.25011552158878 L 20.5 166.82307610783448 L 20.5 166.82307610783445 L 21.5 168.42694474735424 L 21.5 168.42694474735418 L 22.5 170.0611747469519 L 22.5 170.0611747469519 L 23.5 171.7252090644855 L 23.5 171.72520906448545 L 24.5 173.41848049874102 L 24.5 173.41848049874102 L 25.5 175.14041188276713 L 25.5 175.1404118827671 L 26.5 176.89041628060858 L 26.5 176.89041628060858 L 27.5 178.66789718736845 L 27.5 178.66789718736842 L 28.5 180.47224873253157 L 28.5 180.47224873253154 L 29.5 182.30285588648212 L 29.5 182.30285588648206 L 30.5 184.15909467014126 L 30.5 184.15909467014123 L 31.5 186.04033236765656 L 31.5 186.04033236765653 L 32.5 187.94592774206814 L 32.5 187.9459277420681 L 33.5 189.8752312538814 L 33.5 189.87523125388134 L 34.5 191.82758528246688 L 34.5 191.82758528246688 L 35.5 193.80232435021787 L 35.5 193.80232435021784 L 36.5 195.79877534938328 L 36.5 195.79877534938328 L 37.5 197.81625777150327 L 37.5 197.81625777150325 L 38.5 199.8540839393658 L 38.5 199.85408393936578 L 39.5 201.91155924140907 L 39.5 201.91155924140907 L 40.5 203.9879823684846 L 40.5 203.98798236848458 L 41.5 206.08264555290617 L 41.5 206.08264555290617 L 42.5 208.19483480969825 L 42.5 208.19483480969825 L 43.5 210.32383017996435 L 43.5 210.32383017996432 L 44.5 212.46890597629118 L 44.5 212.46890597629118 L 45.5 214.62933103010624 L 45.5 214.62933103010621 L 46.5 216.80436894090343 L 46.5 216.8043689409034 L 47.5 218.99327832725146 L 47.5 218.99327832725146 L 48.5 221.19531307950083 L 48.5 221.1953130795008 L 49.5 223.40972261410116 L 49.5 223.40972261410113 L 50.5 225.63575212944588 L 50.5 225.63575212944588 L 51.5 227.8726428631517 L 51.5 227.8726428631517 L 52.5 230.1196323506909 L 52.5 230.1196323506909 L 53.5 232.37595468528363 L 53.5 232.37595468528363 L 54.5 234.6408407789645 L 54.5 234.6408407789645 L 55.5 236.91351862473246 L 55.5 236.91351862473243 L 56.5 239.19321355969754 L 56.5 239.1932135596975 L 57.5 241.4791485291312 L 57.5 241.4791485291312 L 58.5 243.77054435133186 L 58.5 243.77054435133186 L 59.5 246.06661998321727 L 59.5 246.06661998321727 L 60.5 248.36659278654955 L 60.5 248.36659278654955 L 61.50000000000006 250.66967879470383 L 61.50000000000006 250.66967879470383 L 62.5 252.97509297989183 L 62.5 252.97509297989183 L 63.5 255.28204952074492 L 63.5 255.28204952074492 L 64.5 257.58976207016786 L 64.5 257.58976207016786 L 65.5 259.89744402337396 L 65.5 259.89744402337396 L 66.5 262.2043087860046 L 66.5 262.2043087860046 L 67.5 264.5095700422487 L 67.5 264.5095700422487 L 68.5 266.81244202286456 L 68.5 266.81244202286456 L 69.5 269.1121397730172 L 69.5 269.1121397730172 L 70.5 271.40787941983604 L 70.5 271.40787941983604 L 71.5 273.6988784396071 L 71.5 273.6988784396071 L 72.5 275.98435592450113 L 72.5 275.98435592450113 L 73.5 278.2635328487549 L 73.5 278.2635328487549 L 74.5 280.5356323342084 L 74.5 280.53563233420834 L 75.5 282.799879915111 L 75.5 282.799879915111 L 76.5 285.05550380210445 L 76.5 285.05550380210445 L 77.5 287.30173514529594 L 77.5 287.30173514529594 L 78.5 289.53780829632547 L 78.5 289.53780829632547 L 79.5 291.76296106934586 L 79.5 291.76296106934586 L 80.50000000000006 293.97643500082 L 80.50000000000006 293.97643500082 L 81.5 296.1774756080493 L 81.5 296.1774756080493 L 82.5 298.3653326463476 L 82.5 298.3653326463476 L 83.5 300.5392603647672 L 83.5 300.5392603647672 L 84.5 302.69851776029606 L 84.5 302.69851776029606 L 85.5 304.84236883043496 L 85.5 304.8423688304349 L 86.5 306.97008282407074 L 86.5 306.97008282407074 L 87.5 309.08093449055883 L 87.5 309.0809344905588 L 88.5 311.17420432693257 L 88.5 311.17420432693257 L 89.5 313.2491788231519 L 89.5 313.24917882315185 L 90.5 315.305150705309 L 90.5 315.305150705309 L 91.5 317.34141917671036 L 91.5 317.34141917671036 L 92.5 319.35729015674895 L 92.5 319.35729015674895 L 93.5 321.3520765174874 L 93.5 321.3520765174874 L 94.5 323.32509831787297 L 94.5 323.3250983178729 L 95.5 325.27568303550083 L 95.5 325.27568303550083 L 96.5 327.2031657958499 L 96.5 327.2031657958499 L 97.5 329.10688959891047 L 97.5 329.1068895989104 L 98.5 330.9862055431299 L 98.5 330.9862055431299 L 99.50000000000006 332.8404730465956 L 99.50000000000006 332.84047304659555 L 100.5 334.6690600653837 L 100.5 334.6690600653837 L 101.5 336.47134330899706 L 101.5 336.47134330899706 L 102.5 338.2467084528187 L 102.5 338.24670845281867 L 103.5 339.99455034751117 L 103.5 339.9945503475111 L 104.5 341.7142732252858 L 104.5 341.71427322528575 L 105.5 343.4052909029769 L 105.5 343.40529090297684 L 106.5 345.0670269818467 L 106.5 345.0670269818467 L 107.5 346.6989150440567 L 107.5 346.6989150440567 L 108.5 348.3003988457355 L 108.5 348.3003988457355 L 109.5 349.87093250658074 L 109.5 349.8709325065807 L 110.5 351.40998069592604 L 110.5 351.409980695926 L 111.5 352.9170188152146 L 111.5 352.91701881521453 L 112.5 354.3915331768126 L 112.5 354.3915331768126 L 113.5 355.83302117910455 L 113.5 355.83302117910455 L 114.5 357.2409914778093 L 114.5 357.2409914778093 L 115.5 358.61496415345994 L 115.5 358.61496415345994 L 116.50000000000006 359.95447087498763 L 116.50000000000006 359.9544708749876 L 117.5 361.2590550593576 L 117.5 361.2590550593576 L 118.50000000000006 362.5282720271991 L 118.50000000000006 362.528272027199 L 119.5 363.7616891543779 L 119.5 363.7616891543779 L 120.5 364.9588860194614 L 120.5 364.9588860194614 L 121.5 366.11945454702203 L 121.5 366.119454547022 L 122.5 367.2429991467336 L 122.5 367.2429991467336 L 123.5 368.3291368482126 L 123.5 368.32913684821256 L 124.5 369.3774974315563 L 124.5 369.3774974315563 L 125.5 370.38772355353575 L 125.5 370.38772355353575 L 126.5 371.35947086939984 L 126.5 371.3594708693998 L 127.5 372.292408150248 L 127.5 372.292408150248 L 128.5 373.1862173959328 L 128.5 373.1862173959327 L 129.5 374.0405939434526 L 129.5 374.04059394345256 L 130.5 374.85524657079986 L 130.5 374.85524657079986 L 131.5 375.62989759622553 L 131.5 375.6298975962255 L 132.5 376.3642829728901 L 132.5 376.3642829728901 L 133.5 377.05815237886657 L 133.5 377.05815237886657 L 134.5 377.7112693024643 L 134.5 377.71126930246425 L 135.50000000000006 378.3234111228465 L 135.50000000000006 378.32341112284644 L 136.5 378.8943691859125 L 136.5 378.8943691859125 L 137.50000000000006 379.4239488754198 L 137.50000000000006 379.4239488754198 L 138.5 379.91196967932 L 138.5 379.91196967932 L 139.5 380.35826525128886 L 139.5 380.35826525128886 L 140.5 380.762683467426 L 140.5 380.762683467426 L 141.5 381.1250864781086 L 141.5 381.1250864781086 L 142.5 381.4453507549781 L 142.5 381.44535075497805 L 143.5 381.7233671330463 L 143.5 381.72336713304617 L 144.5 381.95904084790493 L 144.5 381.95904084790493 L 145.5 382.1522915680275 L 145.5 382.1522915680275 L 146.5 382.30305342215036 L 146.5 382.3030534221503 L 147.5 382.4112750217258 L 147.5 382.41127502172577 L 148.5 382.4769194784386 L 148.5 382.47691947843856 L 149.5 382.4999644167793 L 149.5 382.4804019816712 L 150.5 382.5 L 150.5 382.4804019816712 L 151.5 382.4182388411482 L 151.5 382.4182388411482 L 152.5 382.3134961840814 L 152.5 382.3134961840814 L 153.5 382.1662097129569 L 153.5 382.1662097129569 L 154.50000000000006 381.9764296317066 L 154.50000000000006 381.97642963170665 L 155.5 381.74422062859514 L 155.5 381.7442206285952 L 156.50000000000006 381.4696618541709 L 156.50000000000006 381.4696618541709 L 157.5 381.15284689428626 L 157.5 381.1528468942863 L 158.5 380.79388373819853 L 158.5 380.7938837381986 L 159.5 380.39289474176053 L 159.5 380.39289474176053 L 160.5 379.95001658571437 L 160.5 379.9500165857144 L 161.5 379.4654002291031 L 161.5 379.4654002291031 L 162.5 378.9392108578144 L 162.5 378.9392108578144 L 163.5 378.37162782827556 L 163.5 378.37162782827556 L 164.5 377.7628446063186 L 164.5 377.76284460631865 L 165.5 377.1130687012353 L 165.5 377.11306870123536 L 166.5 376.42252159504585 L 166.5 376.42252159504585 L 167.5 375.69143866700466 L 167.5 375.6914386670047 L 168.5 374.92006911336944 L 168.5 374.9200691133695 L 169.5 374.10867586246025 L 169.5 374.1086758624603 L 170.5 373.25753548503775 L 170.5 373.2575354850378 L 171.50000000000006 372.3669381000318 L 171.50000000000006 372.3669381000318 L 172.5 371.437187275652 L 172.5 371.43718727565204 L 173.50000000000006 370.46859992591305 L 173.50000000000006 370.46859992591305 L 174.5 369.4615062026126 L 174.5 369.4615062026126 L 175.50000000000006 368.4162493827952 L 175.50000000000006 368.4162493827952 L 176.5 367.3331857517436 L 176.5 367.3331857517436 L 177.5 366.21268448153563 L 177.5 366.21268448153563 L 178.5 365.0551275052087 L 178.5 365.0551275052087 L 179.5 363.860909386574 L 179.5 363.860909386574 L 180.5 362.63043718572646 L 180.5 362.6304371857266 L 181.5 361.3641303202941 L 181.5 361.3641303202942 L 182.5 360.06242042247584 L 182.5 360.0624204224759 L 183.5 358.7257511919158 L 183.5 358.72575119191583 L 184.5 357.3545782444645 L 184.5 357.35457824446456 L 185.5 355.94936895687766 L 185.5 355.9493689568777 L 186.5 354.5106023075066 L 186.5 354.5106023075066 L 187.5 353.03876871303464 L 187.5 353.03876871303464 L 188.5 351.53436986131334 L 188.5 351.5343698613134 L 189.5 349.9979185403581 L 189.5 349.9979185403581 L 190.50000000000006 348.42993846356006 L 190.50000000000006 348.42993846356006 L 191.5 346.8309640911727 L 191.5 346.83096409117275 L 192.5 345.20154044813694 L 192.5 345.201540448137 L 193.5 343.5422229383041 L 193.5 343.5422229383041 L 194.50000000000006 341.85357715512174 L 194.50000000000006 341.8535771551218 L 195.5 340.13617868884603 L 195.5 340.13617868884603 L 196.49999999999994 338.3906129303458 L 196.49999999999994 338.39061293034587 L 197.5 336.6174748715679 L 197.5 336.6174748715679 L 198.5 334.8173689027275 L 198.5 334.8173689027275 L 199.50000000000006 332.9909086062976 L 199.50000000000006 332.99090860629764 L 200.5 331.1387165478632 L 200.5 331.1387165478633 L 201.5 329.2614240639137 L 201.5 329.26142406391375 L 202.5 327.35967104664667 L 202.5 327.3596710466467 L 203.50000000000006 325.43410572585464 L 203.50000000000006 325.43410572585464 L 204.5 323.48538444797055 L 204.5 323.48538444797055 L 205.49999999999997 321.5141714523451 L 205.49999999999997 321.5141714523452 L 206.5 319.52113864483556 L 206.5 319.5211386448356 L 207.5 317.5069653687806 L 207.5 317.50696536878064 L 208.5 315.4723381734392 L 208.5 315.4723381734392 L 209.5 313.41795057997444 L 209.5 313.41795057997444 L 210.5 311.34450284506136 L 210.5 311.34450284506136 L 211.5 309.2527017221966 L 211.5 309.25270172219666 L 212.5 307.14326022079604 L 212.5 307.14326022079604 L 213.5 305.0168973631592 L 213.5 305.0168973631592 L 214.5 302.87433793938317 L 214.5 302.87433793938317 L 215.5 300.7163122603116 L 215.5 300.71631226031167 L 216.5 298.54355590860257 L 216.5 298.54355590860257 L 217.50000000000003 296.35680948799694 L 217.50000000000003 296.356809487997 L 218.50000000000003 294.1568183708778 L 218.50000000000003 294.1568183708778 L 219.50000000000003 291.9443324442038 L 219.50000000000003 291.9443324442038 L 220.50000000000003 289.7201058539025 L 220.50000000000003 289.7201058539025 L 221.50000000000003 287.48489674781325 L 221.50000000000003 287.48489674781325 L 222.50000000000003 285.23946701726635 L 222.50000000000003 285.23946701726635 L 223.5 282.98458203738403 L 223.5 282.98458203738403 L 224.5 280.72101040619634 L 224.5 280.72101040619634 L 225.5 278.4495236826578 L 225.5 278.4495236826578 L 226.5 276.1708961236536 L 226.5 276.1708961236536 L 227.5 273.8859044200874 L 227.5 273.8859044200874 L 228.5 271.5953274321401 L 228.5 271.5953274321401 L 229.5 269.2999459237869 L 229.5 269.2999459237869 L 230.5 267.0005422966673 L 230.5 267.0005422966673 L 231.5 264.6979003233972 L 231.5 264.6979003233972 L 232.5 262.3928048804118 L 232.5 262.3928048804118 L 233.5 260.08604168043337 L 233.5 260.08604168043337 L 234.5 257.7783970046552 L 234.5 257.7783970046552 L 235.50000000000003 255.47065743472857 L 235.50000000000003 255.47065743472857 L 236.50000000000003 253.16360958465137 L 236.50000000000003 253.16360958465137 L 237.50000000000003 250.8580398326417 L 237.50000000000003 250.85803983264174 L 238.50000000000003 248.55473405309456 L 238.50000000000003 248.5547340530946 L 239.50000000000003 246.25447734871 L 239.50000000000003 246.25447734871 L 240.50000000000003 243.95805378288242 L 240.50000000000003 243.95805378288244 L 241.50000000000003 241.66624611244617 L 241.50000000000003 241.66624611244617 L 242.5 239.37983552086638 L 242.5 239.37983552086638 L 243.5 237.0996013519641 L 243.5 237.0996013519641 L 244.5 234.82632084427067 L 244.5 234.82632084427067 L 245.5 232.56076886609947 L 245.5 232.56076886609947 L 246.5 230.30371765142368 L 246.5 230.3037176514237 L 247.5 228.05593653665423 L 247.5 228.05593653665423 L 248.5 225.8181916984044 L 248.5 225.8181916984044 L 249.5 223.59124589233147 L 249.5 223.5912458923315 L 250.5 221.37585819314424 L 250.5 221.37585819314424 L 251.5 219.17278373586595 L 251.5 219.17278373586598 L 252.5 216.98277345843962 L 252.5 216.98277345843965 L 253.50000000000003 214.80657384576344 L 253.50000000000003 214.80657384576347 L 254.50000000000003 212.6449266752457 L 254.50000000000003 212.6449266752457 L 255.50000000000003 210.4985687639619 L 255.50000000000003 210.49856876396194 L 256.5 208.36823171750513 L 256.5 208.36823171750513 L 257.5 206.25464168061094 L 257.5 206.25464168061097 L 258.5 204.15851908964453 L 258.5 204.15851908964453 L 259.5 202.0805784270335 L 259.5 202.0805784270335 L 260.5 200.0215279777301 L 260.5 200.0215279777301 L 261.5 197.98206958778562 L 261.5 197.98206958778565 L 262.5 195.96289842511976 L 262.5 195.9628984251198 L 263.5 193.9647027425671 L 263.5 193.96470274256717 L 264.5 191.98816364327877 L 264.5 191.9881636432788 L 265.5 190.03395484856256 L 265.5 190.0339548485626 L 266.5 188.10274246823985 L 266.5 188.10274246823985 L 267.5 186.19518477359458 L 267.5 186.19518477359458 L 268.5 184.31193197299626 L 268.5 184.31193197299626 L 269.5 182.45362599027092 L 269.5 182.45362599027095 L 270.5 180.62090024589463 L 270.5 180.6209002458947 L 271.5 178.81437944108694 L 271.5 178.81437944108694 L 272.5 177.0346793448757 L 272.5 177.03467934487577 L 273.5 175.28240658420674 L 273.5 175.28240658420674 L 274.5 173.55815843716914 L 274.5 173.5581584371692 L 275.5 171.86252262940812 L 275.5 171.86252262940815 L 276.5 170.19607713379276 L 276.5 170.1960771337928 L 277.5 168.5593899734094 L 277.5 168.5593899734094 L 278.5 166.9530190279453 L 278.5 166.95301902794534 L 279.5 165.3775118435305 L 279.5 165.3775118435305 L 280.5 163.83340544610164 L 280.5 163.83340544610166 L 281.5 162.32122615835203 L 281.5 162.32122615835203 L 282.5 160.8414894203293 L 282.5 160.84148942032934 L 283.5 159.39469961374357 L 283.5 159.3946996137436 L 284.5 157.98134989004402 L 284.5 157.98134989004404 L 285.5 156.6019220023235 L 285.5 156.60192200232353 L 286.5 155.2568861411093 L 286.5 155.25688614110933 L 287.5 153.94670077409387 L 287.5 153.94670077409387 L 288.5 152.6718124898619 L 288.5 152.67181248986194 L 289.5 151.4326558456671 L 289.5 151.4326558456671 L 290.5 150.2296532193089 L 290.5 150.22965321930894 L 291.5 149.0632146651613 L 291.5 149.0632146651613 L 292.5 147.93373777440218 L 292.5 147.93373777440218 L 293.5 146.84160753949055 L 293.5 146.84160753949055 L 294.5 145.78719622293852 L 294.5 145.78719622293852 L 295.5 144.7708632304224 L 295.5 144.77086323042244 L 296.5 143.79295498827565 L 296.5 143.7929549882757 L 297.5 142.85380482540643 L 297.5 142.85380482540648 L 298.5 141.95373285967975 L 298.5 141.9537328596798 L 299.5 141.0930458888018 L 299.5 141.09304588880184 L 300.5 140.27203728574563 L 300.5 140.27203728574568 L 301.5 139.49098689875223 L 301.5 139.49098689875228 L 302.5 138.7501609559415 L 302.5 138.75016095594157 L 303.5 138.04981197456618 L 303.5 138.04981197456618 L 304.5 137.3901786749389 L 304.5 137.3901786749389 L 305.5 136.7714858990625 L 305.5 136.7714858990625 L 306.5 136.19394453399008 L 306.5 136.1939445339901 L 307.5 135.65775143994279 L 307.5 135.65775143994279 L 308.5 135.16308938320773 L 308.5 135.16308938320776 L 309.5 134.71012697384086 L 309.5 134.7101269738409 L 310.5 134.2990186081944 L 310.5 134.2990186081944 L 311.5 133.92990441628945 L 311.5 133.9299044162895 L 312.5 133.60291021405166 L 312.5 133.6029102140517 L 313.5 133.3181474604255 L 313.5 133.3181474604255 L 314.5 133.0757132193824 L 314.5 133.07571321938246 L 315.5 132.87569012683596 L 315.5 132.875690126836 L 316.5 132.71814636247439 L 316.5 132.71814636247439 L 317.5 132.6031356265209 L 317.5 132.6031356265209 L 318.5 132.53069712142974 L 318.5 132.5306971214298 L 319.5 132.5008555385235 L 319.5 132.5136210495767 L 320.5 132.5 L 320.5 132.5136210495767 L 321.5 132.568989303349 L 321.5 132.56898930334899 L 322.5 132.66694142706808 L 322.5 132.66694142706808 L 323.5 132.80744403286275 L 323.5 132.80744403286275 L 324.5 132.99044922914337 L 324.5 132.99044922914334 L 325.5 133.21589463692624 L 325.5 133.2158946369262 L 326.5 133.48370341109606 L 326.5 133.48370341109603 L 327.5 133.79378426659923 L 327.5 133.79378426659918 L 328.5 134.14603150955912 L 328.5 134.1460315095591 L 329.5 134.54032507330302 L 329.5 134.540325073303 L 330.5 134.97653055928765 L 330.5 134.97653055928762 L 331.5 135.45449928291038 L 331.5 135.45449928291038 L 332.5 135.97406832418966 L 332.5 135.9740683241896 L 333.5 136.53506058329754 L 333.5 136.53506058329754 L 334.5 137.1372848409262 L 334.5 137.13728484092616 L 335.5 137.78053582346647 L 335.5 137.7805358234664 L 336.5 138.4645942729772 L 336.5 138.46459427297714 L 337.5 139.18922702192145 L 337.5 139.1892270219214 L 338.5 139.95418707264378 L 338.5 139.95418707264378 L 339.5 140.75921368156153 L 339.5 140.7592136815615 L 340.5 141.60403244804166 L 340.5 141.60403244804166 L 341.5 142.48835540793277 L 341.5 142.48835540793277 L 342.5 143.41188113172024 L 342.5 143.4118811317202 L 343.5 144.3742948272712 L 343.5 144.37429482727117 L 344.5 145.3752684471345 L 344.5 145.3752684471345 L 345.5 146.4144608003581 L 345.5 146.41446080035809 L 346.5 147.49151766878794 L 346.5 147.4915176687879 L 347.5 148.60607192780577 L 347.5 148.60607192780571 L 348.5 149.75774367146693 L 348.5 149.75774367146687 L 349.5 150.94614034199523 L 349.5 150.9461403419952 L 350.5 152.17085686358934 L 350.5 152.1708568635893 L 351.5 153.43147578049678 L 351.5 153.43147578049673 L 352.5 154.72756739930753 L 352.5 154.72756739930747 L 353.5 156.05868993541873 L 353.5 156.05868993541873 L 354.5 157.42438966362127 L 354.5 157.42438966362124 L 355.5 158.82420107275595 L 355.5 158.8242010727559 L 356.5 160.25764702438715 L 356.5 160.25764702438715 L 357.5 161.72423891543997 L 357.5 161.7242389154399 L 358.5 163.22347684474494 L 358.5 163.2234768447449 L 359.5 164.7548497834338 L 359.5 164.75484978343377 L 360.5 166.31783574912845 L 360.5 166.3178357491284 L 361.5 167.9119019838634 L 361.5 167.9119019838634 L 362.5 169.53650513568107 L 362.5 169.53650513568104 L 363.5 171.19109144383813 L 363.5 171.1910914438381 L 364.5 172.87509692756032 L 364.5 172.8750969275603 L 365.5 174.5879475782799 L 365.5 174.58794757827985 L 366.5 176.32905955529188 L 366.5 176.32905955529185 L 367.5 178.0978393847617 L 367.5 178.09783938476167 L 368.5 179.89368416201575 L 368.5 179.89368416201572 L 369.5 181.71598175704702 L 369.5 181.71598175704696 L 370.5 183.5641110231655 L 370.5 183.56411102316548 L 371.5 185.4374420087213 L 371.5 185.43744200872123 L 372.5 187.33533617182928 L 372.5 187.33533617182923 L 373.5 189.25714659802253 L 373.5 189.25714659802253 L 374.5 191.2022182207583 L 374.5 191.20221822075828 L 375.5 193.16988804470364 L 375.5 193.1698880447036 L 376.5 195.15948537172366 L 376.5 195.15948537172366 L 377.5 197.17033202949466 L 377.5 197.17033202949466 L 378.5 199.20174260266558 L 378.5 199.20174260266555 L 379.5 201.25302466648782 L 379.5 201.2530246664878 L 380.5 203.323479022835 L 380.5 203.323479022835 L 381.5 205.41239993853029 L 381.5 205.41239993853026 L 382.5 207.5190753859027 L 382.5 207.5190753859027 L 383.5 209.6427872854876 L 383.5 209.64278728548757 L 384.5 211.78281175079084 L 384.5 211.7828117507908 L 385.5 213.93841933503214 L 385.5 213.9384193350321 L 386.5 216.1088752797834 L 386.5 216.1088752797834 L 387.5 218.29343976541833 L 387.5 218.29343976541833 L 388.5 220.49136816328596 L 388.5 220.49136816328596 L 389.5 222.7019112895244 L 389.5 222.7019112895244 L 390.5 224.92431566042734 L 390.5 224.9243156604273 L 391.5 227.15782374927514 L 391.5 227.15782374927514 L 392.5 229.40167424454506 L 392.5 229.40167424454506 L 393.5 231.65510230941146 L 393.5 231.65510230941146 L 394.5 233.9173398424467 L 394.5 233.91733984244667 L 395.5 236.18761573943624 L 395.5 236.18761573943624 L 396.5 238.46515615621593 L 396.5 238.46515615621593 L 397.5 240.74918477244412 L 397.5 240.7491847724441 L 398.5 243.0389230562173 L 398.5 243.0389230562173 L 399.5 245.33359052944027 L 399.5 245.33359052944027 L 400.5 247.6324050338585 L 400.5 247.6324050338585 L 401.5 249.9345829976642 L 401.5 249.9345829976642 L 402.5 252.2393397025842 L 402.5 252.2393397025842 L 403.5 254.54588955135765 L 403.5 254.54588955135765 L 404.5 256.85344633551443 L 404.5 256.85344633551443 L 405.5 259.1612235033615 L 405.5 259.1612235033615 L 406.5 261.4684344280859 L 406.5 261.4684344280859 L 407.5 263.77429267588366 L 407.5 263.77429267588366 L 408.5 266.07801227402337 L 408.5 266.0780122740233 L 409.5 268.37880797875147 L 409.5 268.37880797875147 L 410.5 270.67589554295006 L 410.5 270.67589554295006 L 411.5 272.96849198345495 L 411.5 272.96849198345495 L 412.5 275.2558158479419 L 412.5 275.2558158479419 L 413.5 277.53708748129213 L 413.5 277.53708748129213 L 414.5 279.81152929134515 L 414.5 279.81152929134515 L 415.5 282.0783660139474 L 415.5 282.0783660139474 L 416.5 284.3368249772086 L 416.5 284.33682497720855 L 417.5 286.586136364874 L 417.5 286.586136364874 L 418.5 288.82553347872295 L 418.5 288.82553347872295 L 419.5 291.054252999905 L 419.5 291.054252999905 L 420.5 293.27153524912444 L 420.5 293.27153524912444 L 421.5 295.4766244455834 L 421.5 295.4766244455834 L 422.5 297.6687689645968 L 422.5 297.6687689645968 L 423.5 299.8472215937906 L 423.5 299.8472215937906 L 424.5 302.01123978779583 L 424.5 302.0112397877958 L 425.5 304.1600859213515 L 425.5 304.1600859213515 L 426.5 306.2930275407319 L 426.5 306.2930275407319 L 427.5 308.4093376134087 L 427.5 308.4093376134087 L 428.5 310.50829477586797 L 428.5 310.50829477586797 L 429.5 312.5891835794927 L 429.5 312.5891835794927 L 430.5 314.65129473443005 L 430.5 314.65129473443005 L 431.5 316.6939253513594 L 431.5 316.6939253513594 L 432.5 318.7163791810783 L 432.5 318.7163791810783 L 433.5 320.7179668518257 L 433.5 320.7179668518257 L 434.5 322.6980061042605 L 434.5 322.69800610426046 L 435.5 324.6558220240155 L 435.5 324.6558220240155 L 436.5 326.5907472717484 L 436.5 326.59074727174834 L 437.5 328.50212231061056 L 437.5 328.5021223106105 L 438.5 330.3892956310558 L 438.5 330.3892956310558 L 439.5 332.25162397291353 L 439.5 332.2516239729135 L 440.5 334.08847254465 L 440.5 334.08847254464996 L 441.5 335.8992152397425 L 441.5 335.89921523974243 L 442.5 337.6832348500932 L 442.5 337.6832348500932 L 443.5 339.43992327641115 L 443.5 339.4399232764111 L 444.5 341.16868173548716 L 444.5 341.1686817354871 L 445.5 342.8689209642954 L 445.5 342.86892096429534 L 446.5 344.5400614208487 L 446.5 344.5400614208487 L 447.5 346.18153348174076 L 447.5 346.18153348174076 L 448.5 347.79277763630756 L 448.5 347.79277763630756 L 449.5 349.37324467734135 L 449.5 349.3732446773413 L 450.5 350.9223958882933 L 450.5 350.92239588829324 L 451.5 352.4397032268997 L 451.5 352.43970322689967 L 452.5 353.92464950517 L 452.5 353.92464950517 L 453.5 355.37672856567514 L 453.5 355.3767285656751 L 454.5 356.7954454540757 L 454.5 356.7954454540757 L 455.5 358.18031658783184 L 455.5 358.18031658783184 L 456.5 359.5308699210365 L 456.5 359.5308699210365 L 457.5 360.84664510531684 L 457.5 360.84664510531684 L 458.5 362.12719364674797 L 458.5 362.12719364674797 L 459.5 363.3720790587263 L 459.5 363.3720790587263 L 460.5 364.58087701074976 L 460.5 364.5808770107497 L 461.5 365.7531754730549 L 461.5 365.7531754730549 L 462.5 366.88857485706114 L 462.5 366.8885748570611 L 463.5 367.98668815157356 L 463.5 367.98668815157356 L 464.5 369.0471410546999 L 464.5 369.04714105469986 L 465.5 370.06957210143435 L 465.5 370.0695721014343 L 466.5 371.05363278686605 L 466.5 371.05363278686605 L 467.5 371.99898768497076 L 467.5 371.99898768497076 L 468.5 372.9053145629432 L 468.5 372.9053145629432 L 469.5 373.7723044910333 L 469.5 373.7723044910333 L 470.5 374.59966194784795 L 470.5 374.5996619478479 L 471.5 375.38710492108163 L 471.5 375.38710492108163 L 472.5 376.1343650036433 L 472.5 376.1343650036433 L 473.5 376.8411874851454 L 473.5 376.8411874851454 L 474.5 377.50733143872367 L 474.5 377.50733143872367 L 475.5 378.13256980316 L 475.5 378.13256980316 L 476.5 378.71668946027785 L 476.5 378.7166894602778 L 477.5 379.25949130758545 L 477.5 379.25949130758545 L 478.5 379.7607903261421 L 478.5 379.7607903261421 L 479.5 380.2204156436232 L 479.5 380.2204156436232 L 480.5 380.6382105925638 L 480.5 380.6382105925637 L 481.5 381.01403276375993 L 481.5 381.01403276375993 L 482.5 381.3477540548105 L 482.5 381.3477540548104 L 483.5 381.63926071378154 L 483.5 381.6392607137815 L 484.5 381.8884533779802 L 484.5 381.8884533779802 L 485.5 382.0952471078232 L 485.5 382.0952471078231 L 486.5 382.2595714157888 L 486.5 382.25957141578874 L 487.5 382.381370290444 L 487.5 382.381370290444 L 488.5 382.4606022155359 L 488.5 382.46060221553586 L 489.5 382.4972401841429 L 489.5 382.4912717078807 L 490.5 382.5 L 490.5 382.4912717078807 L 491.5 382.4426988211585 L 491.5 382.44269882115856 L 492.5 382.35153808048614 L 492.5 382.3515380804862 L 493.5 382.2178205588302 L 493.5 382.2178205588302 L 494.5 382.0415918350227 L 494.5 382.0415918350227 L 495.5 381.82291197822514 L 495.5 381.8229119782252 L 496.5 381.5618555274533 L 496.5 381.5618555274533 L 497.5 381.25851146617003 L 497.5 381.2585114661701 L 498.5 380.9129831919544 L 498.5 380.9129831919544 L 499.5 380.5253884812577 L 499.5 380.5253884812577 L 500.5 380.0958594492581 L 500.5 380.09585944925817 L 501.5 379.62454250482847 L 501.5 379.62454250482847 L 502.5 379.1115983006309 L 502.5 379.11159830063093 L 503.5 378.5572016783573 L 503.5 378.5572016783573 L 504.5 377.96154160913284 L 504.5 377.9615416091329 L 505.5 377.3248211291036 L 505.5 377.3248211291036 L 506.5 376.64725727022943 L 506.5 376.64725727022943 L 507.5 375.9290809863071 L 507.5 375.9290809863071 L 508.5 375.17053707424725 L 508.5 375.17053707424725 L 509.5 374.3718840906335 L 509.5 374.37188409063356 L 510.5 373.53339426359076 L 510.5 373.53339426359076 L 511.5 372.6553533999939 L 511.5 372.65535339999394 L 512.5 371.73806078804796 L 512.5 371.73806078804796 L 513.5 370.78182909527294 L 513.5 370.781829095273 L 514.5 369.7869842619284 L 514.5 369.7869842619284 L 515.5 368.7538653899135 L 515.5 368.7538653899135 L 516.5 367.6828246271813 L 516.5 367.68282462718133 L 517.5 366.5742270477058 L 517.5 366.5742270477058 L 518.5 365.4284505270431 L 518.5 365.4284505270431 L 519.5 364.2458856135292 L 519.5 364.24588561352925 L 520.5 363.0269353951581 L 520.5 363.02693539515815 L 521.5 361.7720153621854 L 521.5 361.7720153621854 L 522.5 360.4815532655048 L 522.5 360.4815532655048 L 523.5 359.1559889708452 L 523.5 359.1559889708452 L 524.5 357.795774308839 L 524.5 357.795774308839 L 525.5 356.4013729210104 L 525.5 356.4013729210104 L 526.5 354.9732601017403 L 526.5 354.9732601017404 L 527.5 353.51192263625694 L 527.5 353.511922636257 L 528.5 352.01785863471116 L 528.5 352.01785863471116 L 529.5 350.4915773623908 L 529.5 350.4915773623908 L 530.5 348.9335990661333 L 530.5 348.9335990661333 L 531.5 347.34445479699446 L 531.5 347.3444547969945 L 532.5 345.7246862292354 L 532.5 345.7246862292354 L 533.5 344.0748454756872 L 533.5 344.07484547568725 L 534.5 342.3954948995591 L 534.5 342.39549489955914 L 535.5 340.68720692275105 L 535.5 340.6872069227511 L 536.5 338.9505638307392 L 536.5 338.95056383073927 L 537.5 337.18615757409816 L 537.5 337.18615757409816 L 538.5 335.39458956672945 L 538.5 335.3945895667295 L 539.5 333.57647048086426 L 539.5 333.57647048086426 L 540.5 331.73242003890965 L 540.5 331.7324200389097 L 541.5 329.86306680221145 L 541.5 329.86306680221145 L 542.5 327.96904795680274 L 542.5 327.9690479568028 L 543.5 326.05100909621336 L 543.5 326.05100909621336 L 544.5 324.1096040014136 L 544.5 324.10960400141363 L 545.5 322.1454944179671 L 545.5 322.1454944179671 L 546.5 320.1593498304683 L 546.5 320.15934983046833 L 547.5 318.1518472343434 L 547.5 318.1518472343434 L 548.5 316.12367090508974 L 548.5 316.12367090508974 L 549.5 314.0755121650342 L 549.5 314.0755121650342 L 550.5 312.0080691476901 L 550.5 312.00806914769015 L 551.5 309.9220465597919 L 551.5 309.92204655979197 L 552.5 307.8181554410894 L 552.5 307.8181554410894 L 553.5 305.6971129219836 L 553.5 305.6971129219836 L 554.5 303.55964197908565 L 554.5 303.5596419790857 L 555.5 301.40647118878496 L 555.5 301.40647118878496 L 556.5 299.2383344789058 L 556.5 299.2383344789058 L 557.5 297.05597087854255 L 557.5 297.05597087854255 L 558.5 294.8601242661545 L 558.5 294.8601242661545 L 559.5 292.65154311600764 L 559.5 292.65154311600764 L 560.5 290.4309802430513 L 560.5 290.4309802430513 L 561.5 288.1991925463136 L 561.5 288.1991925463136 L 562.5 285.95694075090614 L 562.5 285.95694075090614 L 563.5 283.7049891487231 L 563.5 283.7049891487231 L 564.5 281.4441053379263 L 564.5 281.4441053379263 L 565.5 279.17505996130205 L 565.5 279.17505996130205 L 566.5 276.8986264435802 L 566.5 276.89862644358027 L 567.5 274.61558072780593 L 567.5 274.61558072780593 L 568.5 272.32670101085216 L 568.5 272.32670101085216 L 569.5 270.03276747816375 L 569.5 270.03276747816375 L 570.5 267.73456203782496 L 570.5 267.73456203782496 L 571.5 265.4328680540385 L 571.5 265.4328680540386 L 572.5 263.12847008010874 L 572.5 263.12847008010874 L 573.5 260.8221535910196 L 573.5 260.8221535910196 L 574.5 258.5147047156986 L 574.5 258.5147047156986 L 575.5 256.2069099690569 L 575.5 256.2069099690569 L 576.5 253.8995559838995 L 576.5 253.8995559838995 L 577.5 251.59342924279375 L 577.5 251.59342924279375 L 578.5 249.28931580998943 L 578.5 249.28931580998943 L 579.5 246.98800106348224 L 579.5 246.98800106348224 L 580.5 244.6902694273102 L 580.5 244.69026942731023 L 581.5 242.3969041041753 L 581.5 242.3969041041753 L 582.5 240.10868680848236 L 582.5 240.1086868084824 L 583.5 237.82639749988437 L 583.5 237.82639749988437 L 584.5 235.55081411742552 L 584.5 235.55081411742552 L 585.5 233.282712314375 L 585.5 233.282712314375 L 586.5 231.022865193837 L 586.5 231.022865193837 L 587.5 228.77204304523218 L 587.5 228.77204304523218 L 588.5 226.5310130817382 L 588.5 226.5310130817382 L 589.5 224.30053917877677 L 589.5 224.3005391787768 L 590.5 222.0813816136406 L 590.5 222.0813816136406 L 591.5 219.8742968063463 L 591.5 219.87429680634634 L 592.5 217.68003706180082 L 592.5 217.68003706180085 L 593.5 215.49935031337196 L 593.5 215.499350313372 L 594.5 213.33297986794878 L 594.5 213.3329798679488 L 595.5 211.18166415257832 L 595.5 211.18166415257832 L 596.5 209.04613646276587 L 596.5 209.04613646276587 L 597.5 206.92712471252503 L 597.5 206.92712471252503 L 598.5 204.82535118626143 L 598.5 204.82535118626143 L 599.5 202.74153229257507 L 599.5 202.74153229257507 L 600.5 200.6763783200667 L 600.5 200.6763783200667 L 601.5 198.63059319522898 L 601.5 198.63059319522898 L 602.5 196.60487424250687 L 602.5 196.6048742425069 L 603.5 194.59991194660844 L 603.5 194.59991194660847 L 604.5 192.61638971714632 L 604.5 192.61638971714638 L 605.5 190.65498365569215 L 605.5 190.65498365569215 L 606.5 188.71636232532057 L 606.5 188.71636232532063 L 607.5 186.80118652272358 L 607.5 186.80118652272364 L 608.5 184.91010905297225 L 608.5 184.9101090529723 L 609.5 183.0437745070019 L 609.5 183.04377450700196 L 610.5 181.20281904189733 L 610.5 181.20281904189736 L 611.5 179.38787016405325 L 611.5 179.38787016405328 L 612.5 177.5995465152829 L 612.5 177.59954651528292 L 613.5 175.83845766194804 L 613.5 175.8384576619481 L 614.5 174.10520388718322 L 614.5 174.10520388718328 L 615.5 172.40037598628365 L 615.5 172.40037598628368 L 616.5 170.72455506532685 L 616.5 170.72455506532685 L 617.5 169.07831234309805 L 617.5 169.07831234309805 L 618.5 167.46220895638461 L 618.5 167.46220895638464 L 619.5 165.87679576870744 L 619.5 165.87679576870747 L 620.5 164.3226131825547 L 620.5 164.32261318255473 L 621.5 162.80019095517991 L 621.5 162.80019095517994 L 622.5 161.3100480180297 L 622.5 161.31004801802976 L 623.5 159.85269229986193 L 623.5 159.85269229986199 L 624.5 158.42862055361252 L 624.5 158.42862055361252 L 625.5 157.03831818707317 L 625.5 157.03831818707323 L 626.5 155.6822590974361 L 626.5 155.6822590974361 L 627.5 154.3609055097612 L 627.5 154.3609055097612 L 628.5 153.07470781942283 L 628.5 153.07470781942283 L 629.5 151.82410443858834 L 629.5 151.82410443858836 L 630.5 150.60952164678145 L 630.5 150.60952164678145 L 631.5 149.43137344558062 L 631.5 149.43137344558062 L 632.5 148.29006141750332 L 632.5 148.29006141750335 L 633.5 147.1859745891228 L 633.5 147.18597458912282 L 634.5 146.1194892984646 L 634.5 146.1194892984646 L 635.5 145.0909690667287 L 635.5 145.0909690667287 L 636.5 144.10076447437982 L 636.5 144.10076447437984 L 637.5 143.14921304164884 L 637.5 143.14921304164886 L 638.5 142.23663911348612 L 638.5 142.23663911348615 L 639.5 141.36335374900546 L 639.5 141.3633537490055 L 640.5 140.52965461545688 L 640.5 140.52965461545688 L 641.5 139.73582588676382 L 641.5 139.73582588676385 L 642.5 138.98213814666005 L 642.5 138.98213814666008 L 643.5 138.26884829645883 L 643.5 138.26884829645888 L 644.5 137.59619946748558 L 644.5 137.59619946748558 L 645.5 136.96442093820428 L 645.5 136.96442093820434 L 646.5 136.37372805606626 L 646.5 136.37372805606628 L 647.5 135.82432216410655 L 647.5 135.8243221641066 L 648.5 135.31639053231459 L 648.5 135.3163905323146 L 649.5 134.85010629380133 L 649.5 134.8501062938014 L 650.5 134.42562838578567 L 650.5 134.42562838578573 L 651.5 134.04310149541868 L 651.5 134.04310149541874 L 652.5 133.702656010466 L 652.5 133.70265601046606 L 653.5 133.4044079748641 L 653.5 133.4044079748641 L 654.5 133.14845904916535 L 654.5 133.14845904916535 L 655.5 132.9348964758862 L 655.5 132.93489647588623 L 656.5 132.76379304977002 L 656.5 132.76379304977002 L 657.5 132.63520709297387 L 657.5 132.6352070929739 L 658.5 132.54918243518938 L 658.5 132.5491824351894 L 659.5 132.50574839870265 L 659.5 132.50574839870268 L 660.5 132.5 L 660.5 132.50491978839955 L 661.5 132.54669688671947 L 661.5 132.54669688671942 L 662.5 132.63106545355888 L 662.5 132.63106545355885 L 663.5 132.75799673112533 L 663.5 132.75799673112533 L 664.5 132.92744745373977 L 664.5 132.92744745373975 L 665.5 133.13935986258397 L 665.5 133.13935986258392 L 666.5 133.39366172538823 L 666.5 133.3936617253882 L 667.5 133.69026636105235 L 667.5 133.69026636105235 L 668.5 134.02907266919186 L 668.5 134.0290726691918 L 669.5 134.40996516459853 L 669.5 134.40996516459847 L 670.5 134.83281401660514 L 670.5 134.83281401660508 L 671.5 135.29747509333902 L 671.5 135.297475093339 L 672.5 135.8037900108509 L 672.5 135.80379001085086 L 673.5 136.35158618710147 L 673.5 136.35158618710145 L 674.5 136.9406769007876 L 674.5 136.94067690078754 L 675.5 137.57086135498773 L 675.5 137.5708613549877 L 676.5 138.2419247456058 L 676.5 138.24192474560573 L 677.5 138.95363833458865 L 677.5 138.95363833458862 L 678.5 139.70575952789386 L 678.5 139.70575952789386 L 679.5 140.49803195818 L 679.5 140.49803195817998 L 680.5 141.33018557219168 L 680.5 141.33018557219162 L 681.5 142.20193672280976 L 681.5 142.20193672280976 L 682.5 143.11298826573505 L 682.5 143.11298826573503 L 683.5 144.06302966077251 L 683.5 144.0630296607725 L 684.5 145.051737077682 L 684.5 145.05173707768196 L 685.5 146.07877350655826 L 685.5 146.07877350655826 L 686.5 147.1437888727045 L 686.5 147.14378887270448 L 687.5 148.24642015595776 L 687.5 148.2464201559577 L 688.5 149.3862915144281 L 688.5 149.38629151442808 L 689.5 150.56301441260786 L 689.5 150.56301441260783 L 690.5 151.776187753807 L 690.5 151.77618775380697 L 691.5 153.02539801687095 L 691.5 153.0253980168709 L 692.5 154.31021939713304 L 692.5 154.31021939713304 L 693.5 155.63021395155354 L 693.5 155.63021395155351 L 694.5 156.98493174799705 L 694.5 156.98493174799702 L 695.5 158.37391101859555 L 695.5 158.3739110185955 L 696.5 159.79667831714616 L 696.5 159.79667831714613 L 697.5 161.25274868049007 L 697.5 161.25274868049004 L 698.5 162.74162579381596 L 698.5 162.74162579381596 L 699.5 164.26280215983388 L 699.5 164.26280215983385 L 700.5 165.81575927176024 L 700.5 165.81575927176021 L 701.5 167.3999677900553 L 701.5 167.39996779005526 L 702.5 169.01488772285387 L 702.5 169.01488772285384 L 703.5 170.6599686100256 L 703.5 170.6599686100256 L 704.5 172.33464971080548 L 704.5 172.33464971080542 L 705.5 174.03836019492618 L 705.5 174.03836019492616 L 706.5 175.7705193371919 L 706.5 175.77051933719184 L 707.5 177.53053671542273 L 707.5 177.5305367154227 L 708.5 179.31781241170654 L 708.5 179.3178124117065 L 709.5 181.13173721688514 L 709.5 181.13173721688514 L 710.5 182.97169283821017 L 710.5 182.97169283821012 L 711.5 184.8370521100926 L 711.5 184.83705211009254 L 712.5 186.7271792078787 L 712.5 186.72717920787866 L 713.5 188.6414298645759 L 713.5 188.64142986457585 L 714.5 190.57915159045797 L 714.5 190.57915159045794 L 715.5 192.53968389547074 L 715.5 192.53968389547072 L 716.5 194.52235851436765 L 716.5 194.52235851436762 L 717.5 196.52649963449284 L 717.5 196.5264996344928 L 718.5 198.5514241261388 L 718.5 198.5514241261388 L 719.5 200.59644177539673 L 719.5 200.59644177539673 L 720.5 202.66085551942288 L 720.5 202.66085551942285 L 721.5 204.7439616840381 L 721.5 204.7439616840381 L 722.5 206.84505022358175 L 722.5 206.84505022358175 L 723.5 208.96340496293777 L 723.5 208.96340496293777 L 724.5 211.09830384164866 L 724.5 211.09830384164863 L 725.5 213.249019160037 L 725.5 213.24901916003697 L 726.5 215.41481782724787 L 726.5 215.41481782724787 L 727.5 217.5949616111305 L 727.5 217.5949616111305 L 728.5 219.7887073898699 L 728.5 219.78870738986987 L 729.5 221.99530740528832 L 729.5 221.99530740528832 L 730.5 224.21400951772424 L 730.5 224.2140095177242 L 731.5 226.4440574624067 L 731.5 226.4440574624067 L 732.5 228.68469110723447 L 732.5 228.68469110723447 L 733.5 230.9351467118746 L 733.5 230.9351467118746 L 734.5 233.1946571880896 L 734.5 233.1946571880896 L 735.5 235.46245236120686 L 735.5 235.46245236120683 L 736.5 237.73775923263943 L 736.5 237.73775923263943 L 737.5 240.01980224337015 L 737.5 240.01980224337012 L 738.5 242.30780353830716 L 738.5 242.30780353830716 L 739.5 244.60098323142338 L 739.5 244.60098323142338 L 740.5 246.89855967158806 L 740.5 246.89855967158806 L 741.5 249.19974970899852 L 741.5 249.19974970899852 L 742.5 251.5037689621254 L 742.5 251.5037689621254 L 743.5 253.80983208507493 L 743.5 253.80983208507493 L 744.5 256.1171530352822 L 744.5 256.1171530352822 L 745.5 258.4249453414398 L 745.5 258.4249453414398 L 746.5 260.7324223715752 L 746.5 260.7324223715752 L 747.5 263.03879760117985 L 747.5 263.03879760117985 L 748.5 265.3432848813043 L 748.5 265.34328488130427 L 749.5 267.6450987065236 L 749.5 267.6450987065236 L 750.5 269.9434544826845 L 750.5 269.94345448268444 L 751.5 272.23756879434075 L 751.5 272.23756879434075 L 752.5 274.5266596717884 L 752.5 274.5266596717884 L 753.5 276.80994685760606 L 753.5 276.80994685760606 L 754.5 279.08665207261396 L 754.5 279.08665207261396 L 755.5 281.3559992811562 L 755.5 281.3559992811562 L 756.5 283.6172149556208 L 756.5 283.6172149556208 L 757.5 285.8695283401028 L 757.5 285.8695283401028 L 758.5 288.11217171312364 L 758.5 288.11217171312364 L 759.5 290.34438064931624 L 759.5 290.34438064931624 L 760.5 292.5653942799856 L 760.5 292.5653942799856 L 761.5 294.7744555524589 L 761.5 294.7744555524589 L 762.5 296.97081148813277 L 762.5 296.97081148813277 L 763.5 299.1537134391337 L 763.5 299.15371343913364 L 764.5 301.32241734350055 L 764.5 301.32241734350055 L 765.5 303.476183978806 L 765.5 303.476183978806 L 766.5 305.61427921412604 L 766.5 305.61427921412604 L 767.5 307.73597426027595 L 767.5 307.73597426027595 L 768.5 309.84054591822445 L 768.5 309.84054591822445 L 769.5 311.9272768256028 L 769.5 311.9272768256028 L 770.5 313.9954557012239 L 770.5 313.9954557012239 L 771.5 316.0443775875295 L 771.5 316.0443775875295 L 772.5 318.0733440908809 L 772.5 318.0733440908808 L 773.5 320.0816636196132 L 773.5 320.08166361961315 L 774.5 322.0686516197699 L 774.5 322.06865161976987 L 775.5 324.0336308084405 L 775.5 324.0336308084404 L 776.5 325.97593140461714 L 776.5 325.9759314046171 L 777.5 327.8948913574966 L 777.5 327.8948913574966 L 778.5 329.78985657214605 L 778.5 329.78985657214605 L 779.5 331.660181132457 L 779.5 331.66018113245696 L 780.5 333.50522752131184 L 780.5 333.5052275213118 L 781.5 335.3243668378873 L 781.5 335.3243668378873 L 782.5 337.11697901202126 L 782.5 337.11697901202126 L 783.5 338.8824530155689 L 783.5 338.88245301556884 L 784.5 340.6201870706775 L 784.5 340.6201870706775 L 785.5 342.3295888549077 L 785.5 342.3295888549076 L 786.5 344.01007570313215 L 786.5 344.01007570313215 L 787.5 345.66107480614187 L 787.5 345.66107480614187 L 788.5 347.28202340589405 L 788.5 347.28202340589405 L 789.5 348.87236898733266 L 789.5 348.8723689873326 L 790.5 350.43156946671866 L 790.5 350.43156946671866 L 791.5 351.95909337640387 L 791.5 351.95909337640387 L 792.5 353.45442004598686 L 792.5 353.4544200459868 L 793.5 354.9170397797875 L 793.5 354.91703977978744 L 794.5 356.3464540305823 L 794.5 356.3464540305823 L 795.5 357.7421755695385 L 795.5 357.74217556953846 L 796.5 359.1037286522895 L 796.5 359.1037286522895 L 797.5 360.43064918109803 L 797.5 360.430649181098 L 798.5 361.72248486304727 L 798.5 361.72248486304727 L 799.5 362.97879536420936 L 799.5 362.97879536420936 L 800.5 364.19915245973664 L 800.5 364.1991524597366 L 801.5 365.38314017982674 L 801.5 365.38314017982674 L 802.5 366.5303549515091 L 802.5 366.530354951509 L 803.5 367.6404057362068 L 803.5 367.64040573620673 L 804.5 368.7129141630255 L 804.5 368.71291416302546 L 805.5 369.74751465772476 L 805.5 369.7475146577247 L 806.5 370.7438545673267 L 806.5 370.7438545673267 L 807.5 371.70159428032207 L 807.5 371.701594280322 L 808.5 372.6204073424287 L 808.5 372.6204073424286 L 809.5 373.4999805678674 L 809.5 373.4999805678674 L 810.5 374.3400141461138 L 810.5 374.3400141461138 L 811.5 375.1402217440914 L 811.5 375.1402217440913 L 812.5 375.90033060377067 L 812.5 375.9003306037706 L 813.5 376.6200816351415 L 813.5 376.6200816351415 L 814.5 377.2992295045263 L 814.5 377.29922950452624 L 815.5 377.9375427182039 L 815.5 377.9375427182039 L 816.5 378.5348037013167 L 816.5 378.53480370131666 L 817.5 379.09080887203254 L 817.5 379.09080887203254 L 818.5 379.6053687109381 L 818.5 379.605368710938 L 819.5 380.07830782563747 L 819.5 380.07830782563747 L 820.5 380.5094650105371 L 820.5 380.50946501053704 L 821.5 380.89869330179357 L 821.5 380.8986933017935 L 822.5 381.24586002740784 L 822.5 381.24586002740784 L 823.5 381.55084685244753 L 823.5 381.55084685244753 L 824.5 381.81354981938273 L 824.5 381.81354981938273 L 825.5 382.03387938352057 L 825.5 382.0338793835205 L 826.5 382.21176044352745 L 826.5 382.2117604435274 L 827.5 382.34713236702817 L 827.5 382.3471323670281 L 828.5 382.4399490112727 L 828.5 382.4399490112727 L 829.5 382.49017873886476 L 829.5 382.4901787388647 L 830.5 382.5 L 830.5 382.4978044285453 L 831.5 382.4628234810287 L 831.5 382.46282348102875 L 832.5 382.38524781988883 L 832.5 382.38524781988883 L 833.5 382.26510388749443 L 833.5 382.26510388749443 L 834.5 382.10243263599637 L 834.5 382.10243263599637 L 835.5 381.89728951336843 L 835.5 381.8972895133685 L 836.5 381.64974444450775 L 836.5 381.6497444445078 L 837.5 381.3598818073998 L 837.5 381.35988180739986 L 838.5 381.0278004043578 L 838.5 381.02780040435783 L 839.5 380.6536134283447 L 839.5 380.6536134283448 L 840.5 380.2374484243908 L 840.5 380.23744842439083 L 841.5 379.77944724611825 L 841.5 379.7794472461183 L 842.5 379.2797660073895 L 842.5 379.2797660073895 L 843.5 378.73857502909414 L 843.5 378.73857502909414 L 844.5 378.1560587810937 L 844.5 378.1560587810937 L 845.5 377.5324158193431 L 845.5 377.53241581934316 L 846.5 376.8678587182116 L 846.5 376.86785871821166 L 847.5 376.1626139980243 L 847.5 376.16261399802437 L 848.5 375.4169220478509 L 848.5 375.4169220478509 L 849.5 374.63103704356706 L 849.5 374.63103704356706 L 850.5 373.8052268612158 L 850.5 373.80522686121583 L 851.5 372.93977298570013 L 851.5 372.93977298570013 L 852.5 372.0349704148357 L 852.5 372.03497041483575 L 853.5 371.0911275587987 L 853.5 371.0911275587987 L 854.5 370.10856613500084 L 854.5 370.10856613500084 L 855.5 369.0876210584299 L 855.5 369.08762105842993 L 856.5 368.0286403274898 L 856.5 368.0286403274898 L 857.5 366.9319849053835 L 857.5 366.93198490538356 L 858.5 365.7980285970741 L 858.5 365.79802859707416 L 859.5 364.62715792187095 L 859.5 364.627157921871 L 860.5 363.4197719816804 L 860.5 363.4197719816804 L 861.5 362.17628232496907 L 861.5 362.17628232496907 L 862.5 360.89711280648294 L 862.5 360.897112806483 L 863.5 359.5826994427731 L 863.5 359.5826994427731 L 864.5 358.23349026357573 L 864.5 358.23349026357573 L 865.5 356.8499451590964 L 865.5 356.8499451590965 L 866.5 355.43253572325295 L 866.5 355.432535723253 L 867.5 353.98174509292846 L 867.5 353.9817450929285 L 868.5 352.498067783289 L 868.5 352.498067783289 L 869.5 350.98200951922405 L 869.5 350.98200951922405 L 870.5 349.434087062966 L 870.5 349.434087062966 L 871.5 347.8548280379461 L 871.5 347.85482803794616 L 872.5 346.2447707489503 L 872.5 346.2447707489503 L 873.5 344.6044639986321 L 873.5 344.6044639986322 L 874.5 342.9344669004491 L 874.5 342.9344669004491 L 875.5 341.23534868808304 L 875.5 341.2353486880831 L 876.5 339.507688521413 L 876.5 339.50768852141306 L 877.5 337.7520752891016 L 877.5 337.75207528910164 L 878.5 335.96910740786836 L 878.5 335.96910740786836 L 879.5 334.15939261851304 L 879.5 334.1593926185131 L 880.5 332.3235477787623 L 880.5 332.3235477787623 L 881.5 330.46219865300736 L 881.5 330.4621986530074 L 882.5 328.5759796990079 L 882.5 328.5759796990079 L 883.5 326.6655338516295 L 883.5 326.6655338516295 L 884.5 324.73151230369535 L 884.5 324.73151230369535 L 885.5 322.77457428401965 L 885.5 322.7745742840197 L 886.5 320.79538683270437 L 886.5 320.7953868327044 L 887.5 318.79462457377275 L 887.5 318.7946245737728 L 888.5 316.7729694852166 L 888.5 316.7729694852166 L 889.5 314.7311106665391 L 889.5 314.7311106665391 L 890.5 312.669744103868 L 890.5 312.6697441038681 L 891.5 310.58957243272295" stroke-opacity="0.6980392156862745" stroke-linecap="round" stroke-linejoin="round" stroke-miterlimit="10" stroke-width="2.5"/></g></g></svg>