<svg version="1.1" xmlns="http://www.w3.org/2000/svg" xmlns:xlink="http://www.w3.org/1999/xlink" width="891" height="515"><defs><clipPath id="LFsqILWMUGHN"><path fill="none" stroke="none" d=" M 0 0 L 891 0 L 891 515 L 0 515 L 0 0 Z"/></clipPath></defs><g transform="scale(1,1)" clip-path="url(#LFsqILWMUGHN)"><g><rect fill="rgb(255,255,255)" stroke="none" x="0" y="0" width="892" height="515" fill-opacity="1"/><path fill="none" stroke="rgb(192,192,192)" paint-order="fill stroke markers" d=" M 2.5 0.5 L 2.5 515.5 M 2.5 0.5 L 2.5 515.5 M 53.5 0.5 L 53.5 515.5 M 104.5 0.5 L 104.5 515.5 M 155.5 0.5 L 155.5 515.5 M 206.5 0.5 L 206.5 515.5 M 257.5 0.5 L 257.5 515.5 M 308.5 0.5 L 308.5 515.5 M 359.5 0.5 L 359.5 515.5 M 410.5 0.5 L 410.5 515.5 M 512.5 0.5 L 512.5 515.5 M 563.5 0.5 L 563.5 515.5 M 614.5 0.5 L 614.5 515.5 M 665.5 0.5 L 665.5 515.5 M 716.5 0.5 L 716.5 515.5 M 767.5 0.5 L 767.5 515.5 M 818.5 0.5 L 818.5 515.5 M 869.5 0.5 L 869.5 515.5" stroke-opacity="1" stroke-linecap="round" stroke-linejoin="round" stroke-miterlimit="10"/><path fill="none" stroke="rgb(192,192,192)" paint-order="fill stroke markers" d=" M 12.5 0.5 L 12.5 515.5 M 22.5 0.5 L 22.5 515.5 M 32.5 0.5 L 32.5 515.5 M 42.5 0.5 L 42.5 515.5 M 63.5 0.5 L 63.5 515.5 M 73.5 0.5 L 73.5 515.5 M 83.5 0.5 L 83.5 515.5 M 93.5 0.5 L 93.5 515.5 M 114.5 0.5 L 114.5 515.5 M 124.5 0.5 L 124.5 515.5 M 134.5 0.5 L 134.5 515.5 M 145.5 0.5 L 145.5 515.5 M 165.5 0.5 L 165.5 515.5 M 175.5 0.5 L 175.5 515.5 M 185.5 0.5 L 185.5 515.5 M 196.5 0.5 L 196.5 515.5 M 216.5 0.5 L 216.5 515.5 M 226.5 0.5 L 226.5 515.5 M 236.5 0.5 L 236.5 515.5 M 247.5 0.5 L 247.5 515.5 M 267.5 0.5 L 267.5 515.5 M 277.5 0.5 L 277.5 515.5 M 287.5 0.5 L 287.5 515.5 M 298.5 0.5 L 298.5 515.5 M 318.5 0.5 L 318.5 515.5 M 328.5 0.5 L 328.5 515.5 M 338.5 0.5 L 338.5 515.5 M 349.5 0.5 L 349.5 515.5 M 369.5 0.5 L 369.5 515.5 M 379.5 0.5 L 379.5 515.5 M 390.5 0.5 L 390.5 515.5 M 400.5 0.5 L 400.5 515.5 M 420.5 0.5 L 420.5 515.5 M 430.5 0.5 L 430.5 515.5 M 441.5 0.5 L 441.5 515.5 M 451.5 0.5 L 451.5 515.5 M 471.5 0.5 L 471.5 515.5 M 481.5 0.5 L 481.5 515.5 M 492.5 0.5 L 492.5 515.5 M 502.5 0.5 L 502.5 515.5 M 522.5 0.5 L 522.5 515.5 M 532.5 0.5 L 532.5 515.5 M 543.5 0.5 L 543.5 515.5 M 553.5 0.5 L 553.5 515.5 M 573.5 0.5 L 573.5 515.5 M 584.5 0.5 L 584.5 515.5 M 594.5 0.5 L 594.5 515.5 M 604.5 0.5 L 604.5 515.5 M 624.5 0.5 L 624.5 515.5 M 635.5 0.5 L 635.5 515.5 M 645.5 0.5 L 645.5 515.5 M 655.5 0.5 L 655.5 515.5 M 675.5 0.5 L 675.5 515.5 M 686.5 0.5 L 686.5 515.5 M 696.5 0.5 L 696.5 515.5 M 706.5 0.5 L 706.5 515.5 M 726.5 0.5 L 726.5 515.5 M 737.5 0.5 L 737.5 515.5 M 747.5 0.5 L 747.5 515.5 M 757.5 0.5 L 757.5 515.5 M 777.5 0.5 L 777.5 515.5 M 788.5 0.5 L 788.5 515.5 M 798.5 0.5 L 798.5 515.5 M 808.5 0.5 L 808.5 515.5 M 829.5 0.5 L 829.5 515.5 M 839.5 0.5 L 839.5 515.5 M 849.5 0.5 L 849.5 515.5 M 859.5 0.5 L 859.5 515.5 M 880.5 0.5 L 880.5 515.5 M 890.5 0.5 L 890.5 515.5" stroke-opacity="0.23529411764705882" stroke-linecap="round" stroke-linejoin="round" stroke-miterlimit="10"/><path fill="none" stroke="rgb(192,192,192)" paint-order="fill stroke markers" d=" M 0.5 7.5 L 891.5 7.5 M 0.5 7.5 L 891.5 7.5 M 0.5 57.5 L 891.5 57.5 M 0.5 107.5 L 891.5 107.5 M 0.5 157.5 L 891.5 157.5 M 0.5 207.5 L 891.5 207.5 M 0.5 307.5 L 891.5 307.5 M 0.5 357.5 L 891.5 357.5 M 0.5 407.5 L 891.5 407.5 M 0.5 457.5 L 891.5 457.5 M 0.5 507.5 L 891.5 507.5" stroke-opacity="1" stroke-linecap="round" stroke-linejoin="round" stroke-miterlimit="10"/><path fill="none" stroke="rgb(192,192,192)" paint-order="fill stroke markers" d=" M 0.5 7.5 L 891.5 7.5 M 0.5 17.5 L 891.5 17.5 M 0.5 27.5 L 891.5 27.5 M 0.5 37.5 L 891.5 37.5 M 0.5 47.5 L 891.5 47.5 M 0.5 67.5 L 891.5 67.5 M 0.5 77.5 L 891.5 77.5 M 0.5 87.5 L 891.5 87.5 M 0.5 97.5 L 891.5 97.5 M 0.5 117.5 L 891.5 117.5 M 0.5 127.5 L 891.5 127.5 M 0.5 137.5 L 891.5 137.5 M 0.5 147.5 L 891.5 147.5 M 0.5 167.5 L 891.5 167.5 M 0.5 177.5 L 891.5 177.5 M 0.5 187.5 L 891.5 187.5 M 0.5 197.5 L 891.5 197.5 M 0.5 217.5 L 891.5 217.5 M 0.5 227.5 L 891.5 227.5 M 0.5 237.5 L 891.5 237.5 M 0.5 247.5 L 891.5 247.5 M 0.5 267.5 L 891.5 267.5 M 0.5 277.5 L 891.5 277.5 M 0.5 287.5 L 891.5 287.5 M 0.5 297.5 L 891.5 297.5 M 0.5 317.5 L 891.5 317.5 M 0.5 327.5 L 891.5 327.5 M 0.5 337.5 L 891.5 337.5 M 0.5 347.5 L 891.5 347.5 M 0.5 367.5 L 891.5 367.5 M 0.5 377.5 L 891.5 377.5 M 0.5 387.5 L 891.5 387.5 M 0.5 397.5 L 891.5 397.5 M 0.5 417.5 L 891.5 417.5 M 0.5 427.5 L 891.5 427.5 M 0.5 437.5 L 891.5 437.5 M 0.5 447.5 L 891.5 447.5 M 0.5 467.5 L 891.5 467.5 M 0.5 477.5 L 891.5 477.5 M 0.5 487.5 L 891.5 487.5 M 0.5 497.5 L 891.5 497.5" stroke-opacity="0.23529411764705882" stroke-linecap="round" stroke-linejoin="round" stroke-miterlimit="10"/><path fill="none" stroke="rgb(37,37,37)" paint-order="fill stroke markers" d=" M 461.5 2.5 L 461.5 515.5" stroke-opacity="1" stroke-miterlimit="10"/><path fill="none" stroke="rgb(37,37,37)" paint-order="fill stroke markers" d=" M 461.5 1.5 L 457.5 5.5" stroke-opacity="1" stroke-miterlimit="10"/><path fill="none" stroke="rgb(37,37,37)" paint-order="fill stroke markers" d=" M 461.5 1.5 L 465.5 5.5" stroke-opacity="1" stroke-miterlimit="10"/><path fill="none" stroke="rgb(37,37,37)" paint-order="fill stroke markers" d=" M 0.5 257.5 L 889.5 257.5" stroke-opacity="1" stroke-miterlimit="10"/><path fill="none" stroke="rgb(37,37,37)" paint-order="fill stroke markers" d=" M 890.5 257.5 L 886.5 253.5" stroke-opacity="1" stroke-miterlimit="10"/><path fill="none" stroke="rgb(37,37,37)" paint-order="fill stroke markers" d=" M 890.5 257.5 L 886.5 261.5" stroke-opacity="1" stroke-miterlimit="10"/><text fill="rgb(37,37,37)" stroke="none" font-family="geogebra-sans-serif, sans-serif" font-size="12px" font-style="normal" font-weight="normal" text-decoration="normal" x="42" y="273" text-anchor="start" dominant-baseline="alphabetic" fill-opacity="1">–0.8</text><text fill="none" stroke="rgb(255,255,255)" font-family="geogebra-sans-serif, sans-serif" font-size="12px" font-style="normal" font-weight="normal" text-decoration="normal" x="42" y="273" text-anchor="start" dominant-baseline="alphabetic" stroke-opacity="1" stroke-linejoin="bevel" stroke-miterlimit="10" stroke-width="3">–0.8</text><text fill="rgb(37,37,37)" stroke="none" font-family="geogebra-sans-serif, sans-serif" font-size="12px" font-style="normal" font-weight="normal" text-decoration="normal" x="42" y="273" text-anchor="start" dominant-baseline="alphabetic" fill-opacity="1">–0.8</text><text fill="rgb(37,37,37)" stroke="none" font-family="geogebra-sans-serif, sans-serif" font-size="12px" font-style="normal" font-weight="normal" text-decoration="normal" x="93" y="273" text-anchor="start" dominant-baseline="alphabetic" fill-opacity="1">–0.7</text><text fill="none" stroke="rgb(255,255,255)" font-family="geogebra-sans-serif, sans-serif" font-size="12px" font-style="normal" font-weight="normal" text-decoration="normal" x="93" y="273" text-anchor="start" dominant-baseline="alphabetic" stroke-opacity="1" stroke-linejoin="bevel" stroke-miterlimit="10" stroke-width="3">–0.7</text><text fill="rgb(37,37,37)" stroke="none" font-family="geogebra-sans-serif, sans-serif" font-size="12px" font-style="normal" font-weight="normal" text-decoration="normal" x="93" y="273" text-anchor="start" dominant-baseline="alphabetic" fill-opacity="1">–0.7</text><text fill="rgb(37,37,37)" stroke="none" font-family="geogebra-sans-serif, sans-serif" font-size="12px" font-style="normal" font-weight="normal" text-decoration="normal" x="144" y="273" text-anchor="start" dominant-baseline="alphabetic" fill-opacity="1">–0.6</text><text fill="none" stroke="rgb(255,255,255)" font-family="geogebra-sans-serif, sans-serif" font-size="12px" font-style="normal" font-weight="normal" text-decoration="normal" x="144" y="273" text-anchor="start" dominant-baseline="alphabetic" stroke-opacity="1" stroke-linejoin="bevel" stroke-miterlimit="10" stroke-width="3">–0.6</text><text fill="rgb(37,37,37)" stroke="none" font-family="geogebra-sans-serif, sans-serif" font-size="12px" font-style="normal" font-weight="normal" text-decoration="normal" x="144" y="273" text-anchor="start" dominant-baseline="alphabetic" fill-opacity="1">–0.6</text><text fill="rgb(37,37,37)" stroke="none" font-family="geogebra-sans-serif, sans-serif" font-size="12px" font-style="normal" font-weight="normal" text-decoration="normal" x="195" y="273" text-anchor="start" dominant-baseline="alphabetic" fill-opacity="1">–0.5</text><text fill="none" stroke="rgb(255,255,255)" font-family="geogebra-sans-serif, sans-serif" font-size="12px" font-style="normal" font-weight="normal" text-decoration="normal" x="195" y="273" text-anchor="start" dominant-baseline="alphabetic" stroke-opacity="1" stroke-linejoin="bevel" stroke-miterlimit="10" stroke-width="3">–0.5</text><text fill="rgb(37,37,37)" stroke="none" font-family="geogebra-sans-serif, sans-serif" font-size="12px" font-style="normal" font-weight="normal" text-decoration="normal" x="195" y="273" text-anchor="start" dominant-baseline="alphabetic" fill-opacity="1">–0.5</text><text fill="rgb(37,37,37)" stroke="none" font-family="geogebra-sans-serif, sans-serif" font-size="12px" font-style="normal" font-weight="normal" text-decoration="normal" x="246" y="273" text-anchor="start" dominant-baseline="alphabetic" fill-opacity="1">–0.4</text><text fill="none" stroke="rgb(255,255,255)" font-family="geogebra-sans-serif, sans-serif" font-size="12px" font-style="normal" font-weight="normal" text-decoration="normal" x="246" y="273" text-anchor="start" dominant-baseline="alphabetic" stroke-opacity="1" stroke-linejoin="bevel" stroke-miterlimit="10" stroke-width="3">–0.4</text><text fill="rgb(37,37,37)" stroke="none" font-family="geogebra-sans-serif, sans-serif" font-size="12px" font-style="normal" font-weight="normal" text-decoration="normal" x="246" y="273" text-anchor="start" dominant-baseline="alphabetic" fill-opacity="1">–0.4</text><text fill="rgb(37,37,37)" stroke="none" font-family="geogebra-sans-serif, sans-serif" font-size="12px" font-style="normal" font-weight="normal" text-decoration="normal" x="297" y="273" text-anchor="start" dominant-baseline="alphabetic" fill-opacity="1">–0.3</text><text fill="none" stroke="rgb(255,255,255)" font-family="geogebra-sans-serif, sans-serif" font-size="12px" font-style="normal" font-weight="normal" text-decoration="normal" x="297" y="273" text-anchor="start" dominant-baseline="alphabetic" stroke-opacity="1" stroke-linejoin="bevel" stroke-miterlimit="10" stroke-width="3">–0.3</text><text fill="rgb(37,37,37)" stroke="none" font-family="geogebra-sans-serif, sans-serif" font-size="12px" font-style="normal" font-weight="normal" text-decoration="normal" x="297" y="273" text-anchor="start" dominant-baseline="alphabetic" fill-opacity="1">–0.3</text><text fill="rgb(37,37,37)" stroke="none" font-family="geogebra-sans-serif, sans-serif" font-size="12px" font-style="normal" font-weight="normal" text-decoration="normal" x="348" y="273" text-anchor="start" dominant-baseline="alphabetic" fill-opacity="1">–0.2</text><text fill="none" stroke="rgb(255,255,255)" font-family="geogebra-sans-serif, sans-serif" font-size="12px" font-style="normal" font-weight="normal" text-decoration="normal" x="348" y="273" text-anchor="start" dominant-baseline="alphabetic" stroke-opacity="1" stroke-linejoin="bevel" stroke-miterlimit="10" stroke-width="3">–0.2</text><text fill="rgb(37,37,37)" stroke="none" font-family="geogebra-sans-serif, sans-serif" font-size="12px" font-style="normal" font-weight="normal" text-decoration="normal" x="348" y="273" text-anchor="start" dominant-baseline="alphabetic" fill-opacity="1">–0.2</text><text fill="rgb(37,37,37)" stroke="none" font-family="geogebra-sans-serif, sans-serif" font-size="12px" font-style="normal" font-weight="normal" text-decoration="normal" x="399" y="273" text-anchor="start" dominant-baseline="alphabetic" fill-opacity="1">–0.1</text><text fill="none" stroke="rgb(255,255,255)" font-family="geogebra-sans-serif, sans-serif" font-size="12px" font-style="normal" font-weight="normal" text-decoration="normal" x="399" y="273" text-anchor="start" dominant-baseline="alphabetic" stroke-opacity="1" stroke-linejoin="bevel" stroke-miterlimit="10" stroke-width="3">–0.1</text><text fill="rgb(37,37,37)" stroke="none" font-family="geogebra-sans-serif, sans-serif" font-size="12px" font-style="normal" font-weight="normal" text-decoration="normal" x="399" y="273" text-anchor="start" dominant-baseline="alphabetic" fill-opacity="1">–0.1</text><text fill="rgb(37,37,37)" stroke="none" font-family="geogebra-sans-serif, sans-serif" font-size="12px" font-style="normal" font-weight="normal" text-decoration="normal" x="504" y="273" text-anchor="start" dominant-baseline="alphabetic" fill-opacity="1">0.1</text><text fill="none" stroke="rgb(255,255,255)" font-family="geogebra-sans-serif, sans-serif" font-size="12px" font-style="normal" font-weight="normal" text-decoration="normal" x="504" y="273" text-anchor="start" dominant-baseline="alphabetic" stroke-opacity="1" stroke-linejoin="bevel" stroke-miterlimit="10" stroke-width="3">0.1</text><text fill="rgb(37,37,37)" stroke="none" font-family="geogebra-sans-serif, sans-serif" font-size="12px" font-style="normal" font-weight="normal" text-decoration="normal" x="504" y="273" text-anchor="start" dominant-baseline="alphabetic" fill-opacity="1">0.1</text><text fill="rgb(37,37,37)" stroke="none" font-family="geogebra-sans-serif, sans-serif" font-size="12px" font-style="normal" font-weight="normal" text-decoration="normal" x="555" y="273" text-anchor="start" dominant-baseline="alphabetic" fill-opacity="1">0.2</text><text fill="none" stroke="rgb(255,255,255)" font-family="geogebra-sans-serif, sans-serif" font-size="12px" font-style="normal" font-weight="normal" text-decoration="normal" x="555" y="273" text-anchor="start" dominant-baseline="alphabetic" stroke-opacity="1" stroke-linejoin="bevel" stroke-miterlimit="10" stroke-width="3">0.2</text><text fill="rgb(37,37,37)" stroke="none" font-family="geogebra-sans-serif, sans-serif" font-size="12px" font-style="normal" font-weight="normal" text-decoration="normal" x="555" y="273" text-anchor="start" dominant-baseline="alphabetic" fill-opacity="1">0.2</text><text fill="rgb(37,37,37)" stroke="none" font-family="geogebra-sans-serif, sans-serif" font-size="12px" font-style="normal" font-weight="normal" text-decoration="normal" x="606" y="273" text-anchor="start" dominant-baseline="alphabetic" fill-opacity="1">0.3</text><text fill="none" stroke="rgb(255,255,255)" font-family="geogebra-sans-serif, sans-serif" font-size="12px" font-style="normal" font-weight="normal" text-decoration="normal" x="606" y="273" text-anchor="start" dominant-baseline="alphabetic" stroke-opacity="1" stroke-linejoin="bevel" stroke-miterlimit="10" stroke-width="3">0.3</text><text fill="rgb(37,37,37)" stroke="none" font-family="geogebra-sans-serif, sans-serif" font-size="12px" font-style="normal" font-weight="normal" text-decoration="normal" x="606" y="273" text-anchor="start" dominant-baseline="alphabetic" fill-opacity="1">0.3</text><text fill="rgb(37,37,37)" stroke="none" font-family="geogebra-sans-serif, sans-serif" font-size="12px" font-style="normal" font-weight="normal" text-decoration="normal" x="657" y="273" text-anchor="start" dominant-baseline="alphabetic" fill-opacity="1">0.4</text><text fill="none" stroke="rgb(255,255,255)" font-family="geogebra-sans-serif, sans-serif" font-size="12px" font-style="normal" font-weight="normal" text-decoration="normal" x="657" y="273" text-anchor="start" dominant-baseline="alphabetic" stroke-opacity="1" stroke-linejoin="bevel" stroke-miterlimit="10" stroke-width="3">0.4</text><text fill="rgb(37,37,37)" stroke="none" font-family="geogebra-sans-serif, sans-serif" font-size="12px" font-style="normal" font-weight="normal" text-decoration="normal" x="657" y="273" text-anchor="start" dominant-baseline="alphabetic" fill-opacity="1">0.4</text><text fill="rgb(37,37,37)" stroke="none" font-family="geogebra-sans-serif, sans-serif" font-size="12px" font-style="normal" font-weight="normal" text-decoration="normal" x="708" y="273" text-anchor="start" dominant-baseline="alphabetic" fill-opacity="1">0.5</text><text fill="none" stroke="rgb(255,255,255)" font-family="geogebra-sans-serif, sans-serif" font-size="12px" font-style="normal" font-weight="normal" text-decoration="normal" x="708" y="273" text-anchor="start" dominant-baseline="alphabetic" stroke-opacity="1" stroke-linejoin="bevel" stroke-miterlimit="10" stroke-width="3">0.5</text><text fill="rgb(37,37,37)" stroke="none" font-family="geogebra-sans-serif, sans-serif" font-size="12px" font-style="normal" font-weight="normal" text-decoration="normal" x="708" y="273" text-anchor="start" dominant-baseline="alphabetic" fill-opacity="1">0.5</text><text fill="rgb(37,37,37)" stroke="none" font-family="geogebra-sans-serif, sans-serif" font-size="12px" font-style="normal" font-weight="normal" text-decoration="normal" x="759" y="273" text-anchor="start" dominant-baseline="alphabetic" fill-opacity="1">0.6</text><text fill="none" stroke="rgb(255,255,255)" font-family="geogebra-sans-serif, sans-serif" font-size="12px" font-style="normal" font-weight="normal" text-decoration="normal" x="759" y="273" text-anchor="start" dominant-baseline="alphabetic" stroke-opacity="1" stroke-linejoin="bevel" stroke-miterlimit="10" stroke-width="3">0.6</text><text fill="rgb(37,37,37)" stroke="none" font-family="geogebra-sans-serif, sans-serif" font-size="12px" font-style="normal" font-weight="normal" text-decoration="normal" x="759" y="273" text-anchor="start" dominant-baseline="alphabetic" fill-opacity="1">0.6</text><text fill="rgb(37,37,37)" stroke="none" font-family="geogebra-sans-serif, sans-serif" font-size="12px" font-style="normal" font-weight="normal" text-decoration="normal" x="810" y="273" text-anchor="start" dominant-baseline="alphabetic" fill-opacity="1">0.7</text><text fill="none" stroke="rgb(255,255,255)" font-family="geogebra-sans-serif, sans-serif" font-size="12px" font-style="normal" font-weight="normal" text-decoration="normal" x="810" y="273" text-anchor="start" dominant-baseline="alphabetic" stroke-opacity="1" stroke-linejoin="bevel" stroke-miterlimit="10" stroke-width="3">0.7</text><text fill="rgb(37,37,37)" stroke="none" font-family="geogebra-sans-serif, sans-serif" font-size="12px" font-style="normal" font-weight="normal" text-decoration="normal" x="810" y="273" text-anchor="start" dominant-baseline="alphabetic" fill-opacity="1">0.7</text><text fill="rgb(37,37,37)" stroke="none" font-family="geogebra-sans-serif, sans-serif" font-size="12px" font-style="normal" font-weight="normal" text-decoration="normal" x="861" y="273" text-anchor="start" dominant-baseline="alphabetic" fill-opacity="1">0.8</text><text fill="none" stroke="rgb(255,255,255)" font-family="geogebra-sans-serif, sans-serif" font-size="12px" font-style="normal" font-weight="normal" text-decoration="normal" x="861" y="273" text-anchor="start" dominant-baseline="alphabetic" stroke-opacity="1" stroke-linejoin="bevel" stroke-miterlimit="10" stroke-width="3">0.8</text><text fill="rgb(37,37,37)" stroke="none" font-family="geogebra-sans-serif, sans-serif" font-size="12px" font-style="normal" font-weight="normal" text-decoration="normal" x="861" y="273" text-anchor="start" dominant-baseline="alphabetic" fill-opacity="1">0.8</text><text fill="rgb(37,37,37)" stroke="none" font-family="geogebra-sans-serif, sans-serif" font-size="12px" font-style="normal" font-weight="normal" text-decoration="normal" x="440" y="462" text-anchor="start" dominant-baseline="alphabetic" fill-opacity="1">–4</text><text fill="none" stroke="rgb(255,255,255)" font-family="geogebra-sans-serif, sans-serif" font-size="12px" font-style="normal" font-weight="normal" text-decoration="normal" x="440" y="462" text-anchor="start" dominant-baseline="alphabetic" stroke-opacity="1" stroke-linejoin="bevel" stroke-miterlimit="10" stroke-width="3">–4</text><text fill="rgb(37,37,37)" stroke="none" font-family="geogebra-sans-serif, sans-serif" font-size="12px" font-style="normal" font-weight="normal" text-decoration="normal" x="440" y="462" text-anchor="start" dominant-baseline="alphabetic" fill-opacity="1">–4</text><text fill="rgb(37,37,37)" stroke="none" font-family="geogebra-sans-serif, sans-serif" font-size="12px" font-style="normal" font-weight="normal" text-decoration="normal" x="440" y="412" text-anchor="start" dominant-baseline="alphabetic" fill-opacity="1">–3</text><text fill="none" stroke="rgb(255,255,255)" font-family="geogebra-sans-serif, sans-serif" font-size="12px" font-style="normal" font-weight="normal" text-decoration="normal" x="440" y="412" text-anchor="start" dominant-baseline="alphabetic" stroke-opacity="1" stroke-linejoin="bevel" stroke-miterlimit="10" stroke-width="3">–3</text><text fill="rgb(37,37,37)" stroke="none" font-family="geogebra-sans-serif, sans-serif" font-size="12px" font-style="normal" font-weight="normal" text-decoration="normal" x="440" y="412" text-anchor="start" dominant-baseline="alphabetic" fill-opacity="1">–3</text><text fill="rgb(37,37,37)" stroke="none" font-family="geogebra-sans-serif, sans-serif" font-size="12px" font-style="normal" font-weight="normal" text-decoration="normal" x="440" y="362" text-anchor="start" dominant-baseline="alphabetic" fill-opacity="1">–2</text><text fill="none" stroke="rgb(255,255,255)" font-family="geogebra-sans-serif, sans-serif" font-size="12px" font-style="normal" font-weight="normal" text-decoration="normal" x="440" y="362" text-anchor="start" dominant-baseline="alphabetic" stroke-opacity="1" stroke-linejoin="bevel" stroke-miterlimit="10" stroke-width="3">–2</text><text fill="rgb(37,37,37)" stroke="none" font-family="geogebra-sans-serif, sans-serif" font-size="12px" font-style="normal" font-weight="normal" text-decoration="normal" x="440" y="362" text-anchor="start" dominant-baseline="alphabetic" fill-opacity="1">–2</text><text fill="rgb(37,37,37)" stroke="none" font-family="geogebra-sans-serif, sans-serif" font-size="12px" font-style="normal" font-weight="normal" text-decoration="normal" x="440" y="312" text-anchor="start" dominant-baseline="alphabetic" fill-opacity="1">–1</text><text fill="none" stroke="rgb(255,255,255)" font-family="geogebra-sans-serif, sans-serif" font-size="12px" font-style="normal" font-weight="normal" text-decoration="normal" x="440" y="312" text-anchor="start" dominant-baseline="alphabetic" stroke-opacity="1" stroke-linejoin="bevel" stroke-miterlimit="10" stroke-width="3">–1</text><text fill="rgb(37,37,37)" stroke="none" font-family="geogebra-sans-serif, sans-serif" font-size="12px" font-style="normal" font-weight="normal" text-decoration="normal" x="440" y="312" text-anchor="start" dominant-baseline="alphabetic" fill-opacity="1">–1</text><text fill="rgb(37,37,37)" stroke="none" font-family="geogebra-sans-serif, sans-serif" font-size="12px" font-style="normal" font-weight="normal" text-decoration="normal" x="446" y="212" text-anchor="start" dominant-baseline="alphabetic" fill-opacity="1">1</text><text fill="none" stroke="rgb(255,255,255)" font-family="geogebra-sans-serif, sans-serif" font-size="12px" font-style="normal" font-weight="normal" text-decoration="normal" x="446" y="212" text-anchor="start" dominant-baseline="alphabetic" stroke-opacity="1" stroke-linejoin="bevel" stroke-miterlimit="10" stroke-width="3">1</text><text fill="rgb(37,37,37)" stroke="none" font-family="geogebra-sans-serif, sans-serif" font-size="12px" font-style="normal" font-weight="normal" text-decoration="normal" x="446" y="212" text-anchor="start" dominant-baseline="alphabetic" fill-opacity="1">1</text><text fill="rgb(37,37,37)" stroke="none" font-family="geogebra-sans-serif, sans-serif" font-size="12px" font-style="normal" font-weight="normal" text-decoration="normal" x="446" y="162" text-anchor="start" dominant-baseline="alphabetic" fill-opacity="1">2</text><text fill="none" stroke="rgb(255,255,255)" font-family="geogebra-sans-serif, sans-serif" font-size="12px" font-style="normal" font-weight="normal" text-decoration="normal" x="446" y="162" text-anchor="start" dominant-baseline="alphabetic" stroke-opacity="1" stroke-linejoin="bevel" stroke-miterlimit="10" stroke-width="3">2</text><text fill="rgb(37,37,37)" stroke="none" font-family="geogebra-sans-serif, sans-serif" font-size="12px" font-style="normal" font-weight="normal" text-decoration="normal" x="446" y="162" text-anchor="start" dominant-baseline="alphabetic" fill-opacity="1">2</text><text fill="rgb(37,37,37)" stroke="none" font-family="geogebra-sans-serif, sans-serif" font-size="12px" font-style="normal" font-weight="normal" text-decoration="normal" x="446" y="112" text-anchor="start" dominant-baseline="alphabetic" fill-opacity="1">3</text><text fill="none" stroke="rgb(255,255,255)" font-family="geogebra-sans-serif, sans-serif" font-size="12px" font-style="normal" font-weight="normal" text-decoration="normal" x="446" y="112" text-anchor="start" dominant-baseline="alphabetic" stroke-opacity="1" stroke-linejoin="bevel" stroke-miterlimit="10" stroke-width="3">3</text><text fill="rgb(37,37,37)" stroke="none" font-family="geogebra-sans-serif, sans-serif" font-size="12px" font-style="normal" font-weight="normal" text-decoration="normal" x="446" y="112" text-anchor="start" dominant-baseline="alphabetic" fill-opacity="1">3</text><text fill="rgb(37,37,37)" stroke="none" font-family="geogebra-sans-serif, sans-serif" font-size="12px" font-style="normal" font-weight="normal" text-decoration="normal" x="446" y="62" text-anchor="start" dominant-baseline="alphabetic" fill-opacity="1">4</text><text fill="none" stroke="rgb(255,255,255)" font-family="geogebra-sans-serif, sans-serif" font-size="12px" font-style="normal" font-weight="normal" text-decoration="normal" x="446" y="62" text-anchor="start" dominant-baseline="alphabetic" stroke-opacity="1" stroke-linejoin="bevel" stroke-miterlimit="10" stroke-width="3">4</text><text fill="rgb(37,37,37)" stroke="none" font-family="geogebra-sans-serif, sans-serif" font-size="12px" font-style="normal" font-weight="normal" text-decoration="normal" x="446" y="62" text-anchor="start" dominant-baseline="alphabetic" fill-opacity="1">4</text><text fill="rgb(37,37,37)" stroke="none" font-family="geogebra-sans-serif, sans-serif" font-size="12px" font-style="normal" font-weight="normal" text-decoration="normal" x="446" y="273" text-anchor="start" dominant-baseline="alphabetic" fill-opacity="1">0</text><text fill="none" stroke="rgb(255,255,255)" font-family="geogebra-sans-serif, sans-serif" font-size="12px" font-style="normal" font-weight="normal" text-decoration="normal" x="446" y="273" text-anchor="start" dominant-baseline="alphabetic" stroke-opacity="1" stroke-linejoin="bevel" stroke-miterlimit="10" stroke-width="3">0</text><text fill="rgb(37,37,37)" stroke="none" font-family="geogebra-sans-serif, sans-serif" font-size="12px" font-style="normal" font-weight="normal" text-decoration="normal" x="446" y="273" text-anchor="start" dominant-baseline="alphabetic" fill-opacity="1">0</text><path fill="none" stroke="rgb(153,51,255)" paint-order="fill stroke markers" d=" M 0.5 404.8372425526418 L 0.5 405.17240550339557 L 0.5 405.1724055033955 L 1.5 405.4851967762313 L 1.5 405.48519677623125 L 2.5 405.77556898473597 L 2.5 405.77556898473597 L 3.5 406.04347813887966 L 3.5 406.04347813887966 L 4.5 406.2888836516802 L 4.5 406.2888836516802 L 5.5 406.5117483453515 L 5.5 406.5117483453515 L 6.499999999999943 406.71203845693617 L 6.499999999999943 406.71203845693617 L 7.5 406.8897236434201 L 7.5 406.8897236434201 L 8.5 407.0447769863297 L 8.5 407.0447769863297 L 9.5 407.17717499580954 L 9.5 407.17717499580954 L 10.5 407.28689761418116 L 10.5 407.28689761418116 L 11.5 407.37392821898175 L 11.5 407.37392821898175 L 12.5 407.43825362548216 L 12.5 407.43825362548216 L 13.5 407.4798640886846 L 13.5 407.47986408868456 L 14.5 407.4987533047987 L 14.5 407.4949184121966 L 15.5 407.5 L 15.5 407.4949184121966 L 16.5 407.4683599918467 L 16.5 407.4683599918467 L 17.5 407.4190820672252 L 17.5 407.41908206722525 L 18.5 407.34709210370704 L 18.5 407.34709210370704 L 19.5 407.2524010074345 L 19.5 407.25240100743457 L 20.5 407.1350231236653 L 20.5 407.13502312366535 L 21.5 406.9949762345991 L 21.5 406.99497623459916 L 22.5 406.83228155668394 L 22.5 406.83228155668394 L 23.5 406.64696373740145 L 23.5 406.6469637374015 L 24.5 406.43905085153364 L 24.5 406.4390508515337 L 25.5 406.208574396909 L 25.5 406.20857439690906 L 26.5 405.95556928963117 L 26.5 405.9555692896312 L 27.5 405.6800738587891 L 27.5 405.68007385878917 L 28.5 405.3821298406506 L 28.5 405.38212984065063 L 29.5 405.06178237233905 L 29.5 405.0617823723391 L 30.5 404.7190799849959 L 30.5 404.7190799849959 L 31.5 404.35407459642795 L 31.5 404.354074596428 L 32.5 403.9668215032425 L 32.5 403.9668215032425 L 33.5 403.55737937246954 L 33.5 403.5573793724696 L 34.5 403.1258102326748 L 34.5 403.1258102326748 L 35.5 402.67217946456174 L 35.5 402.6721794645618 L 36.5 402.1965557910677 L 36.5 402.1965557910677 L 37.5 401.69901126695186 L 37.5 401.69901126695186 L 38.5 401.1796212678797 L 38.5 401.1796212678798 L 39.5 400.638464479004 L 39.5 400.638464479004 L 40.5 400.0756228830442 L 40.5 400.0756228830443 L 41.5 399.4911817478663 L 41.5 399.49118174786634 L 42.5 398.88522961356557 L 42.5 398.88522961356557 L 43.5 398.2578582790528 L 43.5 398.2578582790528 L 44.5 397.60916278814733 L 44.5 397.6091627881474 L 45.5 396.93924141517834 L 45.5 396.93924141517834 L 46.5 396.24819565009665 L 46.5 396.2481956500967 L 47.5 395.53613018309983 L 47.5 395.5361301830999 L 48.5 394.8031528887716 L 48.5 394.8031528887716 L 49.5 394.0493748097397 L 49.5 394.04937480973973 L 50.5 393.2749101398534 L 50.5 393.27491013985343 L 51.5 392.47987620688343 L 51.5 392.47987620688343 L 52.5 391.6643934547478 L 52.5 391.6643934547478 L 53.5 390.82858542526463 L 53.5 390.82858542526463 L 54.5 389.9725787394366 L 54.5 389.9725787394366 L 55.5 389.0965030782679 L 55.5 389.09650307826803 L 56.5 388.20049116311895 L 56.5 388.20049116311895 L 57.5 387.2846787355991 L 57.5 387.28467873559913 L 58.5 386.3492045370024 L 58.5 386.3492045370024 L 59.5 385.3942102872895 L 59.5 385.3942102872895 L 60.5 384.4198406636172 L 60.5 384.41984066361726 L 61.50000000000006 383.4262432784207 L 61.50000000000006 383.4262432784207 L 62.5 382.4135686570511 L 62.5 382.4135686570511 L 63.5 381.38197021497126 L 63.5 381.3819702149713 L 64.5 380.33160423451466 L 64.5 380.33160423451466 L 65.5 379.26262984120837 L 65.5 379.26262984120837 L 66.5 378.17520897966756 L 66.5 378.1752089796676 L 67.5 377.0695063890604 L 67.5 377.0695063890604 L 68.5 375.9456895781518 L 68.5 375.94568957815187 L 69.5 374.803928799926 L 69.5 374.803928799926 L 70.5 373.6443970257942 L 70.5 373.64439702579426 L 71.5 372.46726991939045 L 71.5 372.46726991939045 L 72.5 371.27272580995907 L 72.5 371.2727258099591 L 73.5 370.06094566533875 L 73.5 370.06094566533875 L 74.5 368.8321130645473 L 74.5 368.83211306454734 L 75.5 367.58641416996886 L 75.5 367.5864141699689 L 76.5 366.3240376991532 L 76.5 366.3240376991532 L 77.5 365.045174896224 L 77.5 365.045174896224 L 78.5 363.7500195029072 L 78.5 363.75001950290726 L 79.5 362.4387677291801 L 79.5 362.4387677291801 L 80.50000000000006 361.11161822354603 L 80.50000000000006 361.1116182235461 L 81.5 359.7687720429404 L 81.5 359.76877204294044 L 82.5 358.4104326222711 L 82.5 358.4104326222712 L 83.5 357.03680574360004 L 83.5 357.0368057436001 L 84.5 355.64809950496647 L 84.5 355.6480995049665 L 85.5 354.24452428886303 L 85.5 354.2445242888631 L 86.5 352.8262927303621 L 86.5 352.8262927303622 L 87.5 351.39361968490357 L 87.5 351.3936196849036 L 88.5 349.94672219574494 L 88.5 349.946722195745 L 89.5 348.4858194610803 L 89.5 348.4858194610804 L 90.5 347.01113280083274 L 90.5 347.0111328008328 L 91.5 345.522885623126 L 91.5 345.52288562312606 L 92.5 344.0213033904382 L 92.5 344.0213033904383 L 93.5 342.50661358544613 L 93.5 342.5066135854462 L 94.5 340.97904567656195 L 94.5 340.979045676562 L 95.5 339.4388310831711 L 95.5 339.4388310831711 L 96.5 337.8862031405718 L 96.5 337.88620314057187 L 97.5 336.32139706462675 L 97.5 336.32139706462675 L 98.5 334.74464991612876 L 98.5 334.7446499161288 L 99.50000000000006 333.15620056488723 L 99.50000000000006 333.15620056488723 L 100.5 331.55628965354083 L 100.5 331.55628965354083 L 101.5 329.9451595611002 L 101.5 329.9451595611002 L 102.5 328.3230543662302 L 102.5 328.3230543662302 L 103.5 326.6902198102718 L 103.5 326.69021981027186 L 104.5 325.046903260014 L 104.5 325.046903260014 L 105.5 323.39335367021886 L 105.5 323.39335367021886 L 106.5 321.729821545906 L 106.5 321.729821545906 L 107.5 320.05655890440244 L 107.5 320.05655890440244 L 108.5 318.3738192371627 L 108.5 318.37381923716276 L 109.5 316.6818574713664 L 109.5 316.68185747136647 L 110.5 314.9809299312984 L 110.5 314.9809299312985 L 111.5 313.27129429951555 L 111.5 313.27129429951555 L 112.5 311.5532095778106 L 112.5 311.5532095778106 L 113.5 309.8269360479734 L 113.5 309.8269360479734 L 114.5 308.0927352323598 L 114.5 308.0927352323598 L 115.5 306.3508698542727 L 115.5 306.3508698542727 L 116.50000000000006 304.60160379815966 L 116.50000000000006 304.60160379815966 L 117.5 302.8452020696375 L 117.5 302.8452020696375 L 118.50000000000006 301.08193075534285 L 118.50000000000006 301.08193075534285 L 119.5 299.3120569826229 L 119.5 299.3120569826229 L 120.5 297.53584887906607 L 120.5 297.53584887906607 L 121.5 295.7535755318829 L 121.5 295.7535755318829 L 122.5 293.9655069471394 L 122.5 293.9655069471394 L 123.5 292.1719140088529 L 123.5 292.1719140088529 L 124.5 290.37306843795466 L 124.5 290.37306843795466 L 125.5 288.56924275112505 L 125.5 288.56924275112505 L 126.5 286.7607102195085 L 126.5 286.7607102195085 L 127.5 284.9477448273151 L 127.5 284.9477448273151 L 128.5 283.13062123031153 L 128.5 283.13062123031153 L 129.5 281.30961471421415 L 129.5 281.30961471421415 L 130.5 279.4850011529825 L 130.5 279.4850011529825 L 131.5 277.6570569670268 L 131.5 277.6570569670268 L 132.5 275.8260590813315 L 132.5 275.8260590813315 L 133.5 273.99228488350195 L 133.5 273.99228488350195 L 134.5 272.1560121817422 L 134.5 272.15601218174226 L 135.50000000000006 270.31751916276755 L 135.50000000000006 270.31751916276755 L 136.5 268.47708434966137 L 136.5 268.47708434966137 L 137.50000000000006 266.6349865596792 L 137.50000000000006 266.6349865596792 L 138.5 264.7915048620104 L 138.5 264.7915048620104 L 139.5 262.9469185354994 L 139.5 262.9469185354994 L 140.5 261.10150702633695 L 140.5 261.10150702633695 L 141.5 259.255549905725 L 141.5 259.255549905725 L 142.5 257.4093268275232 L 142.5 257.4093268275232 L 143.5 255.56311748588237 L 143.5 255.56311748588237 L 144.5 253.71720157287257 L 144.5 253.71720157287257 L 145.5 251.8718587361105 L 145.5 251.8718587361105 L 146.5 250.02736853639462 L 146.5 250.02736853639462 L 147.5 248.1840104053526 L 147.5 248.1840104053526 L 148.5 246.3420636031098 L 148.5 246.34206360310984 L 149.5 244.50180717598113 L 149.5 244.50180717598113 L 150.5 242.6635199141977 L 150.5 242.66351991419774 L 151.5 240.8274803096714 L 151.5 240.8274803096714 L 152.5 238.99396651380468 L 152.5 238.99396651380468 L 153.5 237.16325629535152 L 153.5 237.16325629535154 L 154.50000000000006 235.33562699833737 L 154.50000000000006 235.33562699833737 L 155.5 233.51135550004244 L 155.5 233.51135550004244 L 156.50000000000006 231.6907181690558 L 156.50000000000006 231.69071816905583 L 157.5 229.8739908234078 L 157.5 229.87399082340784 L 158.5 228.06144868878386 L 158.5 228.06144868878386 L 159.5 226.25336635682956 L 159.5 226.2533663568296 L 160.5 224.4500177435512 L 160.5 224.4500177435512 L 161.5 222.65167604781954 L 161.5 222.65167604781954 L 162.5 220.85861370997992 L 162.5 220.85861370997992 L 163.5 219.0711023705801 L 163.5 219.07110237058012 L 164.5 217.28941282921735 L 164.5 217.28941282921738 L 165.5 215.5138150035142 L 165.5 215.5138150035142 L 166.5 213.74457788822627 L 166.5 213.7445778882263 L 167.5 211.98196951449188 L 167.5 211.98196951449188 L 168.5 210.22625690922547 L 168.5 210.22625690922547 L 169.5 208.4777060546654 L 169.5 208.4777060546654 L 170.5 206.73658184807783 L 170.5 206.73658184807783 L 171.50000000000006 205.00314806162703 L 171.50000000000006 205.00314806162703 L 172.5 203.27766730241424 L 172.5 203.27766730241427 L 173.50000000000006 201.56040097269423 L 173.50000000000006 201.56040097269425 L 174.5 199.85160923027485 L 174.5 199.85160923027487 L 175.50000000000006 198.151550949103 L 175.50000000000006 198.151550949103 L 176.5 196.46048368004725 L 176.5 196.46048368004728 L 177.5 194.7786636118799 L 177.5 194.7786636118799 L 178.5 193.1063455324659 L 178.5 193.10634553246592 L 179.5 191.44378279016297 L 179.5 191.443782790163 L 180.5 189.79122725544147 L 180.5 189.79122725544147 L 181.5 188.14892928272607 L 181.5 188.1489292827261 L 182.5 186.5171376724694 L 182.5 186.5171376724694 L 183.5 184.89609963345887 L 183.5 184.89609963345887 L 184.5 183.28606074536668 L 184.5 183.28606074536668 L 185.5 181.6872649215448 L 185.5 181.6872649215448 L 186.5 180.09995437207374 L 186.5 180.0999543720738 L 187.5 178.52436956706856 L 187.5 178.5243695670686 L 188.5 176.96074920024955 L 188.5 176.96074920024955 L 189.5 175.40933015277994 L 189.5 175.40933015277997 L 190.50000000000006 173.87034745738043 L 190.50000000000006 173.87034745738043 L 191.5 172.34403426272274 L 191.5 172.3440342627228 L 192.5 170.83062179810867 L 192.5 170.8306217981087 L 193.5 169.33033933843944 L 193.5 169.33033933843947 L 194.50000000000006 167.84341416948217 L 194.50000000000006 167.84341416948217 L 195.5 166.3700715534372 L 195.5 166.37007155343724 L 196.49999999999994 164.9105346948115 L 196.49999999999994 164.91053469481153 L 197.5 163.4650247066043 L 197.5 163.4650247066043 L 198.5 162.0337605768101 L 198.5 162.0337605768101 L 199.50000000000006 160.61695913524187 L 199.50000000000006 160.61695913524193 L 200.5 159.21483502068395 L 200.5 159.214835020684 L 201.5 157.82760064837368 L 201.5 157.82760064837373 L 202.5 156.45546617782233 L 202.5 156.45546617782236 L 203.50000000000006 155.0986394809767 L 203.50000000000006 155.09863948097671 L 204.5 153.75732611072775 L 204.5 153.75732611072777 L 205.49999999999997 152.43172926977013 L 205.49999999999997 152.43172926977013 L 206.5 151.12204977981764 L 206.5 151.12204977981767 L 207.5 149.82848605118014 L 207.5 149.82848605118016 L 208.5 148.55123405270496 L 208.5 148.55123405270496 L 209.5 147.2904872820888 L 209.5 147.29048728208883 L 210.5 146.0464367365638 L 210.5 146.04643673656383 L 211.5 144.8192708839619 L 211.5 144.81927088396193 L 212.5 143.60917563416325 L 212.5 143.60917563416325 L 213.5 142.41633431093146 L 213.5 142.4163343109315 L 214.5 141.2409276241413 L 214.5 141.24092762414134 L 215.5 140.08313364240178 L 215.5 140.08313364240178 L 216.5 138.94312776607933 L 216.5 138.94312776607939 L 217.50000000000003 137.8210827007257 L 217.50000000000003 137.8210827007257 L 218.50000000000003 136.71716843091428 L 218.50000000000003 136.71716843091434 L 219.50000000000003 135.63155219448748 L 219.50000000000003 135.63155219448754 L 220.50000000000003 134.5643984572214 L 220.50000000000003 134.56439845722142 L 221.50000000000003 133.51586888790987 L 221.50000000000003 133.5158688879099 L 222.50000000000003 132.4861223338728 L 222.50000000000003 132.48612233387283 L 223.5 131.47531479689104 L 223.5 131.4753147968911 L 224.5 130.48359940957306 L 224.5 130.4835994095731 L 225.5 129.51112641215593 L 225.5 129.511126412156 L 226.5 128.55804312974507 L 226.5 128.55804312974513 L 227.5 127.62449394999459 L 227.5 127.62449394999462 L 228.5 126.71062030123372 L 228.5 126.71062030123372 L 229.5 125.81656063104072 L 229.5 125.81656063104072 L 230.5 124.94245038526887 L 230.5 124.94245038526887 L 231.5 124.08842198752723 L 231.5 124.08842198752725 L 232.5 123.25460481911892 L 232.5 123.25460481911895 L 233.5 122.44112519944028 L 233.5 122.44112519944034 L 234.5 121.64810636684442 L 234.5 121.64810636684444 L 235.50000000000003 120.87566845997077 L 235.50000000000003 120.87566845997083 L 236.50000000000003 120.12392849954534 L 236.50000000000003 120.1239284995454 L 237.50000000000003 119.3930003706518 L 237.50000000000003 119.3930003706518 L 238.50000000000003 118.68299480547881 L 238.50000000000003 118.68299480547884 L 239.50000000000003 117.99401936654485 L 239.50000000000003 117.99401936654485 L 240.50000000000003 117.3261784304025 L 240.50000000000003 117.32617843040254 L 241.50000000000003 116.67957317182629 L 241.50000000000003 116.67957317182635 L 242.5 116.05430154848503 L 242.5 116.05430154848506 L 243.5 115.45045828610154 L 243.5 115.45045828610156 L 244.5 114.8681348641025 L 244.5 114.86813486410253 L 245.5 114.30741950175945 L 245.5 114.30741950175948 L 246.5 113.76839714482406 L 246.5 113.76839714482409 L 247.5 113.25114945265932 L 247.5 113.25114945265938 L 248.5 112.75575478586839 L 248.5 112.75575478586845 L 249.5 112.2822881944235 L 249.5 112.28228819442353 L 250.5 111.83082140629614 L 250.5 111.83082140629617 L 251.5 111.40142281659055 L 251.5 111.40142281659061 L 252.5 110.99415747718234 L 252.5 110.99415747718237 L 253.50000000000003 110.60908708686327 L 253.50000000000003 110.60908708686327 L 254.50000000000003 110.24626998199429 L 254.50000000000003 110.24626998199432 L 255.50000000000003 109.9057611276678 L 255.50000000000003 109.90576112766783 L 256.5 109.5876121093807 L 256.5 109.58761210938073 L 257.5 109.29187112521944 L 257.5 109.29187112521947 L 258.5 109.01858297855827 L 258.5 109.0185829785583 L 259.5 108.76778907127161 L 259.5 108.76778907127166 L 260.5 108.53952739746205 L 260.5 108.53952739746208 L 261.5 108.33383253770421 L 261.5 108.33383253770427 L 262.5 108.15073565380621 L 262.5 108.15073565380624 L 263.5 107.9902644840885 L 263.5 107.99026448408853 L 264.5 107.85244333918186 L 264.5 107.85244333918186 L 265.5 107.73729309834434 L 265.5 107.73729309834437 L 266.5 107.64483120629822 L 266.5 107.64483120629825 L 267.5 107.57507167058719 L 267.5 107.57507167058719 L 268.5 107.5280250594542 L 268.5 107.52802505945422 L 269.5 107.50369850024055 L 269.5 107.50369850024057 L 270.5 107.5 L 270.5 107.50209567830603 L 271.5 107.52321683647074 L 271.5 107.52321683647071 L 272.5 107.56705877497802 L 272.5 107.567058774978 L 273.5 107.6336148519795 L 273.5 107.6336148519795 L 274.5 107.72287498454122 L 274.5 107.72287498454119 L 275.5 107.83482565017107 L 275.5 107.83482565017104 L 276.5 107.96944988886744 L 276.5 107.96944988886742 L 277.5 108.12672730568855 L 277.5 108.12672730568855 L 278.5 108.30663407384233 L 278.5 108.3066340738423 L 279.5 108.50914293829578 L 279.5 108.50914293829578 L 280.5 108.7342232199043 L 280.5 108.73422321990427 L 281.5 108.98184082005918 L 281.5 108.98184082005912 L 282.5 109.25195822585354 L 282.5 109.25195822585351 L 283.5 109.54453451576535 L 283.5 109.54453451576529 L 284.5 109.85952536585668 L 284.5 109.85952536585665 L 285.5 110.19688305648884 L 285.5 110.19688305648879 L 286.5 110.55655647955138 L 286.5 110.55655647955135 L 287.5 110.93849114620508 L 287.5 110.93849114620505 L 288.5 111.3426291951364 L 288.5 111.34262919513637 L 289.5 111.76890940132338 L 289.5 111.76890940132333 L 290.5 112.21726718531102 L 290.5 112.21726718531099 L 291.5 112.68763462299455 L 291.5 112.68763462299452 L 292.5 113.17994045590982 L 292.5 113.17994045590982 L 293.5 113.69411010202845 L 293.5 113.69411010202845 L 294.5 114.23006566705686 L 294.5 114.2300656670568 L 295.5 114.78772595623661 L 295.5 114.78772595623659 L 296.5 115.36700648664544 L 296.5 115.36700648664538 L 297.5 115.96781949999547 L 297.5 115.96781949999544 L 298.5 116.5900739759287 L 298.5 116.59007397592868 L 299.5 117.23367564580587 L 299.5 117.23367564580585 L 300.5 117.89852700698796 L 300.5 117.8985270069879 L 301.5 118.58452733760694 L 301.5 118.58452733760689 L 302.5 119.29157271182524 L 302.5 119.29157271182518 L 303.5 120.01955601557944 L 303.5 120.01955601557938 L 304.5 120.76836696280807 L 304.5 120.76836696280805 L 305.5 121.53789211215923 L 305.5 121.5378921121592 L 306.5 122.32801488417621 L 306.5 122.32801488417621 L 307.5 123.13861557895896 L 307.5 123.13861557895893 L 308.5 123.96957139429821 L 308.5 123.96957139429819 L 309.5 124.820756444279 L 309.5 124.82075644427894 L 310.5 125.69204177835223 L 310.5 125.69204177835218 L 311.5 126.58329540086973 L 311.5 126.58329540086967 L 312.5 127.49438229108125 L 312.5 127.49438229108122 L 313.5 128.42516442358945 L 313.5 128.42516442358942 L 314.5 129.37550078925975 L 314.5 129.37550078925972 L 315.5 130.34524741658305 L 315.5 130.34524741658302 L 316.5 131.33425739348633 L 316.5 131.3342573934863 L 317.5 132.34238088958944 L 317.5 132.34238088958938 L 318.5 133.36946517890357 L 318.5 133.36946517890354 L 319.5 134.41535466296847 L 319.5 134.41535466296844 L 320.5 135.47989089442484 L 320.5 135.47989089442478 L 321.5 136.5629126010187 L 321.5 136.5629126010187 L 322.5 137.6642557100331 L 322.5 137.66425571003307 L 323.5 138.7837533731443 L 323.5 138.78375337314426 L 324.5 139.9212359916986 L 324.5 139.92123599169855 L 325.5 141.0765312424059 L 325.5 141.0765312424059 L 326.5 142.2494641034458 L 326.5 142.24946410344575 L 327.5 143.4398568809824 L 327.5 143.43985688098238 L 328.5 144.6475292360842 L 328.5 144.64752923608418 L 329.5 145.8722982120446 L 329.5 145.87229821204454 L 330.5 147.1139782620991 L 330.5 147.11397826209907 L 331.5 148.37238127753466 L 331.5 148.37238127753463 L 332.5 149.64731661618725 L 332.5 149.64731661618725 L 333.5 150.93859113132316 L 333.5 150.93859113132316 L 334.5 152.24600920090023 L 334.5 152.24600920090018 L 335.5 153.56937275720324 L 335.5 153.5693727572032 L 336.5 154.90848131685033 L 336.5 154.90848131685033 L 337.5 156.2631320111656 L 337.5 156.26313201116557 L 338.5 157.63311961691218 L 338.5 157.63311961691215 L 339.5 159.01823658738323 L 339.5 159.01823658738323 L 340.5 160.41827308384404 L 340.5 160.41827308384399 L 341.5 161.8330170073213 L 341.5 161.8330170073213 L 342.5 163.26225403073548 L 342.5 163.26225403073542 L 343.5 164.70576763137035 L 343.5 164.7057676313703 L 344.5 166.1633391236752 L 344.5 166.16333912367514 L 345.5 167.6347476923942 L 345.5 167.63474769239417 L 346.5 169.11977042601967 L 346.5 169.1197704260196 L 347.5 170.61818235056126 L 347.5 170.6181823505612 L 348.5 172.12975646362935 L 348.5 172.1297564636293 L 349.5 173.65426376882394 L 349.5 173.6542637688239 L 350.5 175.19147331042743 L 350.5 175.1914733104274 L 351.5 176.74115220839244 L 351.5 176.7411522083924 L 352.5 178.30306569362284 L 352.5 178.30306569362278 L 353.5 179.87697714353976 L 353.5 179.8769771435397 L 354.5 181.46264811792875 L 354.5 181.46264811792872 L 355.5 183.0598383950624 L 355.5 183.05983839506237 L 356.5 184.66830600809308 L 356.5 184.66830600809305 L 357.5 186.28780728170966 L 357.5 186.2878072817096 L 358.5 187.91809686905265 L 358.5 187.91809686905262 L 359.5 189.5589277888841 L 359.5 189.5589277888841 L 360.5 191.21005146300305 L 360.5 191.21005146300303 L 361.5 192.87121775390494 L 361.5 192.87121775390494 L 362.5 194.54217500267535 L 362.5 194.54217500267532 L 363.5 196.22267006711598 L 363.5 196.22267006711596 L 364.5 197.91244836009372 L 364.5 197.91244836009372 L 365.5 199.61125388811018 L 365.5 199.61125388811016 L 366.5 201.31882929008304 L 366.5 201.31882929008304 L 367.5 203.03491587633488 L 367.5 203.03491587633488 L 368.5 204.75925366778418 L 368.5 204.75925366778415 L 369.5 206.49158143532992 L 369.5 206.4915814353299 L 370.5 208.23163673942767 L 370.5 208.23163673942767 L 371.5 209.97915596984691 L 371.5 209.9791559698469 L 372.5 211.7338743856077 L 372.5 211.7338743856077 L 373.5 213.49552615508674 L 373.5 213.4955261550867 L 374.5 215.26384439629047 L 374.5 215.26384439629044 L 375.5 217.03856121728612 L 375.5 217.03856121728612 L 376.5 218.81940775678567 L 376.5 218.81940775678564 L 377.5 220.60611422487787 L 377.5 220.60611422487784 L 378.5 222.3984099438993 L 378.5 222.3984099438993 L 379.5 224.19602338944176 L 379.5 224.19602338944176 L 380.5 225.99868223148576 L 380.5 225.99868223148573 L 381.5 227.80611337565838 L 381.5 227.80611337565838 L 382.5 229.61804300460486 L 382.5 229.61804300460486 L 383.5 231.43419661947135 L 383.5 231.43419661947135 L 384.5 233.25429908149 L 384.5 233.25429908149 L 385.5 235.07807465366076 L 385.5 235.07807465366076 L 386.5 236.90524704252468 L 386.5 236.90524704252468 L 387.5 238.73553944002117 L 387.5 238.73553944002117 L 388.5 240.568674565423 L 388.5 240.56867456542298 L 389.5 242.40437470734267 L 389.5 242.40437470734267 L 390.5 244.2423617658047 L 390.5 244.2423617658047 L 391.5 246.08235729437678 L 391.5 246.08235729437678 L 392.5 247.9240825423527 L 392.5 247.9240825423527 L 393.5 249.7672584969815 L 393.5 249.76725849698147 L 394.5 251.61160592573748 L 394.5 251.61160592573748 L 395.5 253.4568454186216 L 395.5 253.4568454186216 L 396.5 255.30269743049166 L 396.5 255.30269743049166 L 397.5 257.14888232341167 L 397.5 257.14888232341167 L 398.5 258.99512040901544 L 398.5 258.99512040901544 L 399.5 260.84113199087847 L 399.5 260.84113199087847 L 400.5 262.68663740689055 L 400.5 262.68663740689055 L 401.5 264.5313570716235 L 401.5 264.5313570716235 L 402.5 266.37501151868634 L 402.5 266.37501151868634 L 403.5 268.2173214430636 L 403.5 268.21732144306355 L 404.5 270.05800774342896 L 404.5 270.05800774342896 L 405.5 271.8967915644274 L 405.5 271.8967915644274 L 406.5 273.7333943389209 L 406.5 273.7333943389209 L 407.5 275.5675378301892 L 407.5 275.5675378301892 L 408.5 277.39894417408226 L 408.5 277.39894417408226 L 409.5 279.2273359211151 L 409.5 279.2273359211151 L 410.5 281.05243607850014 L 410.5 281.05243607850014 L 411.5 282.8739681521099 L 411.5 282.8739681521099 L 412.5 284.6916561883649 L 412.5 284.6916561883649 L 413.5 286.5052248160397 L 413.5 286.50522481603963 L 414.5 288.31439928797965 L 414.5 288.31439928797965 L 415.5 290.11890552272416 L 415.5 290.11890552272416 L 416.5 291.9184701460289 L 416.5 291.9184701460289 L 417.5 293.7128205322801 L 417.5 293.71282053228003 L 418.5 295.50168484579694 L 418.5 295.50168484579694 L 419.5 297.2847920820129 L 419.5 297.2847920820129 L 420.5 299.0618721085315 L 420.5 299.0618721085315 L 421.5 300.8326557060501 L 421.5 300.8326557060501 L 422.5 302.5968746091461 L 422.5 302.5968746091461 L 423.5 304.3542615469172 L 423.5 304.3542615469172 L 424.5 306.1045502834716 L 424.5 306.1045502834716 L 425.5 307.8474756582619 L 425.5 307.8474756582619 L 426.5 309.5827736262555 L 426.5 309.5827736262555 L 427.5 311.3101812979364 L 427.5 311.31018129793637 L 428.5 313.02943697913145 L 428.5 313.0294369791314 L 429.5 314.74028021065567 L 429.5 314.7402802106556 L 430.5 316.44245180777085 L 430.5 316.44245180777085 L 431.5 318.1356938994511 L 431.5 318.1356938994511 L 432.5 319.8197499674486 L 432.5 319.8197499674486 L 433.5 321.49436488515516 L 433.5 321.4943648851551 L 434.5 323.15928495625224 L 434.5 323.15928495625224 L 435.5 324.8142579531458 L 435.5 324.8142579531458 L 436.5 326.45903315517666 L 436.5 326.45903315517666 L 437.5 328.09336138660365 L 437.5 328.09336138660365 L 438.5 329.7169950543531 L 438.5 329.7169950543531 L 439.5 331.3296881855273 L 439.5 331.3296881855273 L 440.5 332.9311964646687 L 440.5 332.9311964646687 L 441.5 334.5212772707727 L 441.5 334.52127727077266 L 442.5 336.0996897140431 L 442.5 336.09968971404305 L 443.5 337.6661946723859 L 443.5 337.66619467238587 L 444.5 339.2205548276356 L 444.5 339.2205548276356 L 445.5 340.76253470150755 L 445.5 340.76253470150755 L 446.5 342.29190069127145 L 446.5 342.29190069127145 L 447.5 343.80842110514146 L 447.5 343.8084211051414 L 448.5 345.3118661973764 L 448.5 345.3118661973764 L 449.5 346.8020082030852 L 449.5 346.80200820308517 L 450.5 348.278621372732 L 450.5 348.278621372732 L 451.5 349.7414820063362 L 451.5 349.7414820063362 L 452.5 351.19036848736187 L 452.5 351.19036848736187 L 453.5 352.6250613162921 L 453.5 352.6250613162921 L 454.5 354.0453431438817 L 454.5 354.0453431438817 L 455.5 355.45099880408463 L 455.5 355.45099880408463 L 456.5 356.84181534665055 L 456.5 356.8418153466505 L 457.5 358.21758206938625 L 457.5 358.21758206938625 L 458.5 359.5780905500757 L 458.5 359.5780905500757 L 459.5 360.9231346780549 L 459.5 360.92313467805485 L 460.5 362.2525106854371 L 460.5 362.252510685437 L 461.5 363.56601717798225 L 461.5 363.5660171779822 L 462.5 364.8634551656076 L 462.5 364.8634551656076 L 463.5 366.1446280925337 L 463.5 366.1446280925337 L 464.5 367.40934186706147 L 464.5 367.40934186706147 L 465.5 368.6574048909765 L 465.5 368.6574048909765 L 466.5 369.88862808857505 L 466.5 369.888628088575 L 467.5 371.10282493530815 L 467.5 371.1028249353081 L 468.5 372.2998114860394 L 468.5 372.29981148603935 L 469.5 373.4794064029115 L 469.5 373.4794064029114 L 470.5 374.64143098281835 L 470.5 374.6414309828183 L 471.5 375.7857091844776 L 471.5 375.7857091844776 L 472.5 376.9120676551001 L 472.5 376.9120676551001 L 473.5 378.020335756652 L 473.5 378.020335756652 L 474.5 379.1103455917057 L 474.5 379.1103455917057 L 475.5 380.1819320288755 L 475.5 380.18193202887545 L 476.5 381.234932727834 L 476.5 381.234932727834 L 477.5 382.26918816390645 L 477.5 382.26918816390645 L 478.5 383.2845416522374 L 478.5 383.28454165223735 L 479.5 384.2808393715279 L 479.5 384.2808393715279 L 480.5 385.2579303873392 L 480.5 385.2579303873391 L 481.5 386.21566667495756 L 481.5 386.21566667495756 L 482.5 387.15390314182054 L 482.5 387.1539031418205 L 483.5 388.0724976494968 L 483.5 388.07249764949677 L 484.5 388.9713110352201 L 484.5 388.9713110352201 L 485.5 389.85020713297126 L 485.5 389.85020713297126 L 486.5 390.7090527941074 L 486.5 390.7090527941074 L 487.5 391.5477179075324 L 487.5 391.5477179075324 L 488.5 392.36607541940896 L 488.5 392.3660754194089 L 489.5 393.1640013524062 L 489.5 393.16400135240616 L 490.5 393.9413748244817 L 490.5 393.9413748244817 L 491.5 394.69807806719484 L 491.5 394.69807806719484 L 492.5 395.4339964435477 L 492.5 395.4339964435477 L 493.5 396.1490184653525 L 493.5 396.14901846535247 L 494.5 396.84303581012114 L 494.5 396.84303581012114 L 495.5 397.51594333747585 L 495.5 397.5159433374758 L 496.5 398.1676391050772 L 496.5 398.16763910507717 L 497.5 398.7980243840683 L 497.5 398.7980243840683 L 498.5 399.4070036740313 L 498.5 399.4070036740312 L 499.5 399.9944847174553 L 499.5 399.9944847174553 L 500.5 400.5603785137135 L 500.5 400.56037851371343 L 501.5 401.1045993325456 L 501.5 401.10459933254555 L 502.5 401.627064727046 L 502.5 401.627064727046 L 503.5 402.1276955461541 L 503.5 402.12769554615403 L 504.5 402.60641594664503 L 504.5 402.606415946645 L 505.5 403.06315340461987 L 505.5 403.0631534046198 L 506.5 403.4978387264926 L 506.5 403.4978387264926 L 507.5 403.91040605947245 L 507.5 403.91040605947245 L 508.5 404.3007929015405 L 508.5 404.3007929015405 L 509.5 404.66894011091813 L 509.5 404.66894011091813 L 510.5 405.0147919150272 L 510.5 405.01479191502716 L 511.5 405.33829591893885 L 511.5 405.3382959189388 L 512.5 405.63940311331146 L 512.5 405.63940311331135 L 513.5 405.918067881815 L 513.5 405.9180678818149 L 514.5 406.174248008042 L 514.5 406.17424800804196 L 515.5 406.407904681903 L 515.5 406.40790468190295 L 516.5 406.619002505506 L 516.5 406.61900250550593 L 517.5 406.8075094985193 L 517.5 406.80750949851927 L 518.5 406.9733971030163 L 518.5 406.9733971030162 L 519.5 407.1166401878015 L 519.5 407.11664018780147 L 520.5 407.2372170522185 L 520.5 407.2372170522185 L 521.5 407.3351094294369 L 521.5 407.3351094294369 L 522.5 407.41030248922004 L 522.5 407.41030248922 L 523.5 407.46278484017137 L 523.5 407.46278484017137 L 524.5 407.49254853146056 L 524.5 407.49254853146056 L 525.5 407.5 L 525.5 407.49958905402775 L 526.5 407.4839053412666 L 526.5 407.4839053412667 L 527.5 407.4454997691864 L 527.5 407.4454997691864 L 528.5 407.3843781560513 L 528.5 407.3843781560513 L 529.5 407.3005497614995 L 529.5 407.3005497614995 L 530.5 407.19402728514024 L 530.5 407.1940272851403 L 531.5 407.06482686462994 L 531.5 407.06482686462994 L 532.5 406.91296807322715 L 532.5 406.91296807322715 L 533.5 406.73847391682773 L 533.5 406.73847391682773 L 534.5 406.54137083047925 L 534.5 406.5413708304793 L 535.5 406.32168867437633 L 535.5 406.32168867437633 L 536.5 406.0794607293368 L 536.5 406.0794607293369 L 537.5 405.81472369176015 L 537.5 405.8147236917602 L 538.5 405.52751766806784 L 538.5 405.52751766806796 L 539.5 405.21788616862756 L 539.5 405.2178861686276 L 540.5 404.88587610116144 L 540.5 404.8858761011615 L 541.5 404.5315377636401 L 541.5 404.53153776364013 L 542.5 404.1549248366623 L 542.5 404.1549248366623 L 543.5 403.75609437532296 L 543.5 403.75609437532296 L 544.5 403.33510680056924 L 544.5 403.3351068005693 L 545.5 402.8920258900474 L 545.5 402.8920258900474 L 546.5 402.4269187684405 L 546.5 402.42691876844054 L 547.5 401.9398558972996 L 547.5 401.9398558972996 L 548.5 401.4309110643687 L 548.5 401.43091106436873 L 549.5 400.90016137240684 L 549.5 400.90016137240684 L 550.5 400.34768722750687 L 550.5 400.34768722750687 L 551.5 399.77357232691475 L 551.5 399.77357232691475 L 552.5 399.17790364634936 L 552.5 399.17790364634936 L 553.5 398.5607714268265 L 553.5 398.56077142682653 L 554.5 397.9222691609875 L 554.5 397.9222691609875 L 555.5 397.26249357893573 L 555.5 397.26249357893573 L 556.5 396.5815446335823 L 556.5 396.5815446335823 L 557.5 395.87952548550356 L 557.5 395.87952548550356 L 558.5 395.15654248731323 L 558.5 395.15654248731323 L 559.5 394.41270516754986 L 559.5 394.4127051675499 L 560.5 393.64812621408424 L 560.5 393.6481262140843 L 561.5 392.8629214570474 L 561.5 392.8629214570474 L 562.5 392.0572098512832 L 562.5 392.05720985128323 L 563.5 391.23111345832683 L 563.5 391.2311134583269 L 564.5 390.38475742791354 L 564.5 390.38475742791354 L 565.5 389.51826997901856 L 565.5 389.51826997901856 L 566.5 388.6317823804328 L 566.5 388.63178238043287 L 567.5 387.7254289308764 L 567.5 387.72542893087643 L 568.5 386.7993469386525 L 568.5 386.79934693865255 L 569.5 385.85367670084645 L 569.5 385.85367670084645 L 570.5 384.8885614820708 L 570.5 384.8885614820708 L 571.5 383.904147492762 L 571.5 383.90414749276204 L 572.5 382.90058386702935 L 572.5 382.90058386702935 L 573.5 381.87802264006297 L 573.5 381.87802264006297 L 574.5 380.8366187251001 L 574.5 380.83661872510015 L 575.5 379.7765298899574 L 575.5 379.7765298899574 L 576.5 378.69791673312903 L 576.5 378.69791673312903 L 577.5 377.60094265945753 L 577.5 377.6009426594576 L 578.5 376.48577385537817 L 578.5 376.4857738553782 L 579.5 375.35257926374254 L 579.5 375.35257926374254 L 580.5 374.201530558225 L 580.5 374.20153055822504 L 581.5 373.0328021173142 L 581.5 373.0328021173142 L 582.5 371.84657099789604 L 582.5 371.84657099789604 L 583.5 370.64301690843024 L 583.5 370.6430169084303 L 584.5 369.4223221817256 L 584.5 369.42232218172563 L 585.5 368.1846717473167 L 585.5 368.18467174731677 L 586.5 366.930253103449 L 586.5 366.93025310344905 L 587.5 365.6592562886727 L 587.5 365.65925628867274 L 588.5 364.37187385305344 L 588.5 364.3718738530535 L 589.5 363.0683008290018 L 589.5 363.0683008290019 L 590.5 361.7487347017266 L 590.5 361.7487347017267 L 591.5 360.4133753793169 L 591.5 360.4133753793169 L 592.5 359.0624251624567 L 592.5 359.06242516245675 L 593.5 357.6960887137779 L 593.5 357.69608871377795 L 594.5 356.3145730268541 L 594.5 356.31457302685413 L 595.5 354.91808739484253 L 595.5 354.9180873948426 L 596.5 353.50684337877703 L 596.5 353.5068433787771 L 597.5 352.08105477551766 L 597.5 352.0810547755177 L 598.5 350.64093758536103 L 598.5 350.64093758536103 L 599.5 349.18670997931764 L 599.5 349.1867099793177 L 600.5 347.7185922660602 L 600.5 347.7185922660602 L 601.5 346.2368068585472 L 601.5 346.23680685854725 L 602.5 344.74157824032926 L 602.5 344.74157824032926 L 603.5 343.2331329315399 L 603.5 343.23313293153996 L 604.5 341.71169945458007 L 604.5 341.7116994545801 L 605.5 340.1775082994967 L 605.5 340.1775082994967 L 606.5 338.6307918890658 L 606.5 338.6307918890658 L 607.5 337.0717845435804 L 607.5 337.0717845435804 L 608.5 335.5007224453529 L 608.5 335.50072244535295 L 609.5 333.9178436029343 L 609.5 333.91784360293434 L 610.5 332.3233878150571 L 610.5 332.3233878150571 L 611.5 330.7175966343066 L 611.5 330.7175966343066 L 612.5 329.1007133305269 L 612.5 329.10071333052696 L 613.5 327.47298285396744 L 613.5 327.4729828539675 L 614.5 325.83465179817284 L 614.5 325.83465179817284 L 615.5 324.18596836262634 L 615.5 324.18596836262634 L 616.5 322.52718231514785 L 616.5 322.5271823151479 L 617.5 320.85854495405584 L 617.5 320.85854495405584 L 618.5 319.1803090700968 L 618.5 319.1803090700968 L 619.5 317.4927289081482 L 619.5 317.49272890814825 L 620.5 315.79606012870215 L 620.5 315.79606012870215 L 621.5 314.09055976913373 L 621.5 314.09055976913373 L 622.5 312.3764862047606 L 622.5 312.3764862047607 L 623.5 310.65409910970163 L 623.5 310.65409910970163 L 624.5 308.9236594175358 L 624.5 308.9236594175358 L 625.5 307.1854292817733 L 625.5 307.18542928177334 L 626.5 305.4396720361401 L 626.5 305.4396720361401 L 627.5 303.68665215468377 L 627.5 303.68665215468377 L 628.5 301.9266352117075 L 628.5 301.92663521170755 L 629.5 300.1598878415364 L 629.5 300.1598878415364 L 630.5 298.38667769812355 L 630.5 298.38667769812355 L 631.5 296.6072734145023 L 631.5 296.6072734145023 L 632.5 294.82194456208924 L 632.5 294.82194456208924 L 633.5 293.03096160984506 L 633.5 293.0309616098451 L 634.5 291.2345958833003 L 634.5 291.23459588330036 L 635.5 289.43311952345044 L 635.5 289.43311952345044 L 636.5 287.6268054455282 L 636.5 287.6268054455282 L 637.5 285.81592729765794 L 637.5 285.81592729765794 L 638.5 284.00075941939895 L 638.5 284.00075941939895 L 639.5 282.1815768001848 L 639.5 282.1815768001848 L 640.5 280.35865503766377 L 640.5 280.35865503766377 L 641.5 278.53227029594626 L 641.5 278.53227029594626 L 642.5 276.7026992637682 L 642.5 276.70269926376824 L 643.5 274.8702191125734 L 643.5 274.8702191125734 L 644.5 273.0351074545237 L 644.5 273.0351074545237 L 645.5 271.19764230044217 L 645.5 271.19764230044217 L 646.5 269.358102017695 L 646.5 269.358102017695 L 647.5 267.5167652880209 L 647.5 267.5167652880209 L 648.5 265.6739110653117 L 648.5 265.6739110653117 L 649.5 263.8298185333527 L 649.5 263.8298185333527 L 650.5 261.9847670635271 L 650.5 261.9847670635271 L 651.5 260.13903617249247 L 651.5 260.13903617249247 L 652.5 258.2929054798356 L 652.5 258.2929054798356 L 653.5 256.4466546657115 L 653.5 256.4466546657115 L 654.5 254.60056342847312 L 654.5 254.60056342847312 L 655.5 252.75491144229795 L 655.5 252.75491144229795 L 656.5 250.90997831481897 L 656.5 250.90997831481897 L 657.5 249.06604354476573 L 657.5 249.06604354476573 L 658.5 247.22338647962133 L 658.5 247.22338647962135 L 659.5 245.38228627330227 L 659.5 245.38228627330227 L 660.5 243.5430218438682 L 660.5 243.54302184386822 L 661.5 241.70587183126761 L 661.5 241.70587183126761 L 662.5 239.8711145551242 L 662.5 239.87111455512422 L 663.5 238.03902797257382 L 663.5 238.03902797257382 L 664.5 236.20988963615434 L 664.5 236.20988963615434 L 665.5 234.3839766517582 L 665.5 234.3839766517582 L 666.5 232.5615656366523 L 666.5 232.5615656366523 L 667.5 230.74293267757164 L 667.5 230.74293267757164 L 668.5 228.92835328889316 L 668.5 228.92835328889316 L 669.5 227.11810237089696 L 669.5 227.118102370897 L 670.5 225.31245416812007 L 670.5 225.31245416812007 L 671.5 223.51168222780984 L 671.5 223.51168222780984 L 672.5 221.71605935848277 L 672.5 221.71605935848277 L 673.5 219.92585758859494 L 673.5 219.92585758859497 L 674.5 218.1413481253313 L 674.5 218.14134812533132 L 675.5 216.36280131351918 L 675.5 216.36280131351918 L 676.5 214.59048659467217 L 676.5 214.59048659467217 L 677.5 212.8246724661707 L 677.5 212.82467246617074 L 678.5 211.06562644058627 L 678.5 211.06562644058627 L 679.5 209.31361500515462 L 679.5 209.31361500515462 L 680.5 207.56890358140407 L 680.5 207.56890358140407 L 681.5 205.83175648494515 L 681.5 205.83175648494517 L 682.5 204.1024368854283 L 682.5 204.10243688542832 L 683.5 202.38120676667472 L 683.5 202.38120676667472 L 684.5 200.6683268869874 L 684.5 200.66832688698742 L 685.5 198.9640567396472 L 685.5 198.96405673964722 L 686.5 197.26865451360064 L 686.5 197.26865451360064 L 687.5 195.5823770543456 L 687.5 195.58237705434564 L 688.5 193.90547982502096 L 688.5 193.905479825021 L 689.5 192.23821686770447 L 689.5 192.23821686770447 L 690.5 190.58084076492662 L 690.5 190.58084076492665 L 691.5 188.93360260140594 L 691.5 188.93360260140597 L 692.5 187.29675192601027 L 692.5 187.2967519260103 L 693.5 185.67053671395246 L 693.5 185.67053671395246 L 694.5 184.05520332922165 L 694.5 184.05520332922168 L 695.5 182.45099648726142 L 695.5 182.45099648726148 L 696.5 180.85815921789612 L 696.5 180.85815921789614 L 697.5 179.27693282851325 L 697.5 179.27693282851328 L 698.5 177.70755686750638 L 698.5 177.7075568675064 L 699.5 176.1502690879845 L 699.5 176.15026908798453 L 700.5 174.60530541175365 L 700.5 174.60530541175368 L 701.5 173.0728998935762 L 701.5 173.07289989357622 L 702.5 171.55328468571236 L 702.5 171.55328468571238 L 703.5 170.04669000274998 L 703.5 170.04669000274998 L 704.5 168.5533440867284 L 704.5 168.55334408672843 L 705.5 167.07347317256114 L 705.5 167.07347317256117 L 706.5 165.60730145376158 L 706.5 165.60730145376158 L 707.5 164.15505104847955 L 707.5 164.15505104847955 L 708.5 162.71694196585082 L 708.5 162.71694196585085 L 709.5 161.29319207266695 L 709.5 161.293192072667 L 710.5 159.88401706036984 L 710.5 159.88401706036987 L 711.5 158.48963041237505 L 711.5 158.48963041237508 L 712.5 157.11024337173006 L 712.5 157.11024337173006 L 713.5 155.7460649091122 L 713.5 155.7460649091122 L 714.5 154.39730169117018 L 714.5 154.3973016911702 L 715.5 153.06415804921602 L 715.5 153.06415804921605 L 716.5 151.74683594826845 L 716.5 151.74683594826848 L 717.5 150.44553495645704 L 717.5 150.4455349564571 L 718.5 149.16045221478828 L 718.5 149.1604522147883 L 719.5 147.89178240728 L 719.5 147.89178240728 L 720.5 146.63971773146693 L 720.5 146.63971773146693 L 721.5 145.40444786928435 L 721.5 145.4044478692844 L 722.5 144.18615995833213 L 722.5 144.18615995833215 L 723.5 142.98503856352355 L 723.5 142.98503856352357 L 724.5 141.80126564912553 L 724.5 141.80126564912558 L 725.5 140.6350205511912 L 725.5 140.63502055119125 L 726.5 139.48647995039164 L 726.5 139.48647995039164 L 727.5 138.35581784524933 L 727.5 138.35581784524936 L 728.5 137.24320552577893 L 728.5 137.24320552577896 L 729.5 136.14881154753652 L 729.5 136.14881154753655 L 730.5 135.0728017060851 L 730.5 135.07280170608513 L 731.5 134.0153390118768 L 731.5 134.0153390118768 L 732.5 132.97658366555805 L 732.5 132.97658366555805 L 733.5 131.9566930336995 L 733.5 131.95669303369954 L 734.5 130.95582162495606 L 734.5 130.95582162495612 L 735.5 129.97412106665922 L 735.5 129.97412106665925 L 736.5 129.01174008184654 L 736.5 129.0117400818466 L 737.5 128.06882446673058 L 737.5 128.0688244667306 L 738.5 127.14551706861158 L 738.5 127.14551706861161 L 739.5 126.24195776423676 L 739.5 126.24195776423682 L 740.5 125.35828343860939 L 740.5 125.35828343860945 L 741.5 124.49462796425206 L 741.5 124.49462796425209 L 742.5 123.65112218092466 L 742.5 123.65112218092469 L 743.5 122.82789387580343 L 743.5 122.82789387580345 L 744.5 122.02506776412156 L 744.5 122.02506776412159 L 745.5 121.24276547027563 L 745.5 121.24276547027566 L 746.5 120.4811055093997 L 746.5 120.48110550939975 L 747.5 119.7402032694113 L 747.5 119.74020326941132 L 748.5 119.0201709935302 L 748.5 119.02017099353026 L 749.5 118.32111776327451 L 749.5 118.32111776327457 L 750.5 117.6431494819351 L 750.5 117.64314948193513 L 751.5 116.98636885853182 L 751.5 116.98636885853188 L 752.5 116.35087539225358 L 752.5 116.35087539225361 L 753.5 115.73676535738463 L 753.5 115.73676535738466 L 754.5 115.14413178871942 L 754.5 115.14413178871945 L 755.5 114.57306446746861 L 755.5 114.57306446746867 L 756.5 114.02364990765716 L 756.5 114.02364990765719 L 757.5 113.495971343018 L 757.5 113.49597134301803 L 758.5 112.99010871438276 L 758.5 112.99010871438279 L 759.5 112.50613865757077 L 759.5 112.50613865757083 L 760.5 112.0441344917794 L 760.5 112.04413449177946 L 761.5 111.60416620847627 L 761.5 111.6041662084763 L 762.5 111.18630046079605 L 762.5 111.1863004607961 L 763.5 110.79060055344272 L 763.5 110.79060055344272 L 764.5 110.41712643309924 L 764.5 110.4171264330993 L 765.5 110.06593467934601 L 765.5 110.06593467934604 L 766.5 109.7370784960892 L 766.5 109.7370784960892 L 767.5 109.43060770350047 L 767.5 109.4306077035005 L 768.5 109.14656873046991 L 768.5 109.14656873046997 L 769.5 108.8850046075718 L 769.5 108.88500460757186 L 770.5 108.64595496054594 L 770.5 108.64595496054594 L 771.5 108.42945600429434 L 771.5 108.42945600429437 L 772.5 108.23554053739517 L 772.5 108.2355405373952 L 773.5 108.06423793713353 L 773.5 108.06423793713358 L 774.5 107.91557415505127 L 774.5 107.9155741550513 L 775.5 107.78957171301516 L 775.5 107.78957171301519 L 776.5 107.68624969980513 L 776.5 107.68624969980516 L 777.5 107.60562376822233 L 777.5 107.60562376822239 L 778.5 107.5477061327179 L 778.5 107.54770613271793 L 779.5 107.51250556754235 L 779.5 107.5125055675424 L 780.5 107.50002740541652 L 780.5 107.5102735367235 L 781.5 107.5 L 781.5 107.5102735367235 L 782.5 107.54324240922239 L 782.5 107.54324240922236 L 783.5 107.59892902828338 L 783.5 107.59892902828335 L 784.5 107.67732495764443 L 784.5 107.67732495764443 L 785.5 107.77841832068941 L 785.5 107.77841832068941 L 786.5 107.90219380224721 L 786.5 107.90219380224715 L 787.5 108.04863265091188 L 787.5 108.04863265091188 L 788.5 108.21771268188377 L 788.5 108.21771268188371 L 789.5 108.40940828032979 L 789.5 108.40940828032973 L 790.5 108.62369040526451 L 790.5 108.62369040526448 L 791.5 108.8605265939494 L 791.5 108.86052659394937 L 792.5 109.119880966811 L 792.5 109.11988096681097 L 793.5 109.40171423287626 L 793.5 109.40171423287623 L 794.5 109.70598369572511 L 794.5 109.70598369572508 L 795.5 110.03264325995877 L 795.5 110.03264325995875 L 796.5 110.38164343818298 L 796.5 110.38164343818295 L 797.5 110.75293135850498 L 797.5 110.75293135850492 L 798.5 111.14645077254349 L 798.5 111.14645077254343 L 799.5 111.56214206395009 L 799.5 111.56214206395006 L 800.5 111.99994225744064 L 800.5 111.99994225744058 L 801.5 112.45978502833603 L 801.5 112.459785028336 L 802.5 112.94160071260976 L 802.5 112.9416007126097 L 803.5 113.4453163174419 L 803.5 113.44531631744186 L 804.5 113.97085553227708 L 804.5 113.97085553227706 L 805.5 114.51813874038527 L 805.5 114.51813874038527 L 806.5 115.08708303092325 L 806.5 115.08708303092322 L 807.5 115.67760221149521 L 807.5 115.67760221149518 L 808.5 116.28960682121055 L 808.5 116.2896068212105 L 809.5 116.92300414423676 L 809.5 116.9230041442367 L 810.5 117.57769822384554 L 810.5 117.57769822384552 L 811.5 118.25358987694949 L 811.5 118.25358987694949 L 812.5 118.95057670912837 L 812.5 118.95057670912831 L 813.5 119.66855313014074 L 813.5 119.66855313014071 L 814.5 120.40741036992111 L 814.5 120.40741036992108 L 815.5 121.1670364950574 L 815.5 121.16703649505737 L 816.5 121.94731642574894 L 816.5 121.94731642574891 L 817.5 122.74813195324 L 817.5 122.74813195323995 L 818.5 123.56936175772827 L 818.5 123.56936175772825 L 819.5 124.41088142674394 L 819.5 124.41088142674388 L 820.5 125.27256347399785 L 820.5 125.27256347399779 L 821.5 126.15427735869483 L 821.5 126.1542773586948 L 822.5 127.05588950531032 L 822.5 127.05588950531029 L 823.5 127.97726332382604 L 823.5 127.97726332382601 L 824.5 128.91825923042308 L 824.5 128.91825923042305 L 825.5 129.8787346686281 L 825.5 129.87873466862806 L 826.5 130.85854413090993 L 826.5 130.85854413090993 L 827.5 131.8575391807232 L 827.5 131.85753918072314 L 828.5 132.87556847499593 L 828.5 132.87556847499593 L 829.5 133.91247778705724 L 829.5 133.91247778705718 L 830.5 134.968110030002 L 830.5 134.96811003000195 L 831.5 136.04230528048865 L 831.5 136.04230528048862 L 832.5 137.13490080296685 L 832.5 137.13490080296685 L 833.5 138.24573107433156 L 833.5 138.2457310743315 L 834.5 139.37462780899813 L 834.5 139.37462780899813 L 835.5 140.52141998439794 L 835.5 140.52141998439788 L 836.5 141.68593386688627 L 836.5 141.68593386688624 L 837.5 142.86799303806322 L 837.5 142.8679930380632 L 838.5 144.06741842149967 L 838.5 144.06741842149964 L 839.5 145.28402830986676 L 839.5 145.28402830986676 L 840.5 146.5176383924633 L 840.5 146.51763839246328 L 841.5 147.7680617831387 L 841.5 147.76806178313865 L 842.5 149.0351090486045 L 842.5 149.03510904860445 L 843.5 150.31858823713344 L 843.5 150.31858823713344 L 844.5 151.6183049076386 L 844.5 151.61830490763856 L 845.5 152.93406215913075 L 845.5 152.93406215913075 L 846.5 154.2656606605476 L 846.5 154.26566066054755 L 847.5 155.61289868095184 L 847.5 155.61289868095182 L 848.5 156.97557212009212 L 848.5 156.97557212009207 L 849.5 158.35347453932343 L 849.5 158.35347453932337 L 850.5 159.74639719288172 L 850.5 159.7463971928817 L 851.5 161.15412905950774 L 851.5 161.15412905950768 L 852.5 162.57645687441584 L 852.5 162.57645687441578 L 853.5 164.01316516160233 L 853.5 164.01316516160227 L 854.5 165.46403626648964 L 854.5 165.46403626648961 L 855.5 166.92885038889932 L 855.5 166.9288503888993 L 856.5 168.40738561635135 L 856.5 168.40738561635135 L 857.5 169.8994179576823 L 857.5 169.89941795768226 L 858.5 171.4047213769794 L 858.5 171.40472137697938 L 859.5 172.9230678278235 L 859.5 172.92306782782347 L 860.5 174.4542272878375 L 860.5 174.4542272878375 L 861.5 175.99796779353315 L 861.5 175.99796779353312 L 862.5 177.55405547545294 L 862.5 177.5540554754529 L 863.5 179.12225459359968 L 863.5 179.12225459359962 L 864.5 180.70232757315068 L 864.5 180.70232757315065 L 865.5 182.29403504044848 L 865.5 182.29403504044848 L 866.5 183.89713585926546 L 866.5 183.89713585926546 L 867.5 185.51138716733465 L 867.5 185.51138716733465 L 868.5 187.13654441314185 L 868.5 187.1365444131418 L 869.5 188.7723613929747 L 869.5 188.7723613929747 L 870.5 190.41859028822074 L 870.5 190.4185902882207 L 871.5 192.07498170291146 L 871.5 192.07498170291143 L 872.5 193.74128470150382 L 872.5 193.7412847015038 L 873.5 195.41724684689666 L 873.5 195.41724684689663 L 874.5 197.10261423867286 L 874.5 197.10261423867286 L 875.5 198.79713155156503 L 875.5 198.797131551565 L 876.5 200.500542074135 L 876.5 200.50054207413496 L 877.5 202.21258774766557 L 877.5 202.21258774766554 L 878.5 203.93300920525405 L 878.5 203.93300920525402 L 879.5 205.66154581110607 L 879.5 205.66154581110604 L 880.5 207.39793570002018 L 880.5 207.39793570002016 L 881.5 209.14191581705944 L 881.5 209.14191581705944 L 882.5 210.89322195740257 L 882.5 210.89322195740255 L 883.5 212.65158880637048 L 883.5 212.65158880637046 L 884.5 214.41674997961948 L 884.5 214.41674997961945 L 885.5 216.1884380634975 L 885.5 216.1884380634975 L 886.5 217.9663846555565 L 886.5 217.9663846555565 L 887.5 219.7503204052133 L 887.5 219.7503204052133 L 888.5 221.53997505455578 L 888.5 221.53997505455578 L 889.5 223.33507747928488 L 889.5 223.33507747928488 L 890.5 225.13535572978952 L 890.5 225.13535572978952 L 891.5 226.94053707234485" stroke-opacity="0.6980392156862745" stroke-linecap="round" stroke-linejoin="round" stroke-miterlimit="10" stroke-width="2.5"/></g></g></svg>