<svg version="1.1" xmlns="http://www.w3.org/2000/svg" xmlns:xlink="http://www.w3.org/1999/xlink" width="891" height="515"><defs><clipPath id="TLDCVFQDROUD"><path fill="none" stroke="none" d=" M 0 0 L 891 0 L 891 515 L 0 515 L 0 0 Z"/></clipPath></defs><g transform="scale(1,1)" clip-path="url(#TLDCVFQDROUD)"><g><rect fill="rgb(255,255,255)" stroke="none" x="0" y="0" width="892" height="515" fill-opacity="1"/><path fill="none" stroke="rgb(192,192,192)" paint-order="fill stroke markers" d=" M 2.5 0.5 L 2.5 515.5 M 2.5 0.5 L 2.5 515.5 M 53.5 0.5 L 53.5 515.5 M 104.5 0.5 L 104.5 515.5 M 155.5 0.5 L 155.5 515.5 M 206.5 0.5 L 206.5 515.5 M 257.5 0.5 L 257.5 515.5 M 308.5 0.5 L 308.5 515.5 M 359.5 0.5 L 359.5 515.5 M 410.5 0.5 L 410.5 515.5 M 512.5 0.5 L 512.5 515.5 M 563.5 0.5 L 563.5 515.5 M 614.5 0.5 L 614.5 515.5 M 665.5 0.5 L 665.5 515.5 M 716.5 0.5 L 716.5 515.5 M 767.5 0.5 L 767.5 515.5 M 818.5 0.5 L 818.5 515.5 M 869.5 0.5 L 869.5 515.5" stroke-opacity="1" stroke-linecap="round" stroke-linejoin="round" stroke-miterlimit="10"/><path fill="none" stroke="rgb(192,192,192)" paint-order="fill stroke markers" d=" M 12.5 0.5 L 12.5 515.5 M 22.5 0.5 L 22.5 515.5 M 32.5 0.5 L 32.5 515.5 M 42.5 0.5 L 42.5 515.5 M 63.5 0.5 L 63.5 515.5 M 73.5 0.5 L 73.5 515.5 M 83.5 0.5 L 83.5 515.5 M 93.5 0.5 L 93.5 515.5 M 114.5 0.5 L 114.5 515.5 M 124.5 0.5 L 124.5 515.5 M 134.5 0.5 L 134.5 515.5 M 145.5 0.5 L 145.5 515.5 M 165.5 0.5 L 165.5 515.5 M 175.5 0.5 L 175.5 515.5 M 185.5 0.5 L 185.5 515.5 M 196.5 0.5 L 196.5 515.5 M 216.5 0.5 L 216.5 515.5 M 226.5 0.5 L 226.5 515.5 M 236.5 0.5 L 236.5 515.5 M 247.5 0.5 L 247.5 515.5 M 267.5 0.5 L 267.5 515.5 M 277.5 0.5 L 277.5 515.5 M 287.5 0.5 L 287.5 515.5 M 298.5 0.5 L 298.5 515.5 M 318.5 0.5 L 318.5 515.5 M 328.5 0.5 L 328.5 515.5 M 338.5 0.5 L 338.5 515.5 M 349.5 0.5 L 349.5 515.5 M 369.5 0.5 L 369.5 515.5 M 379.5 0.5 L 379.5 515.5 M 390.5 0.5 L 390.5 515.5 M 400.5 0.5 L 400.5 515.5 M 420.5 0.5 L 420.5 515.5 M 430.5 0.5 L 430.5 515.5 M 441.5 0.5 L 441.5 515.5 M 451.5 0.5 L 451.5 515.5 M 471.5 0.5 L 471.5 515.5 M 481.5 0.5 L 481.5 515.5 M 492.5 0.5 L 492.5 515.5 M 502.5 0.5 L 502.5 515.5 M 522.5 0.5 L 522.5 515.5 M 532.5 0.5 L 532.5 515.5 M 543.5 0.5 L 543.5 515.5 M 553.5 0.5 L 553.5 515.5 M 573.5 0.5 L 573.5 515.5 M 584.5 0.5 L 584.5 515.5 M 594.5 0.5 L 594.5 515.5 M 604.5 0.5 L 604.5 515.5 M 624.5 0.5 L 624.5 515.5 M 635.5 0.5 L 635.5 515.5 M 645.5 0.5 L 645.5 515.5 M 655.5 0.5 L 655.5 515.5 M 675.5 0.5 L 675.5 515.5 M 686.5 0.5 L 686.5 515.5 M 696.5 0.5 L 696.5 515.5 M 706.5 0.5 L 706.5 515.5 M 726.5 0.5 L 726.5 515.5 M 737.5 0.5 L 737.5 515.5 M 747.5 0.5 L 747.5 515.5 M 757.5 0.5 L 757.5 515.5 M 777.5 0.5 L 777.5 515.5 M 788.5 0.5 L 788.5 515.5 M 798.5 0.5 L 798.5 515.5 M 808.5 0.5 L 808.5 515.5 M 829.5 0.5 L 829.5 515.5 M 839.5 0.5 L 839.5 515.5 M 849.5 0.5 L 849.5 515.5 M 859.5 0.5 L 859.5 515.5 M 880.5 0.5 L 880.5 515.5 M 890.5 0.5 L 890.5 515.5" stroke-opacity="0.23529411764705882" stroke-linecap="round" stroke-linejoin="round" stroke-miterlimit="10"/><path fill="none" stroke="rgb(192,192,192)" paint-order="fill stroke markers" d=" M 0.5 7.5 L 891.5 7.5 M 0.5 7.5 L 891.5 7.5 M 0.5 57.5 L 891.5 57.5 M 0.5 107.5 L 891.5 107.5 M 0.5 157.5 L 891.5 157.5 M 0.5 207.5 L 891.5 207.5 M 0.5 307.5 L 891.5 307.5 M 0.5 357.5 L 891.5 357.5 M 0.5 407.5 L 891.5 407.5 M 0.5 457.5 L 891.5 457.5 M 0.5 507.5 L 891.5 507.5" stroke-opacity="1" stroke-linecap="round" stroke-linejoin="round" stroke-miterlimit="10"/><path fill="none" stroke="rgb(192,192,192)" paint-order="fill stroke markers" d=" M 0.5 7.5 L 891.5 7.5 M 0.5 17.5 L 891.5 17.5 M 0.5 27.5 L 891.5 27.5 M 0.5 37.5 L 891.5 37.5 M 0.5 47.5 L 891.5 47.5 M 0.5 67.5 L 891.5 67.5 M 0.5 77.5 L 891.5 77.5 M 0.5 87.5 L 891.5 87.5 M 0.5 97.5 L 891.5 97.5 M 0.5 117.5 L 891.5 117.5 M 0.5 127.5 L 891.5 127.5 M 0.5 137.5 L 891.5 137.5 M 0.5 147.5 L 891.5 147.5 M 0.5 167.5 L 891.5 167.5 M 0.5 177.5 L 891.5 177.5 M 0.5 187.5 L 891.5 187.5 M 0.5 197.5 L 891.5 197.5 M 0.5 217.5 L 891.5 217.5 M 0.5 227.5 L 891.5 227.5 M 0.5 237.5 L 891.5 237.5 M 0.5 247.5 L 891.5 247.5 M 0.5 267.5 L 891.5 267.5 M 0.5 277.5 L 891.5 277.5 M 0.5 287.5 L 891.5 287.5 M 0.5 297.5 L 891.5 297.5 M 0.5 317.5 L 891.5 317.5 M 0.5 327.5 L 891.5 327.5 M 0.5 337.5 L 891.5 337.5 M 0.5 347.5 L 891.5 347.5 M 0.5 367.5 L 891.5 367.5 M 0.5 377.5 L 891.5 377.5 M 0.5 387.5 L 891.5 387.5 M 0.5 397.5 L 891.5 397.5 M 0.5 417.5 L 891.5 417.5 M 0.5 427.5 L 891.5 427.5 M 0.5 437.5 L 891.5 437.5 M 0.5 447.5 L 891.5 447.5 M 0.5 467.5 L 891.5 467.5 M 0.5 477.5 L 891.5 477.5 M 0.5 487.5 L 891.5 487.5 M 0.5 497.5 L 891.5 497.5" stroke-opacity="0.23529411764705882" stroke-linecap="round" stroke-linejoin="round" stroke-miterlimit="10"/><path fill="none" stroke="rgb(37,37,37)" paint-order="fill stroke markers" d=" M 461.5 2.5 L 461.5 515.5" stroke-opacity="1" stroke-miterlimit="10"/><path fill="none" stroke="rgb(37,37,37)" paint-order="fill stroke markers" d=" M 461.5 1.5 L 457.5 5.5" stroke-opacity="1" stroke-miterlimit="10"/><path fill="none" stroke="rgb(37,37,37)" paint-order="fill stroke markers" d=" M 461.5 1.5 L 465.5 5.5" stroke-opacity="1" stroke-miterlimit="10"/><path fill="none" stroke="rgb(37,37,37)" paint-order="fill stroke markers" d=" M 0.5 257.5 L 889.5 257.5" stroke-opacity="1" stroke-miterlimit="10"/><path fill="none" stroke="rgb(37,37,37)" paint-order="fill stroke markers" d=" M 890.5 257.5 L 886.5 253.5" stroke-opacity="1" stroke-miterlimit="10"/><path fill="none" stroke="rgb(37,37,37)" paint-order="fill stroke markers" d=" M 890.5 257.5 L 886.5 261.5" stroke-opacity="1" stroke-miterlimit="10"/><text fill="rgb(37,37,37)" stroke="none" font-family="geogebra-sans-serif, sans-serif" font-size="12px" font-style="normal" font-weight="normal" text-decoration="normal" x="42" y="273" text-anchor="start" dominant-baseline="alphabetic" fill-opacity="1">–0.8</text><text fill="none" stroke="rgb(255,255,255)" font-family="geogebra-sans-serif, sans-serif" font-size="12px" font-style="normal" font-weight="normal" text-decoration="normal" x="42" y="273" text-anchor="start" dominant-baseline="alphabetic" stroke-opacity="1" stroke-linejoin="bevel" stroke-miterlimit="10" stroke-width="3">–0.8</text><text fill="rgb(37,37,37)" stroke="none" font-family="geogebra-sans-serif, sans-serif" font-size="12px" font-style="normal" font-weight="normal" text-decoration="normal" x="42" y="273" text-anchor="start" dominant-baseline="alphabetic" fill-opacity="1">–0.8</text><text fill="rgb(37,37,37)" stroke="none" font-family="geogebra-sans-serif, sans-serif" font-size="12px" font-style="normal" font-weight="normal" text-decoration="normal" x="93" y="273" text-anchor="start" dominant-baseline="alphabetic" fill-opacity="1">–0.7</text><text fill="none" stroke="rgb(255,255,255)" font-family="geogebra-sans-serif, sans-serif" font-size="12px" font-style="normal" font-weight="normal" text-decoration="normal" x="93" y="273" text-anchor="start" dominant-baseline="alphabetic" stroke-opacity="1" stroke-linejoin="bevel" stroke-miterlimit="10" stroke-width="3">–0.7</text><text fill="rgb(37,37,37)" stroke="none" font-family="geogebra-sans-serif, sans-serif" font-size="12px" font-style="normal" font-weight="normal" text-decoration="normal" x="93" y="273" text-anchor="start" dominant-baseline="alphabetic" fill-opacity="1">–0.7</text><text fill="rgb(37,37,37)" stroke="none" font-family="geogebra-sans-serif, sans-serif" font-size="12px" font-style="normal" font-weight="normal" text-decoration="normal" x="144" y="273" text-anchor="start" dominant-baseline="alphabetic" fill-opacity="1">–0.6</text><text fill="none" stroke="rgb(255,255,255)" font-family="geogebra-sans-serif, sans-serif" font-size="12px" font-style="normal" font-weight="normal" text-decoration="normal" x="144" y="273" text-anchor="start" dominant-baseline="alphabetic" stroke-opacity="1" stroke-linejoin="bevel" stroke-miterlimit="10" stroke-width="3">–0.6</text><text fill="rgb(37,37,37)" stroke="none" font-family="geogebra-sans-serif, sans-serif" font-size="12px" font-style="normal" font-weight="normal" text-decoration="normal" x="144" y="273" text-anchor="start" dominant-baseline="alphabetic" fill-opacity="1">–0.6</text><text fill="rgb(37,37,37)" stroke="none" font-family="geogebra-sans-serif, sans-serif" font-size="12px" font-style="normal" font-weight="normal" text-decoration="normal" x="195" y="273" text-anchor="start" dominant-baseline="alphabetic" fill-opacity="1">–0.5</text><text fill="none" stroke="rgb(255,255,255)" font-family="geogebra-sans-serif, sans-serif" font-size="12px" font-style="normal" font-weight="normal" text-decoration="normal" x="195" y="273" text-anchor="start" dominant-baseline="alphabetic" stroke-opacity="1" stroke-linejoin="bevel" stroke-miterlimit="10" stroke-width="3">–0.5</text><text fill="rgb(37,37,37)" stroke="none" font-family="geogebra-sans-serif, sans-serif" font-size="12px" font-style="normal" font-weight="normal" text-decoration="normal" x="195" y="273" text-anchor="start" dominant-baseline="alphabetic" fill-opacity="1">–0.5</text><text fill="rgb(37,37,37)" stroke="none" font-family="geogebra-sans-serif, sans-serif" font-size="12px" font-style="normal" font-weight="normal" text-decoration="normal" x="246" y="273" text-anchor="start" dominant-baseline="alphabetic" fill-opacity="1">–0.4</text><text fill="none" stroke="rgb(255,255,255)" font-family="geogebra-sans-serif, sans-serif" font-size="12px" font-style="normal" font-weight="normal" text-decoration="normal" x="246" y="273" text-anchor="start" dominant-baseline="alphabetic" stroke-opacity="1" stroke-linejoin="bevel" stroke-miterlimit="10" stroke-width="3">–0.4</text><text fill="rgb(37,37,37)" stroke="none" font-family="geogebra-sans-serif, sans-serif" font-size="12px" font-style="normal" font-weight="normal" text-decoration="normal" x="246" y="273" text-anchor="start" dominant-baseline="alphabetic" fill-opacity="1">–0.4</text><text fill="rgb(37,37,37)" stroke="none" font-family="geogebra-sans-serif, sans-serif" font-size="12px" font-style="normal" font-weight="normal" text-decoration="normal" x="297" y="273" text-anchor="start" dominant-baseline="alphabetic" fill-opacity="1">–0.3</text><text fill="none" stroke="rgb(255,255,255)" font-family="geogebra-sans-serif, sans-serif" font-size="12px" font-style="normal" font-weight="normal" text-decoration="normal" x="297" y="273" text-anchor="start" dominant-baseline="alphabetic" stroke-opacity="1" stroke-linejoin="bevel" stroke-miterlimit="10" stroke-width="3">–0.3</text><text fill="rgb(37,37,37)" stroke="none" font-family="geogebra-sans-serif, sans-serif" font-size="12px" font-style="normal" font-weight="normal" text-decoration="normal" x="297" y="273" text-anchor="start" dominant-baseline="alphabetic" fill-opacity="1">–0.3</text><text fill="rgb(37,37,37)" stroke="none" font-family="geogebra-sans-serif, sans-serif" font-size="12px" font-style="normal" font-weight="normal" text-decoration="normal" x="348" y="273" text-anchor="start" dominant-baseline="alphabetic" fill-opacity="1">–0.2</text><text fill="none" stroke="rgb(255,255,255)" font-family="geogebra-sans-serif, sans-serif" font-size="12px" font-style="normal" font-weight="normal" text-decoration="normal" x="348" y="273" text-anchor="start" dominant-baseline="alphabetic" stroke-opacity="1" stroke-linejoin="bevel" stroke-miterlimit="10" stroke-width="3">–0.2</text><text fill="rgb(37,37,37)" stroke="none" font-family="geogebra-sans-serif, sans-serif" font-size="12px" font-style="normal" font-weight="normal" text-decoration="normal" x="348" y="273" text-anchor="start" dominant-baseline="alphabetic" fill-opacity="1">–0.2</text><text fill="rgb(37,37,37)" stroke="none" font-family="geogebra-sans-serif, sans-serif" font-size="12px" font-style="normal" font-weight="normal" text-decoration="normal" x="399" y="273" text-anchor="start" dominant-baseline="alphabetic" fill-opacity="1">–0.1</text><text fill="none" stroke="rgb(255,255,255)" font-family="geogebra-sans-serif, sans-serif" font-size="12px" font-style="normal" font-weight="normal" text-decoration="normal" x="399" y="273" text-anchor="start" dominant-baseline="alphabetic" stroke-opacity="1" stroke-linejoin="bevel" stroke-miterlimit="10" stroke-width="3">–0.1</text><text fill="rgb(37,37,37)" stroke="none" font-family="geogebra-sans-serif, sans-serif" font-size="12px" font-style="normal" font-weight="normal" text-decoration="normal" x="399" y="273" text-anchor="start" dominant-baseline="alphabetic" fill-opacity="1">–0.1</text><text fill="rgb(37,37,37)" stroke="none" font-family="geogebra-sans-serif, sans-serif" font-size="12px" font-style="normal" font-weight="normal" text-decoration="normal" x="504" y="273" text-anchor="start" dominant-baseline="alphabetic" fill-opacity="1">0.1</text><text fill="none" stroke="rgb(255,255,255)" font-family="geogebra-sans-serif, sans-serif" font-size="12px" font-style="normal" font-weight="normal" text-decoration="normal" x="504" y="273" text-anchor="start" dominant-baseline="alphabetic" stroke-opacity="1" stroke-linejoin="bevel" stroke-miterlimit="10" stroke-width="3">0.1</text><text fill="rgb(37,37,37)" stroke="none" font-family="geogebra-sans-serif, sans-serif" font-size="12px" font-style="normal" font-weight="normal" text-decoration="normal" x="504" y="273" text-anchor="start" dominant-baseline="alphabetic" fill-opacity="1">0.1</text><text fill="rgb(37,37,37)" stroke="none" font-family="geogebra-sans-serif, sans-serif" font-size="12px" font-style="normal" font-weight="normal" text-decoration="normal" x="555" y="273" text-anchor="start" dominant-baseline="alphabetic" fill-opacity="1">0.2</text><text fill="none" stroke="rgb(255,255,255)" font-family="geogebra-sans-serif, sans-serif" font-size="12px" font-style="normal" font-weight="normal" text-decoration="normal" x="555" y="273" text-anchor="start" dominant-baseline="alphabetic" stroke-opacity="1" stroke-linejoin="bevel" stroke-miterlimit="10" stroke-width="3">0.2</text><text fill="rgb(37,37,37)" stroke="none" font-family="geogebra-sans-serif, sans-serif" font-size="12px" font-style="normal" font-weight="normal" text-decoration="normal" x="555" y="273" text-anchor="start" dominant-baseline="alphabetic" fill-opacity="1">0.2</text><text fill="rgb(37,37,37)" stroke="none" font-family="geogebra-sans-serif, sans-serif" font-size="12px" font-style="normal" font-weight="normal" text-decoration="normal" x="606" y="273" text-anchor="start" dominant-baseline="alphabetic" fill-opacity="1">0.3</text><text fill="none" stroke="rgb(255,255,255)" font-family="geogebra-sans-serif, sans-serif" font-size="12px" font-style="normal" font-weight="normal" text-decoration="normal" x="606" y="273" text-anchor="start" dominant-baseline="alphabetic" stroke-opacity="1" stroke-linejoin="bevel" stroke-miterlimit="10" stroke-width="3">0.3</text><text fill="rgb(37,37,37)" stroke="none" font-family="geogebra-sans-serif, sans-serif" font-size="12px" font-style="normal" font-weight="normal" text-decoration="normal" x="606" y="273" text-anchor="start" dominant-baseline="alphabetic" fill-opacity="1">0.3</text><text fill="rgb(37,37,37)" stroke="none" font-family="geogebra-sans-serif, sans-serif" font-size="12px" font-style="normal" font-weight="normal" text-decoration="normal" x="657" y="273" text-anchor="start" dominant-baseline="alphabetic" fill-opacity="1">0.4</text><text fill="none" stroke="rgb(255,255,255)" font-family="geogebra-sans-serif, sans-serif" font-size="12px" font-style="normal" font-weight="normal" text-decoration="normal" x="657" y="273" text-anchor="start" dominant-baseline="alphabetic" stroke-opacity="1" stroke-linejoin="bevel" stroke-miterlimit="10" stroke-width="3">0.4</text><text fill="rgb(37,37,37)" stroke="none" font-family="geogebra-sans-serif, sans-serif" font-size="12px" font-style="normal" font-weight="normal" text-decoration="normal" x="657" y="273" text-anchor="start" dominant-baseline="alphabetic" fill-opacity="1">0.4</text><text fill="rgb(37,37,37)" stroke="none" font-family="geogebra-sans-serif, sans-serif" font-size="12px" font-style="normal" font-weight="normal" text-decoration="normal" x="708" y="273" text-anchor="start" dominant-baseline="alphabetic" fill-opacity="1">0.5</text><text fill="none" stroke="rgb(255,255,255)" font-family="geogebra-sans-serif, sans-serif" font-size="12px" font-style="normal" font-weight="normal" text-decoration="normal" x="708" y="273" text-anchor="start" dominant-baseline="alphabetic" stroke-opacity="1" stroke-linejoin="bevel" stroke-miterlimit="10" stroke-width="3">0.5</text><text fill="rgb(37,37,37)" stroke="none" font-family="geogebra-sans-serif, sans-serif" font-size="12px" font-style="normal" font-weight="normal" text-decoration="normal" x="708" y="273" text-anchor="start" dominant-baseline="alphabetic" fill-opacity="1">0.5</text><text fill="rgb(37,37,37)" stroke="none" font-family="geogebra-sans-serif, sans-serif" font-size="12px" font-style="normal" font-weight="normal" text-decoration="normal" x="759" y="273" text-anchor="start" dominant-baseline="alphabetic" fill-opacity="1">0.6</text><text fill="none" stroke="rgb(255,255,255)" font-family="geogebra-sans-serif, sans-serif" font-size="12px" font-style="normal" font-weight="normal" text-decoration="normal" x="759" y="273" text-anchor="start" dominant-baseline="alphabetic" stroke-opacity="1" stroke-linejoin="bevel" stroke-miterlimit="10" stroke-width="3">0.6</text><text fill="rgb(37,37,37)" stroke="none" font-family="geogebra-sans-serif, sans-serif" font-size="12px" font-style="normal" font-weight="normal" text-decoration="normal" x="759" y="273" text-anchor="start" dominant-baseline="alphabetic" fill-opacity="1">0.6</text><text fill="rgb(37,37,37)" stroke="none" font-family="geogebra-sans-serif, sans-serif" font-size="12px" font-style="normal" font-weight="normal" text-decoration="normal" x="810" y="273" text-anchor="start" dominant-baseline="alphabetic" fill-opacity="1">0.7</text><text fill="none" stroke="rgb(255,255,255)" font-family="geogebra-sans-serif, sans-serif" font-size="12px" font-style="normal" font-weight="normal" text-decoration="normal" x="810" y="273" text-anchor="start" dominant-baseline="alphabetic" stroke-opacity="1" stroke-linejoin="bevel" stroke-miterlimit="10" stroke-width="3">0.7</text><text fill="rgb(37,37,37)" stroke="none" font-family="geogebra-sans-serif, sans-serif" font-size="12px" font-style="normal" font-weight="normal" text-decoration="normal" x="810" y="273" text-anchor="start" dominant-baseline="alphabetic" fill-opacity="1">0.7</text><text fill="rgb(37,37,37)" stroke="none" font-family="geogebra-sans-serif, sans-serif" font-size="12px" font-style="normal" font-weight="normal" text-decoration="normal" x="861" y="273" text-anchor="start" dominant-baseline="alphabetic" fill-opacity="1">0.8</text><text fill="none" stroke="rgb(255,255,255)" font-family="geogebra-sans-serif, sans-serif" font-size="12px" font-style="normal" font-weight="normal" text-decoration="normal" x="861" y="273" text-anchor="start" dominant-baseline="alphabetic" stroke-opacity="1" stroke-linejoin="bevel" stroke-miterlimit="10" stroke-width="3">0.8</text><text fill="rgb(37,37,37)" stroke="none" font-family="geogebra-sans-serif, sans-serif" font-size="12px" font-style="normal" font-weight="normal" text-decoration="normal" x="861" y="273" text-anchor="start" dominant-baseline="alphabetic" fill-opacity="1">0.8</text><text fill="rgb(37,37,37)" stroke="none" font-family="geogebra-sans-serif, sans-serif" font-size="12px" font-style="normal" font-weight="normal" text-decoration="normal" x="440" y="462" text-anchor="start" dominant-baseline="alphabetic" fill-opacity="1">–4</text><text fill="none" stroke="rgb(255,255,255)" font-family="geogebra-sans-serif, sans-serif" font-size="12px" font-style="normal" font-weight="normal" text-decoration="normal" x="440" y="462" text-anchor="start" dominant-baseline="alphabetic" stroke-opacity="1" stroke-linejoin="bevel" stroke-miterlimit="10" stroke-width="3">–4</text><text fill="rgb(37,37,37)" stroke="none" font-family="geogebra-sans-serif, sans-serif" font-size="12px" font-style="normal" font-weight="normal" text-decoration="normal" x="440" y="462" text-anchor="start" dominant-baseline="alphabetic" fill-opacity="1">–4</text><text fill="rgb(37,37,37)" stroke="none" font-family="geogebra-sans-serif, sans-serif" font-size="12px" font-style="normal" font-weight="normal" text-decoration="normal" x="440" y="412" text-anchor="start" dominant-baseline="alphabetic" fill-opacity="1">–3</text><text fill="none" stroke="rgb(255,255,255)" font-family="geogebra-sans-serif, sans-serif" font-size="12px" font-style="normal" font-weight="normal" text-decoration="normal" x="440" y="412" text-anchor="start" dominant-baseline="alphabetic" stroke-opacity="1" stroke-linejoin="bevel" stroke-miterlimit="10" stroke-width="3">–3</text><text fill="rgb(37,37,37)" stroke="none" font-family="geogebra-sans-serif, sans-serif" font-size="12px" font-style="normal" font-weight="normal" text-decoration="normal" x="440" y="412" text-anchor="start" dominant-baseline="alphabetic" fill-opacity="1">–3</text><text fill="rgb(37,37,37)" stroke="none" font-family="geogebra-sans-serif, sans-serif" font-size="12px" font-style="normal" font-weight="normal" text-decoration="normal" x="440" y="362" text-anchor="start" dominant-baseline="alphabetic" fill-opacity="1">–2</text><text fill="none" stroke="rgb(255,255,255)" font-family="geogebra-sans-serif, sans-serif" font-size="12px" font-style="normal" font-weight="normal" text-decoration="normal" x="440" y="362" text-anchor="start" dominant-baseline="alphabetic" stroke-opacity="1" stroke-linejoin="bevel" stroke-miterlimit="10" stroke-width="3">–2</text><text fill="rgb(37,37,37)" stroke="none" font-family="geogebra-sans-serif, sans-serif" font-size="12px" font-style="normal" font-weight="normal" text-decoration="normal" x="440" y="362" text-anchor="start" dominant-baseline="alphabetic" fill-opacity="1">–2</text><text fill="rgb(37,37,37)" stroke="none" font-family="geogebra-sans-serif, sans-serif" font-size="12px" font-style="normal" font-weight="normal" text-decoration="normal" x="440" y="312" text-anchor="start" dominant-baseline="alphabetic" fill-opacity="1">–1</text><text fill="none" stroke="rgb(255,255,255)" font-family="geogebra-sans-serif, sans-serif" font-size="12px" font-style="normal" font-weight="normal" text-decoration="normal" x="440" y="312" text-anchor="start" dominant-baseline="alphabetic" stroke-opacity="1" stroke-linejoin="bevel" stroke-miterlimit="10" stroke-width="3">–1</text><text fill="rgb(37,37,37)" stroke="none" font-family="geogebra-sans-serif, sans-serif" font-size="12px" font-style="normal" font-weight="normal" text-decoration="normal" x="440" y="312" text-anchor="start" dominant-baseline="alphabetic" fill-opacity="1">–1</text><text fill="rgb(37,37,37)" stroke="none" font-family="geogebra-sans-serif, sans-serif" font-size="12px" font-style="normal" font-weight="normal" text-decoration="normal" x="446" y="212" text-anchor="start" dominant-baseline="alphabetic" fill-opacity="1">1</text><text fill="none" stroke="rgb(255,255,255)" font-family="geogebra-sans-serif, sans-serif" font-size="12px" font-style="normal" font-weight="normal" text-decoration="normal" x="446" y="212" text-anchor="start" dominant-baseline="alphabetic" stroke-opacity="1" stroke-linejoin="bevel" stroke-miterlimit="10" stroke-width="3">1</text><text fill="rgb(37,37,37)" stroke="none" font-family="geogebra-sans-serif, sans-serif" font-size="12px" font-style="normal" font-weight="normal" text-decoration="normal" x="446" y="212" text-anchor="start" dominant-baseline="alphabetic" fill-opacity="1">1</text><text fill="rgb(37,37,37)" stroke="none" font-family="geogebra-sans-serif, sans-serif" font-size="12px" font-style="normal" font-weight="normal" text-decoration="normal" x="446" y="162" text-anchor="start" dominant-baseline="alphabetic" fill-opacity="1">2</text><text fill="none" stroke="rgb(255,255,255)" font-family="geogebra-sans-serif, sans-serif" font-size="12px" font-style="normal" font-weight="normal" text-decoration="normal" x="446" y="162" text-anchor="start" dominant-baseline="alphabetic" stroke-opacity="1" stroke-linejoin="bevel" stroke-miterlimit="10" stroke-width="3">2</text><text fill="rgb(37,37,37)" stroke="none" font-family="geogebra-sans-serif, sans-serif" font-size="12px" font-style="normal" font-weight="normal" text-decoration="normal" x="446" y="162" text-anchor="start" dominant-baseline="alphabetic" fill-opacity="1">2</text><text fill="rgb(37,37,37)" stroke="none" font-family="geogebra-sans-serif, sans-serif" font-size="12px" font-style="normal" font-weight="normal" text-decoration="normal" x="446" y="112" text-anchor="start" dominant-baseline="alphabetic" fill-opacity="1">3</text><text fill="none" stroke="rgb(255,255,255)" font-family="geogebra-sans-serif, sans-serif" font-size="12px" font-style="normal" font-weight="normal" text-decoration="normal" x="446" y="112" text-anchor="start" dominant-baseline="alphabetic" stroke-opacity="1" stroke-linejoin="bevel" stroke-miterlimit="10" stroke-width="3">3</text><text fill="rgb(37,37,37)" stroke="none" font-family="geogebra-sans-serif, sans-serif" font-size="12px" font-style="normal" font-weight="normal" text-decoration="normal" x="446" y="112" text-anchor="start" dominant-baseline="alphabetic" fill-opacity="1">3</text><text fill="rgb(37,37,37)" stroke="none" font-family="geogebra-sans-serif, sans-serif" font-size="12px" font-style="normal" font-weight="normal" text-decoration="normal" x="446" y="62" text-anchor="start" dominant-baseline="alphabetic" fill-opacity="1">4</text><text fill="none" stroke="rgb(255,255,255)" font-family="geogebra-sans-serif, sans-serif" font-size="12px" font-style="normal" font-weight="normal" text-decoration="normal" x="446" y="62" text-anchor="start" dominant-baseline="alphabetic" stroke-opacity="1" stroke-linejoin="bevel" stroke-miterlimit="10" stroke-width="3">4</text><text fill="rgb(37,37,37)" stroke="none" font-family="geogebra-sans-serif, sans-serif" font-size="12px" font-style="normal" font-weight="normal" text-decoration="normal" x="446" y="62" text-anchor="start" dominant-baseline="alphabetic" fill-opacity="1">4</text><text fill="rgb(37,37,37)" stroke="none" font-family="geogebra-sans-serif, sans-serif" font-size="12px" font-style="normal" font-weight="normal" text-decoration="normal" x="446" y="273" text-anchor="start" dominant-baseline="alphabetic" fill-opacity="1">0</text><text fill="none" stroke="rgb(255,255,255)" font-family="geogebra-sans-serif, sans-serif" font-size="12px" font-style="normal" font-weight="normal" text-decoration="normal" x="446" y="273" text-anchor="start" dominant-baseline="alphabetic" stroke-opacity="1" stroke-linejoin="bevel" stroke-miterlimit="10" stroke-width="3">0</text><text fill="rgb(37,37,37)" stroke="none" font-family="geogebra-sans-serif, sans-serif" font-size="12px" font-style="normal" font-weight="normal" text-decoration="normal" x="446" y="273" text-anchor="start" dominant-baseline="alphabetic" fill-opacity="1">0</text><path fill="none" stroke="rgb(153,51,0)" paint-order="fill stroke markers" d=" M 0.5 253.94247421105382 L 0.5 255.32705711931678 L 0.5 255.32705711931678 L 1.5 256.7117223260267 L 1.5 256.7117223260267 L 2.5 258.0964173881134 L 2.5 258.0964173881134 L 3.5 259.4810898613759 L 3.5 259.4810898613759 L 4.5 260.86568730246864 L 4.5 260.86568730246864 L 5.5 262.2501572708882 L 5.5 262.2501572708882 L 6.499999999999943 263.6344473309585 L 6.499999999999943 263.6344473309585 L 7.5 265.01850505381793 L 7.5 265.01850505381793 L 8.5 266.40227801940387 L 8.5 266.40227801940387 L 9.5 267.7857138184392 L 9.5 267.7857138184392 L 10.5 269.16876005441645 L 10.5 269.16876005441645 L 11.5 270.5513643455826 L 11.5 270.5513643455826 L 12.5 271.9334743269229 L 12.5 271.9334743269229 L 13.5 273.3150376521442 L 13.5 273.3150376521442 L 14.5 274.69600199565764 L 14.5 274.69600199565764 L 15.5 276.07631505455987 L 15.5 276.07631505455987 L 16.5 277.45592455061495 L 16.5 277.45592455061495 L 17.5 278.83477823223336 L 17.5 278.8347782322333 L 18.5 280.2128238764517 L 18.5 280.21282387645164 L 19.5 281.5900092909103 L 19.5 281.59000929091025 L 20.5 282.96628231583 L 20.5 282.96628231583 L 21.5 284.3415908259876 L 21.5 284.3415908259876 L 22.5 285.7158827326902 L 22.5 285.71588273269015 L 23.5 287.08910598574795 L 23.5 287.08910598574795 L 24.5 288.461208575445 L 24.5 288.461208575445 L 25.5 289.8321385345105 L 25.5 289.8321385345104 L 26.5 291.2018439400849 L 26.5 291.2018439400849 L 27.5 292.5702729156887 L 27.5 292.5702729156887 L 28.5 293.93737363318564 L 28.5 293.9373736331856 L 29.5 295.3030943147462 L 29.5 295.3030943147462 L 30.5 296.6673832348087 L 30.5 296.6673832348087 L 31.5 298.0301887220384 L 31.5 298.03018872203836 L 32.5 299.39145916128376 L 32.5 299.39145916128376 L 33.5 300.75114299553275 L 33.5 300.75114299553275 L 34.5 302.1091887278639 L 34.5 302.10918872786385 L 35.5 303.46554492339817 L 35.5 303.46554492339817 L 36.5 304.8201602112461 L 36.5 304.8201602112461 L 37.5 306.17298328645376 L 37.5 306.1729832864537 L 38.5 307.5239629119457 L 38.5 307.52396291194566 L 39.5 308.87304792046575 L 39.5 308.87304792046575 L 40.5 310.22018721651483 L 40.5 310.22018721651483 L 41.5 311.5653297782862 L 41.5 311.5653297782862 L 42.5 312.9084246595973 L 42.5 312.9084246595973 L 43.5 314.24942099182067 L 43.5 314.2494209918206 L 44.5 315.5882679858087 L 44.5 315.58826798580867 L 45.5 316.9249149338191 L 45.5 316.9249149338191 L 46.5 318.25931121143407 L 46.5 318.259311211434 L 47.5 319.59140627947824 L 47.5 319.5914062794782 L 48.5 320.92114968593285 L 48.5 320.92114968593285 L 49.5 322.2484910678459 L 49.5 322.2484910678459 L 50.5 323.5733801532407 L 50.5 323.5733801532407 L 51.5 324.89576676301897 L 51.5 324.8957667630189 L 52.5 326.2156008128619 L 52.5 326.21560081286185 L 53.5 327.53283231512637 L 53.5 327.5328323151263 L 54.5 328.84741138073906 L 54.5 328.847411380739 L 55.5 330.15928822108543 L 55.5 330.1592882210854 L 56.5 331.46841314989547 L 56.5 331.46841314989547 L 57.5 332.77473658512565 L 57.5 332.77473658512565 L 58.5 334.0782090508369 L 58.5 334.0782090508369 L 59.5 335.3787811790677 L 59.5 335.3787811790677 L 60.5 336.67640371170523 L 60.5 336.67640371170523 L 61.50000000000006 337.97102750234944 L 61.50000000000006 337.97102750234944 L 62.5 339.26260351817587 L 62.5 339.2626035181758 L 63.5 340.55108284179164 L 63.5 340.55108284179164 L 64.5 341.8364166730889 L 64.5 341.8364166730889 L 65.5 343.1185563310924 L 65.5 343.1185563310924 L 66.5 344.39745325580395 L 66.5 344.3974532558039 L 67.5 345.67305901004113 L 67.5 345.67305901004113 L 68.5 346.9453252812716 L 68.5 346.9453252812716 L 69.5 348.21420388344393 L 69.5 348.2142038834439 L 70.5 349.479646758811 L 70.5 349.479646758811 L 71.5 350.74160597975185 L 71.5 350.74160597975185 L 72.5 352.0000337505857 L 72.5 352.0000337505857 L 73.5 353.2548824093828 L 73.5 353.25488240938273 L 74.5 354.5061044297691 L 74.5 354.50610442976904 L 75.5 355.7536524227269 L 75.5 355.7536524227269 L 76.5 356.9974791383887 L 76.5 356.9974791383887 L 77.5 358.23753746782796 L 77.5 358.23753746782796 L 78.5 359.47378044484265 L 78.5 359.4737804448426 L 79.5 360.70616124773346 L 79.5 360.70616124773346 L 80.50000000000006 361.93463320107867 L 80.50000000000006 361.9346332010786 L 81.5 363.15914977750043 L 81.5 363.15914977750043 L 82.5 364.379664599428 L 82.5 364.37966459942794 L 83.5 365.59613144085347 L 83.5 365.59613144085347 L 84.5 366.8085042290835 L 84.5 366.8085042290835 L 85.5 368.0167370464827 L 85.5 368.0167370464827 L 86.5 369.22078413221476 L 86.5 369.22078413221476 L 87.5 370.42059988397375 L 87.5 370.42059988397375 L 88.5 371.6161388597126 L 88.5 371.6161388597125 L 89.5 372.8073557793633 L 89.5 372.80735577936326 L 90.5 373.9942055265526 L 90.5 373.99420552655255 L 91.5 375.17664315031004 L 91.5 375.17664315031 L 92.5 376.3546238667709 L 92.5 376.35462386677085 L 93.5 377.52810306087207 L 93.5 377.528103060872 L 94.5 378.6970362880422 L 94.5 378.6970362880422 L 95.5 379.8613792758845 L 95.5 379.8613792758844 L 96.5 381.0210879258538 L 96.5 381.02108792585375 L 97.5 382.1761183149266 L 97.5 382.1761183149266 L 98.5 383.3264266972651 L 98.5 383.3264266972651 L 99.50000000000006 384.4719695058734 L 99.50000000000006 384.4719695058734 L 100.5 385.61270335424797 L 100.5 385.6127033542479 L 101.5 386.7485850380207 L 101.5 386.7485850380207 L 102.5 387.879571536595 L 102.5 387.87957153659494 L 103.5 389.005620014776 L 103.5 389.00562001477596 L 104.5 390.1266878243917 L 104.5 390.12668782439164 L 105.5 391.2427325059094 L 105.5 391.2427325059093 L 106.5 392.353711790043 L 106.5 392.353711790043 L 107.5 393.45958359935446 L 107.5 393.45958359935446 L 108.5 394.560306049847 L 108.5 394.5603060498469 L 109.5 395.6558374525516 L 109.5 395.65583745255157 L 110.5 396.7461363151061 L 110.5 396.7461363151061 L 111.5 397.8311613433268 L 111.5 397.8311613433267 L 112.5 398.9108714427713 L 112.5 398.9108714427713 L 113.5 399.98522572029685 L 113.5 399.9852257202968 L 114.5 401.0541834856073 L 114.5 401.05418348560727 L 115.5 402.1177042527956 L 115.5 402.11770425279553 L 116.50000000000006 403.17574774187625 L 116.50000000000006 403.1757477418762 L 117.5 404.22827388031135 L 117.5 404.22827388031135 L 118.50000000000006 405.27524280452826 L 118.50000000000006 405.2752428045282 L 119.5 406.316614861429 L 119.5 406.31661486142895 L 120.5 407.35235060989277 L 120.5 407.3523506098927 L 121.5 408.382410822269 L 121.5 408.382410822269 L 122.5 409.40675648586387 L 122.5 409.40675648586375 L 123.5 410.42534880441696 L 123.5 410.4253488044169 L 124.5 411.43814919957157 L 124.5 411.4381491995715 L 125.5 412.4451193123351 L 125.5 412.44511931233507 L 126.5 413.44622100453245 L 126.5 413.4462210045324 L 127.5 414.4414163602497 L 127.5 414.4414163602497 L 128.5 415.4306676872713 L 128.5 415.43066768727124 L 129.5 416.41393751850626 L 129.5 416.41393751850615 L 130.5 417.3911886134084 L 130.5 417.3911886134083 L 131.5 418.36238395938597 L 131.5 418.3623839593859 L 132.5 419.327486773204 L 132.5 419.327486773204 L 133.5 420.2864605023773 L 133.5 420.28646050237717 L 134.5 421.23926882655434 L 134.5 421.2392688265543 L 135.50000000000006 422.1858756588939 L 135.50000000000006 422.18587565889385 L 136.5 423.12624514743067 L 136.5 423.1262451474306 L 137.50000000000006 424.0603416764342 L 137.50000000000006 424.06034167643406 L 138.5 424.9881298677567 L 138.5 424.98812986775664 L 139.5 425.90957458217406 L 139.5 425.90957458217406 L 140.5 426.824640920716 L 140.5 426.8246409207159 L 141.5 427.73329422598795 L 141.5 427.73329422598795 L 142.5 428.635500083484 L 142.5 428.6355000834839 L 143.5 429.5312243228898 L 143.5 429.5312243228898 L 144.5 430.42043301937736 L 144.5 430.4204330193773 L 145.5 431.30309249488937 L 145.5 431.30309249488937 L 146.5 432.1791693194149 L 146.5 432.1791693194148 L 147.5 433.0486303122557 L 147.5 433.04863031225557 L 148.5 433.91144254328265 L 148.5 433.91144254328265 L 149.5 434.76757333418345 L 149.5 434.76757333418345 L 150.5 435.6169902596993 L 150.5 435.61699025969926 L 151.5 436.45966114885414 L 151.5 436.45966114885414 L 152.5 437.2955540861723 L 152.5 437.2955540861723 L 153.5 438.12463741288764 L 153.5 438.1246374128876 L 154.50000000000006 438.94687972814245 L 154.50000000000006 438.94687972814233 L 155.5 439.7622498901766 L 155.5 439.7622498901766 L 156.50000000000006 440.5707170175075 L 156.50000000000006 440.5707170175075 L 157.5 441.3722504900992 L 157.5 441.37225049009913 L 158.5 442.1668199505225 L 158.5 442.1668199505224 L 159.5 442.95439530510396 L 159.5 442.95439530510396 L 160.5 443.73494672506695 L 160.5 443.73494672506683 L 161.5 444.50844464766004 L 161.5 444.50844464766 L 162.5 445.27485977727787 L 162.5 445.2748597772778 L 163.5 446.0341630865695 L 163.5 446.0341630865695 L 164.5 446.7863258175388 L 164.5 446.7863258175388 L 165.5 447.53131948263325 L 165.5 447.5313194826332 L 166.5 448.2691158658227 L 166.5 448.26911586582264 L 167.5 448.99968702366823 L 167.5 448.9996870236682 L 168.5 449.7230052863806 L 168.5 449.7230052863806 L 169.5 450.43904325886797 L 169.5 450.4390432588679 L 170.5 451.1477738217736 L 170.5 451.14777382177357 L 171.50000000000006 451.8491701325031 L 171.50000000000006 451.84917013250305 L 172.5 452.5432056262405 L 172.5 452.5432056262405 L 173.50000000000006 453.2298540169553 L 173.50000000000006 453.2298540169553 L 174.5 453.90908929839725 L 174.5 453.90908929839725 L 175.50000000000006 454.5808857450818 L 175.50000000000006 454.5808857450818 L 176.5 455.2452179132639 L 176.5 455.2452179132638 L 177.5 455.90206064190215 L 177.5 455.90206064190215 L 178.5 456.55138905361173 L 178.5 456.5513890536117 L 179.5 457.1931785556064 L 179.5 457.1931785556063 L 180.5 457.8274048406298 L 180.5 457.82740484062975 L 181.5 458.45404388787654 L 181.5 458.4540438878764 L 182.5 459.0730719639015 L 182.5 459.0730719639014 L 183.5 459.68446562351903 L 183.5 459.68446562351903 L 184.5 460.28820171069077 L 184.5 460.2882017106907 L 185.5 460.8842573594028 L 185.5 460.88425735940274 L 186.5 461.47260999453135 L 186.5 461.4726099945313 L 187.5 462.05323733269813 L 187.5 462.053237332698 L 188.5 462.62611738311426 L 188.5 462.6261173831142 L 189.5 463.1912284484132 L 189.5 463.19122844841314 L 190.50000000000006 463.7485491254721 L 190.50000000000006 463.748549125472 L 191.5 464.29805830622286 L 191.5 464.29805830622286 L 192.5 464.83973517845163 L 192.5 464.83973517845163 L 193.5 465.3735592265868 L 193.5 465.37355922658674 L 194.50000000000006 465.8995102324759 L 194.50000000000006 465.8995102324758 L 195.5 466.41756827615177 L 195.5 466.41756827615166 L 196.49999999999994 466.92771373658667 L 196.49999999999994 466.9277137365866 L 197.5 467.42992729243565 L 197.5 467.4299272924356 L 198.5 467.92418992276805 L 198.5 467.92418992276805 L 199.50000000000006 468.41048290778815 L 199.50000000000006 468.4104829077881 L 200.5 468.88878782954407 L 200.5 468.888787829544 L 201.5 469.3590865726252 L 201.5 469.3590865726252 L 202.5 469.8213613248488 L 202.5 469.8213613248488 L 203.50000000000006 470.2755945779338 L 203.50000000000006 470.2755945779338 L 204.5 470.72176912816474 L 204.5 470.7217691281647 L 205.49999999999997 471.1598680770428 L 205.49999999999997 471.1598680770428 L 206.5 471.5898748319262 L 206.5 471.5898748319261 L 207.5 472.01177310665804 L 207.5 472.011773106658 L 208.5 472.425546922184 L 208.5 472.42554692218397 L 209.5 472.83118060715674 L 209.5 472.8311806071567 L 210.5 473.22865879852986 L 210.5 473.22865879852986 L 211.5 473.61796644213973 L 211.5 473.6179664421396 L 212.5 473.9990887932753 L 212.5 473.9990887932753 L 213.5 474.3720114172372 L 213.5 474.37201141723716 L 214.5 474.73672018988384 L 214.5 474.7367201898837 L 215.5 475.0932012981666 L 215.5 475.09320129816655 L 216.5 475.44144124065303 L 216.5 475.441441240653 L 217.50000000000003 475.7814268280381 L 217.50000000000003 475.781426828038 L 218.50000000000003 476.1131451836437 L 218.50000000000003 476.11314518364367 L 219.50000000000003 476.4365837439067 L 219.50000000000003 476.4365837439066 L 220.50000000000003 476.7517302588541 L 220.50000000000003 476.75173025885397 L 221.50000000000003 477.0585727925676 L 221.50000000000003 477.05857279256753 L 222.50000000000003 477.35709972363543 L 222.50000000000003 477.3570997236354 L 223.5 477.64729974559253 L 223.5 477.6472997455925 L 224.5 477.92916186734874 L 224.5 477.9291618673486 L 225.5 478.202675413605 L 225.5 478.202675413605 L 226.5 478.46783002525797 L 226.5 478.46783002525797 L 227.5 478.724615659792 L 227.5 478.724615659792 L 228.5 478.97302259165986 L 228.5 478.97302259165974 L 229.5 479.21304141265045 L 229.5 479.21304141265045 L 230.5 479.444663032246 L 230.5 479.444663032246 L 231.5 479.6678786779659 L 231.5 479.66787867796586 L 232.5 479.8826798956986 L 232.5 479.8826798956985 L 233.5 480.0890585500225 L 233.5 480.08905855002246 L 234.5 480.2870068245137 L 234.5 480.2870068245136 L 235.50000000000003 480.47651722204193 L 235.50000000000003 480.47651722204193 L 236.50000000000003 480.657582565055 L 236.50000000000003 480.65758256505495 L 237.50000000000003 480.83019599584986 L 237.50000000000003 480.83019599584986 L 238.50000000000003 480.9943509768332 L 238.50000000000003 480.99435097683306 L 239.50000000000003 481.15004129076823 L 239.50000000000003 481.1500412907682 L 240.50000000000003 481.29726104101087 L 240.50000000000003 481.29726104101076 L 241.50000000000003 481.43600465173256 L 241.50000000000003 481.4360046517325 L 242.5 481.5662668681317 L 242.5 481.5662668681317 L 243.5 481.68804275663274 L 243.5 481.68804275663274 L 244.5 481.8013277050727 L 244.5 481.8013277050727 L 245.5 481.90611742287626 L 245.5 481.9061174228762 L 246.5 482.00240794121777 L 246.5 482.0024079412177 L 247.5 482.09019561317217 L 247.5 482.0901956131721 L 248.5 482.16947711385274 L 248.5 482.1694771138526 L 249.5 482.2402494405368 L 249.5 482.24024944053673 L 250.5 482.3025099127802 L 250.5 482.3025099127801 L 251.5 482.35625617251793 L 251.5 482.3562561725179 L 252.5 482.4014861841541 L 252.5 482.4014861841541 L 253.50000000000003 482.4381982346389 L 253.50000000000003 482.43819823463883 L 254.50000000000003 482.46639093353303 L 254.50000000000003 482.466390933533 L 255.50000000000003 482.48606321306096 L 255.50000000000003 482.4860632130609 L 256.5 482.49721432815113 L 256.5 482.4972143281511 L 257.5 482.5 L 257.5 482.49984385646405 L 258.5 482.4939516984085 L 258.5 482.4939516984086 L 259.5 482.4795380771452 L 259.5 482.4795380771453 L 260.5 482.4566035385784 L 260.5 482.45660353857846 L 261.5 482.425148951335 L 261.5 482.4251489513351 L 262.5 482.3851755067321 L 262.5 482.38517550673214 L 263.5 482.33668471873125 L 263.5 482.3366847187313 L 264.5 482.2796784238818 L 264.5 482.2796784238819 L 265.5 482.21415878125094 L 265.5 482.21415878125094 L 266.5 482.14012827234177 L 266.5 482.1401282723418 L 267.5 482.05758970099976 L 267.5 482.05758970099987 L 268.5 481.9665461933063 L 268.5 481.9665461933064 L 269.5 481.86700119746035 L 269.5 481.86700119746035 L 270.5 481.7589584836477 L 270.5 481.7589584836477 L 271.5 481.64242214389833 L 271.5 481.6424221438984 L 272.5 481.51739659193163 L 272.5 481.5173965919317 L 273.5 481.3838865629888 L 273.5 481.3838865629889 L 274.5 481.24189711365375 L 274.5 481.2418971136538 L 275.5 481.09143362166157 L 275.5 481.0914336216616 L 276.5 480.9325017856948 L 276.5 480.93250178569485 L 277.5 480.76510762516773 L 277.5 480.76510762516773 L 278.5 480.5892574799982 L 278.5 480.5892574799982 L 279.5 480.40495801036764 L 279.5 480.4049580103677 L 280.5 480.21221619646883 L 280.5 480.2122161964689 L 281.5 480.0110393382415 L 281.5 480.0110393382415 L 282.5 479.8014350550957 L 282.5 479.8014350550957 L 283.5 479.58341128562347 L 283.5 479.58341128562347 L 284.5 479.356976287298 L 284.5 479.35697628729804 L 285.5 479.12213863616097 L 285.5 479.122138636161 L 286.5 478.87890722649774 L 286.5 478.87890722649786 L 287.5 478.6272912705005 L 287.5 478.62729127050056 L 288.5 478.3673002979191 L 288.5 478.3673002979192 L 289.5 478.0989441557006 L 289.5 478.0989441557007 L 290.5 477.8222330076159 L 290.5 477.822233007616 L 291.5 477.5371773338751 L 291.5 477.5371773338751 L 292.5 477.24378793073026 L 292.5 477.24378793073026 L 293.5 476.94207591006676 L 293.5 476.9420759100668 L 294.5 476.63205269898253 L 294.5 476.63205269898253 L 295.5 476.31373003935477 L 295.5 476.3137300393548 L 296.5 475.9871199873958 L 296.5 475.9871199873958 L 297.5 475.6522349131959 L 297.5 475.652234913196 L 298.5 475.3090875002556 L 298.5 475.30908750025566 L 299.5 474.95769074500436 L 299.5 474.9576907450044 L 300.5 474.59805795630893 L 300.5 474.59805795630905 L 301.5 474.2302027549691 L 301.5 474.2302027549692 L 302.5 473.85413907320196 L 302.5 473.85413907320196 L 303.5 473.469881154114 L 303.5 473.4698811541141 L 304.5 473.07744355116193 L 304.5 473.077443551162 L 305.5 472.67684112760116 L 305.5 472.6768411276013 L 306.5 472.2680890559233 L 306.5 472.2680890559234 L 307.5 471.8512028172811 L 307.5 471.8512028172811 L 308.5 471.4261982009021 L 308.5 471.42619820090215 L 309.5 470.99309130349127 L 309.5 470.9930913034914 L 310.5 470.55189852862054 L 310.5 470.5518985286206 L 311.5 470.10263658610796 L 311.5 470.102636586108 L 312.5 469.6453224913847 L 312.5 469.6453224913848 L 313.5 469.17997356485085 L 313.5 469.1799735648509 L 314.5 468.706607431219 L 314.5 468.70660743121914 L 315.5 468.2252420188472 L 315.5 468.22524201884727 L 316.5 467.7358955590594 L 316.5 467.73589555905943 L 317.5 467.2385865854554 L 317.5 467.23858658545544 L 318.5 466.73333393320877 L 318.5 466.73333393320877 L 319.5 466.2201567383533 L 319.5 466.22015673835335 L 320.5 465.6990744370586 L 320.5 465.69907443705864 L 321.5 465.17010676489366 L 321.5 465.1701067648937 L 322.5 464.6332737560794 L 322.5 464.6332737560795 L 323.5 464.08859574273026 L 323.5 464.0885957427304 L 324.5 463.5360933540836 L 324.5 463.5360933540836 L 325.5 462.9757875157186 L 325.5 462.9757875157187 L 326.5 462.40769944876405 L 326.5 462.4076994487641 L 327.5 461.8318506690941 L 327.5 461.83185066909414 L 328.5 461.2482629865136 L 328.5 461.2482629865137 L 329.5 460.65695850393206 L 329.5 460.6569585039321 L 330.5 460.0579596165268 L 330.5 460.0579596165268 L 331.5 459.45128901089384 L 331.5 459.4512890108939 L 332.5 458.83696966419006 L 332.5 458.8369696641902 L 333.5 458.21502484326174 L 333.5 458.21502484326186 L 334.5 457.58547810376393 L 334.5 457.585478103764 L 335.5 456.9483532892681 L 335.5 456.94835328926814 L 336.5 456.3036745303592 L 336.5 456.3036745303592 L 337.5 455.6514662437217 L 337.5 455.65146624372176 L 338.5 454.99175313121486 L 338.5 454.99175313121486 L 339.5 454.32456017893696 L 339.5 454.3245601789371 L 340.5 453.6499126562794 L 340.5 453.64991265627947 L 341.5 452.9678361149692 L 341.5 452.96783611496926 L 342.5 452.2783563881013 L 342.5 452.27835638810143 L 343.5 451.58149958916067 L 343.5 451.5814995891607 L 344.5 450.8772921110326 L 344.5 450.8772921110326 L 345.5 450.1657606250034 L 345.5 450.16576062500343 L 346.5 449.44693207975024 L 346.5 449.44693207975024 L 347.5 448.72083370032067 L 347.5 448.72083370032067 L 348.5 447.98749298710095 L 348.5 447.987492987101 L 349.5 447.2469377147753 L 349.5 447.2469377147754 L 350.5 446.4991959312731 L 350.5 446.4991959312732 L 351.5 445.74429595670733 L 351.5 445.74429595670745 L 352.5 444.9822663823014 L 352.5 444.9822663823014 L 353.5 444.2131360693066 L 353.5 444.21313606930664 L 354.5 443.4369341479089 L 354.5 443.43693414790897 L 355.5 442.6536900161258 L 355.5 442.65369001612584 L 356.5 441.86343333869274 L 356.5 441.86343333869286 L 357.5 441.0661940459396 L 357.5 441.06619404593965 L 358.5 440.2620023326572 L 358.5 440.2620023326573 L 359.5 439.45088865695357 L 359.5 439.4508886569536 L 360.5 438.6328837391005 L 360.5 438.63288373910063 L 361.5 437.80801856037004 L 361.5 437.8080185603701 L 362.5 436.9763243618609 L 362.5 436.976324361861 L 363.5 436.1378326433155 L 363.5 436.13783264331556 L 364.5 435.29257516192666 L 364.5 435.2925751619267 L 365.5 434.44058393113517 L 365.5 434.4405839311352 L 366.5 433.581891219417 L 366.5 433.58189121941706 L 367.5 432.7165295490613 L 367.5 432.71652954906136 L 368.5 431.84453169493844 L 368.5 431.8445316949385 L 369.5 430.9659306832592 L 369.5 430.96593068325933 L 370.5 430.0807597903233 L 370.5 430.0807597903234 L 371.5 429.18905254125957 L 371.5 429.1890525412597 L 372.5 428.2908427087559 L 372.5 428.2908427087559 L 373.5 427.38616431178025 L 373.5 427.38616431178025 L 374.5 426.4750516142921 L 374.5 426.47505161429217 L 375.5 425.5575391239453 L 375.5 425.55753912394533 L 376.5 424.63366159078004 L 376.5 424.6336615907801 L 377.5 423.7034540059077 L 377.5 423.70345400590776 L 378.5 422.7669516001852 L 378.5 422.7669516001853 L 379.5 421.82418984288074 L 379.5 421.82418984288074 L 380.5 420.8752044403301 L 380.5 420.87520444033015 L 381.5 419.9200313345848 L 381.5 419.9200313345848 L 382.5 418.95870670205056 L 382.5 418.9587067020507 L 383.5 417.9912669521172 L 383.5 417.99126695211726 L 384.5 417.0177487257796 L 384.5 417.01774872577965 L 385.5 416.03818889424997 L 385.5 416.03818889425 L 386.5 415.05262455756144 L 386.5 415.05262455756144 L 387.5 414.06109304316294 L 387.5 414.06109304316294 L 388.5 413.0636319045054 L 388.5 413.0636319045054 L 389.5 412.0602789196194 L 389.5 412.06027891961946 L 390.5 411.05107208968445 L 390.5 411.05107208968445 L 391.5 410.03604963758966 L 391.5 410.0360496375897 L 392.5 409.0152500064861 L 392.5 409.0152500064861 L 393.5 407.98871185833093 L 393.5 407.98871185833093 L 394.5 406.9564740724228 L 394.5 406.95647407242285 L 395.5 405.9185757439295 L 395.5 405.91857574392964 L 396.5 404.87505618240755 L 396.5 404.87505618240766 L 397.5 403.82595491031293 L 397.5 403.825954910313 L 398.5 402.7713116615042 L 398.5 402.77131166150434 L 399.5 401.7111663797382 L 399.5 401.71116637973824 L 400.5 400.6455592171561 L 400.5 400.6455592171561 L 401.5 399.57453053276436 L 401.5 399.57453053276436 L 402.5 398.4981208909044 L 402.5 398.4981208909044 L 403.5 397.416371059717 L 403.5 397.41637105971705 L 404.5 396.3293220095991 L 404.5 396.32932200959914 L 405.5 395.23701491165036 L 405.5 395.2370149116504 L 406.5 394.1394911361152 L 406.5 394.1394911361152 L 407.5 393.0367922508153 L 407.5 393.0367922508153 L 408.5 391.92896001957547 L 408.5 391.9289600195755 L 409.5 390.81603640064156 L 409.5 390.8160364006417 L 410.5 389.6980635450924 L 410.5 389.6980635450924 L 411.5 388.57508379524154 L 411.5 388.57508379524165 L 412.5 387.4471396830352 L 412.5 387.4471396830353 L 413.5 386.3142739284408 L 413.5 386.3142739284409 L 414.5 385.1765294378287 L 414.5 385.1765294378288 L 415.5 384.03394930234754 L 415.5 384.0339493023476 L 416.5 382.8865767962921 L 416.5 382.88657679629216 L 417.5 381.7344553754643 L 417.5 381.73445537546434 L 418.5 380.57762867552714 L 418.5 380.5776286755272 L 419.5 379.41614051035276 L 419.5 379.4161405103528 L 420.5 378.2500348703621 L 420.5 378.25003487036213 L 421.5 377.07935592085903 L 421.5 377.07935592085914 L 422.5 375.9041480003586 L 422.5 375.90414800035865 L 423.5 374.72445561890606 L 423.5 374.7244556189061 L 424.5 373.54032345639246 L 424.5 373.5403234563925 L 425.5 372.35179636086184 L 425.5 372.3517963608619 L 426.5 371.1589193468128 L 426.5 371.15891934681287 L 427.5 369.9617375934933 L 427.5 369.9617375934933 L 428.5 368.76029644319044 L 428.5 368.76029644319044 L 429.5 367.55464139951187 L 429.5 367.55464139951187 L 430.5 366.34481812566315 L 430.5 366.3448181256632 L 431.5 365.13087244271867 L 431.5 365.1308724427187 L 432.5 363.9128503278852 L 432.5 363.9128503278853 L 433.5 362.6907979127612 L 433.5 362.6907979127612 L 434.5 361.46476148158945 L 434.5 361.46476148158945 L 435.5 360.2347874695041 L 435.5 360.23478746950417 L 436.5 359.00092246077196 L 436.5 359.000922460772 L 437.5 357.76321318702855 L 437.5 357.76321318702855 L 438.5 356.52170652550717 L 438.5 356.52170652550717 L 439.5 355.27644949726465 L 439.5 355.2764494972647 L 440.5 354.02748926539965 L 440.5 354.0274892653997 L 441.5 352.7748731332666 L 441.5 352.7748731332667 L 442.5 351.51864854268445 L 442.5 351.51864854268445 L 443.5 350.2588630721392 L 443.5 350.2588630721392 L 444.5 348.99556443498244 L 444.5 348.99556443498244 L 445.5 347.7288004776245 L 445.5 347.72880047762453 L 446.5 346.45861917772135 L 446.5 346.45861917772135 L 447.5 345.18506864235803 L 447.5 345.1850686423581 L 448.5 343.90819710622736 L 448.5 343.90819710622736 L 449.5 342.62805292980147 L 449.5 342.62805292980147 L 450.5 341.34468459750155 L 450.5 341.34468459750155 L 451.5 340.058140715861 L 451.5 340.05814071586104 L 452.5 338.7684700116846 L 452.5 338.7684700116846 L 453.5 337.47572133020265 L 453.5 337.47572133020265 L 454.5 336.17994363322214 L 454.5 336.17994363322214 L 455.5 334.8811859972708 L 455.5 334.88118599727085 L 456.5 333.57949761173927 L 456.5 333.57949761173927 L 457.5 332.27492777701843 L 457.5 332.27492777701843 L 458.5 330.96752590263117 L 458.5 330.96752590263117 L 459.5 329.6573415053617 L 459.5 329.6573415053617 L 460.5 328.34442420738026 L 460.5 328.34442420738026 L 461.5 327.0288237343632 L 461.5 327.0288237343632 L 462.5 325.71058991360985 L 462.5 325.71058991360985 L 463.5 324.3897726721561 L 463.5 324.38977267215614 L 464.5 323.0664220348822 L 464.5 323.0664220348822 L 465.5 321.7405881226186 L 465.5 321.7405881226186 L 466.5 320.41232115024843 L 466.5 320.41232115024843 L 467.5 319.0816714248045 L 467.5 319.08167142480454 L 468.5 317.74868934356454 L 468.5 317.74868934356454 L 469.5 316.41342539214236 L 469.5 316.41342539214236 L 470.5 315.07593014257577 L 470.5 315.07593014257577 L 471.5 313.736254251411 L 471.5 313.7362542514111 L 472.5 312.394448457785 L 472.5 312.394448457785 L 473.5 311.0505635815023 L 473.5 311.0505635815023 L 474.5 309.7046505211109 L 474.5 309.7046505211109 L 475.5 308.35676025197563 L 475.5 308.35676025197563 L 476.5 307.00694382434546 L 476.5 307.00694382434546 L 477.5 305.65525236142145 L 477.5 305.6552523614215 L 478.5 304.30173705742015 L 478.5 304.30173705742015 L 479.5 302.9464491756345 L 479.5 302.9464491756345 L 480.5 301.5894400464922 L 480.5 301.5894400464922 L 481.5 300.23076106561246 L 481.5 300.23076106561246 L 482.5 298.8704636918581 L 482.5 298.8704636918581 L 483.5 297.5085994453873 L 483.5 297.5085994453873 L 484.5 296.1452199057028 L 484.5 296.1452199057028 L 485.5 294.78037670969735 L 485.5 294.78037670969735 L 486.5 293.4141215496986 L 486.5 293.4141215496986 L 487.5 292.0465061715113 L 487.5 292.04650617151134 L 488.5 290.67758237245704 L 488.5 290.67758237245704 L 489.5 289.3074019994134 L 489.5 289.3074019994134 L 490.5 287.9360169468492 L 490.5 287.9360169468492 L 491.5 286.5634791548593 L 491.5 286.56347915485935 L 492.5 285.1898406071985 L 492.5 285.1898406071985 L 493.5 283.81515332931104 L 493.5 283.81515332931104 L 494.5 282.43946938636117 L 494.5 282.43946938636117 L 495.5 281.06284088126114 L 495.5 281.06284088126114 L 496.5 279.68531995269757 L 496.5 279.6853199526976 L 497.5 278.3069587731569 L 497.5 278.3069587731569 L 498.5 276.92780954694973 L 498.5 276.92780954694973 L 499.5 275.5479245082329 L 499.5 275.5479245082329 L 500.5 274.1673559190314 L 500.5 274.1673559190314 L 501.5 272.7861560672599 L 501.5 272.78615606726 L 502.5 271.404377264741 L 502.5 271.404377264741 L 503.5 270.02207184522456 L 503.5 270.02207184522456 L 504.5 268.6392921624059 L 504.5 268.6392921624059 L 505.5 267.2560905879426 L 505.5 267.2560905879426 L 506.5 265.8725195094708 L 506.5 265.8725195094708 L 507.5 264.4886313286219 L 507.5 264.4886313286219 L 508.5 263.1044784590368 L 508.5 263.1044784590368 L 509.5 261.72011332438103 L 509.5 261.72011332438103 L 510.5 260.33558835636046 L 510.5 260.33558835636046 L 511.5 258.95095599273355 L 511.5 258.95095599273355 L 512.5 257.5662686753268 L 512.5 257.5662686753268 L 513.5 256.1815788480477 L 513.5 256.1815788480477 L 514.5 254.7969389548989 L 514.5 254.7969389548989 L 515.5 253.4124014379923 L 515.5 253.4124014379923 L 516.5 252.02801873556174 L 516.5 252.02801873556174 L 517.5 250.64384327997792 L 517.5 250.64384327997792 L 518.5 249.25992749576193 L 518.5 249.25992749576193 L 519.5 247.87632379760063 L 519.5 247.87632379760063 L 520.5 246.49308458836035 L 520.5 246.49308458836035 L 521.5 245.11026225710276 L 521.5 245.11026225710276 L 522.5 243.72790917710077 L 522.5 243.72790917710077 L 523.5 242.34607770385446 L 523.5 242.34607770385446 L 524.5 240.96482017310916 L 524.5 240.96482017310916 L 525.5 239.5841888988719 L 525.5 239.58418889887193 L 526.5 238.20423617143086 L 526.5 238.20423617143086 L 527.5 236.82501425537538 L 527.5 236.82501425537538 L 528.5 235.4465753876152 L 528.5 235.4465753876152 L 529.5 234.06897177540316 L 529.5 234.06897177540316 L 530.5 232.69225559435722 L 530.5 232.69225559435725 L 531.5 231.31647898648484 L 531.5 231.31647898648487 L 532.5 229.94169405820756 L 532.5 229.9416940582076 L 533.5 228.5679528783885 L 533.5 228.56795287838852 L 534.5 227.1953074763591 L 534.5 227.1953074763591 L 535.5 225.823809839949 L 535.5 225.823809839949 L 536.5 224.45351191351784 L 536.5 224.45351191351787 L 537.5 223.08446559598664 L 537.5 223.08446559598667 L 538.5 221.71672273887285 L 538.5 221.71672273887287 L 539.5 220.3503351443265 L 539.5 220.3503351443265 L 540.5 218.98535456316807 L 540.5 218.9853545631681 L 541.5 217.62183269292848 L 541.5 217.62183269292848 L 542.5 216.2598211758916 L 542.5 216.2598211758916 L 543.5 214.89937159713742 L 543.5 214.89937159713742 L 544.5 213.54053548258872 L 544.5 213.54053548258872 L 545.5 212.18336429706028 L 545.5 212.18336429706028 L 546.5 210.8279094423084 L 546.5 210.8279094423084 L 547.5 209.47422225508498 L 547.5 209.47422225508498 L 548.5 208.12235400519293 L 548.5 208.12235400519293 L 549.5 206.7723558935444 L 549.5 206.77235589354441 L 550.5 205.42427905022137 L 550.5 205.42427905022137 L 551.5 204.0781745325399 L 551.5 204.07817453253992 L 552.5 202.7340933231153 L 552.5 202.7340933231153 L 553.5 201.39208632793165 L 553.5 201.39208632793165 L 554.5 200.0522043744145 L 554.5 200.0522043744145 L 555.5 198.71449820950448 L 555.5 198.7144982095045 L 556.5 197.37901849773635 L 556.5 197.37901849773638 L 557.5 196.04581581931964 L 557.5 196.04581581931967 L 558.5 194.71494066822314 L 558.5 194.71494066822316 L 559.5 193.38644345026222 L 559.5 193.38644345026225 L 560.5 192.06037448119056 L 560.5 192.0603744811906 L 561.5 190.7367839847931 L 561.5 190.73678398479314 L 562.5 189.4157220909854 L 562.5 189.4157220909854 L 563.5 188.09723883391374 L 563.5 188.09723883391376 L 564.5 186.78138415006072 L 564.5 186.78138415006072 L 565.5 185.46820787635392 L 565.5 185.46820787635392 L 566.5 184.1577597482783 L 566.5 184.15775974827832 L 567.5 182.85008939799258 L 567.5 182.85008939799258 L 568.5 181.54524635244906 L 568.5 181.54524635244908 L 569.5 180.2432800315189 L 569.5 180.24328003151894 L 570.5 178.94423974611882 L 570.5 178.94423974611885 L 571.5 177.6481746963451 L 571.5 177.6481746963451 L 572.5 176.35513396960874 L 572.5 176.3551339696088 L 573.5 175.0651665387773 L 573.5 175.0651665387773 L 574.5 173.77832126031961 L 574.5 173.77832126031964 L 575.5 172.49464687245558 L 575.5 172.49464687245563 L 576.5 171.21419199331004 L 576.5 171.21419199331007 L 577.5 169.93700511907204 L 577.5 169.93700511907207 L 578.5 168.66313462215712 L 578.5 168.66313462215714 L 579.5 167.39262874937566 L 579.5 167.3926287493757 L 580.5 166.12553562010623 L 580.5 166.12553562010623 L 581.5 164.86190322447192 L 581.5 164.86190322447192 L 582.5 163.60177942152353 L 582.5 163.6017794215236 L 583.5 162.34521193742682 L 583.5 162.34521193742682 L 584.5 161.0922483636548 L 584.5 161.09224836365482 L 585.5 159.8429361551851 L 585.5 159.84293615518513 L 586.5 158.5973226287035 L 586.5 158.59732262870352 L 587.5 157.3554549608106 L 587.5 157.35545496081062 L 588.5 156.11738018623555 L 588.5 156.11738018623558 L 589.5 154.88314519605552 L 589.5 154.88314519605552 L 590.5 153.65279673591817 L 590.5 153.65279673591817 L 591.5 152.42638140427235 L 591.5 152.42638140427238 L 592.5 151.20394565060278 L 592.5 151.2039456506028 L 593.5 149.98553577367093 L 593.5 149.98553577367096 L 594.5 148.77119791976128 L 594.5 148.77119791976128 L 595.5 147.5609780809342 L 595.5 147.56097808093423 L 596.5 146.35492209328316 L 596.5 146.35492209328322 L 597.5 145.15307563519914 L 597.5 145.15307563519917 L 598.5 143.95548422564104 L 598.5 143.9554842256411 L 599.5 142.76219322241081 L 599.5 142.76219322241084 L 600.5 141.5732478204361 L 600.5 141.57324782043617 L 601.5 140.38869305005858 L 601.5 140.38869305005863 L 602.5 139.208573775328 L 602.5 139.20857377532803 L 603.5 138.0329346923039 L 603.5 138.03293469230394 L 604.5 136.86182032736167 L 604.5 136.8618203273617 L 605.5 135.69527503550677 L 605.5 135.69527503550682 L 606.5 134.53334299869476 L 606.5 134.5333429986948 L 607.5 133.3760682241582 L 607.5 133.37606822415825 L 608.5 132.22349454273927 L 608.5 132.22349454273933 L 609.5 131.07566560723012 L 609.5 131.07566560723018 L 610.5 129.93262489071955 L 610.5 129.93262489071958 L 611.5 128.79441568494636 L 611.5 128.79441568494642 L 612.5 127.66108109866016 L 612.5 127.66108109866025 L 613.5 126.53266405598794 L 613.5 126.532664055988 L 614.5 125.4092072948088 L 614.5 125.40920729480885 L 615.5 124.29075336513506 L 615.5 124.29075336513512 L 616.5 123.17734462750141 L 616.5 123.17734462750144 L 617.5 122.06902325135937 L 617.5 122.06902325135945 L 618.5 120.9658312134811 L 618.5 120.96583121348118 L 619.5 119.86781029636896 L 619.5 119.86781029636899 L 620.5 118.7750020866738 L 620.5 118.77500208667385 L 621.5 117.68744797361896 L 621.5 117.68744797361904 L 622.5 116.60518914743335 L 622.5 116.60518914743338 L 623.5 115.52826659779092 L 623.5 115.52826659779097 L 624.5 114.45672111225903 L 624.5 114.45672111225906 L 625.5 113.3905932747526 L 625.5 113.39059327475266 L 626.5 112.32992346399769 L 626.5 112.32992346399774 L 627.5 111.27475185200203 L 627.5 111.27475185200208 L 628.5 110.22511840253358 L 628.5 110.22511840253361 L 629.5 109.18106286960665 L 629.5 109.1810628696067 L 630.5 108.14262479597704 L 630.5 108.14262479597707 L 631.5 107.1098435116433 L 631.5 107.10984351164336 L 632.5 106.08275813235778 L 632.5 106.08275813235781 L 633.5 105.06140755814539 L 633.5 105.06140755814545 L 634.5 104.04583047182962 L 634.5 104.04583047182967 L 635.5 103.03606533756783 L 635.5 103.03606533756789 L 636.5 102.03215039939451 L 636.5 102.03215039939457 L 637.5 101.03412367977265 L 637.5 101.0341236797727 L 638.5 100.04202297815368 L 638.5 100.04202297815374 L 639.5 99.05588586954627 L 639.5 99.0558858695463 L 640.5 98.07574970309244 L 640.5 98.0757497030925 L 641.5 97.10165160065341 L 641.5 97.10165160065344 L 642.5 96.13362845540405 L 642.5 96.13362845540411 L 643.5 95.17171693043474 L 643.5 95.1717169304348 L 644.5 94.21595345736333 L 644.5 94.21595345736336 L 645.5 93.26637423495521 L 645.5 93.26637423495526 L 646.5 92.32301522775217 L 646.5 92.32301522775222 L 647.5 91.38591216471076 L 647.5 91.38591216471082 L 648.5 90.45510053784844 L 648.5 90.45510053784847 L 649.5 89.53061560089958 L 649.5 89.53061560089961 L 650.5 88.61249236798034 L 650.5 88.61249236798037 L 651.5 87.70076561226284 L 651.5 87.70076561226287 L 652.5 86.7954698646574 L 652.5 86.79546986465746 L 653.5 85.89663941250535 L 653.5 85.89663941250538 L 654.5 85.00430829828008 L 654.5 85.00430829828014 L 655.5 84.1185103182979 L 655.5 84.11851031829795 L 656.5 83.23927902143788 L 656.5 83.23927902143791 L 657.5 82.3666477078716 L 657.5 82.36664770787166 L 658.5 81.50064942780119 L 658.5 81.50064942780125 L 659.5 80.6413169802085 L 659.5 80.64131698020853 L 660.5 79.78868291161197 L 660.5 79.78868291161203 L 661.5 78.9427795148346 L 661.5 78.94277951483465 L 662.5 78.10363882778057 L 662.5 78.10363882778063 L 663.5 77.27129263222196 L 663.5 77.27129263222199 L 664.5 76.44577245259487 L 664.5 76.4457724525949 L 665.5 75.62710955480594 L 665.5 75.627109554806 L 666.5 74.81533494504754 L 666.5 74.81533494504757 L 667.5 74.0104793686236 L 667.5 74.01047936862366 L 668.5 73.21257330878578 L 668.5 73.2125733087858 L 669.5 72.42164698557795 L 669.5 72.42164698557801 L 670.5 71.63773035469234 L 670.5 71.6377303546924 L 671.5 70.86085310633476 L 671.5 70.86085310633482 L 672.5 70.09104466410005 L 672.5 70.09104466410011 L 673.5 69.32833418385778 L 673.5 69.32833418385783 L 674.5 68.57275055264816 L 674.5 68.57275055264822 L 675.5 67.82432238758759 L 675.5 67.82432238758761 L 676.5 67.08307803478485 L 676.5 67.0830780347849 L 677.5 66.34904556826811 L 677.5 66.34904556826817 L 678.5 65.62225278892083 L 678.5 65.62225278892089 L 679.5 64.90272722342934 L 679.5 64.9027272234294 L 680.5 64.19049612324008 L 680.5 64.19049612324014 L 681.5 63.48558646352751 L 681.5 63.48558646352757 L 682.5 62.78802494217274 L 682.5 62.788024942172825 L 683.5 62.09783797875187 L 683.5 62.0978379787519 L 684.5 61.415051713535576 L 684.5 61.415051713535604 L 685.5 60.73969200649907 L 685.5 60.739692006499126 L 686.5 60.07178443634308 L 686.5 60.07178443634311 L 687.5 59.411354299524305 L 687.5 59.411354299524334 L 688.5 58.75842660929783 L 688.5 58.75842660929786 L 689.5 58.11302609476971 L 689.5 58.11302609476974 L 690.5 57.475177199960314 L 690.5 57.47517719996037 L 691.5 56.844904082878486 L 691.5 56.844904082878514 L 692.5 56.22223061460684 L 692.5 56.2222306146069 L 693.5 55.607180378397175 L 693.5 55.60718037839723 L 694.5 54.99977666877791 L 694.5 54.99977666877797 L 695.5 54.400042490671154 L 695.5 54.40004249067118 L 696.5 53.80800055852191 L 696.5 53.80800055852197 L 697.5 53.22367329543755 L 697.5 53.22367329543758 L 698.5 52.64708283233864 L 698.5 52.647082832338725 L 699.5 52.078251007120684 L 699.5 52.07825100712074 L 700.5 51.517199363827274 L 700.5 51.51719936382733 L 701.5 50.9639491518337 L 701.5 50.96394915183373 L 702.5 50.41852132504235 L 702.5 50.41852132504238 L 703.5 49.88093654108948 L 703.5 49.88093654108951 L 704.5 49.35121516056199 L 704.5 49.35121516056202 L 705.5 48.829377246227125 L 705.5 48.82937724622718 L 706.5 48.31544256227207 L 706.5 48.31544256227215 L 707.5 47.80943057355566 L 707.5 47.809430573555716 L 708.5 47.31136044487093 L 708.5 47.31136044487096 L 709.5 46.82125104021961 L 709.5 46.821251040219664 L 710.5 46.33912092209752 L 710.5 46.33912092209755 L 711.5 45.86498835079115 L 711.5 45.86498835079118 L 712.5 45.398871283686645 L 712.5 45.3988712836867 L 713.5 44.94078737458949 L 713.5 44.94078737458955 L 714.5 44.49075397305572 L 714.5 44.490753973055746 L 715.5 44.04878812373491 L 715.5 44.048788123734965 L 716.5 43.61490656572474 L 716.5 43.614906565724766 L 717.5 43.18912573193677 L 717.5 43.1891257319368 L 718.5 42.77146174847445 L 718.5 42.77146174847448 L 719.5 42.3619304340219 L 719.5 42.36193043402196 L 720.5 41.960547299245064 L 720.5 41.96054729924509 L 721.5 41.567327546204325 L 721.5 41.56732754620435 L 722.5 41.18228606777839 L 722.5 41.18228606777842 L 723.5 40.805437447100644 L 723.5 40.80543744710067 L 724.5 40.43679595700647 L 724.5 40.43679595700655 L 725.5 40.076375559493044 L 725.5 40.0763755594931 L 726.5 39.72418990519017 L 726.5 39.72418990519023 L 727.5 39.380252332843554 L 727.5 39.38025233284358 L 728.5 39.0445758688094 L 728.5 39.04457586880946 L 729.5 38.71717322656116 L 729.5 38.71717322656119 L 730.5 38.3980568062081 L 730.5 38.39805680620813 L 731.5 38.087238694025444 L 731.5 38.08723869402547 L 732.5 37.78473066199683 L 732.5 37.78473066199689 L 733.5 37.49054416736834 L 733.5 37.49054416736837 L 734.5 37.20469035221441 L 734.5 37.20469035221447 L 735.5 36.92718004301622 L 735.5 36.92718004301628 L 736.5 36.65802375025146 L 736.5 36.658023750251516 L 737.5 36.39723166799607 L 737.5 36.397231667996124 L 738.5 36.14481367353835 L 738.5 36.14481367353841 L 739.5 35.9007793270049 L 739.5 35.900779327004955 L 740.5 35.66513787099842 L 740.5 35.66513787099848 L 741.5 35.437898230247754 L 741.5 35.43789823024778 L 742.5 35.219069011269596 L 742.5 35.219069011269625 L 743.5 35.00865850204306 L 743.5 35.00865850204312 L 744.5 34.806674671695276 L 744.5 34.806674671695305 L 745.5 34.61312517019974 L 745.5 34.613125170199794 L 746.5 34.42801732808667 L 746.5 34.428017328086725 L 747.5 34.25135815616531 L 747.5 34.25135815616537 L 748.5 34.08315434525829 L 748.5 34.08315434525832 L 749.5 33.92341226594834 L 749.5 33.9234122659484 L 750.5 33.77213796833706 L 750.5 33.77213796833709 L 751.5 33.62933718181557 L 751.5 33.6293371818156 L 752.5 33.49501531484765 L 752.5 33.495015314847706 L 753.5 33.36917745476504 L 753.5 33.369177454765065 L 754.5 33.251828367574404 L 754.5 33.25182836757443 L 755.5 33.14297249777718 L 755.5 33.14297249777724 L 756.5 33.04261396820098 L 756.5 33.04261396820107 L 757.5 32.95075657984373 L 757.5 32.950756579843755 L 758.5 32.867403811729304 L 758.5 32.86740381172936 L 759.5 32.79255882077615 L 759.5 32.79255882077618 L 760.5 32.72622444167749 L 760.5 32.72622444167757 L 761.5 32.66840318679411 L 761.5 32.668403186794166 L 762.5 32.619097246059056 L 762.5 32.619097246059084 L 763.5 32.57830848689477 L 763.5 32.5783084868948 L 764.5 32.54603845414243 L 764.5 32.54603845414249 L 765.5 32.52228837000331 L 765.5 32.522288370003366 L 766.5 32.507059133992556 L 766.5 32.507059133992584 L 767.5 32.50035132290509 L 767.5 32.50216519079382 L 768.5 32.5 L 768.5 32.50216519079382 L 769.5 32.51250066896 L 769.5 32.51250066895997 L 770.5 32.531357365955785 L 770.5 32.53135736595573 L 771.5 32.55873456759903 L 771.5 32.558734567599004 L 772.5 32.59463123700053 L 772.5 32.59463123700044 L 773.5 32.639046014603 L 773.5 32.63904601460294 L 774.5 32.69197721823292 L 774.5 32.691977218232864 L 775.5 32.75342284316383 L 775.5 32.753422843163776 L 776.5 32.823380562192625 L 776.5 32.8233805621926 L 777.5 32.90184772572752 L 777.5 32.90184772572749 L 778.5 32.98882136188843 L 778.5 32.98882136188837 L 779.5 33.084298176619455 L 779.5 33.0842981766194 L 780.5 33.18827455381384 L 780.5 33.188274553813784 L 781.5 33.30074655545067 L 781.5 33.300746555450615 L 782.5 33.42170992174431 L 782.5 33.42170992174428 L 783.5 33.55116007130542 L 783.5 33.55116007130536 L 784.5 33.689092101314685 L 784.5 33.68909210131463 L 785.5 33.835500787708554 L 785.5 33.8355007877085 L 786.5 33.9903805853769 L 786.5 33.99038058537684 L 787.5 34.15372562837311 L 787.5 34.15372562837308 L 788.5 34.325529730136424 L 788.5 34.325529730136395 L 789.5 34.50578638372596 L 789.5 34.505786383725905 L 790.5 34.694488762067294 L 790.5 34.69448876206724 L 791.5 34.89162971821116 L 791.5 34.89162971821111 L 792.5 35.09720178560397 L 792.5 35.097201785603914 L 793.5 35.31119717837049 L 793.5 35.311197178370406 L 794.5 35.53360779160906 L 794.5 35.53360779160903 L 795.5 35.76442520169837 L 795.5 35.764425201698316 L 796.5 36.00364066661638 L 796.5 36.00364066661629 L 797.5 36.25124512627161 L 797.5 36.251245126271556 L 798.5 36.507229202846304 L 798.5 36.507229202846275 L 799.5 36.77158320115143 L 799.5 36.771583201151316 L 800.5 37.044297108993874 L 800.5 37.04429710899382 L 801.5 37.32536059755597 L 801.5 37.32536059755594 L 802.5 37.614763021786274 L 802.5 37.61476302178622 L 803.5 37.912493420803 L 803.5 37.912493420802946 L 804.5 38.21854051830903 L 804.5 38.21854051830897 L 805.5 38.5328927230191 L 805.5 38.532892723019046 L 806.5 38.85553812909876 L 806.5 38.85553812909873 L 807.5 39.186464516615274 L 807.5 39.18646451661522 L 808.5 39.52565935200039 L 808.5 39.52565935200033 L 809.5 39.87310978852523 L 809.5 39.87310978852514 L 810.5 40.228802666786635 L 810.5 40.228802666786606 L 811.5 40.59272451520573 L 811.5 40.592724515205646 L 812.5 40.96486155053802 L 812.5 40.96486155053796 L 813.5 41.34519967839546 L 813.5 41.345199678395375 L 814.5 41.73372449378036 L 814.5 41.7337244937803 L 815.5 42.130421281630845 L 815.5 42.13042128163082 L 816.5 42.53527501737821 L 816.5 42.53527501737818 L 817.5 42.948270367516045 L 817.5 42.94827036751599 L 818.5 43.369391690180805 L 818.5 43.36939169018072 L 819.5 43.79862303574433 L 819.5 43.798623035744214 L 820.5 44.235948147418014 L 820.5 44.23594814741796 L 821.5 44.68135046186842 L 821.5 44.68135046186836 L 822.5 45.13481310984454 L 822.5 45.134813109844515 L 823.5 45.5963189168169 L 823.5 45.59631891681687 L 824.5 46.06585040362779 L 824.5 46.065850403627735 L 825.5 46.54338978715347 L 825.5 46.54338978715339 L 826.5 47.02891898097758 L 826.5 47.028918980977494 L 827.5 47.522419596076105 L 827.5 47.52241959607608 L 828.5 48.023872941514185 L 828.5 48.02387294151413 L 829.5 48.53326002515345 L 829.5 48.533260025153425 L 830.5 49.050561554371825 L 830.5 49.05056155437177 L 831.5 49.57575793679399 L 831.5 49.575757936793934 L 832.5 50.108829281033366 L 832.5 50.10882928103334 L 833.5 50.64975539744577 L 833.5 50.649755397445716 L 834.5 51.19851579889382 L 834.5 51.19851579889374 L 835.5 51.755089701522934 L 835.5 51.755089701522905 L 836.5 52.319456025548504 L 836.5 52.31945602554842 L 837.5 52.891593396054304 L 837.5 52.89159339605425 L 838.5 53.47148014380207 L 838.5 53.47148014380204 L 839.5 54.05909430605223 L 839.5 54.059094306052174 L 840.5 54.654413627395485 L 840.5 54.654413627395456 L 841.5 55.25741556059603 L 841.5 55.25741556059597 L 842.5 55.868077267445244 L 842.5 55.868077267445216 L 843.5 56.48637561962701 L 843.5 56.48637561962698 L 844.5 57.1122871995932 L 844.5 57.11228719959317 L 845.5 57.7457883014512 L 845.5 57.74578830145114 L 846.5 58.38685493186105 L 846.5 58.386854931860995 L 847.5 59.035462810944836 L 847.5 59.03546281094478 L 848.5 59.691587373205806 L 848.5 59.69158737320578 L 849.5 60.35520376845898 L 849.5 60.35520376845895 L 850.5 61.02628686277231 L 850.5 61.026286862772224 L 851.5 61.70481123941855 L 851.5 61.70481123941852 L 852.5 62.390751199838064 L 852.5 62.39075119983801 L 853.5 63.08408076461171 L 853.5 63.084080764611684 L 854.5 63.78477367444543 L 854.5 63.784773674445404 L 855.5 64.49280339116416 L 855.5 64.49280339116413 L 856.5 65.20814309871747 L 856.5 65.20814309871739 L 857.5 65.93076570419467 L 857.5 65.93076570419464 L 858.5 66.66064383885163 L 858.5 66.66064383885157 L 859.5 67.3977498591465 L 859.5 67.39774985914644 L 860.5 68.1420558477875 L 860.5 68.14205584778745 L 861.5 68.89353361478967 L 861.5 68.89353361478962 L 862.5 69.65215469854292 L 862.5 69.65215469854286 L 863.5 70.41789036688965 L 863.5 70.4178903668896 L 864.5 71.19071161821338 L 864.5 71.1907116182133 L 865.5 71.97058918253668 L 865.5 71.97058918253666 L 866.5 72.75749352263023 L 866.5 72.75749352263014 L 867.5 73.55139483513113 L 867.5 73.5513948351311 L 868.5 74.35226305167188 L 868.5 74.35226305167186 L 869.5 75.16006784001922 L 869.5 75.16006784001914 L 870.5 75.97477860522267 L 870.5 75.97477860522261 L 871.5 76.79636449077367 L 871.5 76.79636449077364 L 872.5 77.62479437977399 L 872.5 77.62479437977396 L 873.5 78.46003689611436 L 873.5 78.46003689611433 L 874.5 79.30206040566273 L 874.5 79.30206040566267 L 875.5 80.15083301746247 L 875.5 80.15083301746242 L 876.5 81.00632258494016 L 876.5 81.00632258494011 L 877.5 81.8684967071232 L 877.5 81.86849670712314 L 878.5 82.7373227298668 L 878.5 82.73732272986678 L 879.5 83.61276774709094 L 879.5 83.61276774709088 L 880.5 84.49479860202655 L 880.5 84.49479860202646 L 881.5 85.38338188847123 L 881.5 85.3833818884712 L 882.5 86.27848395205464 L 882.5 86.27848395205461 L 883.5 87.18007089151308 L 883.5 87.180070891513 L 884.5 88.08810855997328 L 884.5 88.08810855997322 L 885.5 89.00256256624587 L 885.5 89.00256256624584 L 886.5 89.92339827612818 L 886.5 89.92339827612815 L 887.5 90.85058081371528 L 887.5 90.85058081371525 L 888.5 91.78407506272171 L 888.5 91.78407506272166 L 889.5 92.72384566781065 L 889.5 92.7238456678106 L 890.5 93.6698570359338 L 890.5 93.66985703593375 L 891.5 94.62207333767864" stroke-opacity="0.6980392156862745" stroke-linecap="round" stroke-linejoin="round" stroke-miterlimit="10" stroke-width="2.5"/></g></g></svg>