<svg version="1.1" xmlns="http://www.w3.org/2000/svg" xmlns:xlink="http://www.w3.org/1999/xlink" width="615" height="260"><defs><clipPath id="bucsunEidAlC"><path fill="none" stroke="none" d=" M 0 0 L 615 0 L 615 260 L 0 260 L 0 0 Z"/></clipPath></defs><g transform="scale(1,1)" clip-path="url(#bucsunEidAlC)"><g><rect fill="none" stroke="none" x="0" y="0" width="615" height="260" fill-opacity="1"/><path fill="none" stroke="rgb(192,192,192)" paint-order="fill stroke markers" d=" M 8.5 0.5 L 8.5 260.5 M 8.5 0.5 L 8.5 260.5 M 58.5 0.5 L 58.5 260.5 M 158.5 0.5 L 158.5 260.5 M 208.5 0.5 L 208.5 260.5 M 258.5 0.5 L 258.5 260.5 M 308.5 0.5 L 308.5 260.5 M 358.5 0.5 L 358.5 260.5 M 408.5 0.5 L 408.5 260.5 M 458.5 0.5 L 458.5 260.5 M 508.5 0.5 L 508.5 260.5 M 558.5 0.5 L 558.5 260.5 M 608.5 0.5 L 608.5 260.5" stroke-opacity="1" stroke-linecap="round" stroke-linejoin="round" stroke-miterlimit="10"/><path fill="none" stroke="rgb(192,192,192)" paint-order="fill stroke markers" d=" M 18.5 0.5 L 18.5 260.5 M 28.5 0.5 L 28.5 260.5 M 38.5 0.5 L 38.5 260.5 M 48.5 0.5 L 48.5 260.5 M 68.5 0.5 L 68.5 260.5 M 78.5 0.5 L 78.5 260.5 M 88.5 0.5 L 88.5 260.5 M 98.5 0.5 L 98.5 260.5 M 118.5 0.5 L 118.5 260.5 M 128.5 0.5 L 128.5 260.5 M 138.5 0.5 L 138.5 260.5 M 148.5 0.5 L 148.5 260.5 M 168.5 0.5 L 168.5 260.5 M 178.5 0.5 L 178.5 260.5 M 188.5 0.5 L 188.5 260.5 M 198.5 0.5 L 198.5 260.5 M 218.5 0.5 L 218.5 260.5 M 228.5 0.5 L 228.5 260.5 M 238.5 0.5 L 238.5 260.5 M 248.5 0.5 L 248.5 260.5 M 268.5 0.5 L 268.5 260.5 M 278.5 0.5 L 278.5 260.5 M 288.5 0.5 L 288.5 260.5 M 298.5 0.5 L 298.5 260.5 M 318.5 0.5 L 318.5 260.5 M 328.5 0.5 L 328.5 260.5 M 338.5 0.5 L 338.5 260.5 M 348.5 0.5 L 348.5 260.5 M 368.5 0.5 L 368.5 260.5 M 378.5 0.5 L 378.5 260.5 M 388.5 0.5 L 388.5 260.5 M 398.5 0.5 L 398.5 260.5 M 418.5 0.5 L 418.5 260.5 M 428.5 0.5 L 428.5 260.5 M 438.5 0.5 L 438.5 260.5 M 448.5 0.5 L 448.5 260.5 M 468.5 0.5 L 468.5 260.5 M 478.5 0.5 L 478.5 260.5 M 488.5 0.5 L 488.5 260.5 M 498.5 0.5 L 498.5 260.5 M 518.5 0.5 L 518.5 260.5 M 528.5 0.5 L 528.5 260.5 M 538.5 0.5 L 538.5 260.5 M 548.5 0.5 L 548.5 260.5 M 568.5 0.5 L 568.5 260.5 M 578.5 0.5 L 578.5 260.5 M 588.5 0.5 L 588.5 260.5 M 598.5 0.5 L 598.5 260.5" stroke-opacity="0.23529411764705882" stroke-linecap="round" stroke-linejoin="round" stroke-miterlimit="10"/><path fill="none" stroke="rgb(192,192,192)" paint-order="fill stroke markers" d=" M 0.5 33.5 L 615.5 33.5 M 0.5 33.5 L 615.5 33.5 M 0.5 84.5 L 615.5 84.5 M 0.5 184.5 L 615.5 184.5 M 0.5 234.5 L 615.5 234.5" stroke-opacity="1" stroke-linecap="round" stroke-linejoin="round" stroke-miterlimit="10"/><path fill="none" stroke="rgb(192,192,192)" paint-order="fill stroke markers" d=" M 0.5 3.5 L 615.5 3.5 M 0.5 3.5 L 615.5 3.5 M 0.5 13.5 L 615.5 13.5 M 0.5 23.5 L 615.5 23.5 M 0.5 43.5 L 615.5 43.5 M 0.5 53.5 L 615.5 53.5 M 0.5 63.5 L 615.5 63.5 M 0.5 73.5 L 615.5 73.5 M 0.5 93.5 L 615.5 93.5 M 0.5 103.5 L 615.5 103.5 M 0.5 114.5 L 615.5 114.5 M 0.5 124.5 L 615.5 124.5 M 0.5 144.5 L 615.5 144.5 M 0.5 154.5 L 615.5 154.5 M 0.5 164.5 L 615.5 164.5 M 0.5 174.5 L 615.5 174.5 M 0.5 194.5 L 615.5 194.5 M 0.5 204.5 L 615.5 204.5 M 0.5 214.5 L 615.5 214.5 M 0.5 224.5 L 615.5 224.5 M 0.5 244.5 L 615.5 244.5 M 0.5 254.5 L 615.5 254.5" stroke-opacity="0.23529411764705882" stroke-linecap="round" stroke-linejoin="round" stroke-miterlimit="10"/><path fill="none" stroke="rgb(37,37,37)" paint-order="fill stroke markers" d=" M 108.5 2.5 L 108.5 260.5" stroke-opacity="1" stroke-miterlimit="10"/><path fill="none" stroke="rgb(37,37,37)" paint-order="fill stroke markers" d=" M 108.5 1.5 L 104.5 5.5" stroke-opacity="1" stroke-miterlimit="10"/><path fill="none" stroke="rgb(37,37,37)" paint-order="fill stroke markers" d=" M 108.5 1.5 L 112.5 5.5" stroke-opacity="1" stroke-miterlimit="10"/><path fill="none" stroke="rgb(37,37,37)" paint-order="fill stroke markers" d=" M 0.5 134.5 L 613.5 134.5" stroke-opacity="1" stroke-miterlimit="10"/><path fill="none" stroke="rgb(37,37,37)" paint-order="fill stroke markers" d=" M 614.5 134.5 L 610.5 130.5" stroke-opacity="1" stroke-miterlimit="10"/><path fill="none" stroke="rgb(37,37,37)" paint-order="fill stroke markers" d=" M 614.5 134.5 L 610.5 138.5" stroke-opacity="1" stroke-miterlimit="10"/><text fill="rgb(37,37,37)" stroke="none" font-family="geogebra-sans-serif, sans-serif" font-size="12px" font-style="normal" font-weight="normal" text-decoration="normal" x="53" y="150" text-anchor="start" dominant-baseline="alphabetic" fill-opacity="1">–1</text><text fill="rgb(37,37,37)" stroke="none" font-family="geogebra-sans-serif, sans-serif" font-size="12px" font-style="normal" font-weight="normal" text-decoration="normal" x="53" y="150" text-anchor="start" dominant-baseline="alphabetic" fill-opacity="1">–1</text><text fill="rgb(37,37,37)" stroke="none" font-family="geogebra-sans-serif, sans-serif" font-size="12px" font-style="normal" font-weight="normal" text-decoration="normal" x="156" y="150" text-anchor="start" dominant-baseline="alphabetic" fill-opacity="1">1</text><text fill="rgb(37,37,37)" stroke="none" font-family="geogebra-sans-serif, sans-serif" font-size="12px" font-style="normal" font-weight="normal" text-decoration="normal" x="156" y="150" text-anchor="start" dominant-baseline="alphabetic" fill-opacity="1">1</text><text fill="rgb(37,37,37)" stroke="none" font-family="geogebra-sans-serif, sans-serif" font-size="12px" font-style="normal" font-weight="normal" text-decoration="normal" x="206" y="150" text-anchor="start" dominant-baseline="alphabetic" fill-opacity="1">2</text><text fill="rgb(37,37,37)" stroke="none" font-family="geogebra-sans-serif, sans-serif" font-size="12px" font-style="normal" font-weight="normal" text-decoration="normal" x="206" y="150" text-anchor="start" dominant-baseline="alphabetic" fill-opacity="1">2</text><text fill="rgb(37,37,37)" stroke="none" font-family="geogebra-sans-serif, sans-serif" font-size="12px" font-style="normal" font-weight="normal" text-decoration="normal" x="256" y="150" text-anchor="start" dominant-baseline="alphabetic" fill-opacity="1">3</text><text fill="rgb(37,37,37)" stroke="none" font-family="geogebra-sans-serif, sans-serif" font-size="12px" font-style="normal" font-weight="normal" text-decoration="normal" x="256" y="150" text-anchor="start" dominant-baseline="alphabetic" fill-opacity="1">3</text><text fill="rgb(37,37,37)" stroke="none" font-family="geogebra-sans-serif, sans-serif" font-size="12px" font-style="normal" font-weight="normal" text-decoration="normal" x="306" y="150" text-anchor="start" dominant-baseline="alphabetic" fill-opacity="1">4</text><text fill="rgb(37,37,37)" stroke="none" font-family="geogebra-sans-serif, sans-serif" font-size="12px" font-style="normal" font-weight="normal" text-decoration="normal" x="306" y="150" text-anchor="start" dominant-baseline="alphabetic" fill-opacity="1">4</text><text fill="rgb(37,37,37)" stroke="none" font-family="geogebra-sans-serif, sans-serif" font-size="12px" font-style="normal" font-weight="normal" text-decoration="normal" x="356" y="150" text-anchor="start" dominant-baseline="alphabetic" fill-opacity="1">5</text><text fill="rgb(37,37,37)" stroke="none" font-family="geogebra-sans-serif, sans-serif" font-size="12px" font-style="normal" font-weight="normal" text-decoration="normal" x="356" y="150" text-anchor="start" dominant-baseline="alphabetic" fill-opacity="1">5</text><text fill="rgb(37,37,37)" stroke="none" font-family="geogebra-sans-serif, sans-serif" font-size="12px" font-style="normal" font-weight="normal" text-decoration="normal" x="406" y="150" text-anchor="start" dominant-baseline="alphabetic" fill-opacity="1">6</text><text fill="rgb(37,37,37)" stroke="none" font-family="geogebra-sans-serif, sans-serif" font-size="12px" font-style="normal" font-weight="normal" text-decoration="normal" x="406" y="150" text-anchor="start" dominant-baseline="alphabetic" fill-opacity="1">6</text><text fill="rgb(37,37,37)" stroke="none" font-family="geogebra-sans-serif, sans-serif" font-size="12px" font-style="normal" font-weight="normal" text-decoration="normal" x="456" y="150" text-anchor="start" dominant-baseline="alphabetic" fill-opacity="1">7</text><text fill="rgb(37,37,37)" stroke="none" font-family="geogebra-sans-serif, sans-serif" font-size="12px" font-style="normal" font-weight="normal" text-decoration="normal" x="456" y="150" text-anchor="start" dominant-baseline="alphabetic" fill-opacity="1">7</text><text fill="rgb(37,37,37)" stroke="none" font-family="geogebra-sans-serif, sans-serif" font-size="12px" font-style="normal" font-weight="normal" text-decoration="normal" x="506" y="150" text-anchor="start" dominant-baseline="alphabetic" fill-opacity="1">8</text><text fill="rgb(37,37,37)" stroke="none" font-family="geogebra-sans-serif, sans-serif" font-size="12px" font-style="normal" font-weight="normal" text-decoration="normal" x="506" y="150" text-anchor="start" dominant-baseline="alphabetic" fill-opacity="1">8</text><text fill="rgb(37,37,37)" stroke="none" font-family="geogebra-sans-serif, sans-serif" font-size="12px" font-style="normal" font-weight="normal" text-decoration="normal" x="556" y="150" text-anchor="start" dominant-baseline="alphabetic" fill-opacity="1">9</text><text fill="rgb(37,37,37)" stroke="none" font-family="geogebra-sans-serif, sans-serif" font-size="12px" font-style="normal" font-weight="normal" text-decoration="normal" x="556" y="150" text-anchor="start" dominant-baseline="alphabetic" fill-opacity="1">9</text><text fill="rgb(37,37,37)" stroke="none" font-family="geogebra-sans-serif, sans-serif" font-size="12px" font-style="normal" font-weight="normal" text-decoration="normal" x="87" y="239" text-anchor="start" dominant-baseline="alphabetic" fill-opacity="1">–2</text><text fill="rgb(37,37,37)" stroke="none" font-family="geogebra-sans-serif, sans-serif" font-size="12px" font-style="normal" font-weight="normal" text-decoration="normal" x="87" y="239" text-anchor="start" dominant-baseline="alphabetic" fill-opacity="1">–2</text><text fill="rgb(37,37,37)" stroke="none" font-family="geogebra-sans-serif, sans-serif" font-size="12px" font-style="normal" font-weight="normal" text-decoration="normal" x="87" y="189" text-anchor="start" dominant-baseline="alphabetic" fill-opacity="1">–1</text><text fill="rgb(37,37,37)" stroke="none" font-family="geogebra-sans-serif, sans-serif" font-size="12px" font-style="normal" font-weight="normal" text-decoration="normal" x="87" y="189" text-anchor="start" dominant-baseline="alphabetic" fill-opacity="1">–1</text><text fill="rgb(37,37,37)" stroke="none" font-family="geogebra-sans-serif, sans-serif" font-size="12px" font-style="normal" font-weight="normal" text-decoration="normal" x="93" y="89" text-anchor="start" dominant-baseline="alphabetic" fill-opacity="1">1</text><text fill="rgb(37,37,37)" stroke="none" font-family="geogebra-sans-serif, sans-serif" font-size="12px" font-style="normal" font-weight="normal" text-decoration="normal" x="93" y="89" text-anchor="start" dominant-baseline="alphabetic" fill-opacity="1">1</text><text fill="rgb(37,37,37)" stroke="none" font-family="geogebra-sans-serif, sans-serif" font-size="12px" font-style="normal" font-weight="normal" text-decoration="normal" x="93" y="38" text-anchor="start" dominant-baseline="alphabetic" fill-opacity="1">2</text><text fill="rgb(37,37,37)" stroke="none" font-family="geogebra-sans-serif, sans-serif" font-size="12px" font-style="normal" font-weight="normal" text-decoration="normal" x="93" y="38" text-anchor="start" dominant-baseline="alphabetic" fill-opacity="1">2</text><text fill="rgb(37,37,37)" stroke="none" font-family="geogebra-sans-serif, sans-serif" font-size="12px" font-style="normal" font-weight="normal" text-decoration="normal" x="93" y="150" text-anchor="start" dominant-baseline="alphabetic" fill-opacity="1">0</text><text fill="rgb(37,37,37)" stroke="none" font-family="geogebra-sans-serif, sans-serif" font-size="12px" font-style="normal" font-weight="normal" text-decoration="normal" x="93" y="150" text-anchor="start" dominant-baseline="alphabetic" fill-opacity="1">0</text></g></g></svg>
