<svg version="1.1" xmlns="http://www.w3.org/2000/svg" xmlns:xlink="http://www.w3.org/1999/xlink" width="615" height="260"><defs><clipPath id="zsSdEqtJRODq"><path fill="none" stroke="none" d=" M 0 0 L 615 0 L 615 260 L 0 260 L 0 0 Z"/></clipPath></defs><g transform="scale(1,1)" clip-path="url(#zsSdEqtJRODq)"><g><rect fill="none" stroke="none" x="0" y="0" width="615" height="260" fill-opacity="1"/><path fill="none" stroke="rgb(192,192,192)" paint-order="fill stroke markers" d=" M 8.5 0.5 L 8.5 260.5 M 8.5 0.5 L 8.5 260.5 M 58.5 0.5 L 58.5 260.5 M 158.5 0.5 L 158.5 260.5 M 208.5 0.5 L 208.5 260.5 M 258.5 0.5 L 258.5 260.5 M 308.5 0.5 L 308.5 260.5 M 358.5 0.5 L 358.5 260.5 M 408.5 0.5 L 408.5 260.5 M 458.5 0.5 L 458.5 260.5 M 508.5 0.5 L 508.5 260.5 M 558.5 0.5 L 558.5 260.5 M 608.5 0.5 L 608.5 260.5" stroke-opacity="1" stroke-linecap="round" stroke-linejoin="round" stroke-miterlimit="10"/><path fill="none" stroke="rgb(192,192,192)" paint-order="fill stroke markers" d=" M 18.5 0.5 L 18.5 260.5 M 28.5 0.5 L 28.5 260.5 M 38.5 0.5 L 38.5 260.5 M 48.5 0.5 L 48.5 260.5 M 68.5 0.5 L 68.5 260.5 M 78.5 0.5 L 78.5 260.5 M 88.5 0.5 L 88.5 260.5 M 98.5 0.5 L 98.5 260.5 M 118.5 0.5 L 118.5 260.5 M 128.5 0.5 L 128.5 260.5 M 138.5 0.5 L 138.5 260.5 M 148.5 0.5 L 148.5 260.5 M 168.5 0.5 L 168.5 260.5 M 178.5 0.5 L 178.5 260.5 M 188.5 0.5 L 188.5 260.5 M 198.5 0.5 L 198.5 260.5 M 218.5 0.5 L 218.5 260.5 M 228.5 0.5 L 228.5 260.5 M 238.5 0.5 L 238.5 260.5 M 248.5 0.5 L 248.5 260.5 M 268.5 0.5 L 268.5 260.5 M 278.5 0.5 L 278.5 260.5 M 288.5 0.5 L 288.5 260.5 M 298.5 0.5 L 298.5 260.5 M 318.5 0.5 L 318.5 260.5 M 328.5 0.5 L 328.5 260.5 M 338.5 0.5 L 338.5 260.5 M 348.5 0.5 L 348.5 260.5 M 368.5 0.5 L 368.5 260.5 M 378.5 0.5 L 378.5 260.5 M 388.5 0.5 L 388.5 260.5 M 398.5 0.5 L 398.5 260.5 M 418.5 0.5 L 418.5 260.5 M 428.5 0.5 L 428.5 260.5 M 438.5 0.5 L 438.5 260.5 M 448.5 0.5 L 448.5 260.5 M 468.5 0.5 L 468.5 260.5 M 478.5 0.5 L 478.5 260.5 M 488.5 0.5 L 488.5 260.5 M 498.5 0.5 L 498.5 260.5 M 518.5 0.5 L 518.5 260.5 M 528.5 0.5 L 528.5 260.5 M 538.5 0.5 L 538.5 260.5 M 548.5 0.5 L 548.5 260.5 M 568.5 0.5 L 568.5 260.5 M 578.5 0.5 L 578.5 260.5 M 588.5 0.5 L 588.5 260.5 M 598.5 0.5 L 598.5 260.5" stroke-opacity="0.23529411764705882" stroke-linecap="round" stroke-linejoin="round" stroke-miterlimit="10"/><path fill="none" stroke="rgb(192,192,192)" paint-order="fill stroke markers" d=" M 0.5 33.5 L 615.5 33.5 M 0.5 33.5 L 615.5 33.5 M 0.5 84.5 L 615.5 84.5 M 0.5 184.5 L 615.5 184.5 M 0.5 234.5 L 615.5 234.5" stroke-opacity="1" stroke-linecap="round" stroke-linejoin="round" stroke-miterlimit="10"/><path fill="none" stroke="rgb(192,192,192)" paint-order="fill stroke markers" d=" M 0.5 3.5 L 615.5 3.5 M 0.5 3.5 L 615.5 3.5 M 0.5 13.5 L 615.5 13.5 M 0.5 23.5 L 615.5 23.5 M 0.5 43.5 L 615.5 43.5 M 0.5 53.5 L 615.5 53.5 M 0.5 63.5 L 615.5 63.5 M 0.5 73.5 L 615.5 73.5 M 0.5 93.5 L 615.5 93.5 M 0.5 103.5 L 615.5 103.5 M 0.5 114.5 L 615.5 114.5 M 0.5 124.5 L 615.5 124.5 M 0.5 144.5 L 615.5 144.5 M 0.5 154.5 L 615.5 154.5 M 0.5 164.5 L 615.5 164.5 M 0.5 174.5 L 615.5 174.5 M 0.5 194.5 L 615.5 194.5 M 0.5 204.5 L 615.5 204.5 M 0.5 214.5 L 615.5 214.5 M 0.5 224.5 L 615.5 224.5 M 0.5 244.5 L 615.5 244.5 M 0.5 254.5 L 615.5 254.5" stroke-opacity="0.23529411764705882" stroke-linecap="round" stroke-linejoin="round" stroke-miterlimit="10"/><path fill="none" stroke="rgb(37,37,37)" paint-order="fill stroke markers" d=" M 108.5 2.5 L 108.5 260.5" stroke-opacity="1" stroke-miterlimit="10"/><path fill="none" stroke="rgb(37,37,37)" paint-order="fill stroke markers" d=" M 108.5 1.5 L 104.5 5.5" stroke-opacity="1" stroke-miterlimit="10"/><path fill="none" stroke="rgb(37,37,37)" paint-order="fill stroke markers" d=" M 108.5 1.5 L 112.5 5.5" stroke-opacity="1" stroke-miterlimit="10"/><path fill="none" stroke="rgb(37,37,37)" paint-order="fill stroke markers" d=" M 0.5 134.5 L 613.5 134.5" stroke-opacity="1" stroke-miterlimit="10"/><path fill="none" stroke="rgb(37,37,37)" paint-order="fill stroke markers" d=" M 614.5 134.5 L 610.5 130.5" stroke-opacity="1" stroke-miterlimit="10"/><path fill="none" stroke="rgb(37,37,37)" paint-order="fill stroke markers" d=" M 614.5 134.5 L 610.5 138.5" stroke-opacity="1" stroke-miterlimit="10"/><text fill="rgb(37,37,37)" stroke="none" font-family="geogebra-sans-serif, sans-serif" font-size="12px" font-style="normal" font-weight="normal" text-decoration="normal" x="53" y="150" text-anchor="start" dominant-baseline="alphabetic" fill-opacity="1">–1</text><text fill="rgb(37,37,37)" stroke="none" font-family="geogebra-sans-serif, sans-serif" font-size="12px" font-style="normal" font-weight="normal" text-decoration="normal" x="53" y="150" text-anchor="start" dominant-baseline="alphabetic" fill-opacity="1">–1</text><text fill="rgb(37,37,37)" stroke="none" font-family="geogebra-sans-serif, sans-serif" font-size="12px" font-style="normal" font-weight="normal" text-decoration="normal" x="156" y="150" text-anchor="start" dominant-baseline="alphabetic" fill-opacity="1">1</text><text fill="rgb(37,37,37)" stroke="none" font-family="geogebra-sans-serif, sans-serif" font-size="12px" font-style="normal" font-weight="normal" text-decoration="normal" x="156" y="150" text-anchor="start" dominant-baseline="alphabetic" fill-opacity="1">1</text><text fill="rgb(37,37,37)" stroke="none" font-family="geogebra-sans-serif, sans-serif" font-size="12px" font-style="normal" font-weight="normal" text-decoration="normal" x="206" y="150" text-anchor="start" dominant-baseline="alphabetic" fill-opacity="1">2</text><text fill="rgb(37,37,37)" stroke="none" font-family="geogebra-sans-serif, sans-serif" font-size="12px" font-style="normal" font-weight="normal" text-decoration="normal" x="206" y="150" text-anchor="start" dominant-baseline="alphabetic" fill-opacity="1">2</text><text fill="rgb(37,37,37)" stroke="none" font-family="geogebra-sans-serif, sans-serif" font-size="12px" font-style="normal" font-weight="normal" text-decoration="normal" x="256" y="150" text-anchor="start" dominant-baseline="alphabetic" fill-opacity="1">3</text><text fill="rgb(37,37,37)" stroke="none" font-family="geogebra-sans-serif, sans-serif" font-size="12px" font-style="normal" font-weight="normal" text-decoration="normal" x="256" y="150" text-anchor="start" dominant-baseline="alphabetic" fill-opacity="1">3</text><text fill="rgb(37,37,37)" stroke="none" font-family="geogebra-sans-serif, sans-serif" font-size="12px" font-style="normal" font-weight="normal" text-decoration="normal" x="306" y="150" text-anchor="start" dominant-baseline="alphabetic" fill-opacity="1">4</text><text fill="rgb(37,37,37)" stroke="none" font-family="geogebra-sans-serif, sans-serif" font-size="12px" font-style="normal" font-weight="normal" text-decoration="normal" x="306" y="150" text-anchor="start" dominant-baseline="alphabetic" fill-opacity="1">4</text><text fill="rgb(37,37,37)" stroke="none" font-family="geogebra-sans-serif, sans-serif" font-size="12px" font-style="normal" font-weight="normal" text-decoration="normal" x="356" y="150" text-anchor="start" dominant-baseline="alphabetic" fill-opacity="1">5</text><text fill="rgb(37,37,37)" stroke="none" font-family="geogebra-sans-serif, sans-serif" font-size="12px" font-style="normal" font-weight="normal" text-decoration="normal" x="356" y="150" text-anchor="start" dominant-baseline="alphabetic" fill-opacity="1">5</text><text fill="rgb(37,37,37)" stroke="none" font-family="geogebra-sans-serif, sans-serif" font-size="12px" font-style="normal" font-weight="normal" text-decoration="normal" x="406" y="150" text-anchor="start" dominant-baseline="alphabetic" fill-opacity="1">6</text><text fill="rgb(37,37,37)" stroke="none" font-family="geogebra-sans-serif, sans-serif" font-size="12px" font-style="normal" font-weight="normal" text-decoration="normal" x="406" y="150" text-anchor="start" dominant-baseline="alphabetic" fill-opacity="1">6</text><text fill="rgb(37,37,37)" stroke="none" font-family="geogebra-sans-serif, sans-serif" font-size="12px" font-style="normal" font-weight="normal" text-decoration="normal" x="456" y="150" text-anchor="start" dominant-baseline="alphabetic" fill-opacity="1">7</text><text fill="rgb(37,37,37)" stroke="none" font-family="geogebra-sans-serif, sans-serif" font-size="12px" font-style="normal" font-weight="normal" text-decoration="normal" x="456" y="150" text-anchor="start" dominant-baseline="alphabetic" fill-opacity="1">7</text><text fill="rgb(37,37,37)" stroke="none" font-family="geogebra-sans-serif, sans-serif" font-size="12px" font-style="normal" font-weight="normal" text-decoration="normal" x="506" y="150" text-anchor="start" dominant-baseline="alphabetic" fill-opacity="1">8</text><text fill="rgb(37,37,37)" stroke="none" font-family="geogebra-sans-serif, sans-serif" font-size="12px" font-style="normal" font-weight="normal" text-decoration="normal" x="506" y="150" text-anchor="start" dominant-baseline="alphabetic" fill-opacity="1">8</text><text fill="rgb(37,37,37)" stroke="none" font-family="geogebra-sans-serif, sans-serif" font-size="12px" font-style="normal" font-weight="normal" text-decoration="normal" x="556" y="150" text-anchor="start" dominant-baseline="alphabetic" fill-opacity="1">9</text><text fill="rgb(37,37,37)" stroke="none" font-family="geogebra-sans-serif, sans-serif" font-size="12px" font-style="normal" font-weight="normal" text-decoration="normal" x="556" y="150" text-anchor="start" dominant-baseline="alphabetic" fill-opacity="1">9</text><text fill="rgb(37,37,37)" stroke="none" font-family="geogebra-sans-serif, sans-serif" font-size="12px" font-style="normal" font-weight="normal" text-decoration="normal" x="87" y="239" text-anchor="start" dominant-baseline="alphabetic" fill-opacity="1">–2</text><text fill="rgb(37,37,37)" stroke="none" font-family="geogebra-sans-serif, sans-serif" font-size="12px" font-style="normal" font-weight="normal" text-decoration="normal" x="87" y="239" text-anchor="start" dominant-baseline="alphabetic" fill-opacity="1">–2</text><text fill="rgb(37,37,37)" stroke="none" font-family="geogebra-sans-serif, sans-serif" font-size="12px" font-style="normal" font-weight="normal" text-decoration="normal" x="87" y="189" text-anchor="start" dominant-baseline="alphabetic" fill-opacity="1">–1</text><text fill="rgb(37,37,37)" stroke="none" font-family="geogebra-sans-serif, sans-serif" font-size="12px" font-style="normal" font-weight="normal" text-decoration="normal" x="87" y="189" text-anchor="start" dominant-baseline="alphabetic" fill-opacity="1">–1</text><text fill="rgb(37,37,37)" stroke="none" font-family="geogebra-sans-serif, sans-serif" font-size="12px" font-style="normal" font-weight="normal" text-decoration="normal" x="93" y="89" text-anchor="start" dominant-baseline="alphabetic" fill-opacity="1">1</text><text fill="rgb(37,37,37)" stroke="none" font-family="geogebra-sans-serif, sans-serif" font-size="12px" font-style="normal" font-weight="normal" text-decoration="normal" x="93" y="89" text-anchor="start" dominant-baseline="alphabetic" fill-opacity="1">1</text><text fill="rgb(37,37,37)" stroke="none" font-family="geogebra-sans-serif, sans-serif" font-size="12px" font-style="normal" font-weight="normal" text-decoration="normal" x="93" y="38" text-anchor="start" dominant-baseline="alphabetic" fill-opacity="1">2</text><text fill="rgb(37,37,37)" stroke="none" font-family="geogebra-sans-serif, sans-serif" font-size="12px" font-style="normal" font-weight="normal" text-decoration="normal" x="93" y="38" text-anchor="start" dominant-baseline="alphabetic" fill-opacity="1">2</text><text fill="rgb(37,37,37)" stroke="none" font-family="geogebra-sans-serif, sans-serif" font-size="12px" font-style="normal" font-weight="normal" text-decoration="normal" x="93" y="150" text-anchor="start" dominant-baseline="alphabetic" fill-opacity="1">0</text><text fill="rgb(37,37,37)" stroke="none" font-family="geogebra-sans-serif, sans-serif" font-size="12px" font-style="normal" font-weight="normal" text-decoration="normal" x="93" y="150" text-anchor="start" dominant-baseline="alphabetic" fill-opacity="1">0</text><path fill="none" stroke="rgb(199,80,0)" paint-order="fill stroke markers" d=" M 0.4999999999999858 230.02936856769423 L 0.4999999999999858 230.85831611286306 L 0.4999999999999858 230.85831611286306 L 1.4999999999999716 231.5916761938747 L 1.4999999999999716 231.59167619387466 L 2.499999999999986 232.22872507286885 L 2.499999999999986 232.22872507286883 L 3.4999999999999716 232.76883405951375 L 3.4999999999999716 232.76883405951372 L 4.499999999999986 233.21147013144778 L 4.499999999999986 233.21147013144775 L 5.499999999999972 233.556196460308 L 5.499999999999972 233.55619646030797 L 6.499999999999986 233.80267284282718 L 6.499999999999986 233.80267284282715 L 7.499999999999972 233.95065603657318 L 7.499999999999972 233.95065603657315 L 8.499999999999986 234.00000000000006 L 8.499999999999986 234 L 9.499999999999972 233.95065603657318 L 9.499999999999972 233.95065603657318 L 10.499999999999986 233.80267284282718 L 10.499999999999986 233.80267284282718 L 11.499999999999972 233.55619646030803 L 11.499999999999972 233.55619646030806 L 12.499999999999986 233.2114701314478 L 12.499999999999986 233.21147013144784 L 13.499999999999972 232.7688340595138 L 13.499999999999972 232.76883405951384 L 14.5 232.2287250728689 L 14.5 232.22872507286894 L 15.499999999999972 231.5916761938748 L 15.499999999999972 231.59167619387483 L 16.5 230.85831611286318 L 16.5 230.85831611286318 L 17.49999999999997 230.02936856769438 L 17.49999999999997 230.0293685676944 L 18.5 229.10565162951542 L 18.5 229.10565162951542 L 19.49999999999997 228.08807689542263 L 19.49999999999997 228.08807689542266 L 20.5 226.97764858882522 L 20.5 226.97764858882522 L 21.49999999999997 225.7754625683982 L 21.49999999999997 225.7754625683982 L 22.5 224.48270524660202 L 22.5 224.48270524660205 L 23.49999999999997 223.1006524188369 L 23.49999999999997 223.10065241883692 L 24.5 221.63066800438645 L 24.5 221.63066800438645 L 25.49999999999997 220.0742027003945 L 25.49999999999997 220.0742027003945 L 26.5 218.43279255020158 L 26.5 218.4327925502016 L 27.49999999999997 216.7080574274563 L 27.49999999999997 216.7080574274563 L 28.5 214.9016994374948 L 28.5 214.90169943749484 L 29.49999999999997 213.0155012375692 L 29.49999999999997 213.0155012375692 L 30.5 211.05132427757906 L 30.5 211.05132427757906 L 31.49999999999997 209.0111069630461 L 31.49999999999997 209.01110696304613 L 32.5 206.89686274214125 L 32.5 206.8968627421413 L 33.499999999999986 204.71067811865493 L 33.499999999999986 204.71067811865493 L 34.5 202.454710592869 L 34.5 202.454710592869 L 35.499999999999986 200.13118653236535 L 35.499999999999986 200.13118653236538 L 36.5 197.74239897486908 L 36.5 197.7423989748691 L 37.499999999999986 195.29070536529778 L 37.499999999999986 195.2907053652978 L 38.5 192.77852522924746 L 38.5 192.77852522924746 L 39.499999999999986 190.20833778521322 L 39.499999999999986 190.20833778521325 L 40.5 187.58267949789976 L 40.5 187.5826794978998 L 41.499999999999986 184.90414157503733 L 41.499999999999986 184.90414157503736 L 42.5 182.1753674101716 L 42.5 182.1753674101716 L 43.499999999999986 179.39904997395485 L 43.499999999999986 179.39904997395485 L 44.5 176.57792915650737 L 44.5 176.57792915650737 L 45.499999999999986 173.71478906347818 L 45.499999999999986 173.71478906347818 L 46.50000000000001 170.81245526846794 L 46.50000000000001 170.81245526846794 L 47.499999999999986 167.87379202452928 L 47.499999999999986 167.8737920245293 L 48.50000000000001 164.90169943749484 L 48.50000000000001 164.90169943749484 L 49.499999999999986 161.8991106039231 L 49.499999999999986 161.89911060392313 L 50.50000000000001 158.8689887164856 L 50.50000000000001 158.8689887164856 L 51.499999999999986 155.8143241396544 L 51.499999999999986 155.8143241396544 L 52.499999999999964 152.73813145857272 L 52.499999999999964 152.73813145857272 L 53.499999999999986 149.64344650402327 L 53.499999999999986 149.64344650402327 L 54.499999999999964 146.53332335643063 L 54.499999999999964 146.53332335643063 L 55.49999999999999 143.41083133185157 L 55.49999999999999 143.41083133185157 L 56.499999999999964 140.27905195293158 L 56.499999999999964 140.27905195293158 L 57.49999999999999 137.141075907813 L 57.49999999999999 137.141075907813 L 58.49999999999997 134.00000000000017 L 58.49999999999997 134.00000000000017 L 59.49999999999999 130.8589240921873 L 59.49999999999999 130.8589240921873 L 60.49999999999997 127.72094804706887 L 60.49999999999997 127.72094804706889 L 61.49999999999999 124.58916866814872 L 61.49999999999999 124.58916866814872 L 62.49999999999997 121.46667664356983 L 62.49999999999997 121.46667664356983 L 63.49999999999999 118.356553495977 L 63.49999999999999 118.35655349597701 L 64.49999999999997 115.26186854142773 L 64.49999999999997 115.26186854142773 L 65.5 112.18567586034587 L 65.5 112.18567586034587 L 66.49999999999997 109.13101128351465 L 66.49999999999997 109.13101128351467 L 67.5 106.10088939607722 L 67.5 106.10088939607724 L 68.49999999999997 103.09830056250541 L 68.49999999999997 103.09830056250543 L 69.5 100.12620797547096 L 69.5 100.12620797547098 L 70.49999999999997 97.1875447315324 L 70.49999999999997 97.1875447315324 L 71.5 94.28521093652199 L 71.5 94.28521093652199 L 72.49999999999997 91.42207084349288 L 72.49999999999997 91.42207084349289 L 73.5 88.6009500260454 L 73.5 88.60095002604541 L 74.49999999999997 85.82463258982864 L 74.49999999999997 85.82463258982865 L 75.5 83.09585842496296 L 75.5 83.09585842496298 L 76.49999999999997 80.41732050210045 L 76.49999999999997 80.41732050210047 L 77.5 77.79166221478698 L 77.5 77.79166221478701 L 78.49999999999997 75.22147477075282 L 78.49999999999997 75.22147477075285 L 79.5 72.70929463470242 L 79.5 72.70929463470245 L 80.49999999999997 70.25760102513112 L 80.49999999999997 70.25760102513114 L 81.5 67.86881346763484 L 81.5 67.86881346763487 L 82.49999999999997 65.54528940713124 L 82.49999999999997 65.54528940713126 L 83.5 63.2893218813453 L 83.5 63.289321881345316 L 84.49999999999999 61.103137257858904 L 84.49999999999999 61.10313725785892 L 85.5 58.98889303695405 L 85.5 58.98889303695407 L 86.49999999999999 56.94867572242116 L 86.49999999999999 56.94867572242117 L 87.5 54.98449876243099 L 87.5 54.984498762431016 L 88.49999999999999 53.09830056250529 L 88.49999999999999 53.098300562505315 L 89.5 51.2919425725438 L 89.5 51.29194257254383 L 90.49999999999999 49.56720744979853 L 90.49999999999999 49.56720744979856 L 91.5 47.92579729960565 L 91.5 47.92579729960566 L 92.49999999999999 46.36933199561365 L 92.49999999999999 46.36933199561368 L 93.5 44.89934758116323 L 93.5 44.899347581163255 L 94.49999999999999 43.517294753398076 L 94.49999999999999 43.51729475339809 L 95.50000000000001 42.22453743160189 L 95.50000000000001 42.2245374316019 L 96.49999999999999 41.022351411174895 L 96.49999999999999 41.022351411174924 L 97.50000000000001 39.911923104577454 L 97.50000000000001 39.91192310457747 L 98.49999999999999 38.89434837048465 L 98.49999999999999 38.894348370484664 L 99.50000000000001 37.97063143230568 L 99.50000000000001 37.97063143230571 L 100.49999999999999 37.14168388713691 L 100.49999999999999 37.14168388713692 L 101.50000000000001 36.40832380612525 L 101.50000000000001 36.40832380612528 L 102.49999999999999 35.77127492713113 L 102.49999999999999 35.771274927131145 L 103.50000000000001 35.23116594048621 L 103.50000000000001 35.231165940486235 L 104.49999999999999 34.7885298685522 L 104.49999999999999 34.78852986855223 L 105.50000000000001 34.44380353969197 L 105.50000000000001 34.443803539692 L 106.49999999999999 34.19732715717282 L 106.49999999999999 34.197327157172836 L 107.50000000000001 34.04934396342682 L 107.50000000000001 34.049343963426836 L 108.49999999999999 33.99999999999996 L 108.49999999999999 34.04934396342682 L 109.49999999999999 33.999999999999986 L 109.49999999999999 34.04934396342682 L 110.5 34.197327157172836 L 110.5 34.19732715717282 L 111.5 34.443803539691984 L 111.5 34.44380353969197 L 112.5 34.7885298685522 L 112.5 34.78852986855219 L 113.5 35.23116594048622 L 113.5 35.23116594048619 L 114.5 35.77127492713112 L 114.5 35.77127492713109 L 115.5 36.40832380612524 L 115.5 36.408323806125225 L 116.5 37.14168388713688 L 116.5 37.14168388713685 L 117.5 37.97063143230568 L 117.5 37.97063143230565 L 118.5 38.89434837048462 L 118.5 38.89434837048459 L 119.5 39.91192310457744 L 119.5 39.911923104577426 L 120.5 41.02235141117484 L 120.5 41.022351411174824 L 121.5 42.224537431601874 L 121.5 42.224537431601846 L 122.5 43.51729475339803 L 122.5 43.517294753398005 L 123.5 44.8993475811632 L 123.5 44.89934758116317 L 124.5 46.369331995613635 L 124.5 46.36933199561361 L 125.5 47.92579729960562 L 125.5 47.925797299605605 L 126.5 49.567207449798474 L 126.5 49.56720744979846 L 127.5 51.2919425725438 L 127.5 51.29194257254379 L 128.5 53.09830056250526 L 128.5 53.09830056250523 L 129.5 54.98449876243096 L 129.5 54.98449876243093 L 130.5 56.94867572242106 L 130.5 56.948675722421044 L 131.5 58.98889303695404 L 131.5 58.988893036954025 L 132.5 61.10313725785885 L 132.5 61.10313725785882 L 133.5 63.289321881345245 L 133.5 63.28932188134522 L 134.5 65.54528940713114 L 134.5 65.54528940713112 L 135.5 67.86881346763482 L 135.5 67.8688134676348 L 136.5 70.25760102513104 L 136.5 70.25760102513101 L 137.5 72.70929463470236 L 137.5 72.70929463470233 L 138.5 75.2214747707527 L 138.5 75.22147477075268 L 139.5 77.79166221478695 L 139.5 77.79166221478692 L 140.5 80.41732050210035 L 140.5 80.41732050210032 L 141.5 83.09585842496288 L 141.5 83.09585842496287 L 142.5 85.82463258982848 L 142.5 85.82463258982847 L 143.5 88.60095002604533 L 143.5 88.60095002604533 L 144.5 91.42207084349275 L 144.5 91.42207084349275 L 145.5 94.28521093652196 L 145.5 94.28521093652196 L 146.5 97.18754473153223 L 146.5 97.18754473153223 L 147.5 100.12620797547083 L 147.5 100.12620797547082 L 148.5 103.09830056250523 L 148.5 103.09830056250522 L 149.5 106.10088939607705 L 149.5 106.10088939607704 L 150.5 109.13101128351451 L 150.5 109.1310112835145 L 151.5 112.18567586034573 L 151.5 112.18567586034573 L 152.5 115.2618685414275 L 152.5 115.2618685414275 L 153.5 118.35655349597688 L 153.5 118.35655349597688 L 154.5 121.46667664356956 L 154.5 121.46667664356954 L 155.5 124.58916866814855 L 155.5 124.58916866814855 L 156.5 127.72094804706865 L 156.5 127.72094804706865 L 157.5 130.85892409218715 L 157.5 130.85892409218715 L 158.5 134 L 158.5 134 L 159.5 137.14107590781282 L 159.5 137.14107590781282 L 160.5 140.27905195293135 L 160.5 140.27905195293135 L 161.5 143.41083133185145 L 161.5 143.41083133185143 L 162.5 146.53332335643043 L 162.5 146.53332335643043 L 163.5 149.6434465040231 L 163.5 149.6434465040231 L 164.5 152.7381314585725 L 164.5 152.73813145857247 L 165.5 155.81432413965427 L 165.5 155.81432413965425 L 166.5 158.8689887164855 L 166.5 158.8689887164855 L 167.5 161.89911060392294 L 167.5 161.89911060392294 L 168.5 164.90169943749476 L 168.5 164.90169943749476 L 169.5 167.87379202452917 L 169.5 167.87379202452917 L 170.5 170.81245526846783 L 170.5 170.81245526846783 L 171.5 173.7147890634781 L 171.5 173.7147890634781 L 172.5 176.57792915650728 L 172.5 176.57792915650728 L 173.5 179.39904997395473 L 173.5 179.39904997395473 L 174.5 182.17536741017156 L 174.5 182.17536741017153 L 175.5 184.9041415750372 L 175.5 184.90414157503716 L 176.5 187.5826794978997 L 176.5 187.58267949789968 L 177.5 190.20833778521313 L 177.5 190.2083377852131 L 178.5 192.77852522924735 L 178.5 192.77852522924735 L 179.5 195.29070536529773 L 179.5 195.2907053652977 L 180.5 197.74239897486902 L 180.5 197.742398974869 L 181.5 200.13118653236526 L 181.5 200.13118653236523 L 182.5 202.45471059286893 L 182.5 202.4547105928689 L 183.5 204.71067811865484 L 183.5 204.7106781186548 L 184.5 206.89686274214122 L 184.5 206.8968627421412 L 185.5 209.01110696304602 L 185.5 209.01110696304596 L 186.5 211.051324277579 L 186.5 211.05132427757897 L 187.5 213.01550123756908 L 187.5 213.01550123756908 L 188.5 214.9016994374948 L 188.5 214.90169943749478 L 189.5 216.70805742745625 L 189.5 216.7080574274562 L 190.5 218.43279255020155 L 190.5 218.43279255020155 L 191.5 220.07420270039444 L 191.5 220.07420270039438 L 192.5 221.63066800438642 L 192.5 221.6306680043864 L 193.5 223.10065241883683 L 193.5 223.10065241883683 L 194.5 224.48270524660202 L 194.5 224.482705246602 L 195.5 225.77546256839815 L 195.5 225.77546256839815 L 196.5 226.97764858882522 L 196.5 226.97764858882516 L 197.5 228.0880768954226 L 197.5 228.08807689542257 L 198.5 229.10565162951542 L 198.5 229.10565162951542 L 199.5 230.02936856769435 L 199.5 230.02936856769435 L 200.5 230.85831611286315 L 200.5 230.85831611286312 L 201.5 231.59167619387478 L 201.5 231.59167619387478 L 202.5 232.2287250728689 L 202.5 232.22872507286888 L 203.5 232.7688340595138 L 203.5 232.76883405951378 L 204.5 233.2114701314478 L 204.5 233.2114701314478 L 205.5 233.55619646030803 L 205.5 233.556196460308 L 206.5 233.80267284282718 L 206.5 233.80267284282718 L 207.5 233.95065603657318 L 207.5 233.95065603657315 L 208.5 234 L 208.5 233.95065603657315 L 209.5 234.00000000000006 L 209.5 233.95065603657318 L 210.5 233.80267284282715 L 210.5 233.80267284282718 L 211.5 233.556196460308 L 211.5 233.556196460308 L 212.5 233.21147013144775 L 212.5 233.2114701314478 L 213.5 232.76883405951378 L 213.5 232.76883405951378 L 214.5 232.22872507286883 L 214.5 232.22872507286888 L 215.5 231.59167619387472 L 215.5 231.59167619387475 L 216.5 230.85831611286306 L 216.5 230.8583161128631 L 217.5 230.0293685676943 L 217.5 230.0293685676943 L 218.5 229.1056516295153 L 218.5 229.1056516295153 L 219.5 228.08807689542252 L 219.5 228.08807689542255 L 220.50000000000003 226.97764858882508 L 220.50000000000003 226.9776485888251 L 221.5 225.77546256839807 L 221.5 225.7754625683981 L 222.50000000000003 224.48270524660188 L 222.50000000000003 224.48270524660188 L 223.5 223.10065241883672 L 223.5 223.10065241883675 L 224.50000000000003 221.63066800438628 L 224.50000000000003 221.63066800438628 L 225.5 220.07420270039432 L 225.5 220.07420270039432 L 226.50000000000003 218.43279255020144 L 226.50000000000003 218.43279255020144 L 227.5 216.70805742745614 L 227.5 216.70805742745614 L 228.5 214.90169943749467 L 228.5 214.9016994374947 L 229.5 213.01550123756897 L 229.5 213.01550123756897 L 230.5 211.05132427757883 L 230.5 211.05132427757886 L 231.5 209.01110696304588 L 231.5 209.0111069630459 L 232.5 206.89686274214105 L 232.5 206.89686274214108 L 233.5 204.71067811865464 L 233.5 204.7106781186547 L 234.5 202.45471059286876 L 234.5 202.45471059286876 L 235.5 200.13118653236506 L 235.5 200.13118653236512 L 236.5 197.74239897486888 L 236.5 197.7423989748689 L 237.5 195.29070536529758 L 237.5 195.29070536529758 L 238.5 192.77852522924718 L 238.5 192.77852522924718 L 239.5 190.20833778521293 L 239.5 190.20833778521296 L 240.5 187.58267949789953 L 240.5 187.58267949789956 L 241.5 184.90414157503704 L 241.5 184.90414157503704 L 242.5 182.17536741017136 L 242.5 182.17536741017136 L 243.5 179.39904997395453 L 243.5 179.39904997395453 L 244.5 176.57792915650714 L 244.5 176.57792915650714 L 245.5 173.71478906347795 L 245.5 173.71478906347795 L 246.5 170.8124552684676 L 246.5 170.8124552684676 L 247.5 167.87379202452897 L 247.5 167.87379202452897 L 248.5 164.90169943749459 L 248.5 164.90169943749459 L 249.5 161.89911060392276 L 249.5 161.8991106039228 L 250.5 158.86898871648526 L 250.5 158.86898871648526 L 251.5 155.81432413965405 L 251.5 155.81432413965405 L 252.5 152.73813145857227 L 252.5 152.7381314585723 L 253.5 149.6434465040229 L 253.5 149.64344650402293 L 254.5 146.53332335643026 L 254.5 146.5333233564303 L 255.5 143.4108313318512 L 255.5 143.4108313318512 L 256.5 140.27905195293113 L 256.5 140.27905195293113 L 257.5 137.14107590781265 L 257.5 137.14107590781265 L 258.5 133.99999999999983 L 258.5 133.99999999999983 L 259.5 130.85892409218692 L 259.5 130.85892409218692 L 260.5 127.72094804706843 L 260.5 127.72094804706843 L 261.5 124.58916866814836 L 261.5 124.58916866814836 L 262.5 121.46667664356939 L 262.5 121.46667664356939 L 263.5 118.35655349597666 L 263.5 118.35655349597666 L 264.5 115.26186854142729 L 264.5 115.2618685414273 L 265.5 112.18567586034553 L 265.5 112.18567586034553 L 266.5 109.13101128351431 L 266.5 109.13101128351431 L 267.5 106.10088939607688 L 267.5 106.1008893960769 L 268.5 103.09830056250509 L 268.5 103.0983005625051 L 269.5 100.12620797547063 L 269.5 100.12620797547063 L 270.5 97.18754473153207 L 270.5 97.18754473153209 L 271.5 94.28521093652174 L 271.5 94.28521093652175 L 272.5 91.42207084349255 L 272.5 91.42207084349258 L 273.5 88.60095002604507 L 273.5 88.6009500260451 L 274.5 85.82463258982833 L 274.5 85.82463258982834 L 275.5 83.09585842496267 L 275.5 83.09585842496269 L 276.5 80.41732050210015 L 276.5 80.41732050210017 L 277.5 77.7916622147867 L 277.5 77.79166221478671 L 278.5 75.22147477075254 L 278.5 75.22147477075256 L 279.5 72.70929463470213 L 279.5 72.70929463470216 L 280.5 70.25760102513084 L 280.5 70.25760102513087 L 281.5 67.86881346763458 L 281.5 67.8688134676346 L 282.5 65.54528940713098 L 282.5 65.545289407131 L 283.5 63.28932188134512 L 283.5 63.28932188134513 L 284.5 61.10313725785866 L 284.5 61.10313725785869 L 285.5 58.98889303695387 L 285.5 58.9888930369539 L 286.5 56.94867572242093 L 286.5 56.94867572242096 L 287.5 54.98449876243083 L 287.5 54.984498762430846 L 288.5 53.09830056250509 L 288.5 53.098300562505116 L 289.5 51.29194257254366 L 289.5 51.29194257254369 L 290.5 49.567207449798346 L 290.5 49.567207449798374 L 291.5 47.925797299605506 L 291.5 47.925797299605534 L 292.5 46.369331995613535 L 292.5 46.36933199561355 L 293.5 44.89934758116307 L 293.5 44.8993475811631 L 294.5 43.51729475339792 L 294.5 43.517294753397934 L 295.5 42.224537431601775 L 295.5 42.22453743160179 L 296.5 41.02235141117477 L 296.5 41.02235141117478 L 297.5 39.91192310457734 L 297.5 39.91192310457737 L 298.5 38.89434837048455 L 298.5 38.894348370484565 L 299.5 37.97063143230561 L 299.5 37.97063143230562 L 300.5 37.14168388713681 L 300.5 37.141683887136836 L 301.5 36.40832380612518 L 301.5 36.408323806125196 L 302.5 35.77127492713106 L 302.5 35.771274927131074 L 303.5 35.231165940486164 L 303.5 35.23116594048619 L 304.5 34.78852986855216 L 304.5 34.78852986855219 L 305.5 34.443803539691956 L 305.5 34.44380353969197 L 306.5 34.19732715717279 L 306.5 34.19732715717282 L 307.5 34.04934396342682 L 307.5 34.049343963426836 L 308.5 33.999999999999986 L 308.5 33.99999999999996 L 309.5 34.04934396342685 L 309.5 34.04934396342682 L 310.5 34.197327157172865 L 310.5 34.197327157172836 L 311.5 34.44380353969201 L 311.5 34.443803539692 L 312.5 34.78852986855226 L 312.5 34.78852986855223 L 313.5 35.231165940486264 L 313.5 35.231165940486235 L 314.5 35.77127492713119 L 314.5 35.771274927131174 L 315.5 36.40832380612531 L 315.5 36.40832380612528 L 316.5 37.14168388713696 L 316.5 37.141683887136935 L 317.5 37.97063143230575 L 317.5 37.97063143230572 L 318.5 38.89434837048472 L 318.5 38.89434837048471 L 319.5 39.911923104577525 L 319.5 39.91192310457751 L 320.5 41.02235141117498 L 320.5 41.02235141117495 L 321.5 42.22453743160197 L 321.5 42.224537431601945 L 322.5 43.51729475339816 L 322.5 43.51729475339815 L 323.5 44.899347581163326 L 323.5 44.89934758116331 L 324.5 46.369331995613805 L 324.5 46.36933199561379 L 325.5 47.92579729960576 L 325.5 47.92579729960573 L 326.5 49.567207449798644 L 326.5 49.56720744979863 L 327.5 51.291942572543974 L 327.5 51.291942572543945 L 328.5 53.09830056250547 L 328.5 53.09830056250544 L 329.5 54.984498762431116 L 329.5 54.98449876243109 L 330.5 56.94867572242127 L 330.5 56.94867572242126 L 331.5 58.98889303695424 L 331.5 58.988893036954224 L 332.50000000000006 61.1031372578591 L 332.50000000000006 61.103137257859075 L 333.5 63.28932188134543 L 333.5 63.289321881345415 L 334.50000000000006 65.54528940713138 L 334.50000000000006 65.54528940713135 L 335.5 67.86881346763505 L 335.5 67.86881346763504 L 336.50000000000006 70.25760102513132 L 336.50000000000006 70.25760102513131 L 337.5 72.70929463470257 L 337.5 72.70929463470256 L 338.50000000000006 75.22147477075298 L 338.50000000000006 75.22147477075296 L 339.5 77.79166221478722 L 339.5 77.79166221478721 L 340.50000000000006 80.41732050210068 L 340.50000000000006 80.41732050210067 L 341.5 83.09585842496313 L 341.5 83.0958584249631 L 342.50000000000006 85.8246325898288 L 342.50000000000006 85.82463258982878 L 343.5 88.60095002604555 L 343.5 88.60095002604554 L 344.50000000000006 91.42207084349303 L 344.50000000000006 91.42207084349303 L 345.5 94.28521093652222 L 345.5 94.28521093652222 L 346.50000000000006 97.18754473153257 L 346.50000000000006 97.18754473153255 L 347.5 100.12620797547112 L 347.5 100.12620797547112 L 348.50000000000006 103.0983005625056 L 348.50000000000006 103.09830056250559 L 349.5 106.10088939607739 L 349.5 106.10088939607738 L 350.50000000000006 109.13101128351491 L 350.50000000000006 109.13101128351491 L 351.5 112.18567586034604 L 351.5 112.18567586034604 L 352.50000000000006 115.2618685414279 L 352.50000000000006 115.2618685414279 L 353.5 118.35655349597725 L 353.5 118.35655349597725 L 354.50000000000006 121.46667664357 L 354.50000000000006 121.46667664356998 L 355.5 124.58916866814889 L 355.5 124.58916866814889 L 356.50000000000006 127.72094804706904 L 356.50000000000006 127.72094804706904 L 357.5 130.85892409218755 L 357.5 130.85892409218752 L 358.5 134.00000000000026 L 358.5 134.00000000000026 L 359.5 137.14107590781316 L 359.5 137.14107590781316 L 360.50000000000006 140.27905195293175 L 360.50000000000006 140.27905195293175 L 361.5 143.41083133185182 L 361.5 143.41083133185182 L 362.5 146.5333233564307 L 362.5 146.53332335643069 L 363.5 149.64344650402353 L 363.5 149.64344650402353 L 364.50000000000006 152.73813145857287 L 364.50000000000006 152.73813145857287 L 365.5 155.81432413965464 L 365.5 155.81432413965464 L 366.5 158.8689887164857 L 366.5 158.8689887164857 L 367.5 161.89911060392328 L 367.5 161.89911060392328 L 368.50000000000006 164.90169943749527 L 368.50000000000006 164.90169943749524 L 369.5 167.87379202452945 L 369.5 167.87379202452945 L 370.5 170.8124552684681 L 370.5 170.81245526846809 L 371.5 173.71478906347835 L 371.5 173.71478906347835 L 372.50000000000006 176.57792915650768 L 372.50000000000006 176.57792915650768 L 373.5 179.39904997395507 L 373.5 179.39904997395507 L 374.5 182.17536741017176 L 374.5 182.17536741017173 L 375.5 184.9041415750375 L 375.5 184.90414157503747 L 376.50000000000006 187.58267949790002 L 376.50000000000006 187.5826794979 L 377.5 190.20833778521336 L 377.5 190.20833778521336 L 378.5 192.7785252292476 L 378.5 192.77852522924758 L 379.5 195.29070536529792 L 379.5 195.2907053652979 L 380.50000000000006 197.7423989748694 L 380.50000000000006 197.74239897486936 L 381.5 200.13118653236558 L 381.5 200.13118653236552 L 382.5 202.4547105928691 L 382.5 202.45471059286908 L 383.5 204.7106781186551 L 383.5 204.71067811865504 L 384.50000000000006 206.89686274214145 L 384.50000000000006 206.89686274214142 L 385.5 209.01110696304625 L 385.5 209.01110696304622 L 386.5 211.0513242775792 L 386.5 211.05132427757917 L 387.5 213.01550123756928 L 387.5 213.01550123756925 L 388.5 214.90169943749498 L 388.5 214.90169943749493 L 389.5 216.70805742745648 L 389.5 216.70805742745648 L 390.5 218.4327925502017 L 390.5 218.43279255020167 L 391.5 220.0742027003946 L 391.5 220.0742027003946 L 392.5 221.63066800438662 L 392.5 221.63066800438656 L 393.5 223.100652418837 L 393.5 223.100652418837 L 394.5 224.48270524660217 L 394.5 224.48270524660214 L 395.5 225.7754625683983 L 395.5 225.77546256839827 L 396.5 226.9776485888253 L 396.5 226.97764858882528 L 397.5 228.0880768954227 L 397.5 228.08807689542266 L 398.5 229.10565162951548 L 398.5 229.10565162951548 L 399.5 230.02936856769446 L 399.5 230.02936856769446 L 400.5 230.8583161128632 L 400.5 230.85831611286318 L 401.5 231.5916761938749 L 401.5 231.59167619387483 L 402.5 232.22872507286897 L 402.5 232.22872507286894 L 403.5 232.76883405951386 L 403.5 232.76883405951384 L 404.5 233.21147013144787 L 404.5 233.21147013144784 L 405.5 233.55619646030806 L 405.5 233.55619646030806 L 406.5 233.8026728428272 L 406.5 233.80267284282718 L 407.5 233.9506560365732 L 407.5 233.95065603657318 L 408.5 234 L 408.5 233.95065603657315 L 409.5 234.00000000000006 L 409.5 233.95065603657315 L 410.5 233.80267284282712 L 410.5 233.80267284282715 L 411.5 233.556196460308 L 411.5 233.556196460308 L 412.5 233.21147013144773 L 412.5 233.21147013144775 L 413.50000000000006 232.76883405951372 L 413.50000000000006 232.76883405951372 L 414.5 232.22872507286877 L 414.5 232.22872507286883 L 415.5 231.59167619387466 L 415.5 231.59167619387466 L 416.5 230.858316112863 L 416.5 230.85831611286304 L 417.50000000000006 230.02936856769415 L 417.50000000000006 230.02936856769418 L 418.5 229.1056516295152 L 418.5 229.10565162951522 L 419.5 228.08807689542243 L 419.5 228.08807689542246 L 420.5 226.97764858882496 L 420.5 226.977648588825 L 421.50000000000006 225.77546256839793 L 421.50000000000006 225.77546256839796 L 422.5 224.48270524660177 L 422.5 224.48270524660177 L 423.5 223.1006524188366 L 423.5 223.1006524188366 L 424.5 221.63066800438617 L 424.5 221.63066800438617 L 425.50000000000006 220.07420270039407 L 425.50000000000006 220.0742027003941 L 426.5 218.4327925502013 L 426.5 218.43279255020133 L 427.5 216.70805742745597 L 427.5 216.708057427456 L 428.5 214.90169943749441 L 428.5 214.90169943749447 L 429.50000000000006 213.0155012375687 L 429.50000000000006 213.01550123756874 L 430.5 211.0513242775786 L 430.5 211.05132427757863 L 431.5 209.01110696304562 L 431.5 209.01110696304568 L 432.5 206.89686274214083 L 432.5 206.89686274214085 L 433.50000000000006 204.7106781186543 L 433.50000000000006 204.71067811865433 L 434.5 202.45471059286857 L 434.5 202.4547105928686 L 435.5 200.1311865323649 L 435.5 200.1311865323649 L 436.5 197.74239897486854 L 436.5 197.74239897486854 L 437.50000000000006 195.2907053652972 L 437.50000000000006 195.29070536529724 L 438.5 192.7785252292469 L 438.5 192.7785252292469 L 439.5 190.20833778521262 L 439.5 190.20833778521265 L 440.5 187.58267949789925 L 440.5 187.58267949789928 L 441.50000000000006 184.90414157503656 L 441.50000000000006 184.9041415750366 L 442.5 182.17536741017113 L 442.5 182.17536741017113 L 443.5 179.39904997395428 L 443.5 179.3990499739543 L 444.5 176.5779291565067 L 444.5 176.57792915650674 L 445.50000000000006 173.71478906347753 L 445.50000000000006 173.71478906347755 L 446.5 170.81245526846726 L 446.5 170.8124552684673 L 447.5 167.8737920245288 L 447.5 167.8737920245288 L 448.5 164.90169943749424 L 448.5 164.90169943749424 L 449.50000000000006 161.89911060392242 L 449.50000000000006 161.89911060392245 L 450.5 158.868988716485 L 450.5 158.868988716485 L 451.5 155.8143241396538 L 451.5 155.8143241396538 L 452.5 152.738131458572 L 452.5 152.738131458572 L 453.50000000000006 149.64344650402248 L 453.50000000000006 149.64344650402248 L 454.5 146.53332335642983 L 454.5 146.53332335642983 L 455.5 143.41083133185103 L 455.5 143.41083133185103 L 456.5 140.27905195293079 L 456.5 140.27905195293079 L 457.50000000000006 137.14107590781228 L 457.50000000000006 137.14107590781228 L 458.5 133.99999999999946 L 458.5 133.99999999999946 L 459.5 130.85892409218667 L 459.5 130.85892409218667 L 460.50000000000006 127.72094804706818 L 460.50000000000006 127.72094804706818 L 461.50000000000006 124.58916866814792 L 461.50000000000006 124.58916866814792 L 462.50000000000006 121.46667664356895 L 462.50000000000006 121.46667664356895 L 463.5 118.35655349597647 L 463.5 118.35655349597648 L 464.50000000000006 115.26186854142695 L 464.50000000000006 115.26186854142695 L 465.50000000000006 112.18567586034517 L 465.50000000000006 112.18567586034519 L 466.50000000000006 109.13101128351397 L 466.50000000000006 109.13101128351397 L 467.5 106.10088939607654 L 467.5 106.10088939607655 L 468.5 103.09830056250475 L 468.5 103.09830056250476 L 469.5 100.12620797547038 L 469.5 100.12620797547038 L 470.50000000000006 97.18754473153157 L 470.50000000000006 97.18754473153157 L 471.5 94.2852109365215 L 471.5 94.28521093652151 L 472.5 91.42207084349232 L 472.5 91.42207084349232 L 473.5 88.60095002604493 L 473.5 88.60095002604493 L 474.50000000000006 85.82463258982794 L 474.50000000000006 85.82463258982796 L 475.5 83.09585842496236 L 475.5 83.09585842496237 L 476.5 80.41732050209998 L 476.5 80.41732050210001 L 477.5 77.79166221478647 L 477.5 77.7916622147865 L 478.50000000000006 75.22147477075225 L 478.50000000000006 75.22147477075227 L 479.5 72.70929463470193 L 479.5 72.70929463470196 L 480.5 70.25760102513063 L 480.5 70.25760102513064 L 481.5 67.86881346763444 L 481.5 67.86881346763447 L 482.50000000000006 65.54528940713065 L 482.50000000000006 65.54528940713067 L 483.5 63.28932188134479 L 483.5 63.289321881344804 L 484.5 61.10313725785855 L 484.5 61.10313725785856 L 485.5 58.98889303695364 L 485.5 58.98889303695367 L 486.50000000000006 56.9486757224207 L 486.50000000000006 56.94867572242072 L 487.5 54.98449876243062 L 487.5 54.98449876243063 L 488.5 53.09830056250493 L 488.5 53.09830056250496 L 489.5 51.291942572543505 L 489.5 51.29194257254353 L 490.50000000000006 49.56720744979812 L 490.50000000000006 49.56720744979813 L 491.5 47.92579729960528 L 491.5 47.92579729960531 L 492.5 46.36933199561339 L 492.5 46.36933199561342 L 493.5 44.899347581162914 L 493.5 44.89934758116293 L 494.50000000000006 43.51729475339778 L 494.50000000000006 43.51729475339779 L 495.5 42.22453743160163 L 495.5 42.22453743160165 L 496.5 41.022351411174625 L 496.5 41.022351411174654 L 497.5 39.91192310457724 L 497.5 39.91192310457727 L 498.50000000000006 38.894348370484394 L 498.50000000000006 38.89434837048442 L 499.5 37.970631432305524 L 499.5 37.97063143230555 L 500.5 37.14168388713675 L 500.5 37.141683887136764 L 501.5 36.4083238061251 L 501.5 36.408323806125125 L 502.50000000000006 35.77127492713099 L 502.50000000000006 35.77127492713102 L 503.5 35.23116594048611 L 503.5 35.231165940486136 L 504.5 34.78852986855212 L 504.5 34.788529868552146 L 505.5 34.44380353969191 L 505.5 34.44380353969194 L 506.50000000000006 34.19732715717278 L 506.50000000000006 34.19732715717279 L 507.50000000000006 34.04934396342681 L 507.50000000000006 34.04934396342682 L 508.5 33.999999999999986 L 508.5 33.99999999999996 L 509.5 34.049343963426864 L 509.5 34.049343963426836 L 510.50000000000006 34.19732715717288 L 510.50000000000006 34.197327157172865 L 511.50000000000006 34.443803539692055 L 511.50000000000006 34.44380353969203 L 512.5 34.7885298685523 L 512.5 34.788529868552274 L 513.5 35.23116594048629 L 513.5 35.23116594048628 L 514.5000000000001 35.77127492713129 L 514.5000000000001 35.77127492713126 L 515.5000000000001 36.40832380612538 L 515.5000000000001 36.40832380612537 L 516.5 37.14168388713702 L 516.5 37.141683887137006 L 517.5 37.97063143230585 L 517.5 37.97063143230582 L 518.5000000000001 38.89434837048485 L 518.5000000000001 38.894348370484835 L 519.5000000000001 39.91192310457768 L 519.5000000000001 39.91192310457767 L 520.5 41.02235141117511 L 520.5 41.02235141117508 L 521.5 42.22453743160207 L 521.5 42.224537431602045 L 522.5000000000001 43.5172947533984 L 522.5000000000001 43.517294753398374 L 523.5000000000001 44.8993475811635 L 523.5000000000001 44.89934758116347 L 524.5 46.36933199561393 L 524.5 46.369331995613905 L 525.5 47.92579729960593 L 525.5 47.92579729960592 L 526.5000000000001 49.567207449798886 L 526.5000000000001 49.56720744979887 L 527.5000000000001 51.29194257254423 L 527.5000000000001 51.2919425725442 L 528.5 53.09830056250557 L 528.5 53.09830056250554 L 529.5 54.984498762431286 L 529.5 54.98449876243126 L 530.5000000000001 56.94867572242151 L 530.5000000000001 56.948675722421484 L 531.5000000000001 58.98889303695448 L 531.5000000000001 58.98889303695445 L 532.5 61.10313725785929 L 532.5 61.103137257859274 L 533.5 63.289321881345685 L 533.5 63.28932188134567 L 534.5000000000001 65.5452894071317 L 534.5000000000001 65.54528940713169 L 535.5000000000001 67.86881346763539 L 535.5000000000001 67.86881346763536 L 536.5 70.25760102513146 L 536.5 70.25760102513145 L 537.5 72.70929463470279 L 537.5 72.70929463470276 L 538.5000000000001 75.22147477075328 L 538.5000000000001 75.22147477075325 L 539.5000000000001 77.79166221478752 L 539.5000000000001 77.7916622147875 L 540.5 80.4173205021009 L 540.5 80.41732050210088 L 541.5 83.09585842496344 L 541.5 83.09585842496341 L 542.5000000000001 85.82463258982918 L 542.5000000000001 85.82463258982918 L 543.5000000000001 88.60095002604604 L 543.5000000000001 88.60095002604602 L 544.5 91.42207084349329 L 544.5 91.42207084349326 L 545.5 94.28521093652247 L 545.5 94.28521093652246 L 546.5000000000001 97.18754473153288 L 546.5000000000001 97.18754473153288 L 547.5000000000001 100.12620797547154 L 547.5000000000001 100.12620797547153 L 548.5 103.09830056250593 L 548.5 103.09830056250591 L 549.5 106.10088939607758 L 549.5 106.10088939607756 L 550.5000000000001 109.13101128351533 L 550.5000000000001 109.13101128351533 L 551.5000000000001 112.18567586034655 L 551.5000000000001 112.18567586034655 L 552.5 115.26186854142816 L 552.5 115.26186854142816 L 553.5 118.35655349597752 L 553.5 118.35655349597752 L 554.5000000000001 121.46667664357035 L 554.5000000000001 121.46667664357034 L 555.5000000000001 124.58916866814933 L 555.5000000000001 124.58916866814931 L 556.5000000000001 127.7209480470694 L 556.5000000000001 127.7209480470694 L 557.5 130.85892409218772 L 557.5 130.85892409218772 L 558.5000000000001 134.00000000000088 L 558.5000000000001 134.00000000000088 L 559.5000000000001 137.14107590781353 L 559.5000000000001 137.1410759078135 L 560.5000000000001 140.279051952932 L 560.5000000000001 140.279051952932 L 561.5 143.41083133185208 L 561.5 143.41083133185208 L 562.5000000000001 146.53332335643123 L 562.5000000000001 146.53332335643123 L 563.5000000000001 149.64344650402387 L 563.5000000000001 149.64344650402387 L 564.5000000000001 152.73813145857324 L 564.5000000000001 152.73813145857324 L 565.5 155.81432413965481 L 565.5 155.81432413965481 L 566.5 158.86898871648603 L 566.5 158.86898871648603 L 567.5000000000001 161.89911060392362 L 567.5000000000001 161.89911060392362 L 568.5000000000001 164.9016994374954 L 568.5000000000001 164.9016994374954 L 569.5 167.8737920245298 L 569.5 167.8737920245298 L 570.5 170.81245526846843 L 570.5 170.81245526846843 L 571.5000000000001 173.71478906347883 L 571.5000000000001 173.71478906347883 L 572.5000000000001 176.57792915650802 L 572.5000000000001 176.577929156508 L 573.5 179.39904997395524 L 573.5 179.39904997395521 L 574.5 182.17536741017204 L 574.5 182.17536741017204 L 575.5000000000001 184.90414157503778 L 575.5000000000001 184.90414157503778 L 576.5000000000001 187.5826794979003 L 576.5000000000001 187.5826794979003 L 577.5 190.20833778521367 L 577.5 190.20833778521364 L 578.5 192.77852522924775 L 578.5 192.77852522924775 L 579.5000000000001 195.29070536529835 L 579.5000000000001 195.29070536529832 L 580.5000000000001 197.7423989748695 L 580.5000000000001 197.74239897486947 L 581.5 200.1311865323657 L 581.5 200.1311865323657 L 582.5 202.45471059286933 L 582.5 202.45471059286933 L 583.5000000000001 204.71067811865532 L 583.5000000000001 204.71067811865532 L 584.5000000000001 206.8968627421417 L 584.5000000000001 206.89686274214168 L 585.5 209.01110696304647 L 585.5 209.01110696304644 L 586.5 211.05132427757928 L 586.5 211.05132427757928 L 587.5000000000001 213.0155012375696 L 587.5000000000001 213.0155012375696 L 588.5000000000001 214.90169943749518 L 588.5000000000001 214.90169943749515 L 589.5 216.7080574274566 L 589.5 216.70805742745657 L 590.5 218.4327925502019 L 590.5 218.43279255020187 L 591.5000000000001 220.0742027003948 L 591.5000000000001 220.07420270039478 L 592.5000000000001 221.6306680043868 L 592.5000000000001 221.63066800438673 L 593.5 223.10065241883717 L 593.5 223.10065241883714 L 594.5 224.48270524660222 L 594.5 224.48270524660222 L 595.5000000000001 225.7754625683985 L 595.5000000000001 225.7754625683985 L 596.5000000000001 226.97764858882545 L 596.5000000000001 226.97764858882542 L 597.5 228.08807689542283 L 597.5 228.08807689542277 L 598.5 229.1056516295156 L 598.5 229.1056516295156 L 599.5000000000001 230.02936856769458 L 599.5000000000001 230.02936856769455 L 600.5000000000001 230.85831611286335 L 600.5000000000001 230.85831611286332 L 601.5 231.59167619387495 L 601.5 231.59167619387492 L 602.5 232.228725072869 L 602.5 232.228725072869 L 603.5000000000001 232.76883405951395 L 603.5000000000001 232.76883405951392 L 604.5000000000001 233.2114701314479 L 604.5000000000001 233.21147013144787 L 605.5000000000001 233.55619646030812 L 605.5000000000001 233.5561964603081 L 606.5 233.80267284282723 L 606.5 233.8026728428272 L 607.5000000000001 233.9506560365732 L 607.5000000000001 233.95065603657318 L 608.5000000000001 234 L 608.5000000000001 233.95065603657315 L 609.5000000000001 234.00000000000006 L 609.5000000000001 233.95065603657315 L 610.5 233.80267284282712 L 610.5 233.80267284282712 L 611.5000000000001 233.55619646030794 L 611.5000000000001 233.55619646030794 L 612.5000000000001 233.2114701314477 L 612.5000000000001 233.2114701314477 L 613.5000000000001 232.76883405951367 L 613.5000000000001 232.76883405951367 L 614.5 232.2287250728687 L 614.5 232.22872507286874 L 615.5000000000001 231.59167619387455" stroke-opacity="0.6980392156862745" stroke-linecap="round" stroke-linejoin="round" stroke-miterlimit="10" stroke-width="2.5"/></g></g></svg>
