<svg version="1.1" xmlns="http://www.w3.org/2000/svg" xmlns:xlink="http://www.w3.org/1999/xlink" width="891" height="515"><defs><clipPath id="ixUdkAkoxkLA"><path fill="none" stroke="none" d=" M 0 0 L 891 0 L 891 515 L 0 515 L 0 0 Z"/></clipPath></defs><g transform="scale(1,1)" clip-path="url(#ixUdkAkoxkLA)"><g><rect fill="rgb(255,255,255)" stroke="none" x="0" y="0" width="892" height="515" fill-opacity="1"/><path fill="none" stroke="rgb(192,192,192)" paint-order="fill stroke markers" d=" M 145.5 0.5 L 145.5 515.5 M 241.5 0.5 L 241.5 515.5 M 337.5 0.5 L 337.5 515.5 M 433.5 0.5 L 433.5 515.5 M 529.5 0.5 L 529.5 515.5 M 625.5 0.5 L 625.5 515.5 M 721.5 0.5 L 721.5 515.5 M 817.5 0.5 L 817.5 515.5" stroke-opacity="1" stroke-linecap="round" stroke-linejoin="round" stroke-miterlimit="10"/><path fill="none" stroke="rgb(192,192,192)" paint-order="fill stroke markers" d=" M 11.5 0.5 L 11.5 515.5 M 30.5 0.5 L 30.5 515.5 M 68.5 0.5 L 68.5 515.5 M 87.5 0.5 L 87.5 515.5 M 107.5 0.5 L 107.5 515.5 M 126.5 0.5 L 126.5 515.5 M 164.5 0.5 L 164.5 515.5 M 183.5 0.5 L 183.5 515.5 M 203.5 0.5 L 203.5 515.5 M 222.5 0.5 L 222.5 515.5 M 260.5 0.5 L 260.5 515.5 M 279.5 0.5 L 279.5 515.5 M 299.5 0.5 L 299.5 515.5 M 318.5 0.5 L 318.5 515.5 M 356.5 0.5 L 356.5 515.5 M 375.5 0.5 L 375.5 515.5 M 395.5 0.5 L 395.5 515.5 M 414.5 0.5 L 414.5 515.5 M 452.5 0.5 L 452.5 515.5 M 471.5 0.5 L 471.5 515.5 M 491.5 0.5 L 491.5 515.5 M 510.5 0.5 L 510.5 515.5 M 548.5 0.5 L 548.5 515.5 M 567.5 0.5 L 567.5 515.5 M 587.5 0.5 L 587.5 515.5 M 606.5 0.5 L 606.5 515.5 M 644.5 0.5 L 644.5 515.5 M 663.5 0.5 L 663.5 515.5 M 683.5 0.5 L 683.5 515.5 M 702.5 0.5 L 702.5 515.5 M 740.5 0.5 L 740.5 515.5 M 759.5 0.5 L 759.5 515.5 M 779.5 0.5 L 779.5 515.5 M 798.5 0.5 L 798.5 515.5 M 836.5 0.5 L 836.5 515.5 M 855.5 0.5 L 855.5 515.5 M 875.5 0.5 L 875.5 515.5" stroke-opacity="0.23529411764705882" stroke-linecap="round" stroke-linejoin="round" stroke-miterlimit="10"/><path fill="none" stroke="rgb(192,192,192)" paint-order="fill stroke markers" d=" M 0.5 6.5 L 891.5 6.5 M 0.5 6.5 L 891.5 6.5 M 0.5 58.5 L 891.5 58.5 M 0.5 111.5 L 891.5 111.5 M 0.5 163.5 L 891.5 163.5 M 0.5 215.5 L 891.5 215.5 M 0.5 267.5 L 891.5 267.5 M 0.5 320.5 L 891.5 320.5 M 0.5 372.5 L 891.5 372.5 M 0.5 424.5 L 891.5 424.5" stroke-opacity="1" stroke-linecap="round" stroke-linejoin="round" stroke-miterlimit="10"/><path fill="none" stroke="rgb(192,192,192)" paint-order="fill stroke markers" d=" M 0.5 6.5 L 891.5 6.5 M 0.5 17.5 L 891.5 17.5 M 0.5 27.5 L 891.5 27.5 M 0.5 38.5 L 891.5 38.5 M 0.5 48.5 L 891.5 48.5 M 0.5 69.5 L 891.5 69.5 M 0.5 79.5 L 891.5 79.5 M 0.5 90.5 L 891.5 90.5 M 0.5 100.5 L 891.5 100.5 M 0.5 121.5 L 891.5 121.5 M 0.5 132.5 L 891.5 132.5 M 0.5 142.5 L 891.5 142.5 M 0.5 153.5 L 891.5 153.5 M 0.5 173.5 L 891.5 173.5 M 0.5 184.5 L 891.5 184.5 M 0.5 194.5 L 891.5 194.5 M 0.5 205.5 L 891.5 205.5 M 0.5 226.5 L 891.5 226.5 M 0.5 236.5 L 891.5 236.5 M 0.5 247.5 L 891.5 247.5 M 0.5 257.5 L 891.5 257.5 M 0.5 278.5 L 891.5 278.5 M 0.5 288.5 L 891.5 288.5 M 0.5 299.5 L 891.5 299.5 M 0.5 309.5 L 891.5 309.5 M 0.5 330.5 L 891.5 330.5 M 0.5 341.5 L 891.5 341.5 M 0.5 351.5 L 891.5 351.5 M 0.5 362.5 L 891.5 362.5 M 0.5 382.5 L 891.5 382.5 M 0.5 393.5 L 891.5 393.5 M 0.5 403.5 L 891.5 403.5 M 0.5 414.5 L 891.5 414.5 M 0.5 435.5 L 891.5 435.5 M 0.5 445.5 L 891.5 445.5 M 0.5 456.5 L 891.5 456.5 M 0.5 466.5 L 891.5 466.5 M 0.5 487.5 L 891.5 487.5 M 0.5 497.5 L 891.5 497.5 M 0.5 508.5 L 891.5 508.5" stroke-opacity="0.23529411764705882" stroke-linecap="round" stroke-linejoin="round" stroke-miterlimit="10"/><path fill="none" stroke="rgb(0,0,0)" paint-order="fill stroke markers" d=" M 49.5 2.5 L 49.5 515.5" stroke-opacity="1" stroke-miterlimit="10"/><path fill="none" stroke="rgb(0,0,0)" paint-order="fill stroke markers" d=" M 49.5 1.5 L 43.5 7.5" stroke-opacity="1" stroke-miterlimit="10"/><path fill="none" stroke="rgb(0,0,0)" paint-order="fill stroke markers" d=" M 49.5 1.5 L 55.5 7.5" stroke-opacity="1" stroke-miterlimit="10"/><path fill="none" stroke="rgb(0,0,0)" paint-order="fill stroke markers" d=" M 0.5 477.5 L 889.5 477.5" stroke-opacity="1" stroke-miterlimit="10"/><path fill="none" stroke="rgb(0,0,0)" paint-order="fill stroke markers" d=" M 890.5 477.5 L 884.5 471.5" stroke-opacity="1" stroke-miterlimit="10"/><path fill="none" stroke="rgb(0,0,0)" paint-order="fill stroke markers" d=" M 890.5 477.5 L 884.5 483.5" stroke-opacity="1" stroke-miterlimit="10"/><text fill="rgb(0,0,0)" stroke="none" font-family="geogebra-sans-serif, sans-serif" font-size="18px" font-style="normal" font-weight="normal" text-decoration="normal" x="137" y="499" text-anchor="start" dominant-baseline="alphabetic" fill-opacity="1">20</text><text fill="none" stroke="rgb(255,255,255)" font-family="geogebra-sans-serif, sans-serif" font-size="18px" font-style="normal" font-weight="normal" text-decoration="normal" x="137" y="499" text-anchor="start" dominant-baseline="alphabetic" stroke-opacity="1" stroke-linejoin="bevel" stroke-miterlimit="10" stroke-width="3">20</text><text fill="rgb(0,0,0)" stroke="none" font-family="geogebra-sans-serif, sans-serif" font-size="18px" font-style="normal" font-weight="normal" text-decoration="normal" x="137" y="499" text-anchor="start" dominant-baseline="alphabetic" fill-opacity="1">20</text><text fill="rgb(0,0,0)" stroke="none" font-family="geogebra-sans-serif, sans-serif" font-size="18px" font-style="normal" font-weight="normal" text-decoration="normal" x="233" y="499" text-anchor="start" dominant-baseline="alphabetic" fill-opacity="1">40</text><text fill="none" stroke="rgb(255,255,255)" font-family="geogebra-sans-serif, sans-serif" font-size="18px" font-style="normal" font-weight="normal" text-decoration="normal" x="233" y="499" text-anchor="start" dominant-baseline="alphabetic" stroke-opacity="1" stroke-linejoin="bevel" stroke-miterlimit="10" stroke-width="3">40</text><text fill="rgb(0,0,0)" stroke="none" font-family="geogebra-sans-serif, sans-serif" font-size="18px" font-style="normal" font-weight="normal" text-decoration="normal" x="233" y="499" text-anchor="start" dominant-baseline="alphabetic" fill-opacity="1">40</text><text fill="rgb(0,0,0)" stroke="none" font-family="geogebra-sans-serif, sans-serif" font-size="18px" font-style="normal" font-weight="normal" text-decoration="normal" x="329" y="499" text-anchor="start" dominant-baseline="alphabetic" fill-opacity="1">60</text><text fill="none" stroke="rgb(255,255,255)" font-family="geogebra-sans-serif, sans-serif" font-size="18px" font-style="normal" font-weight="normal" text-decoration="normal" x="329" y="499" text-anchor="start" dominant-baseline="alphabetic" stroke-opacity="1" stroke-linejoin="bevel" stroke-miterlimit="10" stroke-width="3">60</text><text fill="rgb(0,0,0)" stroke="none" font-family="geogebra-sans-serif, sans-serif" font-size="18px" font-style="normal" font-weight="normal" text-decoration="normal" x="329" y="499" text-anchor="start" dominant-baseline="alphabetic" fill-opacity="1">60</text><text fill="rgb(0,0,0)" stroke="none" font-family="geogebra-sans-serif, sans-serif" font-size="18px" font-style="normal" font-weight="normal" text-decoration="normal" x="425" y="499" text-anchor="start" dominant-baseline="alphabetic" fill-opacity="1">80</text><text fill="none" stroke="rgb(255,255,255)" font-family="geogebra-sans-serif, sans-serif" font-size="18px" font-style="normal" font-weight="normal" text-decoration="normal" x="425" y="499" text-anchor="start" dominant-baseline="alphabetic" stroke-opacity="1" stroke-linejoin="bevel" stroke-miterlimit="10" stroke-width="3">80</text><text fill="rgb(0,0,0)" stroke="none" font-family="geogebra-sans-serif, sans-serif" font-size="18px" font-style="normal" font-weight="normal" text-decoration="normal" x="425" y="499" text-anchor="start" dominant-baseline="alphabetic" fill-opacity="1">80</text><text fill="rgb(0,0,0)" stroke="none" font-family="geogebra-sans-serif, sans-serif" font-size="18px" font-style="normal" font-weight="normal" text-decoration="normal" x="517" y="499" text-anchor="start" dominant-baseline="alphabetic" fill-opacity="1">100</text><text fill="none" stroke="rgb(255,255,255)" font-family="geogebra-sans-serif, sans-serif" font-size="18px" font-style="normal" font-weight="normal" text-decoration="normal" x="517" y="499" text-anchor="start" dominant-baseline="alphabetic" stroke-opacity="1" stroke-linejoin="bevel" stroke-miterlimit="10" stroke-width="3">100</text><text fill="rgb(0,0,0)" stroke="none" font-family="geogebra-sans-serif, sans-serif" font-size="18px" font-style="normal" font-weight="normal" text-decoration="normal" x="517" y="499" text-anchor="start" dominant-baseline="alphabetic" fill-opacity="1">100</text><text fill="rgb(0,0,0)" stroke="none" font-family="geogebra-sans-serif, sans-serif" font-size="18px" font-style="normal" font-weight="normal" text-decoration="normal" x="613" y="499" text-anchor="start" dominant-baseline="alphabetic" fill-opacity="1">120</text><text fill="none" stroke="rgb(255,255,255)" font-family="geogebra-sans-serif, sans-serif" font-size="18px" font-style="normal" font-weight="normal" text-decoration="normal" x="613" y="499" text-anchor="start" dominant-baseline="alphabetic" stroke-opacity="1" stroke-linejoin="bevel" stroke-miterlimit="10" stroke-width="3">120</text><text fill="rgb(0,0,0)" stroke="none" font-family="geogebra-sans-serif, sans-serif" font-size="18px" font-style="normal" font-weight="normal" text-decoration="normal" x="613" y="499" text-anchor="start" dominant-baseline="alphabetic" fill-opacity="1">120</text><text fill="rgb(0,0,0)" stroke="none" font-family="geogebra-sans-serif, sans-serif" font-size="18px" font-style="normal" font-weight="normal" text-decoration="normal" x="709" y="499" text-anchor="start" dominant-baseline="alphabetic" fill-opacity="1">140</text><text fill="none" stroke="rgb(255,255,255)" font-family="geogebra-sans-serif, sans-serif" font-size="18px" font-style="normal" font-weight="normal" text-decoration="normal" x="709" y="499" text-anchor="start" dominant-baseline="alphabetic" stroke-opacity="1" stroke-linejoin="bevel" stroke-miterlimit="10" stroke-width="3">140</text><text fill="rgb(0,0,0)" stroke="none" font-family="geogebra-sans-serif, sans-serif" font-size="18px" font-style="normal" font-weight="normal" text-decoration="normal" x="709" y="499" text-anchor="start" dominant-baseline="alphabetic" fill-opacity="1">140</text><text fill="rgb(0,0,0)" stroke="none" font-family="geogebra-sans-serif, sans-serif" font-size="18px" font-style="normal" font-weight="normal" text-decoration="normal" x="805" y="499" text-anchor="start" dominant-baseline="alphabetic" fill-opacity="1">160</text><text fill="none" stroke="rgb(255,255,255)" font-family="geogebra-sans-serif, sans-serif" font-size="18px" font-style="normal" font-weight="normal" text-decoration="normal" x="805" y="499" text-anchor="start" dominant-baseline="alphabetic" stroke-opacity="1" stroke-linejoin="bevel" stroke-miterlimit="10" stroke-width="3">160</text><text fill="rgb(0,0,0)" stroke="none" font-family="geogebra-sans-serif, sans-serif" font-size="18px" font-style="normal" font-weight="normal" text-decoration="normal" x="805" y="499" text-anchor="start" dominant-baseline="alphabetic" fill-opacity="1">160</text><text fill="rgb(0,0,0)" stroke="none" font-family="geogebra-sans-serif, sans-serif" font-size="18px" font-style="normal" font-weight="normal" text-decoration="normal" x="30" y="432" text-anchor="start" dominant-baseline="alphabetic" fill-opacity="1">5</text><text fill="none" stroke="rgb(255,255,255)" font-family="geogebra-sans-serif, sans-serif" font-size="18px" font-style="normal" font-weight="normal" text-decoration="normal" x="30" y="432" text-anchor="start" dominant-baseline="alphabetic" stroke-opacity="1" stroke-linejoin="bevel" stroke-miterlimit="10" stroke-width="3">5</text><text fill="rgb(0,0,0)" stroke="none" font-family="geogebra-sans-serif, sans-serif" font-size="18px" font-style="normal" font-weight="normal" text-decoration="normal" x="30" y="432" text-anchor="start" dominant-baseline="alphabetic" fill-opacity="1">5</text><text fill="rgb(0,0,0)" stroke="none" font-family="geogebra-sans-serif, sans-serif" font-size="18px" font-style="normal" font-weight="normal" text-decoration="normal" x="18" y="380" text-anchor="start" dominant-baseline="alphabetic" fill-opacity="1">10</text><text fill="none" stroke="rgb(255,255,255)" font-family="geogebra-sans-serif, sans-serif" font-size="18px" font-style="normal" font-weight="normal" text-decoration="normal" x="18" y="380" text-anchor="start" dominant-baseline="alphabetic" stroke-opacity="1" stroke-linejoin="bevel" stroke-miterlimit="10" stroke-width="3">10</text><text fill="rgb(0,0,0)" stroke="none" font-family="geogebra-sans-serif, sans-serif" font-size="18px" font-style="normal" font-weight="normal" text-decoration="normal" x="18" y="380" text-anchor="start" dominant-baseline="alphabetic" fill-opacity="1">10</text><text fill="rgb(0,0,0)" stroke="none" font-family="geogebra-sans-serif, sans-serif" font-size="18px" font-style="normal" font-weight="normal" text-decoration="normal" x="18" y="328" text-anchor="start" dominant-baseline="alphabetic" fill-opacity="1">15</text><text fill="none" stroke="rgb(255,255,255)" font-family="geogebra-sans-serif, sans-serif" font-size="18px" font-style="normal" font-weight="normal" text-decoration="normal" x="18" y="328" text-anchor="start" dominant-baseline="alphabetic" stroke-opacity="1" stroke-linejoin="bevel" stroke-miterlimit="10" stroke-width="3">15</text><text fill="rgb(0,0,0)" stroke="none" font-family="geogebra-sans-serif, sans-serif" font-size="18px" font-style="normal" font-weight="normal" text-decoration="normal" x="18" y="328" text-anchor="start" dominant-baseline="alphabetic" fill-opacity="1">15</text><text fill="rgb(0,0,0)" stroke="none" font-family="geogebra-sans-serif, sans-serif" font-size="18px" font-style="normal" font-weight="normal" text-decoration="normal" x="18" y="276" text-anchor="start" dominant-baseline="alphabetic" fill-opacity="1">20</text><text fill="none" stroke="rgb(255,255,255)" font-family="geogebra-sans-serif, sans-serif" font-size="18px" font-style="normal" font-weight="normal" text-decoration="normal" x="18" y="276" text-anchor="start" dominant-baseline="alphabetic" stroke-opacity="1" stroke-linejoin="bevel" stroke-miterlimit="10" stroke-width="3">20</text><text fill="rgb(0,0,0)" stroke="none" font-family="geogebra-sans-serif, sans-serif" font-size="18px" font-style="normal" font-weight="normal" text-decoration="normal" x="18" y="276" text-anchor="start" dominant-baseline="alphabetic" fill-opacity="1">20</text><text fill="rgb(0,0,0)" stroke="none" font-family="geogebra-sans-serif, sans-serif" font-size="18px" font-style="normal" font-weight="normal" text-decoration="normal" x="18" y="223" text-anchor="start" dominant-baseline="alphabetic" fill-opacity="1">25</text><text fill="none" stroke="rgb(255,255,255)" font-family="geogebra-sans-serif, sans-serif" font-size="18px" font-style="normal" font-weight="normal" text-decoration="normal" x="18" y="223" text-anchor="start" dominant-baseline="alphabetic" stroke-opacity="1" stroke-linejoin="bevel" stroke-miterlimit="10" stroke-width="3">25</text><text fill="rgb(0,0,0)" stroke="none" font-family="geogebra-sans-serif, sans-serif" font-size="18px" font-style="normal" font-weight="normal" text-decoration="normal" x="18" y="223" text-anchor="start" dominant-baseline="alphabetic" fill-opacity="1">25</text><text fill="rgb(0,0,0)" stroke="none" font-family="geogebra-sans-serif, sans-serif" font-size="18px" font-style="normal" font-weight="normal" text-decoration="normal" x="18" y="171" text-anchor="start" dominant-baseline="alphabetic" fill-opacity="1">30</text><text fill="none" stroke="rgb(255,255,255)" font-family="geogebra-sans-serif, sans-serif" font-size="18px" font-style="normal" font-weight="normal" text-decoration="normal" x="18" y="171" text-anchor="start" dominant-baseline="alphabetic" stroke-opacity="1" stroke-linejoin="bevel" stroke-miterlimit="10" stroke-width="3">30</text><text fill="rgb(0,0,0)" stroke="none" font-family="geogebra-sans-serif, sans-serif" font-size="18px" font-style="normal" font-weight="normal" text-decoration="normal" x="18" y="171" text-anchor="start" dominant-baseline="alphabetic" fill-opacity="1">30</text><text fill="rgb(0,0,0)" stroke="none" font-family="geogebra-sans-serif, sans-serif" font-size="18px" font-style="normal" font-weight="normal" text-decoration="normal" x="18" y="119" text-anchor="start" dominant-baseline="alphabetic" fill-opacity="1">35</text><text fill="none" stroke="rgb(255,255,255)" font-family="geogebra-sans-serif, sans-serif" font-size="18px" font-style="normal" font-weight="normal" text-decoration="normal" x="18" y="119" text-anchor="start" dominant-baseline="alphabetic" stroke-opacity="1" stroke-linejoin="bevel" stroke-miterlimit="10" stroke-width="3">35</text><text fill="rgb(0,0,0)" stroke="none" font-family="geogebra-sans-serif, sans-serif" font-size="18px" font-style="normal" font-weight="normal" text-decoration="normal" x="18" y="119" text-anchor="start" dominant-baseline="alphabetic" fill-opacity="1">35</text><text fill="rgb(0,0,0)" stroke="none" font-family="geogebra-sans-serif, sans-serif" font-size="18px" font-style="normal" font-weight="normal" text-decoration="normal" x="18" y="66" text-anchor="start" dominant-baseline="alphabetic" fill-opacity="1">40</text><text fill="none" stroke="rgb(255,255,255)" font-family="geogebra-sans-serif, sans-serif" font-size="18px" font-style="normal" font-weight="normal" text-decoration="normal" x="18" y="66" text-anchor="start" dominant-baseline="alphabetic" stroke-opacity="1" stroke-linejoin="bevel" stroke-miterlimit="10" stroke-width="3">40</text><text fill="rgb(0,0,0)" stroke="none" font-family="geogebra-sans-serif, sans-serif" font-size="18px" font-style="normal" font-weight="normal" text-decoration="normal" x="18" y="66" text-anchor="start" dominant-baseline="alphabetic" fill-opacity="1">40</text><text fill="rgb(0,0,0)" stroke="none" font-family="geogebra-sans-serif, sans-serif" font-size="18px" font-style="normal" font-weight="normal" text-decoration="normal" x="30" y="499" text-anchor="start" dominant-baseline="alphabetic" fill-opacity="1">0</text><text fill="none" stroke="rgb(255,255,255)" font-family="geogebra-sans-serif, sans-serif" font-size="18px" font-style="normal" font-weight="normal" text-decoration="normal" x="30" y="499" text-anchor="start" dominant-baseline="alphabetic" stroke-opacity="1" stroke-linejoin="bevel" stroke-miterlimit="10" stroke-width="3">0</text><text fill="rgb(0,0,0)" stroke="none" font-family="geogebra-sans-serif, sans-serif" font-size="18px" font-style="normal" font-weight="normal" text-decoration="normal" x="30" y="499" text-anchor="start" dominant-baseline="alphabetic" fill-opacity="1">0</text><path fill="none" stroke="rgb(204,0,0)" paint-order="fill stroke markers" d=" M 49.499999952 288.90000011495 L 52.20703125 282.50777246565576 M 52.20703125 282.50777246565576 L 55.6875 274.5496563221791 M 55.6875 274.5496563221791 L 59.16796875 266.87489324447904 L 62.6484375 259.47339429210336 L 66.12890625 252.335429746827 L 69.609375 245.4516163223492 L 73.08984375 238.81290482939556 L 76.5703125 232.4105682800117 L 80.05078125 226.23619041540886 L 83.53125 220.28165464228312 L 87.01171875 214.5391333630618 L 90.4921875 209.0010776860533 L 93.97265625 203.66020750197185 L 97.453125 198.5095019137936 L 100.93359375 193.54219000736248 L 104.4140625 188.75174195061396 L 107.89453125 184.13186040971556 L 111.375 179.67647227084063 M 111.375 179.67647227084063 L 114.85546875 175.37972065669283 L 118.3359375 171.23595722728618 L 121.81640625 167.23973475486065 L 125.296875 163.38579996317168 L 128.77734375 159.66908662174063 L 132.2578125 156.08470888598816 L 135.73828125 152.62795487449608 L 139.21875 149.294280474954 L 142.69921875 146.07930337064874 L 146.1796875 142.97879727964403 L 149.66015625 139.98868639907687 L 153.140625 137.10504004726823 L 156.62109375 134.32406749660413 L 160.1015625 131.64211299039493 L 163.58203125 129.05565093716166 L 167.0625 126.56128127603296 L 170.54296875 124.15572500715916 L 174.0234375 121.83581988126889 L 177.50390625 119.59851624270055 L 180.984375 117.44087302044585 L 184.46484375 115.3600538619338 L 187.9453125 113.35332340447383 L 191.42578125 111.41804367945565 L 194.90625 109.55167064458038 L 198.38671875 107.75175083956253 L 201.8671875 106.01591816090843 L 205.34765625 104.34189075152966 L 208.828125 102.72746800110406 L 212.30859375 101.17052765324024 L 215.7890625 99.66902301564312 L 219.26953125 98.22098026961311 L 222.75 96.82449587534205 M 222.75 96.82449587534205 L 226.23046875 95.47773406959459 L 229.7109375 94.17892445248697 L 233.19140625 92.92635966018878 L 236.671875 91.71839312048985 L 240.15234375 90.55343688828191 L 243.6328125 89.42995955810812 L 247.11328125 88.3464842510383 L 250.59375 87.301586673222 L 254.07421875 86.29389324356833 L 257.5546875 85.3220792880901 L 261.03515625 84.38486729854014 L 264.515625 83.48102525304898 L 267.99609375 82.60936499655799 L 271.4765625 81.76874067891725 L 274.95703125 80.95804724859653 L 278.4375 80.17621900002791 L 281.91796875 79.42222817267174 L 285.3984375 78.69508359996263 L 288.87890625 77.99382940636156 L 292.359375 77.31754375079925 L 295.83984375 76.66533761486062 L 299.3203125 76.0363536341161 L 302.80078125 75.42976497106429 L 306.28125 74.84477422820385 L 309.76171875 74.28061239980661 L 313.2421875 73.73653786101266 L 316.72265625 73.21183539291974 L 320.203125 72.70581524238474 L 323.68359375 72.2178122153012 L 327.1640625 71.74718480216194 L 330.64453125 71.29331433475551 L 334.125 70.8556041728894 L 337.60546875 70.43347892007102 L 341.0859375 70.02638366711335 L 344.56640625 69.63378326267366 L 348.046875 69.25516160976485 L 351.52734375 68.89002098731441 L 355.0078125 68.53788139587999 L 358.48828125 68.19827992666137 L 361.96875 67.87077015297848 L 365.44921875 67.55492154341692 L 368.9296875 67.25031889586779 L 372.41015625 66.95656179171999 L 375.890625 66.67326406948536 L 379.37109375 66.40005331716611 L 382.8515625 66.13657038269696 L 386.33203125 65.88246890181739 L 389.8125 65.63741484275579 L 393.29296875 65.40108606712363 L 396.7734375 65.17317190644548 L 400.25390625 64.9533727537663 L 403.734375 64.7413996698005 L 407.21484375 64.5369740031029 L 410.6953125 64.33982702376511 L 414.17578125 64.14969957015398 L 417.65625 63.96634170822733 L 421.13671875 63.78951240298096 L 424.6171875 63.618979201593504 L 428.09765625 63.45451792785309 L 431.578125 63.29591238746406 L 435.05859375 63.14295408384669 L 438.5390625 62.99544194405564 L 442.01953125 62.85318205445742 L 445.5 62.71598740581925 M 445.5 62.71598740581925 L 448.98046875 62.58367764747402 L 452.4609375 62.45607885023861 L 455.94140625 62.33302327777329 L 459.421875 62.214349166082116 L 462.90234375 62.09990051086453 L 466.3828125 61.9895268624382 L 469.86328125 61.88308312796363 L 473.34375 61.78042938071127 L 476.82421875 61.68143067611885 L 480.3046875 61.58595687439902 L 483.78515625 61.493882469462335 L 487.265625 61.4050864239324 L 490.74609375 61.3194520100343 L 494.2265625 61.236866656149516 L 497.70703125 61.15722179883329 L 501.1875 61.08041274010134 L 504.66796875 61.00633850979847 L 508.1484375 60.93490173286688 L 511.62890625 60.86600850134073 L 515.109375 60.79956825089863 L 518.58984375 60.73549364181105 L 522.0703125 60.673700444127405 L 525.55078125 60.6141074269504 L 529.03125 60.55663625165289 L 532.51171875 60.50121136889766 L 535.9921875 60.44775991932249 L 539.47265625 60.3962116377628 L 542.953125 60.34649876088332 L 546.43359375 60.298555938099355 L 549.9140625 60.252320145669444 L 553.39453125 60.2077306038467 L 556.875 60.164728696980546 L 560.35546875 60.123257896462235 L 563.8359375 60.08326368641525 L 567.31640625 60.04469349203049 L 570.796875 60.00749661045364 L 574.27734375 59.9716241441331 L 577.7578125 59.93702893654131 L 581.23828125 59.90366551018468 L 584.71875 59.87149000682041 L 588.19921875 59.84046012980258 L 591.6796875 59.810535088480094 L 595.16015625 59.78167554457548 L 598.640625 59.753843560472035 L 602.12109375 59.72700254934273 L 605.6015625 59.70111722705411 L 609.08203125 59.67615356578398 L 612.5625 59.652078749288876 L 616.04296875 59.62886112976588 L 619.5234375 59.60647018624934 L 623.00390625 59.58487648448903 L 626.484375 59.56405163825747 L 629.96484375 59.54396827203425 L 633.4453125 59.524599985019165 L 636.92578125 59.505921316426964 L 640.40625 59.48790771201777 L 643.88671875 59.47053549181845 L 647.3671875 59.453781818994344 L 650.84765625 59.437624669829006 L 654.328125 59.42204280477199 L 657.80859375 59.40701574051894 L 661.2890625 59.39252372308465 L 664.76953125 59.37854770183526 L 668.25 59.36506930444523 L 671.73046875 59.35207081274564 L 675.2109375 59.3395351394326 L 678.69140625 59.32744580560501 L 682.171875 59.31578691910204 L 685.65234375 59.30454315361203 L 689.1328125 59.293699728524814 L 692.61328125 59.28324238950199 L 696.09375 59.273157389738685 L 699.57421875 59.26343147189243 L 703.0546875 59.254051850655856 L 706.53515625 59.245006195949145 L 710.015625 59.23628261671195 L 713.49609375 59.227869645271426 L 716.9765625 59.21975622226768 L 720.45703125 59.211931682115164 L 723.9375 59.20438573898241 L 727.41796875 59.19710847327059 L 730.8984375 59.190090318573596 L 734.37890625 59.18332204910229 L 737.859375 59.17679476755717 L 741.33984375 59.1704998934315 L 744.8203125 59.16442915173235 L 748.30078125 59.15857456210256 L 751.78125 59.152928428329744 L 755.26171875 59.14748332822933 L 758.7421875 59.142232103887864 L 762.22265625 59.13716785225324 L 765.703125 59.132283916060146 L 769.18359375 59.12757387507895 L 772.6640625 59.12303153767584 L 776.14453125 59.11865093267346 L 779.625 59.11442630150145 L 783.10546875 59.11035209062646 L 786.5859375 59.10642294425185 L 790.06640625 59.10263369727693 L 793.546875 59.09897936850729 L 797.02734375 59.09545515410656 L 800.5078125 59.092056421281825 L 803.98828125 59.08877870219294 L 807.46875 59.08561768808005 L 810.94921875 59.08256922359857 L 814.4296875 59.079629301357784 L 817.91015625 59.07679405665175 L 821.390625 59.07405976237993 L 824.87109375 59.071422824146964 L 828.3515625 59.068879775537994 L 831.83203125 59.06642727356177 L 835.3125 59.064062094256144 L 838.79296875 59.06178112844958 L 842.2734375 59.059581377674704 L 845.75390625 59.05745995022596 L 849.234375 59.05541405735852 L 852.71484375 59.053441009622475 L 856.1953125 59.05153821332726 L 859.67578125 59.04970316713195 L 863.15625 59.04793345875731 L 866.63671875 59.04622676181452 L 870.1171875 59.04458083274733 L 873.59765625 59.04299350788216 L 877.078125 59.041462700584646 L 880.55859375 59.03998639851591 L 884.0390625 59.03856266098751 L 887.51953125 59.03718961641033 L 891 59.035865459834156" stroke-opacity="0.6980392156862745" stroke-linecap="round" stroke-linejoin="round" stroke-miterlimit="10" stroke-width="3.5"/><path fill="none" stroke="rgb(0,0,0)" paint-order="fill stroke markers" d=" M -5 419.41614583333336 L 172.22466289691167 -5" stroke-opacity="0.6980392156862745" stroke-linecap="round" stroke-linejoin="round" stroke-miterlimit="10" stroke-width="2.5"/><text fill="rgb(0,0,0)" stroke="none" font-family="geogebra-sans-serif, sans-serif" font-size="24px" font-style="normal" font-weight="normal" text-decoration="normal" x="174" y="32" text-anchor="start" dominant-baseline="alphabetic" fill-opacity="1">f</text><text fill="none" stroke="rgb(255,255,255)" font-family="geogebra-sans-serif, sans-serif" font-size="24px" font-style="normal" font-weight="normal" text-decoration="normal" x="174" y="32" text-anchor="start" dominant-baseline="alphabetic" stroke-opacity="1" stroke-linejoin="bevel" stroke-miterlimit="10" stroke-width="3">f</text><text fill="rgb(0,0,0)" stroke="none" font-family="geogebra-sans-serif, sans-serif" font-size="24px" font-style="normal" font-weight="normal" text-decoration="normal" x="174" y="32" text-anchor="start" dominant-baseline="alphabetic" fill-opacity="1">f</text><path fill="none" stroke="rgb(0,0,0)" paint-order="fill stroke markers" d=" M -5 58.999999999999886 L 897 58.999999999999886" stroke-opacity="0.6980392156862745" stroke-linecap="round" stroke-linejoin="round" stroke-miterlimit="10" stroke-width="2.5"/><text fill="rgb(0,0,0)" stroke="none" font-family="geogebra-sans-serif, sans-serif" font-size="24px" font-style="normal" font-weight="normal" text-decoration="normal" x="8" y="74" text-anchor="start" dominant-baseline="alphabetic" fill-opacity="1">g</text><text fill="none" stroke="rgb(255,255,255)" font-family="geogebra-sans-serif, sans-serif" font-size="24px" font-style="normal" font-weight="normal" text-decoration="normal" x="8" y="74" text-anchor="start" dominant-baseline="alphabetic" stroke-opacity="1" stroke-linejoin="bevel" stroke-miterlimit="10" stroke-width="3">g</text><text fill="rgb(0,0,0)" stroke="none" font-family="geogebra-sans-serif, sans-serif" font-size="24px" font-style="normal" font-weight="normal" text-decoration="normal" x="8" y="74" text-anchor="start" dominant-baseline="alphabetic" fill-opacity="1">g</text><path fill="rgb(125,125,255)" stroke="none" paint-order="stroke fill markers" d=" M 150.5 58.999999999999886 C 150.5 61.76142374915385 148.26142374915398 63.999999999999886 145.5 63.999999999999886 C 142.73857625084602 63.999999999999886 140.5 61.76142374915385 140.5 58.999999999999886 C 140.5 56.23857625084592 142.73857625084602 53.999999999999886 145.5 53.999999999999886 C 148.26142374915398 53.999999999999886 150.5 56.23857625084592 150.5 58.999999999999886 Z" fill-opacity="1"/><path fill="none" stroke="rgb(0,0,0)" paint-order="fill stroke markers" d=" M 150.5 58.999999999999886 C 150.5 61.76142374915385 148.26142374915398 63.999999999999886 145.5 63.999999999999886 C 142.73857625084602 63.999999999999886 140.5 61.76142374915385 140.5 58.999999999999886 C 140.5 56.23857625084592 142.73857625084602 53.999999999999886 145.5 53.999999999999886 C 148.26142374915398 53.999999999999886 150.5 56.23857625084592 150.5 58.999999999999886 Z" stroke-opacity="1" stroke-linecap="round" stroke-linejoin="round" stroke-miterlimit="10"/><text fill="rgb(125,125,255)" stroke="none" font-family="geogebra-sans-serif, sans-serif" font-size="24px" font-style="normal" font-weight="normal" text-decoration="normal" x="147" y="87" text-anchor="start" dominant-baseline="alphabetic" fill-opacity="1">t=20</text><text fill="none" stroke="rgb(255,255,255)" font-family="geogebra-sans-serif, sans-serif" font-size="24px" font-style="normal" font-weight="normal" text-decoration="normal" x="147" y="87" text-anchor="start" dominant-baseline="alphabetic" stroke-opacity="1" stroke-linejoin="bevel" stroke-miterlimit="10" stroke-width="3">t=20</text><text fill="rgb(125,125,255)" stroke="none" font-family="geogebra-sans-serif, sans-serif" font-size="24px" font-style="normal" font-weight="normal" text-decoration="normal" x="147" y="87" text-anchor="start" dominant-baseline="alphabetic" fill-opacity="1">t=20</text></g></g></svg>