<svg version="1.1" xmlns="http://www.w3.org/2000/svg" xmlns:xlink="http://www.w3.org/1999/xlink" width="892" height="515"><defs><clipPath id="vwQgiURqnUDl"><path fill="none" stroke="none" d=" M 0 0 L 892 0 L 892 515 L 0 515 L 0 0 Z"/></clipPath></defs><g transform="scale(1,1)" clip-path="url(#vwQgiURqnUDl)"><g><rect fill="rgb(255,255,255)" stroke="none" x="0" y="0" width="893" height="515" fill-opacity="1"/><path fill="none" stroke="rgb(192,192,192)" paint-order="fill stroke markers" d=" M 110.5 0.5 L 110.5 515.5 M 180.5 0.5 L 180.5 515.5 M 249.5 0.5 L 249.5 515.5 M 319.5 0.5 L 319.5 515.5 M 389.5 0.5 L 389.5 515.5 M 458.5 0.5 L 458.5 515.5 M 528.5 0.5 L 528.5 515.5 M 598.5 0.5 L 598.5 515.5 M 667.5 0.5 L 667.5 515.5 M 737.5 0.5 L 737.5 515.5 M 807.5 0.5 L 807.5 515.5 M 876.5 0.5 L 876.5 515.5" stroke-opacity="1" stroke-linecap="round" stroke-linejoin="round" stroke-miterlimit="10"/><path fill="none" stroke="rgb(192,192,192)" paint-order="fill stroke markers" d=" M 13.5 0.5 L 13.5 515.5 M 27.5 0.5 L 27.5 515.5 M 54.5 0.5 L 54.5 515.5 M 68.5 0.5 L 68.5 515.5 M 82.5 0.5 L 82.5 515.5 M 96.5 0.5 L 96.5 515.5 M 124.5 0.5 L 124.5 515.5 M 138.5 0.5 L 138.5 515.5 M 152.5 0.5 L 152.5 515.5 M 166.5 0.5 L 166.5 515.5 M 194.5 0.5 L 194.5 515.5 M 208.5 0.5 L 208.5 515.5 M 222.5 0.5 L 222.5 515.5 M 236.5 0.5 L 236.5 515.5 M 263.5 0.5 L 263.5 515.5 M 277.5 0.5 L 277.5 515.5 M 291.5 0.5 L 291.5 515.5 M 305.5 0.5 L 305.5 515.5 M 333.5 0.5 L 333.5 515.5 M 347.5 0.5 L 347.5 515.5 M 361.5 0.5 L 361.5 515.5 M 375.5 0.5 L 375.5 515.5 M 403.5 0.5 L 403.5 515.5 M 417.5 0.5 L 417.5 515.5 M 431.5 0.5 L 431.5 515.5 M 444.5 0.5 L 444.5 515.5 M 472.5 0.5 L 472.5 515.5 M 486.5 0.5 L 486.5 515.5 M 500.5 0.5 L 500.5 515.5 M 514.5 0.5 L 514.5 515.5 M 542.5 0.5 L 542.5 515.5 M 556.5 0.5 L 556.5 515.5 M 570.5 0.5 L 570.5 515.5 M 584.5 0.5 L 584.5 515.5 M 612.5 0.5 L 612.5 515.5 M 626.5 0.5 L 626.5 515.5 M 640.5 0.5 L 640.5 515.5 M 653.5 0.5 L 653.5 515.5 M 681.5 0.5 L 681.5 515.5 M 695.5 0.5 L 695.5 515.5 M 709.5 0.5 L 709.5 515.5 M 723.5 0.5 L 723.5 515.5 M 751.5 0.5 L 751.5 515.5 M 765.5 0.5 L 765.5 515.5 M 779.5 0.5 L 779.5 515.5 M 793.5 0.5 L 793.5 515.5 M 821.5 0.5 L 821.5 515.5 M 835.5 0.5 L 835.5 515.5 M 848.5 0.5 L 848.5 515.5 M 862.5 0.5 L 862.5 515.5 M 890.5 0.5 L 890.5 515.5" stroke-opacity="0.23529411764705882" stroke-linecap="round" stroke-linejoin="round" stroke-miterlimit="10"/><path fill="none" stroke="rgb(192,192,192)" paint-order="fill stroke markers" d=" M 0.5 1.5 L 892.5 1.5 M 0.5 1.5 L 892.5 1.5 M 0.5 71.5 L 892.5 71.5 M 0.5 142.5 L 892.5 142.5 M 0.5 213.5 L 892.5 213.5 M 0.5 283.5 L 892.5 283.5 M 0.5 425.5 L 892.5 425.5 M 0.5 495.5 L 892.5 495.5" stroke-opacity="1" stroke-linecap="round" stroke-linejoin="round" stroke-miterlimit="10"/><path fill="none" stroke="rgb(192,192,192)" paint-order="fill stroke markers" d=" M 0.5 1.5 L 892.5 1.5 M 0.5 15.5 L 892.5 15.5 M 0.5 29.5 L 892.5 29.5 M 0.5 43.5 L 892.5 43.5 M 0.5 57.5 L 892.5 57.5 M 0.5 86.5 L 892.5 86.5 M 0.5 100.5 L 892.5 100.5 M 0.5 114.5 L 892.5 114.5 M 0.5 128.5 L 892.5 128.5 M 0.5 156.5 L 892.5 156.5 M 0.5 170.5 L 892.5 170.5 M 0.5 184.5 L 892.5 184.5 M 0.5 199.5 L 892.5 199.5 M 0.5 227.5 L 892.5 227.5 M 0.5 241.5 L 892.5 241.5 M 0.5 255.5 L 892.5 255.5 M 0.5 269.5 L 892.5 269.5 M 0.5 297.5 L 892.5 297.5 M 0.5 312.5 L 892.5 312.5 M 0.5 326.5 L 892.5 326.5 M 0.5 340.5 L 892.5 340.5 M 0.5 368.5 L 892.5 368.5 M 0.5 382.5 L 892.5 382.5 M 0.5 396.5 L 892.5 396.5 M 0.5 410.5 L 892.5 410.5 M 0.5 439.5 L 892.5 439.5 M 0.5 453.5 L 892.5 453.5 M 0.5 467.5 L 892.5 467.5 M 0.5 481.5 L 892.5 481.5 M 0.5 509.5 L 892.5 509.5" stroke-opacity="0.23529411764705882" stroke-linecap="round" stroke-linejoin="round" stroke-miterlimit="10"/><path fill="none" stroke="rgb(37,37,37)" paint-order="fill stroke markers" d=" M 41.5 2.5 L 41.5 515.5" stroke-opacity="1" stroke-miterlimit="10"/><path fill="none" stroke="rgb(37,37,37)" paint-order="fill stroke markers" d=" M 41.5 1.5 L 37.5 5.5" stroke-opacity="1" stroke-miterlimit="10"/><path fill="none" stroke="rgb(37,37,37)" paint-order="fill stroke markers" d=" M 41.5 1.5 L 45.5 5.5" stroke-opacity="1" stroke-miterlimit="10"/><path fill="none" stroke="rgb(37,37,37)" paint-order="fill stroke markers" d=" M 0.5 354.5 L 890.5 354.5" stroke-opacity="1" stroke-miterlimit="10"/><path fill="none" stroke="rgb(37,37,37)" paint-order="fill stroke markers" d=" M 891.5 354.5 L 887.5 350.5" stroke-opacity="1" stroke-miterlimit="10"/><path fill="none" stroke="rgb(37,37,37)" paint-order="fill stroke markers" d=" M 891.5 354.5 L 887.5 358.5" stroke-opacity="1" stroke-miterlimit="10"/><text fill="rgb(37,37,37)" stroke="none" font-family="geogebra-sans-serif, sans-serif" font-size="12px" font-style="normal" font-weight="normal" text-decoration="normal" x="102" y="370" text-anchor="start" dominant-baseline="alphabetic" fill-opacity="1">0.5</text><text fill="rgb(37,37,37)" stroke="none" font-family="geogebra-sans-serif, sans-serif" font-size="12px" font-style="normal" font-weight="normal" text-decoration="normal" x="102" y="370" text-anchor="start" dominant-baseline="alphabetic" fill-opacity="1">0.5</text><text fill="rgb(37,37,37)" stroke="none" font-family="geogebra-sans-serif, sans-serif" font-size="12px" font-style="normal" font-weight="normal" text-decoration="normal" x="178" y="370" text-anchor="start" dominant-baseline="alphabetic" fill-opacity="1">1</text><text fill="rgb(37,37,37)" stroke="none" font-family="geogebra-sans-serif, sans-serif" font-size="12px" font-style="normal" font-weight="normal" text-decoration="normal" x="178" y="370" text-anchor="start" dominant-baseline="alphabetic" fill-opacity="1">1</text><text fill="rgb(37,37,37)" stroke="none" font-family="geogebra-sans-serif, sans-serif" font-size="12px" font-style="normal" font-weight="normal" text-decoration="normal" x="241" y="370" text-anchor="start" dominant-baseline="alphabetic" fill-opacity="1">1.5</text><text fill="rgb(37,37,37)" stroke="none" font-family="geogebra-sans-serif, sans-serif" font-size="12px" font-style="normal" font-weight="normal" text-decoration="normal" x="241" y="370" text-anchor="start" dominant-baseline="alphabetic" fill-opacity="1">1.5</text><text fill="rgb(37,37,37)" stroke="none" font-family="geogebra-sans-serif, sans-serif" font-size="12px" font-style="normal" font-weight="normal" text-decoration="normal" x="317" y="370" text-anchor="start" dominant-baseline="alphabetic" fill-opacity="1">2</text><text fill="rgb(37,37,37)" stroke="none" font-family="geogebra-sans-serif, sans-serif" font-size="12px" font-style="normal" font-weight="normal" text-decoration="normal" x="317" y="370" text-anchor="start" dominant-baseline="alphabetic" fill-opacity="1">2</text><text fill="rgb(37,37,37)" stroke="none" font-family="geogebra-sans-serif, sans-serif" font-size="12px" font-style="normal" font-weight="normal" text-decoration="normal" x="381" y="370" text-anchor="start" dominant-baseline="alphabetic" fill-opacity="1">2.5</text><text fill="rgb(37,37,37)" stroke="none" font-family="geogebra-sans-serif, sans-serif" font-size="12px" font-style="normal" font-weight="normal" text-decoration="normal" x="381" y="370" text-anchor="start" dominant-baseline="alphabetic" fill-opacity="1">2.5</text><text fill="rgb(37,37,37)" stroke="none" font-family="geogebra-sans-serif, sans-serif" font-size="12px" font-style="normal" font-weight="normal" text-decoration="normal" x="456" y="370" text-anchor="start" dominant-baseline="alphabetic" fill-opacity="1">3</text><text fill="rgb(37,37,37)" stroke="none" font-family="geogebra-sans-serif, sans-serif" font-size="12px" font-style="normal" font-weight="normal" text-decoration="normal" x="456" y="370" text-anchor="start" dominant-baseline="alphabetic" fill-opacity="1">3</text><text fill="rgb(37,37,37)" stroke="none" font-family="geogebra-sans-serif, sans-serif" font-size="12px" font-style="normal" font-weight="normal" text-decoration="normal" x="520" y="370" text-anchor="start" dominant-baseline="alphabetic" fill-opacity="1">3.5</text><text fill="rgb(37,37,37)" stroke="none" font-family="geogebra-sans-serif, sans-serif" font-size="12px" font-style="normal" font-weight="normal" text-decoration="normal" x="520" y="370" text-anchor="start" dominant-baseline="alphabetic" fill-opacity="1">3.5</text><text fill="rgb(37,37,37)" stroke="none" font-family="geogebra-sans-serif, sans-serif" font-size="12px" font-style="normal" font-weight="normal" text-decoration="normal" x="596" y="370" text-anchor="start" dominant-baseline="alphabetic" fill-opacity="1">4</text><text fill="rgb(37,37,37)" stroke="none" font-family="geogebra-sans-serif, sans-serif" font-size="12px" font-style="normal" font-weight="normal" text-decoration="normal" x="596" y="370" text-anchor="start" dominant-baseline="alphabetic" fill-opacity="1">4</text><text fill="rgb(37,37,37)" stroke="none" font-family="geogebra-sans-serif, sans-serif" font-size="12px" font-style="normal" font-weight="normal" text-decoration="normal" x="659" y="370" text-anchor="start" dominant-baseline="alphabetic" fill-opacity="1">4.5</text><text fill="rgb(37,37,37)" stroke="none" font-family="geogebra-sans-serif, sans-serif" font-size="12px" font-style="normal" font-weight="normal" text-decoration="normal" x="659" y="370" text-anchor="start" dominant-baseline="alphabetic" fill-opacity="1">4.5</text><text fill="rgb(37,37,37)" stroke="none" font-family="geogebra-sans-serif, sans-serif" font-size="12px" font-style="normal" font-weight="normal" text-decoration="normal" x="735" y="370" text-anchor="start" dominant-baseline="alphabetic" fill-opacity="1">5</text><text fill="rgb(37,37,37)" stroke="none" font-family="geogebra-sans-serif, sans-serif" font-size="12px" font-style="normal" font-weight="normal" text-decoration="normal" x="735" y="370" text-anchor="start" dominant-baseline="alphabetic" fill-opacity="1">5</text><text fill="rgb(37,37,37)" stroke="none" font-family="geogebra-sans-serif, sans-serif" font-size="12px" font-style="normal" font-weight="normal" text-decoration="normal" x="799" y="370" text-anchor="start" dominant-baseline="alphabetic" fill-opacity="1">5.5</text><text fill="rgb(37,37,37)" stroke="none" font-family="geogebra-sans-serif, sans-serif" font-size="12px" font-style="normal" font-weight="normal" text-decoration="normal" x="799" y="370" text-anchor="start" dominant-baseline="alphabetic" fill-opacity="1">5.5</text><text fill="rgb(37,37,37)" stroke="none" font-family="geogebra-sans-serif, sans-serif" font-size="12px" font-style="normal" font-weight="normal" text-decoration="normal" x="874" y="370" text-anchor="start" dominant-baseline="alphabetic" fill-opacity="1">6</text><text fill="rgb(37,37,37)" stroke="none" font-family="geogebra-sans-serif, sans-serif" font-size="12px" font-style="normal" font-weight="normal" text-decoration="normal" x="874" y="370" text-anchor="start" dominant-baseline="alphabetic" fill-opacity="1">6</text><text fill="rgb(37,37,37)" stroke="none" font-family="geogebra-sans-serif, sans-serif" font-size="12px" font-style="normal" font-weight="normal" text-decoration="normal" x="9" y="500" text-anchor="start" dominant-baseline="alphabetic" fill-opacity="1">–0.2</text><text fill="rgb(37,37,37)" stroke="none" font-family="geogebra-sans-serif, sans-serif" font-size="12px" font-style="normal" font-weight="normal" text-decoration="normal" x="9" y="500" text-anchor="start" dominant-baseline="alphabetic" fill-opacity="1">–0.2</text><text fill="rgb(37,37,37)" stroke="none" font-family="geogebra-sans-serif, sans-serif" font-size="12px" font-style="normal" font-weight="normal" text-decoration="normal" x="9" y="430" text-anchor="start" dominant-baseline="alphabetic" fill-opacity="1">–0.1</text><text fill="rgb(37,37,37)" stroke="none" font-family="geogebra-sans-serif, sans-serif" font-size="12px" font-style="normal" font-weight="normal" text-decoration="normal" x="9" y="430" text-anchor="start" dominant-baseline="alphabetic" fill-opacity="1">–0.1</text><text fill="rgb(37,37,37)" stroke="none" font-family="geogebra-sans-serif, sans-serif" font-size="12px" font-style="normal" font-weight="normal" text-decoration="normal" x="15" y="288" text-anchor="start" dominant-baseline="alphabetic" fill-opacity="1">0.1</text><text fill="rgb(37,37,37)" stroke="none" font-family="geogebra-sans-serif, sans-serif" font-size="12px" font-style="normal" font-weight="normal" text-decoration="normal" x="15" y="288" text-anchor="start" dominant-baseline="alphabetic" fill-opacity="1">0.1</text><text fill="rgb(37,37,37)" stroke="none" font-family="geogebra-sans-serif, sans-serif" font-size="12px" font-style="normal" font-weight="normal" text-decoration="normal" x="15" y="218" text-anchor="start" dominant-baseline="alphabetic" fill-opacity="1">0.2</text><text fill="rgb(37,37,37)" stroke="none" font-family="geogebra-sans-serif, sans-serif" font-size="12px" font-style="normal" font-weight="normal" text-decoration="normal" x="15" y="218" text-anchor="start" dominant-baseline="alphabetic" fill-opacity="1">0.2</text><text fill="rgb(37,37,37)" stroke="none" font-family="geogebra-sans-serif, sans-serif" font-size="12px" font-style="normal" font-weight="normal" text-decoration="normal" x="15" y="147" text-anchor="start" dominant-baseline="alphabetic" fill-opacity="1">0.3</text><text fill="rgb(37,37,37)" stroke="none" font-family="geogebra-sans-serif, sans-serif" font-size="12px" font-style="normal" font-weight="normal" text-decoration="normal" x="15" y="147" text-anchor="start" dominant-baseline="alphabetic" fill-opacity="1">0.3</text><text fill="rgb(37,37,37)" stroke="none" font-family="geogebra-sans-serif, sans-serif" font-size="12px" font-style="normal" font-weight="normal" text-decoration="normal" x="15" y="76" text-anchor="start" dominant-baseline="alphabetic" fill-opacity="1">0.4</text><text fill="rgb(37,37,37)" stroke="none" font-family="geogebra-sans-serif, sans-serif" font-size="12px" font-style="normal" font-weight="normal" text-decoration="normal" x="15" y="76" text-anchor="start" dominant-baseline="alphabetic" fill-opacity="1">0.4</text><text fill="rgb(37,37,37)" stroke="none" font-family="geogebra-sans-serif, sans-serif" font-size="12px" font-style="normal" font-weight="normal" text-decoration="normal" x="26" y="370" text-anchor="start" dominant-baseline="alphabetic" fill-opacity="1">0</text><text fill="rgb(37,37,37)" stroke="none" font-family="geogebra-sans-serif, sans-serif" font-size="12px" font-style="normal" font-weight="normal" text-decoration="normal" x="26" y="370" text-anchor="start" dominant-baseline="alphabetic" fill-opacity="1">0</text><path fill="none" stroke="rgb(0,0,255)" paint-order="fill stroke markers" d=" M 13.9375 521.116249166359 L 14.80859375 514.7479985919598 L 15.6796875 508.4526667492179 L 16.55078125 502.2295920091253 L 17.421875 496.0781181578303 L 18.29296875 489.99759435483446 L 19.1640625 483.9873750915021 L 20.03515625 478.0468201498767 L 20.906249999999996 472.17529456180466 L 21.777343749999996 466.37216856836255 L 22.6484375 460.6368175795863 L 23.51953125 454.96862213450015 L 24.390625 449.36696786144273 L 25.26171875 443.8312454386891 L 26.1328125 438.3608505553652 L 27.00390625 432.95518387265383 L 27.875 427.61365098528967 L 28.74609375 422.3356623833406 L 29.6171875 417.1206334142745 L 30.48828125 411.96798424530783 L 31.359375 406.8771398260361 L 33.1015625 396.87858872457946 L 34.84375 387.12047395165945 L 36.5859375 377.59836352181753 L 38.328125 368.3078984747379 L 40.07031250000001 359.2447917446733 L 41.8125 350.4048270466935 L 43.5546875 341.78385777951246 L 45.296875 333.3778059446545 L 47.0390625 325.18266108172287 L 48.78125 317.19447921953736 L 50.5234375 309.4093818429103 L 52.265625 301.8235548748356 L 54.0078125 294.433247673866 L 55.75 287.2347720464587 L 57.4921875 280.2245012740729 L 59.234375 273.39886915480355 L 60.9765625 266.75436905934174 L 62.71875 260.287553001053 L 64.4609375 253.99503071996844 L 66.203125 247.87346878048618 L 67.9453125 241.91958968258518 L 69.6875 236.13017098635282 L 71.4296875 230.5020444496344 L 73.171875 225.032095178613 L 74.9140625 219.71726079113085 L 76.65625 214.55453059256809 L 80.140625 204.67359356311505 L 83.625 195.36620174104402 L 87.109375 186.6100490784637 L 90.59375 178.38358156109183 L 94.078125 170.66597366577386 L 97.5625 163.43710552221032 L 101.046875 156.6775407584671 L 104.53125 150.36850501042198 L 108.015625 144.49186507586617 L 111.5 139.03010869452464 L 114.984375 133.96632493579222 L 118.46875 129.28418517650098 L 121.95312500000001 124.96792465153521 L 125.43750000000001 121.0023245606003 L 128.921875 117.37269471492817 L 132.40625 114.06485670816028 L 135.890625 111.06512759610291 L 139.375 108.36030407048193 L 142.859375 105.93764711225023 L 146.34375 103.78486711041359 L 149.828125 101.89010943273996 L 153.3125 100.24194043510875 L 156.796875 98.8293338966333 L 160.28125 97.6416578680591 L 163.76562500000003 96.66866192129731 L 167.25 95.90046478830095 L 170.734375 95.32754237782859 L 174.21875 94.94071615896956 L 177.703125 94.73114190062284 L 181.1875 94.6902987564327 L 184.671875 94.80997868498457 L 188.15625 95.08227619535944 L 191.640625 95.49957840842666 L 195.125 96.05455542453603 L 198.609375 96.74015098853351 L 202.09375 97.54957344329154 L 205.578125 98.47628696319526 L 209.0625 99.51400305927302 L 212.546875 100.65667234790234 L 216.03125 101.89847657525064 L 219.515625 103.23382088984033 L 223 104.65732635584718 L 226.484375 106.16382269995228 L 229.96875 107.74834128477903 L 233.453125 109.40610830214578 L 236.93750000000003 111.1325381795622 L 240.42187500000003 112.92322719358827 L 243.90625000000003 114.77394728385812 L 247.39062500000003 116.68064006175308 L 250.87500000000003 118.63941100788239 L 254.35937500000003 120.64652385269815 L 257.84375 122.69839513473946 L 261.328125 124.79158893115729 L 264.8125 126.92281175533086 L 268.296875 129.08890761653439 L 271.78125 131.28685323676328 L 275.265625 133.51375341996814 L 278.75 135.76683656908773 L 282.234375 138.04345034640326 L 285.71875 140.34105747286904 L 289.203125 142.6572316622022 L 292.6875 144.98965368563643 L 296.171875 147.33610756336532 L 299.65625 149.69447687881805 L 303.140625 152.06274121202296 L 306.625 154.43897268842392 L 310.109375 156.82133263962288 L 313.59375 159.20806837262407 L 317.078125 161.59751004425786 L 320.5625 163.98806763755846 L 324.046875 166.37822803696656 L 327.53125 168.76655219931905 L 331.015625 171.15167241767836 L 334.5 173.53228967514102 L 337.984375 175.90717108584985 L 341.46875 178.27514742051608 L 344.953125 180.63511071383752 L 348.4375 182.98601195127733 L 351.921875 185.32685883274218 L 355.40625 187.65671361077187 L 358.890625 189.97469100092468 L 362.375 192.27995616210987 L 365.859375 194.57172274468752 L 369.34375 196.84925100421955 L 372.828125 199.11184597881982 L 376.3125 201.35885572811222 L 379.796875 203.58966963186504 L 383.28125 205.80371674642822 L 386.765625 208.00046421715584 L 390.25 210.17941574505053 L 393.734375 212.34011010592056 L 397.21875 214.48211972038982 L 400.703125 216.605049273153 L 404.1875 218.7085343799148 L 407.671875 220.79224030050057 L 411.15625 222.85586069667025 L 414.640625 224.89911643321258 L 418.125 226.92175442093938 L 421.609375 228.92354650024123 L 425.09375 230.9042883639068 L 428.578125 232.86379851794734 L 432.0625 234.80191727920598 L 435.546875 236.7185058085682 L 439.03125 238.61344517862722 L 442.515625 240.486635474691 L 446 242.33799492805332 L 449.484375 244.167459080483 L 452.96875 245.97497997891836 L 456.453125 247.76052539938357 L 459.9375 249.524078099176 L 463.421875 251.26563509640002 L 466.90625 252.98520697595336 L 470.390625 254.68281722109884 L 473.875 256.3585015697801 L 477.359375 258.0123073948679 L 480.84375 259.6442931075467 L 484.328125 261.2545275830764 L 487.8125 262.8430896081891 L 491.296875 264.4100673493999 L 494.78125 265.9555578415392 L 498.265625 267.4796664958282 L 501.75 268.98250662684734 L 505.234375 270.4641989977621 L 508.71875 271.9248713831946 L 512.203125 273.3646581491454 L 515.6875 274.78369984939053 L 519.171875 276.1821428377964 L 522.65625 277.56013889601155 L 526.140625 278.9178448760129 L 529.625 280.2554223569999 L 533.109375 281.5730373161447 L 536.59375 282.87085981272514 L 540.078125 284.149063685178 L 543.5625 285.407826260629 L 547.046875 286.64732807646635 L 550.5312500000001 287.86775261354154 L 554.015625 289.06928604059146 L 557.5 290.2521169694916 L 560.984375 291.41643622095995 L 564.46875 292.56243660034545 L 567.953125 293.69031268314575 L 571.4375 294.8002606099097 L 574.921875 295.8924778901926 L 578.40625 296.96716321524184 L 581.890625 298.02451627910085 L 585.375 299.0647376078306 L 588.859375 300.0880283965558 L 592.34375 301.0945903540543 L 595.828125 302.08462555461585 L 599.3125 303.05833629690625 L 602.796875 304.01592496958114 L 606.28125 304.95759392340176 L 609.765625 305.88354534961417 L 613.25 306.79398116435965 L 616.734375 307.68910289889334 L 620.21875 308.56911159539413 L 623.703125 309.43420770815675 L 627.1875 310.28459100996383 L 630.671875 311.1204605034423 L 634.15625 311.9420143372147 L 637.640625 312.7494497266631 L 641.125 313.5429628791284 L 644.609375 314.322748923375 L 648.09375 315.0890018431545 L 651.578125 315.8419144147102 L 655.0625 316.5816781480678 L 658.546875 317.30848323196335 L 662.03125 318.02251848226405 L 665.515625 318.72397129374417 L 669 319.4130275950806 L 672.484375 320.0898718069394 L 675.96875 320.75468680302697 L 679.453125 321.40765387398596 L 682.9375 322.048952694019 L 686.421875 322.6787612901269 L 689.90625 323.2972560138527 L 693.390625 323.9046115154275 L 696.875 324.50100072021553 L 700.359375 325.0865948073604 L 703.84375 325.6615631905401 L 707.328125 326.2260735007369 L 710.8125 326.7802915709368 L 714.296875 327.324381422672 L 717.78125 327.85850525432545 L 721.265625 328.3828234311187 L 724.75 328.89749447670687 L 728.234375 329.4026750663068 L 731.71875 329.89852002128924 L 735.203125 330.38518230516553 L 738.6875 330.86281302090373 L 742.171875 331.33156140951144 L 745.65625 331.79157484982323 L 749.140625 332.24299885943515 L 752.625 332.68597709672935 L 756.109375 333.1206513639339 L 759.59375 333.5471616111667 L 763.078125 333.96564594141114 L 766.5625 334.3762406163772 L 770.046875 334.779080063199 L 773.53125 335.1742968819259 L 777.015625 335.5620218537622 L 780.5 335.94238395001514 L 783.984375 336.31551034171025 L 787.46875 336.68152640983647 L 790.953125 337.04055575618304 L 794.4375 337.39272021473386 L 797.921875 337.7381398635841 L 801.40625 338.0769330373471 L 804.890625 338.4092163400193 L 808.375 338.73510465827405 L 811.859375 339.05471117515395 L 815.34375 339.3681473841352 L 818.828125 339.6755231035362 L 822.3125000000001 339.9769464912456 L 825.7968750000001 340.2725240597447 L 829.2812500000001 340.5623606914006 L 832.7656250000001 340.8465596540086 L 836.2500000000001 341.1252226165604 L 839.7343750000001 341.398449665219 L 843.2187500000001 341.6663393194803 L 846.7031250000001 341.92898854850114 L 850.1875000000001 342.18649278757744 L 853.6718750000001 342.4389459547539 L 857.1562500000001 342.686440467549 L 860.6406250000001 342.92906725977974 L 864.1250000000001 343.16691579847054 L 867.6093750000001 343.4000741008322 L 871.0937500000001 343.62862875129724 L 874.5781250000001 343.85266491859767 L 878.0625000000001 344.0722663728742 L 881.5468750000001 344.28751550280316 L 885.0312500000001 344.49849333273124 L 888.5156250000001 344.70527953980655 L 892 344.90795247109554" stroke-opacity="0.6980392156862745" stroke-linecap="round" stroke-linejoin="round" stroke-miterlimit="10" stroke-width="2.5"/><text fill="rgb(0,0,255)" stroke="none" font-family="geogebra-sans-serif, sans-serif" font-size="16px" font-style="normal" font-weight="normal" text-decoration="normal" x="14" y="507" text-anchor="start" dominant-baseline="alphabetic" fill-opacity="1">f</text><text fill="rgb(0,0,255)" stroke="none" font-family="geogebra-sans-serif, sans-serif" font-size="16px" font-style="normal" font-weight="normal" text-decoration="normal" x="14" y="507" text-anchor="start" dominant-baseline="alphabetic" fill-opacity="1">f</text></g></g></svg>