<svg version="1.1" xmlns="http://www.w3.org/2000/svg" xmlns:xlink="http://www.w3.org/1999/xlink" width="377" height="270"><defs><clipPath id="wNrTOnpcTWrJ"><path fill="none" stroke="none" d=" M 0 0 L 377 0 L 377 270 L 0 270 L 0 0 Z"/></clipPath></defs><g transform="scale(1,1)" clip-path="url(#wNrTOnpcTWrJ)"><g><rect fill="rgb(255,255,255)" stroke="none" x="0" y="0" width="378" height="270" fill-opacity="1"/><path fill="rgb(153,51,0)" stroke="none" paint-order="stroke fill markers" fill-rule="evenodd" d=" M 37.00000000000023 241.5 L 317.0000000000001 101.50000000000006 L 135.00000000000017 36.000000000000114 Z" fill-opacity="0.09803921568627451"/><path fill="rgb(0,100,0)" stroke="none" paint-order="stroke fill markers" d=" M 63.83281572999772 228.08359213500125 C 60.84418290809714 222.10632649120015 55.94534506823467 217.29806761917075 49.91334996171173 214.42149574355398 L 37.00000000000023 241.5 Z" fill-opacity="0.09803921568627451"/><path fill="none" stroke="rgb(0,100,0)" paint-order="fill stroke markers" d=" M 63.83281572999772 228.08359213500125 C 60.84418290809714 222.10632649120015 55.94534506823467 217.29806761917075 49.91334996171173 214.42149574355398 L 37.00000000000023 241.5 Z" stroke-opacity="0.6980392156862745" stroke-linecap="round" stroke-linejoin="round" stroke-miterlimit="10" stroke-width="2.5"/><text fill="rgb(0,100,0)" stroke="none" font-family="geogebra-sans-serif, sans-serif" font-size="16px" font-style="normal" font-weight="normal" text-decoration="normal" x="61" y="218" text-anchor="start" dominant-baseline="alphabetic" fill-opacity="1">α</text><text fill="rgb(0,100,0)" stroke="none" font-family="geogebra-sans-serif, sans-serif" font-size="16px" font-style="normal" font-weight="normal" text-decoration="normal" x="61" y="218" text-anchor="start" dominant-baseline="alphabetic" fill-opacity="1">α</text><path fill="rgb(0,100,0)" stroke="none" paint-order="stroke fill markers" d=" M 288.772389200415 91.3411620474021 C 285.9945409298183 99.05976334890727 286.4985810735243 107.5792014720422 290.1671842700026 114.91640786499877 L 317.0000000000001 101.50000000000006 Z" fill-opacity="0.09803921568627451"/><path fill="none" stroke="rgb(0,100,0)" paint-order="fill stroke markers" d=" M 288.772389200415 91.3411620474021 C 285.9945409298183 99.05976334890727 286.4985810735243 107.5792014720422 290.1671842700026 114.91640786499877 L 317.0000000000001 101.50000000000006 Z" stroke-opacity="0.6980392156862745" stroke-linecap="round" stroke-linejoin="round" stroke-miterlimit="10" stroke-width="2.5"/><text fill="rgb(0,100,0)" stroke="none" font-family="geogebra-sans-serif, sans-serif" font-size="16px" font-style="normal" font-weight="normal" text-decoration="normal" x="270" y="110" text-anchor="start" dominant-baseline="alphabetic" fill-opacity="1">β</text><text fill="rgb(0,100,0)" stroke="none" font-family="geogebra-sans-serif, sans-serif" font-size="16px" font-style="normal" font-weight="normal" text-decoration="normal" x="270" y="110" text-anchor="start" dominant-baseline="alphabetic" fill-opacity="1">β</text><path fill="rgb(0,100,0)" stroke="none" paint-order="stroke fill markers" d=" M 122.08665003828867 63.07850425644614 C 129.73644631659477 66.72658228697654 138.57238167059032 66.968789863604 146.41054000523218 63.7452622404079 C 154.24869833987407 60.52173461721182 160.3576944989758 54.1332618718489 163.2276107995853 46.15883795259805 L 135.00000000000017 36.000000000000114 Z" fill-opacity="0.09803921568627451"/><path fill="none" stroke="rgb(0,100,0)" paint-order="fill stroke markers" d=" M 122.08665003828867 63.07850425644614 C 129.73644631659477 66.72658228697654 138.57238167059032 66.968789863604 146.41054000523218 63.7452622404079 C 154.24869833987407 60.52173461721182 160.3576944989758 54.1332618718489 163.2276107995853 46.15883795259805 L 135.00000000000017 36.000000000000114 Z" stroke-opacity="0.6980392156862745" stroke-linecap="round" stroke-linejoin="round" stroke-miterlimit="10" stroke-width="2.5"/><text fill="rgb(0,100,0)" stroke="none" font-family="geogebra-sans-serif, sans-serif" font-size="16px" font-style="normal" font-weight="normal" text-decoration="normal" x="140" y="82" text-anchor="start" dominant-baseline="alphabetic" fill-opacity="1">γ</text><text fill="rgb(0,100,0)" stroke="none" font-family="geogebra-sans-serif, sans-serif" font-size="16px" font-style="normal" font-weight="normal" text-decoration="normal" x="140" y="82" text-anchor="start" dominant-baseline="alphabetic" fill-opacity="1">γ</text><path fill="none" stroke="rgb(153,51,0)" paint-order="fill stroke markers" d=" M 37.00000000000023 241.5 L 317.0000000000001 101.50000000000006" stroke-opacity="0.6980392156862745" stroke-linecap="round" stroke-linejoin="round" stroke-miterlimit="10" stroke-width="2.5"/><path fill="none" stroke="rgb(153,51,0)" paint-order="fill stroke markers" d=" M 317.0000000000001 101.50000000000006 L 135.00000000000017 36.000000000000114" stroke-opacity="0.6980392156862745" stroke-linecap="round" stroke-linejoin="round" stroke-miterlimit="10" stroke-width="2.5"/><path fill="none" stroke="rgb(153,51,0)" paint-order="fill stroke markers" d=" M 135.00000000000017 36.000000000000114 L 37.00000000000023 241.5" stroke-opacity="0.6980392156862745" stroke-linecap="round" stroke-linejoin="round" stroke-miterlimit="10" stroke-width="2.5"/><path fill="rgb(77,77,255)" stroke="none" paint-order="stroke fill markers" d=" M 42.00000000000023 241.5 C 42.00000000000023 244.26142374915398 39.76142374915419 246.5 37.00000000000023 246.5 C 34.23857625084626 246.5 32.00000000000023 244.26142374915398 32.00000000000023 241.5 C 32.00000000000023 238.73857625084602 34.23857625084626 236.5 37.00000000000023 236.5 C 39.76142374915419 236.5 42.00000000000023 238.73857625084602 42.00000000000023 241.5 Z" fill-opacity="1"/><path fill="none" stroke="rgb(0,0,0)" paint-order="fill stroke markers" d=" M 42.00000000000023 241.5 C 42.00000000000023 244.26142374915398 39.76142374915419 246.5 37.00000000000023 246.5 C 34.23857625084626 246.5 32.00000000000023 244.26142374915398 32.00000000000023 241.5 C 32.00000000000023 238.73857625084602 34.23857625084626 236.5 37.00000000000023 236.5 C 39.76142374915419 236.5 42.00000000000023 238.73857625084602 42.00000000000023 241.5 Z" stroke-opacity="1" stroke-linecap="round" stroke-linejoin="round" stroke-miterlimit="10"/><text fill="rgb(77,77,255)" stroke="none" font-family="geogebra-sans-serif, sans-serif" font-size="16px" font-style="normal" font-weight="normal" text-decoration="normal" x="17" y="250" text-anchor="start" dominant-baseline="alphabetic" fill-opacity="1">A</text><text fill="rgb(77,77,255)" stroke="none" font-family="geogebra-sans-serif, sans-serif" font-size="16px" font-style="normal" font-weight="normal" text-decoration="normal" x="17" y="250" text-anchor="start" dominant-baseline="alphabetic" fill-opacity="1">A</text><path fill="rgb(77,77,255)" stroke="none" paint-order="stroke fill markers" d=" M 322.0000000000001 101.50000000000006 C 322.0000000000001 104.26142374915402 319.76142374915406 106.50000000000006 317.0000000000001 106.50000000000006 C 314.23857625084617 106.50000000000006 312.0000000000001 104.26142374915402 312.0000000000001 101.50000000000006 C 312.0000000000001 98.7385762508461 314.23857625084617 96.50000000000006 317.0000000000001 96.50000000000006 C 319.76142374915406 96.50000000000006 322.0000000000001 98.7385762508461 322.0000000000001 101.50000000000006 Z" fill-opacity="1"/><path fill="none" stroke="rgb(0,0,0)" paint-order="fill stroke markers" d=" M 322.0000000000001 101.50000000000006 C 322.0000000000001 104.26142374915402 319.76142374915406 106.50000000000006 317.0000000000001 106.50000000000006 C 314.23857625084617 106.50000000000006 312.0000000000001 104.26142374915402 312.0000000000001 101.50000000000006 C 312.0000000000001 98.7385762508461 314.23857625084617 96.50000000000006 317.0000000000001 96.50000000000006 C 319.76142374915406 96.50000000000006 322.0000000000001 98.7385762508461 322.0000000000001 101.50000000000006 Z" stroke-opacity="1" stroke-linecap="round" stroke-linejoin="round" stroke-miterlimit="10"/><text fill="rgb(77,77,255)" stroke="none" font-family="geogebra-sans-serif, sans-serif" font-size="16px" font-style="normal" font-weight="normal" text-decoration="normal" x="324" y="108" text-anchor="start" dominant-baseline="alphabetic" fill-opacity="1">B</text><text fill="rgb(77,77,255)" stroke="none" font-family="geogebra-sans-serif, sans-serif" font-size="16px" font-style="normal" font-weight="normal" text-decoration="normal" x="324" y="108" text-anchor="start" dominant-baseline="alphabetic" fill-opacity="1">B</text><path fill="rgb(77,77,255)" stroke="none" paint-order="stroke fill markers" d=" M 140.00000000000017 36.000000000000114 C 140.00000000000017 38.761423749154076 137.76142374915415 41.000000000000114 135.00000000000017 41.000000000000114 C 132.2385762508462 41.000000000000114 130.00000000000017 38.761423749154076 130.00000000000017 36.000000000000114 C 130.00000000000017 33.238576250846144 132.2385762508462 31.000000000000114 135.00000000000017 31.000000000000114 C 137.76142374915415 31.000000000000114 140.00000000000017 33.238576250846144 140.00000000000017 36.000000000000114 Z" fill-opacity="1"/><path fill="none" stroke="rgb(0,0,0)" paint-order="fill stroke markers" d=" M 140.00000000000017 36.000000000000114 C 140.00000000000017 38.761423749154076 137.76142374915415 41.000000000000114 135.00000000000017 41.000000000000114 C 132.2385762508462 41.000000000000114 130.00000000000017 38.761423749154076 130.00000000000017 36.000000000000114 C 130.00000000000017 33.238576250846144 132.2385762508462 31.000000000000114 135.00000000000017 31.000000000000114 C 137.76142374915415 31.000000000000114 140.00000000000017 33.238576250846144 140.00000000000017 36.000000000000114 Z" stroke-opacity="1" stroke-linecap="round" stroke-linejoin="round" stroke-miterlimit="10"/><text fill="rgb(77,77,255)" stroke="none" font-family="geogebra-sans-serif, sans-serif" font-size="16px" font-style="normal" font-weight="normal" text-decoration="normal" x="117" y="24" text-anchor="start" dominant-baseline="alphabetic" fill-opacity="1">C</text><text fill="rgb(77,77,255)" stroke="none" font-family="geogebra-sans-serif, sans-serif" font-size="16px" font-style="normal" font-weight="normal" text-decoration="normal" x="117" y="24" text-anchor="start" dominant-baseline="alphabetic" fill-opacity="1">C</text></g></g></svg>