<svg version="1.1" xmlns="http://www.w3.org/2000/svg" xmlns:xlink="http://www.w3.org/1999/xlink" width="475" height="270"><defs><clipPath id="ADyCGhgiBkIo"><path fill="none" stroke="none" d=" M 0 0 L 475 0 L 475 270 L 0 270 L 0 0 Z"/></clipPath></defs><g transform="scale(1,1)" clip-path="url(#ADyCGhgiBkIo)"><g><rect fill="rgb(255,255,255)" stroke="none" x="0" y="0" width="475" height="270" fill-opacity="1"/><path fill="rgb(255,0,51)" stroke="none" paint-order="stroke fill markers" fill-rule="evenodd" d=" M -327.66698361569877 -805.345842100814 L -639.3855258756712 637.2753848940628 L 683.2522146422532 1019.2335179707447 Z" fill-opacity="0.09803921568627451"/><path fill="rgb(51,255,0)" stroke="none" paint-order="stroke fill markers" fill-rule="evenodd" d=" M -327.66698361569877 -805.345842100814 L 873.8526553698932 -201.14335557557473 L 683.2522146422532 1019.2335179707447 Z" fill-opacity="0.09803921568627451"/><path fill="rgb(255,0,255)" stroke="none" paint-order="stroke fill markers" fill-rule="evenodd" d=" M 210.675807056479 166.29377676924224 L 229.23128324304955 156.01300328231272 L 218.9505097561206 137.4575270957402 L 200.3950335695495 147.73830058267166 L 210.675807056479 166.29377676924224" fill-opacity="0.09803921568627451"/><path fill="none" stroke="rgb(255,0,255)" paint-order="fill stroke markers" d=" M 210.675807056479 166.29377676924224 L 229.23128324304955 156.01300328231272 L 218.9505097561206 137.4575270957402 L 200.3950335695495 147.73830058267166 L 210.675807056479 166.29377676924224" stroke-opacity="0.6" stroke-linecap="round" stroke-linejoin="round" stroke-miterlimit="10"/><path fill="none" stroke="rgb(160,160,160)" paint-order="fill stroke markers" d=" M 14.475031010319794 275 L 480 17.07308340830383" stroke-opacity="1" stroke-linecap="round" stroke-linejoin="round" stroke-miterlimit="10" stroke-width="4"/><path fill="none" stroke="rgb(255,0,255)" paint-order="fill stroke markers" d=" M 270.90514563113965 275 L 115.76945698610027 -5" stroke-opacity="1" stroke-linecap="round" stroke-linejoin="round" stroke-miterlimit="10" stroke-width="4"/><path fill="none" stroke="rgb(255,0,51)" paint-order="fill stroke markers" d=" M 115.7694569861003 -5 L 270.90514563113965 275" stroke-opacity="1" stroke-linecap="round" stroke-linejoin="round" stroke-miterlimit="10"/><path fill="none" stroke="rgb(51,255,0)" paint-order="fill stroke markers" d=" M 115.7694569861003 -5 L 270.90514563113965 275" stroke-opacity="1" stroke-linecap="round" stroke-linejoin="round" stroke-miterlimit="10"/><path fill="rgb(0,0,0)" stroke="none" paint-order="stroke fill markers" d=" M 397.16910551009914 62.96604004321604 L 367.2928971065327 70.94489782028326 L 369.7160986560164 75.3184655001734 L 209.46420628173712 164.10699292929718 C 208.25647891575903 164.77614156007027 207.81987458576083 166.29765017800602 208.48902321653392 167.5053775439841 C 208.9454733555747 168.32921144092737 209.79853431117755 168.79423480995285 210.67806831333561 168.79423480995285 C 211.08791714387698 168.79423480995285 211.50351436218602 168.69325910091962 211.88740783122086 168.4805606091873 L 372.1393002055002 79.69203318006355 L 374.56250175498394 84.06560085995368 L 397.16910551009914 62.96604004321604 Z" fill-opacity="1"/><path fill="rgb(0,153,0)" stroke="none" paint-order="stroke fill markers" d=" M 265.99999999999994 22.50000000000006 L 248.22763893266276 47.80599103161542 L 252.8941614892823 49.60142057035006 L 208.3425457781692 165.39606199987492 C 207.84675160134978 166.6846866212561 208.48946766573047 168.1312438707326 209.77809228711166 168.62703804755202 C 210.07330605842364 168.74062059618942 210.37680864075412 168.79445047468045 210.67526964191123 168.79445047468045 C 211.67960760200808 168.79445047468045 212.62685670660673 168.18490238867878 213.00906833478876 167.19149153860957 L 257.5606840459019 51.39685010908471 L 262.22720660252145 53.19227964781935 L 265.99999999999994 22.50000000000006 Z" fill-opacity="1"/><path fill="rgb(255,0,51)" stroke="none" paint-order="stroke fill markers" d=" M 210.6751444076136 163.79376251506005 C 210.07107537688918 163.79376251506005 209.46527518120635 164.01138637632005 208.9851940842459 164.45208521577374 L 164.40968566938884 205.3709527797345 L 164.4096856693888 205.3709527797345 L 161.02845972492264 201.6875696727975 L 143.99999999999994 227.50000000000006 L 171.1721375583212 212.7377189936085 L 167.790911613855 209.05433588667148 L 167.79091161385503 209.05433588667148 L 212.36642002871207 168.13546832271075 C 213.38355818758492 167.2017685602803 213.45119837237795 165.620301955882 212.5174986099475 164.60316379700916 C 212.02449768697073 164.06610673509675 211.35090427586744 163.79376251506005 210.6751444076136 163.79376251506005 Z" fill-opacity="1"/><path fill="rgb(255,102,0)" stroke="none" paint-order="stroke fill markers" d=" M 175.67677977616341 103.1250260834423 L 183.65563755323055 133.00123448700876 L 188.02920523312065 130.57803293752505 L 188.02920523312073 130.57803293752505 L 208.48902321653392 167.5053775439841 C 208.9454733555747 168.32921144092737 209.79853431117755 168.79423480995285 210.67806831333561 168.79423480995285 C 211.08791714387698 168.79423480995285 211.50351436218602 168.69325910091962 211.88740783122086 168.4805606091873 C 213.09513519719894 167.8114119784142 213.53173952719715 166.28990336047846 212.86259089642405 165.08217599450037 L 192.40277291301084 128.1548313880413 L 192.40277291301086 128.1548313880413 L 196.776340592901 125.73162983855757 L 175.67677977616341 103.1250260834423 Z" fill-opacity="1"/><path fill="rgb(68,68,68)" stroke="none" paint-order="stroke fill markers" d=" M 213.675807056479 166.29377676924224 C 213.675807056479 167.9506310187346 212.33266130597136 169.29377676924224 210.675807056479 169.29377676924224 C 209.01895280698662 169.29377676924224 207.675807056479 167.9506310187346 207.675807056479 166.29377676924224 C 207.675807056479 164.63692251974987 209.01895280698662 163.29377676924224 210.675807056479 163.29377676924224 C 212.33266130597136 163.29377676924224 213.675807056479 164.63692251974987 213.675807056479 166.29377676924224 Z" fill-opacity="1"/><path fill="none" stroke="rgb(0,0,0)" paint-order="fill stroke markers" d=" M 213.675807056479 166.29377676924224 C 213.675807056479 167.9506310187346 212.33266130597136 169.29377676924224 210.675807056479 169.29377676924224 C 209.01895280698662 169.29377676924224 207.675807056479 167.9506310187346 207.675807056479 166.29377676924224 C 207.675807056479 164.63692251974987 209.01895280698662 163.29377676924224 210.675807056479 163.29377676924224 C 212.33266130597136 163.29377676924224 213.675807056479 164.63692251974987 213.675807056479 166.29377676924224 Z" stroke-opacity="1" stroke-linecap="round" stroke-linejoin="round" stroke-miterlimit="10"/><text fill="rgb(68,68,68)" stroke="none" font-family="geogebra-sans-serif, sans-serif" font-size="20px" font-style="normal" font-weight="normal" text-decoration="normal" x="222" y="182" text-anchor="start" dominant-baseline="alphabetic" fill-opacity="1">M</text><text fill="none" stroke="rgb(255,255,255)" font-family="geogebra-sans-serif, sans-serif" font-size="20px" font-style="normal" font-weight="normal" text-decoration="normal" x="222" y="182" text-anchor="start" dominant-baseline="alphabetic" stroke-opacity="1" stroke-linejoin="bevel" stroke-miterlimit="10" stroke-width="3">M</text><text fill="rgb(68,68,68)" stroke="none" font-family="geogebra-sans-serif, sans-serif" font-size="20px" font-style="normal" font-weight="normal" text-decoration="normal" x="222" y="182" text-anchor="start" dominant-baseline="alphabetic" fill-opacity="1">M</text><g transform="scale(23,23)"><g transform="translate(4.304347826086956,3.1487826086956523)"><path fill="rgb(255,102,0)" stroke="none" paint-order="stroke fill markers" d=" M 0.537 -0.595 L 0.217 -0.595 Q 0.186 -0.595 0.183 -0.609 Q 0.182 -0.612 0.182 -0.615 Q 0.188 -0.635 0.217 -0.635 L 0.554 -0.635 Q 0.534 -0.661 0.53 -0.6930000000000001 Q 0.53 -0.709 0.544 -0.713 Q 0.547 -0.714 0.55 -0.714 Q 0.5650000000000001 -0.714 0.5700000000000001 -0.6920000000000001 Q 0.583 -0.654 0.611 -0.635 Q 0.625 -0.625 0.625 -0.615 Q 0.625 -0.604 0.608 -0.594 Q 0.5630000000000001 -0.5720000000000001 0.529 -0.529 Q 0.518 -0.516 0.51 -0.516 Q 0.496 -0.516 0.491 -0.53 Q 0.49 -0.533 0.49 -0.536 Q 0.49 -0.552 0.537 -0.595 Z"/></g><g transform="translate(4.317347826086956,3.1487826086956523)"><path fill="rgb(255,102,0)" stroke="none" paint-order="stroke fill markers" d=" M 0.35000000000000003 -0.056 L 0.35000000000000003 -0.056 Q 0.298 0.011 0.231 0.011 Q 0.15 0.011 0.121 -0.048 Q 0.108 -0.074 0.108 -0.109 Q 0.108 -0.163 0.161 -0.305 Q 0.163 -0.312 0.166 -0.319 Q 0.183 -0.362 0.183 -0.387 Q 0.183 -0.42 0.158 -0.42 Q 0.10200000000000001 -0.42 0.067 -0.325 Q 0.066 -0.325 0.066 -0.324 L 0.066 -0.323 Q 0.061 -0.31 0.057 -0.296 Q 0.046 -0.279 0.041 -0.278 Q 0.029 -0.278 0.029 -0.28800000000000003 Q 0.029 -0.306 0.05 -0.35100000000000003 Q 0.094 -0.442 0.161 -0.442 Q 0.214 -0.442 0.23500000000000001 -0.397 Q 0.243 -0.38 0.243 -0.36 Q 0.243 -0.34 0.226 -0.297 Q 0.17200000000000001 -0.154 0.17200000000000001 -0.093 Q 0.17200000000000001 -0.011 0.234 -0.011 Q 0.297 -0.011 0.34 -0.08 Q 0.34600000000000003 -0.089 0.34800000000000003 -0.095 Q 0.37 -0.194 0.423 -0.396 Q 0.431 -0.431 0.462 -0.431 Q 0.487 -0.426 0.491 -0.404 Q 0.491 -0.406 0.47600000000000003 -0.337 Q 0.462 -0.28600000000000003 0.459 -0.269 L 0.431 -0.161 Q 0.41100000000000003 -0.074 0.41100000000000003 -0.057 Q 0.41100000000000003 -0.011 0.442 -0.011 Q 0.484 -0.011 0.511 -0.111 Q 0.514 -0.121 0.517 -0.135 Q 0.525 -0.152 0.531 -0.153 Q 0.543 -0.153 0.543 -0.14300000000000002 Q 0.543 -0.128 0.525 -0.073 Q 0.519 -0.056 0.513 -0.044 Q 0.486 0.011 0.439 0.011 Q 0.382 0.011 0.358 -0.037 Q 0.353 -0.046 0.35000000000000003 -0.056 Z"/></g><g transform="translate(4.889347826086956,3.298782608695652) scale(0.7,0.7)"><path fill="rgb(255,102,0)" stroke="none" paint-order="stroke fill markers" d=" M 0.449 -0.17400000000000002 L 0.449 -0.17400000000000002 L 0.421 0 L 0.05 0 Q 0.05 -0.025 0.056 -0.032 L 0.061 -0.037 L 0.253 -0.251 Q 0.358 -0.369 0.358 -0.47200000000000003 Q 0.358 -0.561 0.304 -0.607 L 0.303 -0.608 L 0.302 -0.608 Q 0.27 -0.635 0.224 -0.635 Q 0.152 -0.635 0.109 -0.5730000000000001 Q 0.097 -0.555 0.089 -0.533 Q 0.092 -0.534 0.10200000000000001 -0.534 Q 0.14200000000000002 -0.534 0.153 -0.498 L 0.153 -0.497 Q 0.155 -0.49 0.155 -0.482 Q 0.155 -0.442 0.117 -0.431 Q 0.109 -0.429 0.10300000000000001 -0.429 Q 0.066 -0.429 0.054 -0.46 Q 0.05 -0.47100000000000003 0.05 -0.485 Q 0.05 -0.562 0.109 -0.617 Q 0.162 -0.666 0.23700000000000002 -0.666 Q 0.34700000000000003 -0.666 0.40800000000000003 -0.592 Q 0.443 -0.549 0.448 -0.49 Q 0.449 -0.481 0.449 -0.47200000000000003 Q 0.449 -0.399 0.394 -0.333 Q 0.365 -0.299 0.304 -0.243 L 0.243 -0.189 L 0.233 -0.18 L 0.127 -0.077 L 0.307 -0.077 Q 0.395 -0.077 0.402 -0.085 Q 0.41200000000000003 -0.099 0.424 -0.17400000000000002 L 0.449 -0.17400000000000002 Z"/></g><g transform="translate(5.461570048309178,3.1487826086956523)"><path fill="rgb(255,102,0)" stroke="none" paint-order="stroke fill markers" d=" M 0.192 -0.25 Q 0.192 -0.217 0.162 -0.202 Q 0.151 -0.197 0.139 -0.197 Q 0.106 -0.197 0.091 -0.227 Q 0.08600000000000001 -0.23800000000000002 0.08600000000000001 -0.25 Q 0.08600000000000001 -0.28300000000000003 0.116 -0.298 Q 0.127 -0.303 0.139 -0.303 Q 0.17200000000000001 -0.303 0.187 -0.273 Q 0.192 -0.262 0.192 -0.25 Z"/></g><g transform="translate(5.9617922705314,3.1487826086956523)"><path fill="rgb(255,102,0)" stroke="none" paint-order="stroke fill markers" d=" M 0.537 -0.595 L 0.217 -0.595 Q 0.186 -0.595 0.183 -0.609 Q 0.182 -0.612 0.182 -0.615 Q 0.188 -0.635 0.217 -0.635 L 0.554 -0.635 Q 0.534 -0.661 0.53 -0.6930000000000001 Q 0.53 -0.709 0.544 -0.713 Q 0.547 -0.714 0.55 -0.714 Q 0.5650000000000001 -0.714 0.5700000000000001 -0.6920000000000001 Q 0.583 -0.654 0.611 -0.635 Q 0.625 -0.625 0.625 -0.615 Q 0.625 -0.604 0.608 -0.594 Q 0.5630000000000001 -0.5720000000000001 0.529 -0.529 Q 0.518 -0.516 0.51 -0.516 Q 0.496 -0.516 0.491 -0.53 Q 0.49 -0.533 0.49 -0.536 Q 0.49 -0.552 0.537 -0.595 Z"/></g><g transform="translate(6.0002922705314,3.1487826086956523)"><path fill="rgb(255,102,0)" stroke="none" paint-order="stroke fill markers" d=" M 0.468 -0.372 Q 0.468 -0.317 0.438 -0.218 Q 0.38 -0.024 0.277 0.006 Q 0.261 0.011 0.243 0.011 Q 0.152 0.011 0.122 -0.052000000000000005 Q 0.109 -0.078 0.109 -0.113 Q 0.109 -0.165 0.155 -0.289 L 0.166 -0.318 Q 0.183 -0.362 0.183 -0.388 Q 0.183 -0.42 0.158 -0.42 Q 0.10400000000000001 -0.42 0.069 -0.331 Q 0.062 -0.315 0.057 -0.296 Q 0.046 -0.279 0.041 -0.278 Q 0.029 -0.278 0.029 -0.28800000000000003 Q 0.029 -0.306 0.051000000000000004 -0.35100000000000003 Q 0.094 -0.442 0.161 -0.442 Q 0.214 -0.442 0.23500000000000001 -0.397 Q 0.243 -0.38 0.243 -0.36 Q 0.243 -0.339 0.231 -0.31 Q 0.177 -0.166 0.17300000000000001 -0.111 L 0.17300000000000001 -0.098 Q 0.17300000000000001 -0.018000000000000002 0.23700000000000002 -0.011 L 0.247 -0.011 Q 0.328 -0.011 0.387 -0.147 Q 0.422 -0.227 0.425 -0.28200000000000003 Q 0.425 -0.332 0.391 -0.364 Q 0.375 -0.38 0.375 -0.394 Q 0.375 -0.419 0.401 -0.435 Q 0.41200000000000003 -0.442 0.424 -0.442 Q 0.453 -0.442 0.464 -0.405 Q 0.468 -0.391 0.468 -0.372 Z"/></g><g transform="translate(6.7990700483091775,3.1487826086956523)"><path fill="rgb(255,102,0)" stroke="none" paint-order="stroke fill markers" d=" M 0.687 -0.327 L 0.09 -0.327 Q 0.058 -0.327 0.056 -0.34700000000000003 Q 0.056 -0.367 0.089 -0.367 L 0.6880000000000001 -0.367 Q 0.72 -0.367 0.721 -0.34700000000000003 Q 0.721 -0.327 0.687 -0.327 M 0.6880000000000001 -0.133 L 0.089 -0.133 Q 0.057 -0.133 0.056 -0.153 Q 0.056 -0.17300000000000001 0.09 -0.17300000000000001 L 0.687 -0.17300000000000001 Q 0.719 -0.17300000000000001 0.721 -0.153 Q 0.721 -0.133 0.6880000000000001 -0.133 Z"/></g><g transform="translate(7.854847826086956,3.1487826086956523)"><path fill="rgb(255,102,0)" stroke="none" paint-order="stroke fill markers" d=" M 0.46 -0.32 Q 0.46 -0.17400000000000002 0.423 -0.094 Q 0.364 0.018000000000000002 0.249 0.022 Q 0.158 0.022 0.10300000000000001 -0.05 Q 0.092 -0.063 0.084 -0.079 Q 0.039 -0.162 0.039 -0.32 Q 0.039 -0.467 0.076 -0.547 Q 0.126 -0.659 0.23800000000000002 -0.666 L 0.25 -0.666 Q 0.339 -0.666 0.395 -0.595 L 0.395 -0.594 Q 0.40900000000000003 -0.5760000000000001 0.42 -0.554 Q 0.46 -0.46900000000000003 0.46 -0.32 M 0.249 0 L 0.249 0 Q 0.312 0 0.34600000000000003 -0.061 Q 0.36 -0.088 0.366 -0.125 Q 0.377 -0.189 0.377 -0.332 Q 0.377 -0.47100000000000003 0.367 -0.527 Q 0.34900000000000003 -0.622 0.275 -0.641 Q 0.262 -0.644 0.249 -0.644 Q 0.179 -0.644 0.147 -0.5740000000000001 Q 0.136 -0.55 0.13 -0.516 Q 0.122 -0.462 0.122 -0.332 Q 0.122 -0.181 0.133 -0.121 Q 0.151 -0.025 0.221 -0.004 Q 0.23500000000000001 0 0.249 0 Z"/></g></g><g transform="scale(23,23)"><g transform="translate(13.695652173913043,2.2357391304347827)"><path fill="rgb(0,153,0)" stroke="none" paint-order="stroke fill markers" d=" M 0.537 -0.595 L 0.217 -0.595 Q 0.186 -0.595 0.183 -0.609 Q 0.182 -0.612 0.182 -0.615 Q 0.188 -0.635 0.217 -0.635 L 0.554 -0.635 Q 0.534 -0.661 0.53 -0.6930000000000001 Q 0.53 -0.709 0.544 -0.713 Q 0.547 -0.714 0.55 -0.714 Q 0.5650000000000001 -0.714 0.5700000000000001 -0.6920000000000001 Q 0.583 -0.654 0.611 -0.635 Q 0.625 -0.625 0.625 -0.615 Q 0.625 -0.604 0.608 -0.594 Q 0.5630000000000001 -0.5720000000000001 0.529 -0.529 Q 0.518 -0.516 0.51 -0.516 Q 0.496 -0.516 0.491 -0.53 Q 0.49 -0.533 0.49 -0.536 Q 0.49 -0.552 0.537 -0.595 Z"/></g><g transform="translate(13.708652173913043,2.2357391304347827)"><path fill="rgb(0,153,0)" stroke="none" paint-order="stroke fill markers" d=" M 0.35000000000000003 -0.056 L 0.35000000000000003 -0.056 Q 0.298 0.011 0.231 0.011 Q 0.15 0.011 0.121 -0.048 Q 0.108 -0.074 0.108 -0.109 Q 0.108 -0.163 0.161 -0.305 Q 0.163 -0.312 0.166 -0.319 Q 0.183 -0.362 0.183 -0.387 Q 0.183 -0.42 0.158 -0.42 Q 0.10200000000000001 -0.42 0.067 -0.325 Q 0.066 -0.325 0.066 -0.324 L 0.066 -0.323 Q 0.061 -0.31 0.057 -0.296 Q 0.046 -0.279 0.041 -0.278 Q 0.029 -0.278 0.029 -0.28800000000000003 Q 0.029 -0.306 0.05 -0.35100000000000003 Q 0.094 -0.442 0.161 -0.442 Q 0.214 -0.442 0.23500000000000001 -0.397 Q 0.243 -0.38 0.243 -0.36 Q 0.243 -0.34 0.226 -0.297 Q 0.17200000000000001 -0.154 0.17200000000000001 -0.093 Q 0.17200000000000001 -0.011 0.234 -0.011 Q 0.297 -0.011 0.34 -0.08 Q 0.34600000000000003 -0.089 0.34800000000000003 -0.095 Q 0.37 -0.194 0.423 -0.396 Q 0.431 -0.431 0.462 -0.431 Q 0.487 -0.426 0.491 -0.404 Q 0.491 -0.406 0.47600000000000003 -0.337 Q 0.462 -0.28600000000000003 0.459 -0.269 L 0.431 -0.161 Q 0.41100000000000003 -0.074 0.41100000000000003 -0.057 Q 0.41100000000000003 -0.011 0.442 -0.011 Q 0.484 -0.011 0.511 -0.111 Q 0.514 -0.121 0.517 -0.135 Q 0.525 -0.152 0.531 -0.153 Q 0.543 -0.153 0.543 -0.14300000000000002 Q 0.543 -0.128 0.525 -0.073 Q 0.519 -0.056 0.513 -0.044 Q 0.486 0.011 0.439 0.011 Q 0.382 0.011 0.358 -0.037 Q 0.353 -0.046 0.35000000000000003 -0.056 Z"/></g><g transform="translate(14.280652173913044,2.3857391304347826) scale(0.7,0.7)"><path fill="rgb(0,153,0)" stroke="none" paint-order="stroke fill markers" d=" M 0.294 -0.64 L 0.294 -0.079 Q 0.294 -0.049 0.306 -0.041 Q 0.323 -0.031 0.387 -0.031 L 0.419 -0.031 L 0.419 0 Q 0.384 -0.003 0.257 -0.003 Q 0.13 -0.003 0.095 0 L 0.095 -0.031 L 0.127 -0.031 Q 0.20400000000000001 -0.031 0.215 -0.049 L 0.216 -0.05 Q 0.22 -0.058 0.22 -0.079 L 0.22 -0.597 Q 0.168 -0.5710000000000001 0.089 -0.5710000000000001 L 0.089 -0.602 Q 0.209 -0.602 0.271 -0.666 Q 0.29 -0.666 0.293 -0.659 L 0.293 -0.659 L 0.293 -0.658 Q 0.294 -0.655 0.294 -0.64 Z"/></g><g transform="translate(14.852874396135265,2.2357391304347827)"><path fill="rgb(0,153,0)" stroke="none" paint-order="stroke fill markers" d=" M 0.192 -0.25 Q 0.192 -0.217 0.162 -0.202 Q 0.151 -0.197 0.139 -0.197 Q 0.106 -0.197 0.091 -0.227 Q 0.08600000000000001 -0.23800000000000002 0.08600000000000001 -0.25 Q 0.08600000000000001 -0.28300000000000003 0.116 -0.298 Q 0.127 -0.303 0.139 -0.303 Q 0.17200000000000001 -0.303 0.187 -0.273 Q 0.192 -0.262 0.192 -0.25 Z"/></g><g transform="translate(15.353096618357487,2.2357391304347827)"><path fill="rgb(0,153,0)" stroke="none" paint-order="stroke fill markers" d=" M 0.537 -0.595 L 0.217 -0.595 Q 0.186 -0.595 0.183 -0.609 Q 0.182 -0.612 0.182 -0.615 Q 0.188 -0.635 0.217 -0.635 L 0.554 -0.635 Q 0.534 -0.661 0.53 -0.6930000000000001 Q 0.53 -0.709 0.544 -0.713 Q 0.547 -0.714 0.55 -0.714 Q 0.5650000000000001 -0.714 0.5700000000000001 -0.6920000000000001 Q 0.583 -0.654 0.611 -0.635 Q 0.625 -0.625 0.625 -0.615 Q 0.625 -0.604 0.608 -0.594 Q 0.5630000000000001 -0.5720000000000001 0.529 -0.529 Q 0.518 -0.516 0.51 -0.516 Q 0.496 -0.516 0.491 -0.53 Q 0.49 -0.533 0.49 -0.536 Q 0.49 -0.552 0.537 -0.595 Z"/></g><g transform="translate(15.391596618357488,2.2357391304347827)"><path fill="rgb(0,153,0)" stroke="none" paint-order="stroke fill markers" d=" M 0.468 -0.372 Q 0.468 -0.317 0.438 -0.218 Q 0.38 -0.024 0.277 0.006 Q 0.261 0.011 0.243 0.011 Q 0.152 0.011 0.122 -0.052000000000000005 Q 0.109 -0.078 0.109 -0.113 Q 0.109 -0.165 0.155 -0.289 L 0.166 -0.318 Q 0.183 -0.362 0.183 -0.388 Q 0.183 -0.42 0.158 -0.42 Q 0.10400000000000001 -0.42 0.069 -0.331 Q 0.062 -0.315 0.057 -0.296 Q 0.046 -0.279 0.041 -0.278 Q 0.029 -0.278 0.029 -0.28800000000000003 Q 0.029 -0.306 0.051000000000000004 -0.35100000000000003 Q 0.094 -0.442 0.161 -0.442 Q 0.214 -0.442 0.23500000000000001 -0.397 Q 0.243 -0.38 0.243 -0.36 Q 0.243 -0.339 0.231 -0.31 Q 0.177 -0.166 0.17300000000000001 -0.111 L 0.17300000000000001 -0.098 Q 0.17300000000000001 -0.018000000000000002 0.23700000000000002 -0.011 L 0.247 -0.011 Q 0.328 -0.011 0.387 -0.147 Q 0.422 -0.227 0.425 -0.28200000000000003 Q 0.425 -0.332 0.391 -0.364 Q 0.375 -0.38 0.375 -0.394 Q 0.375 -0.419 0.401 -0.435 Q 0.41200000000000003 -0.442 0.424 -0.442 Q 0.453 -0.442 0.464 -0.405 Q 0.468 -0.391 0.468 -0.372 Z"/></g><g transform="translate(16.190374396135265,2.2357391304347827)"><path fill="rgb(0,153,0)" stroke="none" paint-order="stroke fill markers" d=" M 0.675 -0.228 L 0.121 0.033 Q 0.108 0.04 0.10300000000000001 0.04 Q 0.08700000000000001 0.04 0.084 0.025 Q 0.083 0.022 0.083 0.02 Q 0.083 0.008 0.10200000000000001 -0.002 L 0.627 -0.25 L 0.10200000000000001 -0.498 Q 0.083 -0.508 0.083 -0.52 Q 0.083 -0.536 0.098 -0.539 Q 0.101 -0.54 0.10300000000000001 -0.54 Q 0.108 -0.54 0.121 -0.533 L 0.675 -0.272 Q 0.6940000000000001 -0.263 0.6940000000000001 -0.25 Q 0.6940000000000001 -0.23700000000000002 0.675 -0.228 Z"/></g><g transform="translate(17.246152173913043,2.2357391304347827)"><path fill="rgb(0,153,0)" stroke="none" paint-order="stroke fill markers" d=" M 0.46 -0.32 Q 0.46 -0.17400000000000002 0.423 -0.094 Q 0.364 0.018000000000000002 0.249 0.022 Q 0.158 0.022 0.10300000000000001 -0.05 Q 0.092 -0.063 0.084 -0.079 Q 0.039 -0.162 0.039 -0.32 Q 0.039 -0.467 0.076 -0.547 Q 0.126 -0.659 0.23800000000000002 -0.666 L 0.25 -0.666 Q 0.339 -0.666 0.395 -0.595 L 0.395 -0.594 Q 0.40900000000000003 -0.5760000000000001 0.42 -0.554 Q 0.46 -0.46900000000000003 0.46 -0.32 M 0.249 0 L 0.249 0 Q 0.312 0 0.34600000000000003 -0.061 Q 0.36 -0.088 0.366 -0.125 Q 0.377 -0.189 0.377 -0.332 Q 0.377 -0.47100000000000003 0.367 -0.527 Q 0.34900000000000003 -0.622 0.275 -0.641 Q 0.262 -0.644 0.249 -0.644 Q 0.179 -0.644 0.147 -0.5740000000000001 Q 0.136 -0.55 0.13 -0.516 Q 0.122 -0.462 0.122 -0.332 Q 0.122 -0.181 0.133 -0.121 Q 0.151 -0.025 0.221 -0.004 Q 0.23500000000000001 0 0.249 0 Z"/></g></g><g transform="scale(23,23)"><g transform="translate(0.5652173913043478,8.974869565217391)"><path fill="rgb(255,0,51)" stroke="none" paint-order="stroke fill markers" d=" M 0.537 -0.595 L 0.217 -0.595 Q 0.186 -0.595 0.183 -0.609 Q 0.182 -0.612 0.182 -0.615 Q 0.188 -0.635 0.217 -0.635 L 0.554 -0.635 Q 0.534 -0.661 0.53 -0.6930000000000001 Q 0.53 -0.709 0.544 -0.713 Q 0.547 -0.714 0.55 -0.714 Q 0.5650000000000001 -0.714 0.5700000000000001 -0.6920000000000001 Q 0.583 -0.654 0.611 -0.635 Q 0.625 -0.625 0.625 -0.615 Q 0.625 -0.604 0.608 -0.594 Q 0.5630000000000001 -0.5720000000000001 0.529 -0.529 Q 0.518 -0.516 0.51 -0.516 Q 0.496 -0.516 0.491 -0.53 Q 0.49 -0.533 0.49 -0.536 Q 0.49 -0.552 0.537 -0.595 Z"/></g><g transform="translate(0.6337173913043478,8.987869565217393)"><path fill="rgb(255,0,51)" stroke="none" paint-order="stroke fill markers" d=" M 0.435 -0.444 L 0.435 0 L 0.36 0 L 0.36 -0.048 Q 0.293 0.011 0.187 0.011 Q 0.128 0.011 0.1045 -0.0195 Q 0.081 -0.05 0.081 -0.109 L 0.081 -0.444 L 0.159 -0.444 L 0.159 -0.113 Q 0.159 -0.076 0.17350000000000002 -0.06 Q 0.188 -0.044 0.23700000000000002 -0.044 Q 0.28800000000000003 -0.044 0.3225 -0.0725 Q 0.357 -0.101 0.357 -0.154 L 0.357 -0.444 L 0.435 -0.444 Z"/></g><g transform="translate(1.1507173913043478,9.137869565217391) scale(0.7,0.7)"><path fill="rgb(255,0,51)" stroke="none" paint-order="stroke fill markers" d=" M 0.092 -0.514 L 0.056 -0.5680000000000001 Q 0.08700000000000001 -0.62 0.1385 -0.649 Q 0.19 -0.678 0.248 -0.678 Q 0.323 -0.678 0.3765 -0.634 Q 0.43 -0.59 0.43 -0.526 Q 0.43 -0.47600000000000003 0.402 -0.4295 Q 0.374 -0.383 0.319 -0.354 Q 0.375 -0.337 0.41600000000000004 -0.2905 Q 0.457 -0.244 0.457 -0.18 Q 0.457 -0.099 0.3965 -0.0385 Q 0.336 0.022 0.247 0.022 Q 0.123 0.022 0.042 -0.082 L 0.053 -0.14200000000000002 Q 0.085 -0.093 0.138 -0.066 Q 0.191 -0.039 0.245 -0.039 Q 0.301 -0.039 0.3345 -0.08 Q 0.368 -0.121 0.368 -0.181 Q 0.368 -0.203 0.3625 -0.225 Q 0.357 -0.247 0.34400000000000003 -0.2705 Q 0.331 -0.294 0.3035 -0.309 Q 0.276 -0.324 0.23800000000000002 -0.324 L 0.167 -0.324 L 0.167 -0.385 Q 0.242 -0.391 0.246 -0.392 Q 0.291 -0.402 0.3195 -0.4405 Q 0.34800000000000003 -0.47900000000000004 0.34800000000000003 -0.526 Q 0.34800000000000003 -0.5710000000000001 0.3185 -0.5955 Q 0.289 -0.62 0.247 -0.62 Q 0.199 -0.62 0.156 -0.592 Q 0.113 -0.5640000000000001 0.092 -0.514 Z"/></g><g transform="translate(1.7229396135265702,8.987869565217391)"><path fill="rgb(255,0,51)" stroke="none" paint-order="stroke fill markers" d=" M 0.192 -0.25 Q 0.192 -0.217 0.162 -0.202 Q 0.151 -0.197 0.139 -0.197 Q 0.106 -0.197 0.091 -0.227 Q 0.08600000000000001 -0.23800000000000002 0.08600000000000001 -0.25 Q 0.08600000000000001 -0.28300000000000003 0.116 -0.298 Q 0.127 -0.303 0.139 -0.303 Q 0.17200000000000001 -0.303 0.187 -0.273 Q 0.192 -0.262 0.192 -0.25 Z"/></g><g transform="translate(2.2231618357487926,8.974869565217391)"><path fill="rgb(255,0,51)" stroke="none" paint-order="stroke fill markers" d=" M 0.537 -0.595 L 0.217 -0.595 Q 0.186 -0.595 0.183 -0.609 Q 0.182 -0.612 0.182 -0.615 Q 0.188 -0.635 0.217 -0.635 L 0.554 -0.635 Q 0.534 -0.661 0.53 -0.6930000000000001 Q 0.53 -0.709 0.544 -0.713 Q 0.547 -0.714 0.55 -0.714 Q 0.5650000000000001 -0.714 0.5700000000000001 -0.6920000000000001 Q 0.583 -0.654 0.611 -0.635 Q 0.625 -0.625 0.625 -0.615 Q 0.625 -0.604 0.608 -0.594 Q 0.5630000000000001 -0.5720000000000001 0.529 -0.529 Q 0.518 -0.516 0.51 -0.516 Q 0.496 -0.516 0.491 -0.53 Q 0.49 -0.533 0.49 -0.536 Q 0.49 -0.552 0.537 -0.595 Z"/></g><g transform="translate(2.3126618357487927,8.987869565217393)"><path fill="rgb(255,0,51)" stroke="none" paint-order="stroke fill markers" d=" M 0.446 -0.444 L 0.274 0 L 0.186 0 L 0.014 -0.444 L 0.092 -0.444 L 0.189 -0.185 Q 0.225 -0.08700000000000001 0.231 -0.053 L 0.232 -0.053 Q 0.24 -0.1 0.292 -0.23600000000000002 L 0.371 -0.444 L 0.446 -0.444 Z"/></g><g transform="translate(3.0654396135265705,8.987869565217391)"><path fill="rgb(255,0,51)" stroke="none" paint-order="stroke fill markers" d=" M 0.675 -0.498 L 0.15 -0.25 L 0.675 -0.002 Q 0.6940000000000001 0.008 0.6940000000000001 0.02 Q 0.6940000000000001 0.036000000000000004 0.679 0.039 Q 0.676 0.04 0.674 0.04 Q 0.669 0.04 0.656 0.033 L 0.10200000000000001 -0.228 Q 0.083 -0.23700000000000002 0.083 -0.25 Q 0.083 -0.263 0.10200000000000001 -0.272 L 0.656 -0.533 Q 0.669 -0.54 0.674 -0.54 Q 0.6900000000000001 -0.54 0.6930000000000001 -0.525 Q 0.6940000000000001 -0.522 0.6940000000000001 -0.52 Q 0.6940000000000001 -0.508 0.675 -0.498 Z"/></g><g transform="translate(4.121217391304349,8.987869565217391)"><path fill="rgb(255,0,51)" stroke="none" paint-order="stroke fill markers" d=" M 0.457 -0.326 Q 0.457 -0.17500000000000002 0.417 -0.088 Q 0.393 -0.036000000000000004 0.34850000000000003 -0.007 Q 0.304 0.022 0.249 0.022 Q 0.217 0.022 0.1875 0.012 Q 0.158 0.002 0.1265 -0.027 Q 0.095 -0.056 0.076 -0.101 Q 0.042 -0.184 0.042 -0.326 Q 0.042 -0.47800000000000004 0.08 -0.562 Q 0.108 -0.624 0.154 -0.651 Q 0.2 -0.678 0.25 -0.678 Q 0.294 -0.678 0.3385 -0.6545 Q 0.383 -0.631 0.41100000000000003 -0.579 Q 0.457 -0.49 0.457 -0.326 M 0.25 -0.039 Q 0.33 -0.039 0.361 -0.146 Q 0.379 -0.209 0.379 -0.338 Q 0.379 -0.467 0.36 -0.523 Q 0.354 -0.538 0.34950000000000003 -0.5465 Q 0.34500000000000003 -0.555 0.332 -0.5750000000000001 Q 0.319 -0.595 0.2975 -0.606 Q 0.276 -0.617 0.249 -0.617 Q 0.169 -0.617 0.137 -0.516 Q 0.12 -0.461 0.12 -0.338 Q 0.12 -0.21 0.137 -0.149 Q 0.168 -0.039 0.25 -0.039 Z"/></g></g><g transform="scale(23,23)"><g transform="translate(15.826086956521738,4.844434782608696)"><path fill="rgb(0,0,0)" stroke="none" paint-order="stroke fill markers" d=" M 0.537 -0.595 L 0.217 -0.595 Q 0.186 -0.595 0.183 -0.609 Q 0.182 -0.612 0.182 -0.615 Q 0.188 -0.635 0.217 -0.635 L 0.554 -0.635 Q 0.534 -0.661 0.53 -0.6930000000000001 Q 0.53 -0.709 0.544 -0.713 Q 0.547 -0.714 0.55 -0.714 Q 0.5650000000000001 -0.714 0.5700000000000001 -0.6920000000000001 Q 0.583 -0.654 0.611 -0.635 Q 0.625 -0.625 0.625 -0.615 Q 0.625 -0.604 0.608 -0.594 Q 0.5630000000000001 -0.5720000000000001 0.529 -0.529 Q 0.518 -0.516 0.51 -0.516 Q 0.496 -0.516 0.491 -0.53 Q 0.49 -0.533 0.49 -0.536 Q 0.49 -0.552 0.537 -0.595 Z"/></g><g transform="translate(15.86458695652174,4.844434782608696)"><path fill="rgb(0,0,0)" stroke="none" paint-order="stroke fill markers" d=" M 0.468 -0.372 Q 0.468 -0.317 0.438 -0.218 Q 0.38 -0.024 0.277 0.006 Q 0.261 0.011 0.243 0.011 Q 0.152 0.011 0.122 -0.052000000000000005 Q 0.109 -0.078 0.109 -0.113 Q 0.109 -0.165 0.155 -0.289 L 0.166 -0.318 Q 0.183 -0.362 0.183 -0.388 Q 0.183 -0.42 0.158 -0.42 Q 0.10400000000000001 -0.42 0.069 -0.331 Q 0.062 -0.315 0.057 -0.296 Q 0.046 -0.279 0.041 -0.278 Q 0.029 -0.278 0.029 -0.28800000000000003 Q 0.029 -0.306 0.051000000000000004 -0.35100000000000003 Q 0.094 -0.442 0.161 -0.442 Q 0.214 -0.442 0.23500000000000001 -0.397 Q 0.243 -0.38 0.243 -0.36 Q 0.243 -0.339 0.231 -0.31 Q 0.177 -0.166 0.17300000000000001 -0.111 L 0.17300000000000001 -0.098 Q 0.17300000000000001 -0.018000000000000002 0.23700000000000002 -0.011 L 0.247 -0.011 Q 0.328 -0.011 0.387 -0.147 Q 0.422 -0.227 0.425 -0.28200000000000003 Q 0.425 -0.332 0.391 -0.364 Q 0.375 -0.38 0.375 -0.394 Q 0.375 -0.419 0.401 -0.435 Q 0.41200000000000003 -0.442 0.424 -0.442 Q 0.453 -0.442 0.464 -0.405 Q 0.468 -0.391 0.468 -0.372 Z"/></g></g><g transform="scale(23,23)"><g transform="translate(11.782608695652174,1.9313913043478261)"><path fill="rgb(0,153,0)" stroke="none" paint-order="stroke fill markers" d=" M 0.537 -0.595 L 0.217 -0.595 Q 0.186 -0.595 0.183 -0.609 Q 0.182 -0.612 0.182 -0.615 Q 0.188 -0.635 0.217 -0.635 L 0.554 -0.635 Q 0.534 -0.661 0.53 -0.6930000000000001 Q 0.53 -0.709 0.544 -0.713 Q 0.547 -0.714 0.55 -0.714 Q 0.5650000000000001 -0.714 0.5700000000000001 -0.6920000000000001 Q 0.583 -0.654 0.611 -0.635 Q 0.625 -0.625 0.625 -0.615 Q 0.625 -0.604 0.608 -0.594 Q 0.5630000000000001 -0.5720000000000001 0.529 -0.529 Q 0.518 -0.516 0.51 -0.516 Q 0.496 -0.516 0.491 -0.53 Q 0.49 -0.533 0.49 -0.536 Q 0.49 -0.552 0.537 -0.595 Z"/></g><g transform="translate(11.795608695652174,1.9313913043478261)"><path fill="rgb(0,153,0)" stroke="none" paint-order="stroke fill markers" d=" M 0.35000000000000003 -0.056 L 0.35000000000000003 -0.056 Q 0.298 0.011 0.231 0.011 Q 0.15 0.011 0.121 -0.048 Q 0.108 -0.074 0.108 -0.109 Q 0.108 -0.163 0.161 -0.305 Q 0.163 -0.312 0.166 -0.319 Q 0.183 -0.362 0.183 -0.387 Q 0.183 -0.42 0.158 -0.42 Q 0.10200000000000001 -0.42 0.067 -0.325 Q 0.066 -0.325 0.066 -0.324 L 0.066 -0.323 Q 0.061 -0.31 0.057 -0.296 Q 0.046 -0.279 0.041 -0.278 Q 0.029 -0.278 0.029 -0.28800000000000003 Q 0.029 -0.306 0.05 -0.35100000000000003 Q 0.094 -0.442 0.161 -0.442 Q 0.214 -0.442 0.23500000000000001 -0.397 Q 0.243 -0.38 0.243 -0.36 Q 0.243 -0.34 0.226 -0.297 Q 0.17200000000000001 -0.154 0.17200000000000001 -0.093 Q 0.17200000000000001 -0.011 0.234 -0.011 Q 0.297 -0.011 0.34 -0.08 Q 0.34600000000000003 -0.089 0.34800000000000003 -0.095 Q 0.37 -0.194 0.423 -0.396 Q 0.431 -0.431 0.462 -0.431 Q 0.487 -0.426 0.491 -0.404 Q 0.491 -0.406 0.47600000000000003 -0.337 Q 0.462 -0.28600000000000003 0.459 -0.269 L 0.431 -0.161 Q 0.41100000000000003 -0.074 0.41100000000000003 -0.057 Q 0.41100000000000003 -0.011 0.442 -0.011 Q 0.484 -0.011 0.511 -0.111 Q 0.514 -0.121 0.517 -0.135 Q 0.525 -0.152 0.531 -0.153 Q 0.543 -0.153 0.543 -0.14300000000000002 Q 0.543 -0.128 0.525 -0.073 Q 0.519 -0.056 0.513 -0.044 Q 0.486 0.011 0.439 0.011 Q 0.382 0.011 0.358 -0.037 Q 0.353 -0.046 0.35000000000000003 -0.056 Z"/></g><g transform="translate(12.367608695652173,2.081391304347826) scale(0.7,0.7)"><path fill="rgb(0,153,0)" stroke="none" paint-order="stroke fill markers" d=" M 0.294 -0.64 L 0.294 -0.079 Q 0.294 -0.049 0.306 -0.041 Q 0.323 -0.031 0.387 -0.031 L 0.419 -0.031 L 0.419 0 Q 0.384 -0.003 0.257 -0.003 Q 0.13 -0.003 0.095 0 L 0.095 -0.031 L 0.127 -0.031 Q 0.20400000000000001 -0.031 0.215 -0.049 L 0.216 -0.05 Q 0.22 -0.058 0.22 -0.079 L 0.22 -0.597 Q 0.168 -0.5710000000000001 0.089 -0.5710000000000001 L 0.089 -0.602 Q 0.209 -0.602 0.271 -0.666 Q 0.29 -0.666 0.293 -0.659 L 0.293 -0.659 L 0.293 -0.658 Q 0.294 -0.655 0.294 -0.64 Z"/></g></g><g transform="scale(23,23)"><g transform="translate(6.565217391304348,5.583565217391305)"><path fill="rgb(255,102,0)" stroke="none" paint-order="stroke fill markers" d=" M 0.537 -0.595 L 0.217 -0.595 Q 0.186 -0.595 0.183 -0.609 Q 0.182 -0.612 0.182 -0.615 Q 0.188 -0.635 0.217 -0.635 L 0.554 -0.635 Q 0.534 -0.661 0.53 -0.6930000000000001 Q 0.53 -0.709 0.544 -0.713 Q 0.547 -0.714 0.55 -0.714 Q 0.5650000000000001 -0.714 0.5700000000000001 -0.6920000000000001 Q 0.583 -0.654 0.611 -0.635 Q 0.625 -0.625 0.625 -0.615 Q 0.625 -0.604 0.608 -0.594 Q 0.5630000000000001 -0.5720000000000001 0.529 -0.529 Q 0.518 -0.516 0.51 -0.516 Q 0.496 -0.516 0.491 -0.53 Q 0.49 -0.533 0.49 -0.536 Q 0.49 -0.552 0.537 -0.595 Z"/></g><g transform="translate(6.578217391304348,5.583565217391305)"><path fill="rgb(255,102,0)" stroke="none" paint-order="stroke fill markers" d=" M 0.35000000000000003 -0.056 L 0.35000000000000003 -0.056 Q 0.298 0.011 0.231 0.011 Q 0.15 0.011 0.121 -0.048 Q 0.108 -0.074 0.108 -0.109 Q 0.108 -0.163 0.161 -0.305 Q 0.163 -0.312 0.166 -0.319 Q 0.183 -0.362 0.183 -0.387 Q 0.183 -0.42 0.158 -0.42 Q 0.10200000000000001 -0.42 0.067 -0.325 Q 0.066 -0.325 0.066 -0.324 L 0.066 -0.323 Q 0.061 -0.31 0.057 -0.296 Q 0.046 -0.279 0.041 -0.278 Q 0.029 -0.278 0.029 -0.28800000000000003 Q 0.029 -0.306 0.05 -0.35100000000000003 Q 0.094 -0.442 0.161 -0.442 Q 0.214 -0.442 0.23500000000000001 -0.397 Q 0.243 -0.38 0.243 -0.36 Q 0.243 -0.34 0.226 -0.297 Q 0.17200000000000001 -0.154 0.17200000000000001 -0.093 Q 0.17200000000000001 -0.011 0.234 -0.011 Q 0.297 -0.011 0.34 -0.08 Q 0.34600000000000003 -0.089 0.34800000000000003 -0.095 Q 0.37 -0.194 0.423 -0.396 Q 0.431 -0.431 0.462 -0.431 Q 0.487 -0.426 0.491 -0.404 Q 0.491 -0.406 0.47600000000000003 -0.337 Q 0.462 -0.28600000000000003 0.459 -0.269 L 0.431 -0.161 Q 0.41100000000000003 -0.074 0.41100000000000003 -0.057 Q 0.41100000000000003 -0.011 0.442 -0.011 Q 0.484 -0.011 0.511 -0.111 Q 0.514 -0.121 0.517 -0.135 Q 0.525 -0.152 0.531 -0.153 Q 0.543 -0.153 0.543 -0.14300000000000002 Q 0.543 -0.128 0.525 -0.073 Q 0.519 -0.056 0.513 -0.044 Q 0.486 0.011 0.439 0.011 Q 0.382 0.011 0.358 -0.037 Q 0.353 -0.046 0.35000000000000003 -0.056 Z"/></g><g transform="translate(7.150217391304348,5.733565217391305) scale(0.7,0.7)"><path fill="rgb(255,102,0)" stroke="none" paint-order="stroke fill markers" d=" M 0.449 -0.17400000000000002 L 0.449 -0.17400000000000002 L 0.421 0 L 0.05 0 Q 0.05 -0.025 0.056 -0.032 L 0.061 -0.037 L 0.253 -0.251 Q 0.358 -0.369 0.358 -0.47200000000000003 Q 0.358 -0.561 0.304 -0.607 L 0.303 -0.608 L 0.302 -0.608 Q 0.27 -0.635 0.224 -0.635 Q 0.152 -0.635 0.109 -0.5730000000000001 Q 0.097 -0.555 0.089 -0.533 Q 0.092 -0.534 0.10200000000000001 -0.534 Q 0.14200000000000002 -0.534 0.153 -0.498 L 0.153 -0.497 Q 0.155 -0.49 0.155 -0.482 Q 0.155 -0.442 0.117 -0.431 Q 0.109 -0.429 0.10300000000000001 -0.429 Q 0.066 -0.429 0.054 -0.46 Q 0.05 -0.47100000000000003 0.05 -0.485 Q 0.05 -0.562 0.109 -0.617 Q 0.162 -0.666 0.23700000000000002 -0.666 Q 0.34700000000000003 -0.666 0.40800000000000003 -0.592 Q 0.443 -0.549 0.448 -0.49 Q 0.449 -0.481 0.449 -0.47200000000000003 Q 0.449 -0.399 0.394 -0.333 Q 0.365 -0.299 0.304 -0.243 L 0.243 -0.189 L 0.233 -0.18 L 0.127 -0.077 L 0.307 -0.077 Q 0.395 -0.077 0.402 -0.085 Q 0.41200000000000003 -0.099 0.424 -0.17400000000000002 L 0.449 -0.17400000000000002 Z"/></g></g><g transform="scale(23,23)"><g transform="translate(6.478260869565218,10.844434782608696)"><path fill="rgb(255,0,51)" stroke="none" paint-order="stroke fill markers" d=" M 0.537 -0.595 L 0.217 -0.595 Q 0.186 -0.595 0.183 -0.609 Q 0.182 -0.612 0.182 -0.615 Q 0.188 -0.635 0.217 -0.635 L 0.554 -0.635 Q 0.534 -0.661 0.53 -0.6930000000000001 Q 0.53 -0.709 0.544 -0.713 Q 0.547 -0.714 0.55 -0.714 Q 0.5650000000000001 -0.714 0.5700000000000001 -0.6920000000000001 Q 0.583 -0.654 0.611 -0.635 Q 0.625 -0.625 0.625 -0.615 Q 0.625 -0.604 0.608 -0.594 Q 0.5630000000000001 -0.5720000000000001 0.529 -0.529 Q 0.518 -0.516 0.51 -0.516 Q 0.496 -0.516 0.491 -0.53 Q 0.49 -0.533 0.49 -0.536 Q 0.49 -0.552 0.537 -0.595 Z"/></g><g transform="translate(6.491260869565218,10.844434782608696)"><path fill="rgb(255,0,51)" stroke="none" paint-order="stroke fill markers" d=" M 0.35000000000000003 -0.056 L 0.35000000000000003 -0.056 Q 0.298 0.011 0.231 0.011 Q 0.15 0.011 0.121 -0.048 Q 0.108 -0.074 0.108 -0.109 Q 0.108 -0.163 0.161 -0.305 Q 0.163 -0.312 0.166 -0.319 Q 0.183 -0.362 0.183 -0.387 Q 0.183 -0.42 0.158 -0.42 Q 0.10200000000000001 -0.42 0.067 -0.325 Q 0.066 -0.325 0.066 -0.324 L 0.066 -0.323 Q 0.061 -0.31 0.057 -0.296 Q 0.046 -0.279 0.041 -0.278 Q 0.029 -0.278 0.029 -0.28800000000000003 Q 0.029 -0.306 0.05 -0.35100000000000003 Q 0.094 -0.442 0.161 -0.442 Q 0.214 -0.442 0.23500000000000001 -0.397 Q 0.243 -0.38 0.243 -0.36 Q 0.243 -0.34 0.226 -0.297 Q 0.17200000000000001 -0.154 0.17200000000000001 -0.093 Q 0.17200000000000001 -0.011 0.234 -0.011 Q 0.297 -0.011 0.34 -0.08 Q 0.34600000000000003 -0.089 0.34800000000000003 -0.095 Q 0.37 -0.194 0.423 -0.396 Q 0.431 -0.431 0.462 -0.431 Q 0.487 -0.426 0.491 -0.404 Q 0.491 -0.406 0.47600000000000003 -0.337 Q 0.462 -0.28600000000000003 0.459 -0.269 L 0.431 -0.161 Q 0.41100000000000003 -0.074 0.41100000000000003 -0.057 Q 0.41100000000000003 -0.011 0.442 -0.011 Q 0.484 -0.011 0.511 -0.111 Q 0.514 -0.121 0.517 -0.135 Q 0.525 -0.152 0.531 -0.153 Q 0.543 -0.153 0.543 -0.14300000000000002 Q 0.543 -0.128 0.525 -0.073 Q 0.519 -0.056 0.513 -0.044 Q 0.486 0.011 0.439 0.011 Q 0.382 0.011 0.358 -0.037 Q 0.353 -0.046 0.35000000000000003 -0.056 Z"/></g><g transform="translate(7.063260869565218,10.994434782608696) scale(0.7,0.7)"><path fill="rgb(255,0,51)" stroke="none" paint-order="stroke fill markers" d=" M 0.29 -0.352 L 0.29 -0.352 Q 0.39 -0.332 0.434 -0.254 Q 0.457 -0.215 0.457 -0.171 Q 0.457 -0.08600000000000001 0.387 -0.028 Q 0.326 0.022 0.244 0.022 Q 0.145 0.022 0.085 -0.037 Q 0.042 -0.079 0.042 -0.135 Q 0.042 -0.182 0.084 -0.191 Q 0.091 -0.193 0.098 -0.193 Q 0.136 -0.193 0.149 -0.161 Q 0.153 -0.148 0.154 -0.137 Q 0.154 -0.097 0.11800000000000001 -0.085 Q 0.10400000000000001 -0.08 0.088 -0.082 Q 0.125 -0.02 0.216 -0.008 Q 0.229 -0.006 0.241 -0.006 Q 0.305 -0.006 0.335 -0.069 Q 0.354 -0.109 0.354 -0.171 Q 0.354 -0.304 0.274 -0.331 Q 0.256 -0.337 0.23500000000000001 -0.337 L 0.191 -0.337 Q 0.169 -0.337 0.167 -0.34800000000000003 Q 0.167 -0.358 0.182 -0.36 Q 0.197 -0.36 0.221 -0.363 Q 0.272 -0.365 0.301 -0.402 L 0.301 -0.403 L 0.302 -0.404 L 0.303 -0.405 L 0.304 -0.405 L 0.31 -0.41500000000000004 Q 0.338 -0.462 0.338 -0.529 Q 0.338 -0.622 0.266 -0.638 Q 0.254 -0.641 0.242 -0.641 Q 0.17200000000000001 -0.641 0.128 -0.601 Q 0.117 -0.591 0.109 -0.579 Q 0.171 -0.579 0.171 -0.529 Q 0.171 -0.493 0.14 -0.481 Q 0.131 -0.47800000000000004 0.12 -0.47800000000000004 Q 0.081 -0.47800000000000004 0.07100000000000001 -0.513 L 0.07100000000000001 -0.513 L 0.07100000000000001 -0.514 Q 0.069 -0.522 0.069 -0.53 Q 0.069 -0.597 0.135 -0.637 Q 0.183 -0.666 0.246 -0.666 Q 0.337 -0.666 0.393 -0.612 L 0.395 -0.61 Q 0.43 -0.5740000000000001 0.43 -0.528 Q 0.43 -0.445 0.359 -0.389 Q 0.328 -0.365 0.29 -0.352 Z"/></g></g></g></g></svg>