<svg version="1.1" xmlns="http://www.w3.org/2000/svg" xmlns:xlink="http://www.w3.org/1999/xlink" width="718" height="402"><defs><clipPath id="hCcLUtRMqUAU"><path fill="none" stroke="none" d=" M 0 0 L 718 0 L 718 402 L 0 402 L 0 0 Z"/></clipPath></defs><g transform="scale(1,1)" clip-path="url(#hCcLUtRMqUAU)"><g><rect fill="rgb(255,255,255)" stroke="none" x="0" y="0" width="718" height="402" fill-opacity="1"/><path fill="none" stroke="rgb(192,192,192)" paint-order="fill stroke markers" d=" M 34.5 0.5 L 34.5 402.5 M 34.5 0.5 L 34.5 402.5 M 70.5 0.5 L 70.5 402.5 M 106.5 0.5 L 106.5 402.5 M 143.5 0.5 L 143.5 402.5 M 179.5 0.5 L 179.5 402.5 M 215.5 0.5 L 215.5 402.5 M 252.5 0.5 L 252.5 402.5 M 324.5 0.5 L 324.5 402.5 M 360.5 0.5 L 360.5 402.5 M 397.5 0.5 L 397.5 402.5 M 433.5 0.5 L 433.5 402.5 M 469.5 0.5 L 469.5 402.5 M 505.5 0.5 L 505.5 402.5 M 542.5 0.5 L 542.5 402.5 M 578.5 0.5 L 578.5 402.5 M 614.5 0.5 L 614.5 402.5 M 651.5 0.5 L 651.5 402.5 M 687.5 0.5 L 687.5 402.5" stroke-opacity="1" stroke-linecap="round" stroke-linejoin="round" stroke-miterlimit="10"/><path fill="none" stroke="rgb(192,192,192)" paint-order="fill stroke markers" d=" M 5.5 0.5 L 5.5 402.5 M 12.5 0.5 L 12.5 402.5 M 19.5 0.5 L 19.5 402.5 M 27.5 0.5 L 27.5 402.5 M 41.5 0.5 L 41.5 402.5 M 48.5 0.5 L 48.5 402.5 M 56.5 0.5 L 56.5 402.5 M 63.5 0.5 L 63.5 402.5 M 77.5 0.5 L 77.5 402.5 M 85.5 0.5 L 85.5 402.5 M 92.5 0.5 L 92.5 402.5 M 99.5 0.5 L 99.5 402.5 M 114.5 0.5 L 114.5 402.5 M 121.5 0.5 L 121.5 402.5 M 128.5 0.5 L 128.5 402.5 M 135.5 0.5 L 135.5 402.5 M 150.5 0.5 L 150.5 402.5 M 157.5 0.5 L 157.5 402.5 M 164.5 0.5 L 164.5 402.5 M 172.5 0.5 L 172.5 402.5 M 186.5 0.5 L 186.5 402.5 M 193.5 0.5 L 193.5 402.5 M 201.5 0.5 L 201.5 402.5 M 208.5 0.5 L 208.5 402.5 M 222.5 0.5 L 222.5 402.5 M 230.5 0.5 L 230.5 402.5 M 237.5 0.5 L 237.5 402.5 M 244.5 0.5 L 244.5 402.5 M 259.5 0.5 L 259.5 402.5 M 266.5 0.5 L 266.5 402.5 M 273.5 0.5 L 273.5 402.5 M 281.5 0.5 L 281.5 402.5 M 295.5 0.5 L 295.5 402.5 M 302.5 0.5 L 302.5 402.5 M 310.5 0.5 L 310.5 402.5 M 317.5 0.5 L 317.5 402.5 M 331.5 0.5 L 331.5 402.5 M 339.5 0.5 L 339.5 402.5 M 346.5 0.5 L 346.5 402.5 M 353.5 0.5 L 353.5 402.5 M 368.5 0.5 L 368.5 402.5 M 375.5 0.5 L 375.5 402.5 M 382.5 0.5 L 382.5 402.5 M 389.5 0.5 L 389.5 402.5 M 404.5 0.5 L 404.5 402.5 M 411.5 0.5 L 411.5 402.5 M 418.5 0.5 L 418.5 402.5 M 426.5 0.5 L 426.5 402.5 M 440.5 0.5 L 440.5 402.5 M 447.5 0.5 L 447.5 402.5 M 455.5 0.5 L 455.5 402.5 M 462.5 0.5 L 462.5 402.5 M 476.5 0.5 L 476.5 402.5 M 484.5 0.5 L 484.5 402.5 M 491.5 0.5 L 491.5 402.5 M 498.5 0.5 L 498.5 402.5 M 513.5 0.5 L 513.5 402.5 M 520.5 0.5 L 520.5 402.5 M 527.5 0.5 L 527.5 402.5 M 534.5 0.5 L 534.5 402.5 M 549.5 0.5 L 549.5 402.5 M 556.5 0.5 L 556.5 402.5 M 563.5 0.5 L 563.5 402.5 M 571.5 0.5 L 571.5 402.5 M 585.5 0.5 L 585.5 402.5 M 592.5 0.5 L 592.5 402.5 M 600.5 0.5 L 600.5 402.5 M 607.5 0.5 L 607.5 402.5 M 622.5 0.5 L 622.5 402.5 M 629.5 0.5 L 629.5 402.5 M 636.5 0.5 L 636.5 402.5 M 643.5 0.5 L 643.5 402.5 M 658.5 0.5 L 658.5 402.5 M 665.5 0.5 L 665.5 402.5 M 672.5 0.5 L 672.5 402.5 M 680.5 0.5 L 680.5 402.5 M 694.5 0.5 L 694.5 402.5 M 701.5 0.5 L 701.5 402.5 M 709.5 0.5 L 709.5 402.5 M 716.5 0.5 L 716.5 402.5" stroke-opacity="0.23529411764705882" stroke-linecap="round" stroke-linejoin="round" stroke-miterlimit="10"/><path fill="none" stroke="rgb(192,192,192)" paint-order="fill stroke markers" d=" M 0.5 0.5 L 718.5 0.5 M 0.5 0.5 L 718.5 0.5 M 0.5 25.5 L 718.5 25.5 M 0.5 51.5 L 718.5 51.5 M 0.5 77.5 L 718.5 77.5 M 0.5 102.5 L 718.5 102.5 M 0.5 128.5 L 718.5 128.5 M 0.5 154.5 L 718.5 154.5 M 0.5 180.5 L 718.5 180.5 M 0.5 205.5 L 718.5 205.5 M 0.5 257.5 L 718.5 257.5 M 0.5 282.5 L 718.5 282.5 M 0.5 308.5 L 718.5 308.5 M 0.5 334.5 L 718.5 334.5 M 0.5 359.5 L 718.5 359.5 M 0.5 385.5 L 718.5 385.5" stroke-opacity="1" stroke-linecap="round" stroke-linejoin="round" stroke-miterlimit="10"/><path fill="none" stroke="rgb(192,192,192)" paint-order="fill stroke markers" d=" M 0.5 0.5 L 718.5 0.5 M 0.5 5.5 L 718.5 5.5 M 0.5 10.5 L 718.5 10.5 M 0.5 15.5 L 718.5 15.5 M 0.5 20.5 L 718.5 20.5 M 0.5 31.5 L 718.5 31.5 M 0.5 36.5 L 718.5 36.5 M 0.5 41.5 L 718.5 41.5 M 0.5 46.5 L 718.5 46.5 M 0.5 56.5 L 718.5 56.5 M 0.5 61.5 L 718.5 61.5 M 0.5 67.5 L 718.5 67.5 M 0.5 72.5 L 718.5 72.5 M 0.5 82.5 L 718.5 82.5 M 0.5 87.5 L 718.5 87.5 M 0.5 92.5 L 718.5 92.5 M 0.5 97.5 L 718.5 97.5 M 0.5 108.5 L 718.5 108.5 M 0.5 113.5 L 718.5 113.5 M 0.5 118.5 L 718.5 118.5 M 0.5 123.5 L 718.5 123.5 M 0.5 133.5 L 718.5 133.5 M 0.5 138.5 L 718.5 138.5 M 0.5 144.5 L 718.5 144.5 M 0.5 149.5 L 718.5 149.5 M 0.5 159.5 L 718.5 159.5 M 0.5 164.5 L 718.5 164.5 M 0.5 169.5 L 718.5 169.5 M 0.5 174.5 L 718.5 174.5 M 0.5 185.5 L 718.5 185.5 M 0.5 190.5 L 718.5 190.5 M 0.5 195.5 L 718.5 195.5 M 0.5 200.5 L 718.5 200.5 M 0.5 210.5 L 718.5 210.5 M 0.5 215.5 L 718.5 215.5 M 0.5 221.5 L 718.5 221.5 M 0.5 226.5 L 718.5 226.5 M 0.5 236.5 L 718.5 236.5 M 0.5 241.5 L 718.5 241.5 M 0.5 246.5 L 718.5 246.5 M 0.5 251.5 L 718.5 251.5 M 0.5 262.5 L 718.5 262.5 M 0.5 267.5 L 718.5 267.5 M 0.5 272.5 L 718.5 272.5 M 0.5 277.5 L 718.5 277.5 M 0.5 287.5 L 718.5 287.5 M 0.5 293.5 L 718.5 293.5 M 0.5 298.5 L 718.5 298.5 M 0.5 303.5 L 718.5 303.5 M 0.5 313.5 L 718.5 313.5 M 0.5 318.5 L 718.5 318.5 M 0.5 323.5 L 718.5 323.5 M 0.5 328.5 L 718.5 328.5 M 0.5 339.5 L 718.5 339.5 M 0.5 344.5 L 718.5 344.5 M 0.5 349.5 L 718.5 349.5 M 0.5 354.5 L 718.5 354.5 M 0.5 364.5 L 718.5 364.5 M 0.5 370.5 L 718.5 370.5 M 0.5 375.5 L 718.5 375.5 M 0.5 380.5 L 718.5 380.5 M 0.5 390.5 L 718.5 390.5 M 0.5 395.5 L 718.5 395.5 M 0.5 400.5 L 718.5 400.5" stroke-opacity="0.23529411764705882" stroke-linecap="round" stroke-linejoin="round" stroke-miterlimit="10"/><path fill="none" stroke="rgb(37,37,37)" paint-order="fill stroke markers" d=" M 288.5 2.5 L 288.5 402.5" stroke-opacity="1" stroke-miterlimit="10"/><path fill="none" stroke="rgb(37,37,37)" paint-order="fill stroke markers" d=" M 288.5 1.5 L 284.5 5.5" stroke-opacity="1" stroke-miterlimit="10"/><path fill="none" stroke="rgb(37,37,37)" paint-order="fill stroke markers" d=" M 288.5 1.5 L 292.5 5.5" stroke-opacity="1" stroke-miterlimit="10"/><path fill="none" stroke="rgb(37,37,37)" paint-order="fill stroke markers" d=" M 0.5 231.5 L 716.5 231.5" stroke-opacity="1" stroke-miterlimit="10"/><path fill="none" stroke="rgb(37,37,37)" paint-order="fill stroke markers" d=" M 717.5 231.5 L 713.5 227.5" stroke-opacity="1" stroke-miterlimit="10"/><path fill="none" stroke="rgb(37,37,37)" paint-order="fill stroke markers" d=" M 717.5 231.5 L 713.5 235.5" stroke-opacity="1" stroke-miterlimit="10"/><text fill="rgb(37,37,37)" stroke="none" font-family="geogebra-sans-serif, sans-serif" font-size="12px" font-style="normal" font-weight="normal" text-decoration="normal" x="26" y="247" text-anchor="start" dominant-baseline="alphabetic" fill-opacity="1">–35</text><text fill="none" stroke="rgb(255,255,255)" font-family="geogebra-sans-serif, sans-serif" font-size="12px" font-style="normal" font-weight="normal" text-decoration="normal" x="26" y="247" text-anchor="start" dominant-baseline="alphabetic" stroke-opacity="1" stroke-linejoin="bevel" stroke-miterlimit="10" stroke-width="3">–35</text><text fill="rgb(37,37,37)" stroke="none" font-family="geogebra-sans-serif, sans-serif" font-size="12px" font-style="normal" font-weight="normal" text-decoration="normal" x="26" y="247" text-anchor="start" dominant-baseline="alphabetic" fill-opacity="1">–35</text><text fill="rgb(37,37,37)" stroke="none" font-family="geogebra-sans-serif, sans-serif" font-size="12px" font-style="normal" font-weight="normal" text-decoration="normal" x="62" y="247" text-anchor="start" dominant-baseline="alphabetic" fill-opacity="1">–30</text><text fill="none" stroke="rgb(255,255,255)" font-family="geogebra-sans-serif, sans-serif" font-size="12px" font-style="normal" font-weight="normal" text-decoration="normal" x="62" y="247" text-anchor="start" dominant-baseline="alphabetic" stroke-opacity="1" stroke-linejoin="bevel" stroke-miterlimit="10" stroke-width="3">–30</text><text fill="rgb(37,37,37)" stroke="none" font-family="geogebra-sans-serif, sans-serif" font-size="12px" font-style="normal" font-weight="normal" text-decoration="normal" x="62" y="247" text-anchor="start" dominant-baseline="alphabetic" fill-opacity="1">–30</text><text fill="rgb(37,37,37)" stroke="none" font-family="geogebra-sans-serif, sans-serif" font-size="12px" font-style="normal" font-weight="normal" text-decoration="normal" x="98" y="247" text-anchor="start" dominant-baseline="alphabetic" fill-opacity="1">–25</text><text fill="none" stroke="rgb(255,255,255)" font-family="geogebra-sans-serif, sans-serif" font-size="12px" font-style="normal" font-weight="normal" text-decoration="normal" x="98" y="247" text-anchor="start" dominant-baseline="alphabetic" stroke-opacity="1" stroke-linejoin="bevel" stroke-miterlimit="10" stroke-width="3">–25</text><text fill="rgb(37,37,37)" stroke="none" font-family="geogebra-sans-serif, sans-serif" font-size="12px" font-style="normal" font-weight="normal" text-decoration="normal" x="98" y="247" text-anchor="start" dominant-baseline="alphabetic" fill-opacity="1">–25</text><text fill="rgb(37,37,37)" stroke="none" font-family="geogebra-sans-serif, sans-serif" font-size="12px" font-style="normal" font-weight="normal" text-decoration="normal" x="135" y="247" text-anchor="start" dominant-baseline="alphabetic" fill-opacity="1">–20</text><text fill="none" stroke="rgb(255,255,255)" font-family="geogebra-sans-serif, sans-serif" font-size="12px" font-style="normal" font-weight="normal" text-decoration="normal" x="135" y="247" text-anchor="start" dominant-baseline="alphabetic" stroke-opacity="1" stroke-linejoin="bevel" stroke-miterlimit="10" stroke-width="3">–20</text><text fill="rgb(37,37,37)" stroke="none" font-family="geogebra-sans-serif, sans-serif" font-size="12px" font-style="normal" font-weight="normal" text-decoration="normal" x="135" y="247" text-anchor="start" dominant-baseline="alphabetic" fill-opacity="1">–20</text><text fill="rgb(37,37,37)" stroke="none" font-family="geogebra-sans-serif, sans-serif" font-size="12px" font-style="normal" font-weight="normal" text-decoration="normal" x="171" y="247" text-anchor="start" dominant-baseline="alphabetic" fill-opacity="1">–15</text><text fill="none" stroke="rgb(255,255,255)" font-family="geogebra-sans-serif, sans-serif" font-size="12px" font-style="normal" font-weight="normal" text-decoration="normal" x="171" y="247" text-anchor="start" dominant-baseline="alphabetic" stroke-opacity="1" stroke-linejoin="bevel" stroke-miterlimit="10" stroke-width="3">–15</text><text fill="rgb(37,37,37)" stroke="none" font-family="geogebra-sans-serif, sans-serif" font-size="12px" font-style="normal" font-weight="normal" text-decoration="normal" x="171" y="247" text-anchor="start" dominant-baseline="alphabetic" fill-opacity="1">–15</text><text fill="rgb(37,37,37)" stroke="none" font-family="geogebra-sans-serif, sans-serif" font-size="12px" font-style="normal" font-weight="normal" text-decoration="normal" x="207" y="247" text-anchor="start" dominant-baseline="alphabetic" fill-opacity="1">–10</text><text fill="none" stroke="rgb(255,255,255)" font-family="geogebra-sans-serif, sans-serif" font-size="12px" font-style="normal" font-weight="normal" text-decoration="normal" x="207" y="247" text-anchor="start" dominant-baseline="alphabetic" stroke-opacity="1" stroke-linejoin="bevel" stroke-miterlimit="10" stroke-width="3">–10</text><text fill="rgb(37,37,37)" stroke="none" font-family="geogebra-sans-serif, sans-serif" font-size="12px" font-style="normal" font-weight="normal" text-decoration="normal" x="207" y="247" text-anchor="start" dominant-baseline="alphabetic" fill-opacity="1">–10</text><text fill="rgb(37,37,37)" stroke="none" font-family="geogebra-sans-serif, sans-serif" font-size="12px" font-style="normal" font-weight="normal" text-decoration="normal" x="247" y="247" text-anchor="start" dominant-baseline="alphabetic" fill-opacity="1">–5</text><text fill="none" stroke="rgb(255,255,255)" font-family="geogebra-sans-serif, sans-serif" font-size="12px" font-style="normal" font-weight="normal" text-decoration="normal" x="247" y="247" text-anchor="start" dominant-baseline="alphabetic" stroke-opacity="1" stroke-linejoin="bevel" stroke-miterlimit="10" stroke-width="3">–5</text><text fill="rgb(37,37,37)" stroke="none" font-family="geogebra-sans-serif, sans-serif" font-size="12px" font-style="normal" font-weight="normal" text-decoration="normal" x="247" y="247" text-anchor="start" dominant-baseline="alphabetic" fill-opacity="1">–5</text><text fill="rgb(37,37,37)" stroke="none" font-family="geogebra-sans-serif, sans-serif" font-size="12px" font-style="normal" font-weight="normal" text-decoration="normal" x="322" y="247" text-anchor="start" dominant-baseline="alphabetic" fill-opacity="1">5</text><text fill="none" stroke="rgb(255,255,255)" font-family="geogebra-sans-serif, sans-serif" font-size="12px" font-style="normal" font-weight="normal" text-decoration="normal" x="322" y="247" text-anchor="start" dominant-baseline="alphabetic" stroke-opacity="1" stroke-linejoin="bevel" stroke-miterlimit="10" stroke-width="3">5</text><text fill="rgb(37,37,37)" stroke="none" font-family="geogebra-sans-serif, sans-serif" font-size="12px" font-style="normal" font-weight="normal" text-decoration="normal" x="322" y="247" text-anchor="start" dominant-baseline="alphabetic" fill-opacity="1">5</text><text fill="rgb(37,37,37)" stroke="none" font-family="geogebra-sans-serif, sans-serif" font-size="12px" font-style="normal" font-weight="normal" text-decoration="normal" x="355" y="247" text-anchor="start" dominant-baseline="alphabetic" fill-opacity="1">10</text><text fill="none" stroke="rgb(255,255,255)" font-family="geogebra-sans-serif, sans-serif" font-size="12px" font-style="normal" font-weight="normal" text-decoration="normal" x="355" y="247" text-anchor="start" dominant-baseline="alphabetic" stroke-opacity="1" stroke-linejoin="bevel" stroke-miterlimit="10" stroke-width="3">10</text><text fill="rgb(37,37,37)" stroke="none" font-family="geogebra-sans-serif, sans-serif" font-size="12px" font-style="normal" font-weight="normal" text-decoration="normal" x="355" y="247" text-anchor="start" dominant-baseline="alphabetic" fill-opacity="1">10</text><text fill="rgb(37,37,37)" stroke="none" font-family="geogebra-sans-serif, sans-serif" font-size="12px" font-style="normal" font-weight="normal" text-decoration="normal" x="392" y="247" text-anchor="start" dominant-baseline="alphabetic" fill-opacity="1">15</text><text fill="none" stroke="rgb(255,255,255)" font-family="geogebra-sans-serif, sans-serif" font-size="12px" font-style="normal" font-weight="normal" text-decoration="normal" x="392" y="247" text-anchor="start" dominant-baseline="alphabetic" stroke-opacity="1" stroke-linejoin="bevel" stroke-miterlimit="10" stroke-width="3">15</text><text fill="rgb(37,37,37)" stroke="none" font-family="geogebra-sans-serif, sans-serif" font-size="12px" font-style="normal" font-weight="normal" text-decoration="normal" x="392" y="247" text-anchor="start" dominant-baseline="alphabetic" fill-opacity="1">15</text><text fill="rgb(37,37,37)" stroke="none" font-family="geogebra-sans-serif, sans-serif" font-size="12px" font-style="normal" font-weight="normal" text-decoration="normal" x="428" y="247" text-anchor="start" dominant-baseline="alphabetic" fill-opacity="1">20</text><text fill="none" stroke="rgb(255,255,255)" font-family="geogebra-sans-serif, sans-serif" font-size="12px" font-style="normal" font-weight="normal" text-decoration="normal" x="428" y="247" text-anchor="start" dominant-baseline="alphabetic" stroke-opacity="1" stroke-linejoin="bevel" stroke-miterlimit="10" stroke-width="3">20</text><text fill="rgb(37,37,37)" stroke="none" font-family="geogebra-sans-serif, sans-serif" font-size="12px" font-style="normal" font-weight="normal" text-decoration="normal" x="428" y="247" text-anchor="start" dominant-baseline="alphabetic" fill-opacity="1">20</text><text fill="rgb(37,37,37)" stroke="none" font-family="geogebra-sans-serif, sans-serif" font-size="12px" font-style="normal" font-weight="normal" text-decoration="normal" x="464" y="247" text-anchor="start" dominant-baseline="alphabetic" fill-opacity="1">25</text><text fill="none" stroke="rgb(255,255,255)" font-family="geogebra-sans-serif, sans-serif" font-size="12px" font-style="normal" font-weight="normal" text-decoration="normal" x="464" y="247" text-anchor="start" dominant-baseline="alphabetic" stroke-opacity="1" stroke-linejoin="bevel" stroke-miterlimit="10" stroke-width="3">25</text><text fill="rgb(37,37,37)" stroke="none" font-family="geogebra-sans-serif, sans-serif" font-size="12px" font-style="normal" font-weight="normal" text-decoration="normal" x="464" y="247" text-anchor="start" dominant-baseline="alphabetic" fill-opacity="1">25</text><text fill="rgb(37,37,37)" stroke="none" font-family="geogebra-sans-serif, sans-serif" font-size="12px" font-style="normal" font-weight="normal" text-decoration="normal" x="500" y="247" text-anchor="start" dominant-baseline="alphabetic" fill-opacity="1">30</text><text fill="none" stroke="rgb(255,255,255)" font-family="geogebra-sans-serif, sans-serif" font-size="12px" font-style="normal" font-weight="normal" text-decoration="normal" x="500" y="247" text-anchor="start" dominant-baseline="alphabetic" stroke-opacity="1" stroke-linejoin="bevel" stroke-miterlimit="10" stroke-width="3">30</text><text fill="rgb(37,37,37)" stroke="none" font-family="geogebra-sans-serif, sans-serif" font-size="12px" font-style="normal" font-weight="normal" text-decoration="normal" x="500" y="247" text-anchor="start" dominant-baseline="alphabetic" fill-opacity="1">30</text><text fill="rgb(37,37,37)" stroke="none" font-family="geogebra-sans-serif, sans-serif" font-size="12px" font-style="normal" font-weight="normal" text-decoration="normal" x="537" y="247" text-anchor="start" dominant-baseline="alphabetic" fill-opacity="1">35</text><text fill="none" stroke="rgb(255,255,255)" font-family="geogebra-sans-serif, sans-serif" font-size="12px" font-style="normal" font-weight="normal" text-decoration="normal" x="537" y="247" text-anchor="start" dominant-baseline="alphabetic" stroke-opacity="1" stroke-linejoin="bevel" stroke-miterlimit="10" stroke-width="3">35</text><text fill="rgb(37,37,37)" stroke="none" font-family="geogebra-sans-serif, sans-serif" font-size="12px" font-style="normal" font-weight="normal" text-decoration="normal" x="537" y="247" text-anchor="start" dominant-baseline="alphabetic" fill-opacity="1">35</text><text fill="rgb(37,37,37)" stroke="none" font-family="geogebra-sans-serif, sans-serif" font-size="12px" font-style="normal" font-weight="normal" text-decoration="normal" x="573" y="247" text-anchor="start" dominant-baseline="alphabetic" fill-opacity="1">40</text><text fill="none" stroke="rgb(255,255,255)" font-family="geogebra-sans-serif, sans-serif" font-size="12px" font-style="normal" font-weight="normal" text-decoration="normal" x="573" y="247" text-anchor="start" dominant-baseline="alphabetic" stroke-opacity="1" stroke-linejoin="bevel" stroke-miterlimit="10" stroke-width="3">40</text><text fill="rgb(37,37,37)" stroke="none" font-family="geogebra-sans-serif, sans-serif" font-size="12px" font-style="normal" font-weight="normal" text-decoration="normal" x="573" y="247" text-anchor="start" dominant-baseline="alphabetic" fill-opacity="1">40</text><text fill="rgb(37,37,37)" stroke="none" font-family="geogebra-sans-serif, sans-serif" font-size="12px" font-style="normal" font-weight="normal" text-decoration="normal" x="609" y="247" text-anchor="start" dominant-baseline="alphabetic" fill-opacity="1">45</text><text fill="none" stroke="rgb(255,255,255)" font-family="geogebra-sans-serif, sans-serif" font-size="12px" font-style="normal" font-weight="normal" text-decoration="normal" x="609" y="247" text-anchor="start" dominant-baseline="alphabetic" stroke-opacity="1" stroke-linejoin="bevel" stroke-miterlimit="10" stroke-width="3">45</text><text fill="rgb(37,37,37)" stroke="none" font-family="geogebra-sans-serif, sans-serif" font-size="12px" font-style="normal" font-weight="normal" text-decoration="normal" x="609" y="247" text-anchor="start" dominant-baseline="alphabetic" fill-opacity="1">45</text><text fill="rgb(37,37,37)" stroke="none" font-family="geogebra-sans-serif, sans-serif" font-size="12px" font-style="normal" font-weight="normal" text-decoration="normal" x="646" y="247" text-anchor="start" dominant-baseline="alphabetic" fill-opacity="1">50</text><text fill="none" stroke="rgb(255,255,255)" font-family="geogebra-sans-serif, sans-serif" font-size="12px" font-style="normal" font-weight="normal" text-decoration="normal" x="646" y="247" text-anchor="start" dominant-baseline="alphabetic" stroke-opacity="1" stroke-linejoin="bevel" stroke-miterlimit="10" stroke-width="3">50</text><text fill="rgb(37,37,37)" stroke="none" font-family="geogebra-sans-serif, sans-serif" font-size="12px" font-style="normal" font-weight="normal" text-decoration="normal" x="646" y="247" text-anchor="start" dominant-baseline="alphabetic" fill-opacity="1">50</text><text fill="rgb(37,37,37)" stroke="none" font-family="geogebra-sans-serif, sans-serif" font-size="12px" font-style="normal" font-weight="normal" text-decoration="normal" x="682" y="247" text-anchor="start" dominant-baseline="alphabetic" fill-opacity="1">55</text><text fill="none" stroke="rgb(255,255,255)" font-family="geogebra-sans-serif, sans-serif" font-size="12px" font-style="normal" font-weight="normal" text-decoration="normal" x="682" y="247" text-anchor="start" dominant-baseline="alphabetic" stroke-opacity="1" stroke-linejoin="bevel" stroke-miterlimit="10" stroke-width="3">55</text><text fill="rgb(37,37,37)" stroke="none" font-family="geogebra-sans-serif, sans-serif" font-size="12px" font-style="normal" font-weight="normal" text-decoration="normal" x="682" y="247" text-anchor="start" dominant-baseline="alphabetic" fill-opacity="1">55</text><text fill="rgb(37,37,37)" stroke="none" font-family="geogebra-sans-serif, sans-serif" font-size="12px" font-style="normal" font-weight="normal" text-decoration="normal" x="260" y="390" text-anchor="start" dominant-baseline="alphabetic" fill-opacity="1">–60</text><text fill="none" stroke="rgb(255,255,255)" font-family="geogebra-sans-serif, sans-serif" font-size="12px" font-style="normal" font-weight="normal" text-decoration="normal" x="260" y="390" text-anchor="start" dominant-baseline="alphabetic" stroke-opacity="1" stroke-linejoin="bevel" stroke-miterlimit="10" stroke-width="3">–60</text><text fill="rgb(37,37,37)" stroke="none" font-family="geogebra-sans-serif, sans-serif" font-size="12px" font-style="normal" font-weight="normal" text-decoration="normal" x="260" y="390" text-anchor="start" dominant-baseline="alphabetic" fill-opacity="1">–60</text><text fill="rgb(37,37,37)" stroke="none" font-family="geogebra-sans-serif, sans-serif" font-size="12px" font-style="normal" font-weight="normal" text-decoration="normal" x="260" y="364" text-anchor="start" dominant-baseline="alphabetic" fill-opacity="1">–50</text><text fill="none" stroke="rgb(255,255,255)" font-family="geogebra-sans-serif, sans-serif" font-size="12px" font-style="normal" font-weight="normal" text-decoration="normal" x="260" y="364" text-anchor="start" dominant-baseline="alphabetic" stroke-opacity="1" stroke-linejoin="bevel" stroke-miterlimit="10" stroke-width="3">–50</text><text fill="rgb(37,37,37)" stroke="none" font-family="geogebra-sans-serif, sans-serif" font-size="12px" font-style="normal" font-weight="normal" text-decoration="normal" x="260" y="364" text-anchor="start" dominant-baseline="alphabetic" fill-opacity="1">–50</text><text fill="rgb(37,37,37)" stroke="none" font-family="geogebra-sans-serif, sans-serif" font-size="12px" font-style="normal" font-weight="normal" text-decoration="normal" x="260" y="339" text-anchor="start" dominant-baseline="alphabetic" fill-opacity="1">–40</text><text fill="none" stroke="rgb(255,255,255)" font-family="geogebra-sans-serif, sans-serif" font-size="12px" font-style="normal" font-weight="normal" text-decoration="normal" x="260" y="339" text-anchor="start" dominant-baseline="alphabetic" stroke-opacity="1" stroke-linejoin="bevel" stroke-miterlimit="10" stroke-width="3">–40</text><text fill="rgb(37,37,37)" stroke="none" font-family="geogebra-sans-serif, sans-serif" font-size="12px" font-style="normal" font-weight="normal" text-decoration="normal" x="260" y="339" text-anchor="start" dominant-baseline="alphabetic" fill-opacity="1">–40</text><text fill="rgb(37,37,37)" stroke="none" font-family="geogebra-sans-serif, sans-serif" font-size="12px" font-style="normal" font-weight="normal" text-decoration="normal" x="260" y="313" text-anchor="start" dominant-baseline="alphabetic" fill-opacity="1">–30</text><text fill="none" stroke="rgb(255,255,255)" font-family="geogebra-sans-serif, sans-serif" font-size="12px" font-style="normal" font-weight="normal" text-decoration="normal" x="260" y="313" text-anchor="start" dominant-baseline="alphabetic" stroke-opacity="1" stroke-linejoin="bevel" stroke-miterlimit="10" stroke-width="3">–30</text><text fill="rgb(37,37,37)" stroke="none" font-family="geogebra-sans-serif, sans-serif" font-size="12px" font-style="normal" font-weight="normal" text-decoration="normal" x="260" y="313" text-anchor="start" dominant-baseline="alphabetic" fill-opacity="1">–30</text><text fill="rgb(37,37,37)" stroke="none" font-family="geogebra-sans-serif, sans-serif" font-size="12px" font-style="normal" font-weight="normal" text-decoration="normal" x="260" y="287" text-anchor="start" dominant-baseline="alphabetic" fill-opacity="1">–20</text><text fill="none" stroke="rgb(255,255,255)" font-family="geogebra-sans-serif, sans-serif" font-size="12px" font-style="normal" font-weight="normal" text-decoration="normal" x="260" y="287" text-anchor="start" dominant-baseline="alphabetic" stroke-opacity="1" stroke-linejoin="bevel" stroke-miterlimit="10" stroke-width="3">–20</text><text fill="rgb(37,37,37)" stroke="none" font-family="geogebra-sans-serif, sans-serif" font-size="12px" font-style="normal" font-weight="normal" text-decoration="normal" x="260" y="287" text-anchor="start" dominant-baseline="alphabetic" fill-opacity="1">–20</text><text fill="rgb(37,37,37)" stroke="none" font-family="geogebra-sans-serif, sans-serif" font-size="12px" font-style="normal" font-weight="normal" text-decoration="normal" x="260" y="262" text-anchor="start" dominant-baseline="alphabetic" fill-opacity="1">–10</text><text fill="none" stroke="rgb(255,255,255)" font-family="geogebra-sans-serif, sans-serif" font-size="12px" font-style="normal" font-weight="normal" text-decoration="normal" x="260" y="262" text-anchor="start" dominant-baseline="alphabetic" stroke-opacity="1" stroke-linejoin="bevel" stroke-miterlimit="10" stroke-width="3">–10</text><text fill="rgb(37,37,37)" stroke="none" font-family="geogebra-sans-serif, sans-serif" font-size="12px" font-style="normal" font-weight="normal" text-decoration="normal" x="260" y="262" text-anchor="start" dominant-baseline="alphabetic" fill-opacity="1">–10</text><text fill="rgb(37,37,37)" stroke="none" font-family="geogebra-sans-serif, sans-serif" font-size="12px" font-style="normal" font-weight="normal" text-decoration="normal" x="266" y="210" text-anchor="start" dominant-baseline="alphabetic" fill-opacity="1">10</text><text fill="none" stroke="rgb(255,255,255)" font-family="geogebra-sans-serif, sans-serif" font-size="12px" font-style="normal" font-weight="normal" text-decoration="normal" x="266" y="210" text-anchor="start" dominant-baseline="alphabetic" stroke-opacity="1" stroke-linejoin="bevel" stroke-miterlimit="10" stroke-width="3">10</text><text fill="rgb(37,37,37)" stroke="none" font-family="geogebra-sans-serif, sans-serif" font-size="12px" font-style="normal" font-weight="normal" text-decoration="normal" x="266" y="210" text-anchor="start" dominant-baseline="alphabetic" fill-opacity="1">10</text><text fill="rgb(37,37,37)" stroke="none" font-family="geogebra-sans-serif, sans-serif" font-size="12px" font-style="normal" font-weight="normal" text-decoration="normal" x="266" y="185" text-anchor="start" dominant-baseline="alphabetic" fill-opacity="1">20</text><text fill="none" stroke="rgb(255,255,255)" font-family="geogebra-sans-serif, sans-serif" font-size="12px" font-style="normal" font-weight="normal" text-decoration="normal" x="266" y="185" text-anchor="start" dominant-baseline="alphabetic" stroke-opacity="1" stroke-linejoin="bevel" stroke-miterlimit="10" stroke-width="3">20</text><text fill="rgb(37,37,37)" stroke="none" font-family="geogebra-sans-serif, sans-serif" font-size="12px" font-style="normal" font-weight="normal" text-decoration="normal" x="266" y="185" text-anchor="start" dominant-baseline="alphabetic" fill-opacity="1">20</text><text fill="rgb(37,37,37)" stroke="none" font-family="geogebra-sans-serif, sans-serif" font-size="12px" font-style="normal" font-weight="normal" text-decoration="normal" x="266" y="159" text-anchor="start" dominant-baseline="alphabetic" fill-opacity="1">30</text><text fill="none" stroke="rgb(255,255,255)" font-family="geogebra-sans-serif, sans-serif" font-size="12px" font-style="normal" font-weight="normal" text-decoration="normal" x="266" y="159" text-anchor="start" dominant-baseline="alphabetic" stroke-opacity="1" stroke-linejoin="bevel" stroke-miterlimit="10" stroke-width="3">30</text><text fill="rgb(37,37,37)" stroke="none" font-family="geogebra-sans-serif, sans-serif" font-size="12px" font-style="normal" font-weight="normal" text-decoration="normal" x="266" y="159" text-anchor="start" dominant-baseline="alphabetic" fill-opacity="1">30</text><text fill="rgb(37,37,37)" stroke="none" font-family="geogebra-sans-serif, sans-serif" font-size="12px" font-style="normal" font-weight="normal" text-decoration="normal" x="266" y="133" text-anchor="start" dominant-baseline="alphabetic" fill-opacity="1">40</text><text fill="none" stroke="rgb(255,255,255)" font-family="geogebra-sans-serif, sans-serif" font-size="12px" font-style="normal" font-weight="normal" text-decoration="normal" x="266" y="133" text-anchor="start" dominant-baseline="alphabetic" stroke-opacity="1" stroke-linejoin="bevel" stroke-miterlimit="10" stroke-width="3">40</text><text fill="rgb(37,37,37)" stroke="none" font-family="geogebra-sans-serif, sans-serif" font-size="12px" font-style="normal" font-weight="normal" text-decoration="normal" x="266" y="133" text-anchor="start" dominant-baseline="alphabetic" fill-opacity="1">40</text><text fill="rgb(37,37,37)" stroke="none" font-family="geogebra-sans-serif, sans-serif" font-size="12px" font-style="normal" font-weight="normal" text-decoration="normal" x="266" y="107" text-anchor="start" dominant-baseline="alphabetic" fill-opacity="1">50</text><text fill="none" stroke="rgb(255,255,255)" font-family="geogebra-sans-serif, sans-serif" font-size="12px" font-style="normal" font-weight="normal" text-decoration="normal" x="266" y="107" text-anchor="start" dominant-baseline="alphabetic" stroke-opacity="1" stroke-linejoin="bevel" stroke-miterlimit="10" stroke-width="3">50</text><text fill="rgb(37,37,37)" stroke="none" font-family="geogebra-sans-serif, sans-serif" font-size="12px" font-style="normal" font-weight="normal" text-decoration="normal" x="266" y="107" text-anchor="start" dominant-baseline="alphabetic" fill-opacity="1">50</text><text fill="rgb(37,37,37)" stroke="none" font-family="geogebra-sans-serif, sans-serif" font-size="12px" font-style="normal" font-weight="normal" text-decoration="normal" x="266" y="82" text-anchor="start" dominant-baseline="alphabetic" fill-opacity="1">60</text><text fill="none" stroke="rgb(255,255,255)" font-family="geogebra-sans-serif, sans-serif" font-size="12px" font-style="normal" font-weight="normal" text-decoration="normal" x="266" y="82" text-anchor="start" dominant-baseline="alphabetic" stroke-opacity="1" stroke-linejoin="bevel" stroke-miterlimit="10" stroke-width="3">60</text><text fill="rgb(37,37,37)" stroke="none" font-family="geogebra-sans-serif, sans-serif" font-size="12px" font-style="normal" font-weight="normal" text-decoration="normal" x="266" y="82" text-anchor="start" dominant-baseline="alphabetic" fill-opacity="1">60</text><text fill="rgb(37,37,37)" stroke="none" font-family="geogebra-sans-serif, sans-serif" font-size="12px" font-style="normal" font-weight="normal" text-decoration="normal" x="266" y="56" text-anchor="start" dominant-baseline="alphabetic" fill-opacity="1">70</text><text fill="none" stroke="rgb(255,255,255)" font-family="geogebra-sans-serif, sans-serif" font-size="12px" font-style="normal" font-weight="normal" text-decoration="normal" x="266" y="56" text-anchor="start" dominant-baseline="alphabetic" stroke-opacity="1" stroke-linejoin="bevel" stroke-miterlimit="10" stroke-width="3">70</text><text fill="rgb(37,37,37)" stroke="none" font-family="geogebra-sans-serif, sans-serif" font-size="12px" font-style="normal" font-weight="normal" text-decoration="normal" x="266" y="56" text-anchor="start" dominant-baseline="alphabetic" fill-opacity="1">70</text><text fill="rgb(37,37,37)" stroke="none" font-family="geogebra-sans-serif, sans-serif" font-size="12px" font-style="normal" font-weight="normal" text-decoration="normal" x="266" y="30" text-anchor="start" dominant-baseline="alphabetic" fill-opacity="1">80</text><text fill="none" stroke="rgb(255,255,255)" font-family="geogebra-sans-serif, sans-serif" font-size="12px" font-style="normal" font-weight="normal" text-decoration="normal" x="266" y="30" text-anchor="start" dominant-baseline="alphabetic" stroke-opacity="1" stroke-linejoin="bevel" stroke-miterlimit="10" stroke-width="3">80</text><text fill="rgb(37,37,37)" stroke="none" font-family="geogebra-sans-serif, sans-serif" font-size="12px" font-style="normal" font-weight="normal" text-decoration="normal" x="266" y="30" text-anchor="start" dominant-baseline="alphabetic" fill-opacity="1">80</text><text fill="rgb(37,37,37)" stroke="none" font-family="geogebra-sans-serif, sans-serif" font-size="12px" font-style="normal" font-weight="normal" text-decoration="normal" x="273" y="247" text-anchor="start" dominant-baseline="alphabetic" fill-opacity="1">0</text><text fill="none" stroke="rgb(255,255,255)" font-family="geogebra-sans-serif, sans-serif" font-size="12px" font-style="normal" font-weight="normal" text-decoration="normal" x="273" y="247" text-anchor="start" dominant-baseline="alphabetic" stroke-opacity="1" stroke-linejoin="bevel" stroke-miterlimit="10" stroke-width="3">0</text><text fill="rgb(37,37,37)" stroke="none" font-family="geogebra-sans-serif, sans-serif" font-size="12px" font-style="normal" font-weight="normal" text-decoration="normal" x="273" y="247" text-anchor="start" dominant-baseline="alphabetic" fill-opacity="1">0</text><path fill="none" stroke="rgb(204,0,0)" paint-order="fill stroke markers" d=" M 0 202.00408325704495 L 5.609375 201.91992331785366 L 11.21875 201.83184210440285 L 16.828125 201.73955902321848 L 22.437500000000057 201.6427660555455 L 28.046875 201.54112432272993 L 33.65625000000003 201.43426012217702 L 39.26562499999997 201.3217603361671 L 44.875 201.20316709463853 L 50.48437500000003 201.07797154657223 L 56.09375 200.94560656131404 L 61.703125 200.80543813904006 L 67.3125 200.65675525592067 L 72.921875 200.49875780076746 L 78.53125000000003 200.33054217115918 L 84.140625 200.1510839815529 L 89.75 199.95921718446033 L 95.359375 199.7536087055411 L 100.96875 199.5327274263049 L 106.578125 199.29480598821064 L 112.1875 199.0377934020887 L 117.796875 198.75929577267473 L 123.40625000000003 198.4565015092487 L 129.015625 198.12608606920725 L 134.625 197.7640893876922 L 140.234375 197.3657563973098 L 145.84375 196.9253269855123 L 151.453125 196.43575564400683 L 157.0625 195.88833173120432 L 162.671875 195.27215666055815 L 168.28125 194.5734109104189 L 173.890625 193.77430519856728 L 179.5 192.85154476664897 L 185.109375 191.7740209639955 L 190.71875 190.49923502714893 L 196.328125 188.96755986699173 L 201.9375 187.09264414347848 L 207.546875 184.7445510950153 L 213.15625 181.71828797060817 L 218.765625 177.67046540881307 L 224.375 171.9787873043885 L 227.1796875 168.16821150076527 L 229.984375 163.38673668117275 L 232.78906249999997 157.20912565968212 L 235.59375 148.91936001274848 L 236.99609375000003 143.61226974307647 L 238.3984375 137.2108397796584 L 239.80078124999997 129.33767535779202 L 241.203125 119.41931120549837 L 241.90429687500003 113.42684627076956 L 242.60546875 106.53987201730214 L 243.306640625 98.54194572744015 L 244.00781250000003 89.14066873471381 L 244.35839843750003 83.79305417949018 L 244.70898437499997 77.93116327138091 L 245.0595703125 71.47706219413857 L 245.41015625 64.33623251976223 L 245.7607421875 56.3929117346953 L 246.111328125 47.503769337078126 L 246.28662109375 42.65010462650841 L 246.46191406250003 37.489180943783026 L 246.63720703125003 31.99086827770188 L 246.81250000000003 26.120964074135173 L 246.98779296874997 19.840481086531298 L 247.1630859375 13.1047803737994 L 247.33837890625 5.8625086846622025 L 247.513671875 -1.9457132736087601 L 247.68896484375 -10.388922587870042 M 256.45361328125 414.87260125509147 L 256.62890625 406.95143249135793 L 256.80419921875 399.6083101929522 L 256.9794921875 392.78218748370676 L 257.15478515625 386.42032129669656 L 257.330078125 380.4769069164172 L 257.50537109375 374.9119733809308 L 257.6806640625 369.69048339697264 L 258.03125 360.15805147191946 L 258.3818359375 351.6729471860688 L 258.732421875 344.07155408055587 L 259.0830078125 337.22264963487345 L 259.43359375 331.0197663915032 L 259.7841796875 325.375617330637 L 260.134765625 320.2179627506474 L 260.8359375 311.1305037194589 L 261.537109375 303.37927151284464 L 262.23828125 296.6897304020614 L 262.939453125 290.85773089412453 L 263.640625 285.72831119268113 L 265.04296875 277.1239746404839 L 266.4453125 270.1902475108065 L 267.84765625 264.4836379751907 L 269.25 259.7048693921502 L 272.0546875 252.15229278856802 L 274.859375 246.45301420322645 L 280.46875 238.4233500272815 L 283.2734375 235.48870134144397 L 286.078125 233.03710578637936 L 287.48046875 231.9566547231928 L 288.181640625 231.44783663546056 M 288.35693359375 154.39715321229403 L 288.444580078125 154.45877438534274 L 291.6875 156.54742207467964 L 297.296875 159.45417520596584 L 302.90625 161.7203363334879 L 308.515625 163.5366485006669 L 314.125 165.02496465777685 L 319.734375 166.26677308690412 L 325.34375 167.31863297489093 L 330.953125 168.22103008837257 L 336.5625 169.00370785087864 L 342.171875 169.68900861919317 L 347.78125 170.2940408798976 L 353.390625 170.83212705288656 L 359 171.3137958964062 L 364.609375 171.74747830595228 L 370.21875 172.1400050229192 L 375.828125 172.49696906697986 L 381.4375 172.82299392904685 L 387.046875 173.1219349254463 L 392.65625 173.397032372033 L 398.265625 173.6510295123865 L 403.875 173.88626431253687 L 409.484375 174.1047416380858 L 415.09375 174.3081905367576 L 420.703125 174.49811009308922 L 426.3125 174.67580642949918 L 431.921875 174.84242278592282 L 437.53125 174.9989641428592 L 443.140625 175.1463175087647 L 448.75 175.2852687370654 L 454.359375 175.4165165461768 L 459.96875 175.5406842706194 L 465.57812499999994 175.65832976035944 L 471.1875 175.7699537601056 L 476.796875 175.87600703407037 L 482.40625 175.97689644999178 L 488.015625 176.07299019556356 L 493.62500000000006 176.1646222682615 L 499.234375 176.25209635396604 L 504.84375 176.33568918929757 L 510.453125 176.4156534861025 L 516.0625 176.49222048319706 L 521.671875 176.56560217964187 L 527.28125 176.63599329497373 L 532.890625 176.70357299456285 L 538.5 176.76850641228538 L 544.109375 176.83094599775734 L 549.71875 176.89103271126703 L 555.328125 176.9488970861222 L 560.9375 177.00466017526296 L 566.546875 177.05843439658776 L 572.15625 177.11032428941513 L 577.765625 177.1604271927922 L 583.375 177.2088338549101 L 588.984375 177.25562898165447 L 594.59375 177.30089173126657 L 600.203125 177.3446961611918 L 605.8125 177.3871116324222 L 611.421875 177.42820317597602 L 617.03125 177.46803182558793 L 622.640625 177.5066549201886 L 628.25 177.54412637932734 L 633.859375 177.58049695431936 L 639.46875 177.615814457578 L 645.078125 177.650123972311 L 650.6875 177.68346804451468 L 656.296875 177.71588685898533 L 661.90625 177.7474184008788 L 667.515625 177.7780986041839 L 673.125 177.80796148833002 L 678.734375 177.83703928402036 L 684.34375 177.86536254926955 L 689.953125 177.8929602765242 L 695.5625 177.91985999165513 L 701.171875 177.9460878455322 L 706.78125 177.97166869882233 L 712.390625 177.9966262005882 L 718 178.02098286121043" stroke-opacity="0.6980392156862745" stroke-linecap="round" stroke-linejoin="round" stroke-miterlimit="10" stroke-width="4.5"/><text fill="rgb(204,0,0)" stroke="none" font-family="geogebra-sans-serif, sans-serif" font-size="16px" font-style="normal" font-weight="normal" text-decoration="normal" x="16" y="189" text-anchor="start" dominant-baseline="alphabetic" fill-opacity="1">C</text><text fill="none" stroke="rgb(255,255,255)" font-family="geogebra-sans-serif, sans-serif" font-size="16px" font-style="normal" font-weight="normal" text-decoration="normal" x="16" y="189" text-anchor="start" dominant-baseline="alphabetic" stroke-opacity="1" stroke-linejoin="bevel" stroke-miterlimit="10" stroke-width="3">C</text><text fill="rgb(204,0,0)" stroke="none" font-family="geogebra-sans-serif, sans-serif" font-size="16px" font-style="normal" font-weight="normal" text-decoration="normal" x="16" y="189" text-anchor="start" dominant-baseline="alphabetic" fill-opacity="1">C</text><text fill="rgb(204,0,0)" stroke="none" font-family="geogebra-sans-serif, sans-serif" font-size="14px" font-style="normal" font-weight="normal" text-decoration="normal" x="27" y="196" text-anchor="start" dominant-baseline="alphabetic" fill-opacity="1">f</text><text fill="none" stroke="rgb(255,255,255)" font-family="geogebra-sans-serif, sans-serif" font-size="14px" font-style="normal" font-weight="normal" text-decoration="normal" x="27" y="196" text-anchor="start" dominant-baseline="alphabetic" stroke-opacity="1" stroke-linejoin="bevel" stroke-miterlimit="10" stroke-width="3">f</text><text fill="rgb(204,0,0)" stroke="none" font-family="geogebra-sans-serif, sans-serif" font-size="14px" font-style="normal" font-weight="normal" text-decoration="normal" x="27" y="196" text-anchor="start" dominant-baseline="alphabetic" fill-opacity="1">f</text><path fill="rgb(204,0,0)" stroke="none" paint-order="stroke fill markers" d=" M 295.2750726848514 154.33933073657562 C 295.2750726848514 158.20532398539117 292.14106593366694 161.33933073657562 288.2750726848514 161.33933073657562 C 284.4090794360359 161.33933073657562 281.2750726848514 158.20532398539117 281.2750726848514 154.33933073657562 C 281.2750726848514 150.47333748776006 284.4090794360359 147.33933073657562 288.2750726848514 147.33933073657562 C 292.14106593366694 147.33933073657562 295.2750726848514 150.47333748776006 295.2750726848514 154.33933073657562 Z" fill-opacity="1"/></g></g></svg>