<svg version="1.1" xmlns="http://www.w3.org/2000/svg" xmlns:xlink="http://www.w3.org/1999/xlink" width="718" height="402"><defs><clipPath id="PhZWJOcUSJfT"><path fill="none" stroke="none" d=" M 0 0 L 718 0 L 718 402 L 0 402 L 0 0 Z"/></clipPath></defs><g transform="scale(1,1)" clip-path="url(#PhZWJOcUSJfT)"><g><rect fill="rgb(255,255,255)" stroke="none" x="0" y="0" width="718" height="402" fill-opacity="1"/><path fill="none" stroke="rgb(192,192,192)" paint-order="fill stroke markers" d=" M 135.5 0.5 L 135.5 402.5 M 235.5 0.5 L 235.5 402.5 M 335.5 0.5 L 335.5 402.5 M 435.5 0.5 L 435.5 402.5 M 535.5 0.5 L 535.5 402.5 M 635.5 0.5 L 635.5 402.5" stroke-opacity="1" stroke-linecap="round" stroke-linejoin="round" stroke-miterlimit="10"/><path fill="none" stroke="rgb(192,192,192)" paint-order="fill stroke markers" d=" M 15.5 0.5 L 15.5 402.5 M 55.5 0.5 L 55.5 402.5 M 75.5 0.5 L 75.5 402.5 M 95.5 0.5 L 95.5 402.5 M 115.5 0.5 L 115.5 402.5 M 155.5 0.5 L 155.5 402.5 M 175.5 0.5 L 175.5 402.5 M 195.5 0.5 L 195.5 402.5 M 215.5 0.5 L 215.5 402.5 M 255.5 0.5 L 255.5 402.5 M 275.5 0.5 L 275.5 402.5 M 295.5 0.5 L 295.5 402.5 M 315.5 0.5 L 315.5 402.5 M 355.5 0.5 L 355.5 402.5 M 375.5 0.5 L 375.5 402.5 M 395.5 0.5 L 395.5 402.5 M 415.5 0.5 L 415.5 402.5 M 455.5 0.5 L 455.5 402.5 M 475.5 0.5 L 475.5 402.5 M 495.5 0.5 L 495.5 402.5 M 515.5 0.5 L 515.5 402.5 M 555.5 0.5 L 555.5 402.5 M 575.5 0.5 L 575.5 402.5 M 595.5 0.5 L 595.5 402.5 M 615.5 0.5 L 615.5 402.5 M 655.5 0.5 L 655.5 402.5 M 674.5 0.5 L 674.5 402.5 M 694.5 0.5 L 694.5 402.5 M 714.5 0.5 L 714.5 402.5" stroke-opacity="0.23529411764705882" stroke-linecap="round" stroke-linejoin="round" stroke-miterlimit="10"/><path fill="none" stroke="rgb(192,192,192)" paint-order="fill stroke markers" d=" M 0.5 60.5 L 718.5 60.5 M 0.5 60.5 L 718.5 60.5 M 0.5 160.5 L 718.5 160.5 M 0.5 260.5 L 718.5 260.5" stroke-opacity="1" stroke-linecap="round" stroke-linejoin="round" stroke-miterlimit="10"/><path fill="none" stroke="rgb(192,192,192)" paint-order="fill stroke markers" d=" M 0.5 0.5 L 718.5 0.5 M 0.5 0.5 L 718.5 0.5 M 0.5 20.5 L 718.5 20.5 M 0.5 40.5 L 718.5 40.5 M 0.5 80.5 L 718.5 80.5 M 0.5 100.5 L 718.5 100.5 M 0.5 120.5 L 718.5 120.5 M 0.5 140.5 L 718.5 140.5 M 0.5 180.5 L 718.5 180.5 M 0.5 200.5 L 718.5 200.5 M 0.5 220.5 L 718.5 220.5 M 0.5 240.5 L 718.5 240.5 M 0.5 280.5 L 718.5 280.5 M 0.5 300.5 L 718.5 300.5 M 0.5 320.5 L 718.5 320.5 M 0.5 340.5 L 718.5 340.5 M 0.5 380.5 L 718.5 380.5 M 0.5 400.5 L 718.5 400.5" stroke-opacity="0.23529411764705882" stroke-linecap="round" stroke-linejoin="round" stroke-miterlimit="10"/><path fill="none" stroke="rgb(37,37,37)" paint-order="fill stroke markers" d=" M 35.5 2.5 L 35.5 402.5" stroke-opacity="1" stroke-miterlimit="10"/><path fill="none" stroke="rgb(37,37,37)" paint-order="fill stroke markers" d=" M 35.5 1.5 L 31.5 5.5" stroke-opacity="1" stroke-miterlimit="10"/><path fill="none" stroke="rgb(37,37,37)" paint-order="fill stroke markers" d=" M 35.5 1.5 L 39.5 5.5" stroke-opacity="1" stroke-miterlimit="10"/><path fill="none" stroke="rgb(37,37,37)" paint-order="fill stroke markers" d=" M 0.5 360.5 L 716.5 360.5" stroke-opacity="1" stroke-miterlimit="10"/><path fill="none" stroke="rgb(37,37,37)" paint-order="fill stroke markers" d=" M 717.5 360.5 L 713.5 356.5" stroke-opacity="1" stroke-miterlimit="10"/><path fill="none" stroke="rgb(37,37,37)" paint-order="fill stroke markers" d=" M 717.5 360.5 L 713.5 364.5" stroke-opacity="1" stroke-miterlimit="10"/><text fill="rgb(37,37,37)" stroke="none" font-family="geogebra-sans-serif, sans-serif" font-size="12px" font-style="normal" font-weight="normal" text-decoration="normal" x="127" y="376" text-anchor="start" dominant-baseline="alphabetic" fill-opacity="1">0.1</text><text fill="rgb(37,37,37)" stroke="none" font-family="geogebra-sans-serif, sans-serif" font-size="12px" font-style="normal" font-weight="normal" text-decoration="normal" x="127" y="376" text-anchor="start" dominant-baseline="alphabetic" fill-opacity="1">0.1</text><text fill="rgb(37,37,37)" stroke="none" font-family="geogebra-sans-serif, sans-serif" font-size="12px" font-style="normal" font-weight="normal" text-decoration="normal" x="227" y="376" text-anchor="start" dominant-baseline="alphabetic" fill-opacity="1">0.2</text><text fill="rgb(37,37,37)" stroke="none" font-family="geogebra-sans-serif, sans-serif" font-size="12px" font-style="normal" font-weight="normal" text-decoration="normal" x="227" y="376" text-anchor="start" dominant-baseline="alphabetic" fill-opacity="1">0.2</text><text fill="rgb(37,37,37)" stroke="none" font-family="geogebra-sans-serif, sans-serif" font-size="12px" font-style="normal" font-weight="normal" text-decoration="normal" x="327" y="376" text-anchor="start" dominant-baseline="alphabetic" fill-opacity="1">0.3</text><text fill="rgb(37,37,37)" stroke="none" font-family="geogebra-sans-serif, sans-serif" font-size="12px" font-style="normal" font-weight="normal" text-decoration="normal" x="327" y="376" text-anchor="start" dominant-baseline="alphabetic" fill-opacity="1">0.3</text><text fill="rgb(37,37,37)" stroke="none" font-family="geogebra-sans-serif, sans-serif" font-size="12px" font-style="normal" font-weight="normal" text-decoration="normal" x="427" y="376" text-anchor="start" dominant-baseline="alphabetic" fill-opacity="1">0.4</text><text fill="rgb(37,37,37)" stroke="none" font-family="geogebra-sans-serif, sans-serif" font-size="12px" font-style="normal" font-weight="normal" text-decoration="normal" x="427" y="376" text-anchor="start" dominant-baseline="alphabetic" fill-opacity="1">0.4</text><text fill="rgb(37,37,37)" stroke="none" font-family="geogebra-sans-serif, sans-serif" font-size="12px" font-style="normal" font-weight="normal" text-decoration="normal" x="527" y="376" text-anchor="start" dominant-baseline="alphabetic" fill-opacity="1">0.5</text><text fill="rgb(37,37,37)" stroke="none" font-family="geogebra-sans-serif, sans-serif" font-size="12px" font-style="normal" font-weight="normal" text-decoration="normal" x="527" y="376" text-anchor="start" dominant-baseline="alphabetic" fill-opacity="1">0.5</text><text fill="rgb(37,37,37)" stroke="none" font-family="geogebra-sans-serif, sans-serif" font-size="12px" font-style="normal" font-weight="normal" text-decoration="normal" x="627" y="376" text-anchor="start" dominant-baseline="alphabetic" fill-opacity="1">0.6</text><text fill="rgb(37,37,37)" stroke="none" font-family="geogebra-sans-serif, sans-serif" font-size="12px" font-style="normal" font-weight="normal" text-decoration="normal" x="627" y="376" text-anchor="start" dominant-baseline="alphabetic" fill-opacity="1">0.6</text><text fill="rgb(37,37,37)" stroke="none" font-family="geogebra-sans-serif, sans-serif" font-size="12px" font-style="normal" font-weight="normal" text-decoration="normal" x="9" y="265" text-anchor="start" dominant-baseline="alphabetic" fill-opacity="1">0.1</text><text fill="rgb(37,37,37)" stroke="none" font-family="geogebra-sans-serif, sans-serif" font-size="12px" font-style="normal" font-weight="normal" text-decoration="normal" x="9" y="265" text-anchor="start" dominant-baseline="alphabetic" fill-opacity="1">0.1</text><text fill="rgb(37,37,37)" stroke="none" font-family="geogebra-sans-serif, sans-serif" font-size="12px" font-style="normal" font-weight="normal" text-decoration="normal" x="9" y="165" text-anchor="start" dominant-baseline="alphabetic" fill-opacity="1">0.2</text><text fill="rgb(37,37,37)" stroke="none" font-family="geogebra-sans-serif, sans-serif" font-size="12px" font-style="normal" font-weight="normal" text-decoration="normal" x="9" y="165" text-anchor="start" dominant-baseline="alphabetic" fill-opacity="1">0.2</text><text fill="rgb(37,37,37)" stroke="none" font-family="geogebra-sans-serif, sans-serif" font-size="12px" font-style="normal" font-weight="normal" text-decoration="normal" x="9" y="65" text-anchor="start" dominant-baseline="alphabetic" fill-opacity="1">0.3</text><text fill="rgb(37,37,37)" stroke="none" font-family="geogebra-sans-serif, sans-serif" font-size="12px" font-style="normal" font-weight="normal" text-decoration="normal" x="9" y="65" text-anchor="start" dominant-baseline="alphabetic" fill-opacity="1">0.3</text><text fill="rgb(37,37,37)" stroke="none" font-family="geogebra-sans-serif, sans-serif" font-size="12px" font-style="normal" font-weight="normal" text-decoration="normal" x="20" y="376" text-anchor="start" dominant-baseline="alphabetic" fill-opacity="1">0</text><text fill="rgb(37,37,37)" stroke="none" font-family="geogebra-sans-serif, sans-serif" font-size="12px" font-style="normal" font-weight="normal" text-decoration="normal" x="20" y="376" text-anchor="start" dominant-baseline="alphabetic" fill-opacity="1">0</text><path fill="none" stroke="rgb(204,0,0)" paint-order="fill stroke markers" d=" M 0 411.8628375261499 L 5.6093750000000036 403.4941996931161 L 11.218750000000004 395.21374764486256 L 16.828125000000004 387.02148138138926 L 22.4375 378.9174009026962 L 28.046875 370.9015062087835 L 33.65625 362.9737972996509 L 39.265625 355.13427417529863 L 44.875 347.38293683572664 L 50.484375 339.71978528093484 L 56.09375 332.1448195109233 L 61.703125 324.65803952569206 L 67.3125 317.259445325241 L 72.921875 309.9490369095703 L 78.53125 302.7268142786798 L 84.140625 295.5927774325695 L 89.75 288.5469263712395 L 95.359375 281.58926109468973 L 100.96875 274.71978160292025 L 106.578125 267.938487895931 L 112.1875 261.24537997372204 L 117.796875 254.6404578362933 L 123.40625 248.12372148364483 L 129.015625 241.6951709157766 L 134.625 235.35480613268862 L 140.234375 229.10262713438087 L 145.84375 222.9386339208534 L 151.453125 216.86282649210622 L 157.0625 210.87520484813922 L 162.671875 204.9757689889525 L 168.28125 199.16451891454605 L 173.89062499999997 193.44145462491986 L 179.5 187.8065761200739 L 185.109375 182.25988340000816 L 190.71875 176.80137646472275 L 196.32812499999997 171.43105531421756 L 201.9375 166.14891994849262 L 207.546875 160.9549703675479 L 213.15625 155.84920657138352 L 218.76562499999997 150.8316285599993 L 224.375 145.90223633339542 L 229.984375 141.0610298915717 L 235.59375 136.3080092345283 L 241.20312499999997 131.6431743622651 L 246.8125 127.06652527478221 L 252.421875 122.57806197207955 L 258.03125 118.17778445415718 L 263.640625 113.865692721015 L 269.25 109.64178677265309 L 274.859375 105.50606660907138 L 280.46875 101.45853223027001 L 286.078125 97.49918363624886 L 291.6875 93.62802082700802 L 297.296875 89.84504380254731 L 302.90625 86.15025256286697 L 308.515625 82.54364710796682 L 314.125 79.02522743784687 L 319.734375 75.59499355250733 L 325.34375 72.25294545194794 L 330.953125 68.99908313616879 L 336.5625 65.83340660516996 L 342.171875 62.75591585895137 L 347.78125 59.766610897512976 L 353.390625 56.86549172085489 L 359 54.052558328977 L 364.609375 51.327810721879416 L 370.21875 48.69124889956203 L 375.828125 46.142872862025 L 381.4375 43.68268260926811 L 387.046875 41.310678141291476 L 392.65625 39.0268594580952 L 398.265625 36.83122655967912 L 403.875 34.723779446043295 L 409.484375 32.70451811718766 L 415.09375 30.773442573112334 L 420.703125 28.930552813817314 L 426.3125 27.17584883930249 L 431.921875 25.509330649567914 L 437.53125 23.93099824461359 L 443.140625 22.440851624439574 L 448.75 21.03889078904575 L 454.359375 19.72511573843218 L 459.96875 18.49952647259886 L 465.578125 17.36212299154579 L 471.1875 16.312905295273083 L 476.796875 15.351873383780458 L 482.40625 14.479027257068196 L 488.015625 13.69436691513613 L 493.625 12.99789235798437 L 499.234375 12.38960358561286 L 504.84375 11.869500598021602 L 510.453125 11.437583395210538 L 516.0625 11.093851977179781 L 521.671875 10.838306343929275 L 527.28125 10.67094649545902 L 532.8906250000001 10.591772431769016 L 538.5 10.600784152859262 L 544.109375 10.69798165872976 L 549.7187500000001 10.883364949380507 L 555.328125 11.156934024811505 L 560.9375000000001 11.518688885022755 L 566.5468750000001 11.968629530014255 L 572.15625 12.506755959786005 L 577.7656250000001 13.133068174338064 L 583.375 13.847566173670259 L 588.984375 14.650249957782819 L 594.5937500000001 15.541119526675573 L 600.203125 16.520174880348634 L 605.8125 17.58741601880189 L 611.421875 18.742842942035452 L 617.03125 19.98645565004921 L 622.6406250000001 21.318254142843273 L 628.25 22.73823842041753 L 633.859375 24.246408482772097 L 639.4687500000001 25.842764329906913 L 645.078125 27.527305961821924 L 650.6875000000001 29.30003337851724 L 656.296875 31.160946579992867 L 661.90625 33.11004556624857 L 667.5156250000001 35.1473303372847 L 673.125 37.27280089310102 L 678.734375 39.486457233697536 L 684.3437500000001 41.788299359074415 L 689.953125 44.17832726923143 L 695.5625 46.65654096416881 L 701.171875 49.22294044388639 L 706.78125 51.87752570838421 L 712.3906250000001 54.620296757662345 L 718 57.45125359172067" stroke-opacity="0.6980392156862745" stroke-linecap="round" stroke-linejoin="round" stroke-miterlimit="10" stroke-width="2.5"/><text fill="rgb(204,0,0)" stroke="none" font-family="geogebra-sans-serif, sans-serif" font-size="16px" font-style="normal" font-weight="normal" text-decoration="normal" x="23" y="394" text-anchor="start" dominant-baseline="alphabetic" fill-opacity="1">f</text><text fill="rgb(204,0,0)" stroke="none" font-family="geogebra-sans-serif, sans-serif" font-size="16px" font-style="normal" font-weight="normal" text-decoration="normal" x="23" y="394" text-anchor="start" dominant-baseline="alphabetic" fill-opacity="1">f</text><path fill="none" stroke="rgb(0,0,0)" paint-order="fill stroke markers" d=" M -5 400.8489795795153 L 400.84897957951375 -5" stroke-opacity="0.6980392156862745" stroke-linecap="round" stroke-linejoin="round" stroke-miterlimit="10" stroke-width="2.5"/><text fill="rgb(0,0,0)" stroke="none" font-family="geogebra-sans-serif, sans-serif" font-size="16px" font-style="normal" font-weight="normal" text-decoration="normal" x="8" y="335" text-anchor="start" dominant-baseline="alphabetic" fill-opacity="1">y = x</text><text fill="rgb(0,0,0)" stroke="none" font-family="geogebra-sans-serif, sans-serif" font-size="16px" font-style="normal" font-weight="normal" text-decoration="normal" x="8" y="335" text-anchor="start" dominant-baseline="alphabetic" fill-opacity="1">y = x</text></g></g></svg>