<svg version="1.1" xmlns="http://www.w3.org/2000/svg" xmlns:xlink="http://www.w3.org/1999/xlink" width="891" height="515"><defs><clipPath id="KDKKIVdHUgpy"><path fill="none" stroke="none" d=" M 0 0 L 891 0 L 891 515 L 0 515 L 0 0 Z"/></clipPath></defs><g transform="scale(1,1)" clip-path="url(#KDKKIVdHUgpy)"><g><rect fill="rgb(255,255,255)" stroke="none" x="0" y="0" width="892" height="515" fill-opacity="1"/><path fill="none" stroke="rgb(192,192,192)" paint-order="fill stroke markers" d=" M 15.5 0.5 L 15.5 515.5 M 15.5 0.5 L 15.5 515.5 M 87.5 0.5 L 87.5 515.5 M 160.5 0.5 L 160.5 515.5 M 232.5 0.5 L 232.5 515.5 M 304.5 0.5 L 304.5 515.5 M 377.5 0.5 L 377.5 515.5 M 449.5 0.5 L 449.5 515.5 M 521.5 0.5 L 521.5 515.5 M 594.5 0.5 L 594.5 515.5 M 666.5 0.5 L 666.5 515.5 M 738.5 0.5 L 738.5 515.5 M 811.5 0.5 L 811.5 515.5 M 883.5 0.5 L 883.5 515.5" stroke-opacity="1" stroke-linecap="round" stroke-linejoin="round" stroke-miterlimit="10"/><path fill="none" stroke="rgb(192,192,192)" paint-order="fill stroke markers" d=" M 0.5 0.5 L 0.5 515.5 M 29.5 0.5 L 29.5 515.5 M 44.5 0.5 L 44.5 515.5 M 58.5 0.5 L 58.5 515.5 M 73.5 0.5 L 73.5 515.5 M 102.5 0.5 L 102.5 515.5 M 116.5 0.5 L 116.5 515.5 M 131.5 0.5 L 131.5 515.5 M 145.5 0.5 L 145.5 515.5 M 174.5 0.5 L 174.5 515.5 M 189.5 0.5 L 189.5 515.5 M 203.5 0.5 L 203.5 515.5 M 218.5 0.5 L 218.5 515.5 M 246.5 0.5 L 246.5 515.5 M 261.5 0.5 L 261.5 515.5 M 275.5 0.5 L 275.5 515.5 M 290.5 0.5 L 290.5 515.5 M 319.5 0.5 L 319.5 515.5 M 333.5 0.5 L 333.5 515.5 M 348.5 0.5 L 348.5 515.5 M 362.5 0.5 L 362.5 515.5 M 391.5 0.5 L 391.5 515.5 M 406.5 0.5 L 406.5 515.5 M 420.5 0.5 L 420.5 515.5 M 435.5 0.5 L 435.5 515.5 M 464.5 0.5 L 464.5 515.5 M 478.5 0.5 L 478.5 515.5 M 492.5 0.5 L 492.5 515.5 M 507.5 0.5 L 507.5 515.5 M 536.5 0.5 L 536.5 515.5 M 550.5 0.5 L 550.5 515.5 M 565.5 0.5 L 565.5 515.5 M 579.5 0.5 L 579.5 515.5 M 608.5 0.5 L 608.5 515.5 M 623.5 0.5 L 623.5 515.5 M 637.5 0.5 L 637.5 515.5 M 652.5 0.5 L 652.5 515.5 M 681.5 0.5 L 681.5 515.5 M 695.5 0.5 L 695.5 515.5 M 710.5 0.5 L 710.5 515.5 M 724.5 0.5 L 724.5 515.5 M 753.5 0.5 L 753.5 515.5 M 767.5 0.5 L 767.5 515.5 M 782.5 0.5 L 782.5 515.5 M 796.5 0.5 L 796.5 515.5 M 825.5 0.5 L 825.5 515.5 M 840.5 0.5 L 840.5 515.5 M 854.5 0.5 L 854.5 515.5 M 869.5 0.5 L 869.5 515.5" stroke-opacity="0.23529411764705882" stroke-linecap="round" stroke-linejoin="round" stroke-miterlimit="10"/><path fill="none" stroke="rgb(192,192,192)" paint-order="fill stroke markers" d=" M 0.5 37.5 L 891.5 37.5 M 0.5 37.5 L 891.5 37.5 M 0.5 109.5 L 891.5 109.5 M 0.5 181.5 L 891.5 181.5 M 0.5 254.5 L 891.5 254.5 M 0.5 326.5 L 891.5 326.5 M 0.5 398.5 L 891.5 398.5 M 0.5 471.5 L 891.5 471.5" stroke-opacity="1" stroke-linecap="round" stroke-linejoin="round" stroke-miterlimit="10"/><path fill="none" stroke="rgb(192,192,192)" paint-order="fill stroke markers" d=" M 0.5 8.5 L 891.5 8.5 M 0.5 8.5 L 891.5 8.5 M 0.5 22.5 L 891.5 22.5 M 0.5 51.5 L 891.5 51.5 M 0.5 66.5 L 891.5 66.5 M 0.5 80.5 L 891.5 80.5 M 0.5 95.5 L 891.5 95.5 M 0.5 123.5 L 891.5 123.5 M 0.5 138.5 L 891.5 138.5 M 0.5 152.5 L 891.5 152.5 M 0.5 167.5 L 891.5 167.5 M 0.5 196.5 L 891.5 196.5 M 0.5 210.5 L 891.5 210.5 M 0.5 225.5 L 891.5 225.5 M 0.5 239.5 L 891.5 239.5 M 0.5 268.5 L 891.5 268.5 M 0.5 283.5 L 891.5 283.5 M 0.5 297.5 L 891.5 297.5 M 0.5 312.5 L 891.5 312.5 M 0.5 341.5 L 891.5 341.5 M 0.5 355.5 L 891.5 355.5 M 0.5 369.5 L 891.5 369.5 M 0.5 384.5 L 891.5 384.5 M 0.5 413.5 L 891.5 413.5 M 0.5 427.5 L 891.5 427.5 M 0.5 442.5 L 891.5 442.5 M 0.5 456.5 L 891.5 456.5 M 0.5 485.5 L 891.5 485.5 M 0.5 500.5 L 891.5 500.5 M 0.5 514.5 L 891.5 514.5" stroke-opacity="0.23529411764705882" stroke-linecap="round" stroke-linejoin="round" stroke-miterlimit="10"/><path fill="none" stroke="rgb(0,0,0)" paint-order="fill stroke markers" d=" M 377.1817277123358 181.85387364480994 C 377.1817277123358 261.77405992085187 312.39361577712447 326.5621718560634 232.47342950108273 326.5621718560634 C 152.55324322504097 326.5621718560634 87.76513128982964 261.77405992085187 87.76513128982964 181.85387364480994 C 87.76513128982964 101.93368736876799 152.55324322504097 37.1455754335565 232.47342950108273 37.1455754335565 C 312.39361577712447 37.1455754335565 377.1817277123358 101.93368736876799 377.1817277123358 181.85387364480994 Z" stroke-opacity="0.6980392156862745" stroke-linecap="round" stroke-linejoin="round" stroke-miterlimit="10" stroke-width="2.5"/><path fill="none" stroke="rgb(0,0,0)" paint-order="fill stroke markers" d=" M 666.5983241348421 109.49972453918326 C 666.5983241348421 149.45981767720423 634.2042681672364 181.85387364481 594.2441750292155 181.85387364481 C 554.2840818911947 181.85387364481 521.890025923589 149.45981767720423 521.890025923589 109.49972453918326 C 521.890025923589 69.5396314011623 554.2840818911947 37.145575433556544 594.2441750292155 37.145575433556544 C 634.2042681672364 37.145575433556544 666.5983241348421 69.5396314011623 666.5983241348421 109.49972453918326 Z" stroke-opacity="0.6980392156862745" stroke-linecap="round" stroke-linejoin="round" stroke-miterlimit="10" stroke-width="2.5"/><path fill="none" stroke="rgb(0,0,0)" paint-order="fill stroke markers" d=" M 666.5983241348421 398.9163209616901 C 666.5983241348421 438.87641409971104 634.2042681672364 471.27047006731675 594.2441750292155 471.27047006731675 C 554.2840818911947 471.27047006731675 521.890025923589 438.87641409971104 521.890025923589 398.9163209616901 C 521.890025923589 358.9562278236691 554.2840818911947 326.56217185606334 594.2441750292155 326.56217185606334 C 634.2042681672364 326.56217185606334 666.5983241348421 358.9562278236691 666.5983241348421 398.9163209616901 Z" stroke-opacity="0.6980392156862745" stroke-linecap="round" stroke-linejoin="round" stroke-miterlimit="10" stroke-width="2.5"/><path fill="none" stroke="rgb(153,102,0)" paint-order="fill stroke markers" d=" M 232.47342950108273 37.1455754335565 C 162.90228328998646 37.1455754335565 103.17767593517755 86.65280187485847 90.27540363124515 155.0170890028681 C 77.37313132731282 223.38137613087767 114.94536117208203 291.2512644326002 179.7309421116299 316.60817448589796" stroke-opacity="0.6980392156862745" stroke-linecap="round" stroke-linejoin="round" stroke-miterlimit="10" stroke-width="6.5"/><path fill="none" stroke="rgb(153,102,0)" paint-order="fill stroke markers" d=" M 666.5983241348421 109.49972453918326 C 666.5983241348421 69.5396314011623 634.2042681672364 37.145575433556544 594.2441750292155 37.145575433556544" stroke-opacity="0.6980392156862745" stroke-linecap="round" stroke-linejoin="round" stroke-miterlimit="10" stroke-width="6.5"/><path fill="none" stroke="rgb(153,102,0)" paint-order="fill stroke markers" d=" M 578.2841381252267 472.6008721851166 C 600.5648542724504 477.4268641475123 623.8327590599985 471.91201996157633 641.5773424661289 457.599428644937 C 659.3219258722594 443.2868373282977 669.6373833902769 421.7137004263185 669.6373833902769 398.9163209616901" stroke-opacity="0.6980392156862745" stroke-linecap="round" stroke-linejoin="round" stroke-miterlimit="10" stroke-width="6.5"/><path fill="rgb(0,100,0)" stroke="none" paint-order="stroke fill markers" d=" M 232.47342950108273 151.85387364481 C 218.05038388357454 151.85387364481 205.66865980284086 162.1173955823761 202.993843127484 176.29024288409903 C 200.31902645212716 190.463090185822 208.10826113511388 204.53344188105973 221.5391939303369 209.79027449537472 L 232.47342950108273 181.85387364480994 Z" fill-opacity="0.09803921568627451"/><path fill="none" stroke="rgb(0,100,0)" paint-order="fill stroke markers" d=" M 232.47342950108273 151.85387364481 C 218.05038388357454 151.85387364481 205.66865980284086 162.1173955823761 202.993843127484 176.29024288409903 C 200.31902645212716 190.463090185822 208.10826113511388 204.53344188105973 221.5391939303369 209.79027449537472 L 232.47342950108273 181.85387364480994 Z" stroke-opacity="0.6980392156862745" stroke-linecap="round" stroke-linejoin="round" stroke-miterlimit="10" stroke-width="2.5"/><text fill="rgb(0,100,0)" stroke="none" font-family="geogebra-sans-serif, sans-serif" font-size="16px" font-style="normal" font-weight="normal" text-decoration="normal" x="242" y="206" text-anchor="start" dominant-baseline="alphabetic" fill-opacity="1">α = 159°</text><text fill="none" stroke="rgb(255,255,255)" font-family="geogebra-sans-serif, sans-serif" font-size="16px" font-style="normal" font-weight="normal" text-decoration="normal" x="242" y="206" text-anchor="start" dominant-baseline="alphabetic" stroke-opacity="1" stroke-linejoin="bevel" stroke-miterlimit="10" stroke-width="3">α = 159°</text><text fill="rgb(0,100,0)" stroke="none" font-family="geogebra-sans-serif, sans-serif" font-size="16px" font-style="normal" font-weight="normal" text-decoration="normal" x="242" y="206" text-anchor="start" dominant-baseline="alphabetic" fill-opacity="1">α = 159°</text><path fill="rgb(0,100,0)" stroke="none" paint-order="stroke fill markers" d=" M 587.8934556802435 428.23642266258116 C 596.7592606903661 430.15675158900797 606.0178817094306 427.962318838703 613.0786967849017 422.26714086666516 C 620.1395118603727 416.5719628946273 624.2441750292153 407.98771344924046 624.2441750292153 398.9163209616901 L 594.2441750292155 398.9163209616901 Z" fill-opacity="0.09803921568627451"/><path fill="none" stroke="rgb(0,100,0)" paint-order="fill stroke markers" d=" M 587.8934556802435 428.23642266258116 C 596.7592606903661 430.15675158900797 606.0178817094306 427.962318838703 613.0786967849017 422.26714086666516 C 620.1395118603727 416.5719628946273 624.2441750292153 407.98771344924046 624.2441750292153 398.9163209616901 L 594.2441750292155 398.9163209616901 Z" stroke-opacity="0.6980392156862745" stroke-linecap="round" stroke-linejoin="round" stroke-miterlimit="10" stroke-width="2.5"/><text fill="rgb(0,100,0)" stroke="none" font-family="geogebra-sans-serif, sans-serif" font-size="16px" font-style="normal" font-weight="normal" text-decoration="normal" x="551" y="383" text-anchor="start" dominant-baseline="alphabetic" fill-opacity="1">β = 102°</text><text fill="none" stroke="rgb(255,255,255)" font-family="geogebra-sans-serif, sans-serif" font-size="16px" font-style="normal" font-weight="normal" text-decoration="normal" x="551" y="383" text-anchor="start" dominant-baseline="alphabetic" stroke-opacity="1" stroke-linejoin="bevel" stroke-miterlimit="10" stroke-width="3">β = 102°</text><text fill="rgb(0,100,0)" stroke="none" font-family="geogebra-sans-serif, sans-serif" font-size="16px" font-style="normal" font-weight="normal" text-decoration="normal" x="551" y="383" text-anchor="start" dominant-baseline="alphabetic" fill-opacity="1">β = 102°</text><path fill="rgb(0,100,0)" stroke="none" paint-order="stroke fill markers" fill-rule="evenodd" d=" M 594.2441750292155 109.49972453918326 L 615.4573784648105 109.49972453918326 L 615.4573784648119 88.28652110358678 L 594.2441750292155 88.2865211035882 L 594.2441750292155 109.49972453918326" fill-opacity="0.09803921568627451"/><path fill="none" stroke="rgb(0,100,0)" paint-order="fill stroke markers" d=" M 594.2441750292155 109.49972453918326 L 615.4573784648105 109.49972453918326 L 615.4573784648119 88.28652110358678 L 594.2441750292155 88.2865211035882 L 594.2441750292155 109.49972453918326" stroke-opacity="0.6980392156862745" stroke-linecap="round" stroke-linejoin="round" stroke-miterlimit="10" stroke-width="2.5"/><text fill="rgb(0,100,0)" stroke="none" font-family="geogebra-sans-serif, sans-serif" font-size="16px" font-style="normal" font-weight="normal" text-decoration="normal" x="566" y="126" text-anchor="start" dominant-baseline="alphabetic" fill-opacity="1">γ = 90°</text><text fill="none" stroke="rgb(255,255,255)" font-family="geogebra-sans-serif, sans-serif" font-size="16px" font-style="normal" font-weight="normal" text-decoration="normal" x="566" y="126" text-anchor="start" dominant-baseline="alphabetic" stroke-opacity="1" stroke-linejoin="bevel" stroke-miterlimit="10" stroke-width="3">γ = 90°</text><text fill="rgb(0,100,0)" stroke="none" font-family="geogebra-sans-serif, sans-serif" font-size="16px" font-style="normal" font-weight="normal" text-decoration="normal" x="566" y="126" text-anchor="start" dominant-baseline="alphabetic" fill-opacity="1">γ = 90°</text><path fill="none" stroke="rgb(96,96,96)" paint-order="fill stroke markers" d=" M 232.47342950108273 181.85387364480994 L 232.47342950108273 37.14557543355653" stroke-opacity="0.6980392156862745" stroke-linejoin="round" stroke-miterlimit="10" stroke-width="2.5" stroke-dasharray="6.5,4"/><path fill="none" stroke="rgb(96,96,96)" paint-order="fill stroke markers" d=" M 232.47342950108273 181.85387364480994 L 179.73094211162976 316.6081744858979" stroke-opacity="0.6980392156862745" stroke-linejoin="round" stroke-miterlimit="10" stroke-width="2.5" stroke-dasharray="6.5,4"/><path fill="none" stroke="rgb(96,96,96)" paint-order="fill stroke markers" d=" M 594.2441750292155 398.9163209616901 L 578.2841381252267 472.6008721851166" stroke-opacity="0.6980392156862745" stroke-linejoin="round" stroke-miterlimit="10" stroke-width="2.5" stroke-dasharray="6.5,4"/><path fill="none" stroke="rgb(96,96,96)" paint-order="fill stroke markers" d=" M 594.2441750292155 398.9163209616901 L 666.598324134842 398.9163209616901" stroke-opacity="0.6980392156862745" stroke-linejoin="round" stroke-miterlimit="10" stroke-width="2.5" stroke-dasharray="6.5,4"/><path fill="none" stroke="rgb(96,96,96)" paint-order="fill stroke markers" d=" M 594.2441750292155 109.49972453918326 L 666.598324134842 109.49972453918326" stroke-opacity="0.6980392156862745" stroke-linejoin="round" stroke-miterlimit="10" stroke-width="2.5" stroke-dasharray="6.5,4"/><path fill="none" stroke="rgb(96,96,96)" paint-order="fill stroke markers" d=" M 594.2441750292155 109.49972453918326 L 594.2441750292155 37.14557543355653" stroke-opacity="0.6980392156862745" stroke-linejoin="round" stroke-miterlimit="10" stroke-width="2.5" stroke-dasharray="6.5,4"/><path fill="none" stroke="rgb(153,102,0)" paint-order="fill stroke markers" d=" M 232.47342950108273 37.14557543355653 L 594.2441750292155 37.14557543355653" stroke-opacity="0.6980392156862745" stroke-linecap="round" stroke-linejoin="round" stroke-miterlimit="10" stroke-width="6.5"/><path fill="none" stroke="rgb(153,102,0)" paint-order="fill stroke markers" d=" M 666.598324134842 109.49972453918326 L 666.598324134842 398.9163209616901" stroke-opacity="0.6980392156862745" stroke-linecap="round" stroke-linejoin="round" stroke-miterlimit="10" stroke-width="6.5"/><path fill="none" stroke="rgb(153,102,0)" paint-order="fill stroke markers" d=" M 578.2841381252267 472.6008721851166 L 179.73094211162976 316.6081744858979" stroke-opacity="0.6980392156862745" stroke-linecap="round" stroke-linejoin="round" stroke-miterlimit="10" stroke-width="6.5"/><path fill="rgb(77,77,255)" stroke="none" paint-order="stroke fill markers" d=" M 237.47342950108273 181.85387364480994 C 237.47342950108273 184.6152973939639 235.2348532502367 186.85387364480994 232.47342950108273 186.85387364480994 C 229.71200575192876 186.85387364480994 227.47342950108273 184.6152973939639 227.47342950108273 181.85387364480994 C 227.47342950108273 179.09244989565596 229.71200575192876 176.85387364480994 232.47342950108273 176.85387364480994 C 235.2348532502367 176.85387364480994 237.47342950108273 179.09244989565596 237.47342950108273 181.85387364480994 Z" fill-opacity="1"/><path fill="none" stroke="rgb(0,0,0)" paint-order="fill stroke markers" d=" M 237.47342950108273 181.85387364480994 C 237.47342950108273 184.6152973939639 235.2348532502367 186.85387364480994 232.47342950108273 186.85387364480994 C 229.71200575192876 186.85387364480994 227.47342950108273 184.6152973939639 227.47342950108273 181.85387364480994 C 227.47342950108273 179.09244989565596 229.71200575192876 176.85387364480994 232.47342950108273 176.85387364480994 C 235.2348532502367 176.85387364480994 237.47342950108273 179.09244989565596 237.47342950108273 181.85387364480994 Z" stroke-opacity="1" stroke-linecap="round" stroke-linejoin="round" stroke-miterlimit="10"/><text fill="rgb(77,77,255)" stroke="none" font-family="geogebra-sans-serif, sans-serif" font-size="16px" font-style="normal" font-weight="normal" text-decoration="normal" x="236" y="172" text-anchor="start" dominant-baseline="alphabetic" fill-opacity="1">A</text><text fill="none" stroke="rgb(255,255,255)" font-family="geogebra-sans-serif, sans-serif" font-size="16px" font-style="normal" font-weight="normal" text-decoration="normal" x="236" y="172" text-anchor="start" dominant-baseline="alphabetic" stroke-opacity="1" stroke-linejoin="bevel" stroke-miterlimit="10" stroke-width="3">A</text><text fill="rgb(77,77,255)" stroke="none" font-family="geogebra-sans-serif, sans-serif" font-size="16px" font-style="normal" font-weight="normal" text-decoration="normal" x="236" y="172" text-anchor="start" dominant-baseline="alphabetic" fill-opacity="1">A</text><path fill="rgb(77,77,255)" stroke="none" paint-order="stroke fill markers" d=" M 237.47342950108273 37.14557543355653 C 237.47342950108273 39.90699918271049 235.2348532502367 42.14557543355653 232.47342950108273 42.14557543355653 C 229.71200575192876 42.14557543355653 227.47342950108273 39.90699918271049 227.47342950108273 37.14557543355653 C 227.47342950108273 34.38415168440256 229.71200575192876 32.14557543355653 232.47342950108273 32.14557543355653 C 235.2348532502367 32.14557543355653 237.47342950108273 34.38415168440256 237.47342950108273 37.14557543355653 Z" fill-opacity="1"/><path fill="none" stroke="rgb(0,0,0)" paint-order="fill stroke markers" d=" M 237.47342950108273 37.14557543355653 C 237.47342950108273 39.90699918271049 235.2348532502367 42.14557543355653 232.47342950108273 42.14557543355653 C 229.71200575192876 42.14557543355653 227.47342950108273 39.90699918271049 227.47342950108273 37.14557543355653 C 227.47342950108273 34.38415168440256 229.71200575192876 32.14557543355653 232.47342950108273 32.14557543355653 C 235.2348532502367 32.14557543355653 237.47342950108273 34.38415168440256 237.47342950108273 37.14557543355653 Z" stroke-opacity="1" stroke-linecap="round" stroke-linejoin="round" stroke-miterlimit="10"/><text fill="rgb(77,77,255)" stroke="none" font-family="geogebra-sans-serif, sans-serif" font-size="16px" font-style="normal" font-weight="normal" text-decoration="normal" x="236" y="27" text-anchor="start" dominant-baseline="alphabetic" fill-opacity="1">D</text><text fill="none" stroke="rgb(255,255,255)" font-family="geogebra-sans-serif, sans-serif" font-size="16px" font-style="normal" font-weight="normal" text-decoration="normal" x="236" y="27" text-anchor="start" dominant-baseline="alphabetic" stroke-opacity="1" stroke-linejoin="bevel" stroke-miterlimit="10" stroke-width="3">D</text><text fill="rgb(77,77,255)" stroke="none" font-family="geogebra-sans-serif, sans-serif" font-size="16px" font-style="normal" font-weight="normal" text-decoration="normal" x="236" y="27" text-anchor="start" dominant-baseline="alphabetic" fill-opacity="1">D</text><path fill="rgb(77,77,255)" stroke="none" paint-order="stroke fill markers" d=" M 599.2441750292155 109.49972453918326 C 599.2441750292155 112.26114828833722 597.0055987783695 114.49972453918326 594.2441750292155 114.49972453918326 C 591.4827512800615 114.49972453918326 589.2441750292155 112.26114828833722 589.2441750292155 109.49972453918326 C 589.2441750292155 106.7383007900293 591.4827512800615 104.49972453918326 594.2441750292155 104.49972453918326 C 597.0055987783695 104.49972453918326 599.2441750292155 106.7383007900293 599.2441750292155 109.49972453918326 Z" fill-opacity="1"/><path fill="none" stroke="rgb(0,0,0)" paint-order="fill stroke markers" d=" M 599.2441750292155 109.49972453918326 C 599.2441750292155 112.26114828833722 597.0055987783695 114.49972453918326 594.2441750292155 114.49972453918326 C 591.4827512800615 114.49972453918326 589.2441750292155 112.26114828833722 589.2441750292155 109.49972453918326 C 589.2441750292155 106.7383007900293 591.4827512800615 104.49972453918326 594.2441750292155 104.49972453918326 C 597.0055987783695 104.49972453918326 599.2441750292155 106.7383007900293 599.2441750292155 109.49972453918326 Z" stroke-opacity="1" stroke-linecap="round" stroke-linejoin="round" stroke-miterlimit="10"/><text fill="rgb(77,77,255)" stroke="none" font-family="geogebra-sans-serif, sans-serif" font-size="16px" font-style="normal" font-weight="normal" text-decoration="normal" x="578" y="101" text-anchor="start" dominant-baseline="alphabetic" fill-opacity="1">B</text><text fill="none" stroke="rgb(255,255,255)" font-family="geogebra-sans-serif, sans-serif" font-size="16px" font-style="normal" font-weight="normal" text-decoration="normal" x="578" y="101" text-anchor="start" dominant-baseline="alphabetic" stroke-opacity="1" stroke-linejoin="bevel" stroke-miterlimit="10" stroke-width="3">B</text><text fill="rgb(77,77,255)" stroke="none" font-family="geogebra-sans-serif, sans-serif" font-size="16px" font-style="normal" font-weight="normal" text-decoration="normal" x="578" y="101" text-anchor="start" dominant-baseline="alphabetic" fill-opacity="1">B</text><path fill="rgb(77,77,255)" stroke="none" paint-order="stroke fill markers" d=" M 599.2441750292155 37.14557543355653 C 599.2441750292155 39.90699918271049 597.0055987783695 42.14557543355653 594.2441750292155 42.14557543355653 C 591.4827512800615 42.14557543355653 589.2441750292155 39.90699918271049 589.2441750292155 37.14557543355653 C 589.2441750292155 34.38415168440256 591.4827512800615 32.14557543355653 594.2441750292155 32.14557543355653 C 597.0055987783695 32.14557543355653 599.2441750292155 34.38415168440256 599.2441750292155 37.14557543355653 Z" fill-opacity="1"/><path fill="none" stroke="rgb(0,0,0)" paint-order="fill stroke markers" d=" M 599.2441750292155 37.14557543355653 C 599.2441750292155 39.90699918271049 597.0055987783695 42.14557543355653 594.2441750292155 42.14557543355653 C 591.4827512800615 42.14557543355653 589.2441750292155 39.90699918271049 589.2441750292155 37.14557543355653 C 589.2441750292155 34.38415168440256 591.4827512800615 32.14557543355653 594.2441750292155 32.14557543355653 C 597.0055987783695 32.14557543355653 599.2441750292155 34.38415168440256 599.2441750292155 37.14557543355653 Z" stroke-opacity="1" stroke-linecap="round" stroke-linejoin="round" stroke-miterlimit="10"/><text fill="rgb(77,77,255)" stroke="none" font-family="geogebra-sans-serif, sans-serif" font-size="16px" font-style="normal" font-weight="normal" text-decoration="normal" x="598" y="27" text-anchor="start" dominant-baseline="alphabetic" fill-opacity="1">F</text><text fill="none" stroke="rgb(255,255,255)" font-family="geogebra-sans-serif, sans-serif" font-size="16px" font-style="normal" font-weight="normal" text-decoration="normal" x="598" y="27" text-anchor="start" dominant-baseline="alphabetic" stroke-opacity="1" stroke-linejoin="bevel" stroke-miterlimit="10" stroke-width="3">F</text><text fill="rgb(77,77,255)" stroke="none" font-family="geogebra-sans-serif, sans-serif" font-size="16px" font-style="normal" font-weight="normal" text-decoration="normal" x="598" y="27" text-anchor="start" dominant-baseline="alphabetic" fill-opacity="1">F</text><path fill="rgb(77,77,255)" stroke="none" paint-order="stroke fill markers" d=" M 599.2441750292155 398.9163209616901 C 599.2441750292155 401.677744710844 597.0055987783695 403.9163209616901 594.2441750292155 403.9163209616901 C 591.4827512800615 403.9163209616901 589.2441750292155 401.677744710844 589.2441750292155 398.9163209616901 C 589.2441750292155 396.1548972125361 591.4827512800615 393.9163209616901 594.2441750292155 393.9163209616901 C 597.0055987783695 393.9163209616901 599.2441750292155 396.1548972125361 599.2441750292155 398.9163209616901 Z" fill-opacity="1"/><path fill="none" stroke="rgb(0,0,0)" paint-order="fill stroke markers" d=" M 599.2441750292155 398.9163209616901 C 599.2441750292155 401.677744710844 597.0055987783695 403.9163209616901 594.2441750292155 403.9163209616901 C 591.4827512800615 403.9163209616901 589.2441750292155 401.677744710844 589.2441750292155 398.9163209616901 C 589.2441750292155 396.1548972125361 591.4827512800615 393.9163209616901 594.2441750292155 393.9163209616901 C 597.0055987783695 393.9163209616901 599.2441750292155 396.1548972125361 599.2441750292155 398.9163209616901 Z" stroke-opacity="1" stroke-linecap="round" stroke-linejoin="round" stroke-miterlimit="10"/><text fill="rgb(77,77,255)" stroke="none" font-family="geogebra-sans-serif, sans-serif" font-size="16px" font-style="normal" font-weight="normal" text-decoration="normal" x="570" y="405" text-anchor="start" dominant-baseline="alphabetic" fill-opacity="1">C</text><text fill="none" stroke="rgb(255,255,255)" font-family="geogebra-sans-serif, sans-serif" font-size="16px" font-style="normal" font-weight="normal" text-decoration="normal" x="570" y="405" text-anchor="start" dominant-baseline="alphabetic" stroke-opacity="1" stroke-linejoin="bevel" stroke-miterlimit="10" stroke-width="3">C</text><text fill="rgb(77,77,255)" stroke="none" font-family="geogebra-sans-serif, sans-serif" font-size="16px" font-style="normal" font-weight="normal" text-decoration="normal" x="570" y="405" text-anchor="start" dominant-baseline="alphabetic" fill-opacity="1">C</text><path fill="rgb(125,125,255)" stroke="none" paint-order="stroke fill markers" d=" M 184.73094211162976 316.6081744858979 C 184.73094211162976 319.36959823505185 182.49236586078374 321.6081744858979 179.73094211162976 321.6081744858979 C 176.96951836247578 321.6081744858979 174.73094211162976 319.36959823505185 174.73094211162976 316.6081744858979 C 174.73094211162976 313.84675073674396 176.96951836247578 311.6081744858979 179.73094211162976 311.6081744858979 C 182.49236586078374 311.6081744858979 184.73094211162976 313.84675073674396 184.73094211162976 316.6081744858979 Z" fill-opacity="1"/><path fill="none" stroke="rgb(0,0,0)" paint-order="fill stroke markers" d=" M 184.73094211162976 316.6081744858979 C 184.73094211162976 319.36959823505185 182.49236586078374 321.6081744858979 179.73094211162976 321.6081744858979 C 176.96951836247578 321.6081744858979 174.73094211162976 319.36959823505185 174.73094211162976 316.6081744858979 C 174.73094211162976 313.84675073674396 176.96951836247578 311.6081744858979 179.73094211162976 311.6081744858979 C 182.49236586078374 311.6081744858979 184.73094211162976 313.84675073674396 184.73094211162976 316.6081744858979 Z" stroke-opacity="1" stroke-linecap="round" stroke-linejoin="round" stroke-miterlimit="10"/><text fill="rgb(125,125,255)" stroke="none" font-family="geogebra-sans-serif, sans-serif" font-size="16px" font-style="normal" font-weight="normal" text-decoration="normal" x="170" y="338" text-anchor="start" dominant-baseline="alphabetic" fill-opacity="1">E</text><text fill="none" stroke="rgb(255,255,255)" font-family="geogebra-sans-serif, sans-serif" font-size="16px" font-style="normal" font-weight="normal" text-decoration="normal" x="170" y="338" text-anchor="start" dominant-baseline="alphabetic" stroke-opacity="1" stroke-linejoin="bevel" stroke-miterlimit="10" stroke-width="3">E</text><text fill="rgb(125,125,255)" stroke="none" font-family="geogebra-sans-serif, sans-serif" font-size="16px" font-style="normal" font-weight="normal" text-decoration="normal" x="170" y="338" text-anchor="start" dominant-baseline="alphabetic" fill-opacity="1">E</text><path fill="rgb(125,125,255)" stroke="none" paint-order="stroke fill markers" d=" M 583.2841381252267 472.6008721851166 C 583.2841381252267 475.36229593427055 581.0455618743807 477.6008721851166 578.2841381252267 477.6008721851166 C 575.5227143760727 477.6008721851166 573.2841381252267 475.36229593427055 573.2841381252267 472.6008721851166 C 573.2841381252267 469.83944843596265 575.5227143760727 467.6008721851166 578.2841381252267 467.6008721851166 C 581.0455618743807 467.6008721851166 583.2841381252267 469.83944843596265 583.2841381252267 472.6008721851166 Z" fill-opacity="1"/><path fill="none" stroke="rgb(0,0,0)" paint-order="fill stroke markers" d=" M 583.2841381252267 472.6008721851166 C 583.2841381252267 475.36229593427055 581.0455618743807 477.6008721851166 578.2841381252267 477.6008721851166 C 575.5227143760727 477.6008721851166 573.2841381252267 475.36229593427055 573.2841381252267 472.6008721851166 C 573.2841381252267 469.83944843596265 575.5227143760727 467.6008721851166 578.2841381252267 467.6008721851166 C 581.0455618743807 467.6008721851166 583.2841381252267 469.83944843596265 583.2841381252267 472.6008721851166 Z" stroke-opacity="1" stroke-linecap="round" stroke-linejoin="round" stroke-miterlimit="10"/><text fill="rgb(125,125,255)" stroke="none" font-family="geogebra-sans-serif, sans-serif" font-size="16px" font-style="normal" font-weight="normal" text-decoration="normal" x="569" y="496" text-anchor="start" dominant-baseline="alphabetic" fill-opacity="1">I</text><text fill="none" stroke="rgb(255,255,255)" font-family="geogebra-sans-serif, sans-serif" font-size="16px" font-style="normal" font-weight="normal" text-decoration="normal" x="569" y="496" text-anchor="start" dominant-baseline="alphabetic" stroke-opacity="1" stroke-linejoin="bevel" stroke-miterlimit="10" stroke-width="3">I</text><text fill="rgb(125,125,255)" stroke="none" font-family="geogebra-sans-serif, sans-serif" font-size="16px" font-style="normal" font-weight="normal" text-decoration="normal" x="569" y="496" text-anchor="start" dominant-baseline="alphabetic" fill-opacity="1">I</text><path fill="rgb(125,125,255)" stroke="none" paint-order="stroke fill markers" d=" M 671.598324134842 398.9163209616901 C 671.598324134842 401.677744710844 669.359747883996 403.9163209616901 666.598324134842 403.9163209616901 C 663.836900385688 403.9163209616901 661.598324134842 401.677744710844 661.598324134842 398.9163209616901 C 661.598324134842 396.1548972125361 663.836900385688 393.9163209616901 666.598324134842 393.9163209616901 C 669.359747883996 393.9163209616901 671.598324134842 396.1548972125361 671.598324134842 398.9163209616901 Z" fill-opacity="1"/><path fill="none" stroke="rgb(0,0,0)" paint-order="fill stroke markers" d=" M 671.598324134842 398.9163209616901 C 671.598324134842 401.677744710844 669.359747883996 403.9163209616901 666.598324134842 403.9163209616901 C 663.836900385688 403.9163209616901 661.598324134842 401.677744710844 661.598324134842 398.9163209616901 C 661.598324134842 396.1548972125361 663.836900385688 393.9163209616901 666.598324134842 393.9163209616901 C 669.359747883996 393.9163209616901 671.598324134842 396.1548972125361 671.598324134842 398.9163209616901 Z" stroke-opacity="1" stroke-linecap="round" stroke-linejoin="round" stroke-miterlimit="10"/><text fill="rgb(125,125,255)" stroke="none" font-family="geogebra-sans-serif, sans-serif" font-size="16px" font-style="normal" font-weight="normal" text-decoration="normal" x="671" y="389" text-anchor="start" dominant-baseline="alphabetic" fill-opacity="1">H</text><text fill="none" stroke="rgb(255,255,255)" font-family="geogebra-sans-serif, sans-serif" font-size="16px" font-style="normal" font-weight="normal" text-decoration="normal" x="671" y="389" text-anchor="start" dominant-baseline="alphabetic" stroke-opacity="1" stroke-linejoin="bevel" stroke-miterlimit="10" stroke-width="3">H</text><text fill="rgb(125,125,255)" stroke="none" font-family="geogebra-sans-serif, sans-serif" font-size="16px" font-style="normal" font-weight="normal" text-decoration="normal" x="671" y="389" text-anchor="start" dominant-baseline="alphabetic" fill-opacity="1">H</text><path fill="rgb(125,125,255)" stroke="none" paint-order="stroke fill markers" d=" M 671.598324134842 109.49972453918326 C 671.598324134842 112.26114828833722 669.359747883996 114.49972453918326 666.598324134842 114.49972453918326 C 663.836900385688 114.49972453918326 661.598324134842 112.26114828833722 661.598324134842 109.49972453918326 C 661.598324134842 106.7383007900293 663.836900385688 104.49972453918326 666.598324134842 104.49972453918326 C 669.359747883996 104.49972453918326 671.598324134842 106.7383007900293 671.598324134842 109.49972453918326 Z" fill-opacity="1"/><path fill="none" stroke="rgb(0,0,0)" paint-order="fill stroke markers" d=" M 671.598324134842 109.49972453918326 C 671.598324134842 112.26114828833722 669.359747883996 114.49972453918326 666.598324134842 114.49972453918326 C 663.836900385688 114.49972453918326 661.598324134842 112.26114828833722 661.598324134842 109.49972453918326 C 661.598324134842 106.7383007900293 663.836900385688 104.49972453918326 666.598324134842 104.49972453918326 C 669.359747883996 104.49972453918326 671.598324134842 106.7383007900293 671.598324134842 109.49972453918326 Z" stroke-opacity="1" stroke-linecap="round" stroke-linejoin="round" stroke-miterlimit="10"/><text fill="rgb(125,125,255)" stroke="none" font-family="geogebra-sans-serif, sans-serif" font-size="16px" font-style="normal" font-weight="normal" text-decoration="normal" x="671" y="99" text-anchor="start" dominant-baseline="alphabetic" fill-opacity="1">G</text><text fill="none" stroke="rgb(255,255,255)" font-family="geogebra-sans-serif, sans-serif" font-size="16px" font-style="normal" font-weight="normal" text-decoration="normal" x="671" y="99" text-anchor="start" dominant-baseline="alphabetic" stroke-opacity="1" stroke-linejoin="bevel" stroke-miterlimit="10" stroke-width="3">G</text><text fill="rgb(125,125,255)" stroke="none" font-family="geogebra-sans-serif, sans-serif" font-size="16px" font-style="normal" font-weight="normal" text-decoration="normal" x="671" y="99" text-anchor="start" dominant-baseline="alphabetic" fill-opacity="1">G</text></g></g></svg>