<svg version="1.1" xmlns="http://www.w3.org/2000/svg" xmlns:xlink="http://www.w3.org/1999/xlink" width="891" height="515"><defs><clipPath id="FdJryRZmFJTg"><path fill="none" stroke="none" d=" M 0 0 L 891 0 L 891 515 L 0 515 L 0 0 Z"/></clipPath></defs><g transform="scale(1,1)" clip-path="url(#FdJryRZmFJTg)"><g><rect fill="rgb(255,255,255)" stroke="none" x="0" y="0" width="892" height="515" fill-opacity="1"/><path fill="none" stroke="rgb(192,192,192)" paint-order="fill stroke markers" d=" M 82.5 0.5 L 82.5 515.5 M 136.5 0.5 L 136.5 515.5 M 190.5 0.5 L 190.5 515.5 M 244.5 0.5 L 244.5 515.5 M 297.5 0.5 L 297.5 515.5 M 351.5 0.5 L 351.5 515.5 M 405.5 0.5 L 405.5 515.5 M 459.5 0.5 L 459.5 515.5 M 513.5 0.5 L 513.5 515.5 M 567.5 0.5 L 567.5 515.5 M 621.5 0.5 L 621.5 515.5 M 674.5 0.5 L 674.5 515.5 M 728.5 0.5 L 728.5 515.5 M 782.5 0.5 L 782.5 515.5 M 836.5 0.5 L 836.5 515.5 M 890.5 0.5 L 890.5 515.5" stroke-opacity="1" stroke-linecap="round" stroke-linejoin="round" stroke-miterlimit="10"/><path fill="none" stroke="rgb(192,192,192)" paint-order="fill stroke markers" d="" stroke-opacity="0.23529411764705882" stroke-linecap="round" stroke-linejoin="round" stroke-miterlimit="10"/><path fill="none" stroke="rgb(192,192,192)" paint-order="fill stroke markers" d=" M 0.5 23.5 L 891.5 23.5 M 0.5 23.5 L 891.5 23.5 M 0.5 77.5 L 891.5 77.5 M 0.5 130.5 L 891.5 130.5 M 0.5 184.5 L 891.5 184.5 M 0.5 238.5 L 891.5 238.5 M 0.5 292.5 L 891.5 292.5 M 0.5 400.5 L 891.5 400.5 M 0.5 454.5 L 891.5 454.5 M 0.5 507.5 L 891.5 507.5" stroke-opacity="1" stroke-linecap="round" stroke-linejoin="round" stroke-miterlimit="10"/><path fill="none" stroke="rgb(192,192,192)" paint-order="fill stroke markers" d="" stroke-opacity="0.23529411764705882" stroke-linecap="round" stroke-linejoin="round" stroke-miterlimit="10"/><path fill="none" stroke="rgb(37,37,37)" paint-order="fill stroke markers" d=" M 29 3 L 29 515" stroke-opacity="1" stroke-miterlimit="10" stroke-width="2"/><path fill="none" stroke="rgb(37,37,37)" paint-order="fill stroke markers" d=" M 29 2 L 22 9" stroke-opacity="1" stroke-miterlimit="10" stroke-width="2"/><path fill="none" stroke="rgb(37,37,37)" paint-order="fill stroke markers" d=" M 29 2 L 36 9" stroke-opacity="1" stroke-miterlimit="10" stroke-width="2"/><path fill="none" stroke="rgb(37,37,37)" paint-order="fill stroke markers" d=" M 0 346 L 888 346" stroke-opacity="1" stroke-miterlimit="10" stroke-width="2"/><path fill="none" stroke="rgb(37,37,37)" paint-order="fill stroke markers" d=" M 889 346 L 882 339" stroke-opacity="1" stroke-miterlimit="10" stroke-width="2"/><path fill="none" stroke="rgb(37,37,37)" paint-order="fill stroke markers" d=" M 889 346 L 882 353" stroke-opacity="1" stroke-miterlimit="10" stroke-width="2"/><text fill="rgb(37,37,37)" stroke="none" font-family="geogebra-sans-serif, sans-serif" font-size="18px" font-style="normal" font-weight="normal" text-decoration="normal" x="79" y="368" text-anchor="start" dominant-baseline="alphabetic" fill-opacity="1">1</text><text fill="none" stroke="rgb(255,255,255)" font-family="geogebra-sans-serif, sans-serif" font-size="18px" font-style="normal" font-weight="normal" text-decoration="normal" x="79" y="368" text-anchor="start" dominant-baseline="alphabetic" stroke-opacity="1" stroke-linejoin="bevel" stroke-miterlimit="10" stroke-width="3">1</text><text fill="rgb(37,37,37)" stroke="none" font-family="geogebra-sans-serif, sans-serif" font-size="18px" font-style="normal" font-weight="normal" text-decoration="normal" x="79" y="368" text-anchor="start" dominant-baseline="alphabetic" fill-opacity="1">1</text><text fill="rgb(37,37,37)" stroke="none" font-family="geogebra-sans-serif, sans-serif" font-size="18px" font-style="normal" font-weight="normal" text-decoration="normal" x="132" y="368" text-anchor="start" dominant-baseline="alphabetic" fill-opacity="1">2</text><text fill="none" stroke="rgb(255,255,255)" font-family="geogebra-sans-serif, sans-serif" font-size="18px" font-style="normal" font-weight="normal" text-decoration="normal" x="132" y="368" text-anchor="start" dominant-baseline="alphabetic" stroke-opacity="1" stroke-linejoin="bevel" stroke-miterlimit="10" stroke-width="3">2</text><text fill="rgb(37,37,37)" stroke="none" font-family="geogebra-sans-serif, sans-serif" font-size="18px" font-style="normal" font-weight="normal" text-decoration="normal" x="132" y="368" text-anchor="start" dominant-baseline="alphabetic" fill-opacity="1">2</text><text fill="rgb(37,37,37)" stroke="none" font-family="geogebra-sans-serif, sans-serif" font-size="18px" font-style="normal" font-weight="normal" text-decoration="normal" x="186" y="368" text-anchor="start" dominant-baseline="alphabetic" fill-opacity="1">3</text><text fill="none" stroke="rgb(255,255,255)" font-family="geogebra-sans-serif, sans-serif" font-size="18px" font-style="normal" font-weight="normal" text-decoration="normal" x="186" y="368" text-anchor="start" dominant-baseline="alphabetic" stroke-opacity="1" stroke-linejoin="bevel" stroke-miterlimit="10" stroke-width="3">3</text><text fill="rgb(37,37,37)" stroke="none" font-family="geogebra-sans-serif, sans-serif" font-size="18px" font-style="normal" font-weight="normal" text-decoration="normal" x="186" y="368" text-anchor="start" dominant-baseline="alphabetic" fill-opacity="1">3</text><text fill="rgb(37,37,37)" stroke="none" font-family="geogebra-sans-serif, sans-serif" font-size="18px" font-style="normal" font-weight="normal" text-decoration="normal" x="240" y="368" text-anchor="start" dominant-baseline="alphabetic" fill-opacity="1">4</text><text fill="none" stroke="rgb(255,255,255)" font-family="geogebra-sans-serif, sans-serif" font-size="18px" font-style="normal" font-weight="normal" text-decoration="normal" x="240" y="368" text-anchor="start" dominant-baseline="alphabetic" stroke-opacity="1" stroke-linejoin="bevel" stroke-miterlimit="10" stroke-width="3">4</text><text fill="rgb(37,37,37)" stroke="none" font-family="geogebra-sans-serif, sans-serif" font-size="18px" font-style="normal" font-weight="normal" text-decoration="normal" x="240" y="368" text-anchor="start" dominant-baseline="alphabetic" fill-opacity="1">4</text><text fill="rgb(37,37,37)" stroke="none" font-family="geogebra-sans-serif, sans-serif" font-size="18px" font-style="normal" font-weight="normal" text-decoration="normal" x="294" y="368" text-anchor="start" dominant-baseline="alphabetic" fill-opacity="1">5</text><text fill="none" stroke="rgb(255,255,255)" font-family="geogebra-sans-serif, sans-serif" font-size="18px" font-style="normal" font-weight="normal" text-decoration="normal" x="294" y="368" text-anchor="start" dominant-baseline="alphabetic" stroke-opacity="1" stroke-linejoin="bevel" stroke-miterlimit="10" stroke-width="3">5</text><text fill="rgb(37,37,37)" stroke="none" font-family="geogebra-sans-serif, sans-serif" font-size="18px" font-style="normal" font-weight="normal" text-decoration="normal" x="294" y="368" text-anchor="start" dominant-baseline="alphabetic" fill-opacity="1">5</text><text fill="rgb(37,37,37)" stroke="none" font-family="geogebra-sans-serif, sans-serif" font-size="18px" font-style="normal" font-weight="normal" text-decoration="normal" x="348" y="368" text-anchor="start" dominant-baseline="alphabetic" fill-opacity="1">6</text><text fill="none" stroke="rgb(255,255,255)" font-family="geogebra-sans-serif, sans-serif" font-size="18px" font-style="normal" font-weight="normal" text-decoration="normal" x="348" y="368" text-anchor="start" dominant-baseline="alphabetic" stroke-opacity="1" stroke-linejoin="bevel" stroke-miterlimit="10" stroke-width="3">6</text><text fill="rgb(37,37,37)" stroke="none" font-family="geogebra-sans-serif, sans-serif" font-size="18px" font-style="normal" font-weight="normal" text-decoration="normal" x="348" y="368" text-anchor="start" dominant-baseline="alphabetic" fill-opacity="1">6</text><text fill="rgb(37,37,37)" stroke="none" font-family="geogebra-sans-serif, sans-serif" font-size="18px" font-style="normal" font-weight="normal" text-decoration="normal" x="402" y="368" text-anchor="start" dominant-baseline="alphabetic" fill-opacity="1">7</text><text fill="none" stroke="rgb(255,255,255)" font-family="geogebra-sans-serif, sans-serif" font-size="18px" font-style="normal" font-weight="normal" text-decoration="normal" x="402" y="368" text-anchor="start" dominant-baseline="alphabetic" stroke-opacity="1" stroke-linejoin="bevel" stroke-miterlimit="10" stroke-width="3">7</text><text fill="rgb(37,37,37)" stroke="none" font-family="geogebra-sans-serif, sans-serif" font-size="18px" font-style="normal" font-weight="normal" text-decoration="normal" x="402" y="368" text-anchor="start" dominant-baseline="alphabetic" fill-opacity="1">7</text><text fill="rgb(37,37,37)" stroke="none" font-family="geogebra-sans-serif, sans-serif" font-size="18px" font-style="normal" font-weight="normal" text-decoration="normal" x="456" y="368" text-anchor="start" dominant-baseline="alphabetic" fill-opacity="1">8</text><text fill="none" stroke="rgb(255,255,255)" font-family="geogebra-sans-serif, sans-serif" font-size="18px" font-style="normal" font-weight="normal" text-decoration="normal" x="456" y="368" text-anchor="start" dominant-baseline="alphabetic" stroke-opacity="1" stroke-linejoin="bevel" stroke-miterlimit="10" stroke-width="3">8</text><text fill="rgb(37,37,37)" stroke="none" font-family="geogebra-sans-serif, sans-serif" font-size="18px" font-style="normal" font-weight="normal" text-decoration="normal" x="456" y="368" text-anchor="start" dominant-baseline="alphabetic" fill-opacity="1">8</text><text fill="rgb(37,37,37)" stroke="none" font-family="geogebra-sans-serif, sans-serif" font-size="18px" font-style="normal" font-weight="normal" text-decoration="normal" x="509" y="368" text-anchor="start" dominant-baseline="alphabetic" fill-opacity="1">9</text><text fill="none" stroke="rgb(255,255,255)" font-family="geogebra-sans-serif, sans-serif" font-size="18px" font-style="normal" font-weight="normal" text-decoration="normal" x="509" y="368" text-anchor="start" dominant-baseline="alphabetic" stroke-opacity="1" stroke-linejoin="bevel" stroke-miterlimit="10" stroke-width="3">9</text><text fill="rgb(37,37,37)" stroke="none" font-family="geogebra-sans-serif, sans-serif" font-size="18px" font-style="normal" font-weight="normal" text-decoration="normal" x="509" y="368" text-anchor="start" dominant-baseline="alphabetic" fill-opacity="1">9</text><text fill="rgb(37,37,37)" stroke="none" font-family="geogebra-sans-serif, sans-serif" font-size="18px" font-style="normal" font-weight="normal" text-decoration="normal" x="559" y="368" text-anchor="start" dominant-baseline="alphabetic" fill-opacity="1">10</text><text fill="none" stroke="rgb(255,255,255)" font-family="geogebra-sans-serif, sans-serif" font-size="18px" font-style="normal" font-weight="normal" text-decoration="normal" x="559" y="368" text-anchor="start" dominant-baseline="alphabetic" stroke-opacity="1" stroke-linejoin="bevel" stroke-miterlimit="10" stroke-width="3">10</text><text fill="rgb(37,37,37)" stroke="none" font-family="geogebra-sans-serif, sans-serif" font-size="18px" font-style="normal" font-weight="normal" text-decoration="normal" x="559" y="368" text-anchor="start" dominant-baseline="alphabetic" fill-opacity="1">10</text><text fill="rgb(37,37,37)" stroke="none" font-family="geogebra-sans-serif, sans-serif" font-size="18px" font-style="normal" font-weight="normal" text-decoration="normal" x="613" y="368" text-anchor="start" dominant-baseline="alphabetic" fill-opacity="1">11</text><text fill="none" stroke="rgb(255,255,255)" font-family="geogebra-sans-serif, sans-serif" font-size="18px" font-style="normal" font-weight="normal" text-decoration="normal" x="613" y="368" text-anchor="start" dominant-baseline="alphabetic" stroke-opacity="1" stroke-linejoin="bevel" stroke-miterlimit="10" stroke-width="3">11</text><text fill="rgb(37,37,37)" stroke="none" font-family="geogebra-sans-serif, sans-serif" font-size="18px" font-style="normal" font-weight="normal" text-decoration="normal" x="613" y="368" text-anchor="start" dominant-baseline="alphabetic" fill-opacity="1">11</text><text fill="rgb(37,37,37)" stroke="none" font-family="geogebra-sans-serif, sans-serif" font-size="18px" font-style="normal" font-weight="normal" text-decoration="normal" x="666" y="368" text-anchor="start" dominant-baseline="alphabetic" fill-opacity="1">12</text><text fill="none" stroke="rgb(255,255,255)" font-family="geogebra-sans-serif, sans-serif" font-size="18px" font-style="normal" font-weight="normal" text-decoration="normal" x="666" y="368" text-anchor="start" dominant-baseline="alphabetic" stroke-opacity="1" stroke-linejoin="bevel" stroke-miterlimit="10" stroke-width="3">12</text><text fill="rgb(37,37,37)" stroke="none" font-family="geogebra-sans-serif, sans-serif" font-size="18px" font-style="normal" font-weight="normal" text-decoration="normal" x="666" y="368" text-anchor="start" dominant-baseline="alphabetic" fill-opacity="1">12</text><text fill="rgb(37,37,37)" stroke="none" font-family="geogebra-sans-serif, sans-serif" font-size="18px" font-style="normal" font-weight="normal" text-decoration="normal" x="720" y="368" text-anchor="start" dominant-baseline="alphabetic" fill-opacity="1">13</text><text fill="none" stroke="rgb(255,255,255)" font-family="geogebra-sans-serif, sans-serif" font-size="18px" font-style="normal" font-weight="normal" text-decoration="normal" x="720" y="368" text-anchor="start" dominant-baseline="alphabetic" stroke-opacity="1" stroke-linejoin="bevel" stroke-miterlimit="10" stroke-width="3">13</text><text fill="rgb(37,37,37)" stroke="none" font-family="geogebra-sans-serif, sans-serif" font-size="18px" font-style="normal" font-weight="normal" text-decoration="normal" x="720" y="368" text-anchor="start" dominant-baseline="alphabetic" fill-opacity="1">13</text><text fill="rgb(37,37,37)" stroke="none" font-family="geogebra-sans-serif, sans-serif" font-size="18px" font-style="normal" font-weight="normal" text-decoration="normal" x="774" y="368" text-anchor="start" dominant-baseline="alphabetic" fill-opacity="1">14</text><text fill="none" stroke="rgb(255,255,255)" font-family="geogebra-sans-serif, sans-serif" font-size="18px" font-style="normal" font-weight="normal" text-decoration="normal" x="774" y="368" text-anchor="start" dominant-baseline="alphabetic" stroke-opacity="1" stroke-linejoin="bevel" stroke-miterlimit="10" stroke-width="3">14</text><text fill="rgb(37,37,37)" stroke="none" font-family="geogebra-sans-serif, sans-serif" font-size="18px" font-style="normal" font-weight="normal" text-decoration="normal" x="774" y="368" text-anchor="start" dominant-baseline="alphabetic" fill-opacity="1">14</text><text fill="rgb(37,37,37)" stroke="none" font-family="geogebra-sans-serif, sans-serif" font-size="18px" font-style="normal" font-weight="normal" text-decoration="normal" x="828" y="368" text-anchor="start" dominant-baseline="alphabetic" fill-opacity="1">15</text><text fill="none" stroke="rgb(255,255,255)" font-family="geogebra-sans-serif, sans-serif" font-size="18px" font-style="normal" font-weight="normal" text-decoration="normal" x="828" y="368" text-anchor="start" dominant-baseline="alphabetic" stroke-opacity="1" stroke-linejoin="bevel" stroke-miterlimit="10" stroke-width="3">15</text><text fill="rgb(37,37,37)" stroke="none" font-family="geogebra-sans-serif, sans-serif" font-size="18px" font-style="normal" font-weight="normal" text-decoration="normal" x="828" y="368" text-anchor="start" dominant-baseline="alphabetic" fill-opacity="1">15</text><text fill="rgb(37,37,37)" stroke="none" font-family="geogebra-sans-serif, sans-serif" font-size="18px" font-style="normal" font-weight="normal" text-decoration="normal" x="1" y="462" text-anchor="start" dominant-baseline="alphabetic" fill-opacity="1">–2</text><text fill="none" stroke="rgb(255,255,255)" font-family="geogebra-sans-serif, sans-serif" font-size="18px" font-style="normal" font-weight="normal" text-decoration="normal" x="1" y="462" text-anchor="start" dominant-baseline="alphabetic" stroke-opacity="1" stroke-linejoin="bevel" stroke-miterlimit="10" stroke-width="3">–2</text><text fill="rgb(37,37,37)" stroke="none" font-family="geogebra-sans-serif, sans-serif" font-size="18px" font-style="normal" font-weight="normal" text-decoration="normal" x="1" y="462" text-anchor="start" dominant-baseline="alphabetic" fill-opacity="1">–2</text><text fill="rgb(37,37,37)" stroke="none" font-family="geogebra-sans-serif, sans-serif" font-size="18px" font-style="normal" font-weight="normal" text-decoration="normal" x="1" y="408" text-anchor="start" dominant-baseline="alphabetic" fill-opacity="1">–1</text><text fill="none" stroke="rgb(255,255,255)" font-family="geogebra-sans-serif, sans-serif" font-size="18px" font-style="normal" font-weight="normal" text-decoration="normal" x="1" y="408" text-anchor="start" dominant-baseline="alphabetic" stroke-opacity="1" stroke-linejoin="bevel" stroke-miterlimit="10" stroke-width="3">–1</text><text fill="rgb(37,37,37)" stroke="none" font-family="geogebra-sans-serif, sans-serif" font-size="18px" font-style="normal" font-weight="normal" text-decoration="normal" x="1" y="408" text-anchor="start" dominant-baseline="alphabetic" fill-opacity="1">–1</text><text fill="rgb(37,37,37)" stroke="none" font-family="geogebra-sans-serif, sans-serif" font-size="18px" font-style="normal" font-weight="normal" text-decoration="normal" x="10" y="300" text-anchor="start" dominant-baseline="alphabetic" fill-opacity="1">1</text><text fill="none" stroke="rgb(255,255,255)" font-family="geogebra-sans-serif, sans-serif" font-size="18px" font-style="normal" font-weight="normal" text-decoration="normal" x="10" y="300" text-anchor="start" dominant-baseline="alphabetic" stroke-opacity="1" stroke-linejoin="bevel" stroke-miterlimit="10" stroke-width="3">1</text><text fill="rgb(37,37,37)" stroke="none" font-family="geogebra-sans-serif, sans-serif" font-size="18px" font-style="normal" font-weight="normal" text-decoration="normal" x="10" y="300" text-anchor="start" dominant-baseline="alphabetic" fill-opacity="1">1</text><text fill="rgb(37,37,37)" stroke="none" font-family="geogebra-sans-serif, sans-serif" font-size="18px" font-style="normal" font-weight="normal" text-decoration="normal" x="10" y="246" text-anchor="start" dominant-baseline="alphabetic" fill-opacity="1">2</text><text fill="none" stroke="rgb(255,255,255)" font-family="geogebra-sans-serif, sans-serif" font-size="18px" font-style="normal" font-weight="normal" text-decoration="normal" x="10" y="246" text-anchor="start" dominant-baseline="alphabetic" stroke-opacity="1" stroke-linejoin="bevel" stroke-miterlimit="10" stroke-width="3">2</text><text fill="rgb(37,37,37)" stroke="none" font-family="geogebra-sans-serif, sans-serif" font-size="18px" font-style="normal" font-weight="normal" text-decoration="normal" x="10" y="246" text-anchor="start" dominant-baseline="alphabetic" fill-opacity="1">2</text><text fill="rgb(37,37,37)" stroke="none" font-family="geogebra-sans-serif, sans-serif" font-size="18px" font-style="normal" font-weight="normal" text-decoration="normal" x="10" y="192" text-anchor="start" dominant-baseline="alphabetic" fill-opacity="1">3</text><text fill="none" stroke="rgb(255,255,255)" font-family="geogebra-sans-serif, sans-serif" font-size="18px" font-style="normal" font-weight="normal" text-decoration="normal" x="10" y="192" text-anchor="start" dominant-baseline="alphabetic" stroke-opacity="1" stroke-linejoin="bevel" stroke-miterlimit="10" stroke-width="3">3</text><text fill="rgb(37,37,37)" stroke="none" font-family="geogebra-sans-serif, sans-serif" font-size="18px" font-style="normal" font-weight="normal" text-decoration="normal" x="10" y="192" text-anchor="start" dominant-baseline="alphabetic" fill-opacity="1">3</text><text fill="rgb(37,37,37)" stroke="none" font-family="geogebra-sans-serif, sans-serif" font-size="18px" font-style="normal" font-weight="normal" text-decoration="normal" x="10" y="138" text-anchor="start" dominant-baseline="alphabetic" fill-opacity="1">4</text><text fill="none" stroke="rgb(255,255,255)" font-family="geogebra-sans-serif, sans-serif" font-size="18px" font-style="normal" font-weight="normal" text-decoration="normal" x="10" y="138" text-anchor="start" dominant-baseline="alphabetic" stroke-opacity="1" stroke-linejoin="bevel" stroke-miterlimit="10" stroke-width="3">4</text><text fill="rgb(37,37,37)" stroke="none" font-family="geogebra-sans-serif, sans-serif" font-size="18px" font-style="normal" font-weight="normal" text-decoration="normal" x="10" y="138" text-anchor="start" dominant-baseline="alphabetic" fill-opacity="1">4</text><text fill="rgb(37,37,37)" stroke="none" font-family="geogebra-sans-serif, sans-serif" font-size="18px" font-style="normal" font-weight="normal" text-decoration="normal" x="10" y="85" text-anchor="start" dominant-baseline="alphabetic" fill-opacity="1">5</text><text fill="none" stroke="rgb(255,255,255)" font-family="geogebra-sans-serif, sans-serif" font-size="18px" font-style="normal" font-weight="normal" text-decoration="normal" x="10" y="85" text-anchor="start" dominant-baseline="alphabetic" stroke-opacity="1" stroke-linejoin="bevel" stroke-miterlimit="10" stroke-width="3">5</text><text fill="rgb(37,37,37)" stroke="none" font-family="geogebra-sans-serif, sans-serif" font-size="18px" font-style="normal" font-weight="normal" text-decoration="normal" x="10" y="85" text-anchor="start" dominant-baseline="alphabetic" fill-opacity="1">5</text><text fill="rgb(37,37,37)" stroke="none" font-family="geogebra-sans-serif, sans-serif" font-size="18px" font-style="normal" font-weight="normal" text-decoration="normal" x="10" y="31" text-anchor="start" dominant-baseline="alphabetic" fill-opacity="1">6</text><text fill="none" stroke="rgb(255,255,255)" font-family="geogebra-sans-serif, sans-serif" font-size="18px" font-style="normal" font-weight="normal" text-decoration="normal" x="10" y="31" text-anchor="start" dominant-baseline="alphabetic" stroke-opacity="1" stroke-linejoin="bevel" stroke-miterlimit="10" stroke-width="3">6</text><text fill="rgb(37,37,37)" stroke="none" font-family="geogebra-sans-serif, sans-serif" font-size="18px" font-style="normal" font-weight="normal" text-decoration="normal" x="10" y="31" text-anchor="start" dominant-baseline="alphabetic" fill-opacity="1">6</text><text fill="rgb(37,37,37)" stroke="none" font-family="geogebra-sans-serif, sans-serif" font-size="18px" font-style="normal" font-weight="normal" text-decoration="normal" x="9" y="368" text-anchor="start" dominant-baseline="alphabetic" fill-opacity="1">0</text><text fill="none" stroke="rgb(255,255,255)" font-family="geogebra-sans-serif, sans-serif" font-size="18px" font-style="normal" font-weight="normal" text-decoration="normal" x="9" y="368" text-anchor="start" dominant-baseline="alphabetic" stroke-opacity="1" stroke-linejoin="bevel" stroke-miterlimit="10" stroke-width="3">0</text><text fill="rgb(37,37,37)" stroke="none" font-family="geogebra-sans-serif, sans-serif" font-size="18px" font-style="normal" font-weight="normal" text-decoration="normal" x="9" y="368" text-anchor="start" dominant-baseline="alphabetic" fill-opacity="1">0</text><path fill="none" stroke="rgb(0,100,0)" paint-order="fill stroke markers" d=" M 59.16796875000001 522.5459786014285 L 60.0380859375 514.6242391698693 L 60.908203125 506.81856133787517 L 61.7783203125 499.1275903487631 L 62.648437500000014 491.5499857324372 L 63.5185546875 484.08442116319867 L 64.38867187500001 476.72958431891664 L 65.2587890625 469.48417674155246 L 66.12890625 462.3469136990191 L 66.9990234375 455.31652404836774 L 67.869140625 448.3917501002867 L 68.7392578125 441.5713474849007 L 69.609375 434.85408501885973 L 70.47949218750001 428.23874457370306 L 71.349609375 421.7241209454892 L 72.21972656250001 415.30902172567744 L 73.08984375 408.9922671732514 L 73.95996093750001 402.7726900880709 L 74.830078125 396.6491356854431 L 75.7001953125 390.6204614718987 L 76.5703125 384.6855371221645 L 77.4404296875 378.84324435731946 L 78.310546875 373.0924768241235 L 79.1806640625 367.432139975509 L 80.05078125000001 361.8611509522224 L 80.9208984375 356.37843846560696 L 81.79101562500001 350.9829426815144 L 82.6611328125 345.6736151053359 L 83.53125000000001 340.44941846814186 L 84.4013671875 335.309326613919 L 85.271484375 330.25232438789607 L 87.01171875 320.3835825450602 L 88.751953125 310.8352875502241 L 90.4921875 301.59970306578225 L 92.232421875 292.6692584178502 L 93.97265625000001 284.03654527335726 L 95.71289062500001 275.69431438109837 L 97.45312500000001 267.6354723755454 L 99.19335937500001 259.8530786422473 L 100.93359375000001 252.34034224366226 L 102.673828125 245.09061890429263 L 104.4140625 238.0974080540094 L 106.154296875 231.3543499284776 L 107.89453125 224.85522272560945 L 109.63476562500001 218.59393981699588 L 111.37500000000001 212.56454701328428 L 113.115234375 206.76121988248826 L 114.85546875000001 201.17826112023744 L 116.595703125 195.81009797098937 L 118.33593750000001 190.6512796992464 L 121.81640625000001 180.94047011633688 L 125.29687500000001 172.0045738554023 L 128.77734375 163.80413094666804 L 132.2578125 156.30140730616503 L 135.73828125 149.4603248774998 L 139.21875 143.2463944711773 L 142.69921875 137.6266512005584 L 146.1796875 132.5695924172288 L 149.66015625 128.04511805210828 L 153.140625 124.0244732720638 L 156.62109375 120.48019336509284 L 160.10156250000003 117.38605077033134 L 163.58203125000003 114.71700417221504 L 167.06250000000003 112.44914958108234 L 170.54296875 110.55967332536153 L 174.0234375 109.02680688324088 L 177.50390625 107.82978348436737 L 180.984375 106.94879641468157 L 184.46484375 106.36495895995708 L 187.94531250000003 106.06026592599054 L 191.42578125000003 106.01755667567684 L 194.90625000000003 106.22047962541055 L 198.38671875000003 106.65345814538148 L 201.86718750000003 107.30165781038298 L 205.34765625 108.15095494972431 L 208.828125 109.18790644674596 L 212.30859375 110.39972074026693 L 215.7890625 111.7742299820653 L 219.26953125000003 113.29986330619417 L 222.75000000000003 114.9656211675782 L 226.23046875 116.76105070891785 L 229.71093750000003 118.67622211645221 L 233.19140625 120.70170592660227 L 236.67187500000003 122.82855124692949 L 240.15234375 125.04826485620973 L 243.63281250000003 127.35279114973733 L 247.11328125000003 129.7344928972372 L 250.59375 132.18613278198822 L 254.07421875 134.70085569092922 L 257.55468750000006 137.27217172665786 L 261.03515625 139.8939399133189 L 264.515625 142.56035256943215 L 267.99609375 145.2659203217202 L 271.47656249999994 148.00545773497333 L 274.95703125000006 150.77406953392784 L 278.4375 153.5671373940376 L 281.91796875 156.38030727889338 L 285.3984375 159.2094773028798 L 288.87890625000006 162.0507860984728 L 292.35937500000006 164.9006016683561 L 295.83984375 167.75551070328805 L 299.3203125 170.61230834737 L 302.80078125 173.46798839306578 L 306.28125000000006 176.3197338889903 L 309.76171875 179.1649081441314 L 313.2421875 182.0010461127914 L 316.72265625 184.82584614513095 L 320.20312500000006 187.63716208877653 L 323.68359375000006 190.43299572750698 L 327.1640625 193.2114895435687 L 330.64453125 195.9709197906839 L 334.12500000000006 198.7096898653117 L 337.60546875000006 201.42632396419808 L 341.0859375 204.11946101671245 L 344.56640625 206.7878488809069 L 348.046875 209.430338792663 L 351.52734375000006 212.04588005769966 L 355.00781250000006 214.6335149766092 L 358.48828125 217.19237399347068 L 361.96875 219.72167105895176 L 365.44921875000006 222.22069919916606 L 368.92968750000006 224.68882628188766 L 372.41015625 227.1254909720545 L 375.890625 229.53019886880148 L 379.37109375 231.90251881656997 L 382.85156250000006 234.24207938312935 L 386.33203125000006 236.5485654976247 L 389.8125 238.82171524203636 L 393.29296875 241.06131678969365 L 396.77343750000006 243.2672054847353 L 400.25390625000006 245.43926105664917 L 403.734375 247.5774049642534 L 407.21484375 249.68159786370404 L 410.6953125 251.7518371953274 L 414.17578125000006 253.78815488428012 L 417.65625000000006 255.790615150239 L 421.13671875 257.7593124215112 L 424.6171875 259.6943693491393 L 428.09765625000006 261.59593491675116 L 431.57812500000006 263.46418264207284 L 435.05859375 265.2993088661889 L 438.5390625000001 267.1015311267854 L 442.01953125000006 268.87108661176626 L 445.50000000000006 270.60823068977686 L 448.98046875 272.31323551430626 L 452.4609375 273.9863886981757 L 455.94140625000006 275.62799205534844 L 459.42187500000006 277.2383604071199 L 462.90234375000006 278.8178204498659 L 466.3828125 280.36670968164185 L 469.8632812500001 281.88537538503465 L 473.34375000000006 283.3741736637754 L 476.82421875000006 284.8334685307231 L 480.3046875 286.2636310449258 L 483.78515625 287.66503849556045 L 487.26562500000006 289.0380736306438 L 490.74609375000006 290.3831239284904 L 494.22656250000006 291.7005809099811 L 497.70703125 292.99083948978245 L 501.1875000000001 294.25429736473495 L 504.66796875000006 295.4913544377034 L 508.14843750000006 296.7024122752523 L 511.62890625 297.88787359757697 L 515.1093750000001 299.04814179918895 L 518.58984375 300.18362049891437 L 522.0703125 301.2947131178266 L 525.55078125 302.3818224837912 L 529.03125 303.44535046135843 L 532.51171875 304.48569760578994 L 535.9921875 305.5032628400602 L 539.47265625 306.4984431537213 L 542.953125 307.4716333225668 L 546.43359375 308.4232256480766 L 549.9140625 309.3536097156691 L 553.39453125 310.2631721708271 L 556.875 311.15229651220557 L 560.35546875 312.02136290086816 L 563.8359375 312.8707479848355 L 567.31640625 313.7008247381642 L 570.796875 314.511962313811 L 574.27734375 315.3045259095668 L 577.7578125 316.07887664637923 L 581.23828125 316.83537145841063 L 584.71875 317.5743629942096 L 588.19921875 318.29619952839835 L 591.6796875 319.0012248833095 L 595.16015625 319.6897783600268 L 598.640625 320.3621946783129 L 602.12109375 321.01880392492666 L 605.6015625 321.65993150985935 L 609.08203125 322.28589813003686 L 612.5625 322.8970197400582 L 616.04296875 323.4936075295594 L 619.5234375 324.07596790681066 L 623.00390625 324.6444024881739 L 626.484375 325.1992080930644 L 629.96484375 325.7406767440767 L 633.4453125 326.26909567195236 L 636.92578125 326.78474732508056 L 640.40625 327.2879093832393 L 643.88671875 327.77885477529713 L 647.3671875 328.2578517006097 L 650.84765625 328.7251636538592 L 654.328125 329.1810494530948 L 657.80859375 329.62576327074635 L 661.2890625 330.05955466739385 L 664.76953125 330.4826686280856 L 668.25 330.8953456010092 L 671.73046875 331.29782153832883 L 675.2109375 331.69032793901295 L 678.69140625 332.0730918934823 L 682.171875 332.446336129922 L 685.65234375 332.8102790621044 L 689.1328125 333.1651348385815 L 692.61328125 333.51111339311 L 696.09375 333.8484204961824 L 699.57421875 334.17725780754176 L 703.0546875 334.4978229295655 L 706.53515625 334.8103094614107 L 710.015625 335.114907053818 L 713.49609375 335.4118014644767 L 716.9765625 335.7011746138619 L 720.45703125 335.98320464145553 L 723.9375 336.25806596227204 L 727.41796875 336.52592932361176 L 730.8984375 336.78696186197027 L 734.37890625 337.04132716003716 L 737.859375 337.2891853037199 L 741.33984375 337.5306929391346 L 744.8203125 337.76600332950767 L 748.30078125 337.9952664119365 L 751.78125 338.21862885396007 L 755.26171875 338.4362341098956 L 758.7421875 338.6482224768975 L 762.22265625 338.8547311506996 L 765.703125 339.05589428100484 L 769.18359375 339.25184302648813 L 772.6640625 339.44270560938037 L 776.14453125 339.62860736960556 L 779.625 339.8096708184437 L 783.10546875 339.98601569169534 L 786.5859375 340.15775900232427 L 790.06640625 340.3250150925595 L 793.546875 340.4878956854355 L 797.02734375 340.6465099357559 L 800.5078125 340.8009644804635 L 803.98828125 340.9513634884041 L 807.46875 341.09780870947077 L 810.94921875 341.2403995231183 L 814.4296875 341.37923298623804 L 817.91015625 341.5144038803845 L 821.390625 341.64600475834715 L 824.87109375 341.7741259900604 L 828.3515625 341.8988558078476 L 831.83203125 342.0202803509947 L 835.3125 342.1384837096503 L 838.79296875 342.25354796804993 L 842.2734375 342.3655532470635 L 845.75390625 342.47457774606465 L 849.234375 342.58069778412283 L 852.7148437500001 342.683987840518 L 856.1953125 342.78452059458016 L 859.67578125 342.88236696485546 L 863.15625 342.97759614760093 L 866.6367187500001 343.0702756546118 L 870.1171875 343.16047135038417 L 873.59765625 343.24824748861766 L 877.0781250000001 343.3336667480618 L 880.55859375 343.41679026771146 L 884.0390625 343.49767768135683 L 887.5195312499999 343.576387151492 L 891 343.65297540258985" stroke-opacity="0.6980392156862745" stroke-linecap="round" stroke-linejoin="round" stroke-miterlimit="10" stroke-width="4.5"/><text fill="rgb(0,100,0)" stroke="none" font-family="geogebra-sans-serif, sans-serif" font-size="24px" font-style="normal" font-weight="normal" text-decoration="normal" x="69" y="488" text-anchor="start" dominant-baseline="alphabetic" fill-opacity="1">C</text><text fill="none" stroke="rgb(255,255,255)" font-family="geogebra-sans-serif, sans-serif" font-size="24px" font-style="normal" font-weight="normal" text-decoration="normal" x="69" y="488" text-anchor="start" dominant-baseline="alphabetic" stroke-opacity="1" stroke-linejoin="bevel" stroke-miterlimit="10" stroke-width="3">C</text><text fill="rgb(0,100,0)" stroke="none" font-family="geogebra-sans-serif, sans-serif" font-size="24px" font-style="normal" font-weight="normal" text-decoration="normal" x="69" y="488" text-anchor="start" dominant-baseline="alphabetic" fill-opacity="1">C</text><path fill="none" stroke="rgb(204,0,0)" paint-order="fill stroke markers" d=" M 82.54942911000825 106.00370940653616 L 83.53125000000001 106.00370940653616 M 83.53125000000001 106.00370940653616 L 87.01171875000001 106.00370940653616 L 90.49218750000001 106.00370940653616 L 93.97265625000001 106.00370940653616 L 97.45312500000003 106.00370940653616 L 100.93359375000003 106.00370940653616 L 104.41406250000001 106.00370940653616 L 107.89453125000001 106.00370940653616 L 111.37500000000001 106.00370940653616 M 111.37500000000001 106.00370940653616 L 114.85546875000003 106.00370940653616 L 118.33593750000003 106.00370940653616 L 121.81640625000003 106.00370940653616 L 125.29687500000001 106.00370940653616 L 128.77734375 106.00370940653616 L 132.25781250000003 106.00370940653616 L 135.73828125000003 106.00370940653616 L 139.21875000000003 106.00370940653616 L 142.69921875000003 106.00370940653616 L 146.17968750000003 106.00370940653616 L 149.66015625000003 106.00370940653616 L 153.14062500000003 106.00370940653616 L 156.62109375000003 106.00370940653616 L 160.10156250000006 106.00370940653616 L 163.58203125000003 106.00370940653616 L 167.06250000000006 106.00370940653616 L 170.54296875000003 106.00370940653616 L 174.02343750000006 106.00370940653616 L 177.50390625000003 106.00370940653616 L 180.98437500000006 106.00370940653616 L 184.46484375000003 106.00370940653616 L 187.94531250000003 106.00370940653616 L 191.42578125000003 106.00370940653616 L 194.90625000000006 106.00370940653616 L 198.38671875000006 106.00370940653616 L 201.86718750000006 106.00370940653616 L 205.34765625000006 106.00370940653616 L 208.82812500000003 106.00370940653616 L 212.30859375000006 106.00370940653616 L 215.78906250000003 106.00370940653616 L 219.26953125000006 106.00370940653616 L 222.75000000000003 106.00370940653616 M 222.75000000000003 106.00370940653616 L 226.23046875000003 106.00370940653616 L 229.71093750000006 106.00370940653616 L 233.19140625000006 106.00370940653616 L 236.67187500000006 106.00370940653616 L 240.15234375000003 106.00370940653616 L 243.63281250000003 106.00370940653616 L 247.11328125000003 106.00370940653616 L 250.59375 106.00370940653616 L 254.07421875000003 106.00370940653616 L 257.5546875 106.00370940653616 L 261.03515625 106.00370940653616 L 264.515625 106.00370940653616 L 267.99609375000006 106.00370940653616 L 271.4765625 106.00370940653616 L 274.95703125000006 106.00370940653616 L 278.4375 106.00370940653616 M 278.4375 106.00370940653616 L 281.91796875 106.00370940653616 L 285.39843750000006 106.00370940653616 L 288.87890625000006 106.00370940653616 L 292.35937500000006 106.00370940653616 M 292.35937500000006 106.00370940653616 L 295.83984375 106.00370940653616 M 295.83984375 106.00370940653616 L 297.98128517570615 106.00370940653616" stroke-opacity="0.6980392156862745" stroke-linejoin="round" stroke-miterlimit="10" stroke-width="2.5" stroke-dasharray="6.5,4"/><path fill="none" stroke="rgb(204,0,0)" paint-order="fill stroke markers" d=" M 136.40739339572258 36.88526907590676 L 139.21875000000003 39.19297110584074 M 139.21875000000003 39.19297110584074 L 142.69921875000003 42.04991383138349 L 146.17968750000003 44.90685655692624 L 149.66015625000003 47.76379928246894 L 153.14062500000003 50.62074200801169 L 156.62109375 53.47768473355438 L 160.10156250000003 56.33462745909708 L 163.58203125000003 59.19157018463983 L 167.06250000000003 62.04851291018258 M 167.06250000000003 62.04851291018258 L 170.54296875000003 64.90545563572533 L 174.02343750000003 67.76239836126803 L 177.50390625000003 70.61934108681078 L 180.98437500000003 73.47628381235347 L 184.46484375000003 76.33322653789622 L 187.94531250000003 79.19016926343897 L 191.42578125000003 82.04711198898173 L 194.90625000000003 84.90405471452436 L 198.38671875000006 87.76099744006711 L 201.86718750000003 90.6179401656099 L 205.34765625000003 93.47488289115259 L 208.82812500000003 96.33182561669531 L 212.30859375000003 99.18876834223806 L 215.78906250000003 102.04571106778079 L 219.26953125000003 104.90265379332354 L 222.75000000000003 107.75959651886623 M 222.75000000000003 107.75959651886623 L 226.23046875000003 110.61653924440901 L 229.71093750000006 113.4734819699517 L 233.19140625000006 116.33042469549443 L 236.67187500000006 119.18736742103718 L 240.15234375000003 122.04431014657987 L 243.63281250000006 124.90125287212265 L 247.11328125000003 127.75819559766535 L 250.59375000000006 130.6151383232081 L 254.07421875000003 133.4720810487508 L 257.55468750000006 136.32902377429355 L 261.03515625 139.18596649983627 L 264.515625 142.04290922537896 L 267.99609375000006 144.89985195092174 L 271.4765625 147.75679467646444 L 274.95703125000006 150.6137374020072 L 278.4375 153.47068012754988 L 281.91796875000006 156.32762285309263 L 285.39843750000006 159.18456557863536 L 288.87890625000006 162.0415083041781 L 292.35937500000006 164.89845102972083 L 295.83984375 167.75539375526353 L 299.32031250000006 170.61233648080628 L 302.80078125000006 173.46927920634903 L 306.28125000000006 176.32622193189172 L 309.76171875 179.18316465743447 L 313.24218750000006 182.0401073829772 L 316.72265625000006 184.8970501085199 L 320.20312500000006 187.75399283406267 L 323.68359375000006 190.61093555960537 L 327.1640625 193.4678782851481 L 330.64453125000006 196.32482101069084 L 334.12500000000006 199.18176373623356 L 337.60546875000006 202.0387064617763 L 341.0859375 204.89564918731898 L 344.56640625000006 207.75259191286176 L 348.04687500000006 210.6095346384045 L 351.52734375000006 213.4664773639472 L 355.00781250000006 216.32342008948993 L 358.48828125 219.18036281503265 L 361.96875000000006 222.0373055405754 L 365.44921875000006 224.89424826611815 L 368.92968750000006 227.75119099166085 L 372.41015625 230.60813371720357 L 375.89062500000006 233.4650764427463 L 379.37109375000006 236.32201916828905 L 382.85156250000006 239.17896189383177 L 386.33203125000006 242.0359046193745 L 389.81250000000006 244.89284734491724 L 393.29296875000006 247.74979007045994 L 396.77343750000006 250.6067327960027 L 400.25390625000006 253.46367552154538 L 403.734375 256.3206182470881 L 407.21484375000006 259.1775609726309 L 410.69531250000006 262.0345036981736 L 414.17578125000006 264.89144642371633 L 417.65625000000006 267.748389149259 L 421.13671875000006 270.6053318748018 L 424.61718750000006 273.46227460034453 L 428.09765625000006 276.3192173258873 L 431.57812500000006 279.17616005143 L 435.05859375 282.03310277697267 L 438.53906250000006 284.8900455025154 L 442.01953125000006 287.74698822805817 L 445.50000000000006 290.60393095360087 M 445.50000000000006 290.60393095360087 L 448.98046875 293.46087367914356 L 452.46093750000006 296.31781640468637 L 455.94140625000006 299.17475913022906 L 459.42187500000006 302.03170185577176 L 462.90234375000006 304.8886445813145 L 466.3828125 307.74558730685726 L 469.86328125 310.60253003239995 L 473.34375 313.45947275794265 L 476.82421875000006 316.31641548348546 L 480.3046875 319.17335820902815 L 483.78515625 322.03030093457085 L 487.265625 324.88724366011354 L 490.74609374999994 327.7441863856563 L 494.22656250000006 330.60112911119904 L 497.70703125 333.4580718367418 L 501.1875 336.3150145622845 M 501.1875 336.3150145622845 L 504.66796874999994 339.1719572878272 L 508.14843749999994 342.02890001336993 M 508.14843749999994 342.02890001336993 L 511.62890625 344.8858427389127 M 511.62890625 344.8858427389127 L 513.4131423185632 346.35043289123996" stroke-opacity="0.6980392156862745" stroke-linejoin="round" stroke-miterlimit="10" stroke-width="2.5" stroke-dasharray="6.5,4"/><path fill="none" stroke="rgb(68,68,68)" paint-order="fill stroke markers" d=" M 297.98128571428583 163.51319636217914 L 297.98128571428583 175.51319636217914" stroke-opacity="1" stroke-linecap="square" stroke-miterlimit="10" stroke-width="3"/><path fill="none" stroke="rgb(68,68,68)" paint-order="fill stroke markers" d=" M 291.98128571428583 169.51319636217914 L 303.98128571428583 169.51319636217914" stroke-opacity="1" stroke-linecap="square" stroke-miterlimit="10" stroke-width="3"/><text fill="rgb(68,68,68)" stroke="none" font-family="geogebra-sans-serif, sans-serif" font-size="24px" font-style="normal" font-weight="normal" text-decoration="normal" x="302" y="158" text-anchor="start" dominant-baseline="alphabetic" fill-opacity="1">P</text><text fill="none" stroke="rgb(255,255,255)" font-family="geogebra-sans-serif, sans-serif" font-size="24px" font-style="normal" font-weight="normal" text-decoration="normal" x="302" y="158" text-anchor="start" dominant-baseline="alphabetic" stroke-opacity="1" stroke-linejoin="bevel" stroke-miterlimit="10" stroke-width="3">P</text><text fill="rgb(68,68,68)" stroke="none" font-family="geogebra-sans-serif, sans-serif" font-size="24px" font-style="normal" font-weight="normal" text-decoration="normal" x="302" y="158" text-anchor="start" dominant-baseline="alphabetic" fill-opacity="1">P</text></g></g></svg>