<svg version="1.1" xmlns="http://www.w3.org/2000/svg" xmlns:xlink="http://www.w3.org/1999/xlink" width="891" height="515"><defs><clipPath id="rhmgThvmTezw"><path fill="none" stroke="none" d=" M 0 0 L 891 0 L 891 515 L 0 515 L 0 0 Z"/></clipPath></defs><g transform="scale(1,1)" clip-path="url(#rhmgThvmTezw)"><g><rect fill="rgb(255,255,255)" stroke="none" x="0" y="0" width="892" height="515" fill-opacity="1"/><path fill="none" stroke="rgb(192,192,192)" paint-order="fill stroke markers" d=" M 31.5 0.5 L 31.5 515.5 M 31.5 0.5 L 31.5 515.5 M 131.5 0.5 L 131.5 515.5 M 182.5 0.5 L 182.5 515.5 M 232.5 0.5 L 232.5 515.5 M 282.5 0.5 L 282.5 515.5 M 332.5 0.5 L 332.5 515.5 M 383.5 0.5 L 383.5 515.5 M 433.5 0.5 L 433.5 515.5 M 483.5 0.5 L 483.5 515.5 M 533.5 0.5 L 533.5 515.5 M 584.5 0.5 L 584.5 515.5 M 634.5 0.5 L 634.5 515.5 M 684.5 0.5 L 684.5 515.5 M 734.5 0.5 L 734.5 515.5 M 785.5 0.5 L 785.5 515.5 M 835.5 0.5 L 835.5 515.5 M 885.5 0.5 L 885.5 515.5" stroke-opacity="1" stroke-linecap="round" stroke-linejoin="round" stroke-miterlimit="10"/><path fill="none" stroke="rgb(192,192,192)" paint-order="fill stroke markers" d=" M 1.5 0.5 L 1.5 515.5 M 11.5 0.5 L 11.5 515.5 M 21.5 0.5 L 21.5 515.5 M 41.5 0.5 L 41.5 515.5 M 51.5 0.5 L 51.5 515.5 M 61.5 0.5 L 61.5 515.5 M 71.5 0.5 L 71.5 515.5 M 91.5 0.5 L 91.5 515.5 M 101.5 0.5 L 101.5 515.5 M 111.5 0.5 L 111.5 515.5 M 121.5 0.5 L 121.5 515.5 M 141.5 0.5 L 141.5 515.5 M 151.5 0.5 L 151.5 515.5 M 161.5 0.5 L 161.5 515.5 M 172.5 0.5 L 172.5 515.5 M 192.5 0.5 L 192.5 515.5 M 202.5 0.5 L 202.5 515.5 M 212.5 0.5 L 212.5 515.5 M 222.5 0.5 L 222.5 515.5 M 242.5 0.5 L 242.5 515.5 M 252.5 0.5 L 252.5 515.5 M 262.5 0.5 L 262.5 515.5 M 272.5 0.5 L 272.5 515.5 M 292.5 0.5 L 292.5 515.5 M 302.5 0.5 L 302.5 515.5 M 312.5 0.5 L 312.5 515.5 M 322.5 0.5 L 322.5 515.5 M 342.5 0.5 L 342.5 515.5 M 352.5 0.5 L 352.5 515.5 M 362.5 0.5 L 362.5 515.5 M 373.5 0.5 L 373.5 515.5 M 393.5 0.5 L 393.5 515.5 M 403.5 0.5 L 403.5 515.5 M 413.5 0.5 L 413.5 515.5 M 423.5 0.5 L 423.5 515.5 M 443.5 0.5 L 443.5 515.5 M 453.5 0.5 L 453.5 515.5 M 463.5 0.5 L 463.5 515.5 M 473.5 0.5 L 473.5 515.5 M 493.5 0.5 L 493.5 515.5 M 503.5 0.5 L 503.5 515.5 M 513.5 0.5 L 513.5 515.5 M 523.5 0.5 L 523.5 515.5 M 543.5 0.5 L 543.5 515.5 M 553.5 0.5 L 553.5 515.5 M 564.5 0.5 L 564.5 515.5 M 574.5 0.5 L 574.5 515.5 M 594.5 0.5 L 594.5 515.5 M 604.5 0.5 L 604.5 515.5 M 614.5 0.5 L 614.5 515.5 M 624.5 0.5 L 624.5 515.5 M 644.5 0.5 L 644.5 515.5 M 654.5 0.5 L 654.5 515.5 M 664.5 0.5 L 664.5 515.5 M 674.5 0.5 L 674.5 515.5 M 694.5 0.5 L 694.5 515.5 M 704.5 0.5 L 704.5 515.5 M 714.5 0.5 L 714.5 515.5 M 724.5 0.5 L 724.5 515.5 M 744.5 0.5 L 744.5 515.5 M 754.5 0.5 L 754.5 515.5 M 765.5 0.5 L 765.5 515.5 M 775.5 0.5 L 775.5 515.5 M 795.5 0.5 L 795.5 515.5 M 805.5 0.5 L 805.5 515.5 M 815.5 0.5 L 815.5 515.5 M 825.5 0.5 L 825.5 515.5 M 845.5 0.5 L 845.5 515.5 M 855.5 0.5 L 855.5 515.5 M 865.5 0.5 L 865.5 515.5 M 875.5 0.5 L 875.5 515.5" stroke-opacity="0.23529411764705882" stroke-linecap="round" stroke-linejoin="round" stroke-miterlimit="10"/><path fill="none" stroke="rgb(192,192,192)" paint-order="fill stroke markers" d=" M 0.5 4.5 L 891.5 4.5 M 0.5 4.5 L 891.5 4.5 M 0.5 54.5 L 891.5 54.5 M 0.5 104.5 L 891.5 104.5 M 0.5 155.5 L 891.5 155.5 M 0.5 205.5 L 891.5 205.5 M 0.5 255.5 L 891.5 255.5 M 0.5 305.5 L 891.5 305.5 M 0.5 356.5 L 891.5 356.5 M 0.5 406.5 L 891.5 406.5 M 0.5 507.5 L 891.5 507.5" stroke-opacity="1" stroke-linecap="round" stroke-linejoin="round" stroke-miterlimit="10"/><path fill="none" stroke="rgb(192,192,192)" paint-order="fill stroke markers" d=" M 0.5 4.5 L 891.5 4.5 M 0.5 14.5 L 891.5 14.5 M 0.5 24.5 L 891.5 24.5 M 0.5 34.5 L 891.5 34.5 M 0.5 44.5 L 891.5 44.5 M 0.5 64.5 L 891.5 64.5 M 0.5 74.5 L 891.5 74.5 M 0.5 84.5 L 891.5 84.5 M 0.5 94.5 L 891.5 94.5 M 0.5 115.5 L 891.5 115.5 M 0.5 125.5 L 891.5 125.5 M 0.5 135.5 L 891.5 135.5 M 0.5 145.5 L 891.5 145.5 M 0.5 165.5 L 891.5 165.5 M 0.5 175.5 L 891.5 175.5 M 0.5 185.5 L 891.5 185.5 M 0.5 195.5 L 891.5 195.5 M 0.5 215.5 L 891.5 215.5 M 0.5 225.5 L 891.5 225.5 M 0.5 235.5 L 891.5 235.5 M 0.5 245.5 L 891.5 245.5 M 0.5 265.5 L 891.5 265.5 M 0.5 275.5 L 891.5 275.5 M 0.5 285.5 L 891.5 285.5 M 0.5 295.5 L 891.5 295.5 M 0.5 316.5 L 891.5 316.5 M 0.5 326.5 L 891.5 326.5 M 0.5 336.5 L 891.5 336.5 M 0.5 346.5 L 891.5 346.5 M 0.5 366.5 L 891.5 366.5 M 0.5 376.5 L 891.5 376.5 M 0.5 386.5 L 891.5 386.5 M 0.5 396.5 L 891.5 396.5 M 0.5 416.5 L 891.5 416.5 M 0.5 426.5 L 891.5 426.5 M 0.5 436.5 L 891.5 436.5 M 0.5 446.5 L 891.5 446.5 M 0.5 466.5 L 891.5 466.5 M 0.5 476.5 L 891.5 476.5 M 0.5 486.5 L 891.5 486.5 M 0.5 496.5 L 891.5 496.5" stroke-opacity="0.23529411764705882" stroke-linecap="round" stroke-linejoin="round" stroke-miterlimit="10"/><path fill="none" stroke="rgb(37,37,37)" paint-order="fill stroke markers" d=" M 81.5 2.5 L 81.5 515.5" stroke-opacity="1" stroke-miterlimit="10"/><path fill="none" stroke="rgb(37,37,37)" paint-order="fill stroke markers" d=" M 81.5 1.5 L 77.5 5.5" stroke-opacity="1" stroke-miterlimit="10"/><path fill="none" stroke="rgb(37,37,37)" paint-order="fill stroke markers" d=" M 81.5 1.5 L 85.5 5.5" stroke-opacity="1" stroke-miterlimit="10"/><path fill="none" stroke="rgb(37,37,37)" paint-order="fill stroke markers" d=" M 0.5 456.5 L 889.5 456.5" stroke-opacity="1" stroke-miterlimit="10"/><path fill="none" stroke="rgb(37,37,37)" paint-order="fill stroke markers" d=" M 890.5 456.5 L 886.5 452.5" stroke-opacity="1" stroke-miterlimit="10"/><path fill="none" stroke="rgb(37,37,37)" paint-order="fill stroke markers" d=" M 890.5 456.5 L 886.5 460.5" stroke-opacity="1" stroke-miterlimit="10"/><text fill="rgb(37,37,37)" stroke="none" font-family="geogebra-sans-serif, sans-serif" font-size="12px" font-style="normal" font-weight="normal" text-decoration="normal" x="26" y="472" text-anchor="start" dominant-baseline="alphabetic" fill-opacity="1">–1</text><text fill="none" stroke="rgb(255,255,255)" font-family="geogebra-sans-serif, sans-serif" font-size="12px" font-style="normal" font-weight="normal" text-decoration="normal" x="26" y="472" text-anchor="start" dominant-baseline="alphabetic" stroke-opacity="1" stroke-linejoin="bevel" stroke-miterlimit="10" stroke-width="3">–1</text><text fill="rgb(37,37,37)" stroke="none" font-family="geogebra-sans-serif, sans-serif" font-size="12px" font-style="normal" font-weight="normal" text-decoration="normal" x="26" y="472" text-anchor="start" dominant-baseline="alphabetic" fill-opacity="1">–1</text><text fill="rgb(37,37,37)" stroke="none" font-family="geogebra-sans-serif, sans-serif" font-size="12px" font-style="normal" font-weight="normal" text-decoration="normal" x="129" y="472" text-anchor="start" dominant-baseline="alphabetic" fill-opacity="1">1</text><text fill="none" stroke="rgb(255,255,255)" font-family="geogebra-sans-serif, sans-serif" font-size="12px" font-style="normal" font-weight="normal" text-decoration="normal" x="129" y="472" text-anchor="start" dominant-baseline="alphabetic" stroke-opacity="1" stroke-linejoin="bevel" stroke-miterlimit="10" stroke-width="3">1</text><text fill="rgb(37,37,37)" stroke="none" font-family="geogebra-sans-serif, sans-serif" font-size="12px" font-style="normal" font-weight="normal" text-decoration="normal" x="129" y="472" text-anchor="start" dominant-baseline="alphabetic" fill-opacity="1">1</text><text fill="rgb(37,37,37)" stroke="none" font-family="geogebra-sans-serif, sans-serif" font-size="12px" font-style="normal" font-weight="normal" text-decoration="normal" x="180" y="472" text-anchor="start" dominant-baseline="alphabetic" fill-opacity="1">2</text><text fill="none" stroke="rgb(255,255,255)" font-family="geogebra-sans-serif, sans-serif" font-size="12px" font-style="normal" font-weight="normal" text-decoration="normal" x="180" y="472" text-anchor="start" dominant-baseline="alphabetic" stroke-opacity="1" stroke-linejoin="bevel" stroke-miterlimit="10" stroke-width="3">2</text><text fill="rgb(37,37,37)" stroke="none" font-family="geogebra-sans-serif, sans-serif" font-size="12px" font-style="normal" font-weight="normal" text-decoration="normal" x="180" y="472" text-anchor="start" dominant-baseline="alphabetic" fill-opacity="1">2</text><text fill="rgb(37,37,37)" stroke="none" font-family="geogebra-sans-serif, sans-serif" font-size="12px" font-style="normal" font-weight="normal" text-decoration="normal" x="230" y="472" text-anchor="start" dominant-baseline="alphabetic" fill-opacity="1">3</text><text fill="none" stroke="rgb(255,255,255)" font-family="geogebra-sans-serif, sans-serif" font-size="12px" font-style="normal" font-weight="normal" text-decoration="normal" x="230" y="472" text-anchor="start" dominant-baseline="alphabetic" stroke-opacity="1" stroke-linejoin="bevel" stroke-miterlimit="10" stroke-width="3">3</text><text fill="rgb(37,37,37)" stroke="none" font-family="geogebra-sans-serif, sans-serif" font-size="12px" font-style="normal" font-weight="normal" text-decoration="normal" x="230" y="472" text-anchor="start" dominant-baseline="alphabetic" fill-opacity="1">3</text><text fill="rgb(37,37,37)" stroke="none" font-family="geogebra-sans-serif, sans-serif" font-size="12px" font-style="normal" font-weight="normal" text-decoration="normal" x="280" y="472" text-anchor="start" dominant-baseline="alphabetic" fill-opacity="1">4</text><text fill="none" stroke="rgb(255,255,255)" font-family="geogebra-sans-serif, sans-serif" font-size="12px" font-style="normal" font-weight="normal" text-decoration="normal" x="280" y="472" text-anchor="start" dominant-baseline="alphabetic" stroke-opacity="1" stroke-linejoin="bevel" stroke-miterlimit="10" stroke-width="3">4</text><text fill="rgb(37,37,37)" stroke="none" font-family="geogebra-sans-serif, sans-serif" font-size="12px" font-style="normal" font-weight="normal" text-decoration="normal" x="280" y="472" text-anchor="start" dominant-baseline="alphabetic" fill-opacity="1">4</text><text fill="rgb(37,37,37)" stroke="none" font-family="geogebra-sans-serif, sans-serif" font-size="12px" font-style="normal" font-weight="normal" text-decoration="normal" x="330" y="472" text-anchor="start" dominant-baseline="alphabetic" fill-opacity="1">5</text><text fill="none" stroke="rgb(255,255,255)" font-family="geogebra-sans-serif, sans-serif" font-size="12px" font-style="normal" font-weight="normal" text-decoration="normal" x="330" y="472" text-anchor="start" dominant-baseline="alphabetic" stroke-opacity="1" stroke-linejoin="bevel" stroke-miterlimit="10" stroke-width="3">5</text><text fill="rgb(37,37,37)" stroke="none" font-family="geogebra-sans-serif, sans-serif" font-size="12px" font-style="normal" font-weight="normal" text-decoration="normal" x="330" y="472" text-anchor="start" dominant-baseline="alphabetic" fill-opacity="1">5</text><text fill="rgb(37,37,37)" stroke="none" font-family="geogebra-sans-serif, sans-serif" font-size="12px" font-style="normal" font-weight="normal" text-decoration="normal" x="381" y="472" text-anchor="start" dominant-baseline="alphabetic" fill-opacity="1">6</text><text fill="none" stroke="rgb(255,255,255)" font-family="geogebra-sans-serif, sans-serif" font-size="12px" font-style="normal" font-weight="normal" text-decoration="normal" x="381" y="472" text-anchor="start" dominant-baseline="alphabetic" stroke-opacity="1" stroke-linejoin="bevel" stroke-miterlimit="10" stroke-width="3">6</text><text fill="rgb(37,37,37)" stroke="none" font-family="geogebra-sans-serif, sans-serif" font-size="12px" font-style="normal" font-weight="normal" text-decoration="normal" x="381" y="472" text-anchor="start" dominant-baseline="alphabetic" fill-opacity="1">6</text><text fill="rgb(37,37,37)" stroke="none" font-family="geogebra-sans-serif, sans-serif" font-size="12px" font-style="normal" font-weight="normal" text-decoration="normal" x="431" y="472" text-anchor="start" dominant-baseline="alphabetic" fill-opacity="1">7</text><text fill="none" stroke="rgb(255,255,255)" font-family="geogebra-sans-serif, sans-serif" font-size="12px" font-style="normal" font-weight="normal" text-decoration="normal" x="431" y="472" text-anchor="start" dominant-baseline="alphabetic" stroke-opacity="1" stroke-linejoin="bevel" stroke-miterlimit="10" stroke-width="3">7</text><text fill="rgb(37,37,37)" stroke="none" font-family="geogebra-sans-serif, sans-serif" font-size="12px" font-style="normal" font-weight="normal" text-decoration="normal" x="431" y="472" text-anchor="start" dominant-baseline="alphabetic" fill-opacity="1">7</text><text fill="rgb(37,37,37)" stroke="none" font-family="geogebra-sans-serif, sans-serif" font-size="12px" font-style="normal" font-weight="normal" text-decoration="normal" x="481" y="472" text-anchor="start" dominant-baseline="alphabetic" fill-opacity="1">8</text><text fill="none" stroke="rgb(255,255,255)" font-family="geogebra-sans-serif, sans-serif" font-size="12px" font-style="normal" font-weight="normal" text-decoration="normal" x="481" y="472" text-anchor="start" dominant-baseline="alphabetic" stroke-opacity="1" stroke-linejoin="bevel" stroke-miterlimit="10" stroke-width="3">8</text><text fill="rgb(37,37,37)" stroke="none" font-family="geogebra-sans-serif, sans-serif" font-size="12px" font-style="normal" font-weight="normal" text-decoration="normal" x="481" y="472" text-anchor="start" dominant-baseline="alphabetic" fill-opacity="1">8</text><text fill="rgb(37,37,37)" stroke="none" font-family="geogebra-sans-serif, sans-serif" font-size="12px" font-style="normal" font-weight="normal" text-decoration="normal" x="531" y="472" text-anchor="start" dominant-baseline="alphabetic" fill-opacity="1">9</text><text fill="none" stroke="rgb(255,255,255)" font-family="geogebra-sans-serif, sans-serif" font-size="12px" font-style="normal" font-weight="normal" text-decoration="normal" x="531" y="472" text-anchor="start" dominant-baseline="alphabetic" stroke-opacity="1" stroke-linejoin="bevel" stroke-miterlimit="10" stroke-width="3">9</text><text fill="rgb(37,37,37)" stroke="none" font-family="geogebra-sans-serif, sans-serif" font-size="12px" font-style="normal" font-weight="normal" text-decoration="normal" x="531" y="472" text-anchor="start" dominant-baseline="alphabetic" fill-opacity="1">9</text><text fill="rgb(37,37,37)" stroke="none" font-family="geogebra-sans-serif, sans-serif" font-size="12px" font-style="normal" font-weight="normal" text-decoration="normal" x="579" y="472" text-anchor="start" dominant-baseline="alphabetic" fill-opacity="1">10</text><text fill="none" stroke="rgb(255,255,255)" font-family="geogebra-sans-serif, sans-serif" font-size="12px" font-style="normal" font-weight="normal" text-decoration="normal" x="579" y="472" text-anchor="start" dominant-baseline="alphabetic" stroke-opacity="1" stroke-linejoin="bevel" stroke-miterlimit="10" stroke-width="3">10</text><text fill="rgb(37,37,37)" stroke="none" font-family="geogebra-sans-serif, sans-serif" font-size="12px" font-style="normal" font-weight="normal" text-decoration="normal" x="579" y="472" text-anchor="start" dominant-baseline="alphabetic" fill-opacity="1">10</text><text fill="rgb(37,37,37)" stroke="none" font-family="geogebra-sans-serif, sans-serif" font-size="12px" font-style="normal" font-weight="normal" text-decoration="normal" x="629" y="472" text-anchor="start" dominant-baseline="alphabetic" fill-opacity="1">11</text><text fill="none" stroke="rgb(255,255,255)" font-family="geogebra-sans-serif, sans-serif" font-size="12px" font-style="normal" font-weight="normal" text-decoration="normal" x="629" y="472" text-anchor="start" dominant-baseline="alphabetic" stroke-opacity="1" stroke-linejoin="bevel" stroke-miterlimit="10" stroke-width="3">11</text><text fill="rgb(37,37,37)" stroke="none" font-family="geogebra-sans-serif, sans-serif" font-size="12px" font-style="normal" font-weight="normal" text-decoration="normal" x="629" y="472" text-anchor="start" dominant-baseline="alphabetic" fill-opacity="1">11</text><text fill="rgb(37,37,37)" stroke="none" font-family="geogebra-sans-serif, sans-serif" font-size="12px" font-style="normal" font-weight="normal" text-decoration="normal" x="679" y="472" text-anchor="start" dominant-baseline="alphabetic" fill-opacity="1">12</text><text fill="none" stroke="rgb(255,255,255)" font-family="geogebra-sans-serif, sans-serif" font-size="12px" font-style="normal" font-weight="normal" text-decoration="normal" x="679" y="472" text-anchor="start" dominant-baseline="alphabetic" stroke-opacity="1" stroke-linejoin="bevel" stroke-miterlimit="10" stroke-width="3">12</text><text fill="rgb(37,37,37)" stroke="none" font-family="geogebra-sans-serif, sans-serif" font-size="12px" font-style="normal" font-weight="normal" text-decoration="normal" x="679" y="472" text-anchor="start" dominant-baseline="alphabetic" fill-opacity="1">12</text><text fill="rgb(37,37,37)" stroke="none" font-family="geogebra-sans-serif, sans-serif" font-size="12px" font-style="normal" font-weight="normal" text-decoration="normal" x="729" y="472" text-anchor="start" dominant-baseline="alphabetic" fill-opacity="1">13</text><text fill="none" stroke="rgb(255,255,255)" font-family="geogebra-sans-serif, sans-serif" font-size="12px" font-style="normal" font-weight="normal" text-decoration="normal" x="729" y="472" text-anchor="start" dominant-baseline="alphabetic" stroke-opacity="1" stroke-linejoin="bevel" stroke-miterlimit="10" stroke-width="3">13</text><text fill="rgb(37,37,37)" stroke="none" font-family="geogebra-sans-serif, sans-serif" font-size="12px" font-style="normal" font-weight="normal" text-decoration="normal" x="729" y="472" text-anchor="start" dominant-baseline="alphabetic" fill-opacity="1">13</text><text fill="rgb(37,37,37)" stroke="none" font-family="geogebra-sans-serif, sans-serif" font-size="12px" font-style="normal" font-weight="normal" text-decoration="normal" x="780" y="472" text-anchor="start" dominant-baseline="alphabetic" fill-opacity="1">14</text><text fill="none" stroke="rgb(255,255,255)" font-family="geogebra-sans-serif, sans-serif" font-size="12px" font-style="normal" font-weight="normal" text-decoration="normal" x="780" y="472" text-anchor="start" dominant-baseline="alphabetic" stroke-opacity="1" stroke-linejoin="bevel" stroke-miterlimit="10" stroke-width="3">14</text><text fill="rgb(37,37,37)" stroke="none" font-family="geogebra-sans-serif, sans-serif" font-size="12px" font-style="normal" font-weight="normal" text-decoration="normal" x="780" y="472" text-anchor="start" dominant-baseline="alphabetic" fill-opacity="1">14</text><text fill="rgb(37,37,37)" stroke="none" font-family="geogebra-sans-serif, sans-serif" font-size="12px" font-style="normal" font-weight="normal" text-decoration="normal" x="830" y="472" text-anchor="start" dominant-baseline="alphabetic" fill-opacity="1">15</text><text fill="none" stroke="rgb(255,255,255)" font-family="geogebra-sans-serif, sans-serif" font-size="12px" font-style="normal" font-weight="normal" text-decoration="normal" x="830" y="472" text-anchor="start" dominant-baseline="alphabetic" stroke-opacity="1" stroke-linejoin="bevel" stroke-miterlimit="10" stroke-width="3">15</text><text fill="rgb(37,37,37)" stroke="none" font-family="geogebra-sans-serif, sans-serif" font-size="12px" font-style="normal" font-weight="normal" text-decoration="normal" x="830" y="472" text-anchor="start" dominant-baseline="alphabetic" fill-opacity="1">15</text><text fill="rgb(37,37,37)" stroke="none" font-family="geogebra-sans-serif, sans-serif" font-size="12px" font-style="normal" font-weight="normal" text-decoration="normal" x="66" y="411" text-anchor="start" dominant-baseline="alphabetic" fill-opacity="1">1</text><text fill="none" stroke="rgb(255,255,255)" font-family="geogebra-sans-serif, sans-serif" font-size="12px" font-style="normal" font-weight="normal" text-decoration="normal" x="66" y="411" text-anchor="start" dominant-baseline="alphabetic" stroke-opacity="1" stroke-linejoin="bevel" stroke-miterlimit="10" stroke-width="3">1</text><text fill="rgb(37,37,37)" stroke="none" font-family="geogebra-sans-serif, sans-serif" font-size="12px" font-style="normal" font-weight="normal" text-decoration="normal" x="66" y="411" text-anchor="start" dominant-baseline="alphabetic" fill-opacity="1">1</text><text fill="rgb(37,37,37)" stroke="none" font-family="geogebra-sans-serif, sans-serif" font-size="12px" font-style="normal" font-weight="normal" text-decoration="normal" x="66" y="361" text-anchor="start" dominant-baseline="alphabetic" fill-opacity="1">2</text><text fill="none" stroke="rgb(255,255,255)" font-family="geogebra-sans-serif, sans-serif" font-size="12px" font-style="normal" font-weight="normal" text-decoration="normal" x="66" y="361" text-anchor="start" dominant-baseline="alphabetic" stroke-opacity="1" stroke-linejoin="bevel" stroke-miterlimit="10" stroke-width="3">2</text><text fill="rgb(37,37,37)" stroke="none" font-family="geogebra-sans-serif, sans-serif" font-size="12px" font-style="normal" font-weight="normal" text-decoration="normal" x="66" y="361" text-anchor="start" dominant-baseline="alphabetic" fill-opacity="1">2</text><text fill="rgb(37,37,37)" stroke="none" font-family="geogebra-sans-serif, sans-serif" font-size="12px" font-style="normal" font-weight="normal" text-decoration="normal" x="66" y="310" text-anchor="start" dominant-baseline="alphabetic" fill-opacity="1">3</text><text fill="none" stroke="rgb(255,255,255)" font-family="geogebra-sans-serif, sans-serif" font-size="12px" font-style="normal" font-weight="normal" text-decoration="normal" x="66" y="310" text-anchor="start" dominant-baseline="alphabetic" stroke-opacity="1" stroke-linejoin="bevel" stroke-miterlimit="10" stroke-width="3">3</text><text fill="rgb(37,37,37)" stroke="none" font-family="geogebra-sans-serif, sans-serif" font-size="12px" font-style="normal" font-weight="normal" text-decoration="normal" x="66" y="310" text-anchor="start" dominant-baseline="alphabetic" fill-opacity="1">3</text><text fill="rgb(37,37,37)" stroke="none" font-family="geogebra-sans-serif, sans-serif" font-size="12px" font-style="normal" font-weight="normal" text-decoration="normal" x="66" y="260" text-anchor="start" dominant-baseline="alphabetic" fill-opacity="1">4</text><text fill="none" stroke="rgb(255,255,255)" font-family="geogebra-sans-serif, sans-serif" font-size="12px" font-style="normal" font-weight="normal" text-decoration="normal" x="66" y="260" text-anchor="start" dominant-baseline="alphabetic" stroke-opacity="1" stroke-linejoin="bevel" stroke-miterlimit="10" stroke-width="3">4</text><text fill="rgb(37,37,37)" stroke="none" font-family="geogebra-sans-serif, sans-serif" font-size="12px" font-style="normal" font-weight="normal" text-decoration="normal" x="66" y="260" text-anchor="start" dominant-baseline="alphabetic" fill-opacity="1">4</text><text fill="rgb(37,37,37)" stroke="none" font-family="geogebra-sans-serif, sans-serif" font-size="12px" font-style="normal" font-weight="normal" text-decoration="normal" x="66" y="210" text-anchor="start" dominant-baseline="alphabetic" fill-opacity="1">5</text><text fill="none" stroke="rgb(255,255,255)" font-family="geogebra-sans-serif, sans-serif" font-size="12px" font-style="normal" font-weight="normal" text-decoration="normal" x="66" y="210" text-anchor="start" dominant-baseline="alphabetic" stroke-opacity="1" stroke-linejoin="bevel" stroke-miterlimit="10" stroke-width="3">5</text><text fill="rgb(37,37,37)" stroke="none" font-family="geogebra-sans-serif, sans-serif" font-size="12px" font-style="normal" font-weight="normal" text-decoration="normal" x="66" y="210" text-anchor="start" dominant-baseline="alphabetic" fill-opacity="1">5</text><text fill="rgb(37,37,37)" stroke="none" font-family="geogebra-sans-serif, sans-serif" font-size="12px" font-style="normal" font-weight="normal" text-decoration="normal" x="66" y="160" text-anchor="start" dominant-baseline="alphabetic" fill-opacity="1">6</text><text fill="none" stroke="rgb(255,255,255)" font-family="geogebra-sans-serif, sans-serif" font-size="12px" font-style="normal" font-weight="normal" text-decoration="normal" x="66" y="160" text-anchor="start" dominant-baseline="alphabetic" stroke-opacity="1" stroke-linejoin="bevel" stroke-miterlimit="10" stroke-width="3">6</text><text fill="rgb(37,37,37)" stroke="none" font-family="geogebra-sans-serif, sans-serif" font-size="12px" font-style="normal" font-weight="normal" text-decoration="normal" x="66" y="160" text-anchor="start" dominant-baseline="alphabetic" fill-opacity="1">6</text><text fill="rgb(37,37,37)" stroke="none" font-family="geogebra-sans-serif, sans-serif" font-size="12px" font-style="normal" font-weight="normal" text-decoration="normal" x="66" y="109" text-anchor="start" dominant-baseline="alphabetic" fill-opacity="1">7</text><text fill="none" stroke="rgb(255,255,255)" font-family="geogebra-sans-serif, sans-serif" font-size="12px" font-style="normal" font-weight="normal" text-decoration="normal" x="66" y="109" text-anchor="start" dominant-baseline="alphabetic" stroke-opacity="1" stroke-linejoin="bevel" stroke-miterlimit="10" stroke-width="3">7</text><text fill="rgb(37,37,37)" stroke="none" font-family="geogebra-sans-serif, sans-serif" font-size="12px" font-style="normal" font-weight="normal" text-decoration="normal" x="66" y="109" text-anchor="start" dominant-baseline="alphabetic" fill-opacity="1">7</text><text fill="rgb(37,37,37)" stroke="none" font-family="geogebra-sans-serif, sans-serif" font-size="12px" font-style="normal" font-weight="normal" text-decoration="normal" x="66" y="59" text-anchor="start" dominant-baseline="alphabetic" fill-opacity="1">8</text><text fill="none" stroke="rgb(255,255,255)" font-family="geogebra-sans-serif, sans-serif" font-size="12px" font-style="normal" font-weight="normal" text-decoration="normal" x="66" y="59" text-anchor="start" dominant-baseline="alphabetic" stroke-opacity="1" stroke-linejoin="bevel" stroke-miterlimit="10" stroke-width="3">8</text><text fill="rgb(37,37,37)" stroke="none" font-family="geogebra-sans-serif, sans-serif" font-size="12px" font-style="normal" font-weight="normal" text-decoration="normal" x="66" y="59" text-anchor="start" dominant-baseline="alphabetic" fill-opacity="1">8</text><text fill="rgb(37,37,37)" stroke="none" font-family="geogebra-sans-serif, sans-serif" font-size="12px" font-style="normal" font-weight="normal" text-decoration="normal" x="66" y="472" text-anchor="start" dominant-baseline="alphabetic" fill-opacity="1">0</text><text fill="none" stroke="rgb(255,255,255)" font-family="geogebra-sans-serif, sans-serif" font-size="12px" font-style="normal" font-weight="normal" text-decoration="normal" x="66" y="472" text-anchor="start" dominant-baseline="alphabetic" stroke-opacity="1" stroke-linejoin="bevel" stroke-miterlimit="10" stroke-width="3">0</text><text fill="rgb(37,37,37)" stroke="none" font-family="geogebra-sans-serif, sans-serif" font-size="12px" font-style="normal" font-weight="normal" text-decoration="normal" x="66" y="472" text-anchor="start" dominant-baseline="alphabetic" fill-opacity="1">0</text><path fill="none" stroke="rgb(0,100,0)" paint-order="fill stroke markers" d=" M 45.24609375 522.3569252469703 L 48.7265625 514.9931469467814 L 52.20703125 507.87999225683035 L 55.6875 501.00893129049535 L 59.16796875 494.37172447285235 L 62.6484375 487.9604126600183 L 66.12890625 481.76730759477897 L 69.609375 475.7849826870564 L 73.08984375 470.0062641081598 L 76.5703125 464.42422218814005 L 80.05078125 459.0321631059332 L 83.53125 453.8236208623258 L 87.01171875 448.7923495261188 L 90.4921875 443.93231574418934 L 93.97265625 439.2376915064708 L 97.453125 434.7028471571741 L 100.93359375 430.32234464386914 L 104.41406249999999 426.090930996332 L 107.89453125 422.00353202733675 L 111.375 418.055246247839 L 114.85546875 414.24133898925396 L 118.3359375 410.5572367257805 L 121.81640624999999 406.9985215899633 L 125.296875 403.560926074915 L 128.77734375 400.2403279168482 L 132.2578125 397.03274515177634 L 135.73828125 393.93433134045995 L 139.21875 390.9413709558693 L 142.69921875 388.0502749276329 L 146.1796875 385.2575763381302 L 149.66015625 382.559926265065 L 153.140625 379.9540897655361 L 156.62109375 377.4369419967889 L 160.1015625 375.0054644689953 L 163.58203125 372.656741425569 L 167.0625 370.3879563466761 L 170.54296875 368.1963885717468 L 174.0234375 366.0794100369389 L 177.50390625 364.03448212364094 L 180.984375 362.0591526142348 L 184.46484375 360.1510527514686 L 187.9453125 358.30789439791226 L 191.42578125 356.5274672920901 L 194.90625 354.80763639799994 L 198.38671875 353.14633934484095 L 201.8671875 351.54158395387867 L 205.34765624999994 349.9914458494826 L 208.82812499999994 348.49406615147154 L 212.30859374999997 347.0476492459991 L 215.78906249999997 345.65046063230574 L 219.26953124999997 344.30082484275675 L 222.74999999999997 342.99712343367037 L 226.23046874999997 341.7377930445275 L 229.7109375 340.52132352323576 L 233.19140625 339.3462561151992 L 236.671875 338.21118171402264 L 240.15234375 337.11473917175255 L 243.63281249999997 336.05561366662835 L 247.11328124999997 335.0325351263865 L 250.59374999999997 334.0442767052276 L 254.07421874999997 333.08965331261817 L 257.5546875 332.1675201921652 L 261.03515625 331.27677154885794 L 264.515625 330.4163392230305 L 267.99609375 329.5851914094567 L 271.4765625 328.78233142003876 L 274.95703125 328.0067964886088 L 278.43749999999994 327.25765661640764 L 281.91796875 326.5340134568572 L 285.3984375 325.83499923829027 L 288.87890625 325.1597757233435 L 292.359375 324.5075332037683 L 295.83984375 323.8774895294519 L 299.3203125 323.26888917048643 L 302.80078125 322.681002311159 L 306.28125 322.11312397477855 L 309.76171875 321.56457317828836 L 313.2421875 321.03469211565096 L 316.72265624999994 320.5228453690264 L 320.20312499999994 320.0284191467982 L 323.68359375 319.55082054753206 L 327.1640625 319.08947684898567 L 330.64453125 318.6438348213176 L 334.125 318.2133600636697 L 337.60546875 317.79753636332964 L 341.0859375 317.3958650767035 L 344.56640625 317.0078645313571 L 348.046875 316.6330694484084 L 351.52734375 316.27103038457915 L 355.00781249999994 315.92131319323505 L 358.48828124999994 315.5834985037702 L 361.96874999999994 315.25718121871034 L 365.44921874999994 314.94197002793123 L 368.92968749999994 314.6374869394116 L 372.41015625 314.34336682595585 L 375.890625 314.0592569873445 L 379.37109375 313.7848167273861 L 382.8515625 313.5197169453646 L 386.33203125 313.26363974139144 L 389.8125 313.016278035189 L 393.29296874999994 312.7773351978492 L 396.77343749999994 312.5465246961248 L 400.25390624999994 312.323569748827 L 403.734375 312.10820299491786 L 407.21484375 311.90016617289814 L 410.69531249999994 311.6992098111085 L 414.17578124999994 311.50509292856964 L 417.65624999999994 311.31758274600554 L 421.13671874999994 311.13645440670115 L 424.61718749999994 310.9614907068606 L 428.09765624999994 310.79248183514324 L 431.57812499999994 310.62922512106366 L 435.05859374999994 310.4715247919552 L 438.53906249999994 310.3191917382053 L 442.01953124999994 310.1720432864808 L 445.49999999999994 310.0299029806712 L 448.98046874999994 309.8926003702877 L 452.4609375 309.75997080606436 L 455.94140625 309.631855242515 L 459.421875 309.5081000472107 L 462.90234375 309.38855681654854 L 466.3828125 309.2730821977901 L 469.86328125 309.16153771715693 L 473.34375 309.0537896137772 L 476.82421875 308.9497086792835 L 480.3046875 308.84917010286955 L 483.78515624999994 308.75205332162136 L 487.26562499999994 308.65824187594126 L 490.74609375 308.5676232698931 L 494.2265625 308.4800888363005 L 497.70703125 308.3955336064364 L 501.1875 308.3138561841473 L 504.66796875 308.2349586242623 L 508.1484375 308.1587463151401 L 511.62890625 308.08512786521317 L 515.109375 308.0140149933943 L 518.58984375 307.9453224232118 L 522.0703125 307.87896778054875 L 525.55078125 307.8148714948626 L 529.03125 307.7529567037661 L 532.51171875 307.6931491608565 L 535.9921875 307.6353771466812 L 539.47265625 307.57957138273423 L 542.953125 307.5256649483789 L 546.43359375 307.4735932005992 L 549.9140625 307.42329369648144 L 553.39453125 307.3747061183344 L 556.875 307.3277722013586 L 560.35546875 307.28243566377614 L 563.8359375 307.2386421393402 L 567.31640625 307.19633911213975 L 570.796875 307.15547585362447 L 574.27734375 307.1160033617724 L 577.7578125 307.07787430232815 L 581.23828125 307.0410429520414 L 584.71875 307.0054651438361 L 588.19921875 306.9710982138476 L 591.6796875 306.93790095026066 L 595.16015625 306.9058335438899 L 598.640625 306.8748575404413 L 602.12109375 306.8449357943996 L 605.6015625 306.81603242448375 L 609.08203125 306.7881127706198 L 612.5625 306.7611433523772 L 616.04296875 306.73509182881986 L 619.5234375 306.70992695972444 L 623.00390625 306.68561856811743 L 626.484375 306.6621375040881 L 629.96484375 306.6394556098327 L 633.4453125 306.61754568588833 L 636.92578125 306.59638145851653 L 640.40625 306.575937548196 L 643.88671875 306.5561894391888 L 647.3671875 306.5371134501413 L 650.84765625 306.5186867056866 L 654.328125 306.50088710901287 L 657.80859375 306.4836933153654 L 661.2890625 306.4670847064508 L 664.76953125 306.45104136571206 L 668.25 306.43554405444524 L 671.73046875 306.4205741887288 L 675.2109375 306.4061138171385 L 678.69140625 306.3921455992207 L 682.171875 306.3786527846978 L 685.65234375 306.36561919338203 L 689.1328125 306.35302919577276 L 692.61328125 306.34086769431383 L 696.09375 306.32912010528923 L 699.57421875 306.3177723413344 L 703.0546875 306.3068107945435 L 706.53515625 306.2962223201507 L 710.015625 306.2859942207681 L 713.49609375 306.27611423115854 L 716.9765625 306.2665705035281 L 720.45703125 306.2573515933184 L 723.9375 306.2484464454824 L 727.41796875 306.23984438122784 L 730.8984375 306.2315350852114 L 734.37890625 306.22350859316896 L 737.859375 306.2157552799663 L 741.33984375 306.20826584805764 L 744.8203125 306.2010313163356 L 748.30078125 306.19404300936196 L 751.78125 306.1872925469637 L 755.26171875 306.18077183418427 L 758.7421875 306.1744730515758 L 762.22265625 306.16838864582303 L 765.703125 306.1625113206848 L 769.18359375 306.1568340282451 L 772.6640625 306.1513499604612 L 776.14453125 306.1460525409998 L 779.625 306.1409354173507 L 783.10546875 306.1359924532092 L 786.5859375 306.13121772111765 L 790.06640625 306.1266054953572 L 793.546875 306.12215024508185 L 797.02734375 306.11784662768616 L 800.5078125 306.1136894823983 L 803.98828125 306.1096738240913 L 807.46875 306.10579483730567 L 810.94921875 306.10204787047394 L 814.4296875 306.0984284303434 L 817.91015625 306.09493217658746 L 821.390625 306.09155491660124 L 824.87109375 306.08829260047344 L 828.3515625 306.08514131613015 L 831.83203125 306.0820972846436 L 835.3125 306.07915685570043 L 838.79296875 306.07631650322446 L 842.2734375 306.0735728211482 L 845.75390625 306.0709225193286 L 849.234375 306.06836241960127 L 852.71484375 306.0658894519698 L 856.1953125 306.06350065092374 L 859.67578125 306.06119315188306 L 863.15625 306.0589641877624 L 866.63671875 306.05681108565335 L 870.1171875 306.05473126361903 L 873.59765625 306.0527222275977 L 877.078125 306.0507815684124 L 880.55859375 306.04890695888133 L 884.0390625 306.04709615102786 L 887.51953125 306.0453469733842 L 891 306.0436573283878" stroke-opacity="0.6980392156862745" stroke-linecap="round" stroke-linejoin="round" stroke-miterlimit="10" stroke-width="2.5"/><text fill="rgb(0,100,0)" stroke="none" font-family="geogebra-sans-serif, sans-serif" font-size="16px" font-style="normal" font-weight="normal" text-decoration="normal" x="48" y="507" text-anchor="start" dominant-baseline="alphabetic" fill-opacity="1">v</text><text fill="none" stroke="rgb(255,255,255)" font-family="geogebra-sans-serif, sans-serif" font-size="16px" font-style="normal" font-weight="normal" text-decoration="normal" x="48" y="507" text-anchor="start" dominant-baseline="alphabetic" stroke-opacity="1" stroke-linejoin="bevel" stroke-miterlimit="10" stroke-width="3">v</text><text fill="rgb(0,100,0)" stroke="none" font-family="geogebra-sans-serif, sans-serif" font-size="16px" font-style="normal" font-weight="normal" text-decoration="normal" x="48" y="507" text-anchor="start" dominant-baseline="alphabetic" fill-opacity="1">v</text><path fill="none" stroke="rgb(128,0,128)" paint-order="fill stroke markers" d=" M -5 305.9957021248884 L 897 305.9957021248884" stroke-opacity="0.6980392156862745" stroke-linecap="round" stroke-linejoin="round" stroke-miterlimit="10" stroke-width="2.5"/><text fill="rgb(128,0,128)" stroke="none" font-family="geogebra-sans-serif, sans-serif" font-size="16px" font-style="normal" font-weight="normal" text-decoration="normal" x="8" y="297" text-anchor="start" dominant-baseline="alphabetic" fill-opacity="1">sp</text><text fill="none" stroke="rgb(255,255,255)" font-family="geogebra-sans-serif, sans-serif" font-size="16px" font-style="normal" font-weight="normal" text-decoration="normal" x="8" y="297" text-anchor="start" dominant-baseline="alphabetic" stroke-opacity="1" stroke-linejoin="bevel" stroke-miterlimit="10" stroke-width="3">sp</text><text fill="rgb(128,0,128)" stroke="none" font-family="geogebra-sans-serif, sans-serif" font-size="16px" font-style="normal" font-weight="normal" text-decoration="normal" x="8" y="297" text-anchor="start" dominant-baseline="alphabetic" fill-opacity="1">sp</text><path fill="none" stroke="rgb(204,0,0)" paint-order="fill stroke markers" d=" M 39.39429590625832 520 L 389.39429590625775 -5" stroke-opacity="0.6980392156862745" stroke-linecap="round" stroke-linejoin="round" stroke-miterlimit="10" stroke-width="2.5"/><text fill="rgb(204,0,0)" stroke="none" font-family="geogebra-sans-serif, sans-serif" font-size="16px" font-style="normal" font-weight="normal" text-decoration="normal" x="57" y="507" text-anchor="start" dominant-baseline="alphabetic" fill-opacity="1">T</text><text fill="none" stroke="rgb(255,255,255)" font-family="geogebra-sans-serif, sans-serif" font-size="16px" font-style="normal" font-weight="normal" text-decoration="normal" x="57" y="507" text-anchor="start" dominant-baseline="alphabetic" stroke-opacity="1" stroke-linejoin="bevel" stroke-miterlimit="10" stroke-width="3">T</text><text fill="rgb(204,0,0)" stroke="none" font-family="geogebra-sans-serif, sans-serif" font-size="16px" font-style="normal" font-weight="normal" text-decoration="normal" x="57" y="507" text-anchor="start" dominant-baseline="alphabetic" fill-opacity="1">T</text><path fill="none" stroke="rgb(0,0,0)" paint-order="fill stroke markers" d=" M 182.06382782299914 305.9957021248884 L 182.06382782299914 456.7640557861542" stroke-opacity="0.6980392156862745" stroke-linejoin="round" stroke-miterlimit="10" stroke-width="1.5" stroke-dasharray="5.5,4"/><text fill="rgb(255,153,51)" stroke="none" font-family="geogebra-sans-serif, sans-serif" font-size="16px" font-style="normal" font-weight="normal" text-decoration="normal" x="97" y="381" text-anchor="start" dominant-baseline="alphabetic" fill-opacity="1">k</text><text fill="none" stroke="rgb(255,255,255)" font-family="geogebra-sans-serif, sans-serif" font-size="16px" font-style="normal" font-weight="normal" text-decoration="normal" x="97" y="381" text-anchor="start" dominant-baseline="alphabetic" stroke-opacity="1" stroke-linejoin="bevel" stroke-miterlimit="10" stroke-width="3">k</text><text fill="rgb(255,153,51)" stroke="none" font-family="geogebra-sans-serif, sans-serif" font-size="16px" font-style="normal" font-weight="normal" text-decoration="normal" x="97" y="381" text-anchor="start" dominant-baseline="alphabetic" fill-opacity="1">k</text><path fill="none" stroke="rgb(255,153,51)" paint-order="fill stroke markers" d=" M 81.5515920488221 456.7640557861542 L 81.5515920488221 305.9957021248884" stroke-opacity="0.6980392156862745" stroke-linecap="round" stroke-linejoin="round" stroke-miterlimit="10" stroke-width="3.5"/><path fill="rgb(125,125,255)" stroke="none" paint-order="stroke fill markers" d=" M 86.5515920488221 456.7640557861542 C 86.5515920488221 459.52547953530814 84.31301579797606 461.7640557861542 81.5515920488221 461.7640557861542 C 78.79016829966814 461.7640557861542 76.5515920488221 459.52547953530814 76.5515920488221 456.7640557861542 C 76.5515920488221 454.00263203700024 78.79016829966814 451.7640557861542 81.5515920488221 451.7640557861542 C 84.31301579797606 451.7640557861542 86.5515920488221 454.00263203700024 86.5515920488221 456.7640557861542 Z" fill-opacity="1"/><path fill="none" stroke="rgb(0,0,0)" paint-order="fill stroke markers" d=" M 86.5515920488221 456.7640557861542 C 86.5515920488221 459.52547953530814 84.31301579797606 461.7640557861542 81.5515920488221 461.7640557861542 C 78.79016829966814 461.7640557861542 76.5515920488221 459.52547953530814 76.5515920488221 456.7640557861542 C 76.5515920488221 454.00263203700024 78.79016829966814 451.7640557861542 81.5515920488221 451.7640557861542 C 84.31301579797606 451.7640557861542 86.5515920488221 454.00263203700024 86.5515920488221 456.7640557861542 Z" stroke-opacity="1" stroke-linecap="round" stroke-linejoin="round" stroke-miterlimit="10"/><text fill="rgb(125,125,255)" stroke="none" font-family="geogebra-sans-serif, sans-serif" font-size="16px" font-style="normal" font-weight="normal" text-decoration="normal" x="86" y="447" text-anchor="start" dominant-baseline="alphabetic" fill-opacity="1">CI</text><text fill="none" stroke="rgb(255,255,255)" font-family="geogebra-sans-serif, sans-serif" font-size="16px" font-style="normal" font-weight="normal" text-decoration="normal" x="86" y="447" text-anchor="start" dominant-baseline="alphabetic" stroke-opacity="1" stroke-linejoin="bevel" stroke-miterlimit="10" stroke-width="3">CI</text><text fill="rgb(125,125,255)" stroke="none" font-family="geogebra-sans-serif, sans-serif" font-size="16px" font-style="normal" font-weight="normal" text-decoration="normal" x="86" y="447" text-anchor="start" dominant-baseline="alphabetic" fill-opacity="1">CI</text></g></g></svg>