<svg version="1.1" xmlns="http://www.w3.org/2000/svg" xmlns:xlink="http://www.w3.org/1999/xlink" width="891" height="515"><defs><clipPath id="vSQtTBhaAMBq"><path fill="none" stroke="none" d=" M 0 0 L 891 0 L 891 515 L 0 515 L 0 0 Z"/></clipPath></defs><g transform="scale(1,1)" clip-path="url(#vSQtTBhaAMBq)"><g><rect fill="rgb(255,255,255)" stroke="none" x="0" y="0" width="892" height="515" fill-opacity="1"/><path fill="none" stroke="rgb(192,192,192)" paint-order="fill stroke markers" d=" M 31.5 0.5 L 31.5 515.5 M 31.5 0.5 L 31.5 515.5 M 132.5 0.5 L 132.5 515.5 M 182.5 0.5 L 182.5 515.5 M 232.5 0.5 L 232.5 515.5 M 282.5 0.5 L 282.5 515.5 M 333.5 0.5 L 333.5 515.5 M 383.5 0.5 L 383.5 515.5 M 433.5 0.5 L 433.5 515.5 M 483.5 0.5 L 483.5 515.5 M 534.5 0.5 L 534.5 515.5 M 584.5 0.5 L 584.5 515.5 M 634.5 0.5 L 634.5 515.5 M 684.5 0.5 L 684.5 515.5 M 735.5 0.5 L 735.5 515.5 M 785.5 0.5 L 785.5 515.5 M 835.5 0.5 L 835.5 515.5 M 885.5 0.5 L 885.5 515.5" stroke-opacity="1" stroke-linecap="round" stroke-linejoin="round" stroke-miterlimit="10"/><path fill="none" stroke="rgb(192,192,192)" paint-order="fill stroke markers" d=" M 1.5 0.5 L 1.5 515.5 M 11.5 0.5 L 11.5 515.5 M 21.5 0.5 L 21.5 515.5 M 41.5 0.5 L 41.5 515.5 M 51.5 0.5 L 51.5 515.5 M 61.5 0.5 L 61.5 515.5 M 71.5 0.5 L 71.5 515.5 M 91.5 0.5 L 91.5 515.5 M 101.5 0.5 L 101.5 515.5 M 111.5 0.5 L 111.5 515.5 M 122.5 0.5 L 122.5 515.5 M 142.5 0.5 L 142.5 515.5 M 152.5 0.5 L 152.5 515.5 M 162.5 0.5 L 162.5 515.5 M 172.5 0.5 L 172.5 515.5 M 192.5 0.5 L 192.5 515.5 M 202.5 0.5 L 202.5 515.5 M 212.5 0.5 L 212.5 515.5 M 222.5 0.5 L 222.5 515.5 M 242.5 0.5 L 242.5 515.5 M 252.5 0.5 L 252.5 515.5 M 262.5 0.5 L 262.5 515.5 M 272.5 0.5 L 272.5 515.5 M 292.5 0.5 L 292.5 515.5 M 302.5 0.5 L 302.5 515.5 M 313.5 0.5 L 313.5 515.5 M 323.5 0.5 L 323.5 515.5 M 343.5 0.5 L 343.5 515.5 M 353.5 0.5 L 353.5 515.5 M 363.5 0.5 L 363.5 515.5 M 373.5 0.5 L 373.5 515.5 M 393.5 0.5 L 393.5 515.5 M 403.5 0.5 L 403.5 515.5 M 413.5 0.5 L 413.5 515.5 M 423.5 0.5 L 423.5 515.5 M 443.5 0.5 L 443.5 515.5 M 453.5 0.5 L 453.5 515.5 M 463.5 0.5 L 463.5 515.5 M 473.5 0.5 L 473.5 515.5 M 493.5 0.5 L 493.5 515.5 M 503.5 0.5 L 503.5 515.5 M 514.5 0.5 L 514.5 515.5 M 524.5 0.5 L 524.5 515.5 M 544.5 0.5 L 544.5 515.5 M 554.5 0.5 L 554.5 515.5 M 564.5 0.5 L 564.5 515.5 M 574.5 0.5 L 574.5 515.5 M 594.5 0.5 L 594.5 515.5 M 604.5 0.5 L 604.5 515.5 M 614.5 0.5 L 614.5 515.5 M 624.5 0.5 L 624.5 515.5 M 644.5 0.5 L 644.5 515.5 M 654.5 0.5 L 654.5 515.5 M 664.5 0.5 L 664.5 515.5 M 674.5 0.5 L 674.5 515.5 M 694.5 0.5 L 694.5 515.5 M 705.5 0.5 L 705.5 515.5 M 715.5 0.5 L 715.5 515.5 M 725.5 0.5 L 725.5 515.5 M 745.5 0.5 L 745.5 515.5 M 755.5 0.5 L 755.5 515.5 M 765.5 0.5 L 765.5 515.5 M 775.5 0.5 L 775.5 515.5 M 795.5 0.5 L 795.5 515.5 M 805.5 0.5 L 805.5 515.5 M 815.5 0.5 L 815.5 515.5 M 825.5 0.5 L 825.5 515.5 M 845.5 0.5 L 845.5 515.5 M 855.5 0.5 L 855.5 515.5 M 865.5 0.5 L 865.5 515.5 M 875.5 0.5 L 875.5 515.5" stroke-opacity="0.23529411764705882" stroke-linecap="round" stroke-linejoin="round" stroke-miterlimit="10"/><path fill="none" stroke="rgb(192,192,192)" paint-order="fill stroke markers" d=" M 0.5 5.5 L 891.5 5.5 M 0.5 5.5 L 891.5 5.5 M 0.5 55.5 L 891.5 55.5 M 0.5 105.5 L 891.5 105.5 M 0.5 156.5 L 891.5 156.5 M 0.5 206.5 L 891.5 206.5 M 0.5 256.5 L 891.5 256.5 M 0.5 306.5 L 891.5 306.5 M 0.5 357.5 L 891.5 357.5 M 0.5 407.5 L 891.5 407.5 M 0.5 507.5 L 891.5 507.5" stroke-opacity="1" stroke-linecap="round" stroke-linejoin="round" stroke-miterlimit="10"/><path fill="none" stroke="rgb(192,192,192)" paint-order="fill stroke markers" d=" M 0.5 5.5 L 891.5 5.5 M 0.5 15.5 L 891.5 15.5 M 0.5 25.5 L 891.5 25.5 M 0.5 35.5 L 891.5 35.5 M 0.5 45.5 L 891.5 45.5 M 0.5 65.5 L 891.5 65.5 M 0.5 75.5 L 891.5 75.5 M 0.5 85.5 L 891.5 85.5 M 0.5 95.5 L 891.5 95.5 M 0.5 115.5 L 891.5 115.5 M 0.5 125.5 L 891.5 125.5 M 0.5 135.5 L 891.5 135.5 M 0.5 145.5 L 891.5 145.5 M 0.5 166.5 L 891.5 166.5 M 0.5 176.5 L 891.5 176.5 M 0.5 186.5 L 891.5 186.5 M 0.5 196.5 L 891.5 196.5 M 0.5 216.5 L 891.5 216.5 M 0.5 226.5 L 891.5 226.5 M 0.5 236.5 L 891.5 236.5 M 0.5 246.5 L 891.5 246.5 M 0.5 266.5 L 891.5 266.5 M 0.5 276.5 L 891.5 276.5 M 0.5 286.5 L 891.5 286.5 M 0.5 296.5 L 891.5 296.5 M 0.5 316.5 L 891.5 316.5 M 0.5 326.5 L 891.5 326.5 M 0.5 336.5 L 891.5 336.5 M 0.5 347.5 L 891.5 347.5 M 0.5 367.5 L 891.5 367.5 M 0.5 377.5 L 891.5 377.5 M 0.5 387.5 L 891.5 387.5 M 0.5 397.5 L 891.5 397.5 M 0.5 417.5 L 891.5 417.5 M 0.5 427.5 L 891.5 427.5 M 0.5 437.5 L 891.5 437.5 M 0.5 447.5 L 891.5 447.5 M 0.5 467.5 L 891.5 467.5 M 0.5 477.5 L 891.5 477.5 M 0.5 487.5 L 891.5 487.5 M 0.5 497.5 L 891.5 497.5" stroke-opacity="0.23529411764705882" stroke-linecap="round" stroke-linejoin="round" stroke-miterlimit="10"/><path fill="none" stroke="rgb(37,37,37)" paint-order="fill stroke markers" d=" M 81.5 2.5 L 81.5 515.5" stroke-opacity="1" stroke-miterlimit="10"/><path fill="none" stroke="rgb(37,37,37)" paint-order="fill stroke markers" d=" M 81.5 1.5 L 77.5 5.5" stroke-opacity="1" stroke-miterlimit="10"/><path fill="none" stroke="rgb(37,37,37)" paint-order="fill stroke markers" d=" M 81.5 1.5 L 85.5 5.5" stroke-opacity="1" stroke-miterlimit="10"/><path fill="none" stroke="rgb(37,37,37)" paint-order="fill stroke markers" d=" M 0.5 457.5 L 889.5 457.5" stroke-opacity="1" stroke-miterlimit="10"/><path fill="none" stroke="rgb(37,37,37)" paint-order="fill stroke markers" d=" M 890.5 457.5 L 886.5 453.5" stroke-opacity="1" stroke-miterlimit="10"/><path fill="none" stroke="rgb(37,37,37)" paint-order="fill stroke markers" d=" M 890.5 457.5 L 886.5 461.5" stroke-opacity="1" stroke-miterlimit="10"/><text fill="rgb(37,37,37)" stroke="none" font-family="geogebra-sans-serif, sans-serif" font-size="12px" font-style="normal" font-weight="normal" text-decoration="normal" x="26" y="473" text-anchor="start" dominant-baseline="alphabetic" fill-opacity="1">–1</text><text fill="none" stroke="rgb(255,255,255)" font-family="geogebra-sans-serif, sans-serif" font-size="12px" font-style="normal" font-weight="normal" text-decoration="normal" x="26" y="473" text-anchor="start" dominant-baseline="alphabetic" stroke-opacity="1" stroke-linejoin="bevel" stroke-miterlimit="10" stroke-width="3">–1</text><text fill="rgb(37,37,37)" stroke="none" font-family="geogebra-sans-serif, sans-serif" font-size="12px" font-style="normal" font-weight="normal" text-decoration="normal" x="26" y="473" text-anchor="start" dominant-baseline="alphabetic" fill-opacity="1">–1</text><text fill="rgb(37,37,37)" stroke="none" font-family="geogebra-sans-serif, sans-serif" font-size="12px" font-style="normal" font-weight="normal" text-decoration="normal" x="130" y="473" text-anchor="start" dominant-baseline="alphabetic" fill-opacity="1">1</text><text fill="none" stroke="rgb(255,255,255)" font-family="geogebra-sans-serif, sans-serif" font-size="12px" font-style="normal" font-weight="normal" text-decoration="normal" x="130" y="473" text-anchor="start" dominant-baseline="alphabetic" stroke-opacity="1" stroke-linejoin="bevel" stroke-miterlimit="10" stroke-width="3">1</text><text fill="rgb(37,37,37)" stroke="none" font-family="geogebra-sans-serif, sans-serif" font-size="12px" font-style="normal" font-weight="normal" text-decoration="normal" x="130" y="473" text-anchor="start" dominant-baseline="alphabetic" fill-opacity="1">1</text><text fill="rgb(37,37,37)" stroke="none" font-family="geogebra-sans-serif, sans-serif" font-size="12px" font-style="normal" font-weight="normal" text-decoration="normal" x="180" y="473" text-anchor="start" dominant-baseline="alphabetic" fill-opacity="1">2</text><text fill="none" stroke="rgb(255,255,255)" font-family="geogebra-sans-serif, sans-serif" font-size="12px" font-style="normal" font-weight="normal" text-decoration="normal" x="180" y="473" text-anchor="start" dominant-baseline="alphabetic" stroke-opacity="1" stroke-linejoin="bevel" stroke-miterlimit="10" stroke-width="3">2</text><text fill="rgb(37,37,37)" stroke="none" font-family="geogebra-sans-serif, sans-serif" font-size="12px" font-style="normal" font-weight="normal" text-decoration="normal" x="180" y="473" text-anchor="start" dominant-baseline="alphabetic" fill-opacity="1">2</text><text fill="rgb(37,37,37)" stroke="none" font-family="geogebra-sans-serif, sans-serif" font-size="12px" font-style="normal" font-weight="normal" text-decoration="normal" x="230" y="473" text-anchor="start" dominant-baseline="alphabetic" fill-opacity="1">3</text><text fill="none" stroke="rgb(255,255,255)" font-family="geogebra-sans-serif, sans-serif" font-size="12px" font-style="normal" font-weight="normal" text-decoration="normal" x="230" y="473" text-anchor="start" dominant-baseline="alphabetic" stroke-opacity="1" stroke-linejoin="bevel" stroke-miterlimit="10" stroke-width="3">3</text><text fill="rgb(37,37,37)" stroke="none" font-family="geogebra-sans-serif, sans-serif" font-size="12px" font-style="normal" font-weight="normal" text-decoration="normal" x="230" y="473" text-anchor="start" dominant-baseline="alphabetic" fill-opacity="1">3</text><text fill="rgb(37,37,37)" stroke="none" font-family="geogebra-sans-serif, sans-serif" font-size="12px" font-style="normal" font-weight="normal" text-decoration="normal" x="280" y="473" text-anchor="start" dominant-baseline="alphabetic" fill-opacity="1">4</text><text fill="none" stroke="rgb(255,255,255)" font-family="geogebra-sans-serif, sans-serif" font-size="12px" font-style="normal" font-weight="normal" text-decoration="normal" x="280" y="473" text-anchor="start" dominant-baseline="alphabetic" stroke-opacity="1" stroke-linejoin="bevel" stroke-miterlimit="10" stroke-width="3">4</text><text fill="rgb(37,37,37)" stroke="none" font-family="geogebra-sans-serif, sans-serif" font-size="12px" font-style="normal" font-weight="normal" text-decoration="normal" x="280" y="473" text-anchor="start" dominant-baseline="alphabetic" fill-opacity="1">4</text><text fill="rgb(37,37,37)" stroke="none" font-family="geogebra-sans-serif, sans-serif" font-size="12px" font-style="normal" font-weight="normal" text-decoration="normal" x="331" y="473" text-anchor="start" dominant-baseline="alphabetic" fill-opacity="1">5</text><text fill="none" stroke="rgb(255,255,255)" font-family="geogebra-sans-serif, sans-serif" font-size="12px" font-style="normal" font-weight="normal" text-decoration="normal" x="331" y="473" text-anchor="start" dominant-baseline="alphabetic" stroke-opacity="1" stroke-linejoin="bevel" stroke-miterlimit="10" stroke-width="3">5</text><text fill="rgb(37,37,37)" stroke="none" font-family="geogebra-sans-serif, sans-serif" font-size="12px" font-style="normal" font-weight="normal" text-decoration="normal" x="331" y="473" text-anchor="start" dominant-baseline="alphabetic" fill-opacity="1">5</text><text fill="rgb(37,37,37)" stroke="none" font-family="geogebra-sans-serif, sans-serif" font-size="12px" font-style="normal" font-weight="normal" text-decoration="normal" x="381" y="473" text-anchor="start" dominant-baseline="alphabetic" fill-opacity="1">6</text><text fill="none" stroke="rgb(255,255,255)" font-family="geogebra-sans-serif, sans-serif" font-size="12px" font-style="normal" font-weight="normal" text-decoration="normal" x="381" y="473" text-anchor="start" dominant-baseline="alphabetic" stroke-opacity="1" stroke-linejoin="bevel" stroke-miterlimit="10" stroke-width="3">6</text><text fill="rgb(37,37,37)" stroke="none" font-family="geogebra-sans-serif, sans-serif" font-size="12px" font-style="normal" font-weight="normal" text-decoration="normal" x="381" y="473" text-anchor="start" dominant-baseline="alphabetic" fill-opacity="1">6</text><text fill="rgb(37,37,37)" stroke="none" font-family="geogebra-sans-serif, sans-serif" font-size="12px" font-style="normal" font-weight="normal" text-decoration="normal" x="431" y="473" text-anchor="start" dominant-baseline="alphabetic" fill-opacity="1">7</text><text fill="none" stroke="rgb(255,255,255)" font-family="geogebra-sans-serif, sans-serif" font-size="12px" font-style="normal" font-weight="normal" text-decoration="normal" x="431" y="473" text-anchor="start" dominant-baseline="alphabetic" stroke-opacity="1" stroke-linejoin="bevel" stroke-miterlimit="10" stroke-width="3">7</text><text fill="rgb(37,37,37)" stroke="none" font-family="geogebra-sans-serif, sans-serif" font-size="12px" font-style="normal" font-weight="normal" text-decoration="normal" x="431" y="473" text-anchor="start" dominant-baseline="alphabetic" fill-opacity="1">7</text><text fill="rgb(37,37,37)" stroke="none" font-family="geogebra-sans-serif, sans-serif" font-size="12px" font-style="normal" font-weight="normal" text-decoration="normal" x="481" y="473" text-anchor="start" dominant-baseline="alphabetic" fill-opacity="1">8</text><text fill="none" stroke="rgb(255,255,255)" font-family="geogebra-sans-serif, sans-serif" font-size="12px" font-style="normal" font-weight="normal" text-decoration="normal" x="481" y="473" text-anchor="start" dominant-baseline="alphabetic" stroke-opacity="1" stroke-linejoin="bevel" stroke-miterlimit="10" stroke-width="3">8</text><text fill="rgb(37,37,37)" stroke="none" font-family="geogebra-sans-serif, sans-serif" font-size="12px" font-style="normal" font-weight="normal" text-decoration="normal" x="481" y="473" text-anchor="start" dominant-baseline="alphabetic" fill-opacity="1">8</text><text fill="rgb(37,37,37)" stroke="none" font-family="geogebra-sans-serif, sans-serif" font-size="12px" font-style="normal" font-weight="normal" text-decoration="normal" x="532" y="473" text-anchor="start" dominant-baseline="alphabetic" fill-opacity="1">9</text><text fill="none" stroke="rgb(255,255,255)" font-family="geogebra-sans-serif, sans-serif" font-size="12px" font-style="normal" font-weight="normal" text-decoration="normal" x="532" y="473" text-anchor="start" dominant-baseline="alphabetic" stroke-opacity="1" stroke-linejoin="bevel" stroke-miterlimit="10" stroke-width="3">9</text><text fill="rgb(37,37,37)" stroke="none" font-family="geogebra-sans-serif, sans-serif" font-size="12px" font-style="normal" font-weight="normal" text-decoration="normal" x="532" y="473" text-anchor="start" dominant-baseline="alphabetic" fill-opacity="1">9</text><text fill="rgb(37,37,37)" stroke="none" font-family="geogebra-sans-serif, sans-serif" font-size="12px" font-style="normal" font-weight="normal" text-decoration="normal" x="579" y="473" text-anchor="start" dominant-baseline="alphabetic" fill-opacity="1">10</text><text fill="none" stroke="rgb(255,255,255)" font-family="geogebra-sans-serif, sans-serif" font-size="12px" font-style="normal" font-weight="normal" text-decoration="normal" x="579" y="473" text-anchor="start" dominant-baseline="alphabetic" stroke-opacity="1" stroke-linejoin="bevel" stroke-miterlimit="10" stroke-width="3">10</text><text fill="rgb(37,37,37)" stroke="none" font-family="geogebra-sans-serif, sans-serif" font-size="12px" font-style="normal" font-weight="normal" text-decoration="normal" x="579" y="473" text-anchor="start" dominant-baseline="alphabetic" fill-opacity="1">10</text><text fill="rgb(37,37,37)" stroke="none" font-family="geogebra-sans-serif, sans-serif" font-size="12px" font-style="normal" font-weight="normal" text-decoration="normal" x="629" y="473" text-anchor="start" dominant-baseline="alphabetic" fill-opacity="1">11</text><text fill="none" stroke="rgb(255,255,255)" font-family="geogebra-sans-serif, sans-serif" font-size="12px" font-style="normal" font-weight="normal" text-decoration="normal" x="629" y="473" text-anchor="start" dominant-baseline="alphabetic" stroke-opacity="1" stroke-linejoin="bevel" stroke-miterlimit="10" stroke-width="3">11</text><text fill="rgb(37,37,37)" stroke="none" font-family="geogebra-sans-serif, sans-serif" font-size="12px" font-style="normal" font-weight="normal" text-decoration="normal" x="629" y="473" text-anchor="start" dominant-baseline="alphabetic" fill-opacity="1">11</text><text fill="rgb(37,37,37)" stroke="none" font-family="geogebra-sans-serif, sans-serif" font-size="12px" font-style="normal" font-weight="normal" text-decoration="normal" x="679" y="473" text-anchor="start" dominant-baseline="alphabetic" fill-opacity="1">12</text><text fill="none" stroke="rgb(255,255,255)" font-family="geogebra-sans-serif, sans-serif" font-size="12px" font-style="normal" font-weight="normal" text-decoration="normal" x="679" y="473" text-anchor="start" dominant-baseline="alphabetic" stroke-opacity="1" stroke-linejoin="bevel" stroke-miterlimit="10" stroke-width="3">12</text><text fill="rgb(37,37,37)" stroke="none" font-family="geogebra-sans-serif, sans-serif" font-size="12px" font-style="normal" font-weight="normal" text-decoration="normal" x="679" y="473" text-anchor="start" dominant-baseline="alphabetic" fill-opacity="1">12</text><text fill="rgb(37,37,37)" stroke="none" font-family="geogebra-sans-serif, sans-serif" font-size="12px" font-style="normal" font-weight="normal" text-decoration="normal" x="730" y="473" text-anchor="start" dominant-baseline="alphabetic" fill-opacity="1">13</text><text fill="none" stroke="rgb(255,255,255)" font-family="geogebra-sans-serif, sans-serif" font-size="12px" font-style="normal" font-weight="normal" text-decoration="normal" x="730" y="473" text-anchor="start" dominant-baseline="alphabetic" stroke-opacity="1" stroke-linejoin="bevel" stroke-miterlimit="10" stroke-width="3">13</text><text fill="rgb(37,37,37)" stroke="none" font-family="geogebra-sans-serif, sans-serif" font-size="12px" font-style="normal" font-weight="normal" text-decoration="normal" x="730" y="473" text-anchor="start" dominant-baseline="alphabetic" fill-opacity="1">13</text><text fill="rgb(37,37,37)" stroke="none" font-family="geogebra-sans-serif, sans-serif" font-size="12px" font-style="normal" font-weight="normal" text-decoration="normal" x="780" y="473" text-anchor="start" dominant-baseline="alphabetic" fill-opacity="1">14</text><text fill="none" stroke="rgb(255,255,255)" font-family="geogebra-sans-serif, sans-serif" font-size="12px" font-style="normal" font-weight="normal" text-decoration="normal" x="780" y="473" text-anchor="start" dominant-baseline="alphabetic" stroke-opacity="1" stroke-linejoin="bevel" stroke-miterlimit="10" stroke-width="3">14</text><text fill="rgb(37,37,37)" stroke="none" font-family="geogebra-sans-serif, sans-serif" font-size="12px" font-style="normal" font-weight="normal" text-decoration="normal" x="780" y="473" text-anchor="start" dominant-baseline="alphabetic" fill-opacity="1">14</text><text fill="rgb(37,37,37)" stroke="none" font-family="geogebra-sans-serif, sans-serif" font-size="12px" font-style="normal" font-weight="normal" text-decoration="normal" x="830" y="473" text-anchor="start" dominant-baseline="alphabetic" fill-opacity="1">15</text><text fill="none" stroke="rgb(255,255,255)" font-family="geogebra-sans-serif, sans-serif" font-size="12px" font-style="normal" font-weight="normal" text-decoration="normal" x="830" y="473" text-anchor="start" dominant-baseline="alphabetic" stroke-opacity="1" stroke-linejoin="bevel" stroke-miterlimit="10" stroke-width="3">15</text><text fill="rgb(37,37,37)" stroke="none" font-family="geogebra-sans-serif, sans-serif" font-size="12px" font-style="normal" font-weight="normal" text-decoration="normal" x="830" y="473" text-anchor="start" dominant-baseline="alphabetic" fill-opacity="1">15</text><text fill="rgb(37,37,37)" stroke="none" font-family="geogebra-sans-serif, sans-serif" font-size="12px" font-style="normal" font-weight="normal" text-decoration="normal" x="66" y="412" text-anchor="start" dominant-baseline="alphabetic" fill-opacity="1">1</text><text fill="none" stroke="rgb(255,255,255)" font-family="geogebra-sans-serif, sans-serif" font-size="12px" font-style="normal" font-weight="normal" text-decoration="normal" x="66" y="412" text-anchor="start" dominant-baseline="alphabetic" stroke-opacity="1" stroke-linejoin="bevel" stroke-miterlimit="10" stroke-width="3">1</text><text fill="rgb(37,37,37)" stroke="none" font-family="geogebra-sans-serif, sans-serif" font-size="12px" font-style="normal" font-weight="normal" text-decoration="normal" x="66" y="412" text-anchor="start" dominant-baseline="alphabetic" fill-opacity="1">1</text><text fill="rgb(37,37,37)" stroke="none" font-family="geogebra-sans-serif, sans-serif" font-size="12px" font-style="normal" font-weight="normal" text-decoration="normal" x="66" y="362" text-anchor="start" dominant-baseline="alphabetic" fill-opacity="1">2</text><text fill="none" stroke="rgb(255,255,255)" font-family="geogebra-sans-serif, sans-serif" font-size="12px" font-style="normal" font-weight="normal" text-decoration="normal" x="66" y="362" text-anchor="start" dominant-baseline="alphabetic" stroke-opacity="1" stroke-linejoin="bevel" stroke-miterlimit="10" stroke-width="3">2</text><text fill="rgb(37,37,37)" stroke="none" font-family="geogebra-sans-serif, sans-serif" font-size="12px" font-style="normal" font-weight="normal" text-decoration="normal" x="66" y="362" text-anchor="start" dominant-baseline="alphabetic" fill-opacity="1">2</text><text fill="rgb(37,37,37)" stroke="none" font-family="geogebra-sans-serif, sans-serif" font-size="12px" font-style="normal" font-weight="normal" text-decoration="normal" x="66" y="311" text-anchor="start" dominant-baseline="alphabetic" fill-opacity="1">3</text><text fill="none" stroke="rgb(255,255,255)" font-family="geogebra-sans-serif, sans-serif" font-size="12px" font-style="normal" font-weight="normal" text-decoration="normal" x="66" y="311" text-anchor="start" dominant-baseline="alphabetic" stroke-opacity="1" stroke-linejoin="bevel" stroke-miterlimit="10" stroke-width="3">3</text><text fill="rgb(37,37,37)" stroke="none" font-family="geogebra-sans-serif, sans-serif" font-size="12px" font-style="normal" font-weight="normal" text-decoration="normal" x="66" y="311" text-anchor="start" dominant-baseline="alphabetic" fill-opacity="1">3</text><text fill="rgb(37,37,37)" stroke="none" font-family="geogebra-sans-serif, sans-serif" font-size="12px" font-style="normal" font-weight="normal" text-decoration="normal" x="66" y="261" text-anchor="start" dominant-baseline="alphabetic" fill-opacity="1">4</text><text fill="none" stroke="rgb(255,255,255)" font-family="geogebra-sans-serif, sans-serif" font-size="12px" font-style="normal" font-weight="normal" text-decoration="normal" x="66" y="261" text-anchor="start" dominant-baseline="alphabetic" stroke-opacity="1" stroke-linejoin="bevel" stroke-miterlimit="10" stroke-width="3">4</text><text fill="rgb(37,37,37)" stroke="none" font-family="geogebra-sans-serif, sans-serif" font-size="12px" font-style="normal" font-weight="normal" text-decoration="normal" x="66" y="261" text-anchor="start" dominant-baseline="alphabetic" fill-opacity="1">4</text><text fill="rgb(37,37,37)" stroke="none" font-family="geogebra-sans-serif, sans-serif" font-size="12px" font-style="normal" font-weight="normal" text-decoration="normal" x="66" y="211" text-anchor="start" dominant-baseline="alphabetic" fill-opacity="1">5</text><text fill="none" stroke="rgb(255,255,255)" font-family="geogebra-sans-serif, sans-serif" font-size="12px" font-style="normal" font-weight="normal" text-decoration="normal" x="66" y="211" text-anchor="start" dominant-baseline="alphabetic" stroke-opacity="1" stroke-linejoin="bevel" stroke-miterlimit="10" stroke-width="3">5</text><text fill="rgb(37,37,37)" stroke="none" font-family="geogebra-sans-serif, sans-serif" font-size="12px" font-style="normal" font-weight="normal" text-decoration="normal" x="66" y="211" text-anchor="start" dominant-baseline="alphabetic" fill-opacity="1">5</text><text fill="rgb(37,37,37)" stroke="none" font-family="geogebra-sans-serif, sans-serif" font-size="12px" font-style="normal" font-weight="normal" text-decoration="normal" x="66" y="161" text-anchor="start" dominant-baseline="alphabetic" fill-opacity="1">6</text><text fill="none" stroke="rgb(255,255,255)" font-family="geogebra-sans-serif, sans-serif" font-size="12px" font-style="normal" font-weight="normal" text-decoration="normal" x="66" y="161" text-anchor="start" dominant-baseline="alphabetic" stroke-opacity="1" stroke-linejoin="bevel" stroke-miterlimit="10" stroke-width="3">6</text><text fill="rgb(37,37,37)" stroke="none" font-family="geogebra-sans-serif, sans-serif" font-size="12px" font-style="normal" font-weight="normal" text-decoration="normal" x="66" y="161" text-anchor="start" dominant-baseline="alphabetic" fill-opacity="1">6</text><text fill="rgb(37,37,37)" stroke="none" font-family="geogebra-sans-serif, sans-serif" font-size="12px" font-style="normal" font-weight="normal" text-decoration="normal" x="66" y="110" text-anchor="start" dominant-baseline="alphabetic" fill-opacity="1">7</text><text fill="none" stroke="rgb(255,255,255)" font-family="geogebra-sans-serif, sans-serif" font-size="12px" font-style="normal" font-weight="normal" text-decoration="normal" x="66" y="110" text-anchor="start" dominant-baseline="alphabetic" stroke-opacity="1" stroke-linejoin="bevel" stroke-miterlimit="10" stroke-width="3">7</text><text fill="rgb(37,37,37)" stroke="none" font-family="geogebra-sans-serif, sans-serif" font-size="12px" font-style="normal" font-weight="normal" text-decoration="normal" x="66" y="110" text-anchor="start" dominant-baseline="alphabetic" fill-opacity="1">7</text><text fill="rgb(37,37,37)" stroke="none" font-family="geogebra-sans-serif, sans-serif" font-size="12px" font-style="normal" font-weight="normal" text-decoration="normal" x="66" y="60" text-anchor="start" dominant-baseline="alphabetic" fill-opacity="1">8</text><text fill="none" stroke="rgb(255,255,255)" font-family="geogebra-sans-serif, sans-serif" font-size="12px" font-style="normal" font-weight="normal" text-decoration="normal" x="66" y="60" text-anchor="start" dominant-baseline="alphabetic" stroke-opacity="1" stroke-linejoin="bevel" stroke-miterlimit="10" stroke-width="3">8</text><text fill="rgb(37,37,37)" stroke="none" font-family="geogebra-sans-serif, sans-serif" font-size="12px" font-style="normal" font-weight="normal" text-decoration="normal" x="66" y="60" text-anchor="start" dominant-baseline="alphabetic" fill-opacity="1">8</text><text fill="rgb(37,37,37)" stroke="none" font-family="geogebra-sans-serif, sans-serif" font-size="12px" font-style="normal" font-weight="normal" text-decoration="normal" x="66" y="473" text-anchor="start" dominant-baseline="alphabetic" fill-opacity="1">0</text><text fill="none" stroke="rgb(255,255,255)" font-family="geogebra-sans-serif, sans-serif" font-size="12px" font-style="normal" font-weight="normal" text-decoration="normal" x="66" y="473" text-anchor="start" dominant-baseline="alphabetic" stroke-opacity="1" stroke-linejoin="bevel" stroke-miterlimit="10" stroke-width="3">0</text><text fill="rgb(37,37,37)" stroke="none" font-family="geogebra-sans-serif, sans-serif" font-size="12px" font-style="normal" font-weight="normal" text-decoration="normal" x="66" y="473" text-anchor="start" dominant-baseline="alphabetic" fill-opacity="1">0</text><path fill="none" stroke="rgb(0,100,0)" paint-order="fill stroke markers" d=" M 62.6484375 520.9637688375994 L 64.388671875 514.7000797700163 L 66.12890625000001 508.5439046510115 L 67.869140625 502.49339804269454 L 69.609375 496.5467461834464 L 71.349609375 490.70216644420765 L 73.08984375000001 484.9579067940995 L 74.83007812500001 479.312245275217 L 76.5703125 473.7634894864374 L 78.310546875 468.3099760760886 L 80.05078125000001 462.95007024332625 L 81.79101562500001 457.6821652480688 L 83.53125000000001 452.50468192934494 L 85.271484375 447.41606823190773 L 87.01171875 442.41479874097536 L 90.49218750000001 432.66832118602673 L 93.97265625 423.25356157427865 L 97.45312500000001 414.15923000194573 L 100.93359375000001 405.374420813156 L 104.4140625 396.8885995222079 L 107.89453125 388.69159018092375 L 111.375 380.773563175951 L 114.85546875000001 373.125023441378 L 118.33593750000003 365.7367990725293 L 121.81640625 358.6000303272864 L 125.296875 351.70615900174437 L 128.77734375 345.046918167465 L 132.2578125 338.6143222580181 L 135.73828125 332.400657492925 L 139.21875 326.398472627518 L 142.69921875 320.6005700176272 L 146.1796875 314.99999698837576 L 149.66015625 309.5900374967367 L 153.140625 304.36420407785033 L 156.62109375 299.3162300654468 L 160.1015625 294.44006207704354 L 163.58203125 289.7298527549066 L 167.0625 285.1799537540703 L 170.54296875 280.7849089690077 L 174.0234375 276.53944799082876 L 177.50390625 272.43847978716036 L 180.984375 268.47708659712964 L 184.46484375 264.6505180341294 L 187.9453125 260.9541853892931 L 191.42578125000003 257.3836561288506 L 194.90625000000003 253.93464857876282 L 198.38671875000003 250.6030267902641 L 201.86718750000006 247.3847955801535 L 205.34765625000006 244.2760957398884 L 208.828125 241.27319940773455 L 212.30859375 238.37250559842343 L 215.7890625 235.57053588495663 L 219.26953125 232.86393022737784 L 222.75 230.24944294351155 L 226.23046875 227.72393881683598 L 229.71093750000006 225.28438933682347 L 233.19140625000006 222.92786906723944 L 236.67187500000006 220.6515521380447 L 240.15234375 218.4527088566954 L 243.6328125 216.3287024347753 L 247.11328125 214.2769858260366 L 250.59375 212.29509867205672 L 254.07421875 210.38066435184854 L 257.5546875 208.53138713188625 L 261.03515625000006 206.74504941312887 L 264.51562500000006 205.0195090717406 L 267.99609375000006 203.35269689031864 L 271.4765625 201.7426140765483 L 274.95703125 200.18732986630988 L 278.4375 198.6849792083629 L 281.91796875 197.23376052783146 L 285.3984375 195.83193356580813 L 288.87890625 194.47781729248686 L 292.35937500000006 193.16978789132094 L 295.83984375000006 191.90627681179018 L 299.32031250000006 190.6857688884407 L 302.80078125 189.50680052394324 L 306.28125 188.36795793398994 L 309.76171875 187.26787545192576 L 313.2421875 186.20523389108092 L 316.72265625 185.17875896284113 L 320.203125 184.1872197485577 L 323.68359375000006 183.22942722346647 L 327.16406250000006 182.30423283084355 L 330.64453125000006 181.41052710469035 L 334.12500000000006 180.54723833929387 L 337.60546875 179.71333130406924 L 341.0859375 178.90780600214117 L 344.56640625 178.12969647117706 L 348.046875 177.37806962503322 L 351.52734375 176.65202413482564 L 355.0078125 175.95068934808228 L 358.48828125 175.2732242446827 L 361.96875000000006 174.61881642833094 L 365.44921875000006 173.98668115235398 L 368.9296875 173.3760603786564 L 372.41015625 172.78622186870325 L 375.890625 172.21645830544128 L 379.37109375 171.66608644510478 L 382.8515625 171.13444629789 L 386.33203125 170.6209003365144 L 389.8125 170.1248327317129 L 393.29296875000006 169.64564861375322 L 396.77343750000006 169.18277335908573 L 400.25390625 168.73565190127164 L 403.73437500000006 168.30374806536355 L 407.21484375000006 167.88654392494033 L 410.69531250000006 167.4835391810248 L 414.17578124999994 167.0942505621399 L 417.65625 166.71821124478367 L 421.13671875 166.35497029362824 L 424.6171875 166.0040921207713 L 428.09765625 165.665155963392 L 431.578125 165.33775537918456 L 435.05859375 165.0214977589642 L 438.5390625 164.71600385586203 L 442.01953125 164.4209073305435 L 445.5 164.13585431190432 L 448.98046875 163.86050297271947 L 452.4609375 163.59452311973325 L 455.94140625000006 163.33759579770174 L 459.42187500000006 163.0894129069107 L 462.90234375000006 162.8496768337116 L 466.38281250000006 162.61810009363205 L 469.86328125000006 162.39440498663265 L 473.34375000000006 162.17832326409751 L 476.82421875000006 161.96959580715816 L 480.3046875 161.76797231596595 L 483.78515625 161.57321100953965 L 487.265625 161.385078335829 L 490.74609375 161.20334869164566 L 494.2265625 161.0278041521268 L 497.70703125 160.85823420940574 L 501.1875 160.69443552017708 L 504.66796875 160.5362116618536 L 508.1484375 160.38337289702184 L 511.62890625 160.2357359459146 L 515.109375 160.09312376662734 L 518.5898437500001 159.95536534281445 L 522.0703125000001 159.8222954786118 L 525.5507812500001 159.69375460053834 L 529.0312500000001 159.56958856614057 L 532.5117187500001 159.44964847914935 L 535.9921875000001 159.33379051092766 L 539.4726562500001 159.22187572799572 L 542.953125 159.11376992542608 L 546.43359375 159.00934346590873 L 549.9140625 158.90847112429412 L 553.39453125 158.81103193742672 L 556.875 158.71690905908952 L 560.35546875 158.6259896198855 L 563.8359375 158.53816459188795 L 567.31640625 158.45332865789743 L 570.796875 158.3713800851483 L 574.27734375 158.2922206033141 L 577.7578125 158.21575528666426 L 581.2382812500001 158.1418924402322 L 584.7187500000001 158.0705434898574 L 588.1992187500001 158.00162287596976 L 591.6796875000001 157.93504795098914 L 595.1601562500001 157.87073888021672 L 598.6406250000001 157.8086185460997 L 602.1210937500001 157.7486124557542 L 605.6015625 157.69064865163534 L 609.08203125 157.63465762524805 L 612.5625 157.58057223379473 L 616.04296875 157.52832761965897 L 619.5234375 157.4778611326309 L 623.0039062500001 157.42911225477837 L 626.4843750000001 157.3820225278758 L 629.9648437500001 157.33653548330295 L 633.4453125000001 157.29259657432914 L 636.9257812500001 157.25015311070257 L 640.4062500000001 157.20915419546554 L 643.8867187500001 157.1695506639207 L 647.3671875000001 157.1312950246737 L 650.8476562500001 157.09434140268326 L 654.3281250000001 157.05864548424887 L 657.8085937500001 157.02416446387144 L 661.2890625000001 156.99085699292203 L 664.7695312500001 156.95868313005758 L 668.2500000000001 156.92760429332475 L 671.73046875 156.89758321389348 L 675.2109375 156.86858389136523 L 678.69140625 156.8405715506023 L 682.171875 156.81351260002674 L 685.6523437500001 156.7873745913381 L 689.1328125000001 156.76212618060242 L 692.6132812500001 156.73773709066558 L 696.0937500000001 156.71417807484573 L 699.5742187500001 156.69142088186157 L 703.0546875000001 156.6694382219544 L 706.5351562500001 156.64820373416268 L 710.0156250000001 156.627691954711 L 713.4960937500001 156.60787828647466 L 716.9765625000001 156.58873896948342 L 720.4570312500001 156.57025105242934 L 723.9375000000001 156.5523923651441 L 727.4179687500001 156.53514149201334 L 730.8984375000001 156.51847774629573 L 734.37890625 156.50238114531572 L 737.859375 156.48683238650113 L 741.33984375 156.47181282423622 L 744.8203125 156.4573044475021 L 748.3007812500001 156.44328985827866 L 751.7812500000001 156.4297522506812 L 755.2617187500001 156.41667539080748 L 758.7421875000001 156.40404359727046 L 762.2226562500001 156.39184172239356 L 765.7031250000001 156.38005513404596 L 769.1835937500001 156.36866969809648 L 772.6640625000001 156.35767176146396 L 776.1445312500001 156.34704813574518 L 779.6250000000001 156.33678608139957 L 783.1054687500001 156.32687329247227 L 786.5859375000001 156.31729788183736 L 790.0664062500001 156.30804836694307 L 793.5468750000001 156.2991136560422 L 797.02734375 156.29048303489134 L 800.5078125 156.28214615390254 L 803.98828125 156.2740930157326 L 807.4687500000001 156.266313963294 L 810.9492187500001 156.2587996681753 L 814.4296875000001 156.25154111945392 L 817.9101562500001 156.24452961289097 L 821.3906250000001 156.2377567404933 L 824.8710937500001 156.23121438043086 L 828.3515625 156.2248946872972 L 831.83203125 156.21879008270156 L 835.3125 156.21289324618095 L 838.79296875 156.20719710642197 L 842.2734375 156.20169483278067 L 845.75390625 156.1963798270919 L 849.234375 156.19124571575645 L 852.71484375 156.18628634209853 L 856.1953125 156.1814957589827 L 859.67578125 156.176868221682 L 863.15625 156.17239818098938 L 866.63671875 156.16808027656305 L 870.1171875 156.16390933049854 L 873.5976562500001 156.15988034111962 L 877.0781250000001 156.15598847698027 L 880.5585937500001 156.15222907107113 L 884.0390625000001 156.14859761522285 L 887.51953125 156.14508975469988 L 891 156.14170128297883" stroke-opacity="0.6980392156862745" stroke-linecap="round" stroke-linejoin="round" stroke-miterlimit="10" stroke-width="2.5"/><text fill="rgb(0,100,0)" stroke="none" font-family="geogebra-sans-serif, sans-serif" font-size="16px" font-style="normal" font-weight="normal" text-decoration="normal" x="64" y="507" text-anchor="start" dominant-baseline="alphabetic" fill-opacity="1">q</text><text fill="none" stroke="rgb(255,255,255)" font-family="geogebra-sans-serif, sans-serif" font-size="16px" font-style="normal" font-weight="normal" text-decoration="normal" x="64" y="507" text-anchor="start" dominant-baseline="alphabetic" stroke-opacity="1" stroke-linejoin="bevel" stroke-miterlimit="10" stroke-width="3">q</text><text fill="rgb(0,100,0)" stroke="none" font-family="geogebra-sans-serif, sans-serif" font-size="16px" font-style="normal" font-weight="normal" text-decoration="normal" x="64" y="507" text-anchor="start" dominant-baseline="alphabetic" fill-opacity="1">q</text><path fill="none" stroke="rgb(128,0,128)" paint-order="fill stroke markers" d=" M -5 156.04553028180447 L 897 156.04553028180447" stroke-opacity="0.6980392156862745" stroke-linecap="round" stroke-linejoin="round" stroke-miterlimit="10" stroke-width="2.5"/><text fill="rgb(128,0,128)" stroke="none" font-family="geogebra-sans-serif, sans-serif" font-size="16px" font-style="normal" font-weight="normal" text-decoration="normal" x="8" y="172" text-anchor="start" dominant-baseline="alphabetic" fill-opacity="1">sp</text><text fill="none" stroke="rgb(255,255,255)" font-family="geogebra-sans-serif, sans-serif" font-size="16px" font-style="normal" font-weight="normal" text-decoration="normal" x="8" y="172" text-anchor="start" dominant-baseline="alphabetic" stroke-opacity="1" stroke-linejoin="bevel" stroke-miterlimit="10" stroke-width="3">sp</text><text fill="rgb(128,0,128)" stroke="none" font-family="geogebra-sans-serif, sans-serif" font-size="16px" font-style="normal" font-weight="normal" text-decoration="normal" x="8" y="172" text-anchor="start" dominant-baseline="alphabetic" fill-opacity="1">sp</text><path fill="none" stroke="rgb(204,0,0)" paint-order="fill stroke markers" d=" M 61.018398522994715 520 L 236.0183985229945 -5" stroke-opacity="0.6980392156862745" stroke-linecap="round" stroke-linejoin="round" stroke-miterlimit="10" stroke-width="2.5"/><text fill="rgb(204,0,0)" stroke="none" font-family="geogebra-sans-serif, sans-serif" font-size="16px" font-style="normal" font-weight="normal" text-decoration="normal" x="239" y="24" text-anchor="start" dominant-baseline="alphabetic" fill-opacity="1">T</text><text fill="none" stroke="rgb(255,255,255)" font-family="geogebra-sans-serif, sans-serif" font-size="16px" font-style="normal" font-weight="normal" text-decoration="normal" x="239" y="24" text-anchor="start" dominant-baseline="alphabetic" stroke-opacity="1" stroke-linejoin="bevel" stroke-miterlimit="10" stroke-width="3">T</text><text fill="rgb(204,0,0)" stroke="none" font-family="geogebra-sans-serif, sans-serif" font-size="16px" font-style="normal" font-weight="normal" text-decoration="normal" x="239" y="24" text-anchor="start" dominant-baseline="alphabetic" fill-opacity="1">T</text><path fill="none" stroke="rgb(0,0,0)" paint-order="fill stroke markers" d=" M 182.33655509572642 156.04553028180447 L 182.33655509572642 457.582237604336" stroke-opacity="0.6980392156862745" stroke-linejoin="round" stroke-miterlimit="10" stroke-width="1.5" stroke-dasharray="5.5,4"/><text fill="rgb(255,153,51)" stroke="none" font-family="geogebra-sans-serif, sans-serif" font-size="16px" font-style="normal" font-weight="normal" text-decoration="normal" x="97" y="306" text-anchor="start" dominant-baseline="alphabetic" fill-opacity="1">k</text><text fill="none" stroke="rgb(255,255,255)" font-family="geogebra-sans-serif, sans-serif" font-size="16px" font-style="normal" font-weight="normal" text-decoration="normal" x="97" y="306" text-anchor="start" dominant-baseline="alphabetic" stroke-opacity="1" stroke-linejoin="bevel" stroke-miterlimit="10" stroke-width="3">k</text><text fill="rgb(255,153,51)" stroke="none" font-family="geogebra-sans-serif, sans-serif" font-size="16px" font-style="normal" font-weight="normal" text-decoration="normal" x="97" y="306" text-anchor="start" dominant-baseline="alphabetic" fill-opacity="1">k</text><path fill="none" stroke="rgb(255,153,51)" paint-order="fill stroke markers" d=" M 81.82431932154937 457.582237604336 L 81.82431932154937 156.04553028180447" stroke-opacity="0.6980392156862745" stroke-linecap="round" stroke-linejoin="round" stroke-miterlimit="10" stroke-width="3.5"/><path fill="rgb(125,125,255)" stroke="none" paint-order="stroke fill markers" d=" M 86.82431932154937 457.582237604336 C 86.82431932154937 460.34366135348995 84.58574307070333 462.582237604336 81.82431932154937 462.582237604336 C 79.0628955723954 462.582237604336 76.82431932154937 460.34366135348995 76.82431932154937 457.582237604336 C 76.82431932154937 454.82081385518205 79.0628955723954 452.582237604336 81.82431932154937 452.582237604336 C 84.58574307070333 452.582237604336 86.82431932154937 454.82081385518205 86.82431932154937 457.582237604336 Z" fill-opacity="1"/><path fill="none" stroke="rgb(0,0,0)" paint-order="fill stroke markers" d=" M 86.82431932154937 457.582237604336 C 86.82431932154937 460.34366135348995 84.58574307070333 462.582237604336 81.82431932154937 462.582237604336 C 79.0628955723954 462.582237604336 76.82431932154937 460.34366135348995 76.82431932154937 457.582237604336 C 76.82431932154937 454.82081385518205 79.0628955723954 452.582237604336 81.82431932154937 452.582237604336 C 84.58574307070333 452.582237604336 86.82431932154937 454.82081385518205 86.82431932154937 457.582237604336 Z" stroke-opacity="1" stroke-linecap="round" stroke-linejoin="round" stroke-miterlimit="10"/><text fill="rgb(125,125,255)" stroke="none" font-family="geogebra-sans-serif, sans-serif" font-size="16px" font-style="normal" font-weight="normal" text-decoration="normal" x="86" y="448" text-anchor="start" dominant-baseline="alphabetic" fill-opacity="1">CI</text><text fill="none" stroke="rgb(255,255,255)" font-family="geogebra-sans-serif, sans-serif" font-size="16px" font-style="normal" font-weight="normal" text-decoration="normal" x="86" y="448" text-anchor="start" dominant-baseline="alphabetic" stroke-opacity="1" stroke-linejoin="bevel" stroke-miterlimit="10" stroke-width="3">CI</text><text fill="rgb(125,125,255)" stroke="none" font-family="geogebra-sans-serif, sans-serif" font-size="16px" font-style="normal" font-weight="normal" text-decoration="normal" x="86" y="448" text-anchor="start" dominant-baseline="alphabetic" fill-opacity="1">CI</text></g></g></svg>