<svg version="1.1" xmlns="http://www.w3.org/2000/svg" xmlns:xlink="http://www.w3.org/1999/xlink" width="251" height="359"><defs><clipPath id="ndIThhrinuzL"><path fill="none" stroke="none" d=" M 0 0 L 251 0 L 251 359 L 0 359 L 0 0 Z"/></clipPath></defs><g transform="scale(1,1)" clip-path="url(#ndIThhrinuzL)"><g><rect fill="rgb(255,255,255)" stroke="none" x="0" y="0" width="251" height="359" fill-opacity="1"/><path fill="none" stroke="rgb(64,64,64)" paint-order="fill stroke markers" d=" M 18.5 0.5 L 18.5 359.5 M 18.5 0.5 L 18.5 359.5 M 68.5 0.5 L 68.5 359.5 M 167.5 0.5 L 167.5 359.5 M 217.5 0.5 L 217.5 359.5" stroke-opacity="1" stroke-linecap="round" stroke-linejoin="round" stroke-miterlimit="10"/><path fill="none" stroke="rgb(64,64,64)" paint-order="fill stroke markers" d="" stroke-opacity="0.23529411764705882" stroke-linecap="round" stroke-linejoin="round" stroke-miterlimit="10"/><path fill="none" stroke="rgb(64,64,64)" paint-order="fill stroke markers" d=" M 0.5 27.5 L 251.5 27.5 M 0.5 27.5 L 251.5 27.5 M 0.5 77.5 L 251.5 77.5 M 0.5 127.5 L 251.5 127.5 M 0.5 177.5 L 251.5 177.5 M 0.5 227.5 L 251.5 227.5 M 0.5 327.5 L 251.5 327.5" stroke-opacity="1" stroke-linecap="round" stroke-linejoin="round" stroke-miterlimit="10"/><path fill="none" stroke="rgb(64,64,64)" paint-order="fill stroke markers" d="" stroke-opacity="0.23529411764705882" stroke-linecap="round" stroke-linejoin="round" stroke-miterlimit="10"/><path fill="none" stroke="rgb(0,0,0)" paint-order="fill stroke markers" d=" M 118 3 L 118 359" stroke-opacity="1" stroke-miterlimit="10" stroke-width="2"/><path fill="none" stroke="rgb(0,0,0)" paint-order="fill stroke markers" d=" M 118 2 L 114 6" stroke-opacity="1" stroke-miterlimit="10" stroke-width="2"/><path fill="none" stroke="rgb(0,0,0)" paint-order="fill stroke markers" d=" M 118 2 L 122 6" stroke-opacity="1" stroke-miterlimit="10" stroke-width="2"/><path fill="none" stroke="rgb(0,0,0)" paint-order="fill stroke markers" d=" M 0 277 L 248 277" stroke-opacity="1" stroke-miterlimit="10" stroke-width="2"/><path fill="none" stroke="rgb(0,0,0)" paint-order="fill stroke markers" d=" M 249 277 L 245 273" stroke-opacity="1" stroke-miterlimit="10" stroke-width="2"/><path fill="none" stroke="rgb(0,0,0)" paint-order="fill stroke markers" d=" M 249 277 L 245 281" stroke-opacity="1" stroke-miterlimit="10" stroke-width="2"/><text fill="rgb(0,0,0)" stroke="none" font-family="geogebra-sans-serif, sans-serif" font-size="10px" font-style="normal" font-weight="normal" text-decoration="normal" x="14" y="291" text-anchor="start" dominant-baseline="alphabetic" fill-opacity="1">–2</text><text fill="rgb(0,0,0)" stroke="none" font-family="geogebra-sans-serif, sans-serif" font-size="10px" font-style="normal" font-weight="normal" text-decoration="normal" x="14" y="291" text-anchor="start" dominant-baseline="alphabetic" fill-opacity="1">–2</text><text fill="rgb(0,0,0)" stroke="none" font-family="geogebra-sans-serif, sans-serif" font-size="10px" font-style="normal" font-weight="normal" text-decoration="normal" x="64" y="291" text-anchor="start" dominant-baseline="alphabetic" fill-opacity="1">–1</text><text fill="rgb(0,0,0)" stroke="none" font-family="geogebra-sans-serif, sans-serif" font-size="10px" font-style="normal" font-weight="normal" text-decoration="normal" x="64" y="291" text-anchor="start" dominant-baseline="alphabetic" fill-opacity="1">–1</text><text fill="rgb(0,0,0)" stroke="none" font-family="geogebra-sans-serif, sans-serif" font-size="10px" font-style="normal" font-weight="normal" text-decoration="normal" x="166" y="291" text-anchor="start" dominant-baseline="alphabetic" fill-opacity="1">1</text><text fill="rgb(0,0,0)" stroke="none" font-family="geogebra-sans-serif, sans-serif" font-size="10px" font-style="normal" font-weight="normal" text-decoration="normal" x="166" y="291" text-anchor="start" dominant-baseline="alphabetic" fill-opacity="1">1</text><text fill="rgb(0,0,0)" stroke="none" font-family="geogebra-sans-serif, sans-serif" font-size="10px" font-style="normal" font-weight="normal" text-decoration="normal" x="216" y="291" text-anchor="start" dominant-baseline="alphabetic" fill-opacity="1">2</text><text fill="rgb(0,0,0)" stroke="none" font-family="geogebra-sans-serif, sans-serif" font-size="10px" font-style="normal" font-weight="normal" text-decoration="normal" x="216" y="291" text-anchor="start" dominant-baseline="alphabetic" fill-opacity="1">2</text><text fill="rgb(0,0,0)" stroke="none" font-family="geogebra-sans-serif, sans-serif" font-size="10px" font-style="normal" font-weight="normal" text-decoration="normal" x="100" y="331" text-anchor="start" dominant-baseline="alphabetic" fill-opacity="1">–1</text><text fill="rgb(0,0,0)" stroke="none" font-family="geogebra-sans-serif, sans-serif" font-size="10px" font-style="normal" font-weight="normal" text-decoration="normal" x="100" y="331" text-anchor="start" dominant-baseline="alphabetic" fill-opacity="1">–1</text><text fill="rgb(0,0,0)" stroke="none" font-family="geogebra-sans-serif, sans-serif" font-size="10px" font-style="normal" font-weight="normal" text-decoration="normal" x="105" y="231" text-anchor="start" dominant-baseline="alphabetic" fill-opacity="1">1</text><text fill="rgb(0,0,0)" stroke="none" font-family="geogebra-sans-serif, sans-serif" font-size="10px" font-style="normal" font-weight="normal" text-decoration="normal" x="105" y="231" text-anchor="start" dominant-baseline="alphabetic" fill-opacity="1">1</text><text fill="rgb(0,0,0)" stroke="none" font-family="geogebra-sans-serif, sans-serif" font-size="10px" font-style="normal" font-weight="normal" text-decoration="normal" x="105" y="181" text-anchor="start" dominant-baseline="alphabetic" fill-opacity="1">2</text><text fill="rgb(0,0,0)" stroke="none" font-family="geogebra-sans-serif, sans-serif" font-size="10px" font-style="normal" font-weight="normal" text-decoration="normal" x="105" y="181" text-anchor="start" dominant-baseline="alphabetic" fill-opacity="1">2</text><text fill="rgb(0,0,0)" stroke="none" font-family="geogebra-sans-serif, sans-serif" font-size="10px" font-style="normal" font-weight="normal" text-decoration="normal" x="105" y="131" text-anchor="start" dominant-baseline="alphabetic" fill-opacity="1">3</text><text fill="rgb(0,0,0)" stroke="none" font-family="geogebra-sans-serif, sans-serif" font-size="10px" font-style="normal" font-weight="normal" text-decoration="normal" x="105" y="131" text-anchor="start" dominant-baseline="alphabetic" fill-opacity="1">3</text><text fill="rgb(0,0,0)" stroke="none" font-family="geogebra-sans-serif, sans-serif" font-size="10px" font-style="normal" font-weight="normal" text-decoration="normal" x="105" y="81" text-anchor="start" dominant-baseline="alphabetic" fill-opacity="1">4</text><text fill="rgb(0,0,0)" stroke="none" font-family="geogebra-sans-serif, sans-serif" font-size="10px" font-style="normal" font-weight="normal" text-decoration="normal" x="105" y="81" text-anchor="start" dominant-baseline="alphabetic" fill-opacity="1">4</text><text fill="rgb(0,0,0)" stroke="none" font-family="geogebra-sans-serif, sans-serif" font-size="10px" font-style="normal" font-weight="normal" text-decoration="normal" x="105" y="31" text-anchor="start" dominant-baseline="alphabetic" fill-opacity="1">5</text><text fill="rgb(0,0,0)" stroke="none" font-family="geogebra-sans-serif, sans-serif" font-size="10px" font-style="normal" font-weight="normal" text-decoration="normal" x="105" y="31" text-anchor="start" dominant-baseline="alphabetic" fill-opacity="1">5</text><text fill="rgb(0,0,0)" stroke="none" font-family="geogebra-sans-serif, sans-serif" font-size="10px" font-style="normal" font-weight="normal" text-decoration="normal" x="105" y="291" text-anchor="start" dominant-baseline="alphabetic" fill-opacity="1">0</text><text fill="rgb(0,0,0)" stroke="none" font-family="geogebra-sans-serif, sans-serif" font-size="10px" font-style="normal" font-weight="normal" text-decoration="normal" x="105" y="291" text-anchor="start" dominant-baseline="alphabetic" fill-opacity="1">0</text><path fill="none" stroke="rgb(128,0,0)" paint-order="fill stroke markers" d=" M 0.5000000000000142 -3.345000000000141 L 0.5000000000000142 1.3749999999999432 L 0.5000000000000142 1.3749999999998863 L 1.5000000000000142 6.05499999999995 L 1.5000000000000142 6.054999999999893 L 2.500000000000014 10.694999999999936 L 2.500000000000014 10.69499999999988 L 3.500000000000014 15.294999999999959 L 3.500000000000014 15.294999999999902 L 4.500000000000014 19.85499999999996 L 4.500000000000014 19.854999999999848 L 5.500000000000014 24.374999999999943 L 5.500000000000014 24.374999999999858 L 6.500000000000014 28.85499999999999 L 6.500000000000014 28.854999999999905 L 7.500000000000014 33.29499999999999 L 7.500000000000014 33.2949999999999 L 8.500000000000014 37.694999999999965 L 8.500000000000014 37.69499999999988 L 9.500000000000014 42.05499999999998 L 9.500000000000014 42.05499999999989 L 10.500000000000014 46.375 L 10.500000000000014 46.374999999999915 L 11.500000000000028 50.65499999999997 L 11.500000000000028 50.65499999999989 L 12.500000000000028 54.89499999999998 L 12.500000000000028 54.8949999999999 L 13.500000000000028 59.095 L 13.500000000000028 59.094999999999914 L 14.500000000000028 63.254999999999995 L 14.500000000000028 63.25499999999991 L 15.500000000000028 67.37499999999997 L 15.500000000000028 67.37499999999989 L 16.50000000000003 71.45500000000001 L 16.50000000000003 71.45499999999993 L 17.50000000000003 75.495 L 17.50000000000003 75.49499999999992 L 18.50000000000003 79.49499999999998 L 18.50000000000003 79.49499999999995 L 19.50000000000003 83.45499999999996 L 19.50000000000003 83.45499999999993 L 20.50000000000003 87.37499999999997 L 20.50000000000003 87.37499999999994 L 21.50000000000003 91.25499999999997 L 21.50000000000003 91.25499999999994 L 22.50000000000003 95.095 L 22.50000000000003 95.09499999999994 L 23.50000000000003 98.89499999999998 L 23.50000000000003 98.89499999999995 L 24.50000000000003 102.655 L 24.50000000000003 102.65499999999994 L 25.50000000000003 106.37499999999997 L 25.50000000000003 106.37499999999994 L 26.500000000000014 110.05499999999995 L 26.500000000000014 110.0549999999999 L 27.500000000000014 113.69499999999994 L 27.500000000000014 113.69499999999991 L 28.500000000000014 117.29499999999996 L 28.500000000000014 117.2949999999999 L 29.500000000000014 120.85499999999996 L 29.500000000000014 120.8549999999999 L 30.500000000000014 124.37499999999997 L 30.500000000000014 124.37499999999991 L 31.500000000000014 127.85499999999996 L 31.500000000000014 127.8549999999999 L 32.500000000000014 131.29499999999996 L 32.500000000000014 131.2949999999999 L 33.500000000000014 134.69499999999996 L 33.500000000000014 134.69499999999994 L 34.500000000000014 138.05499999999995 L 34.500000000000014 138.05499999999992 L 35.500000000000014 141.37499999999997 L 35.500000000000014 141.37499999999991 L 36.500000000000014 144.65499999999994 L 36.500000000000014 144.65499999999992 L 37.500000000000014 147.89499999999998 L 37.500000000000014 147.89499999999992 L 38.500000000000014 151.09499999999997 L 38.500000000000014 151.0949999999999 L 39.500000000000014 154.255 L 39.500000000000014 154.25499999999994 L 40.500000000000014 157.37499999999997 L 40.500000000000014 157.37499999999994 L 41.500000000000014 160.45499999999998 L 41.500000000000014 160.45499999999993 L 42.500000000000014 163.49499999999998 L 42.500000000000014 163.49499999999995 L 43.500000000000014 166.49499999999998 L 43.500000000000014 166.49499999999995 L 44.500000000000014 169.45499999999998 L 44.500000000000014 169.45499999999993 L 45.500000000000014 172.37499999999994 L 45.500000000000014 172.3749999999999 L 46.500000000000014 175.25499999999994 L 46.500000000000014 175.25499999999988 L 47.500000000000014 178.09499999999994 L 47.500000000000014 178.0949999999999 L 48.500000000000014 180.89499999999995 L 48.500000000000014 180.89499999999992 L 49.500000000000014 183.65499999999994 L 49.500000000000014 183.65499999999992 L 50.500000000000014 186.37499999999994 L 50.500000000000014 186.37499999999994 L 51.500000000000014 189.05499999999995 L 51.500000000000014 189.05499999999992 L 52.500000000000014 191.69499999999994 L 52.500000000000014 191.69499999999994 L 53.500000000000014 194.29499999999996 L 53.500000000000014 194.29499999999993 L 54.500000000000014 196.85499999999996 L 54.500000000000014 196.85499999999993 L 55.500000000000014 199.37499999999994 L 55.500000000000014 199.37499999999994 L 56.500000000000014 201.85499999999996 L 56.500000000000014 201.85499999999993 L 57.500000000000014 204.29499999999996 L 57.500000000000014 204.29499999999993 L 58.500000000000014 206.69499999999994 L 58.500000000000014 206.69499999999994 L 59.500000000000014 209.05499999999995 L 59.500000000000014 209.05499999999995 L 60.500000000000014 211.37499999999994 L 60.500000000000014 211.37499999999994 L 61.500000000000014 213.65499999999997 L 61.500000000000014 213.65499999999994 L 62.500000000000014 215.89499999999998 L 62.500000000000014 215.89499999999995 L 63.500000000000014 218.09499999999997 L 63.500000000000014 218.09499999999994 L 64.50000000000001 220.25499999999997 L 64.50000000000001 220.25499999999994 L 65.50000000000001 222.37499999999997 L 65.50000000000001 222.37499999999994 L 66.50000000000001 224.45499999999996 L 66.50000000000001 224.45499999999993 L 67.50000000000001 226.49499999999998 L 67.50000000000001 226.49499999999995 L 68.50000000000001 228.49499999999995 L 68.50000000000001 228.49499999999995 L 69.50000000000003 230.45499999999996 L 69.50000000000003 230.45499999999996 L 70.50000000000003 232.37499999999997 L 70.50000000000003 232.37499999999994 L 71.50000000000003 234.25499999999997 L 71.50000000000003 234.25499999999994 L 72.50000000000003 236.09499999999997 L 72.50000000000003 236.09499999999997 L 73.50000000000003 237.89499999999998 L 73.50000000000003 237.89499999999995 L 74.50000000000003 239.65499999999997 L 74.50000000000003 239.65499999999994 L 75.50000000000003 241.37499999999997 L 75.50000000000003 241.37499999999994 L 76.50000000000001 243.05499999999995 L 76.50000000000001 243.05499999999995 L 77.50000000000001 244.69499999999996 L 77.50000000000001 244.69499999999994 L 78.50000000000001 246.29499999999996 L 78.50000000000001 246.29499999999996 L 79.50000000000001 247.85499999999996 L 79.50000000000001 247.85499999999996 L 80.50000000000001 249.37499999999994 L 80.50000000000001 249.37499999999994 L 81.50000000000001 250.85499999999996 L 81.50000000000001 250.85499999999996 L 82.50000000000001 252.29499999999996 L 82.50000000000001 252.29499999999996 L 83.50000000000001 253.69499999999996 L 83.50000000000001 253.69499999999996 L 84.50000000000001 255.05499999999995 L 84.50000000000001 255.05499999999995 L 85.50000000000001 256.37499999999994 L 85.50000000000001 256.37499999999994 L 86.50000000000001 257.655 L 86.50000000000001 257.655 L 87.50000000000001 258.895 L 87.50000000000001 258.8949999999999 L 88.50000000000001 260.09499999999997 L 88.50000000000001 260.09499999999997 L 89.50000000000001 261.25499999999994 L 89.50000000000001 261.25499999999994 L 90.50000000000001 262.37499999999994 L 90.50000000000001 262.37499999999994 L 91.50000000000001 263.4549999999999 L 91.50000000000001 263.4549999999999 L 92.50000000000001 264.49499999999995 L 92.50000000000001 264.49499999999995 L 93.50000000000001 265.49499999999995 L 93.50000000000001 265.49499999999995 L 94.50000000000001 266.4549999999999 L 94.50000000000001 266.4549999999999 L 95.50000000000001 267.37499999999994 L 95.50000000000001 267.37499999999994 L 96.50000000000001 268.25499999999994 L 96.50000000000001 268.25499999999994 L 97.50000000000001 269.09499999999997 L 97.50000000000001 269.09499999999997 L 98.50000000000001 269.895 L 98.50000000000001 269.8949999999999 L 99.50000000000001 270.655 L 99.50000000000001 270.655 L 100.50000000000001 271.37499999999994 L 100.50000000000001 271.37499999999994 L 101.50000000000001 272.05499999999995 L 101.50000000000001 272.05499999999995 L 102.50000000000001 272.69499999999994 L 102.50000000000001 272.69499999999994 L 103.50000000000001 273.29499999999996 L 103.50000000000001 273.29499999999996 L 104.50000000000001 273.85499999999996 L 104.50000000000001 273.85499999999996 L 105.50000000000001 274.37499999999994 L 105.50000000000001 274.37499999999994 L 106.50000000000001 274.85499999999996 L 106.50000000000001 274.85499999999996 L 107.50000000000001 275.29499999999996 L 107.50000000000001 275.29499999999996 L 108.50000000000001 275.69499999999994 L 108.50000000000001 275.69499999999994 L 109.50000000000001 276.05499999999995 L 109.50000000000001 276.05499999999995 L 110.50000000000001 276.37499999999994 L 110.50000000000001 276.37499999999994 L 111.50000000000001 276.655 L 111.50000000000001 276.655 L 112.50000000000001 276.8949999999999 L 112.50000000000001 276.8949999999999 L 113.50000000000001 277.09499999999997 L 113.50000000000001 277.09499999999997 L 114.50000000000001 277.25499999999994 L 114.50000000000001 277.25499999999994 L 115.50000000000001 277.37499999999994 L 115.50000000000001 277.37499999999994 L 116.50000000000001 277.4549999999999 L 116.50000000000001 277.4549999999999 L 117.50000000000001 277.49499999999995 L 117.50000000000001 277.49499999999995 L 118.50000000000001 277.49999999999994 L 118.50000000000001 277.49499999999995 L 119.50000000000001 277.4549999999999 L 119.50000000000001 277.4549999999999 L 120.50000000000001 277.37499999999994 L 120.50000000000001 277.37499999999994 L 121.50000000000001 277.25499999999994 L 121.50000000000001 277.25499999999994 L 122.50000000000001 277.0949999999999 L 122.50000000000001 277.0949999999999 L 123.50000000000001 276.8949999999999 L 123.50000000000001 276.8949999999999 L 124.50000000000001 276.6549999999999 L 124.50000000000001 276.6549999999999 L 125.50000000000001 276.37499999999994 L 125.50000000000001 276.37499999999994 L 126.50000000000001 276.05499999999995 L 126.50000000000001 276.05499999999995 L 127.50000000000001 275.69499999999994 L 127.50000000000001 275.69499999999994 L 128.5 275.29499999999996 L 128.5 275.29499999999996 L 129.5 274.85499999999996 L 129.5 274.85499999999996 L 130.5 274.37499999999994 L 130.5 274.37499999999994 L 131.5 273.85499999999996 L 131.5 273.85499999999996 L 132.5 273.29499999999996 L 132.5 273.29499999999996 L 133.5 272.69499999999994 L 133.5 272.69499999999994 L 134.5 272.05499999999995 L 134.5 272.05499999999995 L 135.5 271.37499999999994 L 135.5 271.37499999999994 L 136.5 270.6549999999999 L 136.5 270.6549999999999 L 137.5 269.8949999999999 L 137.5 269.8949999999999 L 138.5 269.0949999999999 L 138.5 269.0949999999999 L 139.5 268.25499999999994 L 139.5 268.25499999999994 L 140.5 267.37499999999994 L 140.5 267.37499999999994 L 141.5 266.4549999999999 L 141.5 266.4549999999999 L 142.5 265.49499999999995 L 142.5 265.49499999999995 L 143.5 264.49499999999995 L 143.5 264.49499999999995 L 144.5 263.4549999999999 L 144.5 263.4549999999999 L 145.5 262.37499999999994 L 145.5 262.37499999999994 L 146.5 261.25499999999994 L 146.5 261.25499999999994 L 147.5 260.0949999999999 L 147.5 260.0949999999999 L 148.5 258.8949999999999 L 148.5 258.8949999999999 L 149.5 257.6549999999999 L 149.5 257.6549999999999 L 150.5 256.37499999999994 L 150.5 256.37499999999994 L 151.5 255.05499999999992 L 151.5 255.05499999999992 L 152.5 253.6949999999999 L 152.5 253.6949999999999 L 153.5 252.2949999999999 L 153.5 252.29499999999993 L 154.5 250.8549999999999 L 154.5 250.85499999999993 L 155.5 249.37499999999991 L 155.5 249.37499999999991 L 156.5 247.8549999999999 L 156.5 247.8549999999999 L 157.5 246.2949999999999 L 157.5 246.2949999999999 L 158.5 244.6949999999999 L 158.5 244.6949999999999 L 159.5 243.0549999999999 L 159.5 243.05499999999992 L 160.5 241.3749999999999 L 160.5 241.37499999999991 L 161.5 239.6549999999999 L 161.5 239.65499999999992 L 162.5 237.8949999999999 L 162.5 237.89499999999992 L 163.5 236.09499999999989 L 163.5 236.0949999999999 L 164.5 234.25499999999988 L 164.5 234.2549999999999 L 165.5 232.3749999999999 L 165.5 232.3749999999999 L 166.5 230.4549999999999 L 166.5 230.45499999999993 L 167.5 228.4949999999999 L 167.5 228.4949999999999 L 168.5 226.4949999999999 L 168.5 226.49499999999992 L 169.5 224.4549999999999 L 169.5 224.45499999999993 L 170.5 222.3749999999999 L 170.5 222.37499999999991 L 171.5 220.25499999999988 L 171.5 220.2549999999999 L 172.5 218.09499999999989 L 172.5 218.0949999999999 L 173.5 215.8949999999999 L 173.5 215.89499999999992 L 174.5 213.6549999999999 L 174.5 213.65499999999992 L 175.5 211.3749999999999 L 175.5 211.37499999999991 L 176.5 209.0549999999999 L 176.5 209.0549999999999 L 177.5 206.69499999999988 L 177.5 206.6949999999999 L 178.5 204.2949999999999 L 178.5 204.2949999999999 L 179.5 201.85499999999988 L 179.5 201.8549999999999 L 180.5 199.3749999999999 L 180.5 199.3749999999999 L 181.5 196.85499999999988 L 181.5 196.8549999999999 L 182.5 194.29499999999987 L 182.5 194.2949999999999 L 183.5 191.69499999999988 L 183.5 191.69499999999988 L 184.5 189.05499999999986 L 184.5 189.0549999999999 L 185.5 186.37499999999986 L 185.5 186.3749999999999 L 186.5 183.65499999999986 L 186.5 183.6549999999999 L 187.5 180.89499999999987 L 187.5 180.89499999999987 L 188.5 178.09499999999986 L 188.5 178.09499999999989 L 189.5 175.25499999999985 L 189.5 175.25499999999988 L 190.5 172.37499999999983 L 190.5 172.3749999999999 L 191.5 169.4549999999998 L 191.5 169.45499999999987 L 192.5 166.49499999999983 L 192.5 166.4949999999999 L 193.5 163.49499999999983 L 193.5 163.49499999999986 L 194.5 160.4549999999998 L 194.5 160.45499999999987 L 195.5 157.37499999999983 L 195.5 157.3749999999999 L 196.5 154.25499999999982 L 196.5 154.25499999999988 L 197.5 151.09499999999983 L 197.5 151.09499999999986 L 198.5 147.8949999999998 L 198.5 147.89499999999987 L 199.5 144.65499999999983 L 199.5 144.65499999999986 L 200.5 141.3749999999998 L 200.5 141.37499999999986 L 201.5 138.0549999999998 L 201.5 138.05499999999984 L 202.5 134.6949999999998 L 202.5 134.69499999999985 L 203.5 131.2949999999998 L 203.5 131.29499999999985 L 204.5 127.85499999999979 L 204.5 127.85499999999985 L 205.5 124.37499999999977 L 205.5 124.37499999999983 L 206.5 120.85499999999985 L 206.5 120.85499999999988 L 207.5 117.29499999999985 L 207.5 117.29499999999987 L 208.5 113.69499999999985 L 208.5 113.69499999999988 L 209.5 110.05499999999981 L 209.5 110.05499999999986 L 210.5 106.37499999999983 L 210.5 106.37499999999986 L 211.5 102.65499999999983 L 211.5 102.65499999999986 L 212.5 98.89499999999981 L 212.5 98.89499999999987 L 213.5 95.0949999999998 L 213.5 95.09499999999986 L 214.5 91.25499999999982 L 214.5 91.25499999999985 L 215.5 87.3749999999998 L 215.5 87.37499999999986 L 216.5 83.45499999999979 L 216.5 83.45499999999984 L 217.5 79.4949999999998 L 217.5 79.49499999999986 L 218.5 75.49499999999975 L 218.5 75.49499999999983 L 219.5 71.45499999999984 L 219.5 71.45499999999993 L 220.50000000000003 67.37499999999972 L 220.50000000000003 67.3749999999998 L 221.5 63.2549999999998 L 221.5 63.25499999999991 L 222.50000000000003 59.094999999999686 L 222.50000000000003 59.09499999999977 L 223.5 54.89499999999981 L 223.5 54.8949999999999 L 224.50000000000003 50.65499999999969 L 224.50000000000003 50.654999999999774 L 225.5 46.37499999999983 L 225.5 46.374999999999915 L 226.5 42.05499999999981 L 226.5 42.05499999999989 L 227.5 37.694999999999794 L 227.5 37.69499999999988 L 228.5 33.29499999999979 L 228.5 33.2949999999999 L 229.5 28.85499999999979 L 229.5 28.854999999999905 L 230.5 24.374999999999773 L 230.5 24.374999999999858 L 231.5 19.85499999999979 L 231.5 19.854999999999848 L 232.5 15.294999999999732 L 232.5 15.294999999999845 L 233.5 10.694999999999766 L 233.5 10.69499999999988 L 234.5 6.0549999999997794 L 234.5 6.054999999999836 L 235.5 1.3749999999997158 L 235.5 1.3749999999998295 L 236.5 -3.345000000000198 L 236.5 -3.345000000000141 L 237.5 -8.105000000000246 L 237.5 -8.105000000000132 L 238.5 -12.905000000000257 L 238.5 -12.905000000000143 L 239.5 -17.74500000000029 L 239.5 -17.745000000000175 L 240.5 -22.625000000000284 L 240.5 -22.62500000000017 L 241.5 -27.545000000000243 L 241.5 -27.545000000000186 L 242.5 -32.50500000000028 L 242.5 -32.505000000000166 L 243.5 -37.50500000000028 L 243.5 -37.505000000000166 L 244.5 -42.5450000000003 L 244.5 -42.545000000000186 L 245.5 -47.625000000000284 L 245.5 -47.62500000000023 L 246.5 -52.74500000000029 L 246.5 -52.74500000000023 L 247.5 -57.905000000000314 L 247.5 -57.9050000000002 L 248.5 -63.1050000000003 L 248.5 -63.10500000000019 L 249.5 -68.34500000000031 L 249.5 -68.3450000000002 L 250.5 -73.62500000000028 L 250.5 -73.62500000000023 L 251.5 -78.94500000000028" stroke-opacity="1" stroke-linecap="round" stroke-linejoin="round" stroke-miterlimit="10" stroke-width="4"/><g transform="scale(15,15)"><g transform="translate(0.7333333333333333,2.3970253333333336)"><path fill="rgb(128,0,0)" stroke="none" paint-order="stroke fill markers" d=" M 0.367 -0.4 L 0.367 -0.4 L 0.307 -0.083 Q 0.298 -0.021 0.271 0.059000000000000004 Q 0.261 0.088 0.251 0.108 Q 0.216 0.182 0.164 0.2 Q 0.151 0.20500000000000002 0.138 0.20500000000000002 Q 0.088 0.20500000000000002 0.064 0.171 Q 0.053 0.156 0.053 0.136 Q 0.053 0.096 0.08700000000000001 0.081 Q 0.097 0.076 0.108 0.076 Q 0.137 0.076 0.14400000000000002 0.101 Q 0.145 0.106 0.145 0.111 Q 0.145 0.145 0.115 0.159 Q 0.10400000000000001 0.164 0.09 0.165 Q 0.109 0.183 0.138 0.183 Q 0.182 0.183 0.20700000000000002 0.085 Q 0.212 0.062 0.219 0.025 L 0.225 -0.005 L 0.3 -0.4 L 0.234 -0.4 Q 0.209 -0.4 0.20700000000000002 -0.40800000000000003 L 0.20600000000000002 -0.40800000000000003 L 0.20600000000000002 -0.41200000000000003 Q 0.20600000000000002 -0.429 0.223 -0.431 L 0.223 -0.431 L 0.23600000000000002 -0.431 L 0.305 -0.431 Q 0.329 -0.556 0.338 -0.588 Q 0.368 -0.6880000000000001 0.444 -0.7030000000000001 Q 0.455 -0.705 0.465 -0.705 Q 0.517 -0.705 0.541 -0.671 L 0.541 -0.671 Q 0.552 -0.656 0.552 -0.636 Q 0.552 -0.596 0.518 -0.581 Q 0.508 -0.5760000000000001 0.497 -0.5760000000000001 Q 0.468 -0.5760000000000001 0.461 -0.601 Q 0.46 -0.606 0.46 -0.611 Q 0.46 -0.642 0.488 -0.657 Q 0.499 -0.664 0.514 -0.665 Q 0.495 -0.683 0.465 -0.683 Q 0.434 -0.683 0.418 -0.649 Q 0.41100000000000003 -0.635 0.394 -0.545 L 0.373 -0.431 L 0.456 -0.431 Q 0.481 -0.431 0.483 -0.42 Q 0.483 -0.402 0.467 -0.4 L 0.466 -0.4 L 0.453 -0.4 L 0.367 -0.4 Z"/></g><g transform="translate(1.3313333333333333,2.3970253333333336)"><path fill="rgb(128,0,0)" stroke="none" paint-order="stroke fill markers" d=" M 0.331 0.24 L 0.331 0.24 Q 0.331 0.25 0.321 0.25 Q 0.309 0.25 0.268 0.209 Q 0.20600000000000002 0.147 0.165 0.062 Q 0.099 -0.074 0.099 -0.25 Q 0.099 -0.419 0.162 -0.555 Q 0.214 -0.666 0.294 -0.733 Q 0.315 -0.75 0.321 -0.75 Q 0.331 -0.75 0.331 -0.74 Q 0.331 -0.735 0.318 -0.723 Q 0.157 -0.559 0.157 -0.25 Q 0.157 0.058 0.314 0.218 Q 0.331 0.23500000000000001 0.331 0.24 Z"/></g><g transform="translate(1.7203333333333333,2.3970253333333336)"><path fill="rgb(128,0,0)" stroke="none" paint-order="stroke fill markers" d=" M 0.334 -0.302 L 0.3 -0.165 Q 0.28300000000000003 -0.097 0.28300000000000003 -0.077 Q 0.28300000000000003 -0.025 0.32 -0.014 Q 0.328 -0.011 0.338 -0.011 Q 0.388 -0.011 0.429 -0.061 Q 0.456 -0.093 0.47100000000000003 -0.14200000000000002 Q 0.47400000000000003 -0.153 0.484 -0.153 Q 0.496 -0.153 0.496 -0.14300000000000002 Q 0.496 -0.11800000000000001 0.465 -0.07100000000000001 Q 0.41100000000000003 0.011 0.336 0.011 Q 0.268 0.011 0.23700000000000002 -0.046 Q 0.231 -0.055 0.228 -0.065 Q 0.20400000000000001 -0.017 0.162 0.002 Q 0.14300000000000002 0.011 0.123 0.011 Q 0.063 0.011 0.039 -0.024 Q 0.029 -0.037 0.029 -0.055 Q 0.029 -0.092 0.061 -0.107 Q 0.07200000000000001 -0.113 0.084 -0.113 Q 0.114 -0.113 0.12 -0.088 Q 0.121 -0.083 0.121 -0.078 Q 0.121 -0.044 0.08700000000000001 -0.028 Q 0.081 -0.025 0.074 -0.024 Q 0.095 -0.011 0.124 -0.011 Q 0.177 -0.011 0.20800000000000002 -0.082 Q 0.214 -0.097 0.219 -0.115 Q 0.273 -0.319 0.273 -0.353 Q 0.267 -0.41500000000000004 0.219 -0.42 Q 0.167 -0.42 0.124 -0.367 L 0.124 -0.366 Q 0.124 -0.365 0.123 -0.365 Q 0.108 -0.34500000000000003 0.096 -0.319 Q 0.091 -0.307 0.08700000000000001 -0.295 L 0.085 -0.289 Q 0.083 -0.278 0.07200000000000001 -0.278 Q 0.06 -0.278 0.06 -0.28800000000000003 Q 0.06 -0.313 0.092 -0.36 Q 0.146 -0.442 0.221 -0.442 Q 0.298 -0.442 0.329 -0.366 Q 0.361 -0.428 0.41400000000000003 -0.44 Q 0.424 -0.442 0.434 -0.442 Q 0.493 -0.442 0.517 -0.40900000000000003 Q 0.527 -0.395 0.527 -0.376 Q 0.527 -0.335 0.49 -0.321 Q 0.481 -0.318 0.47300000000000003 -0.318 Q 0.442 -0.318 0.436 -0.34500000000000003 Q 0.435 -0.34900000000000003 0.435 -0.353 Q 0.435 -0.383 0.464 -0.4 Q 0.47300000000000003 -0.405 0.483 -0.40700000000000003 Q 0.462 -0.42 0.433 -0.42 Q 0.365 -0.42 0.337 -0.314 Q 0.335 -0.308 0.334 -0.302 Z"/></g><g transform="translate(2.292333333333333,2.3970253333333336)"><path fill="rgb(128,0,0)" stroke="none" paint-order="stroke fill markers" d=" M 0.289 -0.25 L 0.289 -0.25 Q 0.289 -0.081 0.226 0.055 Q 0.17400000000000002 0.166 0.094 0.233 Q 0.073 0.25 0.067 0.25 Q 0.057 0.25 0.057 0.24 Q 0.057 0.23500000000000001 0.07 0.223 Q 0.231 0.059000000000000004 0.231 -0.25 Q 0.231 -0.555 0.081 -0.712 L 0.076 -0.717 Q 0.057 -0.735 0.057 -0.74 Q 0.057 -0.75 0.067 -0.75 Q 0.079 -0.75 0.12 -0.709 Q 0.182 -0.647 0.223 -0.562 Q 0.289 -0.426 0.289 -0.25 Z"/></g><g transform="translate(3.2368888888888883,2.3970253333333336)"><path fill="rgb(128,0,0)" stroke="none" paint-order="stroke fill markers" d=" M 0.687 -0.327 L 0.09 -0.327 Q 0.058 -0.327 0.056 -0.34700000000000003 Q 0.056 -0.367 0.089 -0.367 L 0.6880000000000001 -0.367 Q 0.72 -0.367 0.721 -0.34700000000000003 Q 0.721 -0.327 0.687 -0.327 M 0.6880000000000001 -0.133 L 0.089 -0.133 Q 0.057 -0.133 0.056 -0.153 Q 0.056 -0.17300000000000001 0.09 -0.17300000000000001 L 0.687 -0.17300000000000001 Q 0.719 -0.17300000000000001 0.721 -0.153 Q 0.721 -0.133 0.6880000000000001 -0.133 Z"/></g><g transform="translate(4.570444444444444,2.3970253333333336)"><path fill="rgb(128,0,0)" stroke="none" paint-order="stroke fill markers" d=" M 0.334 -0.302 L 0.3 -0.165 Q 0.28300000000000003 -0.097 0.28300000000000003 -0.077 Q 0.28300000000000003 -0.025 0.32 -0.014 Q 0.328 -0.011 0.338 -0.011 Q 0.388 -0.011 0.429 -0.061 Q 0.456 -0.093 0.47100000000000003 -0.14200000000000002 Q 0.47400000000000003 -0.153 0.484 -0.153 Q 0.496 -0.153 0.496 -0.14300000000000002 Q 0.496 -0.11800000000000001 0.465 -0.07100000000000001 Q 0.41100000000000003 0.011 0.336 0.011 Q 0.268 0.011 0.23700000000000002 -0.046 Q 0.231 -0.055 0.228 -0.065 Q 0.20400000000000001 -0.017 0.162 0.002 Q 0.14300000000000002 0.011 0.123 0.011 Q 0.063 0.011 0.039 -0.024 Q 0.029 -0.037 0.029 -0.055 Q 0.029 -0.092 0.061 -0.107 Q 0.07200000000000001 -0.113 0.084 -0.113 Q 0.114 -0.113 0.12 -0.088 Q 0.121 -0.083 0.121 -0.078 Q 0.121 -0.044 0.08700000000000001 -0.028 Q 0.081 -0.025 0.074 -0.024 Q 0.095 -0.011 0.124 -0.011 Q 0.177 -0.011 0.20800000000000002 -0.082 Q 0.214 -0.097 0.219 -0.115 Q 0.273 -0.319 0.273 -0.353 Q 0.267 -0.41500000000000004 0.219 -0.42 Q 0.167 -0.42 0.124 -0.367 L 0.124 -0.366 Q 0.124 -0.365 0.123 -0.365 Q 0.108 -0.34500000000000003 0.096 -0.319 Q 0.091 -0.307 0.08700000000000001 -0.295 L 0.085 -0.289 Q 0.083 -0.278 0.07200000000000001 -0.278 Q 0.06 -0.278 0.06 -0.28800000000000003 Q 0.06 -0.313 0.092 -0.36 Q 0.146 -0.442 0.221 -0.442 Q 0.298 -0.442 0.329 -0.366 Q 0.361 -0.428 0.41400000000000003 -0.44 Q 0.424 -0.442 0.434 -0.442 Q 0.493 -0.442 0.517 -0.40900000000000003 Q 0.527 -0.395 0.527 -0.376 Q 0.527 -0.335 0.49 -0.321 Q 0.481 -0.318 0.47300000000000003 -0.318 Q 0.442 -0.318 0.436 -0.34500000000000003 Q 0.435 -0.34900000000000003 0.435 -0.353 Q 0.435 -0.383 0.464 -0.4 Q 0.47300000000000003 -0.405 0.483 -0.40700000000000003 Q 0.462 -0.42 0.433 -0.42 Q 0.365 -0.42 0.337 -0.314 Q 0.335 -0.308 0.334 -0.302 Z"/></g><g transform="translate(5.142444444444444,1.9841333333333335) scale(0.7,0.7)"><path fill="rgb(128,0,0)" stroke="none" paint-order="stroke fill markers" d=" M 0.449 -0.17400000000000002 L 0.449 -0.17400000000000002 L 0.421 0 L 0.05 0 Q 0.05 -0.025 0.056 -0.032 L 0.061 -0.037 L 0.253 -0.251 Q 0.358 -0.369 0.358 -0.47200000000000003 Q 0.358 -0.561 0.304 -0.607 L 0.303 -0.608 L 0.302 -0.608 Q 0.27 -0.635 0.224 -0.635 Q 0.152 -0.635 0.109 -0.5730000000000001 Q 0.097 -0.555 0.089 -0.533 Q 0.092 -0.534 0.10200000000000001 -0.534 Q 0.14200000000000002 -0.534 0.153 -0.498 L 0.153 -0.497 Q 0.155 -0.49 0.155 -0.482 Q 0.155 -0.442 0.117 -0.431 Q 0.109 -0.429 0.10300000000000001 -0.429 Q 0.066 -0.429 0.054 -0.46 Q 0.05 -0.47100000000000003 0.05 -0.485 Q 0.05 -0.562 0.109 -0.617 Q 0.162 -0.666 0.23700000000000002 -0.666 Q 0.34700000000000003 -0.666 0.40800000000000003 -0.592 Q 0.443 -0.549 0.448 -0.49 Q 0.449 -0.481 0.449 -0.47200000000000003 Q 0.449 -0.399 0.394 -0.333 Q 0.365 -0.299 0.304 -0.243 L 0.243 -0.189 L 0.233 -0.18 L 0.127 -0.077 L 0.307 -0.077 Q 0.395 -0.077 0.402 -0.085 Q 0.41200000000000003 -0.099 0.424 -0.17400000000000002 L 0.449 -0.17400000000000002 Z"/></g></g><path fill="none" stroke="rgb(51,51,51)" paint-order="fill stroke markers" d=" M 115 274.49999999999994 L 121 280.49999999999994" stroke-opacity="1" stroke-linecap="square" stroke-miterlimit="10" stroke-width="1.5"/><path fill="none" stroke="rgb(51,51,51)" paint-order="fill stroke markers" d=" M 115 280.49999999999994 L 121 274.49999999999994" stroke-opacity="1" stroke-linecap="square" stroke-miterlimit="10" stroke-width="1.5"/><text fill="rgb(51,51,51)" stroke="none" font-family="geogebra-sans-serif, sans-serif" font-size="12px" font-style="normal" font-weight="normal" text-decoration="normal" x="122" y="271" text-anchor="start" dominant-baseline="alphabetic" fill-opacity="1">O</text><text fill="rgb(51,51,51)" stroke="none" font-family="geogebra-sans-serif, sans-serif" font-size="12px" font-style="normal" font-weight="normal" text-decoration="normal" x="122" y="271" text-anchor="start" dominant-baseline="alphabetic" fill-opacity="1">O</text><path fill="none" stroke="rgb(51,51,51)" paint-order="fill stroke markers" d=" M 164.99999999999997 274.49999999999994 L 170.99999999999997 280.49999999999994" stroke-opacity="1" stroke-linecap="square" stroke-miterlimit="10" stroke-width="1.5"/><path fill="none" stroke="rgb(51,51,51)" paint-order="fill stroke markers" d=" M 164.99999999999997 280.49999999999994 L 170.99999999999997 274.49999999999994" stroke-opacity="1" stroke-linecap="square" stroke-miterlimit="10" stroke-width="1.5"/><text fill="rgb(51,51,51)" stroke="none" font-family="geogebra-sans-serif, sans-serif" font-size="12px" font-style="normal" font-weight="normal" text-decoration="normal" x="172" y="271" text-anchor="start" dominant-baseline="alphabetic" fill-opacity="1">I</text><text fill="rgb(51,51,51)" stroke="none" font-family="geogebra-sans-serif, sans-serif" font-size="12px" font-style="normal" font-weight="normal" text-decoration="normal" x="172" y="271" text-anchor="start" dominant-baseline="alphabetic" fill-opacity="1">I</text><path fill="none" stroke="rgb(51,51,51)" paint-order="fill stroke markers" d=" M 115 224.49999999999997 L 121 230.49999999999997" stroke-opacity="1" stroke-linecap="square" stroke-miterlimit="10" stroke-width="1.5"/><path fill="none" stroke="rgb(51,51,51)" paint-order="fill stroke markers" d=" M 115 230.49999999999997 L 121 224.49999999999997" stroke-opacity="1" stroke-linecap="square" stroke-miterlimit="10" stroke-width="1.5"/><text fill="rgb(51,51,51)" stroke="none" font-family="geogebra-sans-serif, sans-serif" font-size="12px" font-style="normal" font-weight="normal" text-decoration="normal" x="122" y="221" text-anchor="start" dominant-baseline="alphabetic" fill-opacity="1">J</text><text fill="rgb(51,51,51)" stroke="none" font-family="geogebra-sans-serif, sans-serif" font-size="12px" font-style="normal" font-weight="normal" text-decoration="normal" x="122" y="221" text-anchor="start" dominant-baseline="alphabetic" fill-opacity="1">J</text></g></g></svg>