<svg version="1.1" xmlns="http://www.w3.org/2000/svg" xmlns:xlink="http://www.w3.org/1999/xlink" width="215" height="203"><defs><clipPath id="qnyXemtTrWGF"><path fill="none" stroke="none" d=" M 0 0 L 215 0 L 215 203 L 0 203 L 0 0 Z"/></clipPath></defs><g transform="scale(1,1)" clip-path="url(#qnyXemtTrWGF)"><g><rect fill="none" stroke="none" x="0" y="0" width="215" height="204" fill-opacity="1"/><path fill="none" stroke="rgb(0,0,0)" paint-order="fill stroke markers" d=" M 103 3 L 103 203" stroke-opacity="1" stroke-miterlimit="10" stroke-width="2"/><path fill="none" stroke="rgb(0,0,0)" paint-order="fill stroke markers" d=" M 103 2 L 99 6" stroke-opacity="1" stroke-miterlimit="10" stroke-width="2"/><path fill="none" stroke="rgb(0,0,0)" paint-order="fill stroke markers" d=" M 103 2 L 107 6" stroke-opacity="1" stroke-miterlimit="10" stroke-width="2"/><path fill="none" stroke="rgb(0,0,0)" paint-order="fill stroke markers" d=" M 0 106 L 212 106" stroke-opacity="1" stroke-miterlimit="10" stroke-width="2"/><path fill="none" stroke="rgb(0,0,0)" paint-order="fill stroke markers" d=" M 213 106 L 209 102" stroke-opacity="1" stroke-miterlimit="10" stroke-width="2"/><path fill="none" stroke="rgb(0,0,0)" paint-order="fill stroke markers" d=" M 213 106 L 209 110" stroke-opacity="1" stroke-miterlimit="10" stroke-width="2"/><path fill="none" stroke="rgb(0,0,0)" paint-order="fill stroke markers" d=" M 12 106 L 12 109" stroke-opacity="1" stroke-miterlimit="10" stroke-width="2"/><path fill="none" stroke="rgb(0,0,0)" paint-order="fill stroke markers" d=" M 103 106 L 103 109" stroke-opacity="1" stroke-miterlimit="10" stroke-width="2"/><path fill="none" stroke="rgb(0,0,0)" paint-order="fill stroke markers" d=" M 194 106 L 194 109" stroke-opacity="1" stroke-miterlimit="10" stroke-width="2"/><path fill="none" stroke="rgb(0,0,0)" paint-order="fill stroke markers" d=" M 100 197 L 103 197" stroke-opacity="1" stroke-miterlimit="10" stroke-width="2"/><path fill="none" stroke="rgb(0,0,0)" paint-order="fill stroke markers" d=" M 100 15 L 103 15" stroke-opacity="1" stroke-miterlimit="10" stroke-width="2"/><path fill="none" stroke="rgb(102,0,153)" paint-order="fill stroke markers" d=" M 193.65282624039145 105.85809884553112 C 193.65282624039145 156.01553507325656 152.99219037198804 196.6761709416599 102.83475414426263 196.6761709416599 C 52.677317916537184 196.6761709416599 12.01668204813383 156.01553507325656 12.01668204813383 105.85809884553112 C 12.01668204813383 55.700662617805676 52.677317916537184 15.04002674940233 102.83475414426263 15.04002674940233 C 152.99219037198804 15.04002674940233 193.65282624039145 55.700662617805676 193.65282624039145 105.85809884553112 Z" stroke-opacity="1" stroke-linecap="round" stroke-linejoin="round" stroke-miterlimit="10" stroke-width="3.5"/><path fill="rgb(0,102,51)" stroke="none" paint-order="stroke fill markers" d=" M 147.83475414426263 105.85809884553112 C 147.83475414426263 97.50187173003657 145.50804574434602 89.31069072159883 141.11529373059517 82.20222665744161 L 102.83475414426263 105.85809884553112 Z" fill-opacity="0.09803921568627451"/><path fill="none" stroke="rgb(0,102,51)" paint-order="fill stroke markers" d=" M 147.83475414426263 105.85809884553112 C 147.83475414426263 97.50187173003657 145.50804574434602 89.31069072159883 141.11529373059517 82.20222665744161 L 102.83475414426263 105.85809884553112 Z" stroke-opacity="1" stroke-linecap="round" stroke-linejoin="round" stroke-miterlimit="10"/><path fill="rgb(0,102,51)" stroke="none" paint-order="stroke fill markers" fill-rule="evenodd" d=" M 141.11529373059517 82.20222665744161 L 149.34136245570815 92.01837627578578 L 141.80645893967906 94.99078758718473 Z" fill-opacity="1"/><path fill="rgb(0,51,153)" stroke="none" paint-order="stroke fill markers" d=" M 132.83475414426263 105.85809884553112 C 132.83475414426263 92.4465705225129 123.93314623595624 80.66431105758069 111.03198563646013 76.99973097998256 C 98.13082503696403 73.33515090238444 84.36464775018007 78.67861647830435 77.31439442004094 90.08751738680478 L 102.83475414426263 105.85809884553112 Z" fill-opacity="0.09803921568627451"/><path fill="none" stroke="rgb(0,51,153)" paint-order="fill stroke markers" d=" M 132.83475414426263 105.85809884553112 C 132.83475414426263 92.4465705225129 123.93314623595624 80.66431105758069 111.03198563646013 76.99973097998256 C 98.13082503696403 73.33515090238444 84.36464775018007 78.67861647830435 77.31439442004094 90.08751738680478 L 102.83475414426263 105.85809884553112 Z" stroke-opacity="1" stroke-linecap="round" stroke-linejoin="round" stroke-miterlimit="10"/><path fill="rgb(0,51,153)" stroke="none" paint-order="stroke fill markers" fill-rule="evenodd" d=" M 77.31439442004094 90.08751738680478 L 83.43693585264785 78.8385402597051 L 88.96181384238626 84.76186054468917 Z" fill-opacity="1"/><path fill="none" stroke="rgb(0,102,51)" paint-order="fill stroke markers" d=" M 102.83475414426263 105.85809884553112 L 180.09174978937958 58.11630538164844" stroke-opacity="1" stroke-linecap="round" stroke-linejoin="round" stroke-miterlimit="10"/><path fill="none" stroke="rgb(0,51,153)" paint-order="fill stroke markers" d=" M 102.83475414426263 105.85809884553112 L 25.577758499145702 58.11630538164843" stroke-opacity="1" stroke-linecap="round" stroke-linejoin="round" stroke-miterlimit="10"/><path fill="none" stroke="rgb(51,51,51)" paint-order="fill stroke markers" d=" M 99.83475414426263 102.85809884553112 L 105.83475414426263 108.85809884553112" stroke-opacity="1" stroke-linecap="square" stroke-miterlimit="10" stroke-width="1.5"/><path fill="none" stroke="rgb(51,51,51)" paint-order="fill stroke markers" d=" M 99.83475414426263 108.85809884553112 L 105.83475414426263 102.85809884553112" stroke-opacity="1" stroke-linecap="square" stroke-miterlimit="10" stroke-width="1.5"/><text fill="rgb(51,51,51)" stroke="none" font-family="geogebra-sans-serif, sans-serif" font-size="12px" font-style="normal" font-weight="normal" text-decoration="normal" x="90" y="120" text-anchor="start" dominant-baseline="alphabetic" fill-opacity="1">O</text><text fill="none" stroke="rgb(255,255,255)" font-family="geogebra-sans-serif, sans-serif" font-size="12px" font-style="normal" font-weight="normal" text-decoration="normal" x="90" y="120" text-anchor="start" dominant-baseline="alphabetic" stroke-opacity="1" stroke-linejoin="bevel" stroke-miterlimit="10" stroke-width="3">O</text><text fill="rgb(51,51,51)" stroke="none" font-family="geogebra-sans-serif, sans-serif" font-size="12px" font-style="normal" font-weight="normal" text-decoration="normal" x="90" y="120" text-anchor="start" dominant-baseline="alphabetic" fill-opacity="1">O</text><path fill="none" stroke="rgb(51,51,51)" paint-order="fill stroke markers" d=" M 190.65282624039145 102.85809884553112 L 196.65282624039145 108.85809884553112" stroke-opacity="1" stroke-linecap="square" stroke-miterlimit="10" stroke-width="1.5"/><path fill="none" stroke="rgb(51,51,51)" paint-order="fill stroke markers" d=" M 190.65282624039145 108.85809884553112 L 196.65282624039145 102.85809884553112" stroke-opacity="1" stroke-linecap="square" stroke-miterlimit="10" stroke-width="1.5"/><text fill="rgb(51,51,51)" stroke="none" font-family="geogebra-sans-serif, sans-serif" font-size="12px" font-style="normal" font-weight="normal" text-decoration="normal" x="196" y="121" text-anchor="start" dominant-baseline="alphabetic" fill-opacity="1">I</text><text fill="none" stroke="rgb(255,255,255)" font-family="geogebra-sans-serif, sans-serif" font-size="12px" font-style="normal" font-weight="normal" text-decoration="normal" x="196" y="121" text-anchor="start" dominant-baseline="alphabetic" stroke-opacity="1" stroke-linejoin="bevel" stroke-miterlimit="10" stroke-width="3">I</text><text fill="rgb(51,51,51)" stroke="none" font-family="geogebra-sans-serif, sans-serif" font-size="12px" font-style="normal" font-weight="normal" text-decoration="normal" x="196" y="121" text-anchor="start" dominant-baseline="alphabetic" fill-opacity="1">I</text><path fill="none" stroke="rgb(0,102,51)" paint-order="fill stroke markers" d=" M 180.09174978937958 55.11630538164844 L 180.09174978937958 61.11630538164844" stroke-opacity="1" stroke-linecap="square" stroke-miterlimit="10" stroke-width="1.5"/><path fill="none" stroke="rgb(0,102,51)" paint-order="fill stroke markers" d=" M 177.09174978937958 58.11630538164844 L 183.09174978937958 58.11630538164844" stroke-opacity="1" stroke-linecap="square" stroke-miterlimit="10" stroke-width="1.5"/><text fill="rgb(0,102,51)" stroke="none" font-family="geogebra-sans-serif, sans-serif" font-size="12px" font-style="normal" font-weight="normal" text-decoration="normal" x="184" y="52" text-anchor="start" dominant-baseline="alphabetic" fill-opacity="1">M</text><text fill="none" stroke="rgb(255,255,255)" font-family="geogebra-sans-serif, sans-serif" font-size="12px" font-style="normal" font-weight="normal" text-decoration="normal" x="184" y="52" text-anchor="start" dominant-baseline="alphabetic" stroke-opacity="1" stroke-linejoin="bevel" stroke-miterlimit="10" stroke-width="3">M</text><text fill="rgb(0,102,51)" stroke="none" font-family="geogebra-sans-serif, sans-serif" font-size="12px" font-style="normal" font-weight="normal" text-decoration="normal" x="184" y="52" text-anchor="start" dominant-baseline="alphabetic" fill-opacity="1">M</text><path fill="none" stroke="rgb(51,51,51)" paint-order="fill stroke markers" d=" M 99.83475414426263 12.04002674940233 L 105.83475414426263 18.04002674940233" stroke-opacity="1" stroke-linecap="square" stroke-miterlimit="10" stroke-width="1.5"/><path fill="none" stroke="rgb(51,51,51)" paint-order="fill stroke markers" d=" M 99.83475414426263 18.04002674940233 L 105.83475414426263 12.04002674940233" stroke-opacity="1" stroke-linecap="square" stroke-miterlimit="10" stroke-width="1.5"/><text fill="rgb(51,51,51)" stroke="none" font-family="geogebra-sans-serif, sans-serif" font-size="12px" font-style="normal" font-weight="normal" text-decoration="normal" x="96" y="31" text-anchor="start" dominant-baseline="alphabetic" fill-opacity="1">J</text><text fill="none" stroke="rgb(255,255,255)" font-family="geogebra-sans-serif, sans-serif" font-size="12px" font-style="normal" font-weight="normal" text-decoration="normal" x="96" y="31" text-anchor="start" dominant-baseline="alphabetic" stroke-opacity="1" stroke-linejoin="bevel" stroke-miterlimit="10" stroke-width="3">J</text><text fill="rgb(51,51,51)" stroke="none" font-family="geogebra-sans-serif, sans-serif" font-size="12px" font-style="normal" font-weight="normal" text-decoration="normal" x="96" y="31" text-anchor="start" dominant-baseline="alphabetic" fill-opacity="1">J</text><path fill="none" stroke="rgb(0,51,153)" paint-order="fill stroke markers" d=" M 25.577758499145702 55.11630538164843 L 25.577758499145702 61.11630538164843" stroke-opacity="1" stroke-linecap="square" stroke-miterlimit="10" stroke-width="1.5"/><path fill="none" stroke="rgb(0,51,153)" paint-order="fill stroke markers" d=" M 22.577758499145702 58.11630538164843 L 28.577758499145702 58.11630538164843" stroke-opacity="1" stroke-linecap="square" stroke-miterlimit="10" stroke-width="1.5"/><text fill="rgb(0,51,153)" stroke="none" font-family="geogebra-sans-serif, sans-serif" font-size="12px" font-style="normal" font-weight="normal" text-decoration="normal" x="8" y="53" text-anchor="start" dominant-baseline="alphabetic" fill-opacity="1">M'</text><text fill="none" stroke="rgb(255,255,255)" font-family="geogebra-sans-serif, sans-serif" font-size="12px" font-style="normal" font-weight="normal" text-decoration="normal" x="8" y="53" text-anchor="start" dominant-baseline="alphabetic" stroke-opacity="1" stroke-linejoin="bevel" stroke-miterlimit="10" stroke-width="3">M'</text><text fill="rgb(0,51,153)" stroke="none" font-family="geogebra-sans-serif, sans-serif" font-size="12px" font-style="normal" font-weight="normal" text-decoration="normal" x="8" y="53" text-anchor="start" dominant-baseline="alphabetic" fill-opacity="1">M'</text><g transform="scale(15,15)"><g transform="translate(4.266666666666667,4.427333333333333)"><path fill="rgb(0,51,153)" stroke="none" paint-order="stroke fill markers" d=" M 0.265 -0.373 L 0.265 -0.373 L 0.209 -0.152 Q 0.192 -0.088 0.182 -0.054 Q 0.166 -0.005 0.152 0.005 L 0.152 0.006 Q 0.14300000000000002 0.011 0.132 0.011 Q 0.109 0.011 0.10400000000000001 -0.009000000000000001 Q 0.10300000000000001 -0.012 0.10300000000000001 -0.016 Q 0.10300000000000001 -0.025 0.111 -0.04 Q 0.20500000000000002 -0.243 0.23900000000000002 -0.373 L 0.182 -0.373 Q 0.10400000000000001 -0.373 0.055 -0.296 Q 0.046 -0.28400000000000003 0.039 -0.28400000000000003 Q 0.027 -0.28400000000000003 0.027 -0.294 Q 0.027 -0.305 0.063 -0.354 Q 0.07 -0.362 0.076 -0.37 Q 0.079 -0.374 0.083 -0.378 Q 0.085 -0.381 0.088 -0.384 Q 0.132 -0.431 0.192 -0.431 L 0.527 -0.431 Q 0.561 -0.431 0.5660000000000001 -0.41600000000000004 L 0.5660000000000001 -0.41500000000000004 Q 0.5670000000000001 -0.41200000000000003 0.5670000000000001 -0.40700000000000003 Q 0.5670000000000001 -0.373 0.518 -0.373 L 0.404 -0.373 Q 0.386 -0.28800000000000003 0.386 -0.214 Q 0.386 -0.121 0.41500000000000004 -0.049 Q 0.421 -0.035 0.421 -0.027 Q 0.421 -0.004 0.396 0.007 Q 0.388 0.011 0.38 0.011 Q 0.36 0.011 0.35000000000000003 -0.017 Q 0.34700000000000003 -0.026000000000000002 0.34400000000000003 -0.039 Q 0.336 -0.073 0.336 -0.115 Q 0.336 -0.181 0.363 -0.306 L 0.378 -0.373 L 0.265 -0.373 Z"/></g><g transform="translate(5.094888888888889,4.427333333333333)"><path fill="rgb(0,51,153)" stroke="none" paint-order="stroke fill markers" d=" M 0.661 -0.23 L 0.116 -0.23 Q 0.084 -0.23 0.083 -0.25 Q 0.083 -0.27 0.116 -0.27 L 0.661 -0.27 Q 0.6930000000000001 -0.27 0.6940000000000001 -0.25 Q 0.6940000000000001 -0.23 0.661 -0.23 Z"/></g><g transform="translate(6.095111111111112,4.427333333333333)"><path fill="rgb(0,51,153)" stroke="none" paint-order="stroke fill markers" d=" M 0.334 -0.302 L 0.3 -0.165 Q 0.28300000000000003 -0.097 0.28300000000000003 -0.077 Q 0.28300000000000003 -0.025 0.32 -0.014 Q 0.328 -0.011 0.338 -0.011 Q 0.388 -0.011 0.429 -0.061 Q 0.456 -0.093 0.47100000000000003 -0.14200000000000002 Q 0.47400000000000003 -0.153 0.484 -0.153 Q 0.496 -0.153 0.496 -0.14300000000000002 Q 0.496 -0.11800000000000001 0.465 -0.07100000000000001 Q 0.41100000000000003 0.011 0.336 0.011 Q 0.268 0.011 0.23700000000000002 -0.046 Q 0.231 -0.055 0.228 -0.065 Q 0.20400000000000001 -0.017 0.162 0.002 Q 0.14300000000000002 0.011 0.123 0.011 Q 0.063 0.011 0.039 -0.024 Q 0.029 -0.037 0.029 -0.055 Q 0.029 -0.092 0.061 -0.107 Q 0.07200000000000001 -0.113 0.084 -0.113 Q 0.114 -0.113 0.12 -0.088 Q 0.121 -0.083 0.121 -0.078 Q 0.121 -0.044 0.08700000000000001 -0.028 Q 0.081 -0.025 0.074 -0.024 Q 0.095 -0.011 0.124 -0.011 Q 0.177 -0.011 0.20800000000000002 -0.082 Q 0.214 -0.097 0.219 -0.115 Q 0.273 -0.319 0.273 -0.353 Q 0.267 -0.41500000000000004 0.219 -0.42 Q 0.167 -0.42 0.124 -0.367 L 0.124 -0.366 Q 0.124 -0.365 0.123 -0.365 Q 0.108 -0.34500000000000003 0.096 -0.319 Q 0.091 -0.307 0.08700000000000001 -0.295 L 0.085 -0.289 Q 0.083 -0.278 0.07200000000000001 -0.278 Q 0.06 -0.278 0.06 -0.28800000000000003 Q 0.06 -0.313 0.092 -0.36 Q 0.146 -0.442 0.221 -0.442 Q 0.298 -0.442 0.329 -0.366 Q 0.361 -0.428 0.41400000000000003 -0.44 Q 0.424 -0.442 0.434 -0.442 Q 0.493 -0.442 0.517 -0.40900000000000003 Q 0.527 -0.395 0.527 -0.376 Q 0.527 -0.335 0.49 -0.321 Q 0.481 -0.318 0.47300000000000003 -0.318 Q 0.442 -0.318 0.436 -0.34500000000000003 Q 0.435 -0.34900000000000003 0.435 -0.353 Q 0.435 -0.383 0.464 -0.4 Q 0.47300000000000003 -0.405 0.483 -0.40700000000000003 Q 0.462 -0.42 0.433 -0.42 Q 0.365 -0.42 0.337 -0.314 Q 0.335 -0.308 0.334 -0.302 Z"/></g><g transform="translate(7.000111111111112,4.427333333333333)"><path fill="rgb(0,51,153)" stroke="none" paint-order="stroke fill markers" d=" M 0.17200000000000001 -0.078 Q 0.17200000000000001 -0.047 0.184 -0.04 L 0.184 -0.04 L 0.185 -0.039 Q 0.199 -0.031 0.248 -0.031 L 0.269 -0.031 L 0.269 0 Q 0.229 -0.003 0.14200000000000002 -0.003 Q 0.145 -0.003 0.028 0 L 0.028 -0.031 Q 0.08700000000000001 -0.031 0.097 -0.04 L 0.099 -0.042 Q 0.106 -0.05 0.106 -0.076 L 0.106 -0.34400000000000003 Q 0.106 -0.383 0.091 -0.392 Q 0.079 -0.399 0.048 -0.4 L 0.028 -0.4 L 0.028 -0.431 L 0.167 -0.442 L 0.167 -0.332 Q 0.194 -0.41600000000000004 0.256 -0.437 Q 0.272 -0.442 0.29 -0.442 Q 0.337 -0.442 0.357 -0.40700000000000003 Q 0.364 -0.395 0.364 -0.381 Q 0.364 -0.34600000000000003 0.331 -0.338 Q 0.326 -0.337 0.321 -0.337 Q 0.29 -0.337 0.281 -0.364 Q 0.278 -0.371 0.278 -0.38 Q 0.278 -0.40700000000000003 0.301 -0.419 Q 0.299 -0.42 0.29 -0.42 Q 0.223 -0.42 0.191 -0.338 Q 0.17200000000000001 -0.291 0.17200000000000001 -0.232 L 0.17200000000000001 -0.078 Z"/></g><g transform="translate(7.392111111111112,4.427333333333333)"><path fill="rgb(0,51,153)" stroke="none" paint-order="stroke fill markers" d=" M 0.333 -0.076 Q 0.308 -0.014 0.245 0.005 Q 0.225 0.011 0.202 0.011 Q 0.117 0.011 0.07100000000000001 -0.03 Q 0.042 -0.056 0.042 -0.095 Q 0.042 -0.17200000000000001 0.127 -0.218 Q 0.134 -0.222 0.14200000000000002 -0.225 Q 0.203 -0.254 0.321 -0.261 L 0.326 -0.261 L 0.326 -0.298 Q 0.326 -0.383 0.265 -0.41500000000000004 Q 0.244 -0.426 0.22 -0.426 Q 0.154 -0.426 0.11800000000000001 -0.387 Q 0.115 -0.383 0.112 -0.38 Q 0.159 -0.374 0.163 -0.334 Q 0.163 -0.3 0.132 -0.29 Q 0.125 -0.28800000000000003 0.117 -0.28800000000000003 Q 0.081 -0.28800000000000003 0.073 -0.321 Q 0.07100000000000001 -0.326 0.07100000000000001 -0.335 Q 0.07100000000000001 -0.395 0.134 -0.427 Q 0.17300000000000001 -0.448 0.222 -0.448 Q 0.304 -0.448 0.359 -0.393 Q 0.394 -0.357 0.395 -0.293 L 0.395 -0.292 L 0.395 -0.275 L 0.395 -0.075 Q 0.395 -0.046 0.41300000000000003 -0.032 Q 0.421 -0.025 0.432 -0.025 Q 0.467 -0.025 0.468 -0.089 L 0.468 -0.145 L 0.493 -0.145 L 0.493 -0.089 Q 0.493 -0.016 0.433 0.002 Q 0.421 0.006 0.41100000000000003 0.006 Q 0.362 0.006 0.341 -0.046 Q 0.335 -0.06 0.333 -0.076 M 0.326 -0.24 Q 0.17200000000000001 -0.234 0.13 -0.146 Q 0.11900000000000001 -0.122 0.11900000000000001 -0.096 Q 0.11900000000000001 -0.045 0.165 -0.021 Q 0.185 -0.011 0.209 -0.011 Q 0.261 -0.011 0.296 -0.052000000000000005 Q 0.326 -0.08600000000000001 0.326 -0.14 L 0.326 -0.24 Z"/></g><g transform="translate(7.892111111111112,4.427333333333333)"><path fill="rgb(0,51,153)" stroke="none" paint-order="stroke fill markers" d=" M 0.38 -0.055 Q 0.328 0.011 0.246 0.011 Q 0.154 0.011 0.09 -0.062 Q 0.034 -0.127 0.034 -0.215 Q 0.034 -0.319 0.112 -0.387 Q 0.17500000000000002 -0.442 0.257 -0.442 Q 0.333 -0.442 0.383 -0.38 L 0.383 -0.596 Q 0.383 -0.635 0.369 -0.644 L 0.368 -0.644 Q 0.355 -0.652 0.305 -0.652 L 0.305 -0.683 L 0.449 -0.6940000000000001 L 0.449 -0.08700000000000001 Q 0.449 -0.048 0.464 -0.039 L 0.465 -0.039 Q 0.47900000000000004 -0.031 0.527 -0.031 L 0.527 0 L 0.38 0.011 L 0.38 -0.055 M 0.38 -0.323 Q 0.38 -0.343 0.371 -0.356 L 0.369 -0.36 Q 0.328 -0.42 0.261 -0.42 Q 0.191 -0.42 0.148 -0.356 Q 0.117 -0.308 0.117 -0.214 Q 0.117 -0.121 0.146 -0.075 Q 0.186 -0.011 0.251 -0.011 Q 0.323 -0.011 0.367 -0.077 L 0.369 -0.081 Q 0.38 -0.10200000000000001 0.38 -0.11800000000000001 L 0.38 -0.323 Z"/></g></g><g transform="scale(15,15)"><g transform="translate(10,6.094)"><path fill="rgb(0,102,51)" stroke="none" paint-order="stroke fill markers" d=" M 0.334 -0.302 L 0.3 -0.165 Q 0.28300000000000003 -0.097 0.28300000000000003 -0.077 Q 0.28300000000000003 -0.025 0.32 -0.014 Q 0.328 -0.011 0.338 -0.011 Q 0.388 -0.011 0.429 -0.061 Q 0.456 -0.093 0.47100000000000003 -0.14200000000000002 Q 0.47400000000000003 -0.153 0.484 -0.153 Q 0.496 -0.153 0.496 -0.14300000000000002 Q 0.496 -0.11800000000000001 0.465 -0.07100000000000001 Q 0.41100000000000003 0.011 0.336 0.011 Q 0.268 0.011 0.23700000000000002 -0.046 Q 0.231 -0.055 0.228 -0.065 Q 0.20400000000000001 -0.017 0.162 0.002 Q 0.14300000000000002 0.011 0.123 0.011 Q 0.063 0.011 0.039 -0.024 Q 0.029 -0.037 0.029 -0.055 Q 0.029 -0.092 0.061 -0.107 Q 0.07200000000000001 -0.113 0.084 -0.113 Q 0.114 -0.113 0.12 -0.088 Q 0.121 -0.083 0.121 -0.078 Q 0.121 -0.044 0.08700000000000001 -0.028 Q 0.081 -0.025 0.074 -0.024 Q 0.095 -0.011 0.124 -0.011 Q 0.177 -0.011 0.20800000000000002 -0.082 Q 0.214 -0.097 0.219 -0.115 Q 0.273 -0.319 0.273 -0.353 Q 0.267 -0.41500000000000004 0.219 -0.42 Q 0.167 -0.42 0.124 -0.367 L 0.124 -0.366 Q 0.124 -0.365 0.123 -0.365 Q 0.108 -0.34500000000000003 0.096 -0.319 Q 0.091 -0.307 0.08700000000000001 -0.295 L 0.085 -0.289 Q 0.083 -0.278 0.07200000000000001 -0.278 Q 0.06 -0.278 0.06 -0.28800000000000003 Q 0.06 -0.313 0.092 -0.36 Q 0.146 -0.442 0.221 -0.442 Q 0.298 -0.442 0.329 -0.366 Q 0.361 -0.428 0.41400000000000003 -0.44 Q 0.424 -0.442 0.434 -0.442 Q 0.493 -0.442 0.517 -0.40900000000000003 Q 0.527 -0.395 0.527 -0.376 Q 0.527 -0.335 0.49 -0.321 Q 0.481 -0.318 0.47300000000000003 -0.318 Q 0.442 -0.318 0.436 -0.34500000000000003 Q 0.435 -0.34900000000000003 0.435 -0.353 Q 0.435 -0.383 0.464 -0.4 Q 0.47300000000000003 -0.405 0.483 -0.40700000000000003 Q 0.462 -0.42 0.433 -0.42 Q 0.365 -0.42 0.337 -0.314 Q 0.335 -0.308 0.334 -0.302 Z"/></g><g transform="translate(10.905,6.094)"><path fill="rgb(0,102,51)" stroke="none" paint-order="stroke fill markers" d=" M 0.17200000000000001 -0.078 Q 0.17200000000000001 -0.047 0.184 -0.04 L 0.184 -0.04 L 0.185 -0.039 Q 0.199 -0.031 0.248 -0.031 L 0.269 -0.031 L 0.269 0 Q 0.229 -0.003 0.14200000000000002 -0.003 Q 0.145 -0.003 0.028 0 L 0.028 -0.031 Q 0.08700000000000001 -0.031 0.097 -0.04 L 0.099 -0.042 Q 0.106 -0.05 0.106 -0.076 L 0.106 -0.34400000000000003 Q 0.106 -0.383 0.091 -0.392 Q 0.079 -0.399 0.048 -0.4 L 0.028 -0.4 L 0.028 -0.431 L 0.167 -0.442 L 0.167 -0.332 Q 0.194 -0.41600000000000004 0.256 -0.437 Q 0.272 -0.442 0.29 -0.442 Q 0.337 -0.442 0.357 -0.40700000000000003 Q 0.364 -0.395 0.364 -0.381 Q 0.364 -0.34600000000000003 0.331 -0.338 Q 0.326 -0.337 0.321 -0.337 Q 0.29 -0.337 0.281 -0.364 Q 0.278 -0.371 0.278 -0.38 Q 0.278 -0.40700000000000003 0.301 -0.419 Q 0.299 -0.42 0.29 -0.42 Q 0.223 -0.42 0.191 -0.338 Q 0.17200000000000001 -0.291 0.17200000000000001 -0.232 L 0.17200000000000001 -0.078 Z"/></g><g transform="translate(11.296999999999999,6.094)"><path fill="rgb(0,102,51)" stroke="none" paint-order="stroke fill markers" d=" M 0.333 -0.076 Q 0.308 -0.014 0.245 0.005 Q 0.225 0.011 0.202 0.011 Q 0.117 0.011 0.07100000000000001 -0.03 Q 0.042 -0.056 0.042 -0.095 Q 0.042 -0.17200000000000001 0.127 -0.218 Q 0.134 -0.222 0.14200000000000002 -0.225 Q 0.203 -0.254 0.321 -0.261 L 0.326 -0.261 L 0.326 -0.298 Q 0.326 -0.383 0.265 -0.41500000000000004 Q 0.244 -0.426 0.22 -0.426 Q 0.154 -0.426 0.11800000000000001 -0.387 Q 0.115 -0.383 0.112 -0.38 Q 0.159 -0.374 0.163 -0.334 Q 0.163 -0.3 0.132 -0.29 Q 0.125 -0.28800000000000003 0.117 -0.28800000000000003 Q 0.081 -0.28800000000000003 0.073 -0.321 Q 0.07100000000000001 -0.326 0.07100000000000001 -0.335 Q 0.07100000000000001 -0.395 0.134 -0.427 Q 0.17300000000000001 -0.448 0.222 -0.448 Q 0.304 -0.448 0.359 -0.393 Q 0.394 -0.357 0.395 -0.293 L 0.395 -0.292 L 0.395 -0.275 L 0.395 -0.075 Q 0.395 -0.046 0.41300000000000003 -0.032 Q 0.421 -0.025 0.432 -0.025 Q 0.467 -0.025 0.468 -0.089 L 0.468 -0.145 L 0.493 -0.145 L 0.493 -0.089 Q 0.493 -0.016 0.433 0.002 Q 0.421 0.006 0.41100000000000003 0.006 Q 0.362 0.006 0.341 -0.046 Q 0.335 -0.06 0.333 -0.076 M 0.326 -0.24 Q 0.17200000000000001 -0.234 0.13 -0.146 Q 0.11900000000000001 -0.122 0.11900000000000001 -0.096 Q 0.11900000000000001 -0.045 0.165 -0.021 Q 0.185 -0.011 0.209 -0.011 Q 0.261 -0.011 0.296 -0.052000000000000005 Q 0.326 -0.08600000000000001 0.326 -0.14 L 0.326 -0.24 Z"/></g><g transform="translate(11.796999999999999,6.094)"><path fill="rgb(0,102,51)" stroke="none" paint-order="stroke fill markers" d=" M 0.38 -0.055 Q 0.328 0.011 0.246 0.011 Q 0.154 0.011 0.09 -0.062 Q 0.034 -0.127 0.034 -0.215 Q 0.034 -0.319 0.112 -0.387 Q 0.17500000000000002 -0.442 0.257 -0.442 Q 0.333 -0.442 0.383 -0.38 L 0.383 -0.596 Q 0.383 -0.635 0.369 -0.644 L 0.368 -0.644 Q 0.355 -0.652 0.305 -0.652 L 0.305 -0.683 L 0.449 -0.6940000000000001 L 0.449 -0.08700000000000001 Q 0.449 -0.048 0.464 -0.039 L 0.465 -0.039 Q 0.47900000000000004 -0.031 0.527 -0.031 L 0.527 0 L 0.38 0.011 L 0.38 -0.055 M 0.38 -0.323 Q 0.38 -0.343 0.371 -0.356 L 0.369 -0.36 Q 0.328 -0.42 0.261 -0.42 Q 0.191 -0.42 0.148 -0.356 Q 0.117 -0.308 0.117 -0.214 Q 0.117 -0.121 0.146 -0.075 Q 0.186 -0.011 0.251 -0.011 Q 0.323 -0.011 0.367 -0.077 L 0.369 -0.081 Q 0.38 -0.10200000000000001 0.38 -0.11800000000000001 L 0.38 -0.323 Z"/></g></g></g></g></svg>
