<svg version="1.1" xmlns="http://www.w3.org/2000/svg" xmlns:xlink="http://www.w3.org/1999/xlink" width="208" height="218"><defs><clipPath id="hzHzgNEGewGr"><path fill="none" stroke="none" d=" M 0 0 L 208 0 L 208 218 L 0 218 L 0 0 Z"/></clipPath></defs><g transform="scale(1,1)" clip-path="url(#hzHzgNEGewGr)"><g><rect fill="none" stroke="none" x="0" y="0" width="209" height="219" fill-opacity="1"/><path fill="none" stroke="rgb(0,0,0)" paint-order="fill stroke markers" d=" M 103 3 L 103 218" stroke-opacity="1" stroke-miterlimit="10" stroke-width="2"/><path fill="none" stroke="rgb(0,0,0)" paint-order="fill stroke markers" d=" M 103 2 L 99 6" stroke-opacity="1" stroke-miterlimit="10" stroke-width="2"/><path fill="none" stroke="rgb(0,0,0)" paint-order="fill stroke markers" d=" M 103 2 L 107 6" stroke-opacity="1" stroke-miterlimit="10" stroke-width="2"/><path fill="none" stroke="rgb(0,0,0)" paint-order="fill stroke markers" d=" M 0 118 L 205 118" stroke-opacity="1" stroke-miterlimit="10" stroke-width="2"/><path fill="none" stroke="rgb(0,0,0)" paint-order="fill stroke markers" d=" M 206 118 L 202 114" stroke-opacity="1" stroke-miterlimit="10" stroke-width="2"/><path fill="none" stroke="rgb(0,0,0)" paint-order="fill stroke markers" d=" M 206 118 L 202 122" stroke-opacity="1" stroke-miterlimit="10" stroke-width="2"/><path fill="none" stroke="rgb(0,0,0)" paint-order="fill stroke markers" d=" M 13 118 L 13 121" stroke-opacity="1" stroke-miterlimit="10" stroke-width="2"/><path fill="none" stroke="rgb(0,0,0)" paint-order="fill stroke markers" d=" M 103 118 L 103 121" stroke-opacity="1" stroke-miterlimit="10" stroke-width="2"/><path fill="none" stroke="rgb(0,0,0)" paint-order="fill stroke markers" d=" M 194 118 L 194 121" stroke-opacity="1" stroke-miterlimit="10" stroke-width="2"/><path fill="none" stroke="rgb(0,0,0)" paint-order="fill stroke markers" d=" M 100 209 L 103 209" stroke-opacity="1" stroke-miterlimit="10" stroke-width="2"/><path fill="none" stroke="rgb(0,0,0)" paint-order="fill stroke markers" d=" M 100 27 L 103 27" stroke-opacity="1" stroke-miterlimit="10" stroke-width="2"/><path fill="none" stroke="rgb(102,0,153)" paint-order="fill stroke markers" d=" M 194.15282624039153 117.85809884553113 C 194.15282624039153 168.01553507325656 153.49219037198813 208.6761709416599 103.33475414426265 208.6761709416599 C 53.17731791653715 208.6761709416599 12.51668204813376 168.01553507325656 12.51668204813376 117.85809884553113 C 12.51668204813376 67.70066261780569 53.17731791653715 27.040026749402344 103.33475414426265 27.040026749402344 C 153.49219037198813 27.040026749402344 194.15282624039153 67.70066261780569 194.15282624039153 117.85809884553113 Z" stroke-opacity="1" stroke-linecap="round" stroke-linejoin="round" stroke-miterlimit="10" stroke-width="3.5"/><path fill="rgb(0,102,51)" stroke="none" paint-order="stroke fill markers" d=" M 148.33475414426266 117.85809884553113 C 148.33475414426266 109.50187173003658 146.00804574434602 101.31069072159886 141.6152937305952 94.20222665744166 L 103.33475414426265 117.85809884553113 Z" fill-opacity="0.09803921568627451"/><path fill="none" stroke="rgb(0,102,51)" paint-order="fill stroke markers" d=" M 148.33475414426266 117.85809884553113 C 148.33475414426266 109.50187173003658 146.00804574434602 101.31069072159886 141.6152937305952 94.20222665744166 L 103.33475414426265 117.85809884553113 Z" stroke-opacity="1" stroke-linecap="round" stroke-linejoin="round" stroke-miterlimit="10"/><path fill="rgb(0,102,51)" stroke="none" paint-order="stroke fill markers" fill-rule="evenodd" d=" M 141.6152937305952 94.20222665744166 L 149.84136245570818 104.01837627578581 L 142.30645893967906 106.99078758718476 Z" fill-opacity="1"/><path fill="rgb(0,51,153)" stroke="none" paint-order="stroke fill markers" d=" M 133.33475414426266 117.85809884553113 C 133.33475414426266 106.97961474988277 127.44574809607569 96.95352071357858 117.9443837808792 91.65583325873705 C 108.44301946568272 86.3581458038955 96.81826693137533 86.61907180204675 87.5641726855363 92.33773912130945 L 103.33475414426265 117.85809884553113 Z" fill-opacity="0.09803921568627451"/><path fill="none" stroke="rgb(0,51,153)" paint-order="fill stroke markers" d=" M 133.33475414426266 117.85809884553113 C 133.33475414426266 106.97961474988277 127.44574809607569 96.95352071357858 117.9443837808792 91.65583325873705 C 108.44301946568272 86.3581458038955 96.81826693137533 86.61907180204675 87.5641726855363 92.33773912130945 L 103.33475414426265 117.85809884553113 Z" stroke-opacity="1" stroke-linecap="round" stroke-linejoin="round" stroke-miterlimit="10"/><path fill="rgb(0,51,153)" stroke="none" paint-order="stroke fill markers" fill-rule="evenodd" d=" M 87.5641726855363 92.33773912130945 L 98.07181156494053 85.01554510721556 L 100.36360019751604 92.78456723767687 Z" fill-opacity="1"/><path fill="rgb(0,100,0)" stroke="none" paint-order="stroke fill markers" fill-rule="evenodd" d=" M 103.33475414426265 117.85809884553113 L 115.36516709047332 110.42377545038482 L 107.9308436953273 98.39336250417286 L 95.90043074911632 105.82768589932047 L 103.33475414426265 117.85809884553113" fill-opacity="0.09803921568627451"/><path fill="none" stroke="rgb(0,100,0)" paint-order="fill stroke markers" d=" M 103.33475414426265 117.85809884553113 L 115.36516709047332 110.42377545038482 L 107.9308436953273 98.39336250417286 L 95.90043074911632 105.82768589932047 L 103.33475414426265 117.85809884553113" stroke-opacity="1" stroke-linecap="round" stroke-linejoin="round" stroke-miterlimit="10" stroke-width="2"/><path fill="none" stroke="rgb(0,102,51)" paint-order="fill stroke markers" d=" M 103.33475414426265 117.85809884553113 L 180.59174978937966 70.11630538164846" stroke-opacity="1" stroke-linecap="round" stroke-linejoin="round" stroke-miterlimit="10"/><path fill="none" stroke="rgb(0,51,153)" paint-order="fill stroke markers" d=" M 103.33475414426265 117.85809884553113 L 55.59296068037992 40.6011032004142" stroke-opacity="1" stroke-linecap="round" stroke-linejoin="round" stroke-miterlimit="10"/><path fill="none" stroke="rgb(51,51,51)" paint-order="fill stroke markers" d=" M 100.33475414426265 114.85809884553113 L 106.33475414426265 120.85809884553113" stroke-opacity="1" stroke-linecap="square" stroke-miterlimit="10" stroke-width="1.5"/><path fill="none" stroke="rgb(51,51,51)" paint-order="fill stroke markers" d=" M 100.33475414426265 120.85809884553113 L 106.33475414426265 114.85809884553113" stroke-opacity="1" stroke-linecap="square" stroke-miterlimit="10" stroke-width="1.5"/><text fill="rgb(51,51,51)" stroke="none" font-family="geogebra-sans-serif, sans-serif" font-size="12px" font-style="normal" font-weight="normal" text-decoration="normal" x="90" y="132" text-anchor="start" dominant-baseline="alphabetic" fill-opacity="1">O</text><text fill="none" stroke="rgb(255,255,255)" font-family="geogebra-sans-serif, sans-serif" font-size="12px" font-style="normal" font-weight="normal" text-decoration="normal" x="90" y="132" text-anchor="start" dominant-baseline="alphabetic" stroke-opacity="1" stroke-linejoin="bevel" stroke-miterlimit="10" stroke-width="3">O</text><text fill="rgb(51,51,51)" stroke="none" font-family="geogebra-sans-serif, sans-serif" font-size="12px" font-style="normal" font-weight="normal" text-decoration="normal" x="90" y="132" text-anchor="start" dominant-baseline="alphabetic" fill-opacity="1">O</text><path fill="none" stroke="rgb(51,51,51)" paint-order="fill stroke markers" d=" M 191.15282624039153 114.85809884553113 L 197.15282624039153 120.85809884553113" stroke-opacity="1" stroke-linecap="square" stroke-miterlimit="10" stroke-width="1.5"/><path fill="none" stroke="rgb(51,51,51)" paint-order="fill stroke markers" d=" M 191.15282624039153 120.85809884553113 L 197.15282624039153 114.85809884553113" stroke-opacity="1" stroke-linecap="square" stroke-miterlimit="10" stroke-width="1.5"/><text fill="rgb(51,51,51)" stroke="none" font-family="geogebra-sans-serif, sans-serif" font-size="12px" font-style="normal" font-weight="normal" text-decoration="normal" x="196" y="133" text-anchor="start" dominant-baseline="alphabetic" fill-opacity="1">I</text><text fill="none" stroke="rgb(255,255,255)" font-family="geogebra-sans-serif, sans-serif" font-size="12px" font-style="normal" font-weight="normal" text-decoration="normal" x="196" y="133" text-anchor="start" dominant-baseline="alphabetic" stroke-opacity="1" stroke-linejoin="bevel" stroke-miterlimit="10" stroke-width="3">I</text><text fill="rgb(51,51,51)" stroke="none" font-family="geogebra-sans-serif, sans-serif" font-size="12px" font-style="normal" font-weight="normal" text-decoration="normal" x="196" y="133" text-anchor="start" dominant-baseline="alphabetic" fill-opacity="1">I</text><path fill="none" stroke="rgb(0,102,51)" paint-order="fill stroke markers" d=" M 180.59174978937966 67.11630538164846 L 180.59174978937966 73.11630538164846" stroke-opacity="1" stroke-linecap="square" stroke-miterlimit="10" stroke-width="1.5"/><path fill="none" stroke="rgb(0,102,51)" paint-order="fill stroke markers" d=" M 177.59174978937966 70.11630538164846 L 183.59174978937966 70.11630538164846" stroke-opacity="1" stroke-linecap="square" stroke-miterlimit="10" stroke-width="1.5"/><text fill="rgb(0,102,51)" stroke="none" font-family="geogebra-sans-serif, sans-serif" font-size="12px" font-style="normal" font-weight="normal" text-decoration="normal" x="185" y="64" text-anchor="start" dominant-baseline="alphabetic" fill-opacity="1">M</text><text fill="none" stroke="rgb(255,255,255)" font-family="geogebra-sans-serif, sans-serif" font-size="12px" font-style="normal" font-weight="normal" text-decoration="normal" x="185" y="64" text-anchor="start" dominant-baseline="alphabetic" stroke-opacity="1" stroke-linejoin="bevel" stroke-miterlimit="10" stroke-width="3">M</text><text fill="rgb(0,102,51)" stroke="none" font-family="geogebra-sans-serif, sans-serif" font-size="12px" font-style="normal" font-weight="normal" text-decoration="normal" x="185" y="64" text-anchor="start" dominant-baseline="alphabetic" fill-opacity="1">M</text><path fill="none" stroke="rgb(51,51,51)" paint-order="fill stroke markers" d=" M 100.33475414426265 24.040026749402344 L 106.33475414426265 30.040026749402344" stroke-opacity="1" stroke-linecap="square" stroke-miterlimit="10" stroke-width="1.5"/><path fill="none" stroke="rgb(51,51,51)" paint-order="fill stroke markers" d=" M 100.33475414426265 30.040026749402344 L 106.33475414426265 24.040026749402344" stroke-opacity="1" stroke-linecap="square" stroke-miterlimit="10" stroke-width="1.5"/><text fill="rgb(51,51,51)" stroke="none" font-family="geogebra-sans-serif, sans-serif" font-size="12px" font-style="normal" font-weight="normal" text-decoration="normal" x="96" y="43" text-anchor="start" dominant-baseline="alphabetic" fill-opacity="1">J</text><text fill="none" stroke="rgb(255,255,255)" font-family="geogebra-sans-serif, sans-serif" font-size="12px" font-style="normal" font-weight="normal" text-decoration="normal" x="96" y="43" text-anchor="start" dominant-baseline="alphabetic" stroke-opacity="1" stroke-linejoin="bevel" stroke-miterlimit="10" stroke-width="3">J</text><text fill="rgb(51,51,51)" stroke="none" font-family="geogebra-sans-serif, sans-serif" font-size="12px" font-style="normal" font-weight="normal" text-decoration="normal" x="96" y="43" text-anchor="start" dominant-baseline="alphabetic" fill-opacity="1">J</text><path fill="none" stroke="rgb(0,51,153)" paint-order="fill stroke markers" d=" M 55.59296068037992 37.6011032004142 L 55.59296068037992 43.6011032004142" stroke-opacity="1" stroke-linecap="square" stroke-miterlimit="10" stroke-width="1.5"/><path fill="none" stroke="rgb(0,51,153)" paint-order="fill stroke markers" d=" M 52.59296068037992 40.6011032004142 L 58.59296068037992 40.6011032004142" stroke-opacity="1" stroke-linecap="square" stroke-miterlimit="10" stroke-width="1.5"/><text fill="rgb(0,51,153)" stroke="none" font-family="geogebra-sans-serif, sans-serif" font-size="12px" font-style="normal" font-weight="normal" text-decoration="normal" x="53" y="27" text-anchor="start" dominant-baseline="alphabetic" fill-opacity="1">M'</text><text fill="none" stroke="rgb(255,255,255)" font-family="geogebra-sans-serif, sans-serif" font-size="12px" font-style="normal" font-weight="normal" text-decoration="normal" x="53" y="27" text-anchor="start" dominant-baseline="alphabetic" stroke-opacity="1" stroke-linejoin="bevel" stroke-miterlimit="10" stroke-width="3">M'</text><text fill="rgb(0,51,153)" stroke="none" font-family="geogebra-sans-serif, sans-serif" font-size="12px" font-style="normal" font-weight="normal" text-decoration="normal" x="53" y="27" text-anchor="start" dominant-baseline="alphabetic" fill-opacity="1">M'</text><g transform="scale(15,15)"><g transform="translate(4.079701120792,4.564333333333334)"><path fill="rgb(0,51,153)" stroke="none" paint-order="stroke fill markers" d=" M 0.265 -0.373 L 0.265 -0.373 L 0.209 -0.152 Q 0.192 -0.088 0.182 -0.054 Q 0.166 -0.005 0.152 0.005 L 0.152 0.006 Q 0.14300000000000002 0.011 0.132 0.011 Q 0.109 0.011 0.10400000000000001 -0.009000000000000001 Q 0.10300000000000001 -0.012 0.10300000000000001 -0.016 Q 0.10300000000000001 -0.025 0.111 -0.04 Q 0.20500000000000002 -0.243 0.23900000000000002 -0.373 L 0.182 -0.373 Q 0.10400000000000001 -0.373 0.055 -0.296 Q 0.046 -0.28400000000000003 0.039 -0.28400000000000003 Q 0.027 -0.28400000000000003 0.027 -0.294 Q 0.027 -0.305 0.063 -0.354 Q 0.07 -0.362 0.076 -0.37 Q 0.079 -0.374 0.083 -0.378 Q 0.085 -0.381 0.088 -0.384 Q 0.132 -0.431 0.192 -0.431 L 0.527 -0.431 Q 0.561 -0.431 0.5660000000000001 -0.41600000000000004 L 0.5660000000000001 -0.41500000000000004 Q 0.5670000000000001 -0.41200000000000003 0.5670000000000001 -0.40700000000000003 Q 0.5670000000000001 -0.373 0.518 -0.373 L 0.404 -0.373 Q 0.386 -0.28800000000000003 0.386 -0.214 Q 0.386 -0.121 0.41500000000000004 -0.049 Q 0.421 -0.035 0.421 -0.027 Q 0.421 -0.004 0.396 0.007 Q 0.388 0.011 0.38 0.011 Q 0.36 0.011 0.35000000000000003 -0.017 Q 0.34700000000000003 -0.026000000000000002 0.34400000000000003 -0.039 Q 0.336 -0.073 0.336 -0.115 Q 0.336 -0.181 0.363 -0.306 L 0.378 -0.373 L 0.265 -0.373 Z"/></g><rect fill="rgb(0,51,153)" stroke="none" x="4.079701120792" y="4.970841833333334" width="0.606" height="0.039999"/><g transform="translate(4.132701120792,5.926792333333334)"><path fill="rgb(0,51,153)" stroke="none" paint-order="stroke fill markers" d=" M 0.449 -0.17400000000000002 L 0.449 -0.17400000000000002 L 0.421 0 L 0.05 0 Q 0.05 -0.025 0.056 -0.032 L 0.061 -0.037 L 0.253 -0.251 Q 0.358 -0.369 0.358 -0.47200000000000003 Q 0.358 -0.561 0.304 -0.607 L 0.303 -0.608 L 0.302 -0.608 Q 0.27 -0.635 0.224 -0.635 Q 0.152 -0.635 0.109 -0.5730000000000001 Q 0.097 -0.555 0.089 -0.533 Q 0.092 -0.534 0.10200000000000001 -0.534 Q 0.14200000000000002 -0.534 0.153 -0.498 L 0.153 -0.497 Q 0.155 -0.49 0.155 -0.482 Q 0.155 -0.442 0.117 -0.431 Q 0.109 -0.429 0.10300000000000001 -0.429 Q 0.066 -0.429 0.054 -0.46 Q 0.05 -0.47100000000000003 0.05 -0.485 Q 0.05 -0.562 0.109 -0.617 Q 0.162 -0.666 0.23700000000000002 -0.666 Q 0.34700000000000003 -0.666 0.40800000000000003 -0.592 Q 0.443 -0.549 0.448 -0.49 Q 0.449 -0.481 0.449 -0.47200000000000003 Q 0.449 -0.399 0.394 -0.333 Q 0.365 -0.299 0.304 -0.243 L 0.243 -0.189 L 0.233 -0.18 L 0.127 -0.077 L 0.307 -0.077 Q 0.395 -0.077 0.402 -0.085 Q 0.41200000000000003 -0.099 0.424 -0.17400000000000002 L 0.449 -0.17400000000000002 Z"/></g><g transform="translate(4.987624463806222,5.240841333333334)"><path fill="rgb(0,51,153)" stroke="none" paint-order="stroke fill markers" d=" M 0.40900000000000003 -0.23 L 0.40900000000000003 0.05 Q 0.40900000000000003 0.082 0.389 0.083 Q 0.369 0.083 0.369 0.05 L 0.369 -0.23 L 0.089 -0.23 Q 0.057 -0.23 0.056 -0.25 Q 0.056 -0.27 0.089 -0.27 L 0.369 -0.27 L 0.369 -0.55 Q 0.369 -0.582 0.389 -0.583 Q 0.40900000000000003 -0.583 0.40900000000000003 -0.55 L 0.40900000000000003 -0.27 L 0.6880000000000001 -0.27 Q 0.72 -0.27 0.721 -0.25 Q 0.721 -0.23 0.6880000000000001 -0.23 L 0.40900000000000003 -0.23 Z"/></g><g transform="translate(5.987846686028445,5.240841333333334)"><path fill="rgb(0,51,153)" stroke="none" paint-order="stroke fill markers" d=" M 0.334 -0.302 L 0.3 -0.165 Q 0.28300000000000003 -0.097 0.28300000000000003 -0.077 Q 0.28300000000000003 -0.025 0.32 -0.014 Q 0.328 -0.011 0.338 -0.011 Q 0.388 -0.011 0.429 -0.061 Q 0.456 -0.093 0.47100000000000003 -0.14200000000000002 Q 0.47400000000000003 -0.153 0.484 -0.153 Q 0.496 -0.153 0.496 -0.14300000000000002 Q 0.496 -0.11800000000000001 0.465 -0.07100000000000001 Q 0.41100000000000003 0.011 0.336 0.011 Q 0.268 0.011 0.23700000000000002 -0.046 Q 0.231 -0.055 0.228 -0.065 Q 0.20400000000000001 -0.017 0.162 0.002 Q 0.14300000000000002 0.011 0.123 0.011 Q 0.063 0.011 0.039 -0.024 Q 0.029 -0.037 0.029 -0.055 Q 0.029 -0.092 0.061 -0.107 Q 0.07200000000000001 -0.113 0.084 -0.113 Q 0.114 -0.113 0.12 -0.088 Q 0.121 -0.083 0.121 -0.078 Q 0.121 -0.044 0.08700000000000001 -0.028 Q 0.081 -0.025 0.074 -0.024 Q 0.095 -0.011 0.124 -0.011 Q 0.177 -0.011 0.20800000000000002 -0.082 Q 0.214 -0.097 0.219 -0.115 Q 0.273 -0.319 0.273 -0.353 Q 0.267 -0.41500000000000004 0.219 -0.42 Q 0.167 -0.42 0.124 -0.367 L 0.124 -0.366 Q 0.124 -0.365 0.123 -0.365 Q 0.108 -0.34500000000000003 0.096 -0.319 Q 0.091 -0.307 0.08700000000000001 -0.295 L 0.085 -0.289 Q 0.083 -0.278 0.07200000000000001 -0.278 Q 0.06 -0.278 0.06 -0.28800000000000003 Q 0.06 -0.313 0.092 -0.36 Q 0.146 -0.442 0.221 -0.442 Q 0.298 -0.442 0.329 -0.366 Q 0.361 -0.428 0.41400000000000003 -0.44 Q 0.424 -0.442 0.434 -0.442 Q 0.493 -0.442 0.517 -0.40900000000000003 Q 0.527 -0.395 0.527 -0.376 Q 0.527 -0.335 0.49 -0.321 Q 0.481 -0.318 0.47300000000000003 -0.318 Q 0.442 -0.318 0.436 -0.34500000000000003 Q 0.435 -0.34900000000000003 0.435 -0.353 Q 0.435 -0.383 0.464 -0.4 Q 0.47300000000000003 -0.405 0.483 -0.40700000000000003 Q 0.462 -0.42 0.433 -0.42 Q 0.365 -0.42 0.337 -0.314 Q 0.335 -0.308 0.334 -0.302 Z"/></g><g transform="translate(6.892846686028445,5.240841333333334)"><path fill="rgb(0,51,153)" stroke="none" paint-order="stroke fill markers" d=" M 0.17200000000000001 -0.078 Q 0.17200000000000001 -0.047 0.184 -0.04 L 0.184 -0.04 L 0.185 -0.039 Q 0.199 -0.031 0.248 -0.031 L 0.269 -0.031 L 0.269 0 Q 0.229 -0.003 0.14200000000000002 -0.003 Q 0.145 -0.003 0.028 0 L 0.028 -0.031 Q 0.08700000000000001 -0.031 0.097 -0.04 L 0.099 -0.042 Q 0.106 -0.05 0.106 -0.076 L 0.106 -0.34400000000000003 Q 0.106 -0.383 0.091 -0.392 Q 0.079 -0.399 0.048 -0.4 L 0.028 -0.4 L 0.028 -0.431 L 0.167 -0.442 L 0.167 -0.332 Q 0.194 -0.41600000000000004 0.256 -0.437 Q 0.272 -0.442 0.29 -0.442 Q 0.337 -0.442 0.357 -0.40700000000000003 Q 0.364 -0.395 0.364 -0.381 Q 0.364 -0.34600000000000003 0.331 -0.338 Q 0.326 -0.337 0.321 -0.337 Q 0.29 -0.337 0.281 -0.364 Q 0.278 -0.371 0.278 -0.38 Q 0.278 -0.40700000000000003 0.301 -0.419 Q 0.299 -0.42 0.29 -0.42 Q 0.223 -0.42 0.191 -0.338 Q 0.17200000000000001 -0.291 0.17200000000000001 -0.232 L 0.17200000000000001 -0.078 Z"/></g><g transform="translate(7.2848466860284455,5.240841333333334)"><path fill="rgb(0,51,153)" stroke="none" paint-order="stroke fill markers" d=" M 0.333 -0.076 Q 0.308 -0.014 0.245 0.005 Q 0.225 0.011 0.202 0.011 Q 0.117 0.011 0.07100000000000001 -0.03 Q 0.042 -0.056 0.042 -0.095 Q 0.042 -0.17200000000000001 0.127 -0.218 Q 0.134 -0.222 0.14200000000000002 -0.225 Q 0.203 -0.254 0.321 -0.261 L 0.326 -0.261 L 0.326 -0.298 Q 0.326 -0.383 0.265 -0.41500000000000004 Q 0.244 -0.426 0.22 -0.426 Q 0.154 -0.426 0.11800000000000001 -0.387 Q 0.115 -0.383 0.112 -0.38 Q 0.159 -0.374 0.163 -0.334 Q 0.163 -0.3 0.132 -0.29 Q 0.125 -0.28800000000000003 0.117 -0.28800000000000003 Q 0.081 -0.28800000000000003 0.073 -0.321 Q 0.07100000000000001 -0.326 0.07100000000000001 -0.335 Q 0.07100000000000001 -0.395 0.134 -0.427 Q 0.17300000000000001 -0.448 0.222 -0.448 Q 0.304 -0.448 0.359 -0.393 Q 0.394 -0.357 0.395 -0.293 L 0.395 -0.292 L 0.395 -0.275 L 0.395 -0.075 Q 0.395 -0.046 0.41300000000000003 -0.032 Q 0.421 -0.025 0.432 -0.025 Q 0.467 -0.025 0.468 -0.089 L 0.468 -0.145 L 0.493 -0.145 L 0.493 -0.089 Q 0.493 -0.016 0.433 0.002 Q 0.421 0.006 0.41100000000000003 0.006 Q 0.362 0.006 0.341 -0.046 Q 0.335 -0.06 0.333 -0.076 M 0.326 -0.24 Q 0.17200000000000001 -0.234 0.13 -0.146 Q 0.11900000000000001 -0.122 0.11900000000000001 -0.096 Q 0.11900000000000001 -0.045 0.165 -0.021 Q 0.185 -0.011 0.209 -0.011 Q 0.261 -0.011 0.296 -0.052000000000000005 Q 0.326 -0.08600000000000001 0.326 -0.14 L 0.326 -0.24 Z"/></g><g transform="translate(7.7848466860284455,5.240841333333334)"><path fill="rgb(0,51,153)" stroke="none" paint-order="stroke fill markers" d=" M 0.38 -0.055 Q 0.328 0.011 0.246 0.011 Q 0.154 0.011 0.09 -0.062 Q 0.034 -0.127 0.034 -0.215 Q 0.034 -0.319 0.112 -0.387 Q 0.17500000000000002 -0.442 0.257 -0.442 Q 0.333 -0.442 0.383 -0.38 L 0.383 -0.596 Q 0.383 -0.635 0.369 -0.644 L 0.368 -0.644 Q 0.355 -0.652 0.305 -0.652 L 0.305 -0.683 L 0.449 -0.6940000000000001 L 0.449 -0.08700000000000001 Q 0.449 -0.048 0.464 -0.039 L 0.465 -0.039 Q 0.47900000000000004 -0.031 0.527 -0.031 L 0.527 0 L 0.38 0.011 L 0.38 -0.055 M 0.38 -0.323 Q 0.38 -0.343 0.371 -0.356 L 0.369 -0.36 Q 0.328 -0.42 0.261 -0.42 Q 0.191 -0.42 0.148 -0.356 Q 0.117 -0.308 0.117 -0.214 Q 0.117 -0.121 0.146 -0.075 Q 0.186 -0.011 0.251 -0.011 Q 0.323 -0.011 0.367 -0.077 L 0.369 -0.081 Q 0.38 -0.10200000000000001 0.38 -0.11800000000000001 L 0.38 -0.323 Z"/></g></g><g transform="scale(15,15)"><g transform="translate(10.066666666666666,6.894)"><path fill="rgb(0,102,51)" stroke="none" paint-order="stroke fill markers" d=" M 0.334 -0.302 L 0.3 -0.165 Q 0.28300000000000003 -0.097 0.28300000000000003 -0.077 Q 0.28300000000000003 -0.025 0.32 -0.014 Q 0.328 -0.011 0.338 -0.011 Q 0.388 -0.011 0.429 -0.061 Q 0.456 -0.093 0.47100000000000003 -0.14200000000000002 Q 0.47400000000000003 -0.153 0.484 -0.153 Q 0.496 -0.153 0.496 -0.14300000000000002 Q 0.496 -0.11800000000000001 0.465 -0.07100000000000001 Q 0.41100000000000003 0.011 0.336 0.011 Q 0.268 0.011 0.23700000000000002 -0.046 Q 0.231 -0.055 0.228 -0.065 Q 0.20400000000000001 -0.017 0.162 0.002 Q 0.14300000000000002 0.011 0.123 0.011 Q 0.063 0.011 0.039 -0.024 Q 0.029 -0.037 0.029 -0.055 Q 0.029 -0.092 0.061 -0.107 Q 0.07200000000000001 -0.113 0.084 -0.113 Q 0.114 -0.113 0.12 -0.088 Q 0.121 -0.083 0.121 -0.078 Q 0.121 -0.044 0.08700000000000001 -0.028 Q 0.081 -0.025 0.074 -0.024 Q 0.095 -0.011 0.124 -0.011 Q 0.177 -0.011 0.20800000000000002 -0.082 Q 0.214 -0.097 0.219 -0.115 Q 0.273 -0.319 0.273 -0.353 Q 0.267 -0.41500000000000004 0.219 -0.42 Q 0.167 -0.42 0.124 -0.367 L 0.124 -0.366 Q 0.124 -0.365 0.123 -0.365 Q 0.108 -0.34500000000000003 0.096 -0.319 Q 0.091 -0.307 0.08700000000000001 -0.295 L 0.085 -0.289 Q 0.083 -0.278 0.07200000000000001 -0.278 Q 0.06 -0.278 0.06 -0.28800000000000003 Q 0.06 -0.313 0.092 -0.36 Q 0.146 -0.442 0.221 -0.442 Q 0.298 -0.442 0.329 -0.366 Q 0.361 -0.428 0.41400000000000003 -0.44 Q 0.424 -0.442 0.434 -0.442 Q 0.493 -0.442 0.517 -0.40900000000000003 Q 0.527 -0.395 0.527 -0.376 Q 0.527 -0.335 0.49 -0.321 Q 0.481 -0.318 0.47300000000000003 -0.318 Q 0.442 -0.318 0.436 -0.34500000000000003 Q 0.435 -0.34900000000000003 0.435 -0.353 Q 0.435 -0.383 0.464 -0.4 Q 0.47300000000000003 -0.405 0.483 -0.40700000000000003 Q 0.462 -0.42 0.433 -0.42 Q 0.365 -0.42 0.337 -0.314 Q 0.335 -0.308 0.334 -0.302 Z"/></g><g transform="translate(10.971666666666666,6.894)"><path fill="rgb(0,102,51)" stroke="none" paint-order="stroke fill markers" d=" M 0.17200000000000001 -0.078 Q 0.17200000000000001 -0.047 0.184 -0.04 L 0.184 -0.04 L 0.185 -0.039 Q 0.199 -0.031 0.248 -0.031 L 0.269 -0.031 L 0.269 0 Q 0.229 -0.003 0.14200000000000002 -0.003 Q 0.145 -0.003 0.028 0 L 0.028 -0.031 Q 0.08700000000000001 -0.031 0.097 -0.04 L 0.099 -0.042 Q 0.106 -0.05 0.106 -0.076 L 0.106 -0.34400000000000003 Q 0.106 -0.383 0.091 -0.392 Q 0.079 -0.399 0.048 -0.4 L 0.028 -0.4 L 0.028 -0.431 L 0.167 -0.442 L 0.167 -0.332 Q 0.194 -0.41600000000000004 0.256 -0.437 Q 0.272 -0.442 0.29 -0.442 Q 0.337 -0.442 0.357 -0.40700000000000003 Q 0.364 -0.395 0.364 -0.381 Q 0.364 -0.34600000000000003 0.331 -0.338 Q 0.326 -0.337 0.321 -0.337 Q 0.29 -0.337 0.281 -0.364 Q 0.278 -0.371 0.278 -0.38 Q 0.278 -0.40700000000000003 0.301 -0.419 Q 0.299 -0.42 0.29 -0.42 Q 0.223 -0.42 0.191 -0.338 Q 0.17200000000000001 -0.291 0.17200000000000001 -0.232 L 0.17200000000000001 -0.078 Z"/></g><g transform="translate(11.363666666666665,6.894)"><path fill="rgb(0,102,51)" stroke="none" paint-order="stroke fill markers" d=" M 0.333 -0.076 Q 0.308 -0.014 0.245 0.005 Q 0.225 0.011 0.202 0.011 Q 0.117 0.011 0.07100000000000001 -0.03 Q 0.042 -0.056 0.042 -0.095 Q 0.042 -0.17200000000000001 0.127 -0.218 Q 0.134 -0.222 0.14200000000000002 -0.225 Q 0.203 -0.254 0.321 -0.261 L 0.326 -0.261 L 0.326 -0.298 Q 0.326 -0.383 0.265 -0.41500000000000004 Q 0.244 -0.426 0.22 -0.426 Q 0.154 -0.426 0.11800000000000001 -0.387 Q 0.115 -0.383 0.112 -0.38 Q 0.159 -0.374 0.163 -0.334 Q 0.163 -0.3 0.132 -0.29 Q 0.125 -0.28800000000000003 0.117 -0.28800000000000003 Q 0.081 -0.28800000000000003 0.073 -0.321 Q 0.07100000000000001 -0.326 0.07100000000000001 -0.335 Q 0.07100000000000001 -0.395 0.134 -0.427 Q 0.17300000000000001 -0.448 0.222 -0.448 Q 0.304 -0.448 0.359 -0.393 Q 0.394 -0.357 0.395 -0.293 L 0.395 -0.292 L 0.395 -0.275 L 0.395 -0.075 Q 0.395 -0.046 0.41300000000000003 -0.032 Q 0.421 -0.025 0.432 -0.025 Q 0.467 -0.025 0.468 -0.089 L 0.468 -0.145 L 0.493 -0.145 L 0.493 -0.089 Q 0.493 -0.016 0.433 0.002 Q 0.421 0.006 0.41100000000000003 0.006 Q 0.362 0.006 0.341 -0.046 Q 0.335 -0.06 0.333 -0.076 M 0.326 -0.24 Q 0.17200000000000001 -0.234 0.13 -0.146 Q 0.11900000000000001 -0.122 0.11900000000000001 -0.096 Q 0.11900000000000001 -0.045 0.165 -0.021 Q 0.185 -0.011 0.209 -0.011 Q 0.261 -0.011 0.296 -0.052000000000000005 Q 0.326 -0.08600000000000001 0.326 -0.14 L 0.326 -0.24 Z"/></g><g transform="translate(11.863666666666665,6.894)"><path fill="rgb(0,102,51)" stroke="none" paint-order="stroke fill markers" d=" M 0.38 -0.055 Q 0.328 0.011 0.246 0.011 Q 0.154 0.011 0.09 -0.062 Q 0.034 -0.127 0.034 -0.215 Q 0.034 -0.319 0.112 -0.387 Q 0.17500000000000002 -0.442 0.257 -0.442 Q 0.333 -0.442 0.383 -0.38 L 0.383 -0.596 Q 0.383 -0.635 0.369 -0.644 L 0.368 -0.644 Q 0.355 -0.652 0.305 -0.652 L 0.305 -0.683 L 0.449 -0.6940000000000001 L 0.449 -0.08700000000000001 Q 0.449 -0.048 0.464 -0.039 L 0.465 -0.039 Q 0.47900000000000004 -0.031 0.527 -0.031 L 0.527 0 L 0.38 0.011 L 0.38 -0.055 M 0.38 -0.323 Q 0.38 -0.343 0.371 -0.356 L 0.369 -0.36 Q 0.328 -0.42 0.261 -0.42 Q 0.191 -0.42 0.148 -0.356 Q 0.117 -0.308 0.117 -0.214 Q 0.117 -0.121 0.146 -0.075 Q 0.186 -0.011 0.251 -0.011 Q 0.323 -0.011 0.367 -0.077 L 0.369 -0.081 Q 0.38 -0.10200000000000001 0.38 -0.11800000000000001 L 0.38 -0.323 Z"/></g></g></g></g></svg>
