<svg version="1.1" xmlns="http://www.w3.org/2000/svg" xmlns:xlink="http://www.w3.org/1999/xlink" width="451" height="176"><defs><clipPath id="iTJgmrWWSJGB"><path fill="none" stroke="none" d=" M 0 0 L 451 0 L 451 176 L 0 176 L 0 0 Z"/></clipPath></defs><g transform="scale(1,1)" clip-path="url(#iTJgmrWWSJGB)"><g><rect fill="none" stroke="none" x="0" y="0" width="452" height="177" fill-opacity="1"/><path fill="none" stroke="rgb(0,0,0)" paint-order="fill stroke markers" d=" M 124 3 L 124 176" stroke-opacity="1" stroke-miterlimit="10" stroke-width="2"/><path fill="none" stroke="rgb(0,0,0)" paint-order="fill stroke markers" d=" M 124 2 L 120 6" stroke-opacity="1" stroke-miterlimit="10" stroke-width="2"/><path fill="none" stroke="rgb(0,0,0)" paint-order="fill stroke markers" d=" M 124 2 L 128 6" stroke-opacity="1" stroke-miterlimit="10" stroke-width="2"/><path fill="none" stroke="rgb(0,0,0)" paint-order="fill stroke markers" d=" M 0 153 L 448 153" stroke-opacity="1" stroke-miterlimit="10" stroke-width="2"/><path fill="none" stroke="rgb(0,0,0)" paint-order="fill stroke markers" d=" M 449 153 L 445 149" stroke-opacity="1" stroke-miterlimit="10" stroke-width="2"/><path fill="none" stroke="rgb(0,0,0)" paint-order="fill stroke markers" d=" M 449 153 L 445 157" stroke-opacity="1" stroke-miterlimit="10" stroke-width="2"/><path fill="none" stroke="rgb(0,0,0)" paint-order="fill stroke markers" d=" M 19 153 L 19 156" stroke-opacity="1" stroke-miterlimit="10" stroke-width="2"/><path fill="none" stroke="rgb(0,0,0)" paint-order="fill stroke markers" d=" M 71 153 L 71 156" stroke-opacity="1" stroke-miterlimit="10" stroke-width="2"/><path fill="none" stroke="rgb(0,0,0)" paint-order="fill stroke markers" d=" M 124 153 L 124 156" stroke-opacity="1" stroke-miterlimit="10" stroke-width="2"/><path fill="none" stroke="rgb(0,0,0)" paint-order="fill stroke markers" d=" M 176 153 L 176 156" stroke-opacity="1" stroke-miterlimit="10" stroke-width="2"/><path fill="none" stroke="rgb(0,0,0)" paint-order="fill stroke markers" d=" M 228 153 L 228 156" stroke-opacity="1" stroke-miterlimit="10" stroke-width="2"/><path fill="none" stroke="rgb(0,0,0)" paint-order="fill stroke markers" d=" M 281 153 L 281 156" stroke-opacity="1" stroke-miterlimit="10" stroke-width="2"/><path fill="none" stroke="rgb(0,0,0)" paint-order="fill stroke markers" d=" M 333 153 L 333 156" stroke-opacity="1" stroke-miterlimit="10" stroke-width="2"/><path fill="none" stroke="rgb(0,0,0)" paint-order="fill stroke markers" d=" M 386 153 L 386 156" stroke-opacity="1" stroke-miterlimit="10" stroke-width="2"/><path fill="none" stroke="rgb(0,0,0)" paint-order="fill stroke markers" d=" M 438 153 L 438 156" stroke-opacity="1" stroke-miterlimit="10" stroke-width="2"/><path fill="none" stroke="rgb(0,0,0)" paint-order="fill stroke markers" d=" M 121 100 L 124 100" stroke-opacity="1" stroke-miterlimit="10" stroke-width="2"/><path fill="none" stroke="rgb(0,0,0)" paint-order="fill stroke markers" d=" M 121 48 L 124 48" stroke-opacity="1" stroke-miterlimit="10" stroke-width="2"/><path fill="none" stroke="rgb(153,102,0)" paint-order="fill stroke markers" d=" M -5 100.41019240490303 L 457 100.41019240490303" stroke-opacity="1" stroke-linejoin="round" stroke-miterlimit="10" stroke-dasharray="5,4"/><path fill="none" stroke="rgb(153,102,0)" paint-order="fill stroke markers" d=" M 228.44528078877033 182 L 228.44528078877033 -5" stroke-opacity="1" stroke-linejoin="round" stroke-miterlimit="10" stroke-dasharray="5,4"/><path fill="none" stroke="rgb(153,102,0)" paint-order="fill stroke markers" d=" M 333.35307014301077 182 L 333.35307014301077 -5" stroke-opacity="1" stroke-linejoin="round" stroke-miterlimit="10" stroke-dasharray="5,4"/><path fill="none" stroke="rgb(153,102,0)" paint-order="fill stroke markers" d=" M -5 47.9562977277828 L 457 47.9562977277828" stroke-opacity="1" stroke-linejoin="round" stroke-miterlimit="10" stroke-dasharray="5,4"/><path fill="rgb(102,0,153)" stroke="none" paint-order="stroke fill markers" d=" M 333.35307014301077 47.9562977277828 L 315.2409195252624 51.98122008728242 L 316.58256031176234 54.66450166028218 L 227.7744603955204 99.06855161840315 C 227.03349264938552 99.43903549147058 226.73315612920302 100.34004505201808 227.10364000227045 101.08101279815295 C 227.3664483306107 101.60662945483347 227.8962165694906 101.91052098973908 228.44644547951793 101.91052098973908 C 228.67188048755594 101.91052098973908 228.9007500925659 101.85950873613008 229.11610118202026 101.75183319140291 L 317.9242010982622 57.347783233281916 L 319.2658418847621 60.03106480628166 L 333.35307014301077 47.9562977277828 Z" fill-opacity="1"/><path fill="rgb(0,51,153)" stroke="none" paint-order="stroke fill markers" d=" M 314.35307014301077 148.11408708202325 L 314.35307014301077 151.11408708202325 L 228.44528078877033 151.11408708202325 C 227.47878247656644 151.11408708202325 226.69528078877033 151.89758876981935 226.69528078877033 152.86408708202325 C 226.69528078877033 153.83058539422714 227.47878247656644 154.61408708202325 228.44528078877033 154.61408708202325 L 314.35307014301077 154.61408708202325 L 314.35307014301077 157.61408708202325 L 333.35307014301077 152.86408708202325 L 314.35307014301077 148.11408708202325 Z" fill-opacity="1"/><path fill="rgb(0,51,153)" stroke="none" paint-order="stroke fill markers" d=" M 123.53749143452985 47.9562977277828 L 118.78749143452985 66.9562977277828 L 121.78749143452985 66.9562977277828 L 121.78749143452985 100.41019240490303 C 121.78749143452985 101.37669071710691 122.57099312232597 102.16019240490303 123.53749143452985 102.16019240490303 C 124.50398974673374 102.16019240490303 125.28749143452985 101.37669071710691 125.28749143452985 100.41019240490303 L 125.28749143452985 66.9562977277828 L 128.28749143452984 66.9562977277828 L 123.53749143452985 47.9562977277828 Z" fill-opacity="1"/><path fill="none" stroke="rgb(51,51,51)" paint-order="fill stroke markers" d=" M 120.53749143452985 149.86408708202325 L 126.53749143452985 155.86408708202325" stroke-opacity="1" stroke-linecap="square" stroke-miterlimit="10" stroke-width="1.5"/><path fill="none" stroke="rgb(51,51,51)" paint-order="fill stroke markers" d=" M 120.53749143452985 155.86408708202325 L 126.53749143452985 149.86408708202325" stroke-opacity="1" stroke-linecap="square" stroke-miterlimit="10" stroke-width="1.5"/><text fill="rgb(51,51,51)" stroke="none" font-family="geogebra-sans-serif, sans-serif" font-size="12px" font-style="normal" font-weight="normal" text-decoration="normal" x="111" y="167" text-anchor="start" dominant-baseline="alphabetic" fill-opacity="1">O</text><text fill="rgb(51,51,51)" stroke="none" font-family="geogebra-sans-serif, sans-serif" font-size="12px" font-style="normal" font-weight="normal" text-decoration="normal" x="111" y="167" text-anchor="start" dominant-baseline="alphabetic" fill-opacity="1">O</text><path fill="rgb(0,0,255)" stroke="none" paint-order="stroke fill markers" d=" M 231.44528078877033 100.41019240490303 C 231.44528078877033 102.06704665439541 230.1021350382627 103.41019240490303 228.44528078877033 103.41019240490303 C 226.78842653927796 103.41019240490303 225.44528078877033 102.06704665439541 225.44528078877033 100.41019240490303 C 225.44528078877033 98.75333815541065 226.78842653927796 97.41019240490303 228.44528078877033 97.41019240490303 C 230.1021350382627 97.41019240490303 231.44528078877033 98.75333815541065 231.44528078877033 100.41019240490303 Z" fill-opacity="1"/><path fill="none" stroke="rgb(0,0,0)" paint-order="fill stroke markers" d=" M 231.44528078877033 100.41019240490303 C 231.44528078877033 102.06704665439541 230.1021350382627 103.41019240490303 228.44528078877033 103.41019240490303 C 226.78842653927796 103.41019240490303 225.44528078877033 102.06704665439541 225.44528078877033 100.41019240490303 C 225.44528078877033 98.75333815541065 226.78842653927796 97.41019240490303 228.44528078877033 97.41019240490303 C 230.1021350382627 97.41019240490303 231.44528078877033 98.75333815541065 231.44528078877033 100.41019240490303 Z" stroke-opacity="1" stroke-linecap="round" stroke-linejoin="round" stroke-miterlimit="10"/><text fill="rgb(0,0,255)" stroke="none" font-family="geogebra-sans-serif, sans-serif" font-size="12px" font-style="normal" font-weight="normal" text-decoration="normal" x="218" y="115" text-anchor="start" dominant-baseline="alphabetic" fill-opacity="1">A</text><text fill="rgb(0,0,255)" stroke="none" font-family="geogebra-sans-serif, sans-serif" font-size="12px" font-style="normal" font-weight="normal" text-decoration="normal" x="218" y="115" text-anchor="start" dominant-baseline="alphabetic" fill-opacity="1">A</text><path fill="rgb(0,0,255)" stroke="none" paint-order="stroke fill markers" d=" M 336.35307014301077 47.9562977277828 C 336.35307014301077 49.61315197727518 335.00992439250314 50.9562977277828 333.35307014301077 50.9562977277828 C 331.6962158935184 50.9562977277828 330.35307014301077 49.61315197727518 330.35307014301077 47.9562977277828 C 330.35307014301077 46.299443478290414 331.6962158935184 44.9562977277828 333.35307014301077 44.9562977277828 C 335.00992439250314 44.9562977277828 336.35307014301077 46.299443478290414 336.35307014301077 47.9562977277828 Z" fill-opacity="1"/><path fill="none" stroke="rgb(0,0,0)" paint-order="fill stroke markers" d=" M 336.35307014301077 47.9562977277828 C 336.35307014301077 49.61315197727518 335.00992439250314 50.9562977277828 333.35307014301077 50.9562977277828 C 331.6962158935184 50.9562977277828 330.35307014301077 49.61315197727518 330.35307014301077 47.9562977277828 C 330.35307014301077 46.299443478290414 331.6962158935184 44.9562977277828 333.35307014301077 44.9562977277828 C 335.00992439250314 44.9562977277828 336.35307014301077 46.299443478290414 336.35307014301077 47.9562977277828 Z" stroke-opacity="1" stroke-linecap="round" stroke-linejoin="round" stroke-miterlimit="10"/><text fill="rgb(0,0,255)" stroke="none" font-family="geogebra-sans-serif, sans-serif" font-size="12px" font-style="normal" font-weight="normal" text-decoration="normal" x="337" y="42" text-anchor="start" dominant-baseline="alphabetic" fill-opacity="1">B</text><text fill="rgb(0,0,255)" stroke="none" font-family="geogebra-sans-serif, sans-serif" font-size="12px" font-style="normal" font-weight="normal" text-decoration="normal" x="337" y="42" text-anchor="start" dominant-baseline="alphabetic" fill-opacity="1">B</text><g transform="scale(15,15)"><g transform="translate(15.8,3.583333333333333)"><path fill="rgb(102,0,153)" stroke="none" paint-order="stroke fill markers" d=" M 0.537 -0.595 L 0.217 -0.595 Q 0.186 -0.595 0.183 -0.609 Q 0.182 -0.612 0.182 -0.615 Q 0.188 -0.635 0.217 -0.635 L 0.554 -0.635 Q 0.534 -0.661 0.53 -0.6930000000000001 Q 0.53 -0.709 0.544 -0.713 Q 0.547 -0.714 0.55 -0.714 Q 0.5650000000000001 -0.714 0.5700000000000001 -0.6920000000000001 Q 0.583 -0.654 0.611 -0.635 Q 0.625 -0.625 0.625 -0.615 Q 0.625 -0.604 0.608 -0.594 Q 0.5630000000000001 -0.5720000000000001 0.529 -0.529 Q 0.518 -0.516 0.51 -0.516 Q 0.496 -0.516 0.491 -0.53 Q 0.49 -0.533 0.49 -0.536 Q 0.49 -0.552 0.537 -0.595 Z"/></g><g transform="translate(15.813,3.583333333333333)"><path fill="rgb(102,0,153)" stroke="none" paint-order="stroke fill markers" d=" M 0.35000000000000003 -0.056 L 0.35000000000000003 -0.056 Q 0.298 0.011 0.231 0.011 Q 0.15 0.011 0.121 -0.048 Q 0.108 -0.074 0.108 -0.109 Q 0.108 -0.163 0.161 -0.305 Q 0.163 -0.312 0.166 -0.319 Q 0.183 -0.362 0.183 -0.387 Q 0.183 -0.42 0.158 -0.42 Q 0.10200000000000001 -0.42 0.067 -0.325 Q 0.066 -0.325 0.066 -0.324 L 0.066 -0.323 Q 0.061 -0.31 0.057 -0.296 Q 0.046 -0.279 0.041 -0.278 Q 0.029 -0.278 0.029 -0.28800000000000003 Q 0.029 -0.306 0.05 -0.35100000000000003 Q 0.094 -0.442 0.161 -0.442 Q 0.214 -0.442 0.23500000000000001 -0.397 Q 0.243 -0.38 0.243 -0.36 Q 0.243 -0.34 0.226 -0.297 Q 0.17200000000000001 -0.154 0.17200000000000001 -0.093 Q 0.17200000000000001 -0.011 0.234 -0.011 Q 0.297 -0.011 0.34 -0.08 Q 0.34600000000000003 -0.089 0.34800000000000003 -0.095 Q 0.37 -0.194 0.423 -0.396 Q 0.431 -0.431 0.462 -0.431 Q 0.487 -0.426 0.491 -0.404 Q 0.491 -0.406 0.47600000000000003 -0.337 Q 0.462 -0.28600000000000003 0.459 -0.269 L 0.431 -0.161 Q 0.41100000000000003 -0.074 0.41100000000000003 -0.057 Q 0.41100000000000003 -0.011 0.442 -0.011 Q 0.484 -0.011 0.511 -0.111 Q 0.514 -0.121 0.517 -0.135 Q 0.525 -0.152 0.531 -0.153 Q 0.543 -0.153 0.543 -0.14300000000000002 Q 0.543 -0.128 0.525 -0.073 Q 0.519 -0.056 0.513 -0.044 Q 0.486 0.011 0.439 0.011 Q 0.382 0.011 0.358 -0.037 Q 0.353 -0.046 0.35000000000000003 -0.056 Z"/></g><g transform="translate(16.385,2.173333333333333)"><path fill="rgb(102,0,153)" stroke="none" paint-order="stroke fill markers" d=" M 0.662109375 2.35693359375 Q 0.5390625 2.248046875 0.451171875 2.10888671875 Q 0.36328125 1.9697265625 0.31005859375 1.81494140625 Q 0.2568359375 1.66015625 0.232421875 1.494873046875 Q 0.2080078125 1.32958984375 0.2080078125 1.16015625 Q 0.2080078125 0.98974609375 0.232421875 0.823974609375 Q 0.2568359375 0.658203125 0.309814453125 0.50390625 Q 0.36279296875 0.349609375 0.450927734375 0.210205078125 Q 0.5390625 0.07080078125 0.662109375 -0.0380859375 Q 0.662109375 -0.0400390625 0.6669921875 -0.0400390625 L 0.69287109375 -0.0400390625 Q 0.69580078125 -0.0400390625 0.698486328125 -0.037109375 Q 0.701171875 -0.0341796875 0.701171875 -0.03076171875 Q 0.701171875 -0.02685546875 0.69921875 -0.02490234375 Q 0.5849609375 0.087890625 0.506103515625 0.22607421875 Q 0.42724609375 0.3642578125 0.380859375 0.51708984375 Q 0.33447265625 0.669921875 0.314697265625 0.8310546875 Q 0.294921875 0.9921875 0.294921875 1.16015625 Q 0.294921875 1.32763671875 0.314453125 1.486572265625 Q 0.333984375 1.6455078125 0.380859375 1.80029296875 Q 0.427734375 1.955078125 0.5068359375 2.09326171875 Q 0.5859375 2.2314453125 0.69921875 2.34423828125 Q 0.701171875 2.34619140625 0.701171875 2.35009765625 Q 0.701171875 2.35302734375 0.6982421875 2.35595703125 Q 0.6953125 2.35888671875 0.69287109375 2.35888671875 L 0.6669921875 2.35888671875 Q 0.662109375 2.35888671875 0.662109375 2.35693359375 Z"/></g><g transform="translate(17.200701120792,2.906825333333333)"><path fill="rgb(102,0,153)" stroke="none" paint-order="stroke fill markers" d=" M 0.334 -0.302 L 0.3 -0.165 Q 0.28300000000000003 -0.097 0.28300000000000003 -0.077 Q 0.28300000000000003 -0.025 0.32 -0.014 Q 0.328 -0.011 0.338 -0.011 Q 0.388 -0.011 0.429 -0.061 Q 0.456 -0.093 0.47100000000000003 -0.14200000000000002 Q 0.47400000000000003 -0.153 0.484 -0.153 Q 0.496 -0.153 0.496 -0.14300000000000002 Q 0.496 -0.11800000000000001 0.465 -0.07100000000000001 Q 0.41100000000000003 0.011 0.336 0.011 Q 0.268 0.011 0.23700000000000002 -0.046 Q 0.231 -0.055 0.228 -0.065 Q 0.20400000000000001 -0.017 0.162 0.002 Q 0.14300000000000002 0.011 0.123 0.011 Q 0.063 0.011 0.039 -0.024 Q 0.029 -0.037 0.029 -0.055 Q 0.029 -0.092 0.061 -0.107 Q 0.07200000000000001 -0.113 0.084 -0.113 Q 0.114 -0.113 0.12 -0.088 Q 0.121 -0.083 0.121 -0.078 Q 0.121 -0.044 0.08700000000000001 -0.028 Q 0.081 -0.025 0.074 -0.024 Q 0.095 -0.011 0.124 -0.011 Q 0.177 -0.011 0.20800000000000002 -0.082 Q 0.214 -0.097 0.219 -0.115 Q 0.273 -0.319 0.273 -0.353 Q 0.267 -0.41500000000000004 0.219 -0.42 Q 0.167 -0.42 0.124 -0.367 L 0.124 -0.366 Q 0.124 -0.365 0.123 -0.365 Q 0.108 -0.34500000000000003 0.096 -0.319 Q 0.091 -0.307 0.08700000000000001 -0.295 L 0.085 -0.289 Q 0.083 -0.278 0.07200000000000001 -0.278 Q 0.06 -0.278 0.06 -0.28800000000000003 Q 0.06 -0.313 0.092 -0.36 Q 0.146 -0.442 0.221 -0.442 Q 0.298 -0.442 0.329 -0.366 Q 0.361 -0.428 0.41400000000000003 -0.44 Q 0.424 -0.442 0.434 -0.442 Q 0.493 -0.442 0.517 -0.40900000000000003 Q 0.527 -0.395 0.527 -0.376 Q 0.527 -0.335 0.49 -0.321 Q 0.481 -0.318 0.47300000000000003 -0.318 Q 0.442 -0.318 0.436 -0.34500000000000003 Q 0.435 -0.34900000000000003 0.435 -0.353 Q 0.435 -0.383 0.464 -0.4 Q 0.47300000000000003 -0.405 0.483 -0.40700000000000003 Q 0.462 -0.42 0.433 -0.42 Q 0.365 -0.42 0.337 -0.314 Q 0.335 -0.308 0.334 -0.302 Z"/></g><g transform="translate(17.772701120792,3.0618253333333327) scale(0.7,0.7)"><path fill="rgb(102,0,153)" stroke="none" paint-order="stroke fill markers" d=" M 0.537 -0.595 L 0.217 -0.595 Q 0.186 -0.595 0.183 -0.609 Q 0.182 -0.612 0.182 -0.615 Q 0.188 -0.635 0.217 -0.635 L 0.554 -0.635 Q 0.534 -0.661 0.53 -0.6930000000000001 Q 0.53 -0.709 0.544 -0.713 Q 0.547 -0.714 0.55 -0.714 Q 0.5650000000000001 -0.714 0.5700000000000001 -0.6920000000000001 Q 0.583 -0.654 0.611 -0.635 Q 0.625 -0.625 0.625 -0.615 Q 0.625 -0.604 0.608 -0.594 Q 0.5630000000000001 -0.5720000000000001 0.529 -0.529 Q 0.518 -0.516 0.51 -0.516 Q 0.496 -0.516 0.491 -0.53 Q 0.49 -0.533 0.49 -0.536 Q 0.49 -0.552 0.537 -0.595 Z"/></g><g transform="translate(17.781801120792,3.0618253333333327) scale(0.7,0.7)"><path fill="rgb(102,0,153)" stroke="none" paint-order="stroke fill markers" d=" M 0.35000000000000003 -0.056 L 0.35000000000000003 -0.056 Q 0.298 0.011 0.231 0.011 Q 0.15 0.011 0.121 -0.048 Q 0.108 -0.074 0.108 -0.109 Q 0.108 -0.163 0.161 -0.305 Q 0.163 -0.312 0.166 -0.319 Q 0.183 -0.362 0.183 -0.387 Q 0.183 -0.42 0.158 -0.42 Q 0.10200000000000001 -0.42 0.067 -0.325 Q 0.066 -0.325 0.066 -0.324 L 0.066 -0.323 Q 0.061 -0.31 0.057 -0.296 Q 0.046 -0.279 0.041 -0.278 Q 0.029 -0.278 0.029 -0.28800000000000003 Q 0.029 -0.306 0.05 -0.35100000000000003 Q 0.094 -0.442 0.161 -0.442 Q 0.214 -0.442 0.23500000000000001 -0.397 Q 0.243 -0.38 0.243 -0.36 Q 0.243 -0.34 0.226 -0.297 Q 0.17200000000000001 -0.154 0.17200000000000001 -0.093 Q 0.17200000000000001 -0.011 0.234 -0.011 Q 0.297 -0.011 0.34 -0.08 Q 0.34600000000000003 -0.089 0.34800000000000003 -0.095 Q 0.37 -0.194 0.423 -0.396 Q 0.431 -0.431 0.462 -0.431 Q 0.487 -0.426 0.491 -0.404 Q 0.491 -0.406 0.47600000000000003 -0.337 Q 0.462 -0.28600000000000003 0.459 -0.269 L 0.431 -0.161 Q 0.41100000000000003 -0.074 0.41100000000000003 -0.057 Q 0.41100000000000003 -0.011 0.442 -0.011 Q 0.484 -0.011 0.511 -0.111 Q 0.514 -0.121 0.517 -0.135 Q 0.525 -0.152 0.531 -0.153 Q 0.543 -0.153 0.543 -0.14300000000000002 Q 0.543 -0.128 0.525 -0.073 Q 0.519 -0.056 0.513 -0.044 Q 0.486 0.011 0.439 0.011 Q 0.382 0.011 0.358 -0.037 Q 0.353 -0.046 0.35000000000000003 -0.056 Z"/></g><g transform="translate(17.241701120792,4.269284333333332)"><path fill="rgb(102,0,153)" stroke="none" paint-order="stroke fill markers" d=" M 0.486 -0.381 L 0.39 0.001 Q 0.366 0.099 0.28300000000000003 0.16 Q 0.222 0.20500000000000002 0.156 0.20500000000000002 Q 0.089 0.20500000000000002 0.061 0.159 Q 0.05 0.14 0.05 0.11800000000000001 Q 0.05 0.067 0.091 0.055 Q 0.099 0.053 0.106 0.053 Q 0.138 0.053 0.14200000000000002 0.081 Q 0.14300000000000002 0.084 0.14300000000000002 0.088 Q 0.14300000000000002 0.111 0.123 0.129 Q 0.109 0.14100000000000001 0.08 0.14100000000000001 Q 0.098 0.183 0.156 0.183 Q 0.218 0.183 0.266 0.12 Q 0.305 0.068 0.328 -0.021 Q 0.329 -0.025 0.331 -0.034 Q 0.28600000000000003 0.011 0.23 0.011 Q 0.15 0.011 0.121 -0.048 Q 0.108 -0.074 0.108 -0.108 Q 0.108 -0.163 0.161 -0.305 Q 0.163 -0.311 0.166 -0.318 Q 0.183 -0.364 0.183 -0.388 Q 0.183 -0.42 0.158 -0.42 Q 0.10300000000000001 -0.42 0.068 -0.329 L 0.068 -0.328 Q 0.062 -0.313 0.057 -0.296 Q 0.046 -0.279 0.041 -0.278 Q 0.029 -0.278 0.029 -0.28800000000000003 Q 0.029 -0.306 0.05 -0.35100000000000003 Q 0.094 -0.442 0.161 -0.442 Q 0.214 -0.442 0.23500000000000001 -0.397 Q 0.243 -0.38 0.243 -0.36 Q 0.243 -0.339 0.223 -0.28800000000000003 Q 0.17200000000000001 -0.156 0.17200000000000001 -0.092 Q 0.17200000000000001 -0.011 0.234 -0.011 Q 0.292 -0.011 0.335 -0.073 Q 0.34500000000000003 -0.088 0.34700000000000003 -0.096 L 0.392 -0.276 Q 0.399 -0.309 0.41200000000000003 -0.356 Q 0.422 -0.399 0.426 -0.41000000000000003 Q 0.439 -0.431 0.461 -0.431 Q 0.486 -0.426 0.49 -0.404 Q 0.49 -0.395 0.486 -0.381 Z"/></g><g transform="translate(17.731701120792,4.424284333333333) scale(0.7,0.7)"><path fill="rgb(102,0,153)" stroke="none" paint-order="stroke fill markers" d=" M 0.537 -0.595 L 0.217 -0.595 Q 0.186 -0.595 0.183 -0.609 Q 0.182 -0.612 0.182 -0.615 Q 0.188 -0.635 0.217 -0.635 L 0.554 -0.635 Q 0.534 -0.661 0.53 -0.6930000000000001 Q 0.53 -0.709 0.544 -0.713 Q 0.547 -0.714 0.55 -0.714 Q 0.5650000000000001 -0.714 0.5700000000000001 -0.6920000000000001 Q 0.583 -0.654 0.611 -0.635 Q 0.625 -0.625 0.625 -0.615 Q 0.625 -0.604 0.608 -0.594 Q 0.5630000000000001 -0.5720000000000001 0.529 -0.529 Q 0.518 -0.516 0.51 -0.516 Q 0.496 -0.516 0.491 -0.53 Q 0.49 -0.533 0.49 -0.536 Q 0.49 -0.552 0.537 -0.595 Z"/></g><g transform="translate(17.740801120792,4.424284333333333) scale(0.7,0.7)"><path fill="rgb(102,0,153)" stroke="none" paint-order="stroke fill markers" d=" M 0.35000000000000003 -0.056 L 0.35000000000000003 -0.056 Q 0.298 0.011 0.231 0.011 Q 0.15 0.011 0.121 -0.048 Q 0.108 -0.074 0.108 -0.109 Q 0.108 -0.163 0.161 -0.305 Q 0.163 -0.312 0.166 -0.319 Q 0.183 -0.362 0.183 -0.387 Q 0.183 -0.42 0.158 -0.42 Q 0.10200000000000001 -0.42 0.067 -0.325 Q 0.066 -0.325 0.066 -0.324 L 0.066 -0.323 Q 0.061 -0.31 0.057 -0.296 Q 0.046 -0.279 0.041 -0.278 Q 0.029 -0.278 0.029 -0.28800000000000003 Q 0.029 -0.306 0.05 -0.35100000000000003 Q 0.094 -0.442 0.161 -0.442 Q 0.214 -0.442 0.23500000000000001 -0.397 Q 0.243 -0.38 0.243 -0.36 Q 0.243 -0.34 0.226 -0.297 Q 0.17200000000000001 -0.154 0.17200000000000001 -0.093 Q 0.17200000000000001 -0.011 0.234 -0.011 Q 0.297 -0.011 0.34 -0.08 Q 0.34600000000000003 -0.089 0.34800000000000003 -0.095 Q 0.37 -0.194 0.423 -0.396 Q 0.431 -0.431 0.462 -0.431 Q 0.487 -0.426 0.491 -0.404 Q 0.491 -0.406 0.47600000000000003 -0.337 Q 0.462 -0.28600000000000003 0.459 -0.269 L 0.431 -0.161 Q 0.41100000000000003 -0.074 0.41100000000000003 -0.057 Q 0.41100000000000003 -0.011 0.442 -0.011 Q 0.484 -0.011 0.511 -0.111 Q 0.514 -0.121 0.517 -0.135 Q 0.525 -0.152 0.531 -0.153 Q 0.543 -0.153 0.543 -0.14300000000000002 Q 0.543 -0.128 0.525 -0.073 Q 0.519 -0.056 0.513 -0.044 Q 0.486 0.011 0.439 0.011 Q 0.382 0.011 0.358 -0.037 Q 0.353 -0.046 0.35000000000000003 -0.056 Z"/></g><g transform="translate(18.261902241584004,2.173333333333333)"><path fill="rgb(102,0,153)" stroke="none" paint-order="stroke fill markers" d=" M 0.04296875 2.35888671875 Q 0.0341796875 2.35888671875 0.0341796875 2.35009765625 Q 0.0341796875 2.34619140625 0.0361328125 2.34423828125 Q 0.150390625 2.2314453125 0.22900390625 2.093017578125 Q 0.3076171875 1.95458984375 0.35400390625 1.802001953125 Q 0.400390625 1.6494140625 0.420166015625 1.489990234375 Q 0.43994140625 1.33056640625 0.43994140625 1.1591796875 Q 0.43994140625 0.98583984375 0.420166015625 0.82763671875 Q 0.400390625 0.66943359375 0.3544921875 0.517578125 Q 0.30859375 0.36572265625 0.22900390625 0.226318359375 Q 0.1494140625 0.0869140625 0.0361328125 -0.02490234375 Q 0.0341796875 -0.02685546875 0.0341796875 -0.03076171875 Q 0.0341796875 -0.0400390625 0.04296875 -0.0400390625 L 0.06884765625 -0.0400390625 Q 0.072265625 -0.0400390625 0.07421875 -0.0380859375 Q 0.19775390625 0.0712890625 0.28564453125 0.210693359375 Q 0.37353515625 0.35009765625 0.42626953125 0.5048828125 Q 0.47900390625 0.65966796875 0.5029296875 0.82470703125 Q 0.52685546875 0.98974609375 0.52685546875 1.16015625 Q 0.52685546875 1.32958984375 0.5029296875 1.494140625 Q 0.47900390625 1.65869140625 0.42626953125 1.813720703125 Q 0.37353515625 1.96875 0.28564453125 2.108154296875 Q 0.19775390625 2.24755859375 0.07421875 2.35693359375 Q 0.072265625 2.35888671875 0.06884765625 2.35888671875 L 0.04296875 2.35888671875 Z"/></g></g><g transform="scale(15,15)"><g transform="translate(15.666666666666666,9.316333333333333)"><path fill="rgb(0,51,153)" stroke="none" paint-order="stroke fill markers" d=" M 0.334 -0.302 L 0.3 -0.165 Q 0.28300000000000003 -0.097 0.28300000000000003 -0.077 Q 0.28300000000000003 -0.025 0.32 -0.014 Q 0.328 -0.011 0.338 -0.011 Q 0.388 -0.011 0.429 -0.061 Q 0.456 -0.093 0.47100000000000003 -0.14200000000000002 Q 0.47400000000000003 -0.153 0.484 -0.153 Q 0.496 -0.153 0.496 -0.14300000000000002 Q 0.496 -0.11800000000000001 0.465 -0.07100000000000001 Q 0.41100000000000003 0.011 0.336 0.011 Q 0.268 0.011 0.23700000000000002 -0.046 Q 0.231 -0.055 0.228 -0.065 Q 0.20400000000000001 -0.017 0.162 0.002 Q 0.14300000000000002 0.011 0.123 0.011 Q 0.063 0.011 0.039 -0.024 Q 0.029 -0.037 0.029 -0.055 Q 0.029 -0.092 0.061 -0.107 Q 0.07200000000000001 -0.113 0.084 -0.113 Q 0.114 -0.113 0.12 -0.088 Q 0.121 -0.083 0.121 -0.078 Q 0.121 -0.044 0.08700000000000001 -0.028 Q 0.081 -0.025 0.074 -0.024 Q 0.095 -0.011 0.124 -0.011 Q 0.177 -0.011 0.20800000000000002 -0.082 Q 0.214 -0.097 0.219 -0.115 Q 0.273 -0.319 0.273 -0.353 Q 0.267 -0.41500000000000004 0.219 -0.42 Q 0.167 -0.42 0.124 -0.367 L 0.124 -0.366 Q 0.124 -0.365 0.123 -0.365 Q 0.108 -0.34500000000000003 0.096 -0.319 Q 0.091 -0.307 0.08700000000000001 -0.295 L 0.085 -0.289 Q 0.083 -0.278 0.07200000000000001 -0.278 Q 0.06 -0.278 0.06 -0.28800000000000003 Q 0.06 -0.313 0.092 -0.36 Q 0.146 -0.442 0.221 -0.442 Q 0.298 -0.442 0.329 -0.366 Q 0.361 -0.428 0.41400000000000003 -0.44 Q 0.424 -0.442 0.434 -0.442 Q 0.493 -0.442 0.517 -0.40900000000000003 Q 0.527 -0.395 0.527 -0.376 Q 0.527 -0.335 0.49 -0.321 Q 0.481 -0.318 0.47300000000000003 -0.318 Q 0.442 -0.318 0.436 -0.34500000000000003 Q 0.435 -0.34900000000000003 0.435 -0.353 Q 0.435 -0.383 0.464 -0.4 Q 0.47300000000000003 -0.405 0.483 -0.40700000000000003 Q 0.462 -0.42 0.433 -0.42 Q 0.365 -0.42 0.337 -0.314 Q 0.335 -0.308 0.334 -0.302 Z"/></g><g transform="translate(16.238666666666667,9.471333333333332) scale(0.7,0.7)"><path fill="rgb(0,51,153)" stroke="none" paint-order="stroke fill markers" d=" M 0.537 -0.595 L 0.217 -0.595 Q 0.186 -0.595 0.183 -0.609 Q 0.182 -0.612 0.182 -0.615 Q 0.188 -0.635 0.217 -0.635 L 0.554 -0.635 Q 0.534 -0.661 0.53 -0.6930000000000001 Q 0.53 -0.709 0.544 -0.713 Q 0.547 -0.714 0.55 -0.714 Q 0.5650000000000001 -0.714 0.5700000000000001 -0.6920000000000001 Q 0.583 -0.654 0.611 -0.635 Q 0.625 -0.625 0.625 -0.615 Q 0.625 -0.604 0.608 -0.594 Q 0.5630000000000001 -0.5720000000000001 0.529 -0.529 Q 0.518 -0.516 0.51 -0.516 Q 0.496 -0.516 0.491 -0.53 Q 0.49 -0.533 0.49 -0.536 Q 0.49 -0.552 0.537 -0.595 Z"/></g><g transform="translate(16.247766666666667,9.471333333333332) scale(0.7,0.7)"><path fill="rgb(0,51,153)" stroke="none" paint-order="stroke fill markers" d=" M 0.35000000000000003 -0.056 L 0.35000000000000003 -0.056 Q 0.298 0.011 0.231 0.011 Q 0.15 0.011 0.121 -0.048 Q 0.108 -0.074 0.108 -0.109 Q 0.108 -0.163 0.161 -0.305 Q 0.163 -0.312 0.166 -0.319 Q 0.183 -0.362 0.183 -0.387 Q 0.183 -0.42 0.158 -0.42 Q 0.10200000000000001 -0.42 0.067 -0.325 Q 0.066 -0.325 0.066 -0.324 L 0.066 -0.323 Q 0.061 -0.31 0.057 -0.296 Q 0.046 -0.279 0.041 -0.278 Q 0.029 -0.278 0.029 -0.28800000000000003 Q 0.029 -0.306 0.05 -0.35100000000000003 Q 0.094 -0.442 0.161 -0.442 Q 0.214 -0.442 0.23500000000000001 -0.397 Q 0.243 -0.38 0.243 -0.36 Q 0.243 -0.34 0.226 -0.297 Q 0.17200000000000001 -0.154 0.17200000000000001 -0.093 Q 0.17200000000000001 -0.011 0.234 -0.011 Q 0.297 -0.011 0.34 -0.08 Q 0.34600000000000003 -0.089 0.34800000000000003 -0.095 Q 0.37 -0.194 0.423 -0.396 Q 0.431 -0.431 0.462 -0.431 Q 0.487 -0.426 0.491 -0.404 Q 0.491 -0.406 0.47600000000000003 -0.337 Q 0.462 -0.28600000000000003 0.459 -0.269 L 0.431 -0.161 Q 0.41100000000000003 -0.074 0.41100000000000003 -0.057 Q 0.41100000000000003 -0.011 0.442 -0.011 Q 0.484 -0.011 0.511 -0.111 Q 0.514 -0.121 0.517 -0.135 Q 0.525 -0.152 0.531 -0.153 Q 0.543 -0.153 0.543 -0.14300000000000002 Q 0.543 -0.128 0.525 -0.073 Q 0.519 -0.056 0.513 -0.044 Q 0.486 0.011 0.439 0.011 Q 0.382 0.011 0.358 -0.037 Q 0.353 -0.046 0.35000000000000003 -0.056 Z"/></g><g transform="translate(16.925944444444443,9.316333333333333)"><path fill="rgb(0,51,153)" stroke="none" paint-order="stroke fill markers" d=" M 0.687 -0.327 L 0.09 -0.327 Q 0.058 -0.327 0.056 -0.34700000000000003 Q 0.056 -0.367 0.089 -0.367 L 0.6880000000000001 -0.367 Q 0.72 -0.367 0.721 -0.34700000000000003 Q 0.721 -0.327 0.687 -0.327 M 0.6880000000000001 -0.133 L 0.089 -0.133 Q 0.057 -0.133 0.056 -0.153 Q 0.056 -0.17300000000000001 0.09 -0.17300000000000001 L 0.687 -0.17300000000000001 Q 0.719 -0.17300000000000001 0.721 -0.153 Q 0.721 -0.133 0.6880000000000001 -0.133 Z"/></g><g transform="translate(17.98172222222222,9.316333333333333)"><path fill="rgb(0,51,153)" stroke="none" paint-order="stroke fill markers" d=" M 0.334 -0.302 L 0.3 -0.165 Q 0.28300000000000003 -0.097 0.28300000000000003 -0.077 Q 0.28300000000000003 -0.025 0.32 -0.014 Q 0.328 -0.011 0.338 -0.011 Q 0.388 -0.011 0.429 -0.061 Q 0.456 -0.093 0.47100000000000003 -0.14200000000000002 Q 0.47400000000000003 -0.153 0.484 -0.153 Q 0.496 -0.153 0.496 -0.14300000000000002 Q 0.496 -0.11800000000000001 0.465 -0.07100000000000001 Q 0.41100000000000003 0.011 0.336 0.011 Q 0.268 0.011 0.23700000000000002 -0.046 Q 0.231 -0.055 0.228 -0.065 Q 0.20400000000000001 -0.017 0.162 0.002 Q 0.14300000000000002 0.011 0.123 0.011 Q 0.063 0.011 0.039 -0.024 Q 0.029 -0.037 0.029 -0.055 Q 0.029 -0.092 0.061 -0.107 Q 0.07200000000000001 -0.113 0.084 -0.113 Q 0.114 -0.113 0.12 -0.088 Q 0.121 -0.083 0.121 -0.078 Q 0.121 -0.044 0.08700000000000001 -0.028 Q 0.081 -0.025 0.074 -0.024 Q 0.095 -0.011 0.124 -0.011 Q 0.177 -0.011 0.20800000000000002 -0.082 Q 0.214 -0.097 0.219 -0.115 Q 0.273 -0.319 0.273 -0.353 Q 0.267 -0.41500000000000004 0.219 -0.42 Q 0.167 -0.42 0.124 -0.367 L 0.124 -0.366 Q 0.124 -0.365 0.123 -0.365 Q 0.108 -0.34500000000000003 0.096 -0.319 Q 0.091 -0.307 0.08700000000000001 -0.295 L 0.085 -0.289 Q 0.083 -0.278 0.07200000000000001 -0.278 Q 0.06 -0.278 0.06 -0.28800000000000003 Q 0.06 -0.313 0.092 -0.36 Q 0.146 -0.442 0.221 -0.442 Q 0.298 -0.442 0.329 -0.366 Q 0.361 -0.428 0.41400000000000003 -0.44 Q 0.424 -0.442 0.434 -0.442 Q 0.493 -0.442 0.517 -0.40900000000000003 Q 0.527 -0.395 0.527 -0.376 Q 0.527 -0.335 0.49 -0.321 Q 0.481 -0.318 0.47300000000000003 -0.318 Q 0.442 -0.318 0.436 -0.34500000000000003 Q 0.435 -0.34900000000000003 0.435 -0.353 Q 0.435 -0.383 0.464 -0.4 Q 0.47300000000000003 -0.405 0.483 -0.40700000000000003 Q 0.462 -0.42 0.433 -0.42 Q 0.365 -0.42 0.337 -0.314 Q 0.335 -0.308 0.334 -0.302 Z"/></g><g transform="translate(18.55372222222222,9.466333333333333) scale(0.7,0.7)"><path fill="rgb(0,51,153)" stroke="none" paint-order="stroke fill markers" d=" M 0.16 -0.078 L 0.294 -0.615 Q 0.298 -0.631 0.298 -0.634 Q 0.298 -0.646 0.28200000000000003 -0.649 L 0.281 -0.649 L 0.28 -0.649 Q 0.277 -0.649 0.271 -0.65 Q 0.254 -0.652 0.233 -0.652 Q 0.20700000000000002 -0.652 0.20500000000000002 -0.663 Q 0.20500000000000002 -0.681 0.22 -0.683 L 0.221 -0.683 L 0.222 -0.683 L 0.234 -0.683 L 0.5700000000000001 -0.683 Q 0.685 -0.683 0.734 -0.615 Q 0.756 -0.583 0.756 -0.545 Q 0.756 -0.464 0.666 -0.404 Q 0.665 -0.404 0.664 -0.403 Q 0.611 -0.369 0.547 -0.357 Q 0.649 -0.34500000000000003 0.687 -0.277 Q 0.7020000000000001 -0.249 0.7020000000000001 -0.216 Q 0.7020000000000001 -0.14300000000000002 0.632 -0.079 L 0.631 -0.078 Q 0.545 0 0.426 0 L 0.069 0 Q 0.044 0 0.042 -0.011 Q 0.042 -0.029 0.057 -0.031 L 0.069 -0.031 Q 0.134 -0.031 0.147 -0.045 Q 0.153 -0.052000000000000005 0.159 -0.073 Q 0.159 -0.074 0.16 -0.078 M 0.311 -0.366 L 0.457 -0.366 Q 0.556 -0.366 0.62 -0.438 Q 0.665 -0.489 0.665 -0.549 Q 0.665 -0.622 0.605 -0.644 Q 0.584 -0.652 0.556 -0.652 L 0.427 -0.652 Q 0.391 -0.652 0.383 -0.642 L 0.383 -0.642 L 0.383 -0.641 L 0.382 -0.641 L 0.382 -0.64 Q 0.378 -0.634 0.373 -0.614 L 0.311 -0.366 M 0.266 -0.031 L 0.402 -0.031 Q 0.498 -0.031 0.561 -0.10300000000000001 Q 0.609 -0.159 0.609 -0.227 Q 0.609 -0.3 0.557 -0.33 Q 0.531 -0.34400000000000003 0.494 -0.34400000000000003 L 0.305 -0.34400000000000003 L 0.23600000000000002 -0.065 Q 0.231 -0.047 0.231 -0.042 Q 0.231 -0.034 0.24 -0.032 L 0.24 -0.032 L 0.24 -0.032 L 0.244 -0.032 Q 0.25 -0.031 0.266 -0.031 Z"/></g><g transform="translate(19.342244444444443,9.316333333333333)"><path fill="rgb(0,51,153)" stroke="none" paint-order="stroke fill markers" d=" M 0.661 -0.23 L 0.116 -0.23 Q 0.084 -0.23 0.083 -0.25 Q 0.083 -0.27 0.116 -0.27 L 0.661 -0.27 Q 0.6930000000000001 -0.27 0.6940000000000001 -0.25 Q 0.6940000000000001 -0.23 0.661 -0.23 Z"/></g><g transform="translate(20.342466666666663,9.316333333333333)"><path fill="rgb(0,51,153)" stroke="none" paint-order="stroke fill markers" d=" M 0.334 -0.302 L 0.3 -0.165 Q 0.28300000000000003 -0.097 0.28300000000000003 -0.077 Q 0.28300000000000003 -0.025 0.32 -0.014 Q 0.328 -0.011 0.338 -0.011 Q 0.388 -0.011 0.429 -0.061 Q 0.456 -0.093 0.47100000000000003 -0.14200000000000002 Q 0.47400000000000003 -0.153 0.484 -0.153 Q 0.496 -0.153 0.496 -0.14300000000000002 Q 0.496 -0.11800000000000001 0.465 -0.07100000000000001 Q 0.41100000000000003 0.011 0.336 0.011 Q 0.268 0.011 0.23700000000000002 -0.046 Q 0.231 -0.055 0.228 -0.065 Q 0.20400000000000001 -0.017 0.162 0.002 Q 0.14300000000000002 0.011 0.123 0.011 Q 0.063 0.011 0.039 -0.024 Q 0.029 -0.037 0.029 -0.055 Q 0.029 -0.092 0.061 -0.107 Q 0.07200000000000001 -0.113 0.084 -0.113 Q 0.114 -0.113 0.12 -0.088 Q 0.121 -0.083 0.121 -0.078 Q 0.121 -0.044 0.08700000000000001 -0.028 Q 0.081 -0.025 0.074 -0.024 Q 0.095 -0.011 0.124 -0.011 Q 0.177 -0.011 0.20800000000000002 -0.082 Q 0.214 -0.097 0.219 -0.115 Q 0.273 -0.319 0.273 -0.353 Q 0.267 -0.41500000000000004 0.219 -0.42 Q 0.167 -0.42 0.124 -0.367 L 0.124 -0.366 Q 0.124 -0.365 0.123 -0.365 Q 0.108 -0.34500000000000003 0.096 -0.319 Q 0.091 -0.307 0.08700000000000001 -0.295 L 0.085 -0.289 Q 0.083 -0.278 0.07200000000000001 -0.278 Q 0.06 -0.278 0.06 -0.28800000000000003 Q 0.06 -0.313 0.092 -0.36 Q 0.146 -0.442 0.221 -0.442 Q 0.298 -0.442 0.329 -0.366 Q 0.361 -0.428 0.41400000000000003 -0.44 Q 0.424 -0.442 0.434 -0.442 Q 0.493 -0.442 0.517 -0.40900000000000003 Q 0.527 -0.395 0.527 -0.376 Q 0.527 -0.335 0.49 -0.321 Q 0.481 -0.318 0.47300000000000003 -0.318 Q 0.442 -0.318 0.436 -0.34500000000000003 Q 0.435 -0.34900000000000003 0.435 -0.353 Q 0.435 -0.383 0.464 -0.4 Q 0.47300000000000003 -0.405 0.483 -0.40700000000000003 Q 0.462 -0.42 0.433 -0.42 Q 0.365 -0.42 0.337 -0.314 Q 0.335 -0.308 0.334 -0.302 Z"/></g><g transform="translate(20.914466666666662,9.466333333333333) scale(0.7,0.7)"><path fill="rgb(0,51,153)" stroke="none" paint-order="stroke fill markers" d=" M 0.179 -0.115 L 0.527 -0.6990000000000001 Q 0.537 -0.715 0.553 -0.716 Q 0.5680000000000001 -0.716 0.5700000000000001 -0.706 Q 0.5710000000000001 -0.7030000000000001 0.5720000000000001 -0.6920000000000001 L 0.633 -0.067 Q 0.636 -0.042 0.645 -0.037 L 0.646 -0.037 L 0.646 -0.037 L 0.646 -0.037 L 0.646 -0.037 L 0.646 -0.036000000000000004 Q 0.658 -0.031 0.6980000000000001 -0.031 Q 0.72 -0.031 0.721 -0.02 Q 0.721 0 0.7030000000000001 0 L 0.591 -0.003 L 0.59 -0.003 L 0.466 0 L 0.465 0 Q 0.451 0 0.451 -0.011 Q 0.459 -0.03 0.47500000000000003 -0.031 Q 0.547 -0.031 0.547 -0.064 Q 0.547 -0.063 0.531 -0.231 L 0.28 -0.231 L 0.20400000000000001 -0.10300000000000001 Q 0.19 -0.078 0.19 -0.066 Q 0.19 -0.035 0.23700000000000002 -0.031 Q 0.253 -0.031 0.253 -0.019 Q 0.253 0 0.234 0 L 0.138 -0.003 L 0.134 -0.003 L 0.05 0 L 0.048 0 Q 0.035 0 0.035 -0.011 Q 0.035 -0.029 0.05 -0.03 L 0.05 -0.031 L 0.056 -0.031 Q 0.11900000000000001 -0.035 0.159 -0.085 Q 0.169 -0.098 0.179 -0.115 M 0.299 -0.262 L 0.528 -0.262 L 0.496 -0.592 L 0.299 -0.262 Z"/></g></g><g transform="scale(15,15)"><g transform="translate(9.066666666666666,5.449666666666666)"><path fill="rgb(0,51,153)" stroke="none" paint-order="stroke fill markers" d=" M 0.486 -0.381 L 0.39 0.001 Q 0.366 0.099 0.28300000000000003 0.16 Q 0.222 0.20500000000000002 0.156 0.20500000000000002 Q 0.089 0.20500000000000002 0.061 0.159 Q 0.05 0.14 0.05 0.11800000000000001 Q 0.05 0.067 0.091 0.055 Q 0.099 0.053 0.106 0.053 Q 0.138 0.053 0.14200000000000002 0.081 Q 0.14300000000000002 0.084 0.14300000000000002 0.088 Q 0.14300000000000002 0.111 0.123 0.129 Q 0.109 0.14100000000000001 0.08 0.14100000000000001 Q 0.098 0.183 0.156 0.183 Q 0.218 0.183 0.266 0.12 Q 0.305 0.068 0.328 -0.021 Q 0.329 -0.025 0.331 -0.034 Q 0.28600000000000003 0.011 0.23 0.011 Q 0.15 0.011 0.121 -0.048 Q 0.108 -0.074 0.108 -0.108 Q 0.108 -0.163 0.161 -0.305 Q 0.163 -0.311 0.166 -0.318 Q 0.183 -0.364 0.183 -0.388 Q 0.183 -0.42 0.158 -0.42 Q 0.10300000000000001 -0.42 0.068 -0.329 L 0.068 -0.328 Q 0.062 -0.313 0.057 -0.296 Q 0.046 -0.279 0.041 -0.278 Q 0.029 -0.278 0.029 -0.28800000000000003 Q 0.029 -0.306 0.05 -0.35100000000000003 Q 0.094 -0.442 0.161 -0.442 Q 0.214 -0.442 0.23500000000000001 -0.397 Q 0.243 -0.38 0.243 -0.36 Q 0.243 -0.339 0.223 -0.28800000000000003 Q 0.17200000000000001 -0.156 0.17200000000000001 -0.092 Q 0.17200000000000001 -0.011 0.234 -0.011 Q 0.292 -0.011 0.335 -0.073 Q 0.34500000000000003 -0.088 0.34700000000000003 -0.096 L 0.392 -0.276 Q 0.399 -0.309 0.41200000000000003 -0.356 Q 0.422 -0.399 0.426 -0.41000000000000003 Q 0.439 -0.431 0.461 -0.431 Q 0.486 -0.426 0.49 -0.404 Q 0.49 -0.395 0.486 -0.381 Z"/></g><g transform="translate(9.556666666666667,5.604666666666667) scale(0.7,0.7)"><path fill="rgb(0,51,153)" stroke="none" paint-order="stroke fill markers" d=" M 0.537 -0.595 L 0.217 -0.595 Q 0.186 -0.595 0.183 -0.609 Q 0.182 -0.612 0.182 -0.615 Q 0.188 -0.635 0.217 -0.635 L 0.554 -0.635 Q 0.534 -0.661 0.53 -0.6930000000000001 Q 0.53 -0.709 0.544 -0.713 Q 0.547 -0.714 0.55 -0.714 Q 0.5650000000000001 -0.714 0.5700000000000001 -0.6920000000000001 Q 0.583 -0.654 0.611 -0.635 Q 0.625 -0.625 0.625 -0.615 Q 0.625 -0.604 0.608 -0.594 Q 0.5630000000000001 -0.5720000000000001 0.529 -0.529 Q 0.518 -0.516 0.51 -0.516 Q 0.496 -0.516 0.491 -0.53 Q 0.49 -0.533 0.49 -0.536 Q 0.49 -0.552 0.537 -0.595 Z"/></g><g transform="translate(9.565766666666667,5.604666666666667) scale(0.7,0.7)"><path fill="rgb(0,51,153)" stroke="none" paint-order="stroke fill markers" d=" M 0.35000000000000003 -0.056 L 0.35000000000000003 -0.056 Q 0.298 0.011 0.231 0.011 Q 0.15 0.011 0.121 -0.048 Q 0.108 -0.074 0.108 -0.109 Q 0.108 -0.163 0.161 -0.305 Q 0.163 -0.312 0.166 -0.319 Q 0.183 -0.362 0.183 -0.387 Q 0.183 -0.42 0.158 -0.42 Q 0.10200000000000001 -0.42 0.067 -0.325 Q 0.066 -0.325 0.066 -0.324 L 0.066 -0.323 Q 0.061 -0.31 0.057 -0.296 Q 0.046 -0.279 0.041 -0.278 Q 0.029 -0.278 0.029 -0.28800000000000003 Q 0.029 -0.306 0.05 -0.35100000000000003 Q 0.094 -0.442 0.161 -0.442 Q 0.214 -0.442 0.23500000000000001 -0.397 Q 0.243 -0.38 0.243 -0.36 Q 0.243 -0.34 0.226 -0.297 Q 0.17200000000000001 -0.154 0.17200000000000001 -0.093 Q 0.17200000000000001 -0.011 0.234 -0.011 Q 0.297 -0.011 0.34 -0.08 Q 0.34600000000000003 -0.089 0.34800000000000003 -0.095 Q 0.37 -0.194 0.423 -0.396 Q 0.431 -0.431 0.462 -0.431 Q 0.487 -0.426 0.491 -0.404 Q 0.491 -0.406 0.47600000000000003 -0.337 Q 0.462 -0.28600000000000003 0.459 -0.269 L 0.431 -0.161 Q 0.41100000000000003 -0.074 0.41100000000000003 -0.057 Q 0.41100000000000003 -0.011 0.442 -0.011 Q 0.484 -0.011 0.511 -0.111 Q 0.514 -0.121 0.517 -0.135 Q 0.525 -0.152 0.531 -0.153 Q 0.543 -0.153 0.543 -0.14300000000000002 Q 0.543 -0.128 0.525 -0.073 Q 0.519 -0.056 0.513 -0.044 Q 0.486 0.011 0.439 0.011 Q 0.382 0.011 0.358 -0.037 Q 0.353 -0.046 0.35000000000000003 -0.056 Z"/></g><g transform="translate(10.243944444444445,5.449666666666666)"><path fill="rgb(0,51,153)" stroke="none" paint-order="stroke fill markers" d=" M 0.687 -0.327 L 0.09 -0.327 Q 0.058 -0.327 0.056 -0.34700000000000003 Q 0.056 -0.367 0.089 -0.367 L 0.6880000000000001 -0.367 Q 0.72 -0.367 0.721 -0.34700000000000003 Q 0.721 -0.327 0.687 -0.327 M 0.6880000000000001 -0.133 L 0.089 -0.133 Q 0.057 -0.133 0.056 -0.153 Q 0.056 -0.17300000000000001 0.09 -0.17300000000000001 L 0.687 -0.17300000000000001 Q 0.719 -0.17300000000000001 0.721 -0.153 Q 0.721 -0.133 0.6880000000000001 -0.133 Z"/></g><g transform="translate(11.299722222222224,5.449666666666666)"><path fill="rgb(0,51,153)" stroke="none" paint-order="stroke fill markers" d=" M 0.486 -0.381 L 0.39 0.001 Q 0.366 0.099 0.28300000000000003 0.16 Q 0.222 0.20500000000000002 0.156 0.20500000000000002 Q 0.089 0.20500000000000002 0.061 0.159 Q 0.05 0.14 0.05 0.11800000000000001 Q 0.05 0.067 0.091 0.055 Q 0.099 0.053 0.106 0.053 Q 0.138 0.053 0.14200000000000002 0.081 Q 0.14300000000000002 0.084 0.14300000000000002 0.088 Q 0.14300000000000002 0.111 0.123 0.129 Q 0.109 0.14100000000000001 0.08 0.14100000000000001 Q 0.098 0.183 0.156 0.183 Q 0.218 0.183 0.266 0.12 Q 0.305 0.068 0.328 -0.021 Q 0.329 -0.025 0.331 -0.034 Q 0.28600000000000003 0.011 0.23 0.011 Q 0.15 0.011 0.121 -0.048 Q 0.108 -0.074 0.108 -0.108 Q 0.108 -0.163 0.161 -0.305 Q 0.163 -0.311 0.166 -0.318 Q 0.183 -0.364 0.183 -0.388 Q 0.183 -0.42 0.158 -0.42 Q 0.10300000000000001 -0.42 0.068 -0.329 L 0.068 -0.328 Q 0.062 -0.313 0.057 -0.296 Q 0.046 -0.279 0.041 -0.278 Q 0.029 -0.278 0.029 -0.28800000000000003 Q 0.029 -0.306 0.05 -0.35100000000000003 Q 0.094 -0.442 0.161 -0.442 Q 0.214 -0.442 0.23500000000000001 -0.397 Q 0.243 -0.38 0.243 -0.36 Q 0.243 -0.339 0.223 -0.28800000000000003 Q 0.17200000000000001 -0.156 0.17200000000000001 -0.092 Q 0.17200000000000001 -0.011 0.234 -0.011 Q 0.292 -0.011 0.335 -0.073 Q 0.34500000000000003 -0.088 0.34700000000000003 -0.096 L 0.392 -0.276 Q 0.399 -0.309 0.41200000000000003 -0.356 Q 0.422 -0.399 0.426 -0.41000000000000003 Q 0.439 -0.431 0.461 -0.431 Q 0.486 -0.426 0.49 -0.404 Q 0.49 -0.395 0.486 -0.381 Z"/></g><g transform="translate(11.789722222222224,5.599666666666667) scale(0.7,0.7)"><path fill="rgb(0,51,153)" stroke="none" paint-order="stroke fill markers" d=" M 0.16 -0.078 L 0.294 -0.615 Q 0.298 -0.631 0.298 -0.634 Q 0.298 -0.646 0.28200000000000003 -0.649 L 0.281 -0.649 L 0.28 -0.649 Q 0.277 -0.649 0.271 -0.65 Q 0.254 -0.652 0.233 -0.652 Q 0.20700000000000002 -0.652 0.20500000000000002 -0.663 Q 0.20500000000000002 -0.681 0.22 -0.683 L 0.221 -0.683 L 0.222 -0.683 L 0.234 -0.683 L 0.5700000000000001 -0.683 Q 0.685 -0.683 0.734 -0.615 Q 0.756 -0.583 0.756 -0.545 Q 0.756 -0.464 0.666 -0.404 Q 0.665 -0.404 0.664 -0.403 Q 0.611 -0.369 0.547 -0.357 Q 0.649 -0.34500000000000003 0.687 -0.277 Q 0.7020000000000001 -0.249 0.7020000000000001 -0.216 Q 0.7020000000000001 -0.14300000000000002 0.632 -0.079 L 0.631 -0.078 Q 0.545 0 0.426 0 L 0.069 0 Q 0.044 0 0.042 -0.011 Q 0.042 -0.029 0.057 -0.031 L 0.069 -0.031 Q 0.134 -0.031 0.147 -0.045 Q 0.153 -0.052000000000000005 0.159 -0.073 Q 0.159 -0.074 0.16 -0.078 M 0.311 -0.366 L 0.457 -0.366 Q 0.556 -0.366 0.62 -0.438 Q 0.665 -0.489 0.665 -0.549 Q 0.665 -0.622 0.605 -0.644 Q 0.584 -0.652 0.556 -0.652 L 0.427 -0.652 Q 0.391 -0.652 0.383 -0.642 L 0.383 -0.642 L 0.383 -0.641 L 0.382 -0.641 L 0.382 -0.64 Q 0.378 -0.634 0.373 -0.614 L 0.311 -0.366 M 0.266 -0.031 L 0.402 -0.031 Q 0.498 -0.031 0.561 -0.10300000000000001 Q 0.609 -0.159 0.609 -0.227 Q 0.609 -0.3 0.557 -0.33 Q 0.531 -0.34400000000000003 0.494 -0.34400000000000003 L 0.305 -0.34400000000000003 L 0.23600000000000002 -0.065 Q 0.231 -0.047 0.231 -0.042 Q 0.231 -0.034 0.24 -0.032 L 0.24 -0.032 L 0.24 -0.032 L 0.244 -0.032 Q 0.25 -0.031 0.266 -0.031 Z"/></g><g transform="translate(12.578244444444445,5.449666666666666)"><path fill="rgb(0,51,153)" stroke="none" paint-order="stroke fill markers" d=" M 0.661 -0.23 L 0.116 -0.23 Q 0.084 -0.23 0.083 -0.25 Q 0.083 -0.27 0.116 -0.27 L 0.661 -0.27 Q 0.6930000000000001 -0.27 0.6940000000000001 -0.25 Q 0.6940000000000001 -0.23 0.661 -0.23 Z"/></g><g transform="translate(13.578466666666667,5.449666666666666)"><path fill="rgb(0,51,153)" stroke="none" paint-order="stroke fill markers" d=" M 0.486 -0.381 L 0.39 0.001 Q 0.366 0.099 0.28300000000000003 0.16 Q 0.222 0.20500000000000002 0.156 0.20500000000000002 Q 0.089 0.20500000000000002 0.061 0.159 Q 0.05 0.14 0.05 0.11800000000000001 Q 0.05 0.067 0.091 0.055 Q 0.099 0.053 0.106 0.053 Q 0.138 0.053 0.14200000000000002 0.081 Q 0.14300000000000002 0.084 0.14300000000000002 0.088 Q 0.14300000000000002 0.111 0.123 0.129 Q 0.109 0.14100000000000001 0.08 0.14100000000000001 Q 0.098 0.183 0.156 0.183 Q 0.218 0.183 0.266 0.12 Q 0.305 0.068 0.328 -0.021 Q 0.329 -0.025 0.331 -0.034 Q 0.28600000000000003 0.011 0.23 0.011 Q 0.15 0.011 0.121 -0.048 Q 0.108 -0.074 0.108 -0.108 Q 0.108 -0.163 0.161 -0.305 Q 0.163 -0.311 0.166 -0.318 Q 0.183 -0.364 0.183 -0.388 Q 0.183 -0.42 0.158 -0.42 Q 0.10300000000000001 -0.42 0.068 -0.329 L 0.068 -0.328 Q 0.062 -0.313 0.057 -0.296 Q 0.046 -0.279 0.041 -0.278 Q 0.029 -0.278 0.029 -0.28800000000000003 Q 0.029 -0.306 0.05 -0.35100000000000003 Q 0.094 -0.442 0.161 -0.442 Q 0.214 -0.442 0.23500000000000001 -0.397 Q 0.243 -0.38 0.243 -0.36 Q 0.243 -0.339 0.223 -0.28800000000000003 Q 0.17200000000000001 -0.156 0.17200000000000001 -0.092 Q 0.17200000000000001 -0.011 0.234 -0.011 Q 0.292 -0.011 0.335 -0.073 Q 0.34500000000000003 -0.088 0.34700000000000003 -0.096 L 0.392 -0.276 Q 0.399 -0.309 0.41200000000000003 -0.356 Q 0.422 -0.399 0.426 -0.41000000000000003 Q 0.439 -0.431 0.461 -0.431 Q 0.486 -0.426 0.49 -0.404 Q 0.49 -0.395 0.486 -0.381 Z"/></g><g transform="translate(14.068466666666668,5.599666666666667) scale(0.7,0.7)"><path fill="rgb(0,51,153)" stroke="none" paint-order="stroke fill markers" d=" M 0.179 -0.115 L 0.527 -0.6990000000000001 Q 0.537 -0.715 0.553 -0.716 Q 0.5680000000000001 -0.716 0.5700000000000001 -0.706 Q 0.5710000000000001 -0.7030000000000001 0.5720000000000001 -0.6920000000000001 L 0.633 -0.067 Q 0.636 -0.042 0.645 -0.037 L 0.646 -0.037 L 0.646 -0.037 L 0.646 -0.037 L 0.646 -0.037 L 0.646 -0.036000000000000004 Q 0.658 -0.031 0.6980000000000001 -0.031 Q 0.72 -0.031 0.721 -0.02 Q 0.721 0 0.7030000000000001 0 L 0.591 -0.003 L 0.59 -0.003 L 0.466 0 L 0.465 0 Q 0.451 0 0.451 -0.011 Q 0.459 -0.03 0.47500000000000003 -0.031 Q 0.547 -0.031 0.547 -0.064 Q 0.547 -0.063 0.531 -0.231 L 0.28 -0.231 L 0.20400000000000001 -0.10300000000000001 Q 0.19 -0.078 0.19 -0.066 Q 0.19 -0.035 0.23700000000000002 -0.031 Q 0.253 -0.031 0.253 -0.019 Q 0.253 0 0.234 0 L 0.138 -0.003 L 0.134 -0.003 L 0.05 0 L 0.048 0 Q 0.035 0 0.035 -0.011 Q 0.035 -0.029 0.05 -0.03 L 0.05 -0.031 L 0.056 -0.031 Q 0.11900000000000001 -0.035 0.159 -0.085 Q 0.169 -0.098 0.179 -0.115 M 0.299 -0.262 L 0.528 -0.262 L 0.496 -0.592 L 0.299 -0.262 Z"/></g></g></g></g></svg>
