<svg version="1.1" xmlns="http://www.w3.org/2000/svg" xmlns:xlink="http://www.w3.org/1999/xlink" width="515" height="567"><defs><clipPath id="LznsTgHVTEln"><path fill="none" stroke="none" d=" M 0 0 L 515 0 L 515 567 L 0 567 L 0 0 Z"/></clipPath></defs><g transform="scale(1,1)" clip-path="url(#LznsTgHVTEln)"><g><rect fill="rgb(255,255,255)" stroke="none" x="0" y="0" width="515" height="568" fill-opacity="1"/><path fill="none" stroke="rgb(192,192,192)" paint-order="fill stroke markers" d=" M 15.5 0.5 L 15.5 567.5 M 15.5 0.5 L 15.5 567.5 M 95.5 0.5 L 95.5 567.5 M 176.5 0.5 L 176.5 567.5 M 337.5 0.5 L 337.5 567.5 M 418.5 0.5 L 418.5 567.5 M 498.5 0.5 L 498.5 567.5" stroke-opacity="1" stroke-linecap="round" stroke-linejoin="round" stroke-miterlimit="10"/><path fill="none" stroke="rgb(192,192,192)" paint-order="fill stroke markers" d=" M 31.5 0.5 L 31.5 567.5 M 47.5 0.5 L 47.5 567.5 M 63.5 0.5 L 63.5 567.5 M 79.5 0.5 L 79.5 567.5 M 112.5 0.5 L 112.5 567.5 M 128.5 0.5 L 128.5 567.5 M 144.5 0.5 L 144.5 567.5 M 160.5 0.5 L 160.5 567.5 M 192.5 0.5 L 192.5 567.5 M 208.5 0.5 L 208.5 567.5 M 224.5 0.5 L 224.5 567.5 M 240.5 0.5 L 240.5 567.5 M 273.5 0.5 L 273.5 567.5 M 289.5 0.5 L 289.5 567.5 M 305.5 0.5 L 305.5 567.5 M 321.5 0.5 L 321.5 567.5 M 353.5 0.5 L 353.5 567.5 M 369.5 0.5 L 369.5 567.5 M 385.5 0.5 L 385.5 567.5 M 401.5 0.5 L 401.5 567.5 M 434.5 0.5 L 434.5 567.5 M 450.5 0.5 L 450.5 567.5 M 466.5 0.5 L 466.5 567.5 M 482.5 0.5 L 482.5 567.5 M 514.5 0.5 L 514.5 567.5" stroke-opacity="0.23529411764705882" stroke-linecap="round" stroke-linejoin="round" stroke-miterlimit="10"/><path fill="none" stroke="rgb(192,192,192)" paint-order="fill stroke markers" d=" M 0.5 14.5 L 515.5 14.5 M 0.5 14.5 L 515.5 14.5 M 0.5 95.5 L 515.5 95.5 M 0.5 175.5 L 515.5 175.5 M 0.5 256.5 L 515.5 256.5 M 0.5 337.5 L 515.5 337.5 M 0.5 417.5 L 515.5 417.5" stroke-opacity="1" stroke-linecap="round" stroke-linejoin="round" stroke-miterlimit="10"/><path fill="none" stroke="rgb(192,192,192)" paint-order="fill stroke markers" d=" M 0.5 14.5 L 515.5 14.5 M 0.5 31.5 L 515.5 31.5 M 0.5 47.5 L 515.5 47.5 M 0.5 63.5 L 515.5 63.5 M 0.5 79.5 L 515.5 79.5 M 0.5 111.5 L 515.5 111.5 M 0.5 127.5 L 515.5 127.5 M 0.5 143.5 L 515.5 143.5 M 0.5 159.5 L 515.5 159.5 M 0.5 192.5 L 515.5 192.5 M 0.5 208.5 L 515.5 208.5 M 0.5 224.5 L 515.5 224.5 M 0.5 240.5 L 515.5 240.5 M 0.5 272.5 L 515.5 272.5 M 0.5 288.5 L 515.5 288.5 M 0.5 304.5 L 515.5 304.5 M 0.5 320.5 L 515.5 320.5 M 0.5 353.5 L 515.5 353.5 M 0.5 369.5 L 515.5 369.5 M 0.5 385.5 L 515.5 385.5 M 0.5 401.5 L 515.5 401.5 M 0.5 433.5 L 515.5 433.5 M 0.5 449.5 L 515.5 449.5 M 0.5 465.5 L 515.5 465.5 M 0.5 481.5 L 515.5 481.5 M 0.5 514.5 L 515.5 514.5 M 0.5 530.5 L 515.5 530.5 M 0.5 546.5 L 515.5 546.5 M 0.5 562.5 L 515.5 562.5" stroke-opacity="0.23529411764705882" stroke-linecap="round" stroke-linejoin="round" stroke-miterlimit="10"/><path fill="none" stroke="rgb(37,37,37)" paint-order="fill stroke markers" d=" M 256.5 2.5 L 256.5 567.5" stroke-opacity="1" stroke-miterlimit="10"/><path fill="none" stroke="rgb(37,37,37)" paint-order="fill stroke markers" d=" M 256.5 1.5 L 249.5 8.5" stroke-opacity="1" stroke-miterlimit="10"/><path fill="none" stroke="rgb(37,37,37)" paint-order="fill stroke markers" d=" M 256.5 1.5 L 263.5 8.5" stroke-opacity="1" stroke-miterlimit="10"/><path fill="none" stroke="rgb(37,37,37)" paint-order="fill stroke markers" d=" M 0.5 498.5 L 513.5 498.5" stroke-opacity="1" stroke-miterlimit="10"/><path fill="none" stroke="rgb(37,37,37)" paint-order="fill stroke markers" d=" M 514.5 498.5 L 507.5 491.5" stroke-opacity="1" stroke-miterlimit="10"/><path fill="none" stroke="rgb(37,37,37)" paint-order="fill stroke markers" d=" M 514.5 498.5 L 507.5 505.5" stroke-opacity="1" stroke-miterlimit="10"/><text fill="rgb(37,37,37)" stroke="none" font-family="geogebra-sans-serif, sans-serif" font-size="21px" font-style="normal" font-weight="normal" text-decoration="normal" x="5" y="523" text-anchor="start" dominant-baseline="alphabetic" fill-opacity="1">–3</text><text fill="rgb(37,37,37)" stroke="none" font-family="geogebra-sans-serif, sans-serif" font-size="21px" font-style="normal" font-weight="normal" text-decoration="normal" x="86" y="523" text-anchor="start" dominant-baseline="alphabetic" fill-opacity="1">–2</text><text fill="rgb(37,37,37)" stroke="none" font-family="geogebra-sans-serif, sans-serif" font-size="21px" font-style="normal" font-weight="normal" text-decoration="normal" x="166" y="523" text-anchor="start" dominant-baseline="alphabetic" fill-opacity="1">–1</text><text fill="rgb(37,37,37)" stroke="none" font-family="geogebra-sans-serif, sans-serif" font-size="21px" font-style="normal" font-weight="normal" text-decoration="normal" x="333" y="523" text-anchor="start" dominant-baseline="alphabetic" fill-opacity="1">1</text><text fill="rgb(37,37,37)" stroke="none" font-family="geogebra-sans-serif, sans-serif" font-size="21px" font-style="normal" font-weight="normal" text-decoration="normal" x="413" y="523" text-anchor="start" dominant-baseline="alphabetic" fill-opacity="1">2</text><text fill="rgb(37,37,37)" stroke="none" font-family="geogebra-sans-serif, sans-serif" font-size="21px" font-style="normal" font-weight="normal" text-decoration="normal" x="494" y="523" text-anchor="start" dominant-baseline="alphabetic" fill-opacity="1">3</text><text fill="rgb(37,37,37)" stroke="none" font-family="geogebra-sans-serif, sans-serif" font-size="21px" font-style="normal" font-weight="normal" text-decoration="normal" x="235" y="427" text-anchor="start" dominant-baseline="alphabetic" fill-opacity="1">1</text><text fill="rgb(37,37,37)" stroke="none" font-family="geogebra-sans-serif, sans-serif" font-size="21px" font-style="normal" font-weight="normal" text-decoration="normal" x="235" y="346" text-anchor="start" dominant-baseline="alphabetic" fill-opacity="1">2</text><text fill="rgb(37,37,37)" stroke="none" font-family="geogebra-sans-serif, sans-serif" font-size="21px" font-style="normal" font-weight="normal" text-decoration="normal" x="235" y="265" text-anchor="start" dominant-baseline="alphabetic" fill-opacity="1">3</text><text fill="rgb(37,37,37)" stroke="none" font-family="geogebra-sans-serif, sans-serif" font-size="21px" font-style="normal" font-weight="normal" text-decoration="normal" x="235" y="185" text-anchor="start" dominant-baseline="alphabetic" fill-opacity="1">4</text><text fill="rgb(37,37,37)" stroke="none" font-family="geogebra-sans-serif, sans-serif" font-size="21px" font-style="normal" font-weight="normal" text-decoration="normal" x="235" y="104" text-anchor="start" dominant-baseline="alphabetic" fill-opacity="1">5</text><text fill="rgb(37,37,37)" stroke="none" font-family="geogebra-sans-serif, sans-serif" font-size="21px" font-style="normal" font-weight="normal" text-decoration="normal" x="235" y="24" text-anchor="start" dominant-baseline="alphabetic" fill-opacity="1">6</text><text fill="rgb(37,37,37)" stroke="none" font-family="geogebra-sans-serif, sans-serif" font-size="21px" font-style="normal" font-weight="normal" text-decoration="normal" x="235" y="523" text-anchor="start" dominant-baseline="alphabetic" fill-opacity="1">0</text><path fill="none" stroke="rgb(153,51,0)" paint-order="fill stroke markers" d=" M 95.92065954545467 498.0706122727274 L 95.92065954545467 175.96861227272683 L 418.02265954545487 175.96861227272683 L 418.02265954545487 498.0706122727274" stroke-opacity="0.6980392156862745" stroke-linejoin="round" stroke-miterlimit="10" stroke-width="3.5" stroke-dasharray="3.5,3"/><path fill="none" stroke="rgb(255,0,0)" paint-order="fill stroke markers" d=" M 15.395159545454618 -226.6588877272739 C 176.44615954545472 739.6471122727278 337.4971595454548 739.6471122727278 498.54815954545495 -226.6588877272739" stroke-opacity="0.6980392156862745" stroke-linecap="round" stroke-linejoin="round" stroke-miterlimit="10" stroke-width="2.5"/><text fill="rgb(255,0,0)" stroke="none" font-family="geogebra-sans-serif, sans-serif" font-size="28px" font-style="normal" font-weight="normal" text-decoration="normal" x="257" y="391" text-anchor="start" dominant-baseline="alphabetic" fill-opacity="1">f: y = x²</text></g></g></svg>