<svg version="1.1" xmlns="http://www.w3.org/2000/svg" xmlns:xlink="http://www.w3.org/1999/xlink" width="885" height="567"><defs><clipPath id="LFvptexmpfua"><path fill="none" stroke="none" d=" M 0 0 L 885 0 L 885 567 L 0 567 L 0 0 Z"/></clipPath></defs><g transform="scale(1,1)" clip-path="url(#LFvptexmpfua)"><g><rect fill="rgb(255,255,255)" stroke="none" x="0" y="0" width="885" height="568" fill-opacity="1"/><path fill="none" stroke="rgb(192,192,192)" paint-order="fill stroke markers" d=" M 70.5 0.5 L 70.5 567.5 M 70.5 0.5 L 70.5 567.5 M 163.5 0.5 L 163.5 567.5 M 257.5 0.5 L 257.5 567.5 M 350.5 0.5 L 350.5 567.5 M 537.5 0.5 L 537.5 567.5 M 630.5 0.5 L 630.5 567.5 M 723.5 0.5 L 723.5 567.5 M 817.5 0.5 L 817.5 567.5" stroke-opacity="1" stroke-linecap="round" stroke-linejoin="round" stroke-miterlimit="10"/><path fill="none" stroke="rgb(192,192,192)" paint-order="fill stroke markers" d=" M 14.5 0.5 L 14.5 567.5 M 33.5 0.5 L 33.5 567.5 M 51.5 0.5 L 51.5 567.5 M 89.5 0.5 L 89.5 567.5 M 107.5 0.5 L 107.5 567.5 M 126.5 0.5 L 126.5 567.5 M 145.5 0.5 L 145.5 567.5 M 182.5 0.5 L 182.5 567.5 M 201.5 0.5 L 201.5 567.5 M 219.5 0.5 L 219.5 567.5 M 238.5 0.5 L 238.5 567.5 M 275.5 0.5 L 275.5 567.5 M 294.5 0.5 L 294.5 567.5 M 313.5 0.5 L 313.5 567.5 M 331.5 0.5 L 331.5 567.5 M 369.5 0.5 L 369.5 567.5 M 387.5 0.5 L 387.5 567.5 M 406.5 0.5 L 406.5 567.5 M 425.5 0.5 L 425.5 567.5 M 462.5 0.5 L 462.5 567.5 M 481.5 0.5 L 481.5 567.5 M 499.5 0.5 L 499.5 567.5 M 518.5 0.5 L 518.5 567.5 M 555.5 0.5 L 555.5 567.5 M 574.5 0.5 L 574.5 567.5 M 593.5 0.5 L 593.5 567.5 M 611.5 0.5 L 611.5 567.5 M 649.5 0.5 L 649.5 567.5 M 667.5 0.5 L 667.5 567.5 M 686.5 0.5 L 686.5 567.5 M 705.5 0.5 L 705.5 567.5 M 742.5 0.5 L 742.5 567.5 M 761.5 0.5 L 761.5 567.5 M 779.5 0.5 L 779.5 567.5 M 798.5 0.5 L 798.5 567.5 M 835.5 0.5 L 835.5 567.5 M 854.5 0.5 L 854.5 567.5 M 873.5 0.5 L 873.5 567.5" stroke-opacity="0.23529411764705882" stroke-linecap="round" stroke-linejoin="round" stroke-miterlimit="10"/><path fill="none" stroke="rgb(192,192,192)" paint-order="fill stroke markers" d=" M 0.5 63.5 L 885.5 63.5 M 0.5 63.5 L 885.5 63.5 M 0.5 156.5 L 885.5 156.5 M 0.5 250.5 L 885.5 250.5 M 0.5 436.5 L 885.5 436.5 M 0.5 530.5 L 885.5 530.5" stroke-opacity="1" stroke-linecap="round" stroke-linejoin="round" stroke-miterlimit="10"/><path fill="none" stroke="rgb(192,192,192)" paint-order="fill stroke markers" d=" M 0.5 7.5 L 885.5 7.5 M 0.5 7.5 L 885.5 7.5 M 0.5 26.5 L 885.5 26.5 M 0.5 44.5 L 885.5 44.5 M 0.5 82.5 L 885.5 82.5 M 0.5 100.5 L 885.5 100.5 M 0.5 119.5 L 885.5 119.5 M 0.5 138.5 L 885.5 138.5 M 0.5 175.5 L 885.5 175.5 M 0.5 194.5 L 885.5 194.5 M 0.5 212.5 L 885.5 212.5 M 0.5 231.5 L 885.5 231.5 M 0.5 268.5 L 885.5 268.5 M 0.5 287.5 L 885.5 287.5 M 0.5 306.5 L 885.5 306.5 M 0.5 324.5 L 885.5 324.5 M 0.5 362.5 L 885.5 362.5 M 0.5 380.5 L 885.5 380.5 M 0.5 399.5 L 885.5 399.5 M 0.5 418.5 L 885.5 418.5 M 0.5 455.5 L 885.5 455.5 M 0.5 474.5 L 885.5 474.5 M 0.5 492.5 L 885.5 492.5 M 0.5 511.5 L 885.5 511.5 M 0.5 548.5 L 885.5 548.5" stroke-opacity="0.23529411764705882" stroke-linecap="round" stroke-linejoin="round" stroke-miterlimit="10"/><path fill="none" stroke="rgb(37,37,37)" paint-order="fill stroke markers" d=" M 443.5 2.5 L 443.5 567.5" stroke-opacity="1" stroke-miterlimit="10"/><path fill="none" stroke="rgb(37,37,37)" paint-order="fill stroke markers" d=" M 443.5 1.5 L 436.5 8.5" stroke-opacity="1" stroke-miterlimit="10"/><path fill="none" stroke="rgb(37,37,37)" paint-order="fill stroke markers" d=" M 443.5 1.5 L 450.5 8.5" stroke-opacity="1" stroke-miterlimit="10"/><path fill="none" stroke="rgb(37,37,37)" paint-order="fill stroke markers" d=" M 0.5 343.5 L 883.5 343.5" stroke-opacity="1" stroke-miterlimit="10"/><path fill="none" stroke="rgb(37,37,37)" paint-order="fill stroke markers" d=" M 884.5 343.5 L 877.5 336.5" stroke-opacity="1" stroke-miterlimit="10"/><path fill="none" stroke="rgb(37,37,37)" paint-order="fill stroke markers" d=" M 884.5 343.5 L 877.5 350.5" stroke-opacity="1" stroke-miterlimit="10"/><text fill="rgb(37,37,37)" stroke="none" font-family="geogebra-sans-serif, sans-serif" font-size="21px" font-style="normal" font-weight="normal" text-decoration="normal" x="61" y="368" text-anchor="start" dominant-baseline="alphabetic" fill-opacity="1">–4</text><text fill="rgb(37,37,37)" stroke="none" font-family="geogebra-sans-serif, sans-serif" font-size="21px" font-style="normal" font-weight="normal" text-decoration="normal" x="154" y="368" text-anchor="start" dominant-baseline="alphabetic" fill-opacity="1">–3</text><text fill="rgb(37,37,37)" stroke="none" font-family="geogebra-sans-serif, sans-serif" font-size="21px" font-style="normal" font-weight="normal" text-decoration="normal" x="247" y="368" text-anchor="start" dominant-baseline="alphabetic" fill-opacity="1">–2</text><text fill="rgb(37,37,37)" stroke="none" font-family="geogebra-sans-serif, sans-serif" font-size="21px" font-style="normal" font-weight="normal" text-decoration="normal" x="341" y="368" text-anchor="start" dominant-baseline="alphabetic" fill-opacity="1">–1</text><text fill="rgb(37,37,37)" stroke="none" font-family="geogebra-sans-serif, sans-serif" font-size="21px" font-style="normal" font-weight="normal" text-decoration="normal" x="532" y="368" text-anchor="start" dominant-baseline="alphabetic" fill-opacity="1">1</text><text fill="rgb(37,37,37)" stroke="none" font-family="geogebra-sans-serif, sans-serif" font-size="21px" font-style="normal" font-weight="normal" text-decoration="normal" x="626" y="368" text-anchor="start" dominant-baseline="alphabetic" fill-opacity="1">2</text><text fill="rgb(37,37,37)" stroke="none" font-family="geogebra-sans-serif, sans-serif" font-size="21px" font-style="normal" font-weight="normal" text-decoration="normal" x="719" y="368" text-anchor="start" dominant-baseline="alphabetic" fill-opacity="1">3</text><text fill="rgb(37,37,37)" stroke="none" font-family="geogebra-sans-serif, sans-serif" font-size="21px" font-style="normal" font-weight="normal" text-decoration="normal" x="812" y="368" text-anchor="start" dominant-baseline="alphabetic" fill-opacity="1">4</text><text fill="rgb(37,37,37)" stroke="none" font-family="geogebra-sans-serif, sans-serif" font-size="21px" font-style="normal" font-weight="normal" text-decoration="normal" x="411" y="539" text-anchor="start" dominant-baseline="alphabetic" fill-opacity="1">–2</text><text fill="rgb(37,37,37)" stroke="none" font-family="geogebra-sans-serif, sans-serif" font-size="21px" font-style="normal" font-weight="normal" text-decoration="normal" x="411" y="446" text-anchor="start" dominant-baseline="alphabetic" fill-opacity="1">–1</text><text fill="rgb(37,37,37)" stroke="none" font-family="geogebra-sans-serif, sans-serif" font-size="21px" font-style="normal" font-weight="normal" text-decoration="normal" x="422" y="259" text-anchor="start" dominant-baseline="alphabetic" fill-opacity="1">1</text><text fill="rgb(37,37,37)" stroke="none" font-family="geogebra-sans-serif, sans-serif" font-size="21px" font-style="normal" font-weight="normal" text-decoration="normal" x="422" y="166" text-anchor="start" dominant-baseline="alphabetic" fill-opacity="1">2</text><text fill="rgb(37,37,37)" stroke="none" font-family="geogebra-sans-serif, sans-serif" font-size="21px" font-style="normal" font-weight="normal" text-decoration="normal" x="422" y="73" text-anchor="start" dominant-baseline="alphabetic" fill-opacity="1">3</text><text fill="rgb(37,37,37)" stroke="none" font-family="geogebra-sans-serif, sans-serif" font-size="21px" font-style="normal" font-weight="normal" text-decoration="normal" x="422" y="368" text-anchor="start" dominant-baseline="alphabetic" fill-opacity="1">0</text><path fill="none" stroke="rgb(255,0,0)" paint-order="fill stroke markers" d=" M 257.2541475635313 -29.676907356801905 C 381.69326645716444 468.079568217731 506.13238535079756 468.079568217731 630.5715042444307 -29.676907356801905" stroke-opacity="0.6980392156862745" stroke-linecap="round" stroke-linejoin="round" stroke-miterlimit="10" stroke-width="2.5"/><text fill="rgb(255,0,0)" stroke="none" font-family="geogebra-sans-serif, sans-serif" font-size="28px" font-style="normal" font-weight="normal" text-decoration="normal" x="296" y="220" text-anchor="start" dominant-baseline="alphabetic" fill-opacity="1">y = x²</text><path fill="none" stroke="rgb(128,0,128)" paint-order="fill stroke markers" d=" M -302.7218874578176 -1149.6289773995009 C 195.03458811671481 841.3969248986306 692.7910636912472 841.3969248986306 1190.5475392657795 -1149.6289773995009" stroke-opacity="0.6980392156862745" stroke-linecap="round" stroke-linejoin="round" stroke-miterlimit="10" stroke-width="2.5"/><text fill="rgb(128,0,128)" stroke="none" font-family="geogebra-sans-serif, sans-serif" font-size="28px" font-style="normal" font-weight="normal" text-decoration="normal" x="99" y="50" text-anchor="start" dominant-baseline="alphabetic" fill-opacity="1">y = x² / 4</text><path fill="none" stroke="rgb(153,102,0)" paint-order="fill stroke markers" d=" M 319.4737070103479 -154.11602625043508 C 402.43311960610333 509.55927451560865 485.39253220185867 509.55927451560865 568.3519447976141 -154.11602625043508" stroke-opacity="0.6980392156862745" stroke-linecap="round" stroke-linejoin="round" stroke-miterlimit="10" stroke-width="2.5"/><text fill="rgb(153,102,0)" stroke="none" font-family="geogebra-sans-serif, sans-serif" font-size="28px" font-style="normal" font-weight="normal" text-decoration="normal" x="442" y="262" text-anchor="start" dominant-baseline="alphabetic" fill-opacity="1">y = 3x²</text><path fill="none" stroke="rgb(0,102,51)" paint-order="fill stroke markers" d=" M 319.4737070103479 841.3969248986306 C 402.43311960610333 177.7216241325868 485.39253220185867 177.7216241325868 568.3519447976141 841.3969248986306" stroke-opacity="0.6980392156862745" stroke-linecap="round" stroke-linejoin="round" stroke-miterlimit="10" stroke-width="2.5"/><text fill="rgb(0,102,51)" stroke="none" font-family="geogebra-sans-serif, sans-serif" font-size="28px" font-style="normal" font-weight="normal" text-decoration="normal" x="447" y="419" text-anchor="start" dominant-baseline="alphabetic" fill-opacity="1">y = -3 x²</text></g></g></svg>