<svg version="1.1" xmlns="http://www.w3.org/2000/svg" xmlns:xlink="http://www.w3.org/1999/xlink" width="633" height="567"><defs><clipPath id="rDpsHlOTxToq"><path fill="none" stroke="none" d=" M 0 0 L 633 0 L 633 567 L 0 567 L 0 0 Z"/></clipPath></defs><g transform="scale(1,1)" clip-path="url(#rDpsHlOTxToq)"><g><rect fill="rgb(255,255,255)" stroke="none" x="0" y="0" width="634" height="568" fill-opacity="1"/><path fill="none" stroke="rgb(192,192,192)" paint-order="fill stroke markers" d=" M 29.5 0.5 L 29.5 567.5 M 29.5 0.5 L 29.5 567.5 M 89.5 0.5 L 89.5 567.5 M 149.5 0.5 L 149.5 567.5 M 209.5 0.5 L 209.5 567.5 M 270.5 0.5 L 270.5 567.5 M 390.5 0.5 L 390.5 567.5 M 450.5 0.5 L 450.5 567.5 M 510.5 0.5 L 510.5 567.5 M 570.5 0.5 L 570.5 567.5 M 630.5 0.5 L 630.5 567.5" stroke-opacity="1" stroke-linecap="round" stroke-linejoin="round" stroke-miterlimit="10"/><path fill="none" stroke="rgb(192,192,192)" paint-order="fill stroke markers" d=" M 5.5 0.5 L 5.5 567.5 M 17.5 0.5 L 17.5 567.5 M 41.5 0.5 L 41.5 567.5 M 53.5 0.5 L 53.5 567.5 M 65.5 0.5 L 65.5 567.5 M 77.5 0.5 L 77.5 567.5 M 101.5 0.5 L 101.5 567.5 M 113.5 0.5 L 113.5 567.5 M 125.5 0.5 L 125.5 567.5 M 137.5 0.5 L 137.5 567.5 M 161.5 0.5 L 161.5 567.5 M 173.5 0.5 L 173.5 567.5 M 185.5 0.5 L 185.5 567.5 M 197.5 0.5 L 197.5 567.5 M 221.5 0.5 L 221.5 567.5 M 233.5 0.5 L 233.5 567.5 M 245.5 0.5 L 245.5 567.5 M 257.5 0.5 L 257.5 567.5 M 282.5 0.5 L 282.5 567.5 M 294.5 0.5 L 294.5 567.5 M 306.5 0.5 L 306.5 567.5 M 318.5 0.5 L 318.5 567.5 M 342.5 0.5 L 342.5 567.5 M 354.5 0.5 L 354.5 567.5 M 366.5 0.5 L 366.5 567.5 M 378.5 0.5 L 378.5 567.5 M 402.5 0.5 L 402.5 567.5 M 414.5 0.5 L 414.5 567.5 M 426.5 0.5 L 426.5 567.5 M 438.5 0.5 L 438.5 567.5 M 462.5 0.5 L 462.5 567.5 M 474.5 0.5 L 474.5 567.5 M 486.5 0.5 L 486.5 567.5 M 498.5 0.5 L 498.5 567.5 M 522.5 0.5 L 522.5 567.5 M 534.5 0.5 L 534.5 567.5 M 546.5 0.5 L 546.5 567.5 M 558.5 0.5 L 558.5 567.5 M 582.5 0.5 L 582.5 567.5 M 594.5 0.5 L 594.5 567.5 M 606.5 0.5 L 606.5 567.5 M 618.5 0.5 L 618.5 567.5" stroke-opacity="0.23529411764705882" stroke-linecap="round" stroke-linejoin="round" stroke-miterlimit="10"/><path fill="none" stroke="rgb(192,192,192)" paint-order="fill stroke markers" d=" M 0.5 51.5 L 633.5 51.5 M 0.5 51.5 L 633.5 51.5 M 0.5 111.5 L 633.5 111.5 M 0.5 171.5 L 633.5 171.5 M 0.5 231.5 L 633.5 231.5 M 0.5 291.5 L 633.5 291.5 M 0.5 351.5 L 633.5 351.5 M 0.5 472.5 L 633.5 472.5 M 0.5 532.5 L 633.5 532.5" stroke-opacity="1" stroke-linecap="round" stroke-linejoin="round" stroke-miterlimit="10"/><path fill="none" stroke="rgb(192,192,192)" paint-order="fill stroke markers" d=" M 0.5 2.5 L 633.5 2.5 M 0.5 14.5 L 633.5 14.5 M 0.5 26.5 L 633.5 26.5 M 0.5 38.5 L 633.5 38.5 M 0.5 63.5 L 633.5 63.5 M 0.5 75.5 L 633.5 75.5 M 0.5 87.5 L 633.5 87.5 M 0.5 99.5 L 633.5 99.5 M 0.5 123.5 L 633.5 123.5 M 0.5 135.5 L 633.5 135.5 M 0.5 147.5 L 633.5 147.5 M 0.5 159.5 L 633.5 159.5 M 0.5 183.5 L 633.5 183.5 M 0.5 195.5 L 633.5 195.5 M 0.5 207.5 L 633.5 207.5 M 0.5 219.5 L 633.5 219.5 M 0.5 243.5 L 633.5 243.5 M 0.5 255.5 L 633.5 255.5 M 0.5 267.5 L 633.5 267.5 M 0.5 279.5 L 633.5 279.5 M 0.5 303.5 L 633.5 303.5 M 0.5 315.5 L 633.5 315.5 M 0.5 327.5 L 633.5 327.5 M 0.5 339.5 L 633.5 339.5 M 0.5 363.5 L 633.5 363.5 M 0.5 375.5 L 633.5 375.5 M 0.5 387.5 L 633.5 387.5 M 0.5 399.5 L 633.5 399.5 M 0.5 423.5 L 633.5 423.5 M 0.5 435.5 L 633.5 435.5 M 0.5 448.5 L 633.5 448.5 M 0.5 460.5 L 633.5 460.5 M 0.5 484.5 L 633.5 484.5 M 0.5 496.5 L 633.5 496.5 M 0.5 508.5 L 633.5 508.5 M 0.5 520.5 L 633.5 520.5 M 0.5 544.5 L 633.5 544.5 M 0.5 556.5 L 633.5 556.5" stroke-opacity="0.23529411764705882" stroke-linecap="round" stroke-linejoin="round" stroke-miterlimit="10"/><path fill="none" stroke="rgb(37,37,37)" paint-order="fill stroke markers" d=" M 330.5 2.5 L 330.5 567.5" stroke-opacity="1" stroke-miterlimit="10"/><path fill="none" stroke="rgb(37,37,37)" paint-order="fill stroke markers" d=" M 330.5 1.5 L 323.5 8.5" stroke-opacity="1" stroke-miterlimit="10"/><path fill="none" stroke="rgb(37,37,37)" paint-order="fill stroke markers" d=" M 330.5 1.5 L 337.5 8.5" stroke-opacity="1" stroke-miterlimit="10"/><path fill="none" stroke="rgb(37,37,37)" paint-order="fill stroke markers" d=" M 0.5 411.5 L 631.5 411.5" stroke-opacity="1" stroke-miterlimit="10"/><path fill="none" stroke="rgb(37,37,37)" paint-order="fill stroke markers" d=" M 632.5 411.5 L 625.5 404.5" stroke-opacity="1" stroke-miterlimit="10"/><path fill="none" stroke="rgb(37,37,37)" paint-order="fill stroke markers" d=" M 632.5 411.5 L 625.5 418.5" stroke-opacity="1" stroke-miterlimit="10"/><text fill="rgb(37,37,37)" stroke="none" font-family="geogebra-sans-serif, sans-serif" font-size="21px" font-style="normal" font-weight="normal" text-decoration="normal" x="9" y="436" text-anchor="start" dominant-baseline="alphabetic" fill-opacity="1">–2.5</text><text fill="rgb(37,37,37)" stroke="none" font-family="geogebra-sans-serif, sans-serif" font-size="21px" font-style="normal" font-weight="normal" text-decoration="normal" x="80" y="436" text-anchor="start" dominant-baseline="alphabetic" fill-opacity="1">–2</text><text fill="rgb(37,37,37)" stroke="none" font-family="geogebra-sans-serif, sans-serif" font-size="21px" font-style="normal" font-weight="normal" text-decoration="normal" x="129" y="436" text-anchor="start" dominant-baseline="alphabetic" fill-opacity="1">–1.5</text><text fill="rgb(37,37,37)" stroke="none" font-family="geogebra-sans-serif, sans-serif" font-size="21px" font-style="normal" font-weight="normal" text-decoration="normal" x="200" y="436" text-anchor="start" dominant-baseline="alphabetic" fill-opacity="1">–1</text><text fill="rgb(37,37,37)" stroke="none" font-family="geogebra-sans-serif, sans-serif" font-size="21px" font-style="normal" font-weight="normal" text-decoration="normal" x="250" y="436" text-anchor="start" dominant-baseline="alphabetic" fill-opacity="1">–0.5</text><text fill="rgb(37,37,37)" stroke="none" font-family="geogebra-sans-serif, sans-serif" font-size="21px" font-style="normal" font-weight="normal" text-decoration="normal" x="375" y="436" text-anchor="start" dominant-baseline="alphabetic" fill-opacity="1">0.5</text><text fill="rgb(37,37,37)" stroke="none" font-family="geogebra-sans-serif, sans-serif" font-size="21px" font-style="normal" font-weight="normal" text-decoration="normal" x="446" y="436" text-anchor="start" dominant-baseline="alphabetic" fill-opacity="1">1</text><text fill="rgb(37,37,37)" stroke="none" font-family="geogebra-sans-serif, sans-serif" font-size="21px" font-style="normal" font-weight="normal" text-decoration="normal" x="495" y="436" text-anchor="start" dominant-baseline="alphabetic" fill-opacity="1">1.5</text><text fill="rgb(37,37,37)" stroke="none" font-family="geogebra-sans-serif, sans-serif" font-size="21px" font-style="normal" font-weight="normal" text-decoration="normal" x="566" y="436" text-anchor="start" dominant-baseline="alphabetic" fill-opacity="1">2</text><text fill="rgb(37,37,37)" stroke="none" font-family="geogebra-sans-serif, sans-serif" font-size="21px" font-style="normal" font-weight="normal" text-decoration="normal" x="297" y="541" text-anchor="start" dominant-baseline="alphabetic" fill-opacity="1">–1</text><text fill="rgb(37,37,37)" stroke="none" font-family="geogebra-sans-serif, sans-serif" font-size="21px" font-style="normal" font-weight="normal" text-decoration="normal" x="280" y="481" text-anchor="start" dominant-baseline="alphabetic" fill-opacity="1">–0.5</text><text fill="rgb(37,37,37)" stroke="none" font-family="geogebra-sans-serif, sans-serif" font-size="21px" font-style="normal" font-weight="normal" text-decoration="normal" x="290" y="361" text-anchor="start" dominant-baseline="alphabetic" fill-opacity="1">0.5</text><text fill="rgb(37,37,37)" stroke="none" font-family="geogebra-sans-serif, sans-serif" font-size="21px" font-style="normal" font-weight="normal" text-decoration="normal" x="308" y="301" text-anchor="start" dominant-baseline="alphabetic" fill-opacity="1">1</text><text fill="rgb(37,37,37)" stroke="none" font-family="geogebra-sans-serif, sans-serif" font-size="21px" font-style="normal" font-weight="normal" text-decoration="normal" x="290" y="240" text-anchor="start" dominant-baseline="alphabetic" fill-opacity="1">1.5</text><text fill="rgb(37,37,37)" stroke="none" font-family="geogebra-sans-serif, sans-serif" font-size="21px" font-style="normal" font-weight="normal" text-decoration="normal" x="308" y="180" text-anchor="start" dominant-baseline="alphabetic" fill-opacity="1">2</text><text fill="rgb(37,37,37)" stroke="none" font-family="geogebra-sans-serif, sans-serif" font-size="21px" font-style="normal" font-weight="normal" text-decoration="normal" x="290" y="120" text-anchor="start" dominant-baseline="alphabetic" fill-opacity="1">2.5</text><text fill="rgb(37,37,37)" stroke="none" font-family="geogebra-sans-serif, sans-serif" font-size="21px" font-style="normal" font-weight="normal" text-decoration="normal" x="308" y="60" text-anchor="start" dominant-baseline="alphabetic" fill-opacity="1">3</text><text fill="rgb(37,37,37)" stroke="none" font-family="geogebra-sans-serif, sans-serif" font-size="21px" font-style="normal" font-weight="normal" text-decoration="normal" x="308" y="436" text-anchor="start" dominant-baseline="alphabetic" fill-opacity="1">0</text><path fill="none" stroke="rgb(255,0,0)" paint-order="fill stroke markers" d=" M 89.54169784747225 -69.30594323206566 C 249.95087120347654 572.3307501919512 410.36004455948085 572.3307501919512 570.7692179154851 -69.30594323206566" stroke-opacity="0.6980392156862745" stroke-linecap="round" stroke-linejoin="round" stroke-miterlimit="10" stroke-width="2.5"/><text fill="rgb(255,0,0)" stroke="none" font-family="geogebra-sans-serif, sans-serif" font-size="28px" font-style="normal" font-weight="normal" text-decoration="normal" x="155" y="261" text-anchor="start" dominant-baseline="alphabetic" fill-opacity="1">y = x²</text><path fill="none" stroke="rgb(128,0,128)" paint-order="fill stroke markers" d=" M -30.765182169530988 -550.5334633000783 C 209.8485778644755 893.1490969039597 450.4623378984819 893.1490969039597 691.0760979324884 -550.5334633000783" stroke-opacity="0.6980392156862745" stroke-linecap="round" stroke-linejoin="round" stroke-miterlimit="10" stroke-width="2.5"/><text fill="rgb(128,0,128)" stroke="none" font-family="geogebra-sans-serif, sans-serif" font-size="28px" font-style="normal" font-weight="normal" text-decoration="normal" x="170" y="465" text-anchor="start" dominant-baseline="alphabetic" fill-opacity="1">y = x² - 1</text><path fill="none" stroke="rgb(153,102,0)" paint-order="fill stroke markers" d=" M 89.54169784747225 -189.6128232490688 C 249.95087120347654 452.02387017494806 410.36004455948085 452.02387017494806 570.7692179154851 -189.6128232490688" stroke-opacity="0.6980392156862745" stroke-linecap="round" stroke-linejoin="round" stroke-miterlimit="10" stroke-width="2.5"/><text fill="rgb(153,102,0)" stroke="none" font-family="geogebra-sans-serif, sans-serif" font-size="28px" font-style="normal" font-weight="normal" text-decoration="normal" x="188" y="221" text-anchor="start" dominant-baseline="alphabetic" fill-opacity="1">y = x² + 1</text><path fill="none" stroke="rgb(0,102,51)" paint-order="fill stroke markers" d=" M 89.54169784747225 -309.919703266072 C 249.95087120347654 331.7169901579449 410.36004455948085 331.7169901579449 570.7692179154851 -309.919703266072" stroke-opacity="0.6980392156862745" stroke-linecap="round" stroke-linejoin="round" stroke-miterlimit="10" stroke-width="2.5"/><text fill="rgb(0,102,51)" stroke="none" font-family="geogebra-sans-serif, sans-serif" font-size="28px" font-style="normal" font-weight="normal" text-decoration="normal" x="295" y="97" text-anchor="start" dominant-baseline="alphabetic" fill-opacity="1">y = x² + 2</text></g></g></svg>