<svg version="1.1" xmlns="http://www.w3.org/2000/svg" xmlns:xlink="http://www.w3.org/1999/xlink" width="251" height="359"><defs><clipPath id="FbVWFVhIsyRr"><path fill="none" stroke="none" d=" M 0 0 L 251 0 L 251 359 L 0 359 L 0 0 Z"/></clipPath></defs><g transform="scale(1,1)" clip-path="url(#FbVWFVhIsyRr)"><g><rect fill="rgb(255,255,255)" stroke="none" x="0" y="0" width="251" height="359" fill-opacity="1"/><path fill="none" stroke="rgb(64,64,64)" paint-order="fill stroke markers" d=" M 18.5 0.5 L 18.5 359.5 M 18.5 0.5 L 18.5 359.5 M 68.5 0.5 L 68.5 359.5 M 167.5 0.5 L 167.5 359.5 M 217.5 0.5 L 217.5 359.5" stroke-opacity="1" stroke-linecap="round" stroke-linejoin="round" stroke-miterlimit="10"/><path fill="none" stroke="rgb(64,64,64)" paint-order="fill stroke markers" d="" stroke-opacity="0.23529411764705882" stroke-linecap="round" stroke-linejoin="round" stroke-miterlimit="10"/><path fill="none" stroke="rgb(64,64,64)" paint-order="fill stroke markers" d=" M 0.5 4.5 L 251.5 4.5 M 0.5 4.5 L 251.5 4.5 M 0.5 54.5 L 251.5 54.5 M 0.5 104.5 L 251.5 104.5 M 0.5 154.5 L 251.5 154.5 M 0.5 204.5 L 251.5 204.5 M 0.5 304.5 L 251.5 304.5 M 0.5 354.5 L 251.5 354.5" stroke-opacity="1" stroke-linecap="round" stroke-linejoin="round" stroke-miterlimit="10"/><path fill="none" stroke="rgb(64,64,64)" paint-order="fill stroke markers" d="" stroke-opacity="0.23529411764705882" stroke-linecap="round" stroke-linejoin="round" stroke-miterlimit="10"/><path fill="none" stroke="rgb(0,0,0)" paint-order="fill stroke markers" d=" M 118 3 L 118 359" stroke-opacity="1" stroke-miterlimit="10" stroke-width="2"/><path fill="none" stroke="rgb(0,0,0)" paint-order="fill stroke markers" d=" M 118 2 L 114 6" stroke-opacity="1" stroke-miterlimit="10" stroke-width="2"/><path fill="none" stroke="rgb(0,0,0)" paint-order="fill stroke markers" d=" M 118 2 L 122 6" stroke-opacity="1" stroke-miterlimit="10" stroke-width="2"/><path fill="none" stroke="rgb(0,0,0)" paint-order="fill stroke markers" d=" M 0 254 L 248 254" stroke-opacity="1" stroke-miterlimit="10" stroke-width="2"/><path fill="none" stroke="rgb(0,0,0)" paint-order="fill stroke markers" d=" M 249 254 L 245 250" stroke-opacity="1" stroke-miterlimit="10" stroke-width="2"/><path fill="none" stroke="rgb(0,0,0)" paint-order="fill stroke markers" d=" M 249 254 L 245 258" stroke-opacity="1" stroke-miterlimit="10" stroke-width="2"/><text fill="rgb(0,0,0)" stroke="none" font-family="geogebra-sans-serif, sans-serif" font-size="10px" font-style="normal" font-weight="normal" text-decoration="normal" x="14" y="268" text-anchor="start" dominant-baseline="alphabetic" fill-opacity="1">–2</text><text fill="rgb(0,0,0)" stroke="none" font-family="geogebra-sans-serif, sans-serif" font-size="10px" font-style="normal" font-weight="normal" text-decoration="normal" x="14" y="268" text-anchor="start" dominant-baseline="alphabetic" fill-opacity="1">–2</text><text fill="rgb(0,0,0)" stroke="none" font-family="geogebra-sans-serif, sans-serif" font-size="10px" font-style="normal" font-weight="normal" text-decoration="normal" x="64" y="268" text-anchor="start" dominant-baseline="alphabetic" fill-opacity="1">–1</text><text fill="rgb(0,0,0)" stroke="none" font-family="geogebra-sans-serif, sans-serif" font-size="10px" font-style="normal" font-weight="normal" text-decoration="normal" x="64" y="268" text-anchor="start" dominant-baseline="alphabetic" fill-opacity="1">–1</text><text fill="rgb(0,0,0)" stroke="none" font-family="geogebra-sans-serif, sans-serif" font-size="10px" font-style="normal" font-weight="normal" text-decoration="normal" x="166" y="268" text-anchor="start" dominant-baseline="alphabetic" fill-opacity="1">1</text><text fill="rgb(0,0,0)" stroke="none" font-family="geogebra-sans-serif, sans-serif" font-size="10px" font-style="normal" font-weight="normal" text-decoration="normal" x="166" y="268" text-anchor="start" dominant-baseline="alphabetic" fill-opacity="1">1</text><text fill="rgb(0,0,0)" stroke="none" font-family="geogebra-sans-serif, sans-serif" font-size="10px" font-style="normal" font-weight="normal" text-decoration="normal" x="216" y="268" text-anchor="start" dominant-baseline="alphabetic" fill-opacity="1">2</text><text fill="rgb(0,0,0)" stroke="none" font-family="geogebra-sans-serif, sans-serif" font-size="10px" font-style="normal" font-weight="normal" text-decoration="normal" x="216" y="268" text-anchor="start" dominant-baseline="alphabetic" fill-opacity="1">2</text><text fill="rgb(0,0,0)" stroke="none" font-family="geogebra-sans-serif, sans-serif" font-size="10px" font-style="normal" font-weight="normal" text-decoration="normal" x="100" y="308" text-anchor="start" dominant-baseline="alphabetic" fill-opacity="1">–1</text><text fill="rgb(0,0,0)" stroke="none" font-family="geogebra-sans-serif, sans-serif" font-size="10px" font-style="normal" font-weight="normal" text-decoration="normal" x="100" y="308" text-anchor="start" dominant-baseline="alphabetic" fill-opacity="1">–1</text><text fill="rgb(0,0,0)" stroke="none" font-family="geogebra-sans-serif, sans-serif" font-size="10px" font-style="normal" font-weight="normal" text-decoration="normal" x="105" y="208" text-anchor="start" dominant-baseline="alphabetic" fill-opacity="1">1</text><text fill="rgb(0,0,0)" stroke="none" font-family="geogebra-sans-serif, sans-serif" font-size="10px" font-style="normal" font-weight="normal" text-decoration="normal" x="105" y="208" text-anchor="start" dominant-baseline="alphabetic" fill-opacity="1">1</text><text fill="rgb(0,0,0)" stroke="none" font-family="geogebra-sans-serif, sans-serif" font-size="10px" font-style="normal" font-weight="normal" text-decoration="normal" x="105" y="158" text-anchor="start" dominant-baseline="alphabetic" fill-opacity="1">2</text><text fill="rgb(0,0,0)" stroke="none" font-family="geogebra-sans-serif, sans-serif" font-size="10px" font-style="normal" font-weight="normal" text-decoration="normal" x="105" y="158" text-anchor="start" dominant-baseline="alphabetic" fill-opacity="1">2</text><text fill="rgb(0,0,0)" stroke="none" font-family="geogebra-sans-serif, sans-serif" font-size="10px" font-style="normal" font-weight="normal" text-decoration="normal" x="105" y="108" text-anchor="start" dominant-baseline="alphabetic" fill-opacity="1">3</text><text fill="rgb(0,0,0)" stroke="none" font-family="geogebra-sans-serif, sans-serif" font-size="10px" font-style="normal" font-weight="normal" text-decoration="normal" x="105" y="108" text-anchor="start" dominant-baseline="alphabetic" fill-opacity="1">3</text><text fill="rgb(0,0,0)" stroke="none" font-family="geogebra-sans-serif, sans-serif" font-size="10px" font-style="normal" font-weight="normal" text-decoration="normal" x="105" y="58" text-anchor="start" dominant-baseline="alphabetic" fill-opacity="1">4</text><text fill="rgb(0,0,0)" stroke="none" font-family="geogebra-sans-serif, sans-serif" font-size="10px" font-style="normal" font-weight="normal" text-decoration="normal" x="105" y="58" text-anchor="start" dominant-baseline="alphabetic" fill-opacity="1">4</text><text fill="rgb(0,0,0)" stroke="none" font-family="geogebra-sans-serif, sans-serif" font-size="10px" font-style="normal" font-weight="normal" text-decoration="normal" x="105" y="268" text-anchor="start" dominant-baseline="alphabetic" fill-opacity="1">0</text><text fill="rgb(0,0,0)" stroke="none" font-family="geogebra-sans-serif, sans-serif" font-size="10px" font-style="normal" font-weight="normal" text-decoration="normal" x="105" y="268" text-anchor="start" dominant-baseline="alphabetic" fill-opacity="1">0</text><path fill="none" stroke="rgb(128,0,0)" paint-order="fill stroke markers" d=" M 0.5000000000000142 -26.345000000000084 L 0.5000000000000142 -21.625 L 0.5000000000000142 -21.625000000000057 L 1.5000000000000142 -16.944999999999936 L 1.5000000000000142 -16.94500000000005 L 2.500000000000014 -12.305000000000007 L 2.500000000000014 -12.305000000000064 L 3.500000000000014 -7.704999999999984 L 3.500000000000014 -7.705000000000041 L 4.500000000000014 -3.144999999999982 L 4.500000000000014 -3.1450000000000955 L 5.500000000000014 1.375 L 5.500000000000014 1.3749999999999147 L 6.500000000000014 5.855000000000018 L 6.500000000000014 5.854999999999933 L 7.500000000000014 10.295000000000016 L 7.500000000000014 10.29499999999993 L 8.500000000000014 14.695000000000022 L 8.500000000000014 14.694999999999936 L 9.500000000000014 19.055000000000035 L 9.500000000000014 19.05499999999995 L 10.500000000000014 23.37500000000003 L 10.500000000000014 23.374999999999943 L 11.500000000000028 27.655 L 11.500000000000028 27.654999999999916 L 12.500000000000028 31.89500000000001 L 12.500000000000028 31.894999999999925 L 13.500000000000028 36.09500000000003 L 13.500000000000028 36.09499999999994 L 14.500000000000028 40.255000000000024 L 14.500000000000028 40.25499999999994 L 15.500000000000028 44.375 L 15.500000000000028 44.374999999999915 L 16.50000000000003 48.45500000000004 L 16.50000000000003 48.454999999999956 L 17.50000000000003 52.49500000000003 L 17.50000000000003 52.49499999999995 L 18.50000000000003 56.495000000000005 L 18.50000000000003 56.494999999999976 L 19.50000000000003 60.454999999999984 L 19.50000000000003 60.454999999999956 L 20.50000000000003 64.375 L 20.50000000000003 64.37499999999997 L 21.50000000000003 68.255 L 21.50000000000003 68.25499999999994 L 22.50000000000003 72.095 L 22.50000000000003 72.09499999999997 L 23.50000000000003 75.89500000000001 L 23.50000000000003 75.89499999999995 L 24.50000000000003 79.655 L 24.50000000000003 79.65499999999997 L 25.50000000000003 83.375 L 25.50000000000003 83.37499999999994 L 26.500000000000014 87.05499999999998 L 26.500000000000014 87.05499999999992 L 27.500000000000014 90.69499999999996 L 27.500000000000014 90.69499999999991 L 28.500000000000014 94.29499999999996 L 28.500000000000014 94.2949999999999 L 29.500000000000014 97.85499999999996 L 29.500000000000014 97.85499999999993 L 30.500000000000014 101.37499999999997 L 30.500000000000014 101.37499999999991 L 31.500000000000014 104.85499999999996 L 31.500000000000014 104.8549999999999 L 32.500000000000014 108.29499999999996 L 32.500000000000014 108.2949999999999 L 33.500000000000014 111.69499999999996 L 33.500000000000014 111.69499999999994 L 34.500000000000014 115.05499999999995 L 34.500000000000014 115.05499999999992 L 35.500000000000014 118.37499999999997 L 35.500000000000014 118.37499999999991 L 36.500000000000014 121.65499999999994 L 36.500000000000014 121.65499999999992 L 37.500000000000014 124.89499999999998 L 37.500000000000014 124.89499999999992 L 38.500000000000014 128.09499999999997 L 38.500000000000014 128.0949999999999 L 39.500000000000014 131.255 L 39.500000000000014 131.25499999999994 L 40.500000000000014 134.37499999999994 L 40.500000000000014 134.37499999999991 L 41.500000000000014 137.45499999999998 L 41.500000000000014 137.45499999999993 L 42.500000000000014 140.49499999999998 L 42.500000000000014 140.49499999999992 L 43.500000000000014 143.49499999999998 L 43.500000000000014 143.49499999999992 L 44.500000000000014 146.45499999999998 L 44.500000000000014 146.45499999999993 L 45.500000000000014 149.37499999999994 L 45.500000000000014 149.3749999999999 L 46.500000000000014 152.25499999999994 L 46.500000000000014 152.25499999999988 L 47.500000000000014 155.0949999999999 L 47.500000000000014 155.0949999999999 L 48.500000000000014 157.89499999999992 L 48.500000000000014 157.89499999999992 L 49.500000000000014 160.65499999999992 L 49.500000000000014 160.65499999999992 L 50.500000000000014 163.37499999999994 L 50.500000000000014 163.37499999999991 L 51.500000000000014 166.05499999999992 L 51.500000000000014 166.0549999999999 L 52.500000000000014 168.69499999999994 L 52.500000000000014 168.6949999999999 L 53.500000000000014 171.29499999999993 L 53.500000000000014 171.2949999999999 L 54.500000000000014 173.85499999999993 L 54.500000000000014 173.8549999999999 L 55.500000000000014 176.37499999999994 L 55.500000000000014 176.37499999999991 L 56.500000000000014 178.85499999999993 L 56.500000000000014 178.8549999999999 L 57.500000000000014 181.29499999999993 L 57.500000000000014 181.2949999999999 L 58.500000000000014 183.69499999999994 L 58.500000000000014 183.6949999999999 L 59.500000000000014 186.05499999999995 L 59.500000000000014 186.0549999999999 L 60.500000000000014 188.37499999999994 L 60.500000000000014 188.3749999999999 L 61.500000000000014 190.65499999999992 L 61.500000000000014 190.65499999999992 L 62.500000000000014 192.89499999999992 L 62.500000000000014 192.89499999999992 L 63.500000000000014 195.09499999999994 L 63.500000000000014 195.0949999999999 L 64.50000000000001 197.25499999999994 L 64.50000000000001 197.2549999999999 L 65.50000000000001 199.37499999999994 L 65.50000000000001 199.37499999999991 L 66.50000000000001 201.45499999999993 L 66.50000000000001 201.4549999999999 L 67.50000000000001 203.49499999999995 L 67.50000000000001 203.49499999999992 L 68.50000000000001 205.49499999999992 L 68.50000000000001 205.49499999999992 L 69.50000000000003 207.45499999999993 L 69.50000000000003 207.45499999999993 L 70.50000000000003 209.37499999999994 L 70.50000000000003 209.37499999999991 L 71.50000000000003 211.25499999999994 L 71.50000000000003 211.2549999999999 L 72.50000000000003 213.0949999999999 L 72.50000000000003 213.0949999999999 L 73.50000000000003 214.89499999999992 L 73.50000000000003 214.89499999999992 L 74.50000000000003 216.65499999999992 L 74.50000000000003 216.65499999999992 L 75.50000000000003 218.37499999999994 L 75.50000000000003 218.37499999999991 L 76.50000000000001 220.05499999999992 L 76.50000000000001 220.0549999999999 L 77.50000000000001 221.6949999999999 L 77.50000000000001 221.6949999999999 L 78.50000000000001 223.2949999999999 L 78.50000000000001 223.2949999999999 L 79.50000000000001 224.8549999999999 L 79.50000000000001 224.8549999999999 L 80.50000000000001 226.37499999999991 L 80.50000000000001 226.3749999999999 L 81.50000000000001 227.8549999999999 L 81.50000000000001 227.8549999999999 L 82.50000000000001 229.2949999999999 L 82.50000000000001 229.2949999999999 L 83.50000000000001 230.6949999999999 L 83.50000000000001 230.6949999999999 L 84.50000000000001 232.05499999999992 L 84.50000000000001 232.0549999999999 L 85.50000000000001 233.37499999999991 L 85.50000000000001 233.3749999999999 L 86.50000000000001 234.65499999999992 L 86.50000000000001 234.6549999999999 L 87.50000000000001 235.8949999999999 L 87.50000000000001 235.8949999999999 L 88.50000000000001 237.0949999999999 L 88.50000000000001 237.0949999999999 L 89.50000000000001 238.2549999999999 L 89.50000000000001 238.2549999999999 L 90.50000000000001 239.37499999999991 L 90.50000000000001 239.3749999999999 L 91.50000000000001 240.4549999999999 L 91.50000000000001 240.4549999999999 L 92.50000000000001 241.4949999999999 L 92.50000000000001 241.4949999999999 L 93.50000000000001 242.4949999999999 L 93.50000000000001 242.4949999999999 L 94.50000000000001 243.4549999999999 L 94.50000000000001 243.4549999999999 L 95.50000000000001 244.3749999999999 L 95.50000000000001 244.3749999999999 L 96.50000000000001 245.2549999999999 L 96.50000000000001 245.2549999999999 L 97.50000000000001 246.0949999999999 L 97.50000000000001 246.09499999999989 L 98.50000000000001 246.8949999999999 L 98.50000000000001 246.8949999999999 L 99.50000000000001 247.6549999999999 L 99.50000000000001 247.6549999999999 L 100.50000000000001 248.3749999999999 L 100.50000000000001 248.3749999999999 L 101.50000000000001 249.0549999999999 L 101.50000000000001 249.0549999999999 L 102.50000000000001 249.6949999999999 L 102.50000000000001 249.6949999999999 L 103.50000000000001 250.2949999999999 L 103.50000000000001 250.2949999999999 L 104.50000000000001 250.8549999999999 L 104.50000000000001 250.8549999999999 L 105.50000000000001 251.3749999999999 L 105.50000000000001 251.3749999999999 L 106.50000000000001 251.8549999999999 L 106.50000000000001 251.8549999999999 L 107.50000000000001 252.2949999999999 L 107.50000000000001 252.2949999999999 L 108.50000000000001 252.69499999999988 L 108.50000000000001 252.69499999999988 L 109.50000000000001 253.0549999999999 L 109.50000000000001 253.0549999999999 L 110.50000000000001 253.3749999999999 L 110.50000000000001 253.3749999999999 L 111.50000000000001 253.6549999999999 L 111.50000000000001 253.6549999999999 L 112.50000000000001 253.8949999999999 L 112.50000000000001 253.8949999999999 L 113.50000000000001 254.09499999999989 L 113.50000000000001 254.09499999999989 L 114.50000000000001 254.25499999999988 L 114.50000000000001 254.25499999999988 L 115.50000000000001 254.3749999999999 L 115.50000000000001 254.3749999999999 L 116.50000000000001 254.4549999999999 L 116.50000000000001 254.4549999999999 L 117.50000000000001 254.4949999999999 L 117.50000000000001 254.4949999999999 L 118.50000000000001 254.4999999999999 L 118.50000000000001 254.4949999999999 L 119.50000000000001 254.4549999999999 L 119.50000000000001 254.4549999999999 L 120.50000000000001 254.3749999999999 L 120.50000000000001 254.3749999999999 L 121.50000000000001 254.25499999999988 L 121.50000000000001 254.25499999999988 L 122.50000000000001 254.09499999999989 L 122.50000000000001 254.09499999999989 L 123.50000000000001 253.8949999999999 L 123.50000000000001 253.8949999999999 L 124.50000000000001 253.6549999999999 L 124.50000000000001 253.6549999999999 L 125.50000000000001 253.3749999999999 L 125.50000000000001 253.3749999999999 L 126.50000000000001 253.0549999999999 L 126.50000000000001 253.0549999999999 L 127.50000000000001 252.69499999999988 L 127.50000000000001 252.69499999999988 L 128.5 252.29499999999987 L 128.5 252.29499999999987 L 129.5 251.85499999999988 L 129.5 251.85499999999988 L 130.5 251.3749999999999 L 130.5 251.3749999999999 L 131.5 250.85499999999988 L 131.5 250.85499999999988 L 132.5 250.29499999999987 L 132.5 250.29499999999987 L 133.5 249.69499999999988 L 133.5 249.69499999999988 L 134.5 249.05499999999986 L 134.5 249.05499999999986 L 135.5 248.3749999999999 L 135.5 248.3749999999999 L 136.5 247.6549999999999 L 136.5 247.6549999999999 L 137.5 246.89499999999987 L 137.5 246.89499999999987 L 138.5 246.09499999999989 L 138.5 246.09499999999989 L 139.5 245.25499999999988 L 139.5 245.25499999999988 L 140.5 244.3749999999999 L 140.5 244.3749999999999 L 141.5 243.45499999999987 L 141.5 243.45499999999987 L 142.5 242.49499999999986 L 142.5 242.49499999999986 L 143.5 241.49499999999986 L 143.5 241.4949999999999 L 144.5 240.45499999999987 L 144.5 240.45499999999987 L 145.5 239.37499999999986 L 145.5 239.3749999999999 L 146.5 238.25499999999988 L 146.5 238.25499999999988 L 147.5 237.09499999999986 L 147.5 237.09499999999989 L 148.5 235.89499999999987 L 148.5 235.89499999999987 L 149.5 234.65499999999986 L 149.5 234.6549999999999 L 150.5 233.37499999999986 L 150.5 233.3749999999999 L 151.5 232.05499999999986 L 151.5 232.05499999999986 L 152.5 230.69499999999988 L 152.5 230.69499999999988 L 153.5 229.29499999999987 L 153.5 229.29499999999987 L 154.5 227.85499999999988 L 154.5 227.85499999999988 L 155.5 226.37499999999986 L 155.5 226.3749999999999 L 156.5 224.85499999999985 L 156.5 224.85499999999988 L 157.5 223.29499999999985 L 157.5 223.29499999999987 L 158.5 221.69499999999985 L 158.5 221.69499999999988 L 159.5 220.05499999999986 L 159.5 220.05499999999986 L 160.5 218.37499999999986 L 160.5 218.3749999999999 L 161.5 216.65499999999986 L 161.5 216.65499999999986 L 162.5 214.89499999999987 L 162.5 214.89499999999987 L 163.5 213.09499999999986 L 163.5 213.09499999999986 L 164.5 211.25499999999985 L 164.5 211.25499999999985 L 165.5 209.37499999999986 L 165.5 209.37499999999986 L 166.5 207.45499999999987 L 166.5 207.45499999999987 L 167.5 205.49499999999986 L 167.5 205.49499999999986 L 168.5 203.49499999999986 L 168.5 203.4949999999999 L 169.5 201.45499999999987 L 169.5 201.45499999999987 L 170.5 199.37499999999986 L 170.5 199.3749999999999 L 171.5 197.25499999999985 L 171.5 197.25499999999988 L 172.5 195.09499999999986 L 172.5 195.09499999999989 L 173.5 192.89499999999987 L 173.5 192.89499999999987 L 174.5 190.65499999999986 L 174.5 190.6549999999999 L 175.5 188.37499999999986 L 175.5 188.3749999999999 L 176.5 186.05499999999984 L 176.5 186.0549999999999 L 177.5 183.69499999999988 L 177.5 183.69499999999988 L 178.5 181.29499999999985 L 178.5 181.2949999999999 L 179.5 178.85499999999985 L 179.5 178.85499999999988 L 180.5 176.37499999999986 L 180.5 176.3749999999999 L 181.5 173.85499999999985 L 181.5 173.85499999999988 L 182.5 171.29499999999985 L 182.5 171.29499999999987 L 183.5 168.69499999999985 L 183.5 168.69499999999988 L 184.5 166.05499999999984 L 184.5 166.05499999999986 L 185.5 163.37499999999983 L 185.5 163.3749999999999 L 186.5 160.65499999999986 L 186.5 160.65499999999986 L 187.5 157.89499999999984 L 187.5 157.89499999999987 L 188.5 155.09499999999986 L 188.5 155.09499999999986 L 189.5 152.25499999999982 L 189.5 152.25499999999988 L 190.5 149.37499999999983 L 190.5 149.3749999999999 L 191.5 146.4549999999998 L 191.5 146.45499999999987 L 192.5 143.49499999999983 L 192.5 143.4949999999999 L 193.5 140.49499999999983 L 193.5 140.49499999999986 L 194.5 137.4549999999998 L 194.5 137.45499999999987 L 195.5 134.37499999999983 L 195.5 134.3749999999999 L 196.5 131.25499999999982 L 196.5 131.25499999999988 L 197.5 128.0949999999998 L 197.5 128.09499999999986 L 198.5 124.89499999999981 L 198.5 124.89499999999987 L 199.5 121.65499999999983 L 199.5 121.65499999999986 L 200.5 118.3749999999998 L 200.5 118.37499999999986 L 201.5 115.05499999999981 L 201.5 115.05499999999984 L 202.5 111.6949999999998 L 202.5 111.69499999999985 L 203.5 108.29499999999979 L 203.5 108.29499999999985 L 204.5 104.85499999999982 L 204.5 104.85499999999985 L 205.5 101.3749999999998 L 205.5 101.37499999999983 L 206.5 97.85499999999985 L 206.5 97.8549999999999 L 207.5 94.29499999999985 L 207.5 94.2949999999999 L 208.5 90.69499999999985 L 208.5 90.69499999999991 L 209.5 87.05499999999984 L 209.5 87.05499999999986 L 210.5 83.37499999999983 L 210.5 83.37499999999989 L 211.5 79.65499999999983 L 211.5 79.65499999999989 L 212.5 75.89499999999984 L 212.5 75.89499999999987 L 213.5 72.09499999999983 L 213.5 72.09499999999989 L 214.5 68.25499999999982 L 214.5 68.25499999999988 L 215.5 64.37499999999983 L 215.5 64.37499999999986 L 216.5 60.454999999999814 L 216.5 60.45499999999987 L 217.5 56.494999999999834 L 217.5 56.49499999999989 L 218.5 52.49499999999978 L 218.5 52.49499999999986 L 219.5 48.45499999999987 L 219.5 48.454999999999956 L 220.50000000000003 44.374999999999744 L 220.50000000000003 44.37499999999983 L 221.5 40.25499999999985 L 221.5 40.25499999999994 L 222.50000000000003 36.09499999999974 L 222.50000000000003 36.09499999999983 L 223.5 31.89499999999984 L 223.5 31.894999999999925 L 224.50000000000003 27.654999999999745 L 224.50000000000003 27.65499999999983 L 225.5 23.374999999999858 L 225.5 23.374999999999943 L 226.5 19.054999999999836 L 226.5 19.05499999999995 L 227.5 14.694999999999851 L 227.5 14.694999999999936 L 228.5 10.294999999999845 L 228.5 10.29499999999993 L 229.5 5.854999999999848 L 229.5 5.854999999999933 L 230.5 1.3749999999998295 L 230.5 1.3749999999999147 L 231.5 -3.1450000000001523 L 231.5 -3.1450000000000955 L 232.5 -7.7050000000002115 L 232.5 -7.705000000000098 L 233.5 -12.305000000000177 L 233.5 -12.305000000000064 L 234.5 -16.945000000000164 L 234.5 -16.945000000000107 L 235.5 -21.62500000000017 L 235.5 -21.625000000000114 L 236.5 -26.34500000000014 L 236.5 -26.345000000000084 L 237.5 -31.10500000000019 L 237.5 -31.105000000000075 L 238.5 -35.90500000000014 L 238.5 -35.905000000000086 L 239.5 -40.745000000000175 L 239.5 -40.74500000000012 L 240.5 -45.62500000000017 L 240.5 -45.625000000000114 L 241.5 -50.545000000000186 L 241.5 -50.54500000000007 L 242.5 -55.50500000000022 L 242.5 -55.50500000000011 L 243.5 -60.505000000000166 L 243.5 -60.50500000000011 L 244.5 -65.54500000000019 L 244.5 -65.54500000000013 L 245.5 -70.62500000000023 L 245.5 -70.62500000000011 L 246.5 -75.74500000000023 L 246.5 -75.74500000000012 L 247.5 -80.9050000000002 L 247.5 -80.90500000000014 L 248.5 -86.10500000000025 L 248.5 -86.10500000000013 L 249.5 -91.3450000000002 L 249.5 -91.34500000000014 L 250.5 -96.62500000000023 L 250.5 -96.62500000000011 L 251.5 -101.94500000000016" stroke-opacity="1" stroke-linecap="round" stroke-linejoin="round" stroke-miterlimit="10" stroke-width="4"/><g transform="scale(15,15)"><g transform="translate(0.7333333333333333,2.3303586666666662)"><path fill="rgb(128,0,0)" stroke="none" paint-order="stroke fill markers" d=" M 0.367 -0.4 L 0.367 -0.4 L 0.307 -0.083 Q 0.298 -0.021 0.271 0.059000000000000004 Q 0.261 0.088 0.251 0.108 Q 0.216 0.182 0.164 0.2 Q 0.151 0.20500000000000002 0.138 0.20500000000000002 Q 0.088 0.20500000000000002 0.064 0.171 Q 0.053 0.156 0.053 0.136 Q 0.053 0.096 0.08700000000000001 0.081 Q 0.097 0.076 0.108 0.076 Q 0.137 0.076 0.14400000000000002 0.101 Q 0.145 0.106 0.145 0.111 Q 0.145 0.145 0.115 0.159 Q 0.10400000000000001 0.164 0.09 0.165 Q 0.109 0.183 0.138 0.183 Q 0.182 0.183 0.20700000000000002 0.085 Q 0.212 0.062 0.219 0.025 L 0.225 -0.005 L 0.3 -0.4 L 0.234 -0.4 Q 0.209 -0.4 0.20700000000000002 -0.40800000000000003 L 0.20600000000000002 -0.40800000000000003 L 0.20600000000000002 -0.41200000000000003 Q 0.20600000000000002 -0.429 0.223 -0.431 L 0.223 -0.431 L 0.23600000000000002 -0.431 L 0.305 -0.431 Q 0.329 -0.556 0.338 -0.588 Q 0.368 -0.6880000000000001 0.444 -0.7030000000000001 Q 0.455 -0.705 0.465 -0.705 Q 0.517 -0.705 0.541 -0.671 L 0.541 -0.671 Q 0.552 -0.656 0.552 -0.636 Q 0.552 -0.596 0.518 -0.581 Q 0.508 -0.5760000000000001 0.497 -0.5760000000000001 Q 0.468 -0.5760000000000001 0.461 -0.601 Q 0.46 -0.606 0.46 -0.611 Q 0.46 -0.642 0.488 -0.657 Q 0.499 -0.664 0.514 -0.665 Q 0.495 -0.683 0.465 -0.683 Q 0.434 -0.683 0.418 -0.649 Q 0.41100000000000003 -0.635 0.394 -0.545 L 0.373 -0.431 L 0.456 -0.431 Q 0.481 -0.431 0.483 -0.42 Q 0.483 -0.402 0.467 -0.4 L 0.466 -0.4 L 0.453 -0.4 L 0.367 -0.4 Z"/></g><g transform="translate(1.3313333333333333,2.3303586666666662)"><path fill="rgb(128,0,0)" stroke="none" paint-order="stroke fill markers" d=" M 0.331 0.24 L 0.331 0.24 Q 0.331 0.25 0.321 0.25 Q 0.309 0.25 0.268 0.209 Q 0.20600000000000002 0.147 0.165 0.062 Q 0.099 -0.074 0.099 -0.25 Q 0.099 -0.419 0.162 -0.555 Q 0.214 -0.666 0.294 -0.733 Q 0.315 -0.75 0.321 -0.75 Q 0.331 -0.75 0.331 -0.74 Q 0.331 -0.735 0.318 -0.723 Q 0.157 -0.559 0.157 -0.25 Q 0.157 0.058 0.314 0.218 Q 0.331 0.23500000000000001 0.331 0.24 Z"/></g><g transform="translate(1.7203333333333333,2.3303586666666662)"><path fill="rgb(128,0,0)" stroke="none" paint-order="stroke fill markers" d=" M 0.334 -0.302 L 0.3 -0.165 Q 0.28300000000000003 -0.097 0.28300000000000003 -0.077 Q 0.28300000000000003 -0.025 0.32 -0.014 Q 0.328 -0.011 0.338 -0.011 Q 0.388 -0.011 0.429 -0.061 Q 0.456 -0.093 0.47100000000000003 -0.14200000000000002 Q 0.47400000000000003 -0.153 0.484 -0.153 Q 0.496 -0.153 0.496 -0.14300000000000002 Q 0.496 -0.11800000000000001 0.465 -0.07100000000000001 Q 0.41100000000000003 0.011 0.336 0.011 Q 0.268 0.011 0.23700000000000002 -0.046 Q 0.231 -0.055 0.228 -0.065 Q 0.20400000000000001 -0.017 0.162 0.002 Q 0.14300000000000002 0.011 0.123 0.011 Q 0.063 0.011 0.039 -0.024 Q 0.029 -0.037 0.029 -0.055 Q 0.029 -0.092 0.061 -0.107 Q 0.07200000000000001 -0.113 0.084 -0.113 Q 0.114 -0.113 0.12 -0.088 Q 0.121 -0.083 0.121 -0.078 Q 0.121 -0.044 0.08700000000000001 -0.028 Q 0.081 -0.025 0.074 -0.024 Q 0.095 -0.011 0.124 -0.011 Q 0.177 -0.011 0.20800000000000002 -0.082 Q 0.214 -0.097 0.219 -0.115 Q 0.273 -0.319 0.273 -0.353 Q 0.267 -0.41500000000000004 0.219 -0.42 Q 0.167 -0.42 0.124 -0.367 L 0.124 -0.366 Q 0.124 -0.365 0.123 -0.365 Q 0.108 -0.34500000000000003 0.096 -0.319 Q 0.091 -0.307 0.08700000000000001 -0.295 L 0.085 -0.289 Q 0.083 -0.278 0.07200000000000001 -0.278 Q 0.06 -0.278 0.06 -0.28800000000000003 Q 0.06 -0.313 0.092 -0.36 Q 0.146 -0.442 0.221 -0.442 Q 0.298 -0.442 0.329 -0.366 Q 0.361 -0.428 0.41400000000000003 -0.44 Q 0.424 -0.442 0.434 -0.442 Q 0.493 -0.442 0.517 -0.40900000000000003 Q 0.527 -0.395 0.527 -0.376 Q 0.527 -0.335 0.49 -0.321 Q 0.481 -0.318 0.47300000000000003 -0.318 Q 0.442 -0.318 0.436 -0.34500000000000003 Q 0.435 -0.34900000000000003 0.435 -0.353 Q 0.435 -0.383 0.464 -0.4 Q 0.47300000000000003 -0.405 0.483 -0.40700000000000003 Q 0.462 -0.42 0.433 -0.42 Q 0.365 -0.42 0.337 -0.314 Q 0.335 -0.308 0.334 -0.302 Z"/></g><g transform="translate(2.292333333333333,2.3303586666666662)"><path fill="rgb(128,0,0)" stroke="none" paint-order="stroke fill markers" d=" M 0.289 -0.25 L 0.289 -0.25 Q 0.289 -0.081 0.226 0.055 Q 0.17400000000000002 0.166 0.094 0.233 Q 0.073 0.25 0.067 0.25 Q 0.057 0.25 0.057 0.24 Q 0.057 0.23500000000000001 0.07 0.223 Q 0.231 0.059000000000000004 0.231 -0.25 Q 0.231 -0.555 0.081 -0.712 L 0.076 -0.717 Q 0.057 -0.735 0.057 -0.74 Q 0.057 -0.75 0.067 -0.75 Q 0.079 -0.75 0.12 -0.709 Q 0.182 -0.647 0.223 -0.562 Q 0.289 -0.426 0.289 -0.25 Z"/></g><g transform="translate(3.2368888888888883,2.3303586666666662)"><path fill="rgb(128,0,0)" stroke="none" paint-order="stroke fill markers" d=" M 0.687 -0.327 L 0.09 -0.327 Q 0.058 -0.327 0.056 -0.34700000000000003 Q 0.056 -0.367 0.089 -0.367 L 0.6880000000000001 -0.367 Q 0.72 -0.367 0.721 -0.34700000000000003 Q 0.721 -0.327 0.687 -0.327 M 0.6880000000000001 -0.133 L 0.089 -0.133 Q 0.057 -0.133 0.056 -0.153 Q 0.056 -0.17300000000000001 0.09 -0.17300000000000001 L 0.687 -0.17300000000000001 Q 0.719 -0.17300000000000001 0.721 -0.153 Q 0.721 -0.133 0.6880000000000001 -0.133 Z"/></g><g transform="translate(4.570444444444444,2.3303586666666662)"><path fill="rgb(128,0,0)" stroke="none" paint-order="stroke fill markers" d=" M 0.334 -0.302 L 0.3 -0.165 Q 0.28300000000000003 -0.097 0.28300000000000003 -0.077 Q 0.28300000000000003 -0.025 0.32 -0.014 Q 0.328 -0.011 0.338 -0.011 Q 0.388 -0.011 0.429 -0.061 Q 0.456 -0.093 0.47100000000000003 -0.14200000000000002 Q 0.47400000000000003 -0.153 0.484 -0.153 Q 0.496 -0.153 0.496 -0.14300000000000002 Q 0.496 -0.11800000000000001 0.465 -0.07100000000000001 Q 0.41100000000000003 0.011 0.336 0.011 Q 0.268 0.011 0.23700000000000002 -0.046 Q 0.231 -0.055 0.228 -0.065 Q 0.20400000000000001 -0.017 0.162 0.002 Q 0.14300000000000002 0.011 0.123 0.011 Q 0.063 0.011 0.039 -0.024 Q 0.029 -0.037 0.029 -0.055 Q 0.029 -0.092 0.061 -0.107 Q 0.07200000000000001 -0.113 0.084 -0.113 Q 0.114 -0.113 0.12 -0.088 Q 0.121 -0.083 0.121 -0.078 Q 0.121 -0.044 0.08700000000000001 -0.028 Q 0.081 -0.025 0.074 -0.024 Q 0.095 -0.011 0.124 -0.011 Q 0.177 -0.011 0.20800000000000002 -0.082 Q 0.214 -0.097 0.219 -0.115 Q 0.273 -0.319 0.273 -0.353 Q 0.267 -0.41500000000000004 0.219 -0.42 Q 0.167 -0.42 0.124 -0.367 L 0.124 -0.366 Q 0.124 -0.365 0.123 -0.365 Q 0.108 -0.34500000000000003 0.096 -0.319 Q 0.091 -0.307 0.08700000000000001 -0.295 L 0.085 -0.289 Q 0.083 -0.278 0.07200000000000001 -0.278 Q 0.06 -0.278 0.06 -0.28800000000000003 Q 0.06 -0.313 0.092 -0.36 Q 0.146 -0.442 0.221 -0.442 Q 0.298 -0.442 0.329 -0.366 Q 0.361 -0.428 0.41400000000000003 -0.44 Q 0.424 -0.442 0.434 -0.442 Q 0.493 -0.442 0.517 -0.40900000000000003 Q 0.527 -0.395 0.527 -0.376 Q 0.527 -0.335 0.49 -0.321 Q 0.481 -0.318 0.47300000000000003 -0.318 Q 0.442 -0.318 0.436 -0.34500000000000003 Q 0.435 -0.34900000000000003 0.435 -0.353 Q 0.435 -0.383 0.464 -0.4 Q 0.47300000000000003 -0.405 0.483 -0.40700000000000003 Q 0.462 -0.42 0.433 -0.42 Q 0.365 -0.42 0.337 -0.314 Q 0.335 -0.308 0.334 -0.302 Z"/></g><g transform="translate(5.142444444444444,1.9174666666666662) scale(0.7,0.7)"><path fill="rgb(128,0,0)" stroke="none" paint-order="stroke fill markers" d=" M 0.449 -0.17400000000000002 L 0.449 -0.17400000000000002 L 0.421 0 L 0.05 0 Q 0.05 -0.025 0.056 -0.032 L 0.061 -0.037 L 0.253 -0.251 Q 0.358 -0.369 0.358 -0.47200000000000003 Q 0.358 -0.561 0.304 -0.607 L 0.303 -0.608 L 0.302 -0.608 Q 0.27 -0.635 0.224 -0.635 Q 0.152 -0.635 0.109 -0.5730000000000001 Q 0.097 -0.555 0.089 -0.533 Q 0.092 -0.534 0.10200000000000001 -0.534 Q 0.14200000000000002 -0.534 0.153 -0.498 L 0.153 -0.497 Q 0.155 -0.49 0.155 -0.482 Q 0.155 -0.442 0.117 -0.431 Q 0.109 -0.429 0.10300000000000001 -0.429 Q 0.066 -0.429 0.054 -0.46 Q 0.05 -0.47100000000000003 0.05 -0.485 Q 0.05 -0.562 0.109 -0.617 Q 0.162 -0.666 0.23700000000000002 -0.666 Q 0.34700000000000003 -0.666 0.40800000000000003 -0.592 Q 0.443 -0.549 0.448 -0.49 Q 0.449 -0.481 0.449 -0.47200000000000003 Q 0.449 -0.399 0.394 -0.333 Q 0.365 -0.299 0.304 -0.243 L 0.243 -0.189 L 0.233 -0.18 L 0.127 -0.077 L 0.307 -0.077 Q 0.395 -0.077 0.402 -0.085 Q 0.41200000000000003 -0.099 0.424 -0.17400000000000002 L 0.449 -0.17400000000000002 Z"/></g></g><path fill="none" stroke="rgb(51,0,51)" paint-order="fill stroke markers" d=" M 88.24999999999989 364 L 256 28.499999999999982" stroke-opacity="1" stroke-linecap="round" stroke-linejoin="round" stroke-miterlimit="10" stroke-width="2.5"/><text fill="rgb(51,0,51)" stroke="none" font-family="geogebra-sans-serif, sans-serif" font-size="12px" font-style="normal" font-weight="normal" text-decoration="normal" x="230" y="66" text-anchor="start" dominant-baseline="alphabetic" fill-opacity="1">T</text><text fill="rgb(51,0,51)" stroke="none" font-family="geogebra-sans-serif, sans-serif" font-size="12px" font-style="normal" font-weight="normal" text-decoration="normal" x="230" y="66" text-anchor="start" dominant-baseline="alphabetic" fill-opacity="1">T</text><text fill="rgb(51,0,51)" stroke="none" font-family="geogebra-sans-serif, sans-serif" font-size="10px" font-style="normal" font-weight="normal" text-decoration="normal" x="237" y="71" text-anchor="start" dominant-baseline="alphabetic" fill-opacity="1">a</text><text fill="rgb(51,0,51)" stroke="none" font-family="geogebra-sans-serif, sans-serif" font-size="10px" font-style="normal" font-weight="normal" text-decoration="normal" x="237" y="71" text-anchor="start" dominant-baseline="alphabetic" fill-opacity="1">a</text><path fill="none" stroke="rgb(153,51,0)" paint-order="fill stroke markers" d=" M 167.99999999999997 254.4999999999999 L 167.99999999999997 204.49999999999994" stroke-opacity="1" stroke-linejoin="round" stroke-miterlimit="10" stroke-width="2.5" stroke-dasharray="6.5,4"/><path fill="none" stroke="rgb(153,51,0)" paint-order="fill stroke markers" d=" M 167.99999999999997 204.49999999999994 L 118 204.49999999999994" stroke-opacity="1" stroke-linejoin="round" stroke-miterlimit="10" stroke-width="2.5" stroke-dasharray="6.5,4"/><path fill="none" stroke="rgb(204,0,102)" paint-order="fill stroke markers" d=" M 167.99999999999997 201.49999999999994 L 167.99999999999997 207.49999999999994" stroke-opacity="1" stroke-linecap="square" stroke-miterlimit="10" stroke-width="1.5"/><path fill="none" stroke="rgb(204,0,102)" paint-order="fill stroke markers" d=" M 164.99999999999997 204.49999999999994 L 170.99999999999997 204.49999999999994" stroke-opacity="1" stroke-linecap="square" stroke-miterlimit="10" stroke-width="1.5"/><text fill="rgb(204,0,102)" stroke="none" font-family="geogebra-sans-serif, sans-serif" font-size="12px" font-style="normal" font-weight="normal" text-decoration="normal" x="156" y="200" text-anchor="start" dominant-baseline="alphabetic" fill-opacity="1">A</text><text fill="rgb(204,0,102)" stroke="none" font-family="geogebra-sans-serif, sans-serif" font-size="12px" font-style="normal" font-weight="normal" text-decoration="normal" x="156" y="200" text-anchor="start" dominant-baseline="alphabetic" fill-opacity="1">A</text><text fill="rgb(153,51,0)" stroke="none" font-family="geogebra-sans-serif, sans-serif" font-size="12px" font-style="normal" font-weight="normal" text-decoration="normal" x="174" y="248" text-anchor="start" dominant-baseline="alphabetic" fill-opacity="1">a=1</text><text fill="rgb(153,51,0)" stroke="none" font-family="geogebra-sans-serif, sans-serif" font-size="12px" font-style="normal" font-weight="normal" text-decoration="normal" x="92" y="200" text-anchor="start" dominant-baseline="alphabetic" fill-opacity="1">f(a)</text></g></g></svg>