<svg version="1.1" xmlns="http://www.w3.org/2000/svg" xmlns:xlink="http://www.w3.org/1999/xlink" width="275" height="266"><defs><clipPath id="cqafyZdEGzpB"><path fill="none" stroke="none" d=" M 0 0 L 275 0 L 275 266 L 0 266 L 0 0 Z"/></clipPath></defs><g transform="scale(1,1)" clip-path="url(#cqafyZdEGzpB)"><g><rect fill="none" stroke="none" x="0" y="0" width="275" height="267" fill-opacity="1"/><path fill="none" stroke="rgb(0,0,0)" paint-order="fill stroke markers" d=" M 61 3 L 61 266" stroke-opacity="1" stroke-miterlimit="10" stroke-width="2"/><path fill="none" stroke="rgb(0,0,0)" paint-order="fill stroke markers" d=" M 61 2 L 57 6" stroke-opacity="1" stroke-miterlimit="10" stroke-width="2"/><path fill="none" stroke="rgb(0,0,0)" paint-order="fill stroke markers" d=" M 61 2 L 65 6" stroke-opacity="1" stroke-miterlimit="10" stroke-width="2"/><text fill="rgb(0,0,0)" stroke="none" font-family="geogebra-sans-serif, sans-serif" font-size="12px" font-style="normal" font-weight="normal" text-decoration="normal" x="239" y="155" text-anchor="start" dominant-baseline="alphabetic" fill-opacity="1">(Ox)</text><path fill="none" stroke="rgb(0,0,0)" paint-order="fill stroke markers" d=" M 0 159 L 272 159" stroke-opacity="1" stroke-miterlimit="10" stroke-width="2"/><path fill="none" stroke="rgb(0,0,0)" paint-order="fill stroke markers" d=" M 273 159 L 269 155" stroke-opacity="1" stroke-miterlimit="10" stroke-width="2"/><path fill="none" stroke="rgb(0,0,0)" paint-order="fill stroke markers" d=" M 273 159 L 269 163" stroke-opacity="1" stroke-miterlimit="10" stroke-width="2"/><text fill="rgb(0,0,0)" stroke="none" font-family="geogebra-sans-serif, sans-serif" font-size="12px" font-style="normal" font-weight="normal" text-decoration="normal" x="66" y="14" text-anchor="start" dominant-baseline="alphabetic" fill-opacity="1">(Oy)</text><path fill="none" stroke="rgb(102,0,153)" paint-order="fill stroke markers" d=" M 115.7526979083528 159.22901676512765 C 115.7526979083528 189.42174194951514 91.27665812387629 213.89778173399168 61.08393293948881 213.89778173399168 C 30.891207755101323 213.89778173399168 6.415167970624822 189.42174194951514 6.415167970624822 159.22901676512765 C 6.415167970624822 129.03629158074017 30.891207755101323 104.56025179626366 61.08393293948881 104.56025179626366 C 91.27665812387629 104.56025179626366 115.7526979083528 129.03629158074017 115.7526979083528 159.22901676512765 Z" stroke-opacity="1" stroke-linecap="round" stroke-linejoin="round" stroke-miterlimit="10" stroke-width="2"/><path fill="none" stroke="rgb(0,0,0)" paint-order="fill stroke markers" d=" M 115.7526979083528 159.22901676512765 C 115.7526979083528 131.48227586940493 94.9670662165654 108.13607426928847 67.40651334595822 104.92709377685199 C 39.84596047535105 101.7181132844155 14.252507434556293 119.6642208130288 7.877612678093094 146.66870835081386 C 1.5027179216298876 173.67319588859894 16.368454959796168 201.17042259043214 42.45446255016975 210.62567712583956 C 68.54047014054333 220.080931661247 97.57244306664253 208.49507122715923 109.98116282602442 183.6776317083955" stroke-opacity="1" stroke-linecap="round" stroke-linejoin="round" stroke-miterlimit="10"/><path fill="none" stroke="rgb(128,0,0)" paint-order="fill stroke markers" d=" M 109.98116282602442 183.6776317083955 C 113.77669038254687 176.08657659535058 115.7526979083528 167.71607439198556 115.7526979083528 159.22901676512765" stroke-opacity="1" stroke-linecap="round" stroke-linejoin="round" stroke-miterlimit="10" stroke-width="5.5"/><path fill="rgb(0,100,0)" stroke="none" paint-order="stroke fill markers" d=" M 61.08548586048564 157.22857865201289 C 60.351847313782514 157.22857865201289 59.64548966194264 157.6337673652204 59.29507855748897 158.33458957412773 C 58.80110006006572 159.32254656897425 59.2015487536424 160.52389264970424 60.1895057484889 161.0178711471275 L 148.0607831022189 204.9535098239925 L 146.27192872021905 208.53121858799216 L 170.42146287721678 213.89778173399165 L 151.63849186621857 197.79809229599317 L 149.84963748421873 201.37580105999282 L 61.978360130488724 157.4401623831278 C 61.691225344549565 157.29659499015824 61.38606587120298 157.22857865201289 61.08548586048564 157.22857865201289 Z" fill-opacity="1"/><text fill="rgb(0,100,0)" stroke="none" font-family="geogebra-sans-serif, sans-serif" font-size="12px" font-style="normal" font-weight="normal" text-decoration="normal" x="131" y="215" text-anchor="start" dominant-baseline="alphabetic" fill-opacity="1">v'</text><text fill="rgb(0,100,0)" stroke="none" font-family="geogebra-sans-serif, sans-serif" font-size="12px" font-style="normal" font-weight="normal" text-decoration="normal" x="131" y="215" text-anchor="start" dominant-baseline="alphabetic" fill-opacity="1">v'</text><path fill="rgb(0,100,0)" stroke="none" paint-order="stroke fill markers" d=" M 115.75425082934963 47.89104871428489 C 115.02061228264651 47.89104871428489 114.31425463080664 48.296237427492386 113.96384352635297 48.997059636399726 C 113.46986502892972 49.985016631246225 113.87031372250638 51.18636271197623 114.85827071735288 51.68034120939948 L 202.7295480710829 95.6159798862645 L 200.94069368908305 99.19368865026416 L 225.09022784608078 104.56025179626366 L 206.30725683508257 88.46056235826518 L 204.51840245308273 92.03827112226485 L 116.64712509935272 48.10263244539981 C 116.35999031341356 47.95906505243023 116.05483084006697 47.89104871428489 115.75425082934963 47.89104871428489 Z" fill-opacity="1"/><text fill="rgb(0,100,0)" stroke="none" font-family="geogebra-sans-serif, sans-serif" font-size="12px" font-style="normal" font-weight="normal" text-decoration="normal" x="173" y="71" text-anchor="start" dominant-baseline="alphabetic" fill-opacity="1">v</text><text fill="rgb(0,100,0)" stroke="none" font-family="geogebra-sans-serif, sans-serif" font-size="12px" font-style="normal" font-weight="normal" text-decoration="normal" x="173" y="71" text-anchor="start" dominant-baseline="alphabetic" fill-opacity="1">v</text><path fill="rgb(0,51,153)" stroke="none" paint-order="stroke fill markers" d=" M 201.09022784608078 153.22901676512765 L 201.09022784608078 157.22901676512765 L 61.08393293948881 157.22901676512765 C 59.979363439827225 157.22901676512765 59.08393293948881 158.12444726546607 59.08393293948881 159.22901676512765 C 59.08393293948881 160.33358626478923 59.979363439827225 161.22901676512765 61.08393293948881 161.22901676512765 L 201.09022784608078 161.22901676512765 L 201.09022784608078 165.22901676512765 L 225.09022784608078 159.22901676512765 L 201.09022784608078 153.22901676512765 Z" fill-opacity="1"/><text fill="rgb(0,51,153)" stroke="none" font-family="geogebra-sans-serif, sans-serif" font-size="12px" font-style="normal" font-weight="normal" text-decoration="normal" x="161" y="144" text-anchor="start" dominant-baseline="alphabetic" fill-opacity="1">u</text><text fill="rgb(0,51,153)" stroke="none" font-family="geogebra-sans-serif, sans-serif" font-size="12px" font-style="normal" font-weight="normal" text-decoration="normal" x="161" y="144" text-anchor="start" dominant-baseline="alphabetic" fill-opacity="1">u</text><path fill="none" stroke="rgb(51,51,51)" paint-order="fill stroke markers" d=" M 58.08393293948881 156.22901676512765 L 64.08393293948882 162.22901676512765" stroke-opacity="1" stroke-linecap="square" stroke-miterlimit="10" stroke-width="1.5"/><path fill="none" stroke="rgb(51,51,51)" paint-order="fill stroke markers" d=" M 58.08393293948881 162.22901676512765 L 64.08393293948882 156.22901676512765" stroke-opacity="1" stroke-linecap="square" stroke-miterlimit="10" stroke-width="1.5"/><text fill="rgb(51,51,51)" stroke="none" font-family="geogebra-sans-serif, sans-serif" font-size="12px" font-style="normal" font-weight="normal" text-decoration="normal" x="65" y="153" text-anchor="start" dominant-baseline="alphabetic" fill-opacity="1">O</text><text fill="rgb(51,51,51)" stroke="none" font-family="geogebra-sans-serif, sans-serif" font-size="12px" font-style="normal" font-weight="normal" text-decoration="normal" x="65" y="153" text-anchor="start" dominant-baseline="alphabetic" fill-opacity="1">O</text><path fill="none" stroke="rgb(51,51,51)" paint-order="fill stroke markers" d=" M 112.7526979083528 156.22901676512765 L 118.7526979083528 162.22901676512765" stroke-opacity="1" stroke-linecap="square" stroke-miterlimit="10" stroke-width="1.5"/><path fill="none" stroke="rgb(51,51,51)" paint-order="fill stroke markers" d=" M 112.7526979083528 162.22901676512765 L 118.7526979083528 156.22901676512765" stroke-opacity="1" stroke-linecap="square" stroke-miterlimit="10" stroke-width="1.5"/><text fill="rgb(51,51,51)" stroke="none" font-family="geogebra-sans-serif, sans-serif" font-size="12px" font-style="normal" font-weight="normal" text-decoration="normal" x="120" y="153" text-anchor="start" dominant-baseline="alphabetic" fill-opacity="1">I</text><text fill="rgb(51,51,51)" stroke="none" font-family="geogebra-sans-serif, sans-serif" font-size="12px" font-style="normal" font-weight="normal" text-decoration="normal" x="120" y="153" text-anchor="start" dominant-baseline="alphabetic" fill-opacity="1">I</text><path fill="none" stroke="rgb(51,51,51)" paint-order="fill stroke markers" d=" M 58.08393293948881 101.56025179626366 L 64.08393293948882 107.56025179626366" stroke-opacity="1" stroke-linecap="square" stroke-miterlimit="10" stroke-width="1.5"/><path fill="none" stroke="rgb(51,51,51)" paint-order="fill stroke markers" d=" M 58.08393293948881 107.56025179626366 L 64.08393293948882 101.56025179626366" stroke-opacity="1" stroke-linecap="square" stroke-miterlimit="10" stroke-width="1.5"/><text fill="rgb(51,51,51)" stroke="none" font-family="geogebra-sans-serif, sans-serif" font-size="12px" font-style="normal" font-weight="normal" text-decoration="normal" x="65" y="99" text-anchor="start" dominant-baseline="alphabetic" fill-opacity="1">J</text><text fill="rgb(51,51,51)" stroke="none" font-family="geogebra-sans-serif, sans-serif" font-size="12px" font-style="normal" font-weight="normal" text-decoration="normal" x="65" y="99" text-anchor="start" dominant-baseline="alphabetic" fill-opacity="1">J</text><g transform="scale(15,15)"><g transform="translate(8.017083333333334,11.825)"><path fill="rgb(128,0,0)" stroke="none" paint-order="stroke fill markers" d=" M 1.166 -0.847 L 2.324 -0.621 Q 2.343 -0.618 2.343 -0.607 Q 2.343 -0.589 2.33 -0.589 Q 2.326 -0.589 2.317 -0.591 L 1.166 -0.784 L 0.016 -0.591 Q 0.007 -0.589 0.002 -0.589 Q -0.011 -0.589 -0.011 -0.607 Q -0.011 -0.616 -0.001 -0.618 Q 0 -0.619 0.011 -0.621 L 1.166 -0.847 Z"/></g><g transform="translate(8,12.144)"><path fill="rgb(128,0,0)" stroke="none" paint-order="stroke fill markers" d=" M 0.331 0.24 L 0.331 0.24 Q 0.331 0.25 0.321 0.25 Q 0.309 0.25 0.268 0.209 Q 0.20600000000000002 0.147 0.165 0.062 Q 0.099 -0.074 0.099 -0.25 Q 0.099 -0.419 0.162 -0.555 Q 0.214 -0.666 0.294 -0.733 Q 0.315 -0.75 0.321 -0.75 Q 0.331 -0.75 0.331 -0.74 Q 0.331 -0.735 0.318 -0.723 Q 0.157 -0.559 0.157 -0.25 Q 0.157 0.058 0.314 0.218 Q 0.331 0.23500000000000001 0.331 0.24 Z"/></g><g transform="translate(8.389,12.144)"><path fill="rgb(128,0,0)" stroke="none" paint-order="stroke fill markers" d=" M 0.537 -0.595 L 0.217 -0.595 Q 0.186 -0.595 0.183 -0.609 Q 0.182 -0.612 0.182 -0.615 Q 0.188 -0.635 0.217 -0.635 L 0.554 -0.635 Q 0.534 -0.661 0.53 -0.6930000000000001 Q 0.53 -0.709 0.544 -0.713 Q 0.547 -0.714 0.55 -0.714 Q 0.5650000000000001 -0.714 0.5700000000000001 -0.6920000000000001 Q 0.583 -0.654 0.611 -0.635 Q 0.625 -0.625 0.625 -0.615 Q 0.625 -0.604 0.608 -0.594 Q 0.5630000000000001 -0.5720000000000001 0.529 -0.529 Q 0.518 -0.516 0.51 -0.516 Q 0.496 -0.516 0.491 -0.53 Q 0.49 -0.533 0.49 -0.536 Q 0.49 -0.552 0.537 -0.595 Z"/></g><g transform="translate(8.402,12.144)"><path fill="rgb(128,0,0)" stroke="none" paint-order="stroke fill markers" d=" M 0.35000000000000003 -0.056 L 0.35000000000000003 -0.056 Q 0.298 0.011 0.231 0.011 Q 0.15 0.011 0.121 -0.048 Q 0.108 -0.074 0.108 -0.109 Q 0.108 -0.163 0.161 -0.305 Q 0.163 -0.312 0.166 -0.319 Q 0.183 -0.362 0.183 -0.387 Q 0.183 -0.42 0.158 -0.42 Q 0.10200000000000001 -0.42 0.067 -0.325 Q 0.066 -0.325 0.066 -0.324 L 0.066 -0.323 Q 0.061 -0.31 0.057 -0.296 Q 0.046 -0.279 0.041 -0.278 Q 0.029 -0.278 0.029 -0.28800000000000003 Q 0.029 -0.306 0.05 -0.35100000000000003 Q 0.094 -0.442 0.161 -0.442 Q 0.214 -0.442 0.23500000000000001 -0.397 Q 0.243 -0.38 0.243 -0.36 Q 0.243 -0.34 0.226 -0.297 Q 0.17200000000000001 -0.154 0.17200000000000001 -0.093 Q 0.17200000000000001 -0.011 0.234 -0.011 Q 0.297 -0.011 0.34 -0.08 Q 0.34600000000000003 -0.089 0.34800000000000003 -0.095 Q 0.37 -0.194 0.423 -0.396 Q 0.431 -0.431 0.462 -0.431 Q 0.487 -0.426 0.491 -0.404 Q 0.491 -0.406 0.47600000000000003 -0.337 Q 0.462 -0.28600000000000003 0.459 -0.269 L 0.431 -0.161 Q 0.41100000000000003 -0.074 0.41100000000000003 -0.057 Q 0.41100000000000003 -0.011 0.442 -0.011 Q 0.484 -0.011 0.511 -0.111 Q 0.514 -0.121 0.517 -0.135 Q 0.525 -0.152 0.531 -0.153 Q 0.543 -0.153 0.543 -0.14300000000000002 Q 0.543 -0.128 0.525 -0.073 Q 0.519 -0.056 0.513 -0.044 Q 0.486 0.011 0.439 0.011 Q 0.382 0.011 0.358 -0.037 Q 0.353 -0.046 0.35000000000000003 -0.056 Z"/></g><g transform="translate(8.974,12.144)"><path fill="rgb(128,0,0)" stroke="none" paint-order="stroke fill markers" d=" M 0.192 -0.378 Q 0.192 -0.34500000000000003 0.162 -0.33 Q 0.151 -0.325 0.139 -0.325 Q 0.106 -0.325 0.091 -0.355 Q 0.08600000000000001 -0.366 0.08600000000000001 -0.378 Q 0.08600000000000001 -0.41100000000000003 0.116 -0.426 Q 0.127 -0.431 0.139 -0.431 Q 0.17200000000000001 -0.431 0.187 -0.401 Q 0.192 -0.39 0.192 -0.378 M 0.17300000000000001 -0.011 L 0.17300000000000001 -0.011 Q 0.164 -0.003 0.147 -0.001 Q 0.146 0 0.139 0 Q 0.099 0 0.088 -0.037 Q 0.08600000000000001 -0.045 0.08600000000000001 -0.053 Q 0.08600000000000001 -0.088 0.116 -0.10200000000000001 Q 0.127 -0.106 0.139 -0.106 Q 0.195 -0.106 0.195 -0.003 Q 0.195 0.095 0.137 0.17 Q 0.11900000000000001 0.193 0.112 0.193 Q 0.10200000000000001 0.193 0.10200000000000001 0.182 Q 0.10200000000000001 0.177 0.109 0.169 Q 0.17300000000000001 0.095 0.17300000000000001 -0.011 Z"/></g><g transform="translate(9.418666666666667,12.144)"><path fill="rgb(128,0,0)" stroke="none" paint-order="stroke fill markers" d=" M 0.537 -0.595 L 0.217 -0.595 Q 0.186 -0.595 0.183 -0.609 Q 0.182 -0.612 0.182 -0.615 Q 0.188 -0.635 0.217 -0.635 L 0.554 -0.635 Q 0.534 -0.661 0.53 -0.6930000000000001 Q 0.53 -0.709 0.544 -0.713 Q 0.547 -0.714 0.55 -0.714 Q 0.5650000000000001 -0.714 0.5700000000000001 -0.6920000000000001 Q 0.583 -0.654 0.611 -0.635 Q 0.625 -0.625 0.625 -0.615 Q 0.625 -0.604 0.608 -0.594 Q 0.5630000000000001 -0.5720000000000001 0.529 -0.529 Q 0.518 -0.516 0.51 -0.516 Q 0.496 -0.516 0.491 -0.53 Q 0.49 -0.533 0.49 -0.536 Q 0.49 -0.552 0.537 -0.595 Z"/></g><g transform="translate(9.457166666666668,12.144)"><path fill="rgb(128,0,0)" stroke="none" paint-order="stroke fill markers" d=" M 0.468 -0.372 Q 0.468 -0.317 0.438 -0.218 Q 0.38 -0.024 0.277 0.006 Q 0.261 0.011 0.243 0.011 Q 0.152 0.011 0.122 -0.052000000000000005 Q 0.109 -0.078 0.109 -0.113 Q 0.109 -0.165 0.155 -0.289 L 0.166 -0.318 Q 0.183 -0.362 0.183 -0.388 Q 0.183 -0.42 0.158 -0.42 Q 0.10400000000000001 -0.42 0.069 -0.331 Q 0.062 -0.315 0.057 -0.296 Q 0.046 -0.279 0.041 -0.278 Q 0.029 -0.278 0.029 -0.28800000000000003 Q 0.029 -0.306 0.051000000000000004 -0.35100000000000003 Q 0.094 -0.442 0.161 -0.442 Q 0.214 -0.442 0.23500000000000001 -0.397 Q 0.243 -0.38 0.243 -0.36 Q 0.243 -0.339 0.231 -0.31 Q 0.177 -0.166 0.17300000000000001 -0.111 L 0.17300000000000001 -0.098 Q 0.17300000000000001 -0.018000000000000002 0.23700000000000002 -0.011 L 0.247 -0.011 Q 0.328 -0.011 0.387 -0.147 Q 0.422 -0.227 0.425 -0.28200000000000003 Q 0.425 -0.332 0.391 -0.364 Q 0.375 -0.38 0.375 -0.394 Q 0.375 -0.419 0.401 -0.435 Q 0.41200000000000003 -0.442 0.424 -0.442 Q 0.453 -0.442 0.464 -0.405 Q 0.468 -0.391 0.468 -0.372 Z"/></g><g transform="translate(9.978166666666667,12.144)"><path fill="rgb(128,0,0)" stroke="none" paint-order="stroke fill markers" d=" M 0.289 -0.25 L 0.289 -0.25 Q 0.289 -0.081 0.226 0.055 Q 0.17400000000000002 0.166 0.094 0.233 Q 0.073 0.25 0.067 0.25 Q 0.057 0.25 0.057 0.24 Q 0.057 0.23500000000000001 0.07 0.223 Q 0.231 0.059000000000000004 0.231 -0.25 Q 0.231 -0.555 0.081 -0.712 L 0.076 -0.717 Q 0.057 -0.735 0.057 -0.74 Q 0.057 -0.75 0.067 -0.75 Q 0.079 -0.75 0.12 -0.709 Q 0.182 -0.647 0.223 -0.562 Q 0.289 -0.426 0.289 -0.25 Z"/></g><g transform="translate(10.644944444444445,12.144)"><path fill="rgb(128,0,0)" stroke="none" paint-order="stroke fill markers" d=" M 0.687 -0.327 L 0.09 -0.327 Q 0.058 -0.327 0.056 -0.34700000000000003 Q 0.056 -0.367 0.089 -0.367 L 0.6880000000000001 -0.367 Q 0.72 -0.367 0.721 -0.34700000000000003 Q 0.721 -0.327 0.687 -0.327 M 0.6880000000000001 -0.133 L 0.089 -0.133 Q 0.057 -0.133 0.056 -0.153 Q 0.056 -0.17300000000000001 0.09 -0.17300000000000001 L 0.687 -0.17300000000000001 Q 0.719 -0.17300000000000001 0.721 -0.153 Q 0.721 -0.133 0.6880000000000001 -0.133 Z"/></g><g transform="translate(11.700722222222224,12.144)"><path fill="rgb(128,0,0)" stroke="none" paint-order="stroke fill markers" d=" M 0.661 -0.23 L 0.116 -0.23 Q 0.084 -0.23 0.083 -0.25 Q 0.083 -0.27 0.116 -0.27 L 0.661 -0.27 Q 0.6930000000000001 -0.27 0.6940000000000001 -0.25 Q 0.6940000000000001 -0.23 0.661 -0.23 Z"/></g><g transform="translate(12.936822222222224,11.322111111111111) scale(0.7,0.7)"><path fill="rgb(128,0,0)" stroke="none" paint-order="stroke fill markers" d=" M 0.9440000000000001 -0.14300000000000002 L 0.9440000000000001 -0.14300000000000002 Q 0.9440000000000001 -0.132 0.931 -0.13 Q 0.927 -0.13 0.919 -0.138 Q 0.853 -0.233 0.753 -0.281 Q 0.638 -0.336 0.499 -0.336 Q 0.306 -0.336 0.17200000000000001 -0.23500000000000001 Q 0.123 -0.198 0.088 -0.15 Q 0.076 -0.135 0.074 -0.133 Q 0.07100000000000001 -0.13 0.068 -0.13 Q 0.057 -0.13 0.055 -0.14300000000000002 Q 0.055 -0.153 0.092 -0.196 Q 0.197 -0.319 0.355 -0.362 Q 0.425 -0.381 0.5 -0.381 Q 0.714 -0.381 0.868 -0.23600000000000002 Q 0.925 -0.183 0.9440000000000001 -0.14300000000000002 Z"/></g><g transform="translate(12.478722222222224,12.144)"><path fill="rgb(128,0,0)" stroke="none" paint-order="stroke fill markers" d=" M 0.374 -0.605 L 0.23900000000000002 -0.065 Q 0.234 -0.047 0.234 -0.042 Q 0.234 -0.034 0.243 -0.032 L 0.243 -0.032 L 0.243 -0.032 L 0.247 -0.032 Q 0.253 -0.031 0.269 -0.031 L 0.363 -0.031 Q 0.509 -0.031 0.5750000000000001 -0.147 Q 0.592 -0.177 0.614 -0.23700000000000002 Q 0.622 -0.256 0.627 -0.257 L 0.628 -0.258 L 0.631 -0.258 Q 0.642 -0.258 0.643 -0.247 Q 0.643 -0.244 0.639 -0.233 L 0.56 -0.017 Q 0.555 -0.002 0.547 -0.001 L 0.547 -0.001 L 0.546 -0.001 Q 0.542 0 0.529 0 L 0.066 0 Q 0.041 0 0.039 -0.011 Q 0.039 -0.029 0.054 -0.031 L 0.066 -0.031 Q 0.131 -0.031 0.14400000000000002 -0.045 Q 0.15 -0.052000000000000005 0.156 -0.073 Q 0.156 -0.074 0.157 -0.078 L 0.291 -0.615 Q 0.295 -0.631 0.295 -0.634 Q 0.295 -0.646 0.279 -0.649 L 0.278 -0.649 L 0.277 -0.649 Q 0.274 -0.649 0.268 -0.65 Q 0.251 -0.652 0.23 -0.652 Q 0.20400000000000001 -0.652 0.202 -0.663 Q 0.202 -0.683 0.221 -0.683 L 0.353 -0.68 L 0.354 -0.68 L 0.501 -0.683 L 0.502 -0.683 Q 0.518 -0.683 0.518 -0.671 Q 0.518 -0.655 0.505 -0.653 Q 0.499 -0.652 0.48 -0.652 Q 0.401 -0.652 0.386 -0.635 Q 0.38 -0.628 0.374 -0.605 Z"/></g><g transform="translate(13.159722222222225,12.294) scale(0.7,0.7)"><path fill="rgb(128,0,0)" stroke="none" paint-order="stroke fill markers" d=" M 0.333 -0.076 Q 0.308 -0.014 0.245 0.005 Q 0.225 0.011 0.202 0.011 Q 0.117 0.011 0.07100000000000001 -0.03 Q 0.042 -0.056 0.042 -0.095 Q 0.042 -0.17200000000000001 0.127 -0.218 Q 0.134 -0.222 0.14200000000000002 -0.225 Q 0.203 -0.254 0.321 -0.261 L 0.326 -0.261 L 0.326 -0.298 Q 0.326 -0.383 0.265 -0.41500000000000004 Q 0.244 -0.426 0.22 -0.426 Q 0.154 -0.426 0.11800000000000001 -0.387 Q 0.115 -0.383 0.112 -0.38 Q 0.159 -0.374 0.163 -0.334 Q 0.163 -0.3 0.132 -0.29 Q 0.125 -0.28800000000000003 0.117 -0.28800000000000003 Q 0.081 -0.28800000000000003 0.073 -0.321 Q 0.07100000000000001 -0.326 0.07100000000000001 -0.335 Q 0.07100000000000001 -0.395 0.134 -0.427 Q 0.17300000000000001 -0.448 0.222 -0.448 Q 0.304 -0.448 0.359 -0.393 Q 0.394 -0.357 0.395 -0.293 L 0.395 -0.292 L 0.395 -0.275 L 0.395 -0.075 Q 0.395 -0.046 0.41300000000000003 -0.032 Q 0.421 -0.025 0.432 -0.025 Q 0.467 -0.025 0.468 -0.089 L 0.468 -0.145 L 0.493 -0.145 L 0.493 -0.089 Q 0.493 -0.016 0.433 0.002 Q 0.421 0.006 0.41100000000000003 0.006 Q 0.362 0.006 0.341 -0.046 Q 0.335 -0.06 0.333 -0.076 M 0.326 -0.24 Q 0.17200000000000001 -0.234 0.13 -0.146 Q 0.11900000000000001 -0.122 0.11900000000000001 -0.096 Q 0.11900000000000001 -0.045 0.165 -0.021 Q 0.185 -0.011 0.209 -0.011 Q 0.261 -0.011 0.296 -0.052000000000000005 Q 0.326 -0.08600000000000001 0.326 -0.14 L 0.326 -0.24 Z"/></g><g transform="translate(13.509722222222225,12.294) scale(0.7,0.7)"><path fill="rgb(128,0,0)" stroke="none" paint-order="stroke fill markers" d=" M 0.17200000000000001 -0.078 Q 0.17200000000000001 -0.047 0.184 -0.04 L 0.184 -0.04 L 0.185 -0.039 Q 0.199 -0.031 0.248 -0.031 L 0.269 -0.031 L 0.269 0 Q 0.229 -0.003 0.14200000000000002 -0.003 Q 0.145 -0.003 0.028 0 L 0.028 -0.031 Q 0.08700000000000001 -0.031 0.097 -0.04 L 0.099 -0.042 Q 0.106 -0.05 0.106 -0.076 L 0.106 -0.34400000000000003 Q 0.106 -0.383 0.091 -0.392 Q 0.079 -0.399 0.048 -0.4 L 0.028 -0.4 L 0.028 -0.431 L 0.167 -0.442 L 0.167 -0.332 Q 0.194 -0.41600000000000004 0.256 -0.437 Q 0.272 -0.442 0.29 -0.442 Q 0.337 -0.442 0.357 -0.40700000000000003 Q 0.364 -0.395 0.364 -0.381 Q 0.364 -0.34600000000000003 0.331 -0.338 Q 0.326 -0.337 0.321 -0.337 Q 0.29 -0.337 0.281 -0.364 Q 0.278 -0.371 0.278 -0.38 Q 0.278 -0.40700000000000003 0.301 -0.419 Q 0.299 -0.42 0.29 -0.42 Q 0.223 -0.42 0.191 -0.338 Q 0.17200000000000001 -0.291 0.17200000000000001 -0.232 L 0.17200000000000001 -0.078 Z"/></g><g transform="translate(13.784122222222225,12.294) scale(0.7,0.7)"><path fill="rgb(128,0,0)" stroke="none" paint-order="stroke fill markers" d=" M 0.359 -0.386 Q 0.323 -0.423 0.252 -0.423 Q 0.189 -0.423 0.151 -0.363 Q 0.117 -0.309 0.117 -0.218 Q 0.117 -0.074 0.203 -0.029 Q 0.23 -0.014 0.258 -0.014 Q 0.356 -0.014 0.389 -0.11900000000000001 Q 0.392 -0.129 0.402 -0.129 Q 0.41500000000000004 -0.129 0.41500000000000004 -0.11900000000000001 Q 0.41500000000000004 -0.1 0.393 -0.065 Q 0.34400000000000003 0.011 0.249 0.011 Q 0.155 0.011 0.09 -0.063 Q 0.034 -0.128 0.034 -0.216 Q 0.034 -0.319 0.105 -0.388 Q 0.166 -0.448 0.251 -0.448 Q 0.334 -0.448 0.378 -0.403 Q 0.404 -0.376 0.404 -0.341 Q 0.404 -0.303 0.371 -0.295 Q 0.365 -0.294 0.358 -0.294 Q 0.323 -0.294 0.314 -0.326 Q 0.312 -0.332 0.312 -0.34 Q 0.312 -0.376 0.34700000000000003 -0.384 Q 0.353 -0.386 0.359 -0.386 Z"/></g></g></g></g></svg>
