<svg version="1.1" xmlns="http://www.w3.org/2000/svg" xmlns:xlink="http://www.w3.org/1999/xlink" width="1078" height="98"><defs><clipPath id="eqVyXBMvahkU"><path fill="none" stroke="none" d=" M 0 0 L 1078 0 L 1078 98 L 0 98 L 0 0 Z"/></clipPath></defs><g transform="scale(1,1)" clip-path="url(#eqVyXBMvahkU)"><g><rect fill="none" stroke="none" x="0" y="0" width="1079" height="99" fill-opacity="1"/><path fill="none" stroke="rgb(0,0,0)" paint-order="fill stroke markers" d=" M 0 55 L 1075 55" stroke-opacity="1" stroke-miterlimit="10" stroke-width="2"/><path fill="none" stroke="rgb(0,0,0)" paint-order="fill stroke markers" d=" M 1076 55 L 1072 51" stroke-opacity="1" stroke-miterlimit="10" stroke-width="2"/><path fill="none" stroke="rgb(0,0,0)" paint-order="fill stroke markers" d=" M 1076 55 L 1072 59" stroke-opacity="1" stroke-miterlimit="10" stroke-width="2"/><text fill="rgb(0,0,0)" stroke="none" font-family="geogebra-sans-serif, sans-serif" font-size="10px" font-style="normal" font-weight="normal" text-decoration="normal" x="20" y="69" text-anchor="start" dominant-baseline="alphabetic" fill-opacity="1">–8π</text><text fill="rgb(0,0,0)" stroke="none" font-family="geogebra-sans-serif, sans-serif" font-size="10px" font-style="normal" font-weight="normal" text-decoration="normal" x="20" y="69" text-anchor="start" dominant-baseline="alphabetic" fill-opacity="1">–8π</text><path fill="none" stroke="rgb(0,0,0)" paint-order="fill stroke markers" d=" M 27 55 L 27 58" stroke-opacity="1" stroke-miterlimit="10" stroke-width="2"/><text fill="rgb(0,0,0)" stroke="none" font-family="geogebra-sans-serif, sans-serif" font-size="10px" font-style="normal" font-weight="normal" text-decoration="normal" x="104" y="69" text-anchor="start" dominant-baseline="alphabetic" fill-opacity="1">–6π</text><text fill="rgb(0,0,0)" stroke="none" font-family="geogebra-sans-serif, sans-serif" font-size="10px" font-style="normal" font-weight="normal" text-decoration="normal" x="104" y="69" text-anchor="start" dominant-baseline="alphabetic" fill-opacity="1">–6π</text><path fill="none" stroke="rgb(0,0,0)" paint-order="fill stroke markers" d=" M 111 55 L 111 58" stroke-opacity="1" stroke-miterlimit="10" stroke-width="2"/><text fill="rgb(0,0,0)" stroke="none" font-family="geogebra-sans-serif, sans-serif" font-size="10px" font-style="normal" font-weight="normal" text-decoration="normal" x="187" y="69" text-anchor="start" dominant-baseline="alphabetic" fill-opacity="1">–4π</text><text fill="rgb(0,0,0)" stroke="none" font-family="geogebra-sans-serif, sans-serif" font-size="10px" font-style="normal" font-weight="normal" text-decoration="normal" x="187" y="69" text-anchor="start" dominant-baseline="alphabetic" fill-opacity="1">–4π</text><path fill="none" stroke="rgb(0,0,0)" paint-order="fill stroke markers" d=" M 194 55 L 194 58" stroke-opacity="1" stroke-miterlimit="10" stroke-width="2"/><text fill="rgb(0,0,0)" stroke="none" font-family="geogebra-sans-serif, sans-serif" font-size="10px" font-style="normal" font-weight="normal" text-decoration="normal" x="270" y="69" text-anchor="start" dominant-baseline="alphabetic" fill-opacity="1">–2π</text><text fill="rgb(0,0,0)" stroke="none" font-family="geogebra-sans-serif, sans-serif" font-size="10px" font-style="normal" font-weight="normal" text-decoration="normal" x="270" y="69" text-anchor="start" dominant-baseline="alphabetic" fill-opacity="1">–2π</text><path fill="none" stroke="rgb(0,0,0)" paint-order="fill stroke markers" d=" M 277 55 L 277 58" stroke-opacity="1" stroke-miterlimit="10" stroke-width="2"/><path fill="none" stroke="rgb(0,0,0)" paint-order="fill stroke markers" d=" M 361 55 L 361 58" stroke-opacity="1" stroke-miterlimit="10" stroke-width="2"/><text fill="rgb(0,0,0)" stroke="none" font-family="geogebra-sans-serif, sans-serif" font-size="10px" font-style="normal" font-weight="normal" text-decoration="normal" x="440" y="69" text-anchor="start" dominant-baseline="alphabetic" fill-opacity="1">2π</text><text fill="rgb(0,0,0)" stroke="none" font-family="geogebra-sans-serif, sans-serif" font-size="10px" font-style="normal" font-weight="normal" text-decoration="normal" x="440" y="69" text-anchor="start" dominant-baseline="alphabetic" fill-opacity="1">2π</text><path fill="none" stroke="rgb(0,0,0)" paint-order="fill stroke markers" d=" M 444 55 L 444 58" stroke-opacity="1" stroke-miterlimit="10" stroke-width="2"/><text fill="rgb(0,0,0)" stroke="none" font-family="geogebra-sans-serif, sans-serif" font-size="10px" font-style="normal" font-weight="normal" text-decoration="normal" x="523" y="69" text-anchor="start" dominant-baseline="alphabetic" fill-opacity="1">4π</text><text fill="rgb(0,0,0)" stroke="none" font-family="geogebra-sans-serif, sans-serif" font-size="10px" font-style="normal" font-weight="normal" text-decoration="normal" x="523" y="69" text-anchor="start" dominant-baseline="alphabetic" fill-opacity="1">4π</text><path fill="none" stroke="rgb(0,0,0)" paint-order="fill stroke markers" d=" M 527 55 L 527 58" stroke-opacity="1" stroke-miterlimit="10" stroke-width="2"/><text fill="rgb(0,0,0)" stroke="none" font-family="geogebra-sans-serif, sans-serif" font-size="10px" font-style="normal" font-weight="normal" text-decoration="normal" x="606" y="69" text-anchor="start" dominant-baseline="alphabetic" fill-opacity="1">6π</text><text fill="rgb(0,0,0)" stroke="none" font-family="geogebra-sans-serif, sans-serif" font-size="10px" font-style="normal" font-weight="normal" text-decoration="normal" x="606" y="69" text-anchor="start" dominant-baseline="alphabetic" fill-opacity="1">6π</text><path fill="none" stroke="rgb(0,0,0)" paint-order="fill stroke markers" d=" M 611 55 L 611 58" stroke-opacity="1" stroke-miterlimit="10" stroke-width="2"/><text fill="rgb(0,0,0)" stroke="none" font-family="geogebra-sans-serif, sans-serif" font-size="10px" font-style="normal" font-weight="normal" text-decoration="normal" x="690" y="69" text-anchor="start" dominant-baseline="alphabetic" fill-opacity="1">8π</text><text fill="rgb(0,0,0)" stroke="none" font-family="geogebra-sans-serif, sans-serif" font-size="10px" font-style="normal" font-weight="normal" text-decoration="normal" x="690" y="69" text-anchor="start" dominant-baseline="alphabetic" fill-opacity="1">8π</text><path fill="none" stroke="rgb(0,0,0)" paint-order="fill stroke markers" d=" M 694 55 L 694 58" stroke-opacity="1" stroke-miterlimit="10" stroke-width="2"/><text fill="rgb(0,0,0)" stroke="none" font-family="geogebra-sans-serif, sans-serif" font-size="10px" font-style="normal" font-weight="normal" text-decoration="normal" x="771" y="69" text-anchor="start" dominant-baseline="alphabetic" fill-opacity="1">10π</text><text fill="rgb(0,0,0)" stroke="none" font-family="geogebra-sans-serif, sans-serif" font-size="10px" font-style="normal" font-weight="normal" text-decoration="normal" x="771" y="69" text-anchor="start" dominant-baseline="alphabetic" fill-opacity="1">10π</text><path fill="none" stroke="rgb(0,0,0)" paint-order="fill stroke markers" d=" M 778 55 L 778 58" stroke-opacity="1" stroke-miterlimit="10" stroke-width="2"/><text fill="rgb(0,0,0)" stroke="none" font-family="geogebra-sans-serif, sans-serif" font-size="10px" font-style="normal" font-weight="normal" text-decoration="normal" x="854" y="69" text-anchor="start" dominant-baseline="alphabetic" fill-opacity="1">12π</text><text fill="rgb(0,0,0)" stroke="none" font-family="geogebra-sans-serif, sans-serif" font-size="10px" font-style="normal" font-weight="normal" text-decoration="normal" x="854" y="69" text-anchor="start" dominant-baseline="alphabetic" fill-opacity="1">12π</text><path fill="none" stroke="rgb(0,0,0)" paint-order="fill stroke markers" d=" M 861 55 L 861 58" stroke-opacity="1" stroke-miterlimit="10" stroke-width="2"/><text fill="rgb(0,0,0)" stroke="none" font-family="geogebra-sans-serif, sans-serif" font-size="10px" font-style="normal" font-weight="normal" text-decoration="normal" x="937" y="69" text-anchor="start" dominant-baseline="alphabetic" fill-opacity="1">14π</text><text fill="rgb(0,0,0)" stroke="none" font-family="geogebra-sans-serif, sans-serif" font-size="10px" font-style="normal" font-weight="normal" text-decoration="normal" x="937" y="69" text-anchor="start" dominant-baseline="alphabetic" fill-opacity="1">14π</text><path fill="none" stroke="rgb(0,0,0)" paint-order="fill stroke markers" d=" M 944 55 L 944 58" stroke-opacity="1" stroke-miterlimit="10" stroke-width="2"/><text fill="rgb(0,0,0)" stroke="none" font-family="geogebra-sans-serif, sans-serif" font-size="10px" font-style="normal" font-weight="normal" text-decoration="normal" x="1021" y="69" text-anchor="start" dominant-baseline="alphabetic" fill-opacity="1">16π</text><text fill="rgb(0,0,0)" stroke="none" font-family="geogebra-sans-serif, sans-serif" font-size="10px" font-style="normal" font-weight="normal" text-decoration="normal" x="1021" y="69" text-anchor="start" dominant-baseline="alphabetic" fill-opacity="1">16π</text><path fill="none" stroke="rgb(0,0,0)" paint-order="fill stroke markers" d=" M 1028 55 L 1028 58" stroke-opacity="1" stroke-miterlimit="10" stroke-width="2"/><text fill="rgb(0,0,0)" stroke="none" font-family="geogebra-sans-serif, sans-serif" font-size="10px" font-style="normal" font-weight="normal" text-decoration="normal" x="358" y="69" text-anchor="start" dominant-baseline="alphabetic" fill-opacity="1">0</text><text fill="rgb(0,0,0)" stroke="none" font-family="geogebra-sans-serif, sans-serif" font-size="10px" font-style="normal" font-weight="normal" text-decoration="normal" x="358" y="69" text-anchor="start" dominant-baseline="alphabetic" fill-opacity="1">0</text><path fill="rgb(102,0,153)" stroke="none" paint-order="stroke fill markers" d=" M 231.30683205140036 55.32807464290447 C 231.30683205140036 58.64178314188923 228.62054055038513 61.32807464290447 225.30683205140036 61.32807464290447 C 221.9931235524156 61.32807464290447 219.30683205140036 58.64178314188923 219.30683205140036 55.32807464290447 C 219.30683205140036 52.01436614391971 221.9931235524156 49.32807464290447 225.30683205140036 49.32807464290447 C 228.62054055038513 49.32807464290447 231.30683205140036 52.01436614391971 231.30683205140036 55.32807464290447 Z" fill-opacity="1"/><path fill="none" stroke="rgb(0,0,0)" paint-order="fill stroke markers" d=" M 231.30683205140036 55.32807464290447 C 231.30683205140036 58.64178314188923 228.62054055038513 61.32807464290447 225.30683205140036 61.32807464290447 C 221.9931235524156 61.32807464290447 219.30683205140036 58.64178314188923 219.30683205140036 55.32807464290447 C 219.30683205140036 52.01436614391971 221.9931235524156 49.32807464290447 225.30683205140036 49.32807464290447 C 228.62054055038513 49.32807464290447 231.30683205140036 52.01436614391971 231.30683205140036 55.32807464290447 Z" stroke-opacity="1" stroke-linecap="round" stroke-linejoin="round" stroke-miterlimit="10"/><path fill="rgb(102,0,153)" stroke="none" paint-order="stroke fill markers" d=" M 314.65991800761617 55.32807464290447 C 314.65991800761617 58.64178314188923 311.9736265066009 61.32807464290447 308.65991800761617 61.32807464290447 C 305.34620950863143 61.32807464290447 302.65991800761617 58.64178314188923 302.65991800761617 55.32807464290447 C 302.65991800761617 52.01436614391971 305.34620950863143 49.32807464290447 308.65991800761617 49.32807464290447 C 311.9736265066009 49.32807464290447 314.65991800761617 52.01436614391971 314.65991800761617 55.32807464290447 Z" fill-opacity="1"/><path fill="none" stroke="rgb(0,0,0)" paint-order="fill stroke markers" d=" M 314.65991800761617 55.32807464290447 C 314.65991800761617 58.64178314188923 311.9736265066009 61.32807464290447 308.65991800761617 61.32807464290447 C 305.34620950863143 61.32807464290447 302.65991800761617 58.64178314188923 302.65991800761617 55.32807464290447 C 302.65991800761617 52.01436614391971 305.34620950863143 49.32807464290447 308.65991800761617 49.32807464290447 C 311.9736265066009 49.32807464290447 314.65991800761617 52.01436614391971 314.65991800761617 55.32807464290447 Z" stroke-opacity="1" stroke-linecap="round" stroke-linejoin="round" stroke-miterlimit="10"/><path fill="rgb(102,0,153)" stroke="none" paint-order="stroke fill markers" d=" M 398.0130039638319 55.32807464290447 C 398.0130039638319 58.64178314188923 395.32671246281666 61.32807464290447 392.0130039638319 61.32807464290447 C 388.6992954648472 61.32807464290447 386.0130039638319 58.64178314188923 386.0130039638319 55.32807464290447 C 386.0130039638319 52.01436614391971 388.6992954648472 49.32807464290447 392.0130039638319 49.32807464290447 C 395.32671246281666 49.32807464290447 398.0130039638319 52.01436614391971 398.0130039638319 55.32807464290447 Z" fill-opacity="1"/><path fill="none" stroke="rgb(0,0,0)" paint-order="fill stroke markers" d=" M 398.0130039638319 55.32807464290447 C 398.0130039638319 58.64178314188923 395.32671246281666 61.32807464290447 392.0130039638319 61.32807464290447 C 388.6992954648472 61.32807464290447 386.0130039638319 58.64178314188923 386.0130039638319 55.32807464290447 C 386.0130039638319 52.01436614391971 388.6992954648472 49.32807464290447 392.0130039638319 49.32807464290447 C 395.32671246281666 49.32807464290447 398.0130039638319 52.01436614391971 398.0130039638319 55.32807464290447 Z" stroke-opacity="1" stroke-linecap="round" stroke-linejoin="round" stroke-miterlimit="10"/><path fill="rgb(102,0,153)" stroke="none" paint-order="stroke fill markers" d=" M 481.36608992004767 55.32807464290447 C 481.36608992004767 58.64178314188923 478.6797984190324 61.32807464290447 475.36608992004767 61.32807464290447 C 472.05238142106293 61.32807464290447 469.36608992004767 58.64178314188923 469.36608992004767 55.32807464290447 C 469.36608992004767 52.01436614391971 472.05238142106293 49.32807464290447 475.36608992004767 49.32807464290447 C 478.6797984190324 49.32807464290447 481.36608992004767 52.01436614391971 481.36608992004767 55.32807464290447 Z" fill-opacity="1"/><path fill="none" stroke="rgb(0,0,0)" paint-order="fill stroke markers" d=" M 481.36608992004767 55.32807464290447 C 481.36608992004767 58.64178314188923 478.6797984190324 61.32807464290447 475.36608992004767 61.32807464290447 C 472.05238142106293 61.32807464290447 469.36608992004767 58.64178314188923 469.36608992004767 55.32807464290447 C 469.36608992004767 52.01436614391971 472.05238142106293 49.32807464290447 475.36608992004767 49.32807464290447 C 478.6797984190324 49.32807464290447 481.36608992004767 52.01436614391971 481.36608992004767 55.32807464290447 Z" stroke-opacity="1" stroke-linecap="round" stroke-linejoin="round" stroke-miterlimit="10"/><path fill="rgb(102,0,153)" stroke="none" paint-order="stroke fill markers" d=" M 564.7191758762634 55.32807464290447 C 564.7191758762634 58.64178314188923 562.0328843752482 61.32807464290447 558.7191758762634 61.32807464290447 C 555.4054673772787 61.32807464290447 552.7191758762634 58.64178314188923 552.7191758762634 55.32807464290447 C 552.7191758762634 52.01436614391971 555.4054673772787 49.32807464290447 558.7191758762634 49.32807464290447 C 562.0328843752482 49.32807464290447 564.7191758762634 52.01436614391971 564.7191758762634 55.32807464290447 Z" fill-opacity="1"/><path fill="none" stroke="rgb(0,0,0)" paint-order="fill stroke markers" d=" M 564.7191758762634 55.32807464290447 C 564.7191758762634 58.64178314188923 562.0328843752482 61.32807464290447 558.7191758762634 61.32807464290447 C 555.4054673772787 61.32807464290447 552.7191758762634 58.64178314188923 552.7191758762634 55.32807464290447 C 552.7191758762634 52.01436614391971 555.4054673772787 49.32807464290447 558.7191758762634 49.32807464290447 C 562.0328843752482 49.32807464290447 564.7191758762634 52.01436614391971 564.7191758762634 55.32807464290447 Z" stroke-opacity="1" stroke-linecap="round" stroke-linejoin="round" stroke-miterlimit="10"/><path fill="rgb(102,0,153)" stroke="none" paint-order="stroke fill markers" d=" M 648.0722618324792 55.32807464290447 C 648.0722618324792 58.64178314188923 645.3859703314639 61.32807464290447 642.0722618324792 61.32807464290447 C 638.7585533334944 61.32807464290447 636.0722618324792 58.64178314188923 636.0722618324792 55.32807464290447 C 636.0722618324792 52.01436614391971 638.7585533334944 49.32807464290447 642.0722618324792 49.32807464290447 C 645.3859703314639 49.32807464290447 648.0722618324792 52.01436614391971 648.0722618324792 55.32807464290447 Z" fill-opacity="1"/><path fill="none" stroke="rgb(0,0,0)" paint-order="fill stroke markers" d=" M 648.0722618324792 55.32807464290447 C 648.0722618324792 58.64178314188923 645.3859703314639 61.32807464290447 642.0722618324792 61.32807464290447 C 638.7585533334944 61.32807464290447 636.0722618324792 58.64178314188923 636.0722618324792 55.32807464290447 C 636.0722618324792 52.01436614391971 638.7585533334944 49.32807464290447 642.0722618324792 49.32807464290447 C 645.3859703314639 49.32807464290447 648.0722618324792 52.01436614391971 648.0722618324792 55.32807464290447 Z" stroke-opacity="1" stroke-linecap="round" stroke-linejoin="round" stroke-miterlimit="10"/><path fill="rgb(102,0,153)" stroke="none" paint-order="stroke fill markers" d=" M 731.425347788695 55.32807464290447 C 731.425347788695 58.64178314188923 728.7390562876798 61.32807464290447 725.425347788695 61.32807464290447 C 722.1116392897103 61.32807464290447 719.425347788695 58.64178314188923 719.425347788695 55.32807464290447 C 719.425347788695 52.01436614391971 722.1116392897103 49.32807464290447 725.425347788695 49.32807464290447 C 728.7390562876798 49.32807464290447 731.425347788695 52.01436614391971 731.425347788695 55.32807464290447 Z" fill-opacity="1"/><path fill="none" stroke="rgb(0,0,0)" paint-order="fill stroke markers" d=" M 731.425347788695 55.32807464290447 C 731.425347788695 58.64178314188923 728.7390562876798 61.32807464290447 725.425347788695 61.32807464290447 C 722.1116392897103 61.32807464290447 719.425347788695 58.64178314188923 719.425347788695 55.32807464290447 C 719.425347788695 52.01436614391971 722.1116392897103 49.32807464290447 725.425347788695 49.32807464290447 C 728.7390562876798 49.32807464290447 731.425347788695 52.01436614391971 731.425347788695 55.32807464290447 Z" stroke-opacity="1" stroke-linecap="round" stroke-linejoin="round" stroke-miterlimit="10"/><path fill="rgb(102,0,153)" stroke="none" paint-order="stroke fill markers" d=" M 814.7784337449107 55.32807464290447 C 814.7784337449107 58.64178314188923 812.0921422438954 61.32807464290447 808.7784337449107 61.32807464290447 C 805.4647252459259 61.32807464290447 802.7784337449107 58.64178314188923 802.7784337449107 55.32807464290447 C 802.7784337449107 52.01436614391971 805.4647252459259 49.32807464290447 808.7784337449107 49.32807464290447 C 812.0921422438954 49.32807464290447 814.7784337449107 52.01436614391971 814.7784337449107 55.32807464290447 Z" fill-opacity="1"/><path fill="none" stroke="rgb(0,0,0)" paint-order="fill stroke markers" d=" M 814.7784337449107 55.32807464290447 C 814.7784337449107 58.64178314188923 812.0921422438954 61.32807464290447 808.7784337449107 61.32807464290447 C 805.4647252459259 61.32807464290447 802.7784337449107 58.64178314188923 802.7784337449107 55.32807464290447 C 802.7784337449107 52.01436614391971 805.4647252459259 49.32807464290447 808.7784337449107 49.32807464290447 C 812.0921422438954 49.32807464290447 814.7784337449107 52.01436614391971 814.7784337449107 55.32807464290447 Z" stroke-opacity="1" stroke-linecap="round" stroke-linejoin="round" stroke-miterlimit="10"/><path fill="rgb(102,0,153)" stroke="none" paint-order="stroke fill markers" d=" M 898.1315197011265 55.32807464290447 C 898.1315197011265 58.64178314188923 895.4452282001113 61.32807464290447 892.1315197011265 61.32807464290447 C 888.8178112021418 61.32807464290447 886.1315197011265 58.64178314188923 886.1315197011265 55.32807464290447 C 886.1315197011265 52.01436614391971 888.8178112021418 49.32807464290447 892.1315197011265 49.32807464290447 C 895.4452282001113 49.32807464290447 898.1315197011265 52.01436614391971 898.1315197011265 55.32807464290447 Z" fill-opacity="1"/><path fill="none" stroke="rgb(0,0,0)" paint-order="fill stroke markers" d=" M 898.1315197011265 55.32807464290447 C 898.1315197011265 58.64178314188923 895.4452282001113 61.32807464290447 892.1315197011265 61.32807464290447 C 888.8178112021418 61.32807464290447 886.1315197011265 58.64178314188923 886.1315197011265 55.32807464290447 C 886.1315197011265 52.01436614391971 888.8178112021418 49.32807464290447 892.1315197011265 49.32807464290447 C 895.4452282001113 49.32807464290447 898.1315197011265 52.01436614391971 898.1315197011265 55.32807464290447 Z" stroke-opacity="1" stroke-linecap="round" stroke-linejoin="round" stroke-miterlimit="10"/><path fill="rgb(102,0,153)" stroke="none" paint-order="stroke fill markers" d=" M 981.4846056573423 55.32807464290447 C 981.4846056573423 58.64178314188923 978.798314156327 61.32807464290447 975.4846056573423 61.32807464290447 C 972.1708971583575 61.32807464290447 969.4846056573423 58.64178314188923 969.4846056573423 55.32807464290447 C 969.4846056573423 52.01436614391971 972.1708971583575 49.32807464290447 975.4846056573423 49.32807464290447 C 978.798314156327 49.32807464290447 981.4846056573423 52.01436614391971 981.4846056573423 55.32807464290447 Z" fill-opacity="1"/><path fill="none" stroke="rgb(0,0,0)" paint-order="fill stroke markers" d=" M 981.4846056573423 55.32807464290447 C 981.4846056573423 58.64178314188923 978.798314156327 61.32807464290447 975.4846056573423 61.32807464290447 C 972.1708971583575 61.32807464290447 969.4846056573423 58.64178314188923 969.4846056573423 55.32807464290447 C 969.4846056573423 52.01436614391971 972.1708971583575 49.32807464290447 975.4846056573423 49.32807464290447 C 978.798314156327 49.32807464290447 981.4846056573423 52.01436614391971 981.4846056573423 55.32807464290447 Z" stroke-opacity="1" stroke-linecap="round" stroke-linejoin="round" stroke-miterlimit="10"/><path fill="rgb(102,0,153)" stroke="none" paint-order="stroke fill markers" d=" M 1064.837691613558 55.32807464290447 C 1064.837691613558 58.64178314188923 1062.151400112543 61.32807464290447 1058.837691613558 61.32807464290447 C 1055.5239831145732 61.32807464290447 1052.837691613558 58.64178314188923 1052.837691613558 55.32807464290447 C 1052.837691613558 52.01436614391971 1055.5239831145732 49.32807464290447 1058.837691613558 49.32807464290447 C 1062.151400112543 49.32807464290447 1064.837691613558 52.01436614391971 1064.837691613558 55.32807464290447 Z" fill-opacity="1"/><path fill="none" stroke="rgb(0,0,0)" paint-order="fill stroke markers" d=" M 1064.837691613558 55.32807464290447 C 1064.837691613558 58.64178314188923 1062.151400112543 61.32807464290447 1058.837691613558 61.32807464290447 C 1055.5239831145732 61.32807464290447 1052.837691613558 58.64178314188923 1052.837691613558 55.32807464290447 C 1052.837691613558 52.01436614391971 1055.5239831145732 49.32807464290447 1058.837691613558 49.32807464290447 C 1062.151400112543 49.32807464290447 1064.837691613558 52.01436614391971 1064.837691613558 55.32807464290447 Z" stroke-opacity="1" stroke-linecap="round" stroke-linejoin="round" stroke-miterlimit="10"/><path fill="none" stroke="rgb(0,255,0)" paint-order="fill stroke markers" d=" M 319.0790537521431 55.32807464290447 L 402.4321397083589 55.32807464290447" stroke-opacity="0.6980392156862745" stroke-linecap="round" stroke-linejoin="round" stroke-miterlimit="10" stroke-width="6.5"/><path fill="none" stroke="rgb(51,51,51)" paint-order="fill stroke markers" d=" M 357.755596730251 52.32807464290447 L 363.755596730251 58.32807464290447" stroke-opacity="1" stroke-linecap="square" stroke-miterlimit="10" stroke-width="1.5"/><path fill="none" stroke="rgb(51,51,51)" paint-order="fill stroke markers" d=" M 357.755596730251 58.32807464290447 L 363.755596730251 52.32807464290447" stroke-opacity="1" stroke-linecap="square" stroke-miterlimit="10" stroke-width="1.5"/><path fill="rgb(128,0,0)" stroke="none" paint-order="stroke fill markers" d=" M 398.0000000000001 55.32807464290447 C 398.0000000000001 58.64178314188923 395.31370849898485 61.32807464290447 392.0000000000001 61.32807464290447 C 388.6862915010154 61.32807464290447 386.0000000000001 58.64178314188923 386.0000000000001 55.32807464290447 C 386.0000000000001 52.01436614391971 388.6862915010154 49.32807464290447 392.0000000000001 49.32807464290447 C 395.31370849898485 49.32807464290447 398.0000000000001 52.01436614391971 398.0000000000001 55.32807464290447 Z" fill-opacity="1"/><path fill="none" stroke="rgb(0,0,0)" paint-order="fill stroke markers" d=" M 398.0000000000001 55.32807464290447 C 398.0000000000001 58.64178314188923 395.31370849898485 61.32807464290447 392.0000000000001 61.32807464290447 C 388.6862915010154 61.32807464290447 386.0000000000001 58.64178314188923 386.0000000000001 55.32807464290447 C 386.0000000000001 52.01436614391971 388.6862915010154 49.32807464290447 392.0000000000001 49.32807464290447 C 395.31370849898485 49.32807464290447 398.0000000000001 52.01436614391971 398.0000000000001 55.32807464290447 Z" stroke-opacity="1" stroke-linecap="round" stroke-linejoin="round" stroke-miterlimit="10"/><text fill="rgb(128,0,0)" stroke="none" font-family="geogebra-sans-serif, sans-serif" font-size="12px" font-style="normal" font-weight="normal" text-decoration="normal" x="366" y="43" text-anchor="start" dominant-baseline="alphabetic" fill-opacity="1">mp(x)</text><text fill="rgb(128,0,0)" stroke="none" font-family="geogebra-sans-serif, sans-serif" font-size="12px" font-style="normal" font-weight="normal" text-decoration="normal" x="366" y="43" text-anchor="start" dominant-baseline="alphabetic" fill-opacity="1">mp(x)</text><path fill="rgb(0,100,0)" stroke="none" paint-order="stroke fill markers" d=" M 648.0000000000001 55.32807464290447 C 648.0000000000001 58.64178314188923 645.3137084989849 61.32807464290447 642.0000000000001 61.32807464290447 C 638.6862915010154 61.32807464290447 636.0000000000001 58.64178314188923 636.0000000000001 55.32807464290447 C 636.0000000000001 52.01436614391971 638.6862915010154 49.32807464290447 642.0000000000001 49.32807464290447 C 645.3137084989849 49.32807464290447 648.0000000000001 52.01436614391971 648.0000000000001 55.32807464290447 Z" fill-opacity="1"/><path fill="none" stroke="rgb(0,0,0)" paint-order="fill stroke markers" d=" M 648.0000000000001 55.32807464290447 C 648.0000000000001 58.64178314188923 645.3137084989849 61.32807464290447 642.0000000000001 61.32807464290447 C 638.6862915010154 61.32807464290447 636.0000000000001 58.64178314188923 636.0000000000001 55.32807464290447 C 636.0000000000001 52.01436614391971 638.6862915010154 49.32807464290447 642.0000000000001 49.32807464290447 C 645.3137084989849 49.32807464290447 648.0000000000001 52.01436614391971 648.0000000000001 55.32807464290447 Z" stroke-opacity="1" stroke-linecap="round" stroke-linejoin="round" stroke-miterlimit="10"/><text fill="rgb(0,100,0)" stroke="none" font-family="geogebra-sans-serif, sans-serif" font-size="12px" font-style="normal" font-weight="normal" text-decoration="normal" x="636" y="44" text-anchor="start" dominant-baseline="alphabetic" fill-opacity="1">x</text><text fill="rgb(0,100,0)" stroke="none" font-family="geogebra-sans-serif, sans-serif" font-size="12px" font-style="normal" font-weight="normal" text-decoration="normal" x="636" y="44" text-anchor="start" dominant-baseline="alphabetic" fill-opacity="1">x</text><path fill="none" stroke="rgb(0,100,0)" paint-order="fill stroke markers" d=" M 319.0790537521431 48.32807464290447 L 319.0790537521431 62.32807464290447" stroke-opacity="1" stroke-linecap="square" stroke-miterlimit="10" stroke-width="3.5"/><path fill="none" stroke="rgb(0,100,0)" paint-order="fill stroke markers" d=" M 312.0790537521431 55.32807464290447 L 326.0790537521431 55.32807464290447" stroke-opacity="1" stroke-linecap="square" stroke-miterlimit="10" stroke-width="3.5"/><text fill="rgb(0,100,0)" stroke="none" font-family="geogebra-sans-serif, sans-serif" font-size="12px" font-style="normal" font-weight="normal" text-decoration="normal" x="311" y="81" text-anchor="start" dominant-baseline="alphabetic" fill-opacity="1">-π</text><text fill="rgb(0,100,0)" stroke="none" font-family="geogebra-sans-serif, sans-serif" font-size="12px" font-style="normal" font-weight="normal" text-decoration="normal" x="311" y="81" text-anchor="start" dominant-baseline="alphabetic" fill-opacity="1">-π</text><path fill="none" stroke="rgb(0,100,0)" paint-order="fill stroke markers" d=" M 402.4321397083589 48.32807464290447 L 402.4321397083589 62.32807464290447" stroke-opacity="1" stroke-linecap="square" stroke-miterlimit="10" stroke-width="3.5"/><path fill="none" stroke="rgb(0,100,0)" paint-order="fill stroke markers" d=" M 395.4321397083589 55.32807464290447 L 409.4321397083589 55.32807464290447" stroke-opacity="1" stroke-linecap="square" stroke-miterlimit="10" stroke-width="3.5"/><text fill="rgb(0,100,0)" stroke="none" font-family="geogebra-sans-serif, sans-serif" font-size="12px" font-style="normal" font-weight="normal" text-decoration="normal" x="397" y="80" text-anchor="start" dominant-baseline="alphabetic" fill-opacity="1">π</text><text fill="rgb(0,100,0)" stroke="none" font-family="geogebra-sans-serif, sans-serif" font-size="12px" font-style="normal" font-weight="normal" text-decoration="normal" x="397" y="80" text-anchor="start" dominant-baseline="alphabetic" fill-opacity="1">π</text></g></g></svg>
