<?xml version="1.0" encoding="UTF-8" standalone="no"?>
<svg
   version="1.1"
   width="126.96068"
   height="121.35287"
   id="svg49"
   sodipodi:docname="radian.svg"
   inkscape:version="1.1.2 (0a00cf5339, 2022-02-04)"
   xmlns:inkscape="http://www.inkscape.org/namespaces/inkscape"
   xmlns:sodipodi="http://sodipodi.sourceforge.net/DTD/sodipodi-0.dtd"
   xmlns="http://www.w3.org/2000/svg"
   xmlns:svg="http://www.w3.org/2000/svg">
  <sodipodi:namedview
     id="namedview51"
     pagecolor="#505050"
     bordercolor="#eeeeee"
     borderopacity="1"
     inkscape:pageshadow="0"
     inkscape:pageopacity="0"
     inkscape:pagecheckerboard="0"
     showgrid="false"
     inkscape:zoom="2.2022472"
     inkscape:cx="63.571429"
     inkscape:cy="64.02551"
     inkscape:window-width="1024"
     inkscape:window-height="540"
     inkscape:window-x="0"
     inkscape:window-y="0"
     inkscape:window-maximized="1"
     inkscape:current-layer="svg49"
     fit-margin-top="0"
     fit-margin-left="0"
     fit-margin-right="0"
     fit-margin-bottom="0" />
  <defs
     id="defs5">
    <linearGradient
       id="linearGradient1199"
       inkscape:swatch="solid">
      <stop
         style="stop-color:#00ff00;stop-opacity:1;"
         offset="0"
         id="stop1197" />
    </linearGradient>
    <clipPath
       id="McmwWUocBhZk">
      <path
         fill="none"
         stroke="none"
         d="M 0,0 H 135 V 178 H 0 Z"
         id="path2" />
    </clipPath>
  </defs>
  <g
     clip-path="url(#McmwWUocBhZk)"
     id="g47"
     transform="translate(-4.2103209,-24.98283)">
    <g
       id="g45">
      <rect
         fill="none"
         stroke="none"
         x="0"
         y="0"
         width="135"
         height="179"
         fill-opacity="1"
         id="rect7" />
      <path
         fill="none"
         stroke="#000066"
         paint-order="fill stroke markers"
         d="M 113.89629,105.58102 C 105.91273,76.410325 84.932144,52.546097 57.024189,40.892226"
         stroke-opacity="1"
         stroke-linecap="round"
         stroke-linejoin="round"
         stroke-miterlimit="10"
         stroke-width="2.5"
         id="path9" />
      <path
         fill="#006400"
         stroke="none"
         paint-order="stroke fill markers"
         d="m 48.12329,123.58205 c -2.439172,-8.91236 -8.849254,-16.20346 -17.375816,-19.76401 l -11.560058,27.6833 z"
         fill-opacity="0.0980392"
         id="path11" />
      <path
         fill="none"
         stroke="#006400"
         paint-order="fill stroke markers"
         d="m 48.12329,123.58205 c -2.439172,-8.91236 -8.849254,-16.20346 -17.375816,-19.76401 l -11.560058,27.6833 z"
         stroke-opacity="1"
         stroke-linecap="round"
         stroke-linejoin="round"
         stroke-miterlimit="10"
         id="path13" />
      <text
         fill="#006400"
         stroke="none"
         font-family="geogebra-sans-serif, sans-serif"
         font-size="12px"
         font-style="normal"
         font-weight="normal"
         text-decoration="normal"
         x="29"
         y="124"
         text-anchor="start"
         dominant-baseline="alphabetic"
         fill-opacity="1"
         id="text15">α</text>
      <text
         fill="#006400"
         stroke="none"
         font-family="geogebra-sans-serif, sans-serif"
         font-size="12px"
         font-style="normal"
         font-weight="normal"
         text-decoration="normal"
         x="29"
         y="124"
         text-anchor="start"
         dominant-baseline="alphabetic"
         fill-opacity="1"
         id="text17">α</text>
      <path
         fill="none"
         stroke="#000000"
         paint-order="fill stroke markers"
         d="m 62.91979,113.83022 2.903741,10.60982"
         stroke-opacity="1"
         stroke-linecap="round"
         stroke-linejoin="round"
         stroke-miterlimit="10"
         stroke-width="2"
         id="path19" />
      <path
         fill="none"
         stroke="#000000"
         paint-order="fill stroke markers"
         d="m 67.260171,112.64232 2.903741,10.60982"
         stroke-opacity="1"
         stroke-linecap="round"
         stroke-linejoin="round"
         stroke-miterlimit="10"
         stroke-width="2"
         id="path21" />
      <path
         fill="none"
         stroke="#000000"
         paint-order="fill stroke markers"
         d="M 19.187416,131.50134 113.89629,105.58102"
         stroke-opacity="1"
         stroke-linecap="round"
         stroke-linejoin="round"
         stroke-miterlimit="10"
         stroke-width="2"
         id="path23" />
      <path
         fill="none"
         stroke="#000000"
         paint-order="fill stroke markers"
         d="m 32.163527,86.153688 10.150542,4.238688"
         stroke-opacity="1"
         stroke-linecap="round"
         stroke-linejoin="round"
         stroke-miterlimit="10"
         stroke-width="2"
         id="path25" />
      <path
         fill="none"
         stroke="#000000"
         paint-order="fill stroke markers"
         d="m 33.897535,82.001193 10.150543,4.238688"
         stroke-opacity="1"
         stroke-linecap="round"
         stroke-linejoin="round"
         stroke-miterlimit="10"
         stroke-width="2"
         id="path27" />
      <path
         fill="none"
         stroke="#000000"
         paint-order="fill stroke markers"
         d="M 19.187416,131.50134 57.024189,40.892226"
         stroke-opacity="1"
         stroke-linecap="round"
         stroke-linejoin="round"
         stroke-miterlimit="10"
         stroke-width="2"
         id="path29" />
      <g
         transform="scale(15)"
         id="g39">
        <g
           transform="matrix(0.7,0,0,0.7,6.6666667,3.5839333)"
           id="g33">
          <path
             fill="#000000"
             stroke="none"
             paint-order="stroke fill markers"
             d="m 0.944,-0.143 v 0 q 0,0.011 -0.013,0.013 -0.004,0 -0.012,-0.008 -0.066,-0.095 -0.166,-0.143 -0.115,-0.055 -0.254,-0.055 -0.193,0 -0.327,0.101 -0.049,0.037 -0.084,0.085 -0.012,0.015 -0.014,0.017 -0.003,0.003 -0.006,0.003 -0.011,0 -0.013,-0.013 0,-0.01 0.037,-0.053 0.105,-0.123 0.263,-0.166 0.07,-0.019 0.145,-0.019 0.214,0 0.368,0.145 0.057,0.053 0.076,0.093 z"
             id="path31" />
        </g>
        <g
           transform="translate(6.8576667,4.4168222)"
           id="g37">
          <path
             fill="#000000"
             stroke="none"
             paint-order="stroke fill markers"
             d="m 0.258,-0.683 -0.144,0.578 q -0.006,0.023 -0.006,0.048 0,0.046 0.03,0.046 0.039,0 0.065,-0.086 0.005,-0.015 0.011,-0.038 0.008,-0.017 0.014,-0.018 0.012,0 0.012,0.01 0,0.015 -0.018,0.069 -0.006,0.017 -0.012,0.029 -0.026,0.056 -0.075,0.056 -0.052,0 -0.078,-0.042 -0.013,-0.022 -0.013,-0.05 0,-0.016 0.005,-0.034 l 0.126,-0.5 0.003,-0.02 q 0,-0.011 -0.014,-0.014 -0.012,-0.003 -0.035,-0.003 -0.023,0 -0.025,-0.011 0,-0.018 0.019,-0.021 l 0.122,-0.01 q 0.013,0 0.013,0.011 z"
             id="path35" />
        </g>
      </g>
      <text
         fill="#000000"
         stroke="none"
         font-family="geogebra-serif, serif"
         font-size="12px"
         font-style="normal"
         font-weight="normal"
         text-decoration="normal"
         x="114"
         y="64"
         text-anchor="start"
         dominant-baseline="alphabetic"
         fill-opacity="1"
         id="text41" />
      <text
         fill="#000000"
         stroke="none"
         font-family="geogebra-sans-serif, sans-serif"
         font-size="12px"
         font-style="normal"
         font-weight="normal"
         text-decoration="normal"
         x="63"
         y="106"
         text-anchor="start"
         dominant-baseline="alphabetic"
         fill-opacity="1"
         id="text43">R</text>
    </g>
  </g>
  <rect
     style="fill:none;fill-opacity:0.5;stroke:none"
     id="rect996"
     width="125.96068"
     height="120.35287"
     x="0.5"
     y="0.5" />
</svg>
