<svg version="1.1" xmlns="http://www.w3.org/2000/svg" xmlns:xlink="http://www.w3.org/1999/xlink" width="213" height="203"><defs><clipPath id="JfqTxhUISpJv"><path fill="none" stroke="none" d=" M 0 0 L 213 0 L 213 203 L 0 203 L 0 0 Z"/></clipPath></defs><g transform="scale(1,1)" clip-path="url(#JfqTxhUISpJv)"><g><rect fill="none" stroke="none" x="0" y="0" width="214" height="204" fill-opacity="1"/><path fill="rgb(153,0,51)" stroke="none" paint-order="stroke fill markers" d=" M 191.4999999999999 98.49999999999993 L 191.4999999999999 101.49999999999993 L 109.49999999999997 101.49999999999993 C 108.67157287525379 101.49999999999993 107.99999999999997 102.17157287525374 107.99999999999997 102.99999999999993 C 107.99999999999997 103.82842712474611 108.67157287525379 104.49999999999993 109.49999999999997 104.49999999999993 L 191.4999999999999 104.49999999999993 L 191.4999999999999 107.49999999999993 L 209.4999999999999 102.99999999999993 L 191.4999999999999 98.49999999999993 Z" fill-opacity="1"/><text fill="rgb(153,0,51)" stroke="none" font-family="geogebra-sans-serif, sans-serif" font-size="12px" font-style="normal" font-weight="normal" text-decoration="normal" x="159" y="98" text-anchor="start" dominant-baseline="alphabetic" fill-opacity="1">u</text><text fill="rgb(153,0,51)" stroke="none" font-family="geogebra-sans-serif, sans-serif" font-size="12px" font-style="normal" font-weight="normal" text-decoration="normal" x="159" y="98" text-anchor="start" dominant-baseline="alphabetic" fill-opacity="1">u</text><path fill="rgb(0,102,51)" stroke="none" paint-order="stroke fill markers" d=" M 209.49999999999986 52.999999999999986 L 191.3878493822516 57.0249223594996 L 192.72949016875148 59.708203932499345 L 108.82917960675003 101.65835921350005 C 108.08821186061516 102.02884308656749 107.78787534043265 102.929852647115 108.15835921350009 103.67082039324987 C 108.42116754184035 104.19643704993038 108.95093578072026 104.500328584836 109.50116469074761 104.500328584836 C 109.72659969878562 104.500328584836 109.95546930379555 104.449316331227 110.17082039324991 104.34164078649981 L 194.07113095525133 62.39148550549909 L 195.41277174175121 65.07476707849884 L 209.4999999999999 52.999999999999986 Z" fill-opacity="1"/><text fill="rgb(0,102,51)" stroke="none" font-family="geogebra-sans-serif, sans-serif" font-size="12px" font-style="normal" font-weight="normal" text-decoration="normal" x="157" y="73" text-anchor="start" dominant-baseline="alphabetic" fill-opacity="1">v</text><text fill="rgb(0,102,51)" stroke="none" font-family="geogebra-sans-serif, sans-serif" font-size="12px" font-style="normal" font-weight="normal" text-decoration="normal" x="157" y="73" text-anchor="start" dominant-baseline="alphabetic" fill-opacity="1">v</text><path fill="rgb(204,153,0)" stroke="none" paint-order="stroke fill markers" d=" M 27.500000000000057 98.49999999999993 L 9.500000000000057 102.99999999999993 L 27.500000000000057 107.49999999999993 L 27.500000000000057 104.49999999999993 L 109.49999999999997 104.49999999999993 C 110.32842712474616 104.49999999999993 110.99999999999997 103.82842712474611 110.99999999999997 102.99999999999993 C 110.99999999999997 102.17157287525374 110.32842712474616 101.49999999999993 109.49999999999997 101.49999999999993 L 27.500000000000057 101.49999999999993 L 27.500000000000057 98.49999999999993 Z" fill-opacity="1"/><text fill="rgb(204,153,0)" stroke="none" font-family="geogebra-sans-serif, sans-serif" font-size="12px" font-style="normal" font-weight="normal" text-decoration="normal" x="59" y="100" text-anchor="start" dominant-baseline="alphabetic" fill-opacity="1">-u</text><text fill="rgb(204,153,0)" stroke="none" font-family="geogebra-sans-serif, sans-serif" font-size="12px" font-style="normal" font-weight="normal" text-decoration="normal" x="59" y="100" text-anchor="start" dominant-baseline="alphabetic" fill-opacity="1">-u</text><path fill="rgb(51,0,51)" stroke="none" paint-order="stroke fill markers" d=" M 109.49883530925233 101.49967141516386 C 109.27340030121432 101.49967141516386 109.04453069620439 101.55068366877286 108.82917960675003 101.65835921350005 L 24.928869044748605 143.60851449450075 L 24.928869044748602 143.60851449450075 L 23.587228258248732 140.92523292150102 L 9.500000000000057 152.9999999999999 L 27.612150617748352 148.97507764050025 L 26.270509831248482 146.2917960675005 L 26.27050983124848 146.2917960675005 L 110.17082039324991 104.34164078649981 C 110.91178813938478 103.97115691343237 111.2121246595673 103.07014735288486 110.84164078649985 102.32917960674999 C 110.5788324581596 101.80356295006948 110.04906421927969 101.49967141516386 109.49883530925233 101.49967141516386 Z" fill-opacity="1"/><text fill="rgb(51,0,51)" stroke="none" font-family="geogebra-sans-serif, sans-serif" font-size="12px" font-style="normal" font-weight="normal" text-decoration="normal" x="61" y="132" text-anchor="start" dominant-baseline="alphabetic" fill-opacity="1">-v</text><text fill="rgb(51,0,51)" stroke="none" font-family="geogebra-sans-serif, sans-serif" font-size="12px" font-style="normal" font-weight="normal" text-decoration="normal" x="61" y="132" text-anchor="start" dominant-baseline="alphabetic" fill-opacity="1">-v</text></g></g></svg>
