<svg version="1.1" xmlns="http://www.w3.org/2000/svg" xmlns:xlink="http://www.w3.org/1999/xlink" width="891" height="515"><defs><clipPath id="UsFBdzfRleFJ"><path fill="none" stroke="none" d=" M 0 0 L 891 0 L 891 515 L 0 515 L 0 0 Z"/></clipPath></defs><g transform="scale(1,1)" clip-path="url(#UsFBdzfRleFJ)"><g><rect fill="rgb(255,255,255)" stroke="none" x="0" y="0" width="892" height="515" fill-opacity="1"/><path fill="none" stroke="rgb(192,192,192)" paint-order="fill stroke markers" d=" M 11.5 0.5 L 11.5 515.5 M 11.5 0.5 L 11.5 515.5 M 57.5 0.5 L 57.5 515.5 M 104.5 0.5 L 104.5 515.5 M 196.5 0.5 L 196.5 515.5 M 242.5 0.5 L 242.5 515.5 M 288.5 0.5 L 288.5 515.5 M 334.5 0.5 L 334.5 515.5 M 380.5 0.5 L 380.5 515.5 M 426.5 0.5 L 426.5 515.5 M 473.5 0.5 L 473.5 515.5 M 519.5 0.5 L 519.5 515.5 M 565.5 0.5 L 565.5 515.5 M 611.5 0.5 L 611.5 515.5 M 657.5 0.5 L 657.5 515.5 M 703.5 0.5 L 703.5 515.5 M 749.5 0.5 L 749.5 515.5 M 796.5 0.5 L 796.5 515.5 M 842.5 0.5 L 842.5 515.5 M 888.5 0.5 L 888.5 515.5" stroke-opacity="1" stroke-linecap="round" stroke-linejoin="round" stroke-miterlimit="10"/><path fill="none" stroke="rgb(192,192,192)" paint-order="fill stroke markers" d=" M 2.5 0.5 L 2.5 515.5 M 20.5 0.5 L 20.5 515.5 M 30.5 0.5 L 30.5 515.5 M 39.5 0.5 L 39.5 515.5 M 48.5 0.5 L 48.5 515.5 M 67.5 0.5 L 67.5 515.5 M 76.5 0.5 L 76.5 515.5 M 85.5 0.5 L 85.5 515.5 M 94.5 0.5 L 94.5 515.5 M 113.5 0.5 L 113.5 515.5 M 122.5 0.5 L 122.5 515.5 M 131.5 0.5 L 131.5 515.5 M 140.5 0.5 L 140.5 515.5 M 159.5 0.5 L 159.5 515.5 M 168.5 0.5 L 168.5 515.5 M 177.5 0.5 L 177.5 515.5 M 187.5 0.5 L 187.5 515.5 M 205.5 0.5 L 205.5 515.5 M 214.5 0.5 L 214.5 515.5 M 223.5 0.5 L 223.5 515.5 M 233.5 0.5 L 233.5 515.5 M 251.5 0.5 L 251.5 515.5 M 260.5 0.5 L 260.5 515.5 M 270.5 0.5 L 270.5 515.5 M 279.5 0.5 L 279.5 515.5 M 297.5 0.5 L 297.5 515.5 M 307.5 0.5 L 307.5 515.5 M 316.5 0.5 L 316.5 515.5 M 325.5 0.5 L 325.5 515.5 M 343.5 0.5 L 343.5 515.5 M 353.5 0.5 L 353.5 515.5 M 362.5 0.5 L 362.5 515.5 M 371.5 0.5 L 371.5 515.5 M 390.5 0.5 L 390.5 515.5 M 399.5 0.5 L 399.5 515.5 M 408.5 0.5 L 408.5 515.5 M 417.5 0.5 L 417.5 515.5 M 436.5 0.5 L 436.5 515.5 M 445.5 0.5 L 445.5 515.5 M 454.5 0.5 L 454.5 515.5 M 463.5 0.5 L 463.5 515.5 M 482.5 0.5 L 482.5 515.5 M 491.5 0.5 L 491.5 515.5 M 500.5 0.5 L 500.5 515.5 M 510.5 0.5 L 510.5 515.5 M 528.5 0.5 L 528.5 515.5 M 537.5 0.5 L 537.5 515.5 M 546.5 0.5 L 546.5 515.5 M 556.5 0.5 L 556.5 515.5 M 574.5 0.5 L 574.5 515.5 M 583.5 0.5 L 583.5 515.5 M 593.5 0.5 L 593.5 515.5 M 602.5 0.5 L 602.5 515.5 M 620.5 0.5 L 620.5 515.5 M 629.5 0.5 L 629.5 515.5 M 639.5 0.5 L 639.5 515.5 M 648.5 0.5 L 648.5 515.5 M 666.5 0.5 L 666.5 515.5 M 676.5 0.5 L 676.5 515.5 M 685.5 0.5 L 685.5 515.5 M 694.5 0.5 L 694.5 515.5 M 712.5 0.5 L 712.5 515.5 M 722.5 0.5 L 722.5 515.5 M 731.5 0.5 L 731.5 515.5 M 740.5 0.5 L 740.5 515.5 M 759.5 0.5 L 759.5 515.5 M 768.5 0.5 L 768.5 515.5 M 777.5 0.5 L 777.5 515.5 M 786.5 0.5 L 786.5 515.5 M 805.5 0.5 L 805.5 515.5 M 814.5 0.5 L 814.5 515.5 M 823.5 0.5 L 823.5 515.5 M 832.5 0.5 L 832.5 515.5 M 851.5 0.5 L 851.5 515.5 M 860.5 0.5 L 860.5 515.5 M 869.5 0.5 L 869.5 515.5 M 879.5 0.5 L 879.5 515.5" stroke-opacity="0.23529411764705882" stroke-linecap="round" stroke-linejoin="round" stroke-miterlimit="10"/><path fill="none" stroke="rgb(192,192,192)" paint-order="fill stroke markers" d=" M 0.5 28.5 L 891.5 28.5 M 0.5 28.5 L 891.5 28.5 M 0.5 74.5 L 891.5 74.5 M 0.5 120.5 L 891.5 120.5 M 0.5 166.5 L 891.5 166.5 M 0.5 258.5 L 891.5 258.5 M 0.5 304.5 L 891.5 304.5 M 0.5 350.5 L 891.5 350.5 M 0.5 397.5 L 891.5 397.5 M 0.5 443.5 L 891.5 443.5 M 0.5 489.5 L 891.5 489.5" stroke-opacity="1" stroke-linecap="round" stroke-linejoin="round" stroke-miterlimit="10"/><path fill="none" stroke="rgb(192,192,192)" paint-order="fill stroke markers" d=" M 0.5 0.5 L 891.5 0.5 M 0.5 0.5 L 891.5 0.5 M 0.5 9.5 L 891.5 9.5 M 0.5 18.5 L 891.5 18.5 M 0.5 37.5 L 891.5 37.5 M 0.5 46.5 L 891.5 46.5 M 0.5 55.5 L 891.5 55.5 M 0.5 64.5 L 891.5 64.5 M 0.5 83.5 L 891.5 83.5 M 0.5 92.5 L 891.5 92.5 M 0.5 101.5 L 891.5 101.5 M 0.5 111.5 L 891.5 111.5 M 0.5 129.5 L 891.5 129.5 M 0.5 138.5 L 891.5 138.5 M 0.5 147.5 L 891.5 147.5 M 0.5 157.5 L 891.5 157.5 M 0.5 175.5 L 891.5 175.5 M 0.5 184.5 L 891.5 184.5 M 0.5 194.5 L 891.5 194.5 M 0.5 203.5 L 891.5 203.5 M 0.5 221.5 L 891.5 221.5 M 0.5 230.5 L 891.5 230.5 M 0.5 240.5 L 891.5 240.5 M 0.5 249.5 L 891.5 249.5 M 0.5 267.5 L 891.5 267.5 M 0.5 277.5 L 891.5 277.5 M 0.5 286.5 L 891.5 286.5 M 0.5 295.5 L 891.5 295.5 M 0.5 314.5 L 891.5 314.5 M 0.5 323.5 L 891.5 323.5 M 0.5 332.5 L 891.5 332.5 M 0.5 341.5 L 891.5 341.5 M 0.5 360.5 L 891.5 360.5 M 0.5 369.5 L 891.5 369.5 M 0.5 378.5 L 891.5 378.5 M 0.5 387.5 L 891.5 387.5 M 0.5 406.5 L 891.5 406.5 M 0.5 415.5 L 891.5 415.5 M 0.5 424.5 L 891.5 424.5 M 0.5 433.5 L 891.5 433.5 M 0.5 452.5 L 891.5 452.5 M 0.5 461.5 L 891.5 461.5 M 0.5 470.5 L 891.5 470.5 M 0.5 480.5 L 891.5 480.5 M 0.5 498.5 L 891.5 498.5 M 0.5 507.5 L 891.5 507.5" stroke-opacity="0.23529411764705882" stroke-linecap="round" stroke-linejoin="round" stroke-miterlimit="10"/><path fill="none" stroke="rgb(37,37,37)" paint-order="fill stroke markers" d=" M 150.5 2.5 L 150.5 515.5" stroke-opacity="1" stroke-miterlimit="10"/><path fill="none" stroke="rgb(37,37,37)" paint-order="fill stroke markers" d=" M 150.5 1.5 L 146.5 5.5" stroke-opacity="1" stroke-miterlimit="10"/><path fill="none" stroke="rgb(37,37,37)" paint-order="fill stroke markers" d=" M 150.5 1.5 L 154.5 5.5" stroke-opacity="1" stroke-miterlimit="10"/><path fill="none" stroke="rgb(37,37,37)" paint-order="fill stroke markers" d=" M 0.5 212.5 L 889.5 212.5" stroke-opacity="1" stroke-miterlimit="10"/><path fill="none" stroke="rgb(37,37,37)" paint-order="fill stroke markers" d=" M 890.5 212.5 L 886.5 208.5" stroke-opacity="1" stroke-miterlimit="10"/><path fill="none" stroke="rgb(37,37,37)" paint-order="fill stroke markers" d=" M 890.5 212.5 L 886.5 216.5" stroke-opacity="1" stroke-miterlimit="10"/><text fill="rgb(37,37,37)" stroke="none" font-family="geogebra-sans-serif, sans-serif" font-size="12px" font-style="normal" font-weight="normal" text-decoration="normal" x="0" y="228" text-anchor="start" dominant-baseline="alphabetic" fill-opacity="1">–0.6</text><text fill="none" stroke="rgb(255,255,255)" font-family="geogebra-sans-serif, sans-serif" font-size="12px" font-style="normal" font-weight="normal" text-decoration="normal" x="0" y="228" text-anchor="start" dominant-baseline="alphabetic" stroke-opacity="1" stroke-linejoin="bevel" stroke-miterlimit="10" stroke-width="3">–0.6</text><text fill="rgb(37,37,37)" stroke="none" font-family="geogebra-sans-serif, sans-serif" font-size="12px" font-style="normal" font-weight="normal" text-decoration="normal" x="0" y="228" text-anchor="start" dominant-baseline="alphabetic" fill-opacity="1">–0.6</text><text fill="rgb(37,37,37)" stroke="none" font-family="geogebra-sans-serif, sans-serif" font-size="12px" font-style="normal" font-weight="normal" text-decoration="normal" x="46" y="228" text-anchor="start" dominant-baseline="alphabetic" fill-opacity="1">–0.4</text><text fill="none" stroke="rgb(255,255,255)" font-family="geogebra-sans-serif, sans-serif" font-size="12px" font-style="normal" font-weight="normal" text-decoration="normal" x="46" y="228" text-anchor="start" dominant-baseline="alphabetic" stroke-opacity="1" stroke-linejoin="bevel" stroke-miterlimit="10" stroke-width="3">–0.4</text><text fill="rgb(37,37,37)" stroke="none" font-family="geogebra-sans-serif, sans-serif" font-size="12px" font-style="normal" font-weight="normal" text-decoration="normal" x="46" y="228" text-anchor="start" dominant-baseline="alphabetic" fill-opacity="1">–0.4</text><text fill="rgb(37,37,37)" stroke="none" font-family="geogebra-sans-serif, sans-serif" font-size="12px" font-style="normal" font-weight="normal" text-decoration="normal" x="93" y="228" text-anchor="start" dominant-baseline="alphabetic" fill-opacity="1">–0.2</text><text fill="none" stroke="rgb(255,255,255)" font-family="geogebra-sans-serif, sans-serif" font-size="12px" font-style="normal" font-weight="normal" text-decoration="normal" x="93" y="228" text-anchor="start" dominant-baseline="alphabetic" stroke-opacity="1" stroke-linejoin="bevel" stroke-miterlimit="10" stroke-width="3">–0.2</text><text fill="rgb(37,37,37)" stroke="none" font-family="geogebra-sans-serif, sans-serif" font-size="12px" font-style="normal" font-weight="normal" text-decoration="normal" x="93" y="228" text-anchor="start" dominant-baseline="alphabetic" fill-opacity="1">–0.2</text><text fill="rgb(37,37,37)" stroke="none" font-family="geogebra-sans-serif, sans-serif" font-size="12px" font-style="normal" font-weight="normal" text-decoration="normal" x="188" y="228" text-anchor="start" dominant-baseline="alphabetic" fill-opacity="1">0.2</text><text fill="none" stroke="rgb(255,255,255)" font-family="geogebra-sans-serif, sans-serif" font-size="12px" font-style="normal" font-weight="normal" text-decoration="normal" x="188" y="228" text-anchor="start" dominant-baseline="alphabetic" stroke-opacity="1" stroke-linejoin="bevel" stroke-miterlimit="10" stroke-width="3">0.2</text><text fill="rgb(37,37,37)" stroke="none" font-family="geogebra-sans-serif, sans-serif" font-size="12px" font-style="normal" font-weight="normal" text-decoration="normal" x="188" y="228" text-anchor="start" dominant-baseline="alphabetic" fill-opacity="1">0.2</text><text fill="rgb(37,37,37)" stroke="none" font-family="geogebra-sans-serif, sans-serif" font-size="12px" font-style="normal" font-weight="normal" text-decoration="normal" x="234" y="228" text-anchor="start" dominant-baseline="alphabetic" fill-opacity="1">0.4</text><text fill="none" stroke="rgb(255,255,255)" font-family="geogebra-sans-serif, sans-serif" font-size="12px" font-style="normal" font-weight="normal" text-decoration="normal" x="234" y="228" text-anchor="start" dominant-baseline="alphabetic" stroke-opacity="1" stroke-linejoin="bevel" stroke-miterlimit="10" stroke-width="3">0.4</text><text fill="rgb(37,37,37)" stroke="none" font-family="geogebra-sans-serif, sans-serif" font-size="12px" font-style="normal" font-weight="normal" text-decoration="normal" x="234" y="228" text-anchor="start" dominant-baseline="alphabetic" fill-opacity="1">0.4</text><text fill="rgb(37,37,37)" stroke="none" font-family="geogebra-sans-serif, sans-serif" font-size="12px" font-style="normal" font-weight="normal" text-decoration="normal" x="280" y="228" text-anchor="start" dominant-baseline="alphabetic" fill-opacity="1">0.6</text><text fill="none" stroke="rgb(255,255,255)" font-family="geogebra-sans-serif, sans-serif" font-size="12px" font-style="normal" font-weight="normal" text-decoration="normal" x="280" y="228" text-anchor="start" dominant-baseline="alphabetic" stroke-opacity="1" stroke-linejoin="bevel" stroke-miterlimit="10" stroke-width="3">0.6</text><text fill="rgb(37,37,37)" stroke="none" font-family="geogebra-sans-serif, sans-serif" font-size="12px" font-style="normal" font-weight="normal" text-decoration="normal" x="280" y="228" text-anchor="start" dominant-baseline="alphabetic" fill-opacity="1">0.6</text><text fill="rgb(37,37,37)" stroke="none" font-family="geogebra-sans-serif, sans-serif" font-size="12px" font-style="normal" font-weight="normal" text-decoration="normal" x="326" y="228" text-anchor="start" dominant-baseline="alphabetic" fill-opacity="1">0.8</text><text fill="none" stroke="rgb(255,255,255)" font-family="geogebra-sans-serif, sans-serif" font-size="12px" font-style="normal" font-weight="normal" text-decoration="normal" x="326" y="228" text-anchor="start" dominant-baseline="alphabetic" stroke-opacity="1" stroke-linejoin="bevel" stroke-miterlimit="10" stroke-width="3">0.8</text><text fill="rgb(37,37,37)" stroke="none" font-family="geogebra-sans-serif, sans-serif" font-size="12px" font-style="normal" font-weight="normal" text-decoration="normal" x="326" y="228" text-anchor="start" dominant-baseline="alphabetic" fill-opacity="1">0.8</text><text fill="rgb(37,37,37)" stroke="none" font-family="geogebra-sans-serif, sans-serif" font-size="12px" font-style="normal" font-weight="normal" text-decoration="normal" x="378" y="228" text-anchor="start" dominant-baseline="alphabetic" fill-opacity="1">1</text><text fill="none" stroke="rgb(255,255,255)" font-family="geogebra-sans-serif, sans-serif" font-size="12px" font-style="normal" font-weight="normal" text-decoration="normal" x="378" y="228" text-anchor="start" dominant-baseline="alphabetic" stroke-opacity="1" stroke-linejoin="bevel" stroke-miterlimit="10" stroke-width="3">1</text><text fill="rgb(37,37,37)" stroke="none" font-family="geogebra-sans-serif, sans-serif" font-size="12px" font-style="normal" font-weight="normal" text-decoration="normal" x="378" y="228" text-anchor="start" dominant-baseline="alphabetic" fill-opacity="1">1</text><text fill="rgb(37,37,37)" stroke="none" font-family="geogebra-sans-serif, sans-serif" font-size="12px" font-style="normal" font-weight="normal" text-decoration="normal" x="418" y="228" text-anchor="start" dominant-baseline="alphabetic" fill-opacity="1">1.2</text><text fill="none" stroke="rgb(255,255,255)" font-family="geogebra-sans-serif, sans-serif" font-size="12px" font-style="normal" font-weight="normal" text-decoration="normal" x="418" y="228" text-anchor="start" dominant-baseline="alphabetic" stroke-opacity="1" stroke-linejoin="bevel" stroke-miterlimit="10" stroke-width="3">1.2</text><text fill="rgb(37,37,37)" stroke="none" font-family="geogebra-sans-serif, sans-serif" font-size="12px" font-style="normal" font-weight="normal" text-decoration="normal" x="418" y="228" text-anchor="start" dominant-baseline="alphabetic" fill-opacity="1">1.2</text><text fill="rgb(37,37,37)" stroke="none" font-family="geogebra-sans-serif, sans-serif" font-size="12px" font-style="normal" font-weight="normal" text-decoration="normal" x="465" y="228" text-anchor="start" dominant-baseline="alphabetic" fill-opacity="1">1.4</text><text fill="none" stroke="rgb(255,255,255)" font-family="geogebra-sans-serif, sans-serif" font-size="12px" font-style="normal" font-weight="normal" text-decoration="normal" x="465" y="228" text-anchor="start" dominant-baseline="alphabetic" stroke-opacity="1" stroke-linejoin="bevel" stroke-miterlimit="10" stroke-width="3">1.4</text><text fill="rgb(37,37,37)" stroke="none" font-family="geogebra-sans-serif, sans-serif" font-size="12px" font-style="normal" font-weight="normal" text-decoration="normal" x="465" y="228" text-anchor="start" dominant-baseline="alphabetic" fill-opacity="1">1.4</text><text fill="rgb(37,37,37)" stroke="none" font-family="geogebra-sans-serif, sans-serif" font-size="12px" font-style="normal" font-weight="normal" text-decoration="normal" x="511" y="228" text-anchor="start" dominant-baseline="alphabetic" fill-opacity="1">1.6</text><text fill="none" stroke="rgb(255,255,255)" font-family="geogebra-sans-serif, sans-serif" font-size="12px" font-style="normal" font-weight="normal" text-decoration="normal" x="511" y="228" text-anchor="start" dominant-baseline="alphabetic" stroke-opacity="1" stroke-linejoin="bevel" stroke-miterlimit="10" stroke-width="3">1.6</text><text fill="rgb(37,37,37)" stroke="none" font-family="geogebra-sans-serif, sans-serif" font-size="12px" font-style="normal" font-weight="normal" text-decoration="normal" x="511" y="228" text-anchor="start" dominant-baseline="alphabetic" fill-opacity="1">1.6</text><text fill="rgb(37,37,37)" stroke="none" font-family="geogebra-sans-serif, sans-serif" font-size="12px" font-style="normal" font-weight="normal" text-decoration="normal" x="557" y="228" text-anchor="start" dominant-baseline="alphabetic" fill-opacity="1">1.8</text><text fill="none" stroke="rgb(255,255,255)" font-family="geogebra-sans-serif, sans-serif" font-size="12px" font-style="normal" font-weight="normal" text-decoration="normal" x="557" y="228" text-anchor="start" dominant-baseline="alphabetic" stroke-opacity="1" stroke-linejoin="bevel" stroke-miterlimit="10" stroke-width="3">1.8</text><text fill="rgb(37,37,37)" stroke="none" font-family="geogebra-sans-serif, sans-serif" font-size="12px" font-style="normal" font-weight="normal" text-decoration="normal" x="557" y="228" text-anchor="start" dominant-baseline="alphabetic" fill-opacity="1">1.8</text><text fill="rgb(37,37,37)" stroke="none" font-family="geogebra-sans-serif, sans-serif" font-size="12px" font-style="normal" font-weight="normal" text-decoration="normal" x="609" y="228" text-anchor="start" dominant-baseline="alphabetic" fill-opacity="1">2</text><text fill="none" stroke="rgb(255,255,255)" font-family="geogebra-sans-serif, sans-serif" font-size="12px" font-style="normal" font-weight="normal" text-decoration="normal" x="609" y="228" text-anchor="start" dominant-baseline="alphabetic" stroke-opacity="1" stroke-linejoin="bevel" stroke-miterlimit="10" stroke-width="3">2</text><text fill="rgb(37,37,37)" stroke="none" font-family="geogebra-sans-serif, sans-serif" font-size="12px" font-style="normal" font-weight="normal" text-decoration="normal" x="609" y="228" text-anchor="start" dominant-baseline="alphabetic" fill-opacity="1">2</text><text fill="rgb(37,37,37)" stroke="none" font-family="geogebra-sans-serif, sans-serif" font-size="12px" font-style="normal" font-weight="normal" text-decoration="normal" x="649" y="228" text-anchor="start" dominant-baseline="alphabetic" fill-opacity="1">2.2</text><text fill="none" stroke="rgb(255,255,255)" font-family="geogebra-sans-serif, sans-serif" font-size="12px" font-style="normal" font-weight="normal" text-decoration="normal" x="649" y="228" text-anchor="start" dominant-baseline="alphabetic" stroke-opacity="1" stroke-linejoin="bevel" stroke-miterlimit="10" stroke-width="3">2.2</text><text fill="rgb(37,37,37)" stroke="none" font-family="geogebra-sans-serif, sans-serif" font-size="12px" font-style="normal" font-weight="normal" text-decoration="normal" x="649" y="228" text-anchor="start" dominant-baseline="alphabetic" fill-opacity="1">2.2</text><text fill="rgb(37,37,37)" stroke="none" font-family="geogebra-sans-serif, sans-serif" font-size="12px" font-style="normal" font-weight="normal" text-decoration="normal" x="695" y="228" text-anchor="start" dominant-baseline="alphabetic" fill-opacity="1">2.4</text><text fill="none" stroke="rgb(255,255,255)" font-family="geogebra-sans-serif, sans-serif" font-size="12px" font-style="normal" font-weight="normal" text-decoration="normal" x="695" y="228" text-anchor="start" dominant-baseline="alphabetic" stroke-opacity="1" stroke-linejoin="bevel" stroke-miterlimit="10" stroke-width="3">2.4</text><text fill="rgb(37,37,37)" stroke="none" font-family="geogebra-sans-serif, sans-serif" font-size="12px" font-style="normal" font-weight="normal" text-decoration="normal" x="695" y="228" text-anchor="start" dominant-baseline="alphabetic" fill-opacity="1">2.4</text><text fill="rgb(37,37,37)" stroke="none" font-family="geogebra-sans-serif, sans-serif" font-size="12px" font-style="normal" font-weight="normal" text-decoration="normal" x="741" y="228" text-anchor="start" dominant-baseline="alphabetic" fill-opacity="1">2.6</text><text fill="none" stroke="rgb(255,255,255)" font-family="geogebra-sans-serif, sans-serif" font-size="12px" font-style="normal" font-weight="normal" text-decoration="normal" x="741" y="228" text-anchor="start" dominant-baseline="alphabetic" stroke-opacity="1" stroke-linejoin="bevel" stroke-miterlimit="10" stroke-width="3">2.6</text><text fill="rgb(37,37,37)" stroke="none" font-family="geogebra-sans-serif, sans-serif" font-size="12px" font-style="normal" font-weight="normal" text-decoration="normal" x="741" y="228" text-anchor="start" dominant-baseline="alphabetic" fill-opacity="1">2.6</text><text fill="rgb(37,37,37)" stroke="none" font-family="geogebra-sans-serif, sans-serif" font-size="12px" font-style="normal" font-weight="normal" text-decoration="normal" x="788" y="228" text-anchor="start" dominant-baseline="alphabetic" fill-opacity="1">2.8</text><text fill="none" stroke="rgb(255,255,255)" font-family="geogebra-sans-serif, sans-serif" font-size="12px" font-style="normal" font-weight="normal" text-decoration="normal" x="788" y="228" text-anchor="start" dominant-baseline="alphabetic" stroke-opacity="1" stroke-linejoin="bevel" stroke-miterlimit="10" stroke-width="3">2.8</text><text fill="rgb(37,37,37)" stroke="none" font-family="geogebra-sans-serif, sans-serif" font-size="12px" font-style="normal" font-weight="normal" text-decoration="normal" x="788" y="228" text-anchor="start" dominant-baseline="alphabetic" fill-opacity="1">2.8</text><text fill="rgb(37,37,37)" stroke="none" font-family="geogebra-sans-serif, sans-serif" font-size="12px" font-style="normal" font-weight="normal" text-decoration="normal" x="840" y="228" text-anchor="start" dominant-baseline="alphabetic" fill-opacity="1">3</text><text fill="none" stroke="rgb(255,255,255)" font-family="geogebra-sans-serif, sans-serif" font-size="12px" font-style="normal" font-weight="normal" text-decoration="normal" x="840" y="228" text-anchor="start" dominant-baseline="alphabetic" stroke-opacity="1" stroke-linejoin="bevel" stroke-miterlimit="10" stroke-width="3">3</text><text fill="rgb(37,37,37)" stroke="none" font-family="geogebra-sans-serif, sans-serif" font-size="12px" font-style="normal" font-weight="normal" text-decoration="normal" x="840" y="228" text-anchor="start" dominant-baseline="alphabetic" fill-opacity="1">3</text><text fill="rgb(37,37,37)" stroke="none" font-family="geogebra-sans-serif, sans-serif" font-size="12px" font-style="normal" font-weight="normal" text-decoration="normal" x="118" y="494" text-anchor="start" dominant-baseline="alphabetic" fill-opacity="1">–1.2</text><text fill="none" stroke="rgb(255,255,255)" font-family="geogebra-sans-serif, sans-serif" font-size="12px" font-style="normal" font-weight="normal" text-decoration="normal" x="118" y="494" text-anchor="start" dominant-baseline="alphabetic" stroke-opacity="1" stroke-linejoin="bevel" stroke-miterlimit="10" stroke-width="3">–1.2</text><text fill="rgb(37,37,37)" stroke="none" font-family="geogebra-sans-serif, sans-serif" font-size="12px" font-style="normal" font-weight="normal" text-decoration="normal" x="118" y="494" text-anchor="start" dominant-baseline="alphabetic" fill-opacity="1">–1.2</text><text fill="rgb(37,37,37)" stroke="none" font-family="geogebra-sans-serif, sans-serif" font-size="12px" font-style="normal" font-weight="normal" text-decoration="normal" x="129" y="448" text-anchor="start" dominant-baseline="alphabetic" fill-opacity="1">–1</text><text fill="none" stroke="rgb(255,255,255)" font-family="geogebra-sans-serif, sans-serif" font-size="12px" font-style="normal" font-weight="normal" text-decoration="normal" x="129" y="448" text-anchor="start" dominant-baseline="alphabetic" stroke-opacity="1" stroke-linejoin="bevel" stroke-miterlimit="10" stroke-width="3">–1</text><text fill="rgb(37,37,37)" stroke="none" font-family="geogebra-sans-serif, sans-serif" font-size="12px" font-style="normal" font-weight="normal" text-decoration="normal" x="129" y="448" text-anchor="start" dominant-baseline="alphabetic" fill-opacity="1">–1</text><text fill="rgb(37,37,37)" stroke="none" font-family="geogebra-sans-serif, sans-serif" font-size="12px" font-style="normal" font-weight="normal" text-decoration="normal" x="118" y="402" text-anchor="start" dominant-baseline="alphabetic" fill-opacity="1">–0.8</text><text fill="none" stroke="rgb(255,255,255)" font-family="geogebra-sans-serif, sans-serif" font-size="12px" font-style="normal" font-weight="normal" text-decoration="normal" x="118" y="402" text-anchor="start" dominant-baseline="alphabetic" stroke-opacity="1" stroke-linejoin="bevel" stroke-miterlimit="10" stroke-width="3">–0.8</text><text fill="rgb(37,37,37)" stroke="none" font-family="geogebra-sans-serif, sans-serif" font-size="12px" font-style="normal" font-weight="normal" text-decoration="normal" x="118" y="402" text-anchor="start" dominant-baseline="alphabetic" fill-opacity="1">–0.8</text><text fill="rgb(37,37,37)" stroke="none" font-family="geogebra-sans-serif, sans-serif" font-size="12px" font-style="normal" font-weight="normal" text-decoration="normal" x="118" y="355" text-anchor="start" dominant-baseline="alphabetic" fill-opacity="1">–0.6</text><text fill="none" stroke="rgb(255,255,255)" font-family="geogebra-sans-serif, sans-serif" font-size="12px" font-style="normal" font-weight="normal" text-decoration="normal" x="118" y="355" text-anchor="start" dominant-baseline="alphabetic" stroke-opacity="1" stroke-linejoin="bevel" stroke-miterlimit="10" stroke-width="3">–0.6</text><text fill="rgb(37,37,37)" stroke="none" font-family="geogebra-sans-serif, sans-serif" font-size="12px" font-style="normal" font-weight="normal" text-decoration="normal" x="118" y="355" text-anchor="start" dominant-baseline="alphabetic" fill-opacity="1">–0.6</text><text fill="rgb(37,37,37)" stroke="none" font-family="geogebra-sans-serif, sans-serif" font-size="12px" font-style="normal" font-weight="normal" text-decoration="normal" x="118" y="309" text-anchor="start" dominant-baseline="alphabetic" fill-opacity="1">–0.4</text><text fill="none" stroke="rgb(255,255,255)" font-family="geogebra-sans-serif, sans-serif" font-size="12px" font-style="normal" font-weight="normal" text-decoration="normal" x="118" y="309" text-anchor="start" dominant-baseline="alphabetic" stroke-opacity="1" stroke-linejoin="bevel" stroke-miterlimit="10" stroke-width="3">–0.4</text><text fill="rgb(37,37,37)" stroke="none" font-family="geogebra-sans-serif, sans-serif" font-size="12px" font-style="normal" font-weight="normal" text-decoration="normal" x="118" y="309" text-anchor="start" dominant-baseline="alphabetic" fill-opacity="1">–0.4</text><text fill="rgb(37,37,37)" stroke="none" font-family="geogebra-sans-serif, sans-serif" font-size="12px" font-style="normal" font-weight="normal" text-decoration="normal" x="118" y="263" text-anchor="start" dominant-baseline="alphabetic" fill-opacity="1">–0.2</text><text fill="none" stroke="rgb(255,255,255)" font-family="geogebra-sans-serif, sans-serif" font-size="12px" font-style="normal" font-weight="normal" text-decoration="normal" x="118" y="263" text-anchor="start" dominant-baseline="alphabetic" stroke-opacity="1" stroke-linejoin="bevel" stroke-miterlimit="10" stroke-width="3">–0.2</text><text fill="rgb(37,37,37)" stroke="none" font-family="geogebra-sans-serif, sans-serif" font-size="12px" font-style="normal" font-weight="normal" text-decoration="normal" x="118" y="263" text-anchor="start" dominant-baseline="alphabetic" fill-opacity="1">–0.2</text><text fill="rgb(37,37,37)" stroke="none" font-family="geogebra-sans-serif, sans-serif" font-size="12px" font-style="normal" font-weight="normal" text-decoration="normal" x="124" y="171" text-anchor="start" dominant-baseline="alphabetic" fill-opacity="1">0.2</text><text fill="none" stroke="rgb(255,255,255)" font-family="geogebra-sans-serif, sans-serif" font-size="12px" font-style="normal" font-weight="normal" text-decoration="normal" x="124" y="171" text-anchor="start" dominant-baseline="alphabetic" stroke-opacity="1" stroke-linejoin="bevel" stroke-miterlimit="10" stroke-width="3">0.2</text><text fill="rgb(37,37,37)" stroke="none" font-family="geogebra-sans-serif, sans-serif" font-size="12px" font-style="normal" font-weight="normal" text-decoration="normal" x="124" y="171" text-anchor="start" dominant-baseline="alphabetic" fill-opacity="1">0.2</text><text fill="rgb(37,37,37)" stroke="none" font-family="geogebra-sans-serif, sans-serif" font-size="12px" font-style="normal" font-weight="normal" text-decoration="normal" x="124" y="125" text-anchor="start" dominant-baseline="alphabetic" fill-opacity="1">0.4</text><text fill="none" stroke="rgb(255,255,255)" font-family="geogebra-sans-serif, sans-serif" font-size="12px" font-style="normal" font-weight="normal" text-decoration="normal" x="124" y="125" text-anchor="start" dominant-baseline="alphabetic" stroke-opacity="1" stroke-linejoin="bevel" stroke-miterlimit="10" stroke-width="3">0.4</text><text fill="rgb(37,37,37)" stroke="none" font-family="geogebra-sans-serif, sans-serif" font-size="12px" font-style="normal" font-weight="normal" text-decoration="normal" x="124" y="125" text-anchor="start" dominant-baseline="alphabetic" fill-opacity="1">0.4</text><text fill="rgb(37,37,37)" stroke="none" font-family="geogebra-sans-serif, sans-serif" font-size="12px" font-style="normal" font-weight="normal" text-decoration="normal" x="124" y="79" text-anchor="start" dominant-baseline="alphabetic" fill-opacity="1">0.6</text><text fill="none" stroke="rgb(255,255,255)" font-family="geogebra-sans-serif, sans-serif" font-size="12px" font-style="normal" font-weight="normal" text-decoration="normal" x="124" y="79" text-anchor="start" dominant-baseline="alphabetic" stroke-opacity="1" stroke-linejoin="bevel" stroke-miterlimit="10" stroke-width="3">0.6</text><text fill="rgb(37,37,37)" stroke="none" font-family="geogebra-sans-serif, sans-serif" font-size="12px" font-style="normal" font-weight="normal" text-decoration="normal" x="124" y="79" text-anchor="start" dominant-baseline="alphabetic" fill-opacity="1">0.6</text><text fill="rgb(37,37,37)" stroke="none" font-family="geogebra-sans-serif, sans-serif" font-size="12px" font-style="normal" font-weight="normal" text-decoration="normal" x="124" y="33" text-anchor="start" dominant-baseline="alphabetic" fill-opacity="1">0.8</text><text fill="none" stroke="rgb(255,255,255)" font-family="geogebra-sans-serif, sans-serif" font-size="12px" font-style="normal" font-weight="normal" text-decoration="normal" x="124" y="33" text-anchor="start" dominant-baseline="alphabetic" stroke-opacity="1" stroke-linejoin="bevel" stroke-miterlimit="10" stroke-width="3">0.8</text><text fill="rgb(37,37,37)" stroke="none" font-family="geogebra-sans-serif, sans-serif" font-size="12px" font-style="normal" font-weight="normal" text-decoration="normal" x="124" y="33" text-anchor="start" dominant-baseline="alphabetic" fill-opacity="1">0.8</text><text fill="rgb(37,37,37)" stroke="none" font-family="geogebra-sans-serif, sans-serif" font-size="12px" font-style="normal" font-weight="normal" text-decoration="normal" x="135" y="228" text-anchor="start" dominant-baseline="alphabetic" fill-opacity="1">0</text><text fill="none" stroke="rgb(255,255,255)" font-family="geogebra-sans-serif, sans-serif" font-size="12px" font-style="normal" font-weight="normal" text-decoration="normal" x="135" y="228" text-anchor="start" dominant-baseline="alphabetic" stroke-opacity="1" stroke-linejoin="bevel" stroke-miterlimit="10" stroke-width="3">0</text><text fill="rgb(37,37,37)" stroke="none" font-family="geogebra-sans-serif, sans-serif" font-size="12px" font-style="normal" font-weight="normal" text-decoration="normal" x="135" y="228" text-anchor="start" dominant-baseline="alphabetic" fill-opacity="1">0</text><path fill="rgb(0,100,0)" stroke="none" paint-order="stroke fill markers" fill-rule="evenodd" d=" M 249.15605704234025 399.4989049245064 L 260.2273674867744 405.7779243577412 L 266.5063869200104 394.70661391330674 L 255.43507647557507 388.42759448007223 L 249.15605704234025 399.4989049245064" fill-opacity="0.09803921568627451"/><path fill="none" stroke="rgb(0,100,0)" paint-order="fill stroke markers" d=" M 249.15605704234025 399.4989049245064 L 260.2273674867744 405.7779243577412 L 266.5063869200104 394.70661391330674 L 255.43507647557507 388.42759448007223 L 249.15605704234025 399.4989049245064" stroke-opacity="0.6980392156862745" stroke-linecap="round" stroke-linejoin="round" stroke-miterlimit="10" stroke-width="2.5"/><path fill="none" stroke="rgb(0,100,0)" paint-order="fill stroke markers" d=" M 150.17307056154561 212.54035453664235 L 151.6568477807728 221.5118389416619 L 153.140625 228.42637135450863 M 153.140625 228.42637135450863 L 154.880859375 235.56970419480297 L 156.62109375 242.05424479556723 L 158.361328125 248.06324508768745 L 160.1015625 253.69956098282375 L 161.841796875 259.0292728207422 L 163.58203125 264.0984812513379 L 167.0625 273.5835731552169 M 167.0625 273.5835731552169 L 170.54296875 282.3462670367539 L 174.0234375 290.51134852554526 L 177.50390625 298.1667092462384 L 180.984375 305.3776408886035 L 184.46484375 312.1945756738027 L 187.9453125 318.65764871076453 L 191.42578125 324.7995636090771 L 194.90625 330.6474838862128 L 198.38671874999997 336.22433212009594 L 201.8671875 341.5497120201604 L 205.34765625 346.64058106863416 L 208.828125 351.51175278376394 L 212.30859374999997 356.176279367555 L 215.7890625 360.6457483631916 L 219.26953125 364.9305162031742 L 222.75 369.03989458938 M 222.75 369.03989458938 L 226.23046875 372.9823010448232 L 229.7109375 376.7653818544191 L 233.19140625 380.39611344896855 L 236.671875 383.8808867600572 L 240.15234375 387.2255779780989 L 243.63281249999997 390.4356083475986 L 247.11328125 393.5159950440625 L 250.59375 396.47139473582746 L 254.07421875 399.30614110014915 L 257.5546875 402.02427730739316 L 261.03515625 404.6295842897397 L 264.515625 407.12560545682993 L 267.99609375 409.51566839965494 L 271.4765625 411.80290402794344 L 274.95703125 413.99026350956717 L 278.4375 416.08053331875374 L 281.91796875 418.0763486498969 L 285.3984375 419.9802054130174 L 288.87890625 421.7944709935334 L 292.359375 423.5213939314764 L 295.83984375 425.16311265248953 L 299.3203125 426.72166336395543 L 302.80078125 428.1989872137238 L 306.28125 429.59693679556125 L 309.76171875 430.9172820741869 L 313.2421875 432.16171579321747 L 316.72265625 433.33185842123 L 320.203125 434.4292626842267 L 323.68359375 435.4554177268512 L 327.1640625 436.4117529396059 L 330.64453125 437.29964148492536 L 334.125 438.1204035511541 L 337.60546875 438.8753093601798 L 341.0859375 439.56558195160306 L 344.56640625 440.1923997638189 L 348.04687499999994 440.75689903019827 L 351.52734375 441.26017600663477 L 355.0078125 441.7032890450373 L 358.48828125 442.087260525859 L 361.96875 442.4130786614427 L 365.44921875 442.6816991808008 L 368.9296875 442.8940469054156 L 372.41015624999994 443.05101722473216 L 375.890625 443.1534774792014 L 379.37109375 443.20226825800114 L 382.8515625 443.19820461791625 L 386.33203125 443.14207722927483 L 389.8125 443.0346534543182 L 393.29296875 442.87667836291064 L 396.77343749999994 442.6688756900767 L 400.25390625 442.4119487394707 L 403.73437499999994 442.1065812365424 L 407.21484374999994 441.753438134852 L 410.6953125 441.35316637870585 L 414.17578124999994 440.90639562503327 L 417.65625 440.41373892718923 L 421.13671874999994 439.875793383162 L 424.6171875 439.2931407504717 L 428.09765624999994 438.66634802987244 L 431.578125 437.99596801981113 L 435.05859375 437.28253984345275 L 438.53906249999994 436.52658944994687 L 442.01953125 435.7286300914909 L 445.49999999999994 434.88916277763417 M 445.49999999999994 434.88916277763417 L 448.98046875 434.0086767081616 L 452.46093749999994 433.0876496858084 L 455.94140625 432.1265485099634 L 459.42187499999994 431.12582935244575 L 462.90234374999994 430.0859381163623 L 466.38281249999994 429.00731077898837 L 469.86328124999994 427.8903737195507 L 473.34374999999994 426.73554403273465 L 476.82421874999994 425.5432298286843 L 480.3046875 424.31383052021545 L 483.78515624999994 423.04773709791596 L 487.26562499999994 421.7453323937639 L 490.74609374999994 420.40699133385823 L 494.22656249999994 419.0330811808169 L 497.70703124999994 417.6239617663663 L 501.18749999999994 416.17998571461135 L 504.66796875 414.70149865645135 L 508.14843749999994 413.18883943557296 L 511.62890624999994 411.64234030643183 L 515.109375 410.0623271246087 L 518.58984375 408.4491195299021 L 522.0703125 406.80303112250266 L 525.55078125 405.1243696325714 L 529.03125 403.41343708352804 L 532.51171875 401.67052994933977 L 535.9921875 399.8959393060803 L 539.47265625 398.08995097802193 L 542.953125 396.252845678501 L 546.43359375 394.38489914579134 L 549.9140625 392.4863822742028 L 553.39453125 390.5575612406149 L 556.875 388.5986976266399 L 560.35546875 386.6100485366046 L 563.8359375 384.5918667115285 L 567.31640625 382.5444006392635 L 570.796875 380.4678946609598 L 574.27734375 378.36258907400634 L 577.7578125 376.22872023159255 L 581.23828125 374.06652063902766 L 584.71875 371.87621904695027 L 588.19921875 369.65804054154967 L 591.6796875 367.4122066319212 L 595.16015625 365.13893533466626 L 598.640625 362.83844125584494 L 602.12109375 360.51093567038527 L 605.6015625 358.15662659904575 L 609.08203125 355.77571888302475 L 612.5624999999999 353.36841425630763 L 616.04296875 350.93491141583377 L 619.5234375 348.4754060895685 L 623.0039062499999 345.99009110255383 L 626.484375 343.4791564410163 L 629.96484375 340.9427893145993 L 633.4453125 338.38117421679067 L 636.9257812499999 335.7944929836085 L 640.40625 333.1829248506098 L 643.88671875 330.5466465082783 L 647.3671875 327.88583215585174 L 650.84765625 325.20065355364125 L 654.328125 322.4912800738963 L 657.80859375 319.75787875026435 L 661.2890624999999 317.0006143258945 L 664.76953125 314.21964930023086 L 668.25 311.4151439745399 L 671.7304687499999 308.5872564962139 L 675.2109375 305.7361429018921 L 678.69140625 302.8619571594389 L 682.1718749999999 299.96485120881505 L 685.6523437499999 297.0449750018806 L 689.1328124999999 294.10247654116154 L 692.61328125 291.13750191761676 L 696.0937499999999 288.1501953474345 L 699.57421875 285.1406992078896 L 703.0546875 282.1091540722947 L 706.5351562499999 279.05569874406876 L 710.0156249999999 275.98047028995387 L 713.4960937499999 272.8836040724071 L 716.9765625 269.7652337811901 L 720.4570312499999 266.62549146418377 L 723.9375 263.4645075574506 L 727.41796875 260.282410914567 L 730.8984374999999 257.07932883524916 L 734.3789062499999 253.85538709329137 L 737.8593749999999 250.6107099638395 L 741.33984375 247.34542025001812 L 744.8203124999999 244.0596393089306 L 748.30078125 240.75348707705 L 751.78125 237.42708209501978 L 755.2617187499999 234.08054153187956 L 758.7421874999999 230.71398120873465 L 762.2226562499999 227.3275156218829 L 765.703125 223.92125796541654 L 769.1835937499999 220.49532015331215 L 772.6640625 217.04981284102365 L 776.14453125 213.58484544659348 L 779.6249999999999 210.1005261712925 L 783.1054687499999 206.59696201980495 L 786.5859374999999 203.07425881996875 L 790.06640625 199.53252124208367 L 793.5468749999999 195.97185281780037 L 797.02734375 192.39235595859873 L 800.5078125 188.79413197387174 L 803.9882812499999 185.17728108861863 L 807.4687499999999 181.54190246076388 L 810.9492187499999 177.88809419810804 L 814.4296875 174.2159533749218 L 817.9101562499999 170.52557604819276 L 821.390625 166.81705727353227 L 824.87109375 163.0904911207537 L 828.3515625 159.3459706891283 L 831.8320312499999 155.58358812232785 L 835.3124999999999 151.8034346230629 L 838.79296875 148.00560046742294 L 842.2734374999999 144.1901750189275 L 845.75390625 140.35724674229178 L 849.234375 136.50690321692224 L 852.71484375 132.63923115013688 L 856.1953124999999 128.75431639012805 L 859.6757812499999 124.85224393866926 L 863.15625 120.9330979635695 L 866.6367187499999 116.99696181088909 L 870.1171875 113.04391801691351 L 873.59765625 109.07404831989919 L 877.078125 105.08743367159127 L 880.5585937499999 101.08415424852122 L 884.0390624999999 97.06428946309003 L 887.5195312499999 93.02791797443938 L 890.9999999999999 88.9751176991196" stroke-opacity="0.6980392156862745" stroke-linecap="round" stroke-linejoin="round" stroke-miterlimit="10" stroke-width="2.5"/><text fill="rgb(0,100,0)" stroke="none" font-family="geogebra-sans-serif, sans-serif" font-size="16px" font-style="normal" font-weight="normal" text-decoration="normal" x="151" y="221" text-anchor="start" dominant-baseline="alphabetic" fill-opacity="1">f</text><text fill="none" stroke="rgb(255,255,255)" font-family="geogebra-sans-serif, sans-serif" font-size="16px" font-style="normal" font-weight="normal" text-decoration="normal" x="151" y="221" text-anchor="start" dominant-baseline="alphabetic" stroke-opacity="1" stroke-linejoin="bevel" stroke-miterlimit="10" stroke-width="3">f</text><text fill="rgb(0,100,0)" stroke="none" font-family="geogebra-sans-serif, sans-serif" font-size="16px" font-style="normal" font-weight="normal" text-decoration="normal" x="151" y="221" text-anchor="start" dominant-baseline="alphabetic" fill-opacity="1">f</text><path fill="none" stroke="rgb(204,0,0)" paint-order="fill stroke markers" d=" M 151.49999999999997 1402.3430729241632 L 151.49999999999997 1725.4789507217226 L 151.49999999999997 1402.3430729241634 L 152.5 1272.7818009244645 L 152.5 1272.781800924465 L 153.5 1190.3184395151673 L 153.5 1190.3184395151677 L 154.49999999999997 1129.6973276856493 L 154.49999999999997 1129.6973276856495 L 155.5 1081.7378601756407 L 155.5 1081.737860175641 L 156.5 1042.0539656696028 L 156.5 1042.053965669603 L 157.49999999999997 1008.2056059544574 L 157.49999999999997 1008.2056059544576 L 158.5 978.6945253132005 L 158.5 978.6945253132008 L 159.5 952.5343770058852 L 159.5 952.5343770058853 L 160.49999999999997 929.041182879347 L 160.49999999999997 929.0411828793473 L 161.5 907.7211224833886 L 161.5 907.7211224833889 L 162.5 888.2059837145898 L 162.5 888.20598371459 L 163.49999999999997 870.2138728700446 L 163.49999999999997 870.2138728700447 L 164.5 853.5241789181301 L 164.5 853.5241789181304 L 165.5 837.9610039894598 L 165.5 837.9610039894599 L 166.49999999999997 823.3818410851611 L 166.49999999999997 823.3818410851612 L 167.5 809.6696232040108 L 167.5 809.669623204011 L 168.5 796.7270066210756 L 168.5 796.7270066210757 L 169.49999999999997 784.4721748941475 L 169.49999999999997 784.4721748941478 L 170.5 772.8357025811031 L 170.5 772.8357025811033 L 171.5 761.7581728918175 L 171.5 761.7581728918177 L 172.49999999999997 751.188341728165 L 172.49999999999997 751.1883417281651 L 173.5 741.0817043083943 L 173.5 741.0817043083945 L 174.5 731.3993628784416 L 174.5 731.3993628784417 L 175.49999999999997 722.1071226665847 L 175.49999999999997 722.1071226665849 L 176.5 713.1747630040729 L 176.5 713.174763004073 L 177.5 704.5754443988244 L 177.5 704.5754443988246 L 178.49999999999997 696.285222223283 L 178.49999999999997 696.2852222232832 L 179.5 688.2826448084129 L 179.5 688.2826448084131 L 180.5 680.5484189522035 L 180.5 680.5484189522037 L 181.49999999999997 673.0651297124842 L 181.49999999999997 673.0651297124843 L 182.5 665.8170042438625 L 182.5 665.8170042438626 L 183.5 658.7897116237222 L 183.5 658.7897116237223 L 184.49999999999997 651.9701922801875 L 184.49999999999997 651.9701922801876 L 185.5 645.3465119195237 L 185.5 645.3465119195238 L 186.5 638.9077358479644 L 186.5 638.9077358479645 L 187.49999999999997 632.6438203636545 L 187.49999999999997 632.6438203636545 L 188.5 626.5455185098979 L 188.5 626.545518509898 L 189.5 620.6042979694946 L 189.5 620.6042979694947 L 190.49999999999997 614.8122692703562 L 190.49999999999997 614.8122692703563 L 191.5 609.1621227864676 L 191.5 609.1621227864678 L 192.49999999999997 603.6470732720616 L 192.49999999999997 603.6470732720617 L 193.49999999999997 598.2608108732453 L 193.49999999999997 598.2608108732454 L 194.5 592.997457730021 L 194.5 592.9974577300211 L 195.49999999999997 587.8515294201975 L 195.49999999999997 587.8515294201976 L 196.49999999999997 582.817900611068 L 196.49999999999997 582.8179006110681 L 197.5 577.8917743795564 L 197.5 577.8917743795565 L 198.49999999999997 573.0686547404879 L 198.49999999999997 573.068654740488 L 199.49999999999997 568.3443219886533 L 199.49999999999997 568.3443219886534 L 200.5 563.7148105157603 L 200.5 563.7148105157604 L 201.49999999999997 559.1763888100421 L 201.49999999999997 559.1763888100422 L 202.49999999999997 554.7255413857805 L 202.49999999999997 554.7255413857806 L 203.5 550.3589524234977 L 203.5 550.3589524234978 L 204.49999999999997 546.0734909300932 L 204.49999999999997 546.0734909300933 L 205.49999999999997 541.8661972525507 L 205.49999999999997 541.8661972525508 L 206.5 537.7342707997167 L 206.5 537.7342707997168 L 207.49999999999997 533.6750588445714 L 207.49999999999997 533.6750588445715 L 208.49999999999997 529.6860462948592 L 208.49999999999997 529.6860462948594 L 209.5 525.7648463333002 L 209.5 525.7648463333003 L 210.49999999999997 521.9091918401521 L 210.49999999999997 521.9091918401521 L 211.49999999999994 518.1169275209406 L 211.49999999999994 518.1169275209407 L 212.5 514.3860026709168 L 212.5 514.3860026709169 L 213.49999999999997 510.71446451541897 L 213.49999999999997 510.7144645154191 L 214.49999999999994 507.1004520719973 L 214.49999999999994 507.10045207199744 L 215.49999999999997 503.5421904860026 L 215.49999999999997 503.5421904860027 L 216.49999999999997 500.0379857964757 L 216.49999999999997 500.0379857964758 L 217.5 496.5862200937006 L 217.5 496.5862200937007 L 218.49999999999997 493.1853470337676 L 218.49999999999997 493.1853470337677 L 219.49999999999997 489.8338876790217 L 219.49999999999997 489.8338876790218 L 220.5 486.53042663638996 L 220.5 486.5304266363901 L 221.5 483.2736084683503 L 221.5 483.2736084683504 L 222.49999999999997 480.0621343537641 L 222.49999999999997 480.06213435376424 L 223.5 476.8947589779847 L 223.5 476.8947589779848 L 224.5 473.7702876336067 L 224.5 473.7702876336068 L 225.49999999999997 470.68757351496356 L 225.49999999999997 470.6875735149637 L 226.5 467.6455151910402 L 226.5 467.6455151910403 L 227.5 464.643054242868 L 227.5 464.6430542428681 L 228.49999999999997 461.67917305271703 L 228.49999999999997 461.67917305271715 L 229.5 458.75289273353195 L 229.5 458.752892733532 L 230.5 455.86327118807003 L 230.5 455.86327118807014 L 231.49999999999997 453.009401288111 L 231.49999999999997 453.0094012881111 L 232.5 450.1904091649336 L 232.5 450.1904091649337 L 233.5 447.40545260299933 L 233.5 447.4054526029994 L 234.49999999999997 444.6537195294542 L 234.49999999999997 444.6537195294543 L 235.5 441.9344265926707 L 235.5 441.9344265926708 L 236.5 439.2468178236061 L 236.5 439.2468178236061 L 237.49999999999997 436.59016337425146 L 237.49999999999997 436.5901633742515 L 238.5 433.96375832790693 L 238.5 433.963758327907 L 239.5 431.3669215764295 L 239.5 431.36692157642955 L 240.49999999999997 428.7989947599799 L 240.49999999999997 428.79899475998 L 241.5 426.2593412651404 L 241.5 426.2593412651405 L 242.5 423.74734527758795 L 242.5 423.747345277588 L 243.49999999999997 421.26241088579775 L 243.49999999999997 421.26241088579786 L 244.49999999999997 418.8039612325118 L 244.49999999999997 418.8039612325118 L 245.5 416.3714377109522 L 245.5 416.37143771095225 L 246.49999999999997 413.96429920297555 L 246.49999999999997 413.96429920297555 L 247.49999999999997 411.58202135657007 L 247.49999999999997 411.58202135657007 L 248.5 409.2240959002829 L 248.5 409.224095900283 L 249.49999999999997 406.89002999233446 L 249.49999999999997 406.89002999233446 L 250.49999999999997 404.57934560233434 L 250.49999999999997 404.57934560233446 L 251.5 402.29157892366123 L 251.5 402.2915789236613 L 252.49999999999997 400.02627981469635 L 252.49999999999997 400.0262798146964 L 253.49999999999997 397.78301126722926 L 253.49999999999997 397.7830112672293 L 254.5 395.5613489004652 L 254.5 395.56134890046525 L 255.49999999999997 393.36088047916746 L 255.49999999999997 393.3608804791675 L 256.5 391.1812054545676 L 256.5 391.1812054545676 L 257.5 389.02193452676397 L 257.5 389.0219345267641 L 258.5 386.8826892274135 L 258.5 386.8826892274136 L 259.5 384.7631015215961 L 259.5 384.76310152159624 L 260.5 382.66281342780707 L 260.5 382.6628134278071 L 261.5 380.5814766550929 L 261.5 380.58147665509296 L 262.5 378.51875225641305 L 262.5 378.5187522564131 L 263.5 376.47431029736373 L 263.5 376.4743102973638 L 264.5 374.44782953945355 L 264.5 374.4478295394536 L 265.5 372.4389971371713 L 265.5 372.43899713717144 L 266.5 370.44750834813186 L 266.5 370.4475083481319 L 267.5 368.47306625562624 L 267.5 368.47306625562635 L 268.5 366.5153815029476 L 268.5 366.51538150294766 L 269.5 364.5741720388951 L 269.5 364.5741720388952 L 270.49999999999994 362.6491628738986 L 270.49999999999994 362.6491628738987 L 271.5 360.74008584623476 L 271.5 360.7400858462348 L 272.5 358.8466793978391 L 272.5 358.8466793978391 L 273.49999999999994 356.96868835924397 L 273.49999999999994 356.968688359244 L 274.5 355.1058637432012 L 274.5 355.10586374320127 L 275.5 353.25796254657143 L 275.5 353.25796254657155 L 276.49999999999994 351.42474756008596 L 276.49999999999994 351.42474756008596 L 277.5 349.60598718560857 L 277.5 349.6059871856086 L 278.5 347.80145526054616 L 278.5 347.80145526054616 L 279.5 346.0109308890736 L 279.5 346.0109308890737 L 280.5 344.2341982798596 L 280.5 344.2341982798596 L 281.5 342.4710465899937 L 281.5 342.47104658999376 L 282.5 340.72126977483435 L 282.5 340.72126977483435 L 283.5 338.9846664435079 L 283.5 338.98466644350793 L 284.5 337.2610397198076 L 284.5 337.2610397198077 L 285.5 335.55019710825087 L 285.5 335.5501971082509 L 286.5 333.85195036506695 L 286.5 333.851950365067 L 287.5 332.16611537389997 L 287.5 332.1661153739001 L 288.5 330.4925120260207 L 288.5 330.49251202602073 L 289.5 328.8309641048526 L 289.5 328.8309641048527 L 290.5 327.18129917462784 L 290.5 327.18129917462784 L 291.5 325.54334847299583 L 291.5 325.54334847299583 L 292.5 323.9169468074184 L 292.5 323.9169468074184 L 293.5 322.3019324551919 L 293.5 322.30193245519195 L 294.5 320.6981470669448 L 294.5 320.69814706694484 L 295.5 319.1054355734674 L 295.5 319.1054355734674 L 296.5 317.52364609573544 L 296.5 317.52364609573544 L 297.5 315.95262985799906 L 297.5 315.95262985799906 L 298.5 314.3922411038101 L 298.5 314.3922411038101 L 299.5 312.84233701487125 L 299.5 312.8423370148713 L 300.5 311.30277763259386 L 300.5 311.3027776325939 L 301.5 309.77342578225523 L 301.5 309.77342578225523 L 302.5 308.25414699965427 L 302.5 308.2541469996543 L 303.5 306.7448094601668 L 303.5 306.74480946016683 L 304.5 305.24528391010654 L 304.5 305.2452839101066 L 305.5 303.75544360030324 L 305.5 303.75544360030324 L 306.5 302.2751642218115 L 306.5 302.2751642218115 L 307.5 300.80432384367026 L 307.5 300.80432384367026 L 308.5 299.3428028526331 L 308.5 299.3428028526331 L 309.5 297.8904838947969 L 309.5 297.89048389479694 L 310.5 296.44725181905585 L 310.5 296.4472518190559 L 311.5 295.01299362231396 L 311.5 295.01299362231396 L 312.5 293.5875983963899 L 312.5 293.58759839639 L 313.5 292.1709572765533 L 313.5 292.1709572765533 L 314.5 290.7629633916299 L 314.5 290.7629633916299 L 315.5 289.3635118156227 L 315.5 289.3635118156227 L 316.5 287.9724995207896 L 316.5 287.9724995207896 L 317.5 286.5898253321288 L 317.5 286.58982533212884 L 318.5 285.21538988321976 L 318.5 285.21538988321976 L 319.5 283.8490955733719 L 319.5 283.849095573372 L 320.5 282.4908465260352 L 320.5 282.4908465260353 L 321.5 281.14054854842794 L 321.5 281.140548548428 L 322.5 279.79810909233913 L 322.5 279.7981090923392 L 323.5 278.4634372160654 L 323.5 278.4634372160655 L 324.5 277.1364435474424 L 324.5 277.1364435474424 L 325.5 275.8170402479335 L 325.5 275.81704024793356 L 326.5 274.50514097774004 L 326.5 274.5051409777401 L 327.5 273.20066086189775 L 327.5 273.20066086189775 L 328.5 271.90351645732676 L 328.5 271.9035164573268 L 329.5 270.61362572080276 L 329.5 270.6136257208028 L 330.49999999999994 269.33090797781875 L 330.49999999999994 269.3309079778188 L 331.5 268.0552838923077 L 331.5 268.0552838923077 L 332.5 266.7866754371983 L 332.5 266.7866754371983 L 333.5 265.525005865775 L 333.5 265.525005865775 L 334.5 264.27019968381796 L 334.5 264.27019968381796 L 335.5 263.02218262249664 L 335.5 263.02218262249664 L 336.5 261.78088161199184 L 336.5 261.78088161199184 L 337.5 260.5462247558249 L 337.5 260.54622475582494 L 338.5 259.3181413058694 L 338.5 259.3181413058694 L 339.5 258.09656163802487 L 339.5 258.0965616380249 L 340.5 256.8814172285314 L 340.5 256.88141722853146 L 341.5 255.6726406309046 L 341.5 255.6726406309046 L 342.5 254.47016545347162 L 342.5 254.47016545347165 L 343.5 253.27392633749037 L 343.5 253.2739263374904 L 344.5 252.08385893583238 L 344.5 252.0838589358324 L 345.5 250.8998998922131 L 345.5 250.89989989221314 L 346.5 249.72198682095274 L 346.5 249.72198682095274 L 347.5 248.55005828725072 L 347.5 248.55005828725075 L 348.5 247.38405378795915 L 348.5 247.38405378795915 L 349.5 246.22391373283963 L 349.5 246.22391373283963 L 350.5 245.06957942628904 L 350.5 245.06957942628907 L 351.5 243.92099304952026 L 351.5 243.92099304952026 L 352.5 242.77809764318448 L 352.5 242.77809764318448 L 353.5 241.64083709042188 L 353.5 241.64083709042188 L 354.5 240.50915610032786 L 354.5 240.50915610032789 L 355.5 239.38300019182327 L 355.5 239.3830001918233 L 356.5 238.26231567791618 L 356.5 238.26231567791618 L 357.5 237.1470496503441 L 357.5 237.14704965034412 L 358.5 236.03714996458598 L 358.5 236.03714996458598 L 359.5 234.93256522523285 L 359.5 234.93256522523285 L 360.5 233.83324477170692 L 360.5 233.83324477170694 L 361.5 232.7391386643199 L 361.5 232.7391386643199 L 362.5 231.65019767065982 L 362.5 231.65019767065985 L 363.5 230.56637325229792 L 363.5 230.56637325229792 L 364.5 229.48761755180655 L 364.5 229.48761755180655 L 365.5 228.41388338007891 L 365.5 228.41388338007891 L 366.5 227.34512420394276 L 366.5 227.34512420394276 L 367.5 226.28129413405972 L 367.5 226.28129413405972 L 368.5 225.22234791310225 L 368.5 225.22234791310225 L 369.5 224.1682409042009 L 369.5 224.16824090420093 L 370.5 223.11892907965427 L 370.5 223.11892907965427 L 371.5 222.07436900989458 L 371.5 222.07436900989458 L 372.5 221.03451785270198 L 372.5 221.03451785270198 L 373.5 219.9993333426609 L 373.5 219.9993333426609 L 374.5 218.968773780852 L 374.5 218.968773780852 L 375.5 217.9427980247731 L 375.5 217.9427980247731 L 376.5 216.92136547848375 L 376.5 216.92136547848375 L 377.49999999999994 215.9044360829664 L 377.49999999999994 215.9044360829664 L 378.5 214.8919703066998 L 378.5 214.89197030669982 L 379.5 213.8839291364378 L 379.5 213.8839291364378 L 380.49999999999994 212.88027406818927 L 380.49999999999994 212.88027406818927 L 381.49999999999994 211.8809670983928 L 381.49999999999994 211.8809670983928 L 382.5 210.88597071528233 L 382.5 210.88597071528233 L 383.49999999999994 209.89524789043813 L 383.49999999999994 209.89524789043813 L 384.5 208.90876207051775 L 384.5 208.90876207051775 L 385.5 207.9264771691643 L 385.5 207.9264771691643 L 386.49999999999994 206.94835755908485 L 386.49999999999994 206.94835755908485 L 387.49999999999994 205.97436806429732 L 387.49999999999994 205.97436806429732 L 388.5 205.00447395253954 L 388.5 205.00447395253954 L 389.49999999999994 204.03864092783783 L 389.49999999999994 204.03864092783783 L 390.5 203.07683512322984 L 390.5 203.07683512322984 L 391.5 202.11902309363927 L 391.5 202.11902309363927 L 392.49999999999994 201.16517180889718 L 392.49999999999994 201.16517180889718 L 393.49999999999994 200.21524864690753 L 393.49999999999994 200.21524864690753 L 394.5 199.26922138695244 L 394.5 199.26922138695244 L 395.49999999999994 198.3270582031348 L 395.49999999999994 198.3270582031348 L 396.5 197.38872765795335 L 396.5 197.38872765795335 L 397.5 196.45419869600886 L 397.5 196.4541986960089 L 398.49999999999994 195.52344063783656 L 398.49999999999994 195.52344063783656 L 399.49999999999994 194.59642317386283 L 399.49999999999994 194.59642317386286 L 400.5 193.67311635848296 L 400.5 193.67311635848296 L 401.49999999999994 192.75349060425668 L 401.49999999999994 192.75349060425668 L 402.5 191.83751667621902 L 402.5 191.83751667621902 L 403.5 190.92516568630396 L 403.5 190.92516568630396 L 404.49999999999994 190.01640908787738 L 404.49999999999994 190.01640908787738 L 405.49999999999994 189.11121867037775 L 405.49999999999994 189.11121867037775 L 406.49999999999994 188.20956655406144 L 406.49999999999994 188.20956655406144 L 407.49999999999994 187.31142518485032 L 407.49999999999994 187.31142518485032 L 408.5 186.41676732927908 L 408.5 186.41676732927908 L 409.49999999999994 185.52556606954064 L 409.49999999999994 185.52556606954064 L 410.49999999999994 184.63779479862626 L 410.49999999999994 184.63779479862626 L 411.5 183.75342721555936 L 411.5 183.75342721555938 L 412.49999999999994 182.87243732072022 L 412.49999999999994 182.87243732072025 L 413.49999999999994 181.9947994112594 L 413.49999999999994 181.9947994112594 L 414.5 181.1204880765982 L 414.5 181.1204880765982 L 415.49999999999994 180.24947819401444 L 415.49999999999994 180.24947819401444 L 416.49999999999994 179.38174492431054 L 416.49999999999994 179.38174492431054 L 417.5 178.51726370756342 L 417.5 178.51726370756342 L 418.49999999999994 177.65601025895353 L 418.49999999999994 177.65601025895356 L 419.49999999999994 176.7979605646713 L 419.49999999999994 176.7979605646713 L 420.5 175.94309087789958 L 420.5 175.9430908778996 L 421.49999999999994 175.09137771487048 L 421.49999999999994 175.09137771487048 L 422.49999999999994 174.24279785099412 L 422.49999999999994 174.24279785099415 L 423.5 173.39732831705908 L 423.5 173.3973283170591 L 424.49999999999994 172.55494639550176 L 424.49999999999994 172.5549463955018 L 425.49999999999994 171.71562961674363 L 425.49999999999994 171.71562961674363 L 426.5 170.87935575559493 L 426.5 170.87935575559496 L 427.49999999999994 170.04610282772376 L 427.49999999999994 170.04610282772376 L 428.49999999999994 169.21584908618772 L 428.49999999999994 169.21584908618775 L 429.5 168.3885730180288 L 429.5 168.38857301802884 L 430.49999999999994 167.56425334092862 L 430.49999999999994 167.56425334092862 L 431.49999999999994 166.7428689999229 L 431.49999999999994 166.74286899992293 L 432.5 165.92439916417504 L 432.5 165.92439916417504 L 433.49999999999994 165.10882322380604 L 433.49999999999994 165.10882322380604 L 434.49999999999994 164.2961207867805 L 434.49999999999994 164.29612078678053 L 435.5 163.48627167584738 L 435.5 163.4862716758474 L 436.49999999999994 162.6792559255342 L 436.49999999999994 162.67925592553422 L 437.49999999999994 161.87505377919345 L 437.49999999999994 161.87505377919348 L 438.5 161.0736456861007 L 438.5 161.0736456861007 L 439.49999999999994 160.27501229860266 L 439.49999999999994 160.2750122986027 L 440.49999999999994 159.47913446931446 L 440.49999999999994 159.47913446931446 L 441.5 158.68599324836515 L 441.5 158.68599324836515 L 442.49999999999994 157.89556988069057 L 442.49999999999994 157.89556988069057 L 443.49999999999994 157.10784580337213 L 443.49999999999994 157.10784580337216 L 444.5 156.32280264302105 L 444.5 156.32280264302105 L 445.49999999999994 155.54042221320705 L 445.49999999999994 155.54042221320708 L 446.49999999999994 154.76068651193026 L 446.49999999999994 154.7606865119303 L 447.5 153.98357771913592 L 447.5 153.98357771913595 L 448.49999999999994 153.20907819427077 L 448.49999999999994 153.20907819427077 L 449.49999999999994 152.43717047388014 L 449.49999999999994 152.43717047388017 L 450.5 151.66783726924547 L 450.5 151.6678372692455 L 451.49999999999994 150.90106146406077 L 451.49999999999994 150.9010614640608 L 452.49999999999994 150.13682611214762 L 452.49999999999994 150.13682611214762 L 453.5 149.37511443520805 L 453.5 149.37511443520808 L 454.49999999999994 148.6159098206145 L 454.49999999999994 148.61590982061455 L 455.49999999999994 147.85919581923542 L 455.49999999999994 147.85919581923548 L 456.5 147.10495614329727 L 456.5 147.1049561432973 L 457.49999999999994 146.3531746642807 L 457.49999999999994 146.35317466428074 L 458.49999999999994 145.60383541085122 L 458.49999999999994 145.60383541085125 L 459.5 144.85692256682321 L 459.5 144.85692256682324 L 460.49999999999994 144.11242046915712 L 460.49999999999994 144.11242046915714 L 461.49999999999994 143.3703136059883 L 461.49999999999994 143.37031360598831 L 462.5 142.63058661468796 L 462.5 142.63058661468799 L 463.49999999999994 141.89322427995506 L 463.49999999999994 141.8932242799551 L 464.49999999999994 141.1582115319382 L 464.49999999999994 141.1582115319382 L 465.49999999999994 140.42553344438775 L 465.49999999999994 140.42553344438778 L 466.49999999999994 139.69517523283724 L 466.49999999999994 139.69517523283727 L 467.49999999999994 138.96712225281308 L 467.49999999999994 138.9671222528131 L 468.49999999999994 138.2413599980728 L 468.49999999999994 138.24135999807282 L 469.49999999999994 137.51787409887078 L 469.49999999999994 137.5178740988708 L 470.49999999999994 136.79665032025116 L 470.49999999999994 136.79665032025116 L 471.49999999999994 136.0776745603671 L 471.49999999999994 136.07767456036714 L 472.49999999999994 135.36093284882674 L 472.49999999999994 135.36093284882674 L 473.49999999999994 134.64641134506394 L 473.49999999999994 134.64641134506394 L 474.49999999999994 133.93409633673494 L 474.49999999999994 133.93409633673497 L 475.49999999999994 133.22397423813936 L 475.49999999999994 133.22397423813942 L 476.49999999999994 132.51603158866538 L 476.49999999999994 132.51603158866538 L 477.49999999999994 131.81025505125865 L 477.49999999999994 131.81025505125868 L 478.49999999999994 131.10663141091513 L 478.49999999999994 131.10663141091516 L 479.49999999999994 130.40514757319596 L 479.49999999999994 130.40514757319596 L 480.49999999999994 129.7057905627654 L 480.49999999999994 129.70579056276543 L 481.49999999999994 129.00854752195104 L 481.49999999999994 129.00854752195107 L 482.49999999999994 128.31340570932502 L 482.49999999999994 128.31340570932508 L 483.49999999999994 127.62035249830726 L 483.49999999999994 127.62035249830728 L 484.49999999999994 126.92937537578918 L 484.49999999999994 126.9293753757892 L 485.5 126.24046194077809 L 485.5 126.2404619407781 L 486.49999999999994 125.55359990306195 L 486.49999999999994 125.55359990306198 L 487.49999999999994 124.86877708189361 L 487.49999999999994 124.86877708189363 L 488.49999999999994 124.18598140469474 L 488.49999999999994 124.18598140469477 L 489.49999999999994 123.50520090577892 L 489.49999999999994 123.50520090577895 L 490.49999999999994 122.8264237250934 L 490.49999999999994 122.82642372509343 L 491.5 122.14963810697928 L 491.5 122.14963810697931 L 492.49999999999994 121.47483239895013 L 492.49999999999994 121.47483239895016 L 493.49999999999994 120.80199505048786 L 493.49999999999994 120.80199505048788 L 494.49999999999994 120.13111461185676 L 494.49999999999994 120.13111461185679 L 495.49999999999994 119.46217973293423 L 495.49999999999994 119.46217973293426 L 496.49999999999994 118.79517916205876 L 496.49999999999994 118.79517916205879 L 497.5 118.13010174489412 L 497.5 118.13010174489415 L 498.49999999999994 117.4669364233104 L 498.49999999999994 117.46693642331043 L 499.49999999999994 116.8056722342806 L 499.49999999999994 116.80567223428062 L 500.49999999999994 116.14629830879326 L 500.49999999999994 116.14629830879329 L 501.49999999999994 115.48880387078053 L 501.49999999999994 115.48880387078056 L 502.49999999999994 114.83317823606158 L 502.49999999999994 114.83317823606161 L 503.5 114.17941081130061 L 503.5 114.17941081130064 L 504.49999999999994 113.52749109298017 L 504.49999999999994 113.5274910929802 L 505.49999999999994 112.8774086663883 L 505.49999999999994 112.87740866638832 L 506.49999999999994 112.22915320462049 L 506.49999999999994 112.2291532046205 L 507.49999999999994 111.58271446759518 L 507.49999999999994 111.58271446759521 L 508.49999999999994 110.93808230108341 L 508.49999999999994 110.93808230108344 L 509.5 110.2952466357515 L 509.5 110.29524663575152 L 510.49999999999994 109.65419748621757 L 510.49999999999994 109.6541974862176 L 511.49999999999994 109.01492495012072 L 511.49999999999994 109.01492495012074 L 512.5 108.37741920720325 L 512.5 108.37741920720327 L 513.5 107.74167051840557 L 513.5 107.7416705184056 L 514.5 107.10766922497349 L 514.5 107.1076692249735 L 515.5 106.4754057475776 L 515.5 106.47540574757762 L 516.5 105.84487058544505 L 516.5 105.84487058544508 L 517.5 105.21605431550272 L 517.5 105.21605431550273 L 518.5 104.58894759153236 L 518.5 104.58894759153239 L 519.5 103.96354114333712 L 519.5 103.96354114333715 L 520.5 103.33982577591931 L 520.5 103.33982577591934 L 521.5 102.71779236866905 L 521.5 102.71779236866908 L 522.5 102.09743187456438 L 522.5 102.0974318745644 L 523.5 101.47873531938139 L 523.5 101.47873531938141 L 524.5 100.86169380091548 L 524.5 100.8616938009155 L 525.5 100.24629848821269 L 525.5 100.24629848821272 L 526.5 99.63254062081154 L 526.5 99.63254062081157 L 527.5 99.02041150799447 L 527.5 99.02041150799448 L 528.5 98.40990252804976 L 528.5 98.40990252804978 L 529.5 97.8010051275427 L 529.5 97.80100512754272 L 530.5 97.19371082059658 L 530.5 97.19371082059664 L 531.5 96.58801118818322 L 531.5 96.58801118818327 L 532.5 95.98389787742259 L 532.5 95.98389787742263 L 533.5 95.3813626008915 L 533.5 95.38136260089156 L 534.5 94.78039713594185 L 534.5 94.7803971359419 L 535.5 94.18099332402683 L 535.5 94.18099332402689 L 536.5 93.58314307003675 L 536.5 93.58314307003681 L 537.5 92.98683834164287 L 537.5 92.98683834164291 L 538.5 92.39207116864998 L 538.5 92.39207116865003 L 539.5 91.79883364235711 L 539.5 91.79883364235715 L 540.5 91.20711791492667 L 540.5 91.20711791492673 L 541.5 90.61691619876144 L 541.5 90.6169161987615 L 542.5 90.02822076588953 L 542.5 90.02822076588957 L 543.5 89.44102394735738 L 543.5 89.44102394735742 L 544.5 88.85531813263032 L 544.5 88.85531813263037 L 545.5 88.27109576900054 L 545.5 88.27109576900058 L 546.5 87.68834936100299 L 546.5 87.68834936100303 L 547.5 87.10707146983813 L 547.5 87.10707146983819 L 548.5 86.52725471280239 L 548.5 86.52725471280243 L 549.5 85.94889176272527 L 549.5 85.94889176272531 L 550.5 85.3719753474142 L 550.5 85.37197534741426 L 551.5 84.79649824910545 L 551.5 84.7964982491055 L 552.5 84.22245330392263 L 552.5 84.22245330392269 L 553.5 83.64983340134143 L 553.5 83.64983340134148 L 554.5 83.0786314836611 L 554.5 83.07863148366116 L 555.5 82.5088405454828 L 555.5 82.50884054548285 L 556.5 81.94045363319378 L 556.5 81.94045363319384 L 557.5 81.3734638444584 L 557.5 81.37346384445846 L 558.5 80.80786432771504 L 558.5 80.8078643277151 L 559.5 80.24364828167947 L 559.5 80.2436482816795 L 560.5 79.68080895485403 L 560.5 79.68080895485409 L 561.5 79.11933964504303 L 561.5 79.11933964504308 L 562.5 78.55923369887361 L 562.5 78.55923369887367 L 563.5 78.00048451132301 L 563.5 78.00048451132304 L 564.5 77.44308552525098 L 564.5 77.44308552525104 L 565.5 76.88703023093817 L 565.5 76.88703023093822 L 566.4999999999999 76.33231216562993 L 566.4999999999999 76.33231216562996 L 567.5 75.77892491308563 L 567.5 75.77892491308569 L 568.5 75.22686210313344 L 568.5 75.2268621031335 L 569.5 74.67611741123034 L 569.5 74.67611741123036 L 570.5 74.12668455802714 L 570.5 74.1266845580272 L 571.5 73.57855730893922 L 571.5 73.57855730893928 L 572.4999999999999 73.03172947372192 L 572.4999999999999 73.03172947372198 L 573.5 72.48619490605103 L 573.5 72.48619490605108 L 574.5 71.94194750310831 L 574.5 71.94194750310834 L 575.5 71.39898120517196 L 575.5 71.39898120517199 L 576.5 70.85728999521163 L 576.5 70.85728999521169 L 577.5 70.3168678984884 L 577.5 70.31686789848845 L 578.4999999999999 69.77770898215942 L 578.4999999999999 69.77770898215945 L 579.5 69.239807354887 L 579.5 69.23980735488706 L 580.5 68.70315716645248 L 580.5 68.70315716645254 L 581.5 68.1677526073745 L 581.5 68.16775260737455 L 582.5 67.63358790853141 L 582.5 67.63358790853147 L 583.5 67.10065734078847 L 583.5 67.10065734078853 L 584.4999999999999 66.56895521462923 L 584.4999999999999 66.56895521462928 L 585.5 66.03847587979075 L 585.5 66.03847587979081 L 586.5 65.50921372490382 L 586.5 65.50921372490387 L 587.5 64.98116317713641 L 587.5 64.98116317713644 L 588.5 64.45431870184169 L 588.5 64.45431870184174 L 589.5 63.928674802210054 L 589.5 63.92867480221011 L 590.4999999999999 63.40422601892499 L 590.4999999999999 63.404226018925044 L 591.5 62.88096692982273 L 591.5 62.88096692982276 L 592.5 62.35889214955611 L 592.5 62.35889214955617 L 593.5 61.83799632926187 L 593.5 61.83799632926193 L 594.5 61.318274156231865 L 594.5 61.31827415623192 L 595.5 60.79972035358793 L 595.5 60.799720353587986 L 596.4999999999999 60.28232967996047 L 596.4999999999999 60.282329679960526 L 597.5 59.766096929170516 L 597.5 59.76609692917057 L 598.5 59.251016929915465 L 598.5 59.251016929915494 L 599.5 58.73708454545823 L 599.5 58.73708454545829 L 600.5 58.22429467331989 L 600.5 58.224294673319946 L 601.5 57.71264224497571 L 601.5 57.71264224497574 L 602.4999999999999 57.202122225554405 L 602.4999999999999 57.20212222555446 L 603.5 56.69272961354122 L 603.5 56.692729613541246 L 604.5 56.18445944048358 L 604.5 56.18445944048361 L 605.5 55.67730677070051 L 605.5 55.67730677070057 L 606.5 55.17126670099498 L 606.5 55.171266700995034 L 607.5 54.66633436036949 L 607.5 54.66633436036955 L 608.5 54.16250490974474 L 608.5 54.1625049097448 L 609.5 53.65977354168146 L 609.5 53.65977354168152 L 610.5 53.15813548010499 L 610.5 53.158135480105045 L 611.5 52.65758598003319 L 611.5 52.65758598003325 L 612.5 52.1581203273071 L 612.5 52.15812032730716 L 613.5 51.65973383832451 L 613.5 51.65973383832454 L 614.5 51.16242185977637 L 614.5 51.16242185977643 L 615.5 50.666179768386485 L 615.5 50.66617976838654 L 616.5 50.17100297065306 L 616.5 50.17100297065312 L 617.5 49.67688690259402 L 617.5 49.67688690259408 L 618.5 49.18382702949435 L 618.5 49.18382702949438 L 619.5 48.69181884565654 L 619.5 48.6918188456566 L 620.4999999999999 48.20085787415354 L 620.4999999999999 48.2008578741536 L 621.4999999999999 47.71093966658421 L 621.4999999999999 47.71093966658424 L 622.5 47.222059802831524 L 622.5 47.22205980283158 L 623.5 46.734213890823526 L 623.5 46.73421389082358 L 624.5 46.24739756629617 L 624.5 46.24739756629623 L 625.5 45.761606492559366 L 625.5 45.76160649255942 L 626.5 45.27683636026498 L 626.5 45.27683636026504 L 627.5 44.7930828871778 L 627.5 44.79308288717786 L 628.5 44.310341817948114 L 628.5 44.31034181794817 L 629.5 43.82860892388746 L 629.5 43.82860892388749 L 630.5 43.347880002746166 L 630.5 43.34788000274622 L 631.5 42.86815087849362 L 631.5 42.86815087849368 L 632.4999999999999 42.38941740110033 L 632.4999999999999 42.38941740110036 L 633.4999999999999 41.91167544632273 L 633.4999999999999 41.91167544632279 L 634.5 41.434920915489926 L 634.5 41.43492091548998 L 635.5 40.959149735292755 L 635.5 40.95914973529281 L 636.5 40.48435785757488 L 636.5 40.484357857574935 L 637.5 40.01054125912614 L 637.5 40.0105412591262 L 638.5 39.53769594147812 L 638.5 39.53769594147818 L 639.5 39.06581793070154 L 639.5 39.0658179307016 L 640.5 38.59490327720596 L 640.5 38.594903277206015 L 641.5 38.12494805554138 L 641.5 38.12494805554144 L 642.5 37.65594836420195 L 642.5 37.655948364202004 L 643.4999999999999 37.18790032543154 L 643.4999999999999 37.1879003254316 L 644.4999999999999 36.720800085031584 L 644.4999999999999 36.72080008503161 L 645.4999999999999 36.25464381217026 L 645.4999999999999 36.254643812170315 L 646.5 35.78942769919442 L 646.5 35.789427699194476 L 647.5 35.32514796144278 L 647.5 35.32514796144284 L 648.5 34.861800837061054 L 648.5 34.86180083706108 L 649.4999999999999 34.3993825868192 L 649.4999999999999 34.39938258681926 L 650.5 33.93788949393041 L 650.5 33.93788949393047 L 651.5 33.47731786387186 L 651.5 33.47731786387192 L 652.5 33.01766402420711 L 652.5 33.017664024207164 L 653.5 32.55892432441047 L 653.5 32.558924324410526 L 654.5 32.1010951356931 L 654.5 32.10109513569316 L 655.4999999999999 31.644172850830785 L 655.4999999999999 31.64417285083084 L 656.4999999999999 31.188153883993266 L 656.4999999999999 31.188153883993323 L 657.4999999999999 30.733034670575535 L 657.4999999999999 30.73303467057559 L 658.5 30.278811667030567 L 658.5 30.278811667030624 L 659.5 29.825481350703967 L 659.5 29.825481350703996 L 660.5 29.37304021966966 L 660.5 29.37304021966969 L 661.4999999999999 28.92148479256801 L 661.4999999999999 28.921484792568037 L 662.5 28.470811608444734 L 662.5 28.47081160844479 L 663.5 28.02101722659208 L 663.5 28.021017226592136 L 664.5 27.57209822639092 L 664.5 27.572098226390978 L 665.5 27.12405120715482 L 665.5 27.124051207154878 L 666.4999999999999 26.676872787975412 L 666.4999999999999 26.67687278797547 L 667.4999999999999 26.230559607569376 L 667.4999999999999 26.230559607569433 L 668.4999999999999 25.78510832412684 L 668.4999999999999 25.785108324126867 L 669.4999999999999 25.34051561516108 L 669.4999999999999 25.340515615161138 L 670.5 24.896778177360147 L 670.5 24.896778177360204 L 671.4999999999999 24.453892726439392 L 671.4999999999999 24.45389272643945 L 672.4999999999999 24.011855996995564 L 672.4999999999999 24.011855996995592 L 673.4999999999999 23.57066474236248 L 673.4999999999999 23.57066474236251 L 674.5 23.130315734467843 L 674.5 23.1303157344679 L 675.5 22.6908057636918 L 675.5 22.690805763691856 L 676.5 22.252131638726127 L 676.5 22.252131638726183 L 677.4999999999999 21.814290186435557 L 677.4999999999999 21.814290186435613 L 678.4999999999999 21.377278251719872 L 678.4999999999999 21.3772782517199 L 679.4999999999999 20.94109269737757 L 679.4999999999999 20.9410926973776 L 680.4999999999999 20.505730403970688 L 680.4999999999999 20.505730403970745 L 681.4999999999999 20.071188269691106 L 681.4999999999999 20.071188269691163 L 682.5 19.637463210227565 L 682.5 19.637463210227594 L 683.4999999999999 19.20455215863481 L 683.4999999999999 19.20455215863487 L 684.4999999999999 18.77245206520314 L 684.4999999999999 18.772452065203197 L 685.5 18.341159897329504 L 685.5 18.34115989732956 L 686.5 17.910672639390043 L 686.5 17.9106726393901 L 687.5 17.480987292613236 L 687.5 17.480987292613293 L 688.5 17.052100874954846 L 688.5 17.052100874954903 L 689.4999999999999 16.62401042097352 L 689.4999999999999 16.624010420973576 L 690.4999999999999 16.19671298170806 L 690.4999999999999 16.196712981708117 L 691.4999999999999 15.770205624555246 L 691.4999999999999 15.770205624555302 L 692.4999999999999 15.344485433149117 L 692.4999999999999 15.344485433149174 L 693.4999999999999 14.919549507241527 L 693.4999999999999 14.919549507241584 L 694.5 14.495394962583333 L 694.5 14.49539496258339 L 695.4999999999999 14.07201893080719 L 695.4999999999999 14.072018930807218 L 696.4999999999999 13.649418559310874 L 696.4999999999999 13.64941855931093 L 697.5 13.22759101114218 L 697.5 13.227591011142238 L 698.5 12.806533464884637 L 698.5 12.806533464884694 L 699.5 12.386243114544243 L 699.5 12.386243114544271 L 700.5 11.96671716943709 L 700.5 11.966717169437146 L 701.4999999999999 11.547952854078488 L 701.4999999999999 11.547952854078545 L 702.4999999999999 11.129947408072638 L 702.4999999999999 11.129947408072695 L 703.4999999999999 10.712698086003456 L 703.4999999999999 10.712698086003513 L 704.4999999999999 10.29620215732632 L 704.4999999999999 10.296202157326377 L 705.4999999999999 9.88045690626106 L 705.4999999999999 9.880456906261088 L 706.5 9.465459631685405 L 706.5 9.465459631685462 L 707.4999999999999 9.051207647030083 L 707.4999999999999 9.05120764703014 L 708.4999999999999 8.637698280174078 L 708.4999999999999 8.637698280174135 L 709.5 8.224928873341383 L 709.5 8.224928873341412 L 710.5 7.812896782998536 L 710.5 7.8128967829985925 L 711.5 7.40159937975298 L 711.5 7.401599379753037 L 712.5 6.9910340482524305 L 712.5 6.991034048252487 L 713.4999999999999 6.581198187084965 L 713.4999999999999 6.581198187085022 L 714.4999999999999 6.172089208680376 L 714.4999999999999 6.172089208680433 L 715.4999999999999 5.76370453921183 L 715.4999999999999 5.763704539211858 L 716.4999999999999 5.356041618498921 L 716.4999999999999 5.356041618498978 L 717.4999999999999 4.949097899911436 L 717.4999999999999 4.9490978999114645 L 718.5 4.542870850273573 L 718.5 4.54287085027363 L 719.4999999999999 4.137357949769751 L 719.4999999999999 4.137357949769807 L 720.4999999999999 3.7325566918505615 L 720.4999999999999 3.7325566918506183 L 721.5 3.3284645831397484 L 721.5 3.328464583139805 L 722.5 2.925079143342316 L 722.5 2.9250791433423444 L 723.5 2.5223979051529852 L 723.5 2.522397905153042 L 724.5 2.1204184141656697 L 724.5 2.1204184141657265 L 725.4999999999999 1.7191382287838337 L 725.4999999999999 1.7191382287838906 L 726.4999999999999 1.318554920131362 L 726.4999999999999 1.3185549201314188 L 727.4999999999999 0.9186660719643669 L 727.4999999999999 0.9186660719644237 L 728.4999999999999 0.5194692805839338 L 728.4999999999999 0.5194692805839907 L 729.4999999999999 0.12096215474917926 L 729.4999999999999 0.12096215474920768 L 730.5 -0.2768576844086681 L 730.5 -0.27685768440861125 L 731.4999999999999 -0.673992603471163 L 731.4999999999999 -0.6739926034711061 L 732.4999999999999 -1.0704449568175392 L 732.4999999999999 -1.0704449568174823 L 733.5 -1.466217086708184 L 733.5 -1.4662170867081556 L 734.5 -1.8613113233678007 L 734.5 -1.8613113233677439 L 735.5 -2.2557299850675463 L 735.5 -2.2557299850674895 L 736.5 -2.649475378206944 L 736.5 -2.6494753782069154 L 737.4999999999999 -3.042549797394571 L 737.4999999999999 -3.042549797394514 L 738.4999999999999 -3.4349555255282667 L 738.4999999999999 -3.4349555255282382 L 739.4999999999999 -3.826694833874967 L 739.4999999999999 -3.8266948338749103 L 740.4999999999999 -4.217769982149235 L 740.4999999999999 -4.2177699821491785 L 741.4999999999999 -4.608183218591648 L 741.4999999999999 -4.608183218591591 L 742.4999999999999 -4.997936780046473 L 742.4999999999999 -4.997936780046416 L 743.4999999999999 -5.387032892038178 L 743.4999999999999 -5.387032892038121 L 744.4999999999999 -5.775473768848144 L 744.4999999999999 -5.775473768848087 L 745.5 -6.163261613589924 L 745.5 -6.163261613589867 L 746.5 -6.55039861828439 L 746.5 -6.5503986182843335 L 747.5 -6.9368869639340005 L 747.5 -6.936886963933944 L 748.4999999999999 -7.322728820596552 L 748.4999999999999 -7.322728820596524 L 749.4999999999999 -7.707926347458368 L 749.4999999999999 -7.70792634745834 L 750.4999999999999 -8.092481692906574 L 750.4999999999999 -8.092481692906517 L 751.4999999999999 -8.476396994601288 L 751.4999999999999 -8.476396994601231 L 752.4999999999999 -8.859674379546618 L 752.4999999999999 -8.859674379546561 L 753.4999999999999 -9.242315964161605 L 753.4999999999999 -9.242315964161548 L 754.4999999999999 -9.62432385435028 L 754.4999999999999 -9.624323854350223 L 755.4999999999999 -10.00570014557104 L 755.4999999999999 -10.005700145571012 L 756.4999999999999 -10.38644692290589 L 756.4999999999999 -10.386446922905833 L 757.5 -10.766566261128645 L 757.5 -10.766566261128588 L 758.5 -11.146060224772839 L 758.5 -11.146060224772782 L 759.5 -11.524930868198936 L 759.5 -11.52493086819888 L 760.4999999999999 -11.90318023566121 L 760.4999999999999 -11.903180235661154 L 761.4999999999999 -12.280810361373739 L 761.4999999999999 -12.280810361373682 L 762.4999999999999 -12.657823269576227 L 762.4999999999999 -12.657823269576198 L 763.4999999999999 -13.034220974598895 L 763.4999999999999 -13.034220974598838 L 764.4999999999999 -13.410005480927282 L 764.4999999999999 -13.410005480927225 L 765.5 -13.785178783266161 L 765.5 -13.785178783266105 L 766.4999999999999 -14.159742866603011 L 766.4999999999999 -14.159742866602983 L 767.4999999999999 -14.53369970627125 L 767.4999999999999 -14.533699706271193 L 768.5 -14.90705126801251 L 768.5 -14.907051268012452 L 769.5 -15.279799508038735 L 769.5 -15.279799508038678 L 770.5 -15.651946373093722 L 770.5 -15.651946373093665 L 771.5 -16.023493800514075 L 771.5 -16.023493800514018 L 772.4999999999999 -16.394443718289693 L 772.4999999999999 -16.394443718289637 L 773.4999999999999 -16.764798045123797 L 773.4999999999999 -16.76479804512374 L 774.4999999999999 -17.13455869049261 L 774.4999999999999 -17.134558690492554 L 775.4999999999999 -17.503727554704227 L 775.4999999999999 -17.50372755470417 L 776.4999999999999 -17.872306528957353 L 776.4999999999999 -17.872306528957296 L 777.5 -18.24029749539943 L 777.5 -18.240297495399346 L 778.4999999999999 -18.607702327184057 L 778.4999999999999 -18.607702327183944 L 779.4999999999999 -18.974522888528696 L 779.4999999999999 -18.974522888528583 L 780.5 -19.34076103477102 L 780.5 -19.340761034770907 L 781.5 -19.706418612425125 L 781.5 -19.70641861242501 L 782.5 -20.071497459238003 L 782.5 -20.07149745923789 L 783.5 -20.435999404244228 L 783.5 -20.435999404244114 L 784.4999999999999 -20.799926267821434 L 784.4999999999999 -20.79992626782135 L 785.4999999999999 -21.163279861744627 L 785.4999999999999 -21.163279861744513 L 786.4999999999999 -21.526061989240304 L 786.4999999999999 -21.52606198924022 L 787.4999999999999 -21.888274445040423 L 787.4999999999999 -21.88827444504031 L 788.4999999999999 -22.249919015435296 L 788.4999999999999 -22.249919015435182 L 789.5 -22.61099747832668 L 789.5 -22.610997478326567 L 790.4999999999999 -22.97151160328005 L 790.4999999999999 -22.971511603279964 L 791.4999999999999 -23.331463151576884 L 791.4999999999999 -23.33146315157677 L 792.5 -23.690853876266146 L 792.5 -23.690853876266033 L 793.5 -24.049685522215412 L 793.5 -24.0496855222153 L 794.5 -24.407959826161772 L 794.5 -24.407959826161658 L 795.5 -24.765678516762364 L 795.5 -24.76567851676228 L 796.4999999999999 -25.122843314644484 L 796.4999999999999 -25.12284331464437 L 797.4999999999999 -25.479455932454925 L 797.4999999999999 -25.47945593245484 L 798.4999999999999 -25.83551807490943 L 798.4999999999999 -25.835518074909345 L 799.4999999999999 -26.19103143884172 L 799.4999999999999 -26.191031438841605 L 800.4999999999999 -26.54599771325178 L 800.4999999999999 -26.545997713251666 L 801.5 -26.900418579354152 L 801.5 -26.90041857935404 L 802.4999999999999 -27.254295710625684 L 802.4999999999999 -27.25429571062557 L 803.4999999999999 -27.607630772852787 L 803.4999999999999 -27.607630772852673 L 804.5 -27.96042542417885 L 804.5 -27.960425424178766 L 805.5 -28.31268131515054 L 805.5 -28.312681315150428 L 806.5 -28.664400088764324 L 806.5 -28.66440008876421 L 807.5 -29.015583380512453 L 807.5 -29.015583380512368 L 808.4999999999999 -29.3662328184285 L 808.4999999999999 -29.366232818428415 L 809.4999999999999 -29.716350023132804 L 809.4999999999999 -29.71635002313269 L 810.4999999999999 -30.065936607877234 L 810.4999999999999 -30.06593660787712 L 811.4999999999999 -30.414994178589808 L 811.4999999999999 -30.414994178589694 L 812.4999999999999 -30.76352433391915 L 812.4999999999999 -30.763524333919065 L 813.5 -31.111528665278257 L 813.5 -31.111528665278172 L 814.4999999999999 -31.45900875688804 L 814.4999999999999 -31.459008756887926 L 815.4999999999999 -31.805966185820665 L 815.4999999999999 -31.80596618582055 L 816.5 -32.15240252204276 L 816.5 -32.15240252204265 L 817.5 -32.49831932845751 L 817.5 -32.4983193284574 L 818.5 -32.843718160947304 L 818.5 -32.84371816094722 L 819.4999999999999 -33.188600568415865 L 819.4999999999999 -33.18860056841578 L 820.4999999999999 -33.53296809282952 L 820.4999999999999 -33.53296809282941 L 821.4999999999999 -33.87682226925887 L 821.4999999999999 -33.87682226925875 L 822.4999999999999 -34.22016462591969 L 822.4999999999999 -34.22016462591961 L 823.4999999999999 -34.562996684213886 L 823.4999999999999 -34.5629966842138 L 824.4999999999999 -34.90531995876958 L 824.4999999999999 -34.90531995876947 L 825.4999999999999 -35.247135957481674 L 825.4999999999999 -35.24713595748156 L 826.4999999999999 -35.588446181551376 L 826.4999999999999 -35.58844618155129 L 827.4999999999999 -35.92925212552598 L 827.4999999999999 -35.92925212552589 L 828.5 -36.26955527733807 L 828.5 -36.269555277337986 L 829.5 -36.60935711834435 L 829.5 -36.609357118344235 L 830.5 -36.94865912336451 L 830.5 -36.94865912336442 L 831.4999999999999 -37.287462760719734 L 831.4999999999999 -37.28746276071962 L 832.4999999999999 -37.625769492270365 L 832.4999999999999 -37.62576949227025 L 833.4999999999999 -37.96358077345431 L 833.4999999999999 -37.9635807734542 L 834.4999999999999 -38.30089805332432 L 834.4999999999999 -38.300898053324204 L 835.4999999999999 -38.63772277458523 L 835.4999999999999 -38.63772277458514 L 836.4999999999999 -38.97405637363113 L 836.4999999999999 -38.97405637363104 L 837.4999999999999 -39.3099002805821 L 837.4999999999999 -39.309900280581985 L 838.4999999999999 -39.64525591932053 L 838.4999999999999 -39.64525591932045 L 839.4999999999999 -39.98012470752755 L 839.4999999999999 -39.98012470752744 L 840.5 -40.31450805671906 L 840.5 -40.31450805671895 L 841.5 -40.64840737228087 L 841.5 -40.64840737228076 L 842.5 -40.98182405350502 L 842.5 -40.98182405350491 L 843.4999999999999 -41.314759493624194 L 843.4999999999999 -41.31475949362411 L 844.4999999999999 -41.64721507984703 L 844.4999999999999 -41.647215079846916 L 845.4999999999999 -41.97919219339275 L 845.4999999999999 -41.979192193392635 L 846.4999999999999 -42.310692209525484 L 846.4999999999999 -42.31069220952537 L 847.4999999999999 -42.64171649758856 L 847.4999999999999 -42.641716497588476 L 848.4999999999999 -42.97226642103851 L 848.4999999999999 -42.9722664210384 L 849.4999999999999 -43.30234333747862 L 849.4999999999999 -43.302343337478504 L 850.4999999999999 -43.631948598692276 L 850.4999999999999 -43.63194859869216 L 851.4999999999999 -43.96108355067642 L 851.4999999999999 -43.96108355067636 L 852.5 -44.28974953367472 L 852.5 -44.28974953367461 L 853.5 -44.61794788220962 L 853.5 -44.617947882209506 L 854.5 -44.94567992511551 L 854.5 -44.9456799251154 L 855.4999999999999 -45.27294698557071 L 855.4999999999999 -45.272946985570655 L 856.4999999999999 -45.599750381129724 L 856.4999999999999 -45.59975038112961 L 857.4999999999999 -45.92609142375474 L 857.4999999999999 -45.92609142375463 L 858.4999999999999 -46.25197141984748 L 858.4999999999999 -46.251971419847365 L 859.4999999999999 -46.57739167028049 L 859.4999999999999 -46.57739167028038 L 860.4999999999999 -46.902353470428494 L 860.4999999999999 -46.90235347042838 L 861.4999999999999 -47.226858110199004 L 861.4999999999999 -47.22685811019889 L 862.4999999999999 -47.550906874063145 L 862.4999999999999 -47.55090687406303 L 863.4999999999999 -47.87450104108635 L 863.4999999999999 -47.87450104108623 L 864.5 -48.19764188495864 L 864.5 -48.19764188495853 L 865.5 -48.52033067402428 L 865.5 -48.520330674024166 L 866.5 -48.84256867131214 L 866.5 -48.84256867131202 L 867.4999999999999 -49.164357134565165 L 867.4999999999999 -49.16435713456505 L 868.4999999999999 -49.48569731626972 L 868.4999999999999 -49.48569731626961 L 869.4999999999999 -49.80659046368518 L 869.4999999999999 -49.80659046368507 L 870.4999999999999 -50.127037818872594 L 870.4999999999999 -50.12703781887248 L 871.4999999999999 -50.447040618723605 L 871.4999999999999 -50.44704061872355 L 872.4999999999999 -50.76660009498946 L 872.4999999999999 -50.76660009498934 L 873.4999999999999 -51.08571747430889 L 873.4999999999999 -51.08571747430878 L 874.4999999999999 -51.40439397823681 L 874.4999999999999 -51.4043939782367 L 875.4999999999999 -51.72263082327211 L 875.4999999999999 -51.722630823272056 L 876.5 -52.0404292208859 L 876.5 -52.040429220885784 L 877.5 -52.35779037754841 L 877.5 -52.357790377548355 L 878.5 -52.67471549475741 L 878.5 -52.67471549475735 L 879.4999999999999 -52.99120576906492 L 879.4999999999999 -52.991205769064806 L 880.4999999999999 -53.30726239210432 L 880.4999999999999 -53.30726239210426 L 881.4999999999999 -53.62288655061761 L 881.4999999999999 -53.622886550617494 L 882.4999999999999 -53.938079426481835 L 882.4999999999999 -53.93807942648172 L 883.4999999999999 -54.25284219673571 L 883.4999999999999 -54.2528421967356 L 884.4999999999999 -54.567176033606046 L 884.4999999999999 -54.56717603360599 L 885.4999999999999 -54.8810821045341 L 885.4999999999999 -54.88108210453399 L 886.4999999999999 -55.19456157220108 L 886.4999999999999 -55.19456157220097 L 887.4999999999999 -55.507615594554665 L 887.4999999999999 -55.50761559455455 L 888.5 -55.820245324834076 L 888.5 -55.82024532483402 L 889.5 -56.13245191159589 L 889.5 -56.13245191159578 L 890.5 -56.444236498739286 L 890.5 -56.44423649873923 L 891.4999999999999 -56.75560022553131" stroke-opacity="0.6980392156862745" stroke-linecap="round" stroke-linejoin="round" stroke-miterlimit="10" stroke-width="2.5"/><text fill="rgb(204,0,0)" stroke="none" font-family="geogebra-sans-serif, sans-serif" font-size="16px" font-style="normal" font-weight="normal" text-decoration="normal" x="215" y="504" text-anchor="start" dominant-baseline="alphabetic" fill-opacity="1">g</text><text fill="none" stroke="rgb(255,255,255)" font-family="geogebra-sans-serif, sans-serif" font-size="16px" font-style="normal" font-weight="normal" text-decoration="normal" x="215" y="504" text-anchor="start" dominant-baseline="alphabetic" stroke-opacity="1" stroke-linejoin="bevel" stroke-miterlimit="10" stroke-width="3">g</text><text fill="rgb(204,0,0)" stroke="none" font-family="geogebra-sans-serif, sans-serif" font-size="16px" font-style="normal" font-weight="normal" text-decoration="normal" x="215" y="504" text-anchor="start" dominant-baseline="alphabetic" fill-opacity="1">g</text><path fill="none" stroke="rgb(0,0,255)" paint-order="fill stroke markers" d=" M 241.45751953125 522.1912707982176 L 241.892578125 516.8701503421865 L 242.32763671875 511.6122621554017 L 242.7626953125 506.41659310033856 L 243.19775390625 501.2821506972906 L 243.63281249999997 496.2079626118848 L 244.5029296875 486.2365578126206 L 245.373046875 476.4949843870654 L 246.2431640625 466.9761399683023 L 247.11328125 457.67320017548343 L 247.98339843749997 448.5796054346864 L 248.853515625 439.6890485327576 L 249.72363281249997 430.9954628574367 L 250.59375 422.49301128039383 L 251.4638671875 414.1760756429053 L 252.333984375 406.0392468067272 L 253.20410156249997 398.0773152353486 L 254.07421875 390.2852620732192 L 254.9443359375 382.6582506927761 L 255.81445312499997 375.19161868115145 L 256.6845703125 367.8808702403476 L 257.5546875 360.72166897642614 L 258.4248046875 353.7098310548835 L 259.294921875 346.8413187008962 L 260.1650390625 340.11223402451634 L 261.03515625 333.5188131521925 L 261.9052734375 327.0574206471945 L 262.775390625 320.72454420263455 L 263.6455078125 314.5167895918177 L 264.515625 308.43087586161386 L 265.3857421875 302.4636307554408 L 266.255859375 296.6119863532838 L 267.1259765625 290.87297491694807 L 267.99609375 285.2437249294701 L 268.8662109375 279.72145731827874 L 269.736328125 274.3034818523354 L 270.6064453125 268.98719370405803 L 271.4765625 263.7700701673903 L 272.3466796875 258.6496675238803 L 273.216796875 253.62361804911504 L 274.95703125 243.8454706422046 L 276.697265625 234.41810044424446 L 278.4375 225.32502538296444 L 280.177734375 216.5507338352239 L 281.91796875 208.0806159173611 L 283.658203125 199.90090044904193 L 285.3984375 191.99859705658216 L 287.138671875 184.36144293802522 L 288.87890625 176.97785386200638 L 290.619140625 169.83687901645277 L 292.359375 162.92815936219404 L 294.099609375 156.241889181187 L 295.83984375 149.76878053984962 L 297.580078125 143.50003041541387 L 299.3203125 137.42729025764532 L 301.060546875 131.5426377800966 L 302.80078125 125.8385507945667 L 304.541015625 120.30788291990501 L 306.28125 114.94384101194457 L 308.021484375 109.73996417539864 L 309.76171875 104.69010423117638 L 313.2421875 95.02929796485842 L 316.72265625 85.91782991499953 L 320.203125 77.31606730180744 L 323.68359375 69.18790874251451 L 327.1640625 61.50040966163678 L 330.64453125 54.22345366009952 L 334.125 47.32946346226794 L 337.60546875 40.79314604570223 L 341.0859375 34.591267377023144 L 344.56640625 28.702452859431475 L 348.04687499999994 23.1070101678865 L 351.52734375 17.786771626578144 L 355.0078125 12.724953686211705 L 358.48828125 7.9060313987862685 L 361.96875 3.3156260756169615 L 365.44921875 -1.0595954409932347 L 368.9296875 -5.23201125367288 M 375.28849121023757 -10" stroke-opacity="0.6980392156862745" stroke-linecap="round" stroke-linejoin="round" stroke-miterlimit="10" stroke-width="2.5"/><text fill="rgb(0,0,255)" stroke="none" font-family="geogebra-sans-serif, sans-serif" font-size="16px" font-style="normal" font-weight="normal" text-decoration="normal" x="242" y="507" text-anchor="start" dominant-baseline="alphabetic" fill-opacity="1">h</text><text fill="none" stroke="rgb(255,255,255)" font-family="geogebra-sans-serif, sans-serif" font-size="16px" font-style="normal" font-weight="normal" text-decoration="normal" x="242" y="507" text-anchor="start" dominant-baseline="alphabetic" stroke-opacity="1" stroke-linejoin="bevel" stroke-miterlimit="10" stroke-width="3">h</text><text fill="rgb(0,0,255)" stroke="none" font-family="geogebra-sans-serif, sans-serif" font-size="16px" font-style="normal" font-weight="normal" text-decoration="normal" x="242" y="507" text-anchor="start" dominant-baseline="alphabetic" fill-opacity="1">h</text><path fill="none" stroke="rgb(128,128,128)" paint-order="fill stroke markers" d=" M 280.9940843143517 520 L 280.9940843143517 -5" stroke-opacity="0.6980392156862745" stroke-linejoin="round" stroke-miterlimit="10" stroke-width="2.5" stroke-dasharray="6.5,4"/><path fill="none" stroke="rgb(255,127,0)" paint-order="fill stroke markers" d=" M 180.81466947478697 520 L 478.5648969767632 -5" stroke-opacity="0.6980392156862745" stroke-linecap="round" stroke-linejoin="round" stroke-miterlimit="10" stroke-width="2.5"/><text fill="rgb(255,127,0)" stroke="none" font-family="geogebra-sans-serif, sans-serif" font-size="16px" font-style="normal" font-weight="normal" text-decoration="normal" x="453" y="24" text-anchor="start" dominant-baseline="alphabetic" fill-opacity="1">Tf</text><text fill="none" stroke="rgb(255,255,255)" font-family="geogebra-sans-serif, sans-serif" font-size="16px" font-style="normal" font-weight="normal" text-decoration="normal" x="453" y="24" text-anchor="start" dominant-baseline="alphabetic" stroke-opacity="1" stroke-linejoin="bevel" stroke-miterlimit="10" stroke-width="3">Tf</text><text fill="rgb(255,127,0)" stroke="none" font-family="geogebra-sans-serif, sans-serif" font-size="16px" font-style="normal" font-weight="normal" text-decoration="normal" x="453" y="24" text-anchor="start" dominant-baseline="alphabetic" fill-opacity="1">Tf</text><path fill="none" stroke="rgb(102,204,0)" paint-order="fill stroke markers" d=" M -5 255.35600248738268 L 461.6263394902111 520" stroke-opacity="0.6980392156862745" stroke-linecap="round" stroke-linejoin="round" stroke-miterlimit="10" stroke-width="2.5"/><text fill="rgb(102,204,0)" stroke="none" font-family="geogebra-sans-serif, sans-serif" font-size="16px" font-style="normal" font-weight="normal" text-decoration="normal" x="8" y="280" text-anchor="start" dominant-baseline="alphabetic" fill-opacity="1">Tg</text><text fill="none" stroke="rgb(255,255,255)" font-family="geogebra-sans-serif, sans-serif" font-size="16px" font-style="normal" font-weight="normal" text-decoration="normal" x="8" y="280" text-anchor="start" dominant-baseline="alphabetic" stroke-opacity="1" stroke-linejoin="bevel" stroke-miterlimit="10" stroke-width="3">Tg</text><text fill="rgb(102,204,0)" stroke="none" font-family="geogebra-sans-serif, sans-serif" font-size="16px" font-style="normal" font-weight="normal" text-decoration="normal" x="8" y="280" text-anchor="start" dominant-baseline="alphabetic" fill-opacity="1">Tg</text><path fill="rgb(68,68,68)" stroke="none" paint-order="stroke fill markers" d=" M 284.9940843143517 212.54035453664235 C 284.9940843143517 214.74949353596554 283.20322331367487 216.54035453664235 280.9940843143517 216.54035453664235 C 278.78494531502855 216.54035453664235 276.9940843143517 214.74949353596554 276.9940843143517 212.54035453664235 C 276.9940843143517 210.33121553731917 278.78494531502855 208.54035453664235 280.9940843143517 208.54035453664235 C 283.20322331367487 208.54035453664235 284.9940843143517 210.33121553731917 284.9940843143517 212.54035453664235 Z" fill-opacity="1"/><path fill="none" stroke="rgb(0,0,0)" paint-order="fill stroke markers" d=" M 284.9940843143517 212.54035453664235 C 284.9940843143517 214.74949353596554 283.20322331367487 216.54035453664235 280.9940843143517 216.54035453664235 C 278.78494531502855 216.54035453664235 276.9940843143517 214.74949353596554 276.9940843143517 212.54035453664235 C 276.9940843143517 210.33121553731917 278.78494531502855 208.54035453664235 280.9940843143517 208.54035453664235 C 283.20322331367487 208.54035453664235 284.9940843143517 210.33121553731917 284.9940843143517 212.54035453664235 Z" stroke-opacity="1" stroke-linecap="round" stroke-linejoin="round" stroke-miterlimit="10"/><text fill="rgb(68,68,68)" stroke="none" font-family="geogebra-sans-serif, sans-serif" font-size="16px" font-style="normal" font-weight="normal" text-decoration="normal" x="285" y="205" text-anchor="start" dominant-baseline="alphabetic" fill-opacity="1">a</text><text fill="none" stroke="rgb(255,255,255)" font-family="geogebra-sans-serif, sans-serif" font-size="16px" font-style="normal" font-weight="normal" text-decoration="normal" x="285" y="205" text-anchor="start" dominant-baseline="alphabetic" stroke-opacity="1" stroke-linejoin="bevel" stroke-miterlimit="10" stroke-width="3">a</text><text fill="rgb(68,68,68)" stroke="none" font-family="geogebra-sans-serif, sans-serif" font-size="16px" font-style="normal" font-weight="normal" text-decoration="normal" x="285" y="205" text-anchor="start" dominant-baseline="alphabetic" fill-opacity="1">a</text><path fill="rgb(68,68,68)" stroke="none" paint-order="stroke fill markers" d=" M 284.9940843143517 417.5556284677723 C 284.9940843143517 419.76476746709545 283.20322331367487 421.5556284677723 280.9940843143517 421.5556284677723 C 278.78494531502855 421.5556284677723 276.9940843143517 419.76476746709545 276.9940843143517 417.5556284677723 C 276.9940843143517 415.34648946844914 278.78494531502855 413.5556284677723 280.9940843143517 413.5556284677723 C 283.20322331367487 413.5556284677723 284.9940843143517 415.34648946844914 284.9940843143517 417.5556284677723 Z" fill-opacity="1"/><path fill="none" stroke="rgb(0,0,0)" paint-order="fill stroke markers" d=" M 284.9940843143517 417.5556284677723 C 284.9940843143517 419.76476746709545 283.20322331367487 421.5556284677723 280.9940843143517 421.5556284677723 C 278.78494531502855 421.5556284677723 276.9940843143517 419.76476746709545 276.9940843143517 417.5556284677723 C 276.9940843143517 415.34648946844914 278.78494531502855 413.5556284677723 280.9940843143517 413.5556284677723 C 283.20322331367487 413.5556284677723 284.9940843143517 415.34648946844914 284.9940843143517 417.5556284677723 Z" stroke-opacity="1" stroke-linecap="round" stroke-linejoin="round" stroke-miterlimit="10"/><path fill="rgb(68,68,68)" stroke="none" paint-order="stroke fill markers" d=" M 284.9940843143517 343.36136824472317 C 284.9940843143517 345.5705072440463 283.20322331367487 347.36136824472317 280.9940843143517 347.36136824472317 C 278.78494531502855 347.36136824472317 276.9940843143517 345.5705072440463 276.9940843143517 343.36136824472317 C 276.9940843143517 341.1522292454 278.78494531502855 339.36136824472317 280.9940843143517 339.36136824472317 C 283.20322331367487 339.36136824472317 284.9940843143517 341.1522292454 284.9940843143517 343.36136824472317 Z" fill-opacity="1"/><path fill="none" stroke="rgb(0,0,0)" paint-order="fill stroke markers" d=" M 284.9940843143517 343.36136824472317 C 284.9940843143517 345.5705072440463 283.20322331367487 347.36136824472317 280.9940843143517 347.36136824472317 C 278.78494531502855 347.36136824472317 276.9940843143517 345.5705072440463 276.9940843143517 343.36136824472317 C 276.9940843143517 341.1522292454 278.78494531502855 339.36136824472317 280.9940843143517 339.36136824472317 C 283.20322331367487 339.36136824472317 284.9940843143517 341.1522292454 284.9940843143517 343.36136824472317 Z" stroke-opacity="1" stroke-linecap="round" stroke-linejoin="round" stroke-miterlimit="10"/></g></g></svg>