<svg version="1.1" xmlns="http://www.w3.org/2000/svg" xmlns:xlink="http://www.w3.org/1999/xlink" width="632" height="398"><defs><clipPath id="lVqaXZeHvUnL"><path fill="none" stroke="none" d=" M 0 0 L 632 0 L 632 398 L 0 398 L 0 0 Z"/></clipPath></defs><g transform="scale(1,1)" clip-path="url(#lVqaXZeHvUnL)"><g><rect fill="rgb(255,255,255)" stroke="none" x="0" y="0" width="632" height="398" fill-opacity="1"/><path fill="none" stroke="rgb(37,37,37)" paint-order="fill stroke markers" d=" M 320.5 2.5 L 320.5 398.5" stroke-opacity="1" stroke-miterlimit="10"/><path fill="none" stroke="rgb(37,37,37)" paint-order="fill stroke markers" d=" M 320.5 1.5 L 316.5 5.5" stroke-opacity="1" stroke-miterlimit="10"/><path fill="none" stroke="rgb(37,37,37)" paint-order="fill stroke markers" d=" M 320.5 1.5 L 324.5 5.5" stroke-opacity="1" stroke-miterlimit="10"/><path fill="none" stroke="rgb(37,37,37)" paint-order="fill stroke markers" d=" M 0.5 356.5 L 630.5 356.5" stroke-opacity="1" stroke-miterlimit="10"/><path fill="none" stroke="rgb(37,37,37)" paint-order="fill stroke markers" d=" M 631.5 356.5 L 627.5 352.5" stroke-opacity="1" stroke-miterlimit="10"/><path fill="none" stroke="rgb(37,37,37)" paint-order="fill stroke markers" d=" M 631.5 356.5 L 627.5 360.5" stroke-opacity="1" stroke-miterlimit="10"/><path fill="none" stroke="rgb(204,0,0)" paint-order="fill stroke markers" d=" M 1 354.0057734129219 L 1 354.0244314567209 L 1 354.0057734129219 L 2 353.98693915524285 L 2 353.98693915524285 L 3 353.9679270194507 L 3 353.9679270194507 L 4 353.94873532559484 L 4 353.94873532559484 L 5 353.9293623778586 L 5 353.9293623778586 L 6 353.9098064644092 L 6 353.9098064644092 L 7 353.8900658572467 L 7 353.8900658572467 L 8 353.8701388120513 L 8 353.8701388120513 L 9 353.8500235680292 L 9 353.8500235680292 L 10.000000000000057 353.82971834775685 L 10.000000000000057 353.82971834775685 L 11 353.809221357024 L 11 353.809221357024 L 12.000000000000057 353.7885307846753 L 12.000000000000057 353.7885307846753 L 13 353.76764480245004 L 13 353.76764480245004 L 14 353.74656156482087 L 14 353.74656156482087 L 15 353.7252792088302 L 15 353.7252792088302 L 16 353.7037958539264 L 16 353.7037958539264 L 17 353.6821096017968 L 17 353.6821096017968 L 18 353.6602185362005 L 18 353.6602185362005 L 19 353.6381207227988 L 19 353.6381207227988 L 20 353.61581420898443 L 20 353.61581420898443 L 21 353.5932970237088 L 21 353.5932970237088 L 22 353.57056717730813 L 22 353.57056717730813 L 23 353.5476226613273 L 23 353.5476226613273 L 24 353.52446144834266 L 24 353.52446144834266 L 25.000000000000057 353.5010814917828 L 25.000000000000057 353.5010814917828 L 26 353.4774807257476 L 26 353.4774807257476 L 27.000000000000057 353.45365706482585 L 27.000000000000057 353.45365706482585 L 28 353.42960840391083 L 28 353.42960840391083 L 29 353.4053326180144 L 29 353.4053326180144 L 30 353.3808275620792 L 30 353.3808275620792 L 31 353.3560910707891 L 31 353.3560910707891 L 32 353.3311209583779 L 32 353.3311209583779 L 33 353.3059150184361 L 33 353.3059150184361 L 34 353.2804710237161 L 34 353.2804710237161 L 35 353.2547867259352 L 35 353.2547867259352 L 36 353.2288598555772 L 36 353.2288598555772 L 37 353.2026881216914 L 37 353.20268812169144 L 38 353.1762692116908 L 38 353.1762692116908 L 39 353.14960079114724 L 39 353.14960079114724 L 40.00000000000006 353.12268050358534 L 40.00000000000006 353.12268050358534 L 41 353.0955059702742 L 41 353.0955059702742 L 42.00000000000006 353.0680747900173 L 42.00000000000006 353.0680747900173 L 43 353.0403845389403 L 43 353.0403845389403 L 44 353.0124327702768 L 44 353.0124327702768 L 45 352.98421701415225 L 45 352.98421701415225 L 46 352.9557347773654 L 46 352.9557347773654 L 47 352.92698354316866 L 47 352.92698354316866 L 48 352.89796077104484 L 48 352.89796077104484 L 49 352.8686638964834 L 49 352.8686638964834 L 50 352.8390903307534 L 50 352.8390903307534 L 51 352.80923746067504 L 51 352.80923746067504 L 52 352.7791026483885 L 52 352.7791026483885 L 53 352.74868323112105 L 53 352.74868323112105 L 54 352.71797652095177 L 54 352.71797652095177 L 55.00000000000006 352.6869798045737 L 55.00000000000006 352.6869798045737 L 56 352.6556903430547 L 56 352.6556903430547 L 57.00000000000006 352.6241053715947 L 57.00000000000006 352.6241053715947 L 58 352.59222209928214 L 58 352.59222209928214 L 59.00000000000006 352.5600377088467 L 59.00000000000006 352.5600377088467 L 60 352.5275493564109 L 60 352.5275493564109 L 61 352.49475417123836 L 61 352.49475417123836 L 62 352.46164925548044 L 62 352.46164925548044 L 63 352.42823168392005 L 63 352.42823168392005 L 64 352.3944985037133 L 64 352.3944985037133 L 65 352.36044673412835 L 65 352.36044673412835 L 66.00000000000003 352.32607336628223 L 66.00000000000003 352.32607336628223 L 67 352.2913753628749 L 67 352.2913753628749 L 68.00000000000003 352.2563496579208 L 68.00000000000003 352.2563496579208 L 69 352.2209931564781 L 69 352.2209931564781 L 70.00000000000003 352.18530273437506 L 70.00000000000003 352.18530273437506 L 71 352.1492752379341 L 71 352.1492752379341 L 72.00000000000003 352.11290748369294 L 72.00000000000003 352.11290748369294 L 73 352.0761962581237 L 73 352.0761962581237 L 74.00000000000003 352.03913831734826 L 74.00000000000003 352.03913831734826 L 75 352.0017303868525 L 75 352.0017303868525 L 76.00000000000003 351.9639691611962 L 76.00000000000003 351.9639691611962 L 77.00000000000003 351.92585130372134 L 77.00000000000003 351.92585130372134 L 78 351.8873734462573 L 78 351.8873734462573 L 79.00000000000003 351.848532188823 L 79.00000000000003 351.848532188823 L 80 351.8093240993267 L 80 351.8093240993267 L 81.00000000000003 351.7697457132625 L 81.00000000000003 351.7697457132625 L 82 351.7297935334046 L 82 351.7297935334046 L 83.00000000000003 351.68946402949774 L 83.00000000000003 351.68946402949774 L 84 351.64875363794573 L 84 351.64875363794573 L 85.00000000000003 351.60765876149634 L 85.00000000000003 351.60765876149634 L 86 351.5661757689234 L 86 351.5661757689234 L 87.00000000000003 351.5243009947062 L 87.00000000000003 351.5243009947062 L 88 351.48203073870525 L 88 351.48203073870525 L 89.00000000000003 351.43936126583554 L 89.00000000000003 351.43936126583554 L 90 351.3962888057365 L 90 351.3962888057365 L 91.00000000000003 351.35280955243866 L 91.00000000000003 351.35280955243866 L 92.00000000000003 351.30891966402766 L 92.00000000000003 351.30891966402766 L 93 351.26461526230446 L 93 351.26461526230446 L 94.00000000000003 351.21989243244286 L 94.00000000000003 351.21989243244286 L 95 351.17474722264353 L 95 351.17474722264353 L 96.00000000000003 351.12917564378466 L 96.00000000000003 351.12917564378466 L 97 351.0831736690698 L 97 351.0831736690698 L 98.00000000000003 351.0367372336717 L 98.00000000000003 351.0367372336717 L 99 350.9898622343734 L 99 350.9898622343734 L 100.00000000000003 350.9425445292054 L 100.00000000000003 350.9425445292054 L 101 350.89477993708 L 101 350.89477993708 L 102.00000000000003 350.84656423742155 L 102.00000000000003 350.84656423742155 L 103 350.79789316979367 L 103 350.79789316979367 L 104.00000000000003 350.74876243352276 L 104.00000000000003 350.74876243352276 L 105 350.6991676873179 L 105 350.6991676873179 L 106.00000000000003 350.6491045488874 L 106.00000000000003 350.6491045488874 L 107.00000000000003 350.5985685945515 L 107.00000000000003 350.5985685945515 L 108 350.54755535885135 L 108 350.54755535885135 L 109.00000000000003 350.4960603341547 L 109.00000000000003 350.4960603341547 L 110 350.4440789702574 L 110 350.4440789702574 L 111.00000000000003 350.3916066739813 L 111.00000000000003 350.3916066739813 L 112 350.3386388087686 L 112 350.3386388087686 L 113.00000000000003 350.2851706942721 L 113.00000000000003 350.2851706942721 L 114 350.23119760594125 L 114 350.23119760594125 L 115.00000000000003 350.17671477460533 L 115.00000000000003 350.17671477460533 L 116 350.12171738605156 L 116 350.12171738605156 L 117.00000000000003 350.06620058059974 L 117.00000000000003 350.06620058059974 L 118 350.01015945267324 L 118 350.01015945267324 L 119 349.9535890503649 L 119 349.9535890503649 L 120 349.89648437500006 L 120 349.89648437500006 L 121 349.8388403806945 L 121 349.8388403806945 L 122.00000000000003 349.78065197390873 L 122.00000000000003 349.78065197390873 L 123.00000000000003 349.7219140129978 L 123.00000000000003 349.7219140129978 L 124.00000000000003 349.6626213077572 L 124.00000000000003 349.6626213077572 L 125.00000000000003 349.6027686189639 L 125.00000000000003 349.6027686189639 L 126.00000000000003 349.54235065791386 L 126.00000000000003 349.54235065791386 L 127.00000000000003 349.4813620859541 L 127.00000000000003 349.4813620859541 L 128.00000000000003 349.4197975140117 L 128.00000000000003 349.4197975140117 L 129.00000000000003 349.3576515021168 L 129.00000000000003 349.3576515021168 L 130.00000000000003 349.2949185589227 L 130.00000000000003 349.2949185589227 L 131.00000000000003 349.23159314122 L 131.00000000000003 349.23159314122 L 132.00000000000003 349.1676696534473 L 132.00000000000003 349.1676696534473 L 133 349.1031424471963 L 133 349.1031424471963 L 134 349.0380058207131 L 134 349.0380058207131 L 135 348.9722540183941 L 135 348.9722540183941 L 136 348.90588123027743 L 136 348.90588123027743 L 137.00000000000003 348.8388815915299 L 137.00000000000003 348.8388815915299 L 138.00000000000003 348.7712491819284 L 138.00000000000003 348.7712491819284 L 139.00000000000003 348.70297802533685 L 139.00000000000003 348.70297802533685 L 140.00000000000003 348.6340620891783 L 140.00000000000003 348.6340620891783 L 141.00000000000003 348.5644952839018 L 141.00000000000003 348.5644952839018 L 142.00000000000003 348.4942714624442 L 142.00000000000003 348.4942714624442 L 143.00000000000003 348.4233844196871 L 143.00000000000003 348.4233844196871 L 144.00000000000003 348.35182789190856 L 144.00000000000003 348.35182789190856 L 145.00000000000003 348.2795955562296 L 145.00000000000003 348.2795955562296 L 146.00000000000003 348.20668103005545 L 146.00000000000003 348.20668103005545 L 147.00000000000003 348.13307787051167 L 147.00000000000003 348.13307787051167 L 148 348.0587795738747 L 148 348.0587795738747 L 149 347.98377957499736 L 149 347.98377957499736 L 150 347.90807124672864 L 150 347.90807124672864 L 151 347.83164789932795 L 151 347.83164789932795 L 152.00000000000003 347.7545027798745 L 152.00000000000003 347.7545027798745 L 153.00000000000003 347.6766290716699 L 153.00000000000003 347.6766290716699 L 154.00000000000003 347.5980198936364 L 154.00000000000003 347.5980198936364 L 155.00000000000003 347.5186682997086 L 155.00000000000003 347.5186682997086 L 156.00000000000003 347.43856727821986 L 156.00000000000003 347.43856727821986 L 157.00000000000003 347.35770975128236 L 157.00000000000003 347.35770975128236 L 158.00000000000003 347.27608857416215 L 158.00000000000003 347.27608857416215 L 159.00000000000003 347.19369653464753 L 159.00000000000003 347.19369653464753 L 160.00000000000003 347.1105263524118 L 160.00000000000003 347.1105263524118 L 161.00000000000003 347.02657067837004 L 161.00000000000003 347.02657067837004 L 162.00000000000003 346.9418220940298 L 162.00000000000003 346.9418220940298 L 163.00000000000003 346.8562731108353 L 163.00000000000003 346.8562731108353 L 164.00000000000003 346.76991616950596 L 164.00000000000003 346.76991616950596 L 165 346.6827436393685 L 165 346.6827436393685 L 166 346.59474781768245 L 166 346.59474781768245 L 167.00000000000003 346.5059209289596 L 167.00000000000003 346.5059209289596 L 168.00000000000003 346.41625512427714 L 168.00000000000003 346.41625512427714 L 169.00000000000003 346.3257424805838 L 169.00000000000003 346.3257424805838 L 170.00000000000003 346.23437500000006 L 170.00000000000003 346.23437500000006 L 171.00000000000003 346.14214460911114 L 171.00000000000003 346.14214460911114 L 172.00000000000003 346.0490431582539 L 172.00000000000003 346.0490431582539 L 173.00000000000003 345.9550624207965 L 173.00000000000003 345.9550624207965 L 174.00000000000003 345.86019409241146 L 174.00000000000003 345.86019409241146 L 175.00000000000003 345.76442979034226 L 175.00000000000003 345.76442979034226 L 176.00000000000003 345.6677610526621 L 176.00000000000003 345.6677610526622 L 177.00000000000003 345.5701793375266 L 177.00000000000003 345.5701793375266 L 178.00000000000003 345.47167602241865 L 178.00000000000003 345.47167602241865 L 179.00000000000003 345.37224240338685 L 179.00000000000003 345.37224240338685 L 180 345.27186969427623 L 180 345.2718696942763 L 181 345.170549025952 L 181 345.170549025952 L 182 345.0682714455157 L 182 345.0682714455157 L 183.00000000000003 344.9650279155141 L 183.00000000000003 344.9650279155141 L 184.00000000000003 344.860809313141 L 184.00000000000003 344.860809313141 L 185.00000000000003 344.7556064294305 L 185.00000000000003 344.7556064294305 L 186.00000000000003 344.6494099684439 L 186.00000000000003 344.6494099684439 L 187.00000000000003 344.54221054644785 L 187.00000000000003 344.54221054644785 L 188.00000000000003 344.4339986910854 L 188.00000000000003 344.4339986910854 L 189.00000000000003 344.32476484053893 L 189.00000000000003 344.32476484053893 L 190.00000000000003 344.2144993426853 L 190.00000000000003 344.2144993426853 L 191.00000000000003 344.10319245424284 L 191.00000000000003 344.10319245424284 L 192.00000000000003 343.9908343399107 L 192.00000000000003 343.9908343399107 L 193.00000000000003 343.87741507149934 L 193.00000000000003 343.87741507149934 L 194.00000000000003 343.7629246270537 L 194.00000000000003 343.7629246270537 L 195.00000000000003 343.64735288996735 L 195.00000000000003 343.64735288996735 L 196.00000000000003 343.5306896480887 L 196.00000000000003 343.5306896480887 L 197 343.4129245928186 L 197 343.4129245928186 L 198 343.2940473181995 L 198 343.2940473181995 L 199 343.17404731999574 L 199 343.1740473199958 L 200 343.05291399476573 L 200 343.05291399476573 L 201 342.93063663892474 L 201 342.93063663892474 L 202 342.8072044477991 L 202 342.8072044477991 L 203.00000000000003 342.68260651467176 L 203.00000000000003 342.68260651467176 L 204.00000000000003 342.5568318298182 L 204.00000000000003 342.5568318298182 L 205.00000000000003 342.42986927953376 L 205.00000000000003 342.42986927953376 L 206.00000000000003 342.30170764515174 L 206.00000000000003 342.30170764515174 L 207.00000000000003 342.17233560205176 L 207.00000000000003 342.17233560205176 L 208.00000000000003 342.0417417186594 L 208.00000000000003 342.0417417186594 L 209.00000000000003 341.90991445543597 L 209.00000000000003 341.90991445543597 L 210.00000000000003 341.7768421638588 L 210.00000000000003 341.7768421638588 L 211.00000000000003 341.64251308539207 L 211.00000000000003 341.64251308539207 L 212 341.5069153504476 L 212 341.5069153504476 L 213 341.37003697733644 L 213 341.37003697733644 L 214 341.23186587120955 L 214 341.23186587120955 L 215 341.09238982298956 L 215 341.09238982298956 L 216 340.95159650829186 L 216 340.95159650829186 L 217 340.8094734863353 L 217 340.8094734863353 L 218.00000000000003 340.6660081988434 L 218.00000000000003 340.6660081988434 L 219.00000000000003 340.52118796893404 L 219.00000000000003 340.5211879689341 L 220.00000000000003 340.37500000000006 L 220.00000000000003 340.37500000000006 L 221.00000000000003 340.2274313745778 L 221.00000000000003 340.2274313745778 L 222.00000000000003 340.0784690532062 L 222.00000000000003 340.0784690532062 L 223.00000000000003 339.9280998732743 L 223.00000000000003 339.9280998732743 L 224.00000000000003 339.7763105478583 L 224.00000000000003 339.7763105478583 L 225 339.6230876645476 L 225 339.6230876645476 L 226.00000000000003 339.4684176842594 L 226.00000000000003 339.4684176842594 L 227.00000000000003 339.31228694004255 L 227.00000000000003 339.31228694004255 L 228.00000000000003 339.1546816358698 L 228.00000000000003 339.1546816358698 L 229.00000000000003 338.9955878454189 L 229.00000000000003 338.9955878454189 L 230.00000000000003 338.834991510842 L 230.00000000000003 338.834991510842 L 231.00000000000003 338.6728784415232 L 231.00000000000003 338.6728784415232 L 232 338.509234312825 L 232 338.509234312825 L 233.00000000000003 338.34404466482255 L 233.00000000000003 338.34404466482255 L 234.00000000000003 338.1772949010255 L 234.00000000000003 338.1772949010255 L 235.00000000000003 338.00897028708874 L 235.00000000000003 338.00897028708874 L 236.00000000000003 337.83905594951017 L 236.00000000000003 337.83905594951017 L 237.00000000000003 337.6675368743165 L 237.00000000000003 337.6675368743165 L 238.00000000000003 337.4943979057366 L 238.00000000000003 337.4943979057366 L 239.00000000000003 337.31962374486227 L 239.00000000000003 337.31962374486227 L 240.00000000000003 337.14319894829646 L 240.00000000000003 337.14319894829646 L 241.00000000000003 336.96510792678856 L 241.00000000000003 336.96510792678856 L 242.00000000000003 336.78533494385704 L 242.00000000000003 336.7853349438571 L 243.00000000000003 336.6038641143989 L 243.00000000000003 336.6038641143989 L 244.00000000000003 336.4206794032859 L 244.00000000000003 336.4206794032859 L 245.00000000000003 336.2357646239477 L 245.00000000000003 336.2357646239477 L 246.00000000000003 336.0491034369419 L 246.00000000000003 336.0491034369419 L 247.00000000000003 335.8606793485098 L 247.00000000000003 335.8606793485098 L 248 335.67047570911916 L 248 335.67047570911916 L 249.00000000000003 335.4784757119932 L 249.00000000000003 335.4784757119932 L 250.00000000000003 335.28466239162515 L 250.00000000000003 335.28466239162515 L 251.00000000000003 335.0890186222795 L 251.00000000000003 335.0890186222795 L 252.00000000000003 334.8915271164785 L 252.00000000000003 334.8915271164785 L 253.00000000000003 334.69217042347475 L 253.00000000000003 334.69217042347475 L 254.00000000000003 334.49093092770903 L 254.00000000000003 334.49093092770903 L 255.00000000000003 334.287790847254 L 255.00000000000003 334.28779084725403 L 256 334.08273223224273 L 256 334.08273223224273 L 257 333.8757369632828 L 257 333.8757369632828 L 258 333.666786749855 L 258 333.666786749855 L 259 333.45586312869756 L 259 333.45586312869756 L 260 333.2429474621741 L 260 333.2429474621741 L 261 333.0280209366273 L 261 333.0280209366273 L 262 332.8110645607162 L 262 332.8110645607162 L 263.00000000000006 332.59205916373827 L 263.00000000000006 332.59205916373827 L 264 332.37098539393526 L 264 332.37098539393526 L 265 332.1478237167833 L 265 332.1478237167833 L 266 331.9225544132669 L 266 331.92255441326694 L 267 331.69515757813645 L 267 331.69515757813645 L 268 331.46561311814935 L 268 331.46561311814935 L 269 331.2339007502945 L 269 331.2339007502945 L 270 331.0000000000001 L 270 331.0000000000001 L 271 330.76389019932446 L 271 330.7638901993245 L 272 330.5255504851299 L 272 330.5255504851299 L 273 330.28495979723886 L 273 330.28495979723886 L 274 330.0420968765733 L 274 330.0420968765733 L 275 329.79694026327616 L 275 329.79694026327616 L 276 329.54946829481503 L 276 329.54946829481503 L 277 329.29965910406804 L 277 329.29965910406804 L 278 329.04749061739165 L 278 329.04749061739165 L 279 328.79294055267025 L 279 328.7929405526703 L 280 328.53598641734715 L 280 328.53598641734715 L 281 328.2766055064371 L 281 328.2766055064371 L 282 328.01477490052 L 282 328.01477490052 L 283 327.75047146371605 L 283 327.75047146371605 L 284 327.4836718416408 L 284 327.4836718416408 L 285 327.21435245934197 L 285 327.21435245934197 L 286.00000000000006 326.9424895192163 L 286.00000000000006 326.9424895192163 L 287 326.6680589989064 L 287 326.6680589989064 L 288 326.39103664917855 L 288 326.39103664917855 L 289.00000000000006 326.1113979917796 L 289.00000000000006 326.1113979917796 L 290 325.82911831727426 L 290 325.82911831727426 L 291 325.5441726828617 L 291 325.5441726828617 L 292 325.2565359101713 L 292 325.2565359101713 L 293.00000000000006 324.96618258303823 L 293.00000000000006 324.96618258303823 L 294.00000000000006 324.6730870452573 L 294.00000000000006 324.6730870452574 L 295 324.3772233983163 L 295 324.3772233983163 L 296 324.078565499107 L 296 324.078565499107 L 297.00000000000006 323.7770869576156 L 297.00000000000006 323.7770869576156 L 298.00000000000006 323.47276113459066 L 298.00000000000006 323.47276113459066 L 299 323.1655611391891 L 299 323.1655611391891 L 300.00000000000006 322.8554598266002 L 300.00000000000006 322.8554598266002 L 301.00000000000006 322.5424297956472 L 301.00000000000006 322.5424297956472 L 302.00000000000006 322.22644338636564 L 302.00000000000006 322.22644338636564 L 303 321.9074726775596 L 303 321.9074726775596 L 304.00000000000006 321.58548948433446 L 304.00000000000006 321.58548948433446 L 305.00000000000006 321.26046535560636 L 305.00000000000006 321.26046535560636 L 306.00000000000006 320.93237157158836 L 306.00000000000006 320.93237157158836 L 307.00000000000006 320.60117914125243 L 307.00000000000006 320.60117914125243 L 308.00000000000006 320.26685879976804 L 308.00000000000006 320.26685879976804 L 309.00000000000006 319.929381005916 L 309.00000000000006 319.92938100591607 L 310.00000000000006 319.5887159394785 L 310.00000000000006 319.5887159394785 L 311.00000000000006 319.2448334986036 L 311.00000000000006 319.2448334986036 L 312.00000000000006 318.8977032971459 L 312.00000000000006 318.8977032971459 L 313.00000000000006 318.5472946619812 L 313.00000000000006 318.5472946619812 L 314.00000000000006 318.1935766302963 L 314.00000000000006 318.1935766302963 L 315.00000000000006 317.83651794685323 L 315.00000000000006 317.83651794685323 L 316.00000000000006 317.476087061227 L 316.00000000000006 317.476087061227 L 317.00000000000006 317.1122521250183 L 317.00000000000006 317.11225212501836 L 318.00000000000006 316.74498098903894 L 318.00000000000006 316.74498098903894 L 319.00000000000006 316.37424120047115 L 319.00000000000006 316.37424120047115 L 320.00000000000006 316.0000000000001 L 320.00000000000006 316.0000000000001 L 321.00000000000006 315.62222431891917 L 321.00000000000006 315.62222431891917 L 322.00000000000006 315.2408807762078 L 322.00000000000006 315.2408807762078 L 323.00000000000006 314.85593567558215 L 323.00000000000006 314.85593567558215 L 324.00000000000006 314.46735500251725 L 324.00000000000006 314.46735500251725 L 325.00000000000006 314.0751044212418 L 325.00000000000006 314.0751044212418 L 326.00000000000006 313.679149271704 L 326.00000000000006 313.679149271704 L 327.00000000000006 313.2794545665088 L 327.00000000000006 313.27945456650883 L 328.00000000000006 312.87598498782666 L 328.00000000000006 312.87598498782666 L 329.00000000000006 312.4687048842724 L 329.00000000000006 312.4687048842724 L 330.00000000000006 312.0575782677554 L 330.00000000000006 312.05757826775545 L 331.00000000000006 311.6425688102993 L 331.00000000000006 311.6425688102993 L 332.00000000000006 311.223639840832 L 332.00000000000006 311.22363984083205 L 333.00000000000006 310.8007543419456 L 333.00000000000006 310.80075434194566 L 334.00000000000006 310.3738749466252 L 334.00000000000006 310.3738749466252 L 335.00000000000006 309.9429639349471 L 335.00000000000006 309.94296393494716 L 336.00000000000006 309.507983230746 L 336.00000000000006 309.50798323074605 L 337.00000000000006 309.0688943982502 L 337.00000000000006 309.0688943982502 L 338.00000000000006 308.62565863868565 L 338.00000000000006 308.62565863868565 L 339.00000000000006 308.1782367868473 L 339.00000000000006 308.1782367868474 L 340.00000000000006 307.72658930763885 L 340.00000000000006 307.72658930763885 L 341.00000000000006 307.2706762925786 L 341.00000000000006 307.2706762925787 L 342.00000000000006 306.810457456274 L 342.00000000000006 306.81045745627404 L 343.00000000000006 306.3458921328611 L 343.00000000000006 306.34589213286114 L 344.00000000000006 305.87693927241173 L 344.00000000000006 305.87693927241173 L 345.00000000000006 305.40355743730606 L 345.00000000000006 305.40355743730606 L 346.00000000000006 304.9257047985712 L 346.00000000000006 304.9257047985712 L 347.00000000000006 304.443339132185 L 347.00000000000006 304.443339132185 L 348.00000000000006 303.956417815345 L 348.00000000000006 303.956417815345 L 349.00000000000006 303.4648978227025 L 349.00000000000006 303.4648978227025 L 350.00000000000006 302.9687357225603 L 350.00000000000006 302.9687357225604 L 351.00000000000006 302.46788767303553 L 351.00000000000006 302.46788767303553 L 352.00000000000006 301.962309418185 L 352.00000000000006 301.962309418185 L 353.00000000000006 301.45195628409533 L 353.00000000000006 301.45195628409533 L 354 300.9367831749351 L 354 300.9367831749351 L 355.00000000000006 300.41674456897016 L 355.00000000000006 300.41674456897016 L 356.00000000000006 299.89179451454135 L 356.00000000000006 299.89179451454135 L 357.00000000000006 299.36188662600387 L 357.00000000000006 299.36188662600387 L 358.00000000000006 298.8269740796288 L 358.00000000000006 298.8269740796288 L 359.00000000000006 298.28700960946566 L 359.00000000000006 298.28700960946566 L 360.00000000000006 297.7419455031656 L 360.00000000000006 297.7419455031656 L 361.00000000000006 297.19173359776573 L 361.00000000000006 297.1917335977658 L 362 296.6363252754334 L 362 296.6363252754334 L 363.00000000000006 296.0756714591699 L 363.00000000000006 296.0756714591699 L 364.00000000000006 295.50972260847414 L 364.00000000000006 295.50972260847414 L 365.00000000000006 294.93842871496514 L 365.00000000000006 294.93842871496514 L 366.00000000000006 294.3617392979632 L 366.00000000000006 294.36173929796325 L 367.00000000000006 293.77960340002926 L 367.00000000000006 293.7796034000293 L 368.00000000000006 293.19196958246226 L 368.00000000000006 293.19196958246226 L 369 292.5987859207538 L 369 292.5987859207538 L 370.00000000000006 292.00000000000017 L 370.00000000000006 292.00000000000017 L 371.00000000000006 291.39555891027067 L 371.00000000000006 291.39555891027067 L 372.00000000000006 290.7854092419325 L 372.00000000000006 290.7854092419325 L 373.00000000000006 290.16949708093136 L 373.00000000000006 290.16949708093136 L 374.00000000000006 289.54776800402755 L 374.00000000000006 289.54776800402755 L 375.00000000000006 288.9201670739869 L 375.00000000000006 288.9201670739869 L 376 288.2866388347263 L 376 288.2866388347264 L 377 287.64712730641406 L 377 287.64712730641406 L 378.00000000000006 287.0015759805226 L 378.00000000000006 287.0015759805226 L 379.00000000000006 286.34992781483584 L 379.00000000000006 286.34992781483584 L 380.00000000000006 285.69212522840866 L 380.00000000000006 285.69212522840866 L 381.00000000000006 285.0281100964788 L 381.00000000000006 285.0281100964788 L 382.00000000000006 284.3578237453312 L 382.00000000000006 284.35782374533125 L 383.00000000000006 283.68120694711297 L 383.00000000000006 283.681206947113 L 384.00000000000006 282.9981999146003 L 384.00000000000006 282.9981999146003 L 385 282.3087422959154 L 385 282.3087422959154 L 386 281.6127731691936 L 386 281.6127731691936 L 387 280.91023103720033 L 387 280.91023103720033 L 388.00000000000006 280.201053821897 L 388.00000000000006 280.201053821897 L 389.00000000000006 279.4851788589557 L 389.00000000000006 279.48517885895575 L 390.00000000000006 278.7625428922221 L 390.00000000000006 278.7625428922221 L 391.00000000000006 278.0330820681258 L 391.00000000000006 278.03308206812585 L 392 277.2967319300384 L 392 277.29673193003845 L 393 276.5534274125778 L 393 276.5534274125778 L 394 275.80310283585874 L 394 275.8031028358588 L 395 275.0456918996897 L 395 275.0456918996897 L 396.00000000000006 274.28112767771387 L 396.00000000000006 274.2811276777139 L 397.00000000000006 273.5093426114959 L 397.00000000000006 273.5093426114959 L 398.00000000000006 272.730268504552 L 398.00000000000006 272.730268504552 L 399.00000000000006 271.9438365163239 L 399.00000000000006 271.943836516324 L 400.00000000000006 271.1499771560965 L 400.00000000000006 271.14997715609655 L 401 270.34862027685676 L 401 270.3486202768568 L 402 269.53969506909596 L 402 269.53969506909596 L 403.00000000000006 268.7231300545525 L 403.00000000000006 268.7231300545525 L 404.00000000000006 267.8988530798961 L 404.00000000000006 267.8988530798961 L 405.00000000000006 267.06679131035224 L 405.00000000000006 267.0667913103523 L 406.00000000000006 266.2268712232661 L 406.00000000000006 266.22687122326613 L 407.00000000000006 265.37901860160616 L 407.00000000000006 265.37901860160616 L 408 264.52315852740605 L 408 264.5231585274061 L 409 263.659215375145 L 409 263.65921537514504 L 410 262.7871128050649 L 410 262.7871128050649 L 411.00000000000006 261.9067737564252 L 411.00000000000006 261.90677375642525 L 412.00000000000006 261.01812044069345 L 412.00000000000006 261.01812044069345 L 413.00000000000006 260.1210743346718 L 413.00000000000006 260.12107433467185 L 414.00000000000006 259.2155561735585 L 414.00000000000006 259.2155561735586 L 415.00000000000006 258.3014859439442 L 415.00000000000006 258.3014859439443 L 416.00000000000006 257.3787828767411 L 416.00000000000006 257.3787828767412 L 417.00000000000006 256.44736544004684 L 417.00000000000006 256.4473654400469 L 418.00000000000006 255.5071513319396 L 418.00000000000006 255.50715133193964 L 419.00000000000006 254.55805747320608 L 419.00000000000006 254.55805747320613 L 420.00000000000006 253.60000000000022 L 420.00000000000006 253.60000000000025 L 421 252.63289425643302 L 421 252.63289425643308 L 422 251.65665478709195 L 422 251.656654787092 L 423 250.67119532949016 L 423 250.67119532949022 L 424 249.6764288064441 L 424 249.6764288064441 L 425 248.67226731837894 L 425 248.672267318379 L 426.00000000000006 247.65862213556213 L 426.00000000000006 247.65862213556215 L 427.00000000000006 246.63540369026248 L 427.00000000000006 246.6354036902625 L 428.00000000000006 245.60252156883612 L 428.00000000000006 245.60252156883615 L 429.00000000000006 244.5598845037373 L 429.00000000000006 244.55988450373735 L 430.00000000000006 243.5074003654538 L 430.00000000000006 243.50740036545383 L 431.00000000000006 242.4449761543661 L 431.00000000000006 242.44497615436615 L 432.00000000000006 241.37251799252994 L 432.00000000000006 241.37251799252996 L 433.00000000000006 240.28993111538077 L 433.00000000000006 240.2899311153808 L 434.00000000000006 239.1971198633605 L 434.00000000000006 239.19711986336054 L 435.00000000000006 238.0939876734646 L 435.00000000000006 238.09398767346465 L 436 236.98043707070974 L 436 236.9804370707098 L 437 235.8563696595205 L 437 235.8563696595205 L 438 234.7216861150352 L 438 234.72168611503523 L 439 233.57628617432914 L 439 233.5762861743292 L 440 232.42006862755534 L 440 232.4200686275554 L 441.00000000000006 231.25293130900127 L 441.00000000000006 231.25293130900133 L 442.00000000000006 230.07477108806142 L 442.00000000000006 230.07477108806148 L 443.00000000000006 228.88548386012437 L 443.00000000000006 228.8854838601244 L 444.00000000000006 227.68496453737396 L 444.00000000000006 227.68496453737401 L 445.00000000000006 226.47310703950347 L 445.00000000000006 226.47310703950353 L 446.00000000000006 225.2498042843422 L 446.00000000000006 225.24980428434225 L 447.00000000000006 224.01494817839347 L 447.00000000000006 224.0149481783935 L 448.00000000000006 222.76842960728317 L 448.00000000000006 222.7684296072832 L 449.00000000000006 221.51013842611835 L 449.00000000000006 221.51013842611837 L 450.00000000000006 220.23996344975444 L 450.00000000000006 220.23996344975447 L 451.00000000000006 218.95779244297086 L 451.00000000000006 218.95779244297088 L 452.00000000000006 217.6635121105535 L 452.00000000000006 217.66351211055354 L 453 216.357008087284 L 453 216.35700808728402 L 454 215.03816492783378 L 454 215.03816492783383 L 455 213.70686609656357 L 455 213.70686609656363 L 456 212.36299395722577 L 456 212.3629939572258 L 457 211.00642976256984 L 457 211.00642976256984 L 458 209.63705364384973 L 458 209.63705364384978 L 459 208.254744600232 L 459 208.25474460023204 L 460 206.85938048810385 L 460 206.85938048810385 L 461.00000000000006 205.45083801028034 L 461.00000000000006 205.45083801028036 L 462.00000000000006 204.02899270510952 L 462.00000000000006 204.02899270510954 L 463.00000000000006 202.59371893547487 L 463.00000000000006 202.59371893547493 L 464.00000000000006 201.1448898776937 L 464.00000000000006 201.14488987769374 L 465.00000000000006 199.68237751031072 L 465.00000000000006 199.68237751031074 L 466.00000000000006 198.2060526027858 L 466.00000000000006 198.2060526027858 L 467.00000000000006 196.71578470407493 L 467.00000000000006 196.71578470407496 L 468 195.2114421311034 L 468 195.21144213110347 L 469 193.69289195712975 L 469 193.6928919571298 L 470 192.1600000000004 L 470 192.16000000000045 L 471 190.6126308102928 L 471 190.6126308102929 L 472 189.05064765934713 L 472 189.0506476593472 L 473 187.47391252718427 L 473 187.47391252718432 L 474 185.8822860903105 L 474 185.88228609031057 L 475 184.27562770940634 L 475 184.27562770940642 L 476 182.6537954168994 L 476 182.65379541689947 L 477.00000000000006 181.01664590441993 L 477.00000000000006 181.01664590442002 L 478.00000000000006 179.36403451013774 L 478.00000000000006 179.36403451013783 L 479.00000000000006 177.6958152059797 L 479.00000000000006 177.69581520597976 L 480.00000000000006 176.01184058472606 L 480.00000000000006 176.01184058472614 L 481.00000000000006 174.31196184698575 L 481.00000000000006 174.3119618469858 L 482.00000000000006 172.59602878804787 L 482.00000000000006 172.59602878804793 L 483.00000000000006 170.86388978460923 L 483.00000000000006 170.86388978460928 L 484.00000000000006 169.11539178137676 L 484.00000000000006 169.11539178137687 L 485 167.3503802775434 L 485 167.35038027754348 L 486 165.56869931313557 L 486 165.56869931313565 L 487 163.77019145523278 L 487 163.77019145523286 L 488 161.9546977840563 L 488 161.95469778405635 L 489 160.12205787892663 L 489 160.1220578789267 L 490 158.27210980408856 L 490 158.27210980408864 L 491 156.40469009440204 L 491 156.40469009440213 L 492.00000000000006 154.51963374089829 L 492.00000000000006 154.5196337408984 L 493.00000000000006 152.61677417619904 L 493.00000000000006 152.61677417619907 L 494.00000000000006 150.69594325979836 L 494.00000000000006 150.6959432597984 L 495.00000000000006 148.75697126320554 L 495.00000000000006 148.75697126320563 L 496.00000000000006 146.7996868549475 L 496.00000000000006 146.7996868549476 L 497.00000000000006 144.82391708542949 L 497.00000000000006 144.8239170854296 L 498.00000000000006 142.82948737165307 L 498.00000000000006 142.8294873716531 L 499.00000000000006 140.81622148178934 L 499.00000000000006 140.8162214817894 L 500 138.78394151960717 L 500 138.7839415196072 L 501 136.7324679087534 L 501 136.73246790875348 L 502 134.66161937688568 L 502 134.66161937688574 L 503 132.57121293965437 L 503 132.57121293965446 L 504 130.46106388453407 L 504 130.46106388453413 L 505 128.33098575450174 L 505 128.33098575450185 L 506 126.18079033156121 L 506 126.1807903315613 L 507.00000000000006 124.01028762011171 L 507.00000000000006 124.0102876201118 L 508.00000000000006 121.81928583015957 L 508.00000000000006 121.81928583015966 L 509.00000000000006 119.6075913603712 L 509.00000000000006 119.60759136037129 L 510.00000000000006 117.37500878096611 L 510.00000000000006 117.37500878096623 L 511.00000000000006 115.12134081644851 L 511.00000000000006 115.1213408164486 L 512 112.84638832817521 L 512 112.84638832817524 L 513 110.54995029675976 L 513 110.54995029675985 L 514 108.23182380430993 L 514 108.23182380430995 L 515 105.89180401649716 L 515 105.89180401649725 L 516 103.52968416445725 L 516 103.52968416445734 L 517 101.14525552651997 L 517 101.14525552652003 L 518 98.73830740976541 L 518 98.73830740976547 L 519 96.3086271314076 L 519 96.30862713140766 L 520 93.85600000000056 L 520 93.85600000000062 L 521 91.38020929646854 L 521 91.38020929646859 L 522 88.88103625495535 L 522 88.8810362549554 L 523 86.35826004349485 L 523 86.35826004349491 L 524 83.81165774449676 L 524 83.81165774449687 L 525 81.24100433505015 L 525 81.24100433505026 L 526 78.6460726670391 L 526 78.64607266703916 L 527 76.0266334470719 L 527 76.02663344707202 L 528 73.38245521622054 L 528 73.38245521622059 L 529 70.7133043295675 L 529 70.71330432956756 L 530 68.01894493556182 L 530 68.01894493556188 L 531 65.29913895517728 L 531 65.29913895517734 L 532 62.553646060876645 L 532 62.55364606087676 L 533 59.782223655374764 L 533 59.78222365537482 L 534 56.98462685020297 L 534 56.98462685020303 L 535 54.16060844406945 L 535 54.16060844406951 L 536 51.30991890101694 L 536 51.309918901017 L 537 48.43230632837242 L 537 48.43230632837253 L 538 45.527516454490126 L 538 45.52751645449018 L 539 42.595292606282555 L 539 42.59529260628261 L 540 39.63537568654169 L 540 39.635375686541806 L 541 36.64750415104339 L 541 36.64750415104345 L 542 33.63141398543729 L 542 33.631413985437405 L 543 30.586838681918437 L 543 30.586838681918607 L 544 27.51350921567729 L 544 27.51350921567746 L 545 24.411154021128993 L 545 24.411154021129107 L 546 21.279498967916027 L 546 21.27949896791614 L 547 18.118267336687268 L 547 18.11826733668744 L 548 14.927179794644815 L 548 14.927179794644985 L 549 11.705954370863026 L 549 11.705954370863196 L 550 8.454306431371322 L 550 8.454306431371435 L 551 5.171948654005462 L 551 5.1719486540055755 L 552 1.8585910030169543 L 552 1.8585910030171249 L 553 -1.4860592965529804 L 553 -1.4860592965528667 L 554 -4.862297784745522 L 554 -4.862297784745408 L 555 -8.270422792797206 L 555 -8.270422792797035 L 556 -11.71073546950197 L 556 -11.710735469501856 L 557 -15.183539807821262 L 557 -15.183539807821148 L 558 -18.689142671744605 L 558 -18.68914267174449 L 559 -22.227853823406065 L 559 -22.227853823405894 L 560 -25.799985950454072 L 560 -25.7999859504539 L 561 -29.405854693682386 L 561 -29.405854693682215 L 562 -33.045778674919575 L 562 -33.04577867491946 L 563 -36.72007952518425 L 563 -36.72007952518413 L 564 -40.42908191310403 L 564 -40.42908191310386 L 565 -44.173113573604496 L 565 -44.17311357360444 L 566 -47.95250533686823 L 566 -47.952505336868114 L 567 -51.76759115756818 L 567 -51.767591157568006 L 568 -55.618708144375205 L 568 -55.61870814437515 L 569 -59.506196589747844 L 569 -59.50619658974773 L 570 -63.43039999999894 L 570 -63.430399999998826 L 571 -67.39166512565043 L 571 -67.39166512565026 L 572 -71.39034199207128 L 572 -71.39034199207111 L 573 -75.42678393040808 L 573 -75.42678393040796 L 574 -79.50134760880502 L 574 -79.50134760880485 L 575 -83.61439306391964 L 575 -83.61439306391952 L 576 -87.76628373273752 L 576 -87.7662837327374 L 577 -91.95738648468483 L 577 -91.95738648468466 L 578 -96.18807165404723 L 578 -96.18807165404706 L 579 -100.45871307269186 L 579 -100.45871307269175 L 580 -104.76968810310115 L 580 -104.76968810310103 L 581 -109.12137767171629 L 581 -109.12137767171612 L 582 -113.5141663025974 L 582 -113.51416630259723 L 583 -117.94844215140023 L 583 -117.94844215140006 L 584 -122.42459703967535 L 584 -122.42459703967518 L 585 -126.94302648948883 L 585 -126.94302648948866 L 586 -131.50412975837293 L 586 -131.50412975837287 L 587 -136.108309874604 L 587 -136.10830987460383 L 588 -140.75597367281586 L 588 -140.75597367281568 L 589 -145.4475318299477 L 589 -145.44753182994765 L 590 -150.18339890153317 L 590 -150.183398901533 L 591 -154.9639933583307 L 591 -154.96399335833053 L 592 -159.78973762330025 L 592 -159.78973762330003 L 593 -164.6610581089305 L 593 -164.66105810893026 L 594 -169.5783852549161 L 594 -169.57838525491587 L 595 -174.5421535661937 L 595 -174.54215356619358 L 596 -179.55280165133416 L 596 -179.55280165133405 L 597 -184.61077226130038 L 597 -184.61077226130027 L 598 -189.71651232856794 L 598 -189.71651232856783 L 599 -194.8704730066193 L 599 -194.87047300661908 L 600 -200.07310970980558 L 600 -200.07310970980546 L 601 -205.32488215359132 L 601 -205.3248821535912 L 602 -210.62625439517257 L 602 -210.62625439517245 L 603 -215.97769487448483 L 603 -215.9776948744846 L 604 -221.3796764555927 L 604 -221.37967645559257 L 605 -226.8326764684753 L 605 -226.83267646847509 L 606 -232.33717675120323 L 606 -232.33717675120312 L 607 -237.89366369251383 L 607 -237.8936636925136 L 608 -243.50262827479133 L 608 -243.50262827479133 L 609 -249.1645661174495 L 609 -249.1645661174494 L 610 -254.87997752072653 L 610 -254.8799775207264 L 611 -260.64936750989153 L 611 -260.6493675098914 L 612 -266.4732458798714 L 612 -266.4732458798713 L 613 -272.3521272402947 L 613 -272.3521272402946 L 614 -278.2865310609665 L 614 -278.2865310609663 L 615 -284.2769817177672 L 615 -284.2769817177668 L 616 -290.3240085389894 L 616 -290.32400853898906 L 617 -296.4281458521089 L 617 -296.42814585210857 L 618 -302.5899330310006 L 618 -302.58993303100027 L 619 -308.80991454359645 L 619 -308.8099145435961 L 620 -315.0886399999982 L 620 -315.08863999999795 L 621 -321.4266642010405 L 621 -321.4266642010402 L 622 -327.82454718731407 L 622 -327.8245471873137 L 623 -334.28285428865314 L 623 -334.2828542886528 L 624 -340.80215617408777 L 624 -340.80215617408754 L 625 -347.3830289022714 L 625 -347.3830289022712 L 626 -354.02605397237977 L 626 -354.02605397237954 L 627 -360.73181837549583 L 627 -360.7318183754955 L 628 -367.50091464647545 L 628 -367.5009146464751 L 629 -374.3339409163072 L 629 -374.33394091630686 L 630 -381.23150096496175 L 630 -381.2315009649615 L 631 -388.194204274746 L 631 -388.1942042747458 L 632 -395.2226660841556 L 632 -395.22266608415526 L 633 -402.3175074422406" stroke-opacity="0.6980392156862745" stroke-linecap="round" stroke-linejoin="round" stroke-miterlimit="10" stroke-width="2.5"/><text fill="rgb(204,0,0)" stroke="none" font-family="geogebra-sans-serif, sans-serif" font-size="16px" font-style="normal" font-weight="normal" text-decoration="normal" x="9" y="345" text-anchor="start" dominant-baseline="alphabetic" fill-opacity="1">a^x</text><text fill="none" stroke="rgb(255,255,255)" font-family="geogebra-sans-serif, sans-serif" font-size="16px" font-style="normal" font-weight="normal" text-decoration="normal" x="9" y="345" text-anchor="start" dominant-baseline="alphabetic" stroke-opacity="1" stroke-linejoin="bevel" stroke-miterlimit="10" stroke-width="3">a^x</text><text fill="rgb(204,0,0)" stroke="none" font-family="geogebra-sans-serif, sans-serif" font-size="16px" font-style="normal" font-weight="normal" text-decoration="normal" x="9" y="345" text-anchor="start" dominant-baseline="alphabetic" fill-opacity="1">a^x</text><path fill="rgb(68,68,68)" stroke="none" paint-order="stroke fill markers" d=" M 324.00000000000017 316.00000000000006 C 324.00000000000017 318.2091389993232 322.20913899932333 320.00000000000006 320.00000000000017 320.00000000000006 C 317.790861000677 320.00000000000006 316.00000000000017 318.2091389993232 316.00000000000017 316.00000000000006 C 316.00000000000017 313.7908610006769 317.790861000677 312.00000000000006 320.00000000000017 312.00000000000006 C 322.20913899932333 312.00000000000006 324.00000000000017 313.7908610006769 324.00000000000017 316.00000000000006 Z" fill-opacity="1"/><path fill="none" stroke="rgb(0,0,0)" paint-order="fill stroke markers" d=" M 324.00000000000017 316.00000000000006 C 324.00000000000017 318.2091389993232 322.20913899932333 320.00000000000006 320.00000000000017 320.00000000000006 C 317.790861000677 320.00000000000006 316.00000000000017 318.2091389993232 316.00000000000017 316.00000000000006 C 316.00000000000017 313.7908610006769 317.790861000677 312.00000000000006 320.00000000000017 312.00000000000006 C 322.20913899932333 312.00000000000006 324.00000000000017 313.7908610006769 324.00000000000017 316.00000000000006 Z" stroke-opacity="1" stroke-linecap="round" stroke-linejoin="round" stroke-miterlimit="10"/><text fill="rgb(68,68,68)" stroke="none" font-family="geogebra-sans-serif, sans-serif" font-size="16px" font-style="normal" font-weight="normal" text-decoration="normal" x="315" y="303" text-anchor="start" dominant-baseline="alphabetic" fill-opacity="1">k</text><text fill="none" stroke="rgb(255,255,255)" font-family="geogebra-sans-serif, sans-serif" font-size="16px" font-style="normal" font-weight="normal" text-decoration="normal" x="315" y="303" text-anchor="start" dominant-baseline="alphabetic" stroke-opacity="1" stroke-linejoin="bevel" stroke-miterlimit="10" stroke-width="3">k</text><text fill="rgb(68,68,68)" stroke="none" font-family="geogebra-sans-serif, sans-serif" font-size="16px" font-style="normal" font-weight="normal" text-decoration="normal" x="315" y="303" text-anchor="start" dominant-baseline="alphabetic" fill-opacity="1">k</text></g></g></svg>